<svg viewBox="0 0 331 81" fill="none" xmlns="http://www.w3.org/2000/svg">
<path fill-rule="evenodd" clip-rule="evenodd" d="M13.4644 64.2329L17.3063 51.5031H32.4897L36.0872 64.2329H50.1553L36.1772 15.6708C35.374 12.8033 33.619 11.4765 30.5737 11.4765H10.6726V16.0629H12.3467C14.4245 16.0629 15.5488 16.8652 15.5488 18.4411C15.5488 19.4729 15.3152 20.3397 14.4905 22.7047L0.5 64.2329H13.4644ZM30.5737 42.8712H19.3057L25.3029 23.4988L30.5737 42.8712ZM66.3565 64.2329V15.5188C66.3565 12.9814 64.8533 11.4765 62.3677 11.4765H50.0637V16.0629H50.8644C52.9397 16.0629 53.8156 16.9338 53.8156 19.008V64.2329H66.3565ZM87.6899 15.5188V64.2329H75.1406V19.008C75.1406 16.9338 74.2623 16.0629 72.1746 16.0629H71.3912V11.4765H83.692C86.1652 11.4765 87.6899 12.9814 87.6899 15.5188ZM109.336 64.2329V28.7208C109.336 26.1907 107.811 24.6932 105.332 24.6932H93.1893V29.193H93.9034C95.9812 29.193 96.8578 30.1366 96.8578 32.1961V64.2329H109.336ZM102.38 10.613C106.926 10.613 109.57 12.7534 109.57 16.2908C109.57 19.8699 106.926 21.9891 102.38 21.9891C97.9079 21.9891 95.1755 19.8699 95.1755 16.2908C95.1755 12.7534 97.9079 10.613 102.38 10.613ZM132.24 32.9215C128.651 32.9215 124.093 34.0326 119.93 36.0096L117.154 28.4103C120.887 26.5853 122.493 25.9505 125.626 25.2471C128.734 24.5388 131.929 24.1262 135.2 24.1262C145.36 24.1262 148.88 27.622 148.88 37.6615V56.4963C148.88 59.0174 149.676 59.9749 151.83 59.9749H152.393V64.2329H140.967C138.482 64.2329 137.211 62.9739 137.211 60.5255V59.9749C134.647 61.9528 133.608 62.6006 131.856 63.371C129.852 64.1553 127.61 64.6242 125.133 64.6242C118.342 64.6242 115.071 60.9912 115.071 53.4777C115.071 47.5515 117.45 43.6988 122.493 41.6972C124.008 41.0592 125.552 40.5903 127.214 40.2022C130.098 39.5732 131.695 39.2497 136.808 38.4499V37.5676C136.808 34.1086 135.607 32.9215 132.24 32.9215ZM136.808 45.2412V52.9279C134.721 55.065 132.175 56.3452 130.022 56.3452C127.772 56.3452 126.984 55.2505 126.984 52.2882C126.984 49.3611 127.61 48.0303 129.852 47.1684C131.526 46.4486 133.687 45.8188 136.808 45.2412ZM170.592 64.2329V37.4989C172.68 35.2017 174.828 34.1674 177.308 34.1674C179.955 34.1674 180.586 35.2017 180.586 39.1786V64.2329H193.051V37.3486C193.051 31.0899 192.592 29.1129 190.586 26.9913C188.906 25.158 186.349 24.2218 183.06 24.2218C178.182 24.2218 174.748 25.7193 170.135 29.9903V28.4128C170.135 25.9505 168.835 24.6932 166.283 24.6932H154.444V29.193H155.163C157.24 29.193 158.13 30.1366 158.13 32.1961V64.2329H170.592ZM212.622 55.931H230.047V64.2329H198.64V56.0944L215.426 32.7573H206.462C204.475 32.7573 203.518 33.629 203.518 35.4443V36.1493H198.886V28.965C198.886 26.0289 200.243 24.6883 203.203 24.6883H229.25V32.8488L212.622 55.931ZM330.5 40.5053C330.5 17.3447 312.993 0 289.578 0C266.152 0 248.649 17.3447 248.649 40.5053C248.649 63.6945 266.152 81 289.578 81C312.993 81 330.5 63.6945 330.5 40.5053ZM323.547 40.5053C323.547 60.202 309.238 74.5216 289.578 74.5216C269.916 74.5216 255.605 60.202 255.605 40.5053C255.605 20.8037 269.916 6.48497 289.578 6.48497C309.238 6.48497 323.547 20.8936 323.547 40.5053ZM295.484 63.2248V18.5252C295.484 14.9641 294.207 13.7656 290.709 13.7656H280.139V18.7564H280.77C283.185 18.7564 283.652 19.294 283.652 22.1696V63.2248H295.484ZM300.699 63.2248H312.441V28.4128C312.441 24.9179 311.078 23.6581 307.636 23.6581H300.699V63.2248ZM278.466 63.2248V23.6581H271.511C268.07 23.6581 266.72 24.9179 266.72 28.4128V63.2248H278.466Z" fill="#202840"/>
</svg>
