<svg viewBox="0 0 452 68" fill="none" xmlns="http://www.w3.org/2000/svg">
<path d="M42.2783 33.177L75.4218 66.2334H103.592C103.592 66.2334 91.5444 54.3274 87.026 49.7089C87.026 49.7089 101.784 45.1542 101.716 27.8013C101.784 1.68378 77.1435 1.7775 72.4033 1.76626L26.791 1.77L3.21427 29.8031C2.63914 30.4516 2.28955 31.3326 2.28955 32.2698C2.28955 33.2557 2.68049 34.1367 3.31577 34.8002C3.36088 34.8489 3.40975 34.9051 3.45861 34.9501L34.8203 66.2297L62.9944 66.2334L28.96 32.2698L37.2487 22.4293H70.9448C74.3655 22.4293 76.3315 24.8398 76.3315 27.8013C76.3315 30.7665 73.9182 33.177 70.9448 33.177H42.2783Z" fill="#202840"/>
<path d="M379.732 58.793H368.139V33.174H358.192V62.5117C358.192 64.566 359.865 66.2305 361.921 66.2305H389.678V33.174H379.732V58.793Z" fill="#202840"/>
<path d="M422.179 33.177H394.426V66.2334H425.908V58.7959H404.368V53.4239H425.908V36.892C425.908 34.8377 424.239 33.177 422.179 33.177ZM415.969 45.9602H404.368V40.5935H415.969V45.9602Z" fill="#202840"/>
<path d="M118.29 33.177V66.2334H128.236V40.6145H137.348L137.345 33.1732L118.29 33.177Z" fill="#202840"/>
<path d="M241.038 33.1778H213.281V66.2305H244.767V58.7967H223.228V53.4248H244.767V36.8928C244.767 34.8385 243.102 33.1778 241.038 33.1778ZM234.824 45.961H223.227V40.616H234.824V45.961Z" fill="#202840"/>
<path d="M168.582 33.177H140.826V66.2334H172.311V36.892C172.311 34.8377 170.646 33.177 168.582 33.177ZM150.772 58.7959V40.6107H162.369L162.373 58.7959H150.772Z" fill="#202840"/>
<path d="M204.812 33.177H177.055V53.4239H198.595V58.7959H177.055V66.2334H208.537V45.9677H186.998V40.6145H208.537C208.537 40.6145 208.541 37.7167 208.541 36.892C208.541 34.8377 206.868 33.177 204.812 33.177Z" fill="#202840"/>
<path d="M277.264 33.177H249.507V66.2334H259.45V40.6107H271.046V66.2334H280.993V36.892C280.993 34.8377 279.324 33.177 277.264 33.177Z" fill="#202840"/>
<path d="M313.449 33.177L295.691 33.1732V16.645H285.745V66.2334H317.227V36.892C317.249 34.8189 315.516 33.1545 313.449 33.177ZM307.284 58.7959H295.691V40.6145L307.284 40.6107V58.7959Z" fill="#202840"/>
<path d="M430.652 33.177L430.656 66.2334H440.595V40.6145L449.71 40.6182V33.1732L430.652 33.177Z" fill="#202840"/>
<path d="M349.727 33.177H321.97L321.974 40.6107H343.479V45.9827H321.974L321.97 66.2334H353.456V36.8957C353.456 34.8377 351.783 33.177 349.727 33.177ZM343.479 58.7959H331.953V53.4254H343.479V58.7959Z" fill="#202840"/>
</svg>
