<svg viewBox="0 0 404 56" fill="none" xmlns="http://www.w3.org/2000/svg">
<path fill-rule="evenodd" clip-rule="evenodd" d="M352.594 20.5066L352.716 19.7106C352.775 19.3912 352.688 19.0575 352.491 18.8049C352.287 18.557 351.991 18.4093 351.679 18.4093H346.176C345.667 18.4021 345.222 18.7763 345.126 19.3006L344.972 20.1658L339.093 53.5642C339.04 53.8859 339.134 54.222 339.34 54.4722C339.549 54.7201 339.865 54.8679 340.182 54.8607L342.897 54.8178H345.449C345.958 54.8178 346.382 54.4484 346.483 53.9408L350.517 33.2125C351.849 27.9595 355.197 26.396 358.159 25.9408C358.318 25.9193 358.916 25.9288 359.042 25.843C357.013 38.4106 354.61 53.2901 354.568 53.538C354.516 53.8526 354.605 54.1791 354.805 54.4293C355.004 54.6748 355.305 54.8178 355.607 54.8178H361.535C361.996 54.8178 362.408 54.5104 362.541 54.0456C362.732 53.4402 364.149 44.9006 365 39.7715C367.194 43.2298 374.202 54.3126 374.202 54.3126C374.399 54.6224 374.731 54.8059 375.087 54.8059L382.17 54.8178C382.298 54.8178 382.415 54.7869 382.535 54.7463C382.686 54.8178 382.853 54.8655 383.018 54.8607L388.999 54.8178C389.515 54.8155 389.948 54.4293 390.033 53.9122C390.033 53.9122 394.364 27.9094 394.649 26.2029C396.041 26.2005 401.514 26.1934 401.514 26.1934C402.028 26.1934 402.468 25.8073 402.558 25.2806L403.482 19.6891C403.493 19.6272 403.5 19.57 403.5 19.5032C403.5 19.2506 403.411 18.998 403.255 18.8001C403.053 18.5523 402.757 18.4093 402.438 18.4093C402.438 18.4093 397.465 18.4093 395.676 18.4093C396.006 16.4334 397.21 9.14266 397.21 9.14266C397.217 9.07831 397.224 9.01634 397.224 8.95676C397.224 8.6922 397.139 8.44195 396.976 8.24651C396.779 7.99387 396.476 7.85563 396.169 7.85563H390.225C389.712 7.85563 389.272 8.24174 389.182 8.76609C389.182 8.76609 387.859 16.9149 387.614 18.4093C387.077 18.4259 386.522 18.4379 386.522 18.4379L385.596 18.445L384.612 18.4259C384.234 18.4164 383.897 18.619 383.699 18.936C383.509 18.6333 383.188 18.4379 382.828 18.4379L377.387 18.4259H375.793C375.497 18.4259 375.22 18.557 375.013 18.7787C375.013 18.7787 369.54 25.2996 366.632 28.572C367.483 23.3881 369.829 9.15696 369.829 9.15696C369.836 9.09023 369.843 9.03303 369.843 8.96629C369.843 8.71127 369.753 8.45863 369.59 8.26319C369.391 8.01055 369.095 7.86994 368.783 7.86994L362.862 7.85563C362.342 7.85325 361.897 8.23698 361.812 8.7637C361.675 9.61219 361.06 13.3994 360.237 18.445C360.228 18.4283 360.221 18.4164 360.209 18.4021C360.001 18.1471 359.698 18.0136 359.377 18.0255C356.855 18.1018 354.578 19.1767 352.594 20.5066ZM382.253 51.7743C379.815 47.7034 372.693 35.8199 372.067 34.7712C372.89 33.7606 381.56 22.7804 383.321 20.6306L382.541 24.8873C382.482 25.2114 382.569 25.5451 382.771 25.793C382.973 26.0432 383.268 26.1934 383.587 26.1934C383.587 26.1934 385.123 26.1934 386.288 26.1934C385.981 28.1335 383.156 46.0255 382.253 51.7743ZM178.957 37.5598C177.721 42.0453 173.635 46.3139 169.647 47.3197C166.598 47.7392 164.359 47.4413 162.8 46.3926C161.158 45.22 160.335 43.1845 159.698 41.347C159.588 40.6891 159.53 40.0266 159.53 39.3807C159.53 35.2955 161.633 31.3582 165.501 28.3432C167.726 26.7249 170.746 26.1147 173.396 26.7463C174.891 27.1038 176.937 28.0286 178.214 30.4311C178.93 31.7348 179.31 33.3864 179.31 34.9976C179.31 35.889 179.191 36.7637 178.957 37.5598ZM148.81 8.73034L147.531 15.952C147.471 16.2737 147.556 16.6098 147.758 16.8696C147.96 17.1175 148.258 17.2652 148.581 17.2652H154.765C155.274 17.2652 155.717 16.8887 155.809 16.3596L156.971 9.20225C157.022 8.88287 156.939 8.54682 156.742 8.29656C156.54 8.04631 156.242 7.89854 155.935 7.89615L149.856 7.84372C149.347 7.83895 148.909 8.21553 148.81 8.73034ZM135.451 37.5598C135.683 36.7637 135.795 35.889 135.795 34.9976C135.795 33.3864 135.419 31.7348 134.706 30.4311C133.422 28.0286 131.378 27.1038 129.881 26.7463C127.237 26.1147 124.21 26.7249 121.986 28.3432C118.125 31.3582 116.015 35.2955 116.015 39.3807C116.015 40.0266 116.075 40.6891 116.185 41.347C116.822 43.1845 117.645 45.22 119.289 46.3926C120.849 47.4413 123.089 47.7392 126.134 47.3197C130.124 46.3139 134.206 42.0453 135.451 37.5598ZM84.7194 32.4069C87.2509 32.383 99.3743 32.2639 101.119 32.2472C100.993 31.0269 100.374 29.8829 99.0785 28.5339C97.6476 27.2612 95.687 26.6629 92.9033 26.6462C89.8879 27.0848 86.3658 29.1464 84.7194 32.4069ZM333.257 37.5598C332.023 42.0453 327.939 46.3139 323.947 47.3197C320.895 47.7392 318.657 47.4413 317.107 46.3926C315.46 45.22 314.635 43.1845 313.997 41.347C313.892 40.6891 313.828 40.0266 313.828 39.3807C313.828 35.2955 315.933 31.3582 319.806 28.3432C322.023 26.7249 325.05 26.1147 327.698 26.7463C329.191 27.1038 331.241 28.0286 332.516 30.4311C333.225 31.7348 333.608 33.3864 333.608 34.9976C333.608 35.889 333.491 36.7637 333.257 37.5598ZM0.5 54.253V53.5689C0.532103 53.4974 0.573378 53.4283 0.626118 53.3687L44.6918 0.581546C44.8454 0.405175 45.061 0.300306 45.2948 0.300306H52.4102C52.6441 0.300306 52.8688 0.412325 53.0224 0.602996C53.1371 0.750766 53.2036 0.94382 53.2036 1.12257C53.2036 1.17501 53.1921 1.23698 53.183 1.29179C53.183 1.29179 47.6636 29.6231 46.6386 34.7474C50.1126 30.667 75.7627 0.581546 75.7627 0.581546C75.9094 0.398025 76.1296 0.300306 76.352 0.300306H83.0477C83.2931 0.300306 83.5247 0.414709 83.676 0.614913C83.8251 0.815117 83.8801 1.07967 83.8182 1.32278L76.79 30.9816C76.8473 30.872 76.8977 30.7647 76.9505 30.6599C80.2961 23.8982 86.6524 19.1457 93.5316 18.271C93.5522 18.2663 93.5797 18.2663 93.6072 18.2663C99.8283 17.9373 104.63 20.3851 107.51 25.3282C107.526 25.3544 107.538 25.3783 107.556 25.4069C108.59 27.5662 109.361 30.4668 109.498 33.4532C110.672 29.8924 112.759 26.5986 115.66 23.8195C120.576 19.0671 126.57 17.1961 132.546 18.5594C132.608 18.5737 132.681 18.5999 132.743 18.6261L133.298 18.874C134.623 19.4675 136.065 20.1253 137.285 21.2622C137.932 18.1018 139.826 8.73034 139.826 8.73034C139.932 8.22268 140.365 7.85563 140.867 7.85563H146.361C146.68 7.85563 146.978 8.0034 147.18 8.24889C147.382 8.50153 147.467 8.83521 147.411 9.15696L139.397 54.0718C139.301 54.5962 138.863 54.9728 138.349 54.9728L132.899 54.9561C132.58 54.9561 132.277 54.8178 132.076 54.5676C131.915 54.3674 131.83 54.1171 131.83 53.8621C131.83 53.793 131.837 53.7239 131.851 53.6595C131.851 53.6595 131.988 52.9064 132.076 52.4082C127.632 55.2588 123.133 56.3694 118.918 55.5758C114.098 54.5795 109.61 49.6816 108.707 44.4334C108.459 43.0272 108.349 41.6187 108.363 40.2315C108.173 40.4103 107.921 40.5175 107.65 40.5175C107.65 40.5175 83.5407 40.5271 82.3415 40.5294C82.3139 40.6367 82.2979 40.7344 82.2979 40.8488C82.2979 41.2516 82.4309 41.7736 82.6052 42.3694C82.6052 42.3694 82.6785 42.6411 82.7129 42.7579C83.9145 45.8253 86.7969 47.7487 90.0668 47.6677C93.3183 47.5914 96.3314 45.9731 99.0074 42.8628C99.2046 42.6268 99.4958 42.4934 99.7939 42.4934H105.437C105.802 42.4934 106.143 42.6888 106.334 43.0106C106.531 43.3299 106.556 43.7327 106.402 44.0735C103.199 51.0735 96.015 55.776 88.4754 55.776C83.2312 55.5638 78.8285 52.9111 76.3772 48.4757C75.1573 46.1113 74.5795 43.1774 74.6139 40.1743L71.3027 54.1481C71.2133 54.5247 70.8899 54.7821 70.5253 54.7821H63.3871C63.1463 54.7821 62.9147 54.6653 62.7679 54.4651C62.651 54.3149 62.5914 54.1338 62.5914 53.955C62.5914 53.8859 62.6005 53.8263 62.612 53.762C65.4004 41.6973 69.31 24.5489 70.7294 17.7634C67.3151 21.9176 40.5597 54.4413 40.5597 54.4413C40.4129 54.6248 40.1951 54.7273 39.9635 54.7273L33.9328 54.7821C33.6897 54.7821 33.465 54.6724 33.3113 54.4722C33.1967 54.3269 33.1325 54.1433 33.1325 53.955C33.1325 53.8978 33.1348 53.8383 33.1485 53.7811C35.7007 41.5734 39.271 24.189 40.5276 17.4273C37.237 21.5124 10.7018 54.4889 10.7018 54.4889C10.5482 54.6772 10.312 54.7869 10.0666 54.7821C8.00747 54.7082 6.45507 54.7177 4.65272 54.7273H1.21773C0.910457 54.7344 0.628411 54.5461 0.5 54.253ZM343.066 18.8049C342.869 18.557 342.571 18.4093 342.255 18.4093H336.756C336.256 18.4093 335.818 18.7739 335.717 19.284L335.293 21.4457C334.071 20.3088 332.853 19.5795 331.108 18.874L330.56 18.6261C330.494 18.5999 330.427 18.5737 330.358 18.5594C324.387 17.1961 318.389 19.0671 313.475 23.8195C311.023 26.1648 309.164 28.8842 307.93 31.8134L315.155 1.32278C315.215 1.07967 315.162 0.815117 315.011 0.614913C314.862 0.414709 314.633 0.300306 314.387 0.300306H307.694C307.46 0.300306 307.249 0.398025 307.098 0.581546C307.098 0.581546 281.45 30.667 277.976 34.7474C278.999 29.6231 284.72 1.29179 284.72 1.29179C284.72 1.23698 284.733 1.17501 284.733 1.12257C284.733 0.939053 284.678 0.750766 284.557 0.602996C284.406 0.412326 284.179 0.300306 283.942 0.300306H276.547C276.313 0.300306 276.096 0.405175 275.946 0.581546L239.01 44.9149C238.391 38.4607 235.435 31.4321 235.435 31.4321C230.484 20.8904 219.471 17.475 213.225 23.5216L213.181 23.5312L212.202 24.27C216.733 16.7552 228.228 17.0889 235.63 25.9384C235.63 25.9384 238.918 30.0473 241.253 36.1607C241.874 34.0014 242.255 31.7657 242.369 29.4801C238.517 24.0603 234.174 20.8784 234.174 20.8784C224.825 14.3241 213.633 17.0936 211.131 25.5737L211.099 25.6095L210.615 26.7559C210.92 17.8873 221.032 12.2077 231.695 16.0235C231.695 16.0235 236.715 17.9374 241.782 22.1822C241.713 21.8437 241.645 21.5053 241.555 21.1668C241.007 18.9265 240.214 16.8005 239.189 14.8223C233.277 12.1624 228.04 11.6667 228.04 11.6667C216.786 10.8539 208.432 19.0552 210.344 27.7045L210.331 27.7497L210.457 28.9986C206.46 21.1573 212.482 10.9922 223.55 8.74702C223.55 8.74702 228.689 7.81988 235.009 8.79946C233.406 7.04052 231.576 5.49847 229.546 4.19714C223.211 4.96936 218.485 7.24787 218.485 7.24787C208.354 12.3864 205.061 23.8386 210.879 30.3357L210.886 30.3739L211.601 31.3987C204.366 26.6844 204.694 14.7388 213.202 7.05005C213.202 7.05005 217.178 3.60368 223.092 1.16548C220.652 0.405175 218.122 0.0190671 215.57 0C210.626 3.91113 207.74 8.16071 207.74 8.16071C201.436 17.8825 204.096 29.5063 212.255 32.1113L212.284 32.1399L213.394 32.6524C204.864 32.333 199.4 21.8223 203.071 10.7371C203.071 10.7371 204.761 5.95846 208.489 0.934287C206.355 1.50868 204.334 2.34763 202.44 3.40347C200.033 9.37385 199.583 14.5696 199.583 14.5696C198.797 26.2697 206.694 34.9523 215.015 32.967L215.052 32.9789L216.263 32.8383C208.716 37.002 198.927 30.7385 196.779 19.2291C196.779 19.2291 195.917 14.0882 196.779 7.68165C194.981 9.4525 193.408 11.4855 192.105 13.7545C192.913 20.0681 194.974 24.7062 194.974 24.7062C199.92 35.2431 210.934 38.6609 217.182 32.6118L217.228 32.6023L218.205 31.8658C213.679 39.3807 202.179 39.047 194.784 30.1975C194.784 30.1975 190.991 25.271 189.01 19.5366C189.012 19.2673 188.934 19.0099 188.774 18.8049C188.57 18.557 188.271 18.4093 187.95 18.4093H182.459C181.954 18.4093 181.521 18.7739 181.415 19.284C181.415 19.284 180.993 19.9489 180.798 21.2622C179.579 20.1253 178.134 19.4675 176.813 18.874L176.256 18.6261C176.192 18.5999 176.121 18.5737 176.056 18.5594C170.088 17.1961 164.091 19.0671 159.175 23.8195C156.272 26.5986 154.185 29.8924 153.002 33.4532C153.002 33.4532 152.965 33.5438 152.901 33.6868L155.238 19.6963C155.288 19.3793 155.203 19.048 155.002 18.8001C154.795 18.5523 154.497 18.4069 154.185 18.4093L148.324 18.4164C147.811 18.4212 147.373 18.8001 147.279 19.3292L141.223 53.6595C141.17 53.9813 141.255 54.3126 141.456 54.5676C141.656 54.8155 141.956 54.9561 142.27 54.9561L148.448 54.9728C148.971 54.9728 149.413 54.5843 149.498 54.0528L151.833 40.0861C151.858 40.1743 151.878 40.2315 151.878 40.2315C151.858 41.6187 151.968 43.0272 152.218 44.4334C153.126 49.6816 157.604 54.5795 162.431 55.5758C166.641 56.3694 171.145 55.2588 175.589 52.4082C175.501 52.9064 175.362 53.6595 175.362 53.6595C175.35 53.7239 175.346 53.793 175.346 53.8621C175.346 54.1171 175.43 54.3674 175.589 54.5676C175.788 54.8178 176.088 54.9561 176.412 54.9561L181.862 54.9728C182.376 54.9728 182.819 54.5962 182.908 54.0718L187.707 27.0514C191.298 31.4845 195.997 35.2693 195.997 35.2693C205.343 41.8284 216.529 39.0589 219.031 30.5812L219.067 30.5455L219.553 29.3943C219.248 38.2629 209.134 43.9448 198.469 40.1243C198.469 40.1243 193.871 38.3677 189.026 34.4923C189.067 34.6759 189.102 34.8665 189.147 35.0524C189.723 37.3739 190.555 39.5737 191.633 41.6187C197.269 44.0306 202.131 44.4859 202.131 44.4859C213.378 45.3034 221.734 37.0974 219.822 28.4481L219.838 28.4028L219.705 27.1491C223.706 34.9905 217.682 45.1723 206.611 47.4007C206.611 47.4007 201.773 48.2802 195.708 47.4293C197.159 49.0191 198.797 50.4443 200.604 51.6646C206.889 50.8757 211.546 48.6234 211.546 48.6234C221.681 43.4872 224.976 32.0327 219.157 25.5427L219.145 25.4927L218.434 24.4797C225.669 29.1893 225.346 41.1301 216.836 48.826C216.836 48.826 212.777 52.3296 206.779 54.7726C208.434 55.3517 210.133 55.764 211.856 56H214.309C219.349 52.0507 222.289 47.7106 222.289 47.7106C228.599 37.9911 225.94 26.3602 217.779 23.7623L217.744 23.7266L216.641 23.2189C225.174 23.5407 230.638 34.0514 226.967 45.1365C226.967 45.1365 225.132 50.3228 221.067 55.5829C221.395 55.5066 221.709 55.4375 222.032 55.3493C224.094 54.8059 226.034 54.0123 227.838 53.0446C230.361 46.9455 230.824 41.5567 230.824 41.5567C231.615 29.871 223.715 21.1788 215.389 23.1665L215.355 23.157L214.151 23.2904C221.69 19.1338 231.484 25.395 233.637 36.9043C233.637 36.9043 234.88 42.1883 233.949 48.4471C233.77 49.3504 233.406 50.6612 232.704 52.0579C232.491 52.4464 232.225 52.9064 231.904 53.4402C231.911 53.4331 231.913 53.4259 231.913 53.4259C231.911 53.4402 231.897 53.4522 231.888 53.4688C231.881 53.4855 231.881 53.4879 231.881 53.4998C231.755 53.7239 231.727 54.0027 231.835 54.253C231.961 54.5461 232.245 54.7344 232.56 54.7273H235.99C237.792 54.7177 239.342 54.7082 241.404 54.7821C241.649 54.7869 241.883 54.6772 242.041 54.4889C242.041 54.4889 268.577 21.5124 271.865 17.4273C270.606 24.189 267.038 41.5734 264.483 53.7811C264.474 53.8383 264.47 53.8979 264.47 53.9551C264.47 54.1433 264.529 54.3269 264.642 54.4722C264.793 54.6725 265.022 54.7821 265.27 54.7821L271.303 54.7273C271.532 54.7273 271.75 54.6248 271.899 54.4413C271.899 54.4413 298.648 21.9176 302.071 17.7634C300.645 24.5489 296.74 41.6973 293.956 53.762C293.938 53.8264 293.929 53.8859 293.929 53.9551C293.929 54.1338 293.988 54.3149 294.101 54.4651C294.254 54.6653 294.479 54.7821 294.727 54.7821H301.863C302.227 54.7821 302.551 54.5247 302.638 54.1481L305.726 41.1253L306.155 39.2949C306.169 39.8168 306.176 40.2315 306.176 40.2315C306.162 41.6187 306.272 43.0272 306.522 44.4334C307.423 49.6816 311.911 54.5795 316.728 55.5758C320.939 56.3694 325.447 55.2588 329.891 52.4082C329.801 52.9064 329.664 53.6595 329.664 53.6595C329.652 53.7239 329.645 53.793 329.645 53.8621C329.645 54.1171 329.728 54.3674 329.884 54.5676C330.092 54.8178 330.393 54.9561 330.705 54.9561L336.16 54.9728C336.678 54.9728 337.116 54.5962 337.208 54.0718L342.133 26.8679L343.314 19.5366C343.319 19.2673 343.238 19.0099 343.066 18.8049Z" fill="#202840"/>
</svg>
