<svg viewBox="0 0 286 56" fill="none" xmlns="http://www.w3.org/2000/svg">
<path fill-rule="evenodd" clip-rule="evenodd" d="M77.8756 25.8585C77.8727 25.8247 77.8708 25.8026 77.8702 25.7946C77.9027 25.8205 78.4265 26.2111 78.4589 26.2321C88.093 33.4194 95.6872 41.4769 97.4531 46.7632C98.1326 48.7889 98.251 50.5926 97.5731 51.9539C96.8596 53.3767 95.3126 54.3718 93.2061 55.0767C83.7957 58.2206 62.5457 53.1158 42.2899 43.1055C42.1511 43.0385 42.0148 42.9699 41.8798 42.9019C41.8222 42.8729 41.7649 42.844 41.7077 42.8155C41.4547 42.689 41.2034 42.5626 40.952 42.4346C42.1471 46.7097 45.6304 51.6411 49.5175 54.6278C49.5397 54.6459 49.7891 54.8361 49.9838 54.9846C50.1024 55.075 50.2007 55.1499 50.2148 55.161C50.2222 55.1675 50.1512 55.1655 50.0911 55.1638C50.0461 55.1625 50.0072 55.1614 50.0121 55.1642C49.9973 55.1642 49.8565 55.1496 49.7178 55.1352C49.5829 55.1213 49.45 55.1075 49.4364 55.1075C36.8914 53.7721 28.1232 43.7392 26.2632 33.9607C13.4539 25.5596 3.33808 16.1003 1.02401 9.17886C0.321837 7.08184 0.32508 5.29597 1.03536 3.87635C1.71158 2.52318 3.077 1.49411 5.09756 0.818334C10.1863 -0.881646 22.355 -0.21073 38.9752 5.49206C42.8477 3.20706 47.4969 1.79392 52.7916 1.87171C53.1808 1.87495 53.5489 1.88953 53.9024 1.90574C54.2202 1.92032 54.5251 1.94463 54.8219 1.9738C54.8511 1.97542 55.115 2.00094 55.3789 2.02647C55.6428 2.05199 55.9067 2.07752 55.9359 2.07914C55.924 2.08322 55.9005 2.0905 55.8671 2.10085C55.7018 2.15217 55.2931 2.27902 54.8316 2.46646C46.2337 6.01389 38.0476 22.1856 39.5379 32.9867C39.5391 33.0059 39.5724 33.2371 39.5909 33.3653C39.5973 33.4101 39.602 33.4423 39.6028 33.4485C39.6045 33.4613 39.5096 33.4261 39.4193 33.3927C39.3369 33.3622 39.2583 33.3332 39.2606 33.3432C32.8989 30.175 26.6054 24.4868 27.0708 20.1388C27.0724 20.1388 27.074 20.1177 27.074 20.1145C27.074 20.1145 27.0789 20.0934 27.0821 20.0902C28.6016 15.3387 31.8822 10.592 36.5995 7.07536C26.6378 4.11296 16.522 2.66741 11.242 4.72877C9.79869 5.28625 8.7203 6.09978 8.09435 7.19852C6.44514 10.1058 8.17381 14.94 14.5517 21.1225C21.4194 27.7798 31.5676 34.5878 43.1266 40.2971C59.3073 48.293 79.1351 53.7413 87.4492 50.9037C89.0595 50.3544 90.2206 49.4971 90.8352 48.306C91.3606 47.2882 91.4239 46.0971 91.1304 44.778C90.0731 40.0102 83.9125 33.5263 78.1135 28.7683C78.107 28.7619 78 28.6743 77.9919 28.6711C77.9919 28.6657 77.9923 28.6471 77.993 28.6178C77.9973 28.4369 78.0112 27.8488 77.9902 27.4541C77.9619 26.8755 77.8953 26.0906 77.8756 25.8585ZM105.942 15.5299V16.1635C105.942 23.6522 110.708 27.4265 115.074 30.8054L116.219 31.6983C120.054 34.7142 122.285 37.735 122.285 40.148V40.3279C122.285 43.7667 120.769 44.5333 119.207 44.5333C117.725 44.5333 116.018 43.0666 116.018 40.0913V36.5001H105.527V39.6521C105.527 47.3304 111.026 52.4886 119.207 52.4886C127.966 52.4886 133.16 47.8133 133.16 39.9325V39.5111C133.16 31.8815 129.685 28.932 124.178 24.396L123.312 23.6797C123.305 23.6733 121.726 22.4011 121.726 22.4011C118.976 20.2101 116.832 18.186 116.832 15.551V15.2819C116.832 13.838 117.325 11.2548 119.929 11.2548C122.345 11.2548 122.9 14.2464 122.9 15.7859V19.0076H133.092V15.7227C133.092 7.82569 127.924 2.72089 119.929 2.72089C113.193 2.72089 105.942 6.73018 105.942 15.5299ZM160.935 3.65433V11.9452H168.885V51.5406H179.62V11.9452H186.431V3.65433H160.935ZM205.699 39.9649V3.65433H216.391V41.1252C216.391 48.0029 210.986 52.4433 202.618 52.4433C194.258 52.4433 188.857 48.0029 188.857 41.1252V3.65433H199.545V39.9649C199.545 42.6469 200.787 44.0957 202.618 44.0957C203.679 44.0957 205.699 43.6047 205.699 39.9649ZM275.118 3.65433L275.676 37.9424H275.41L267.276 3.65433H253.223V51.5844H263.903L263.042 17.1537H263.311L271.588 51.5795L285.5 51.5844V3.65433H275.118ZM133.809 51.5844L142.653 3.65433H156.836L165.687 51.5844L154.656 51.5795L150.121 14.517H149.616L144.876 51.5876L133.809 51.5844ZM233.231 27.1899V27.433L233.233 27.9273L239.259 51.5406H250.21L243.775 30.7244V30.5915L244.015 30.4051C246.97 28.078 248.655 23.7899 248.655 18.515V17.6933C248.655 13.3518 247.242 9.71851 244.575 7.19852C242.095 4.86004 238.802 3.63327 234.838 3.65433H221.077V51.5406H230.286L231.641 51.5066V11.5692L231.645 11.4768H233.325C237.276 11.4768 238.064 15.3857 238.145 18.1406C238.147 18.186 238.15 18.549 238.151 18.9023C238.151 19.194 238.153 19.5959 238.153 19.5959C238.153 19.8536 238.148 20.2506 238.137 20.4872C237.937 25.0961 235.826 26.7248 234.191 27.0246C234.186 27.0278 234.148 27.0359 234.139 27.0392L233.231 27.1899Z" fill="#202840"/>
</svg>
