<svg viewBox="0 0 338 44" fill="none" xmlns="http://www.w3.org/2000/svg">
<path d="M30.4625 25.1167H32.8919V27.5H35.4458V25.1167H37.8752V27.5H40.3669V42.7778L39.744 43.3889H34.1377L33.5148 42.7778L32.8919 39.7222H32.2689C31.0231 40.9444 27.9085 44 21.0564 44C8.59796 44 0.5 34.8333 0.5 22C0.5 9.16667 8.59796 0 21.6793 0C34.1377 0 39.1211 6.72222 40.3669 12.8333L39.744 13.4444H32.2689L31.646 12.8333C30.4002 10.3889 28.5314 7.33333 21.6793 7.33333C13.5813 7.33333 9.22088 13.4444 9.22088 22C9.22088 30.5556 13.5813 36.6667 21.6793 36.6667C28.5314 36.6667 31.646 33 31.646 28.1111V27.5H30.4625V25.1167ZM20.4957 20.2278H22.9251V22.6111H20.4957V20.2278ZM20.4957 25.1167H22.9251V27.5H20.4957V25.1167ZM22.9874 22.6722H25.4168V25.0556H22.9874V22.6722ZM25.4791 20.2278H27.9085V22.6111H25.4791V20.2278ZM25.4791 25.1167H27.9085V27.5H25.4791V25.1167ZM27.9708 22.6722H30.4002V25.0556H27.9708V22.6722ZM30.4625 20.2278H32.8919V22.6111H30.4625V20.2278ZM32.9541 22.6722H35.3835V25.0556H32.9541V22.6722ZM35.4458 20.2278H37.8752V22.6111H35.4458V20.2278ZM37.9375 22.6722H40.3669V25.0556H37.9375V22.6722Z" fill="#202840"/>
<path d="M72.7587 25.6669V26.278L80.8567 36.6669V42.778L80.2338 43.3891H76.4962L75.2504 42.778L62.792 26.8891L61.5462 26.278H55.317L54.694 26.8891V42.778L54.0711 43.3891H46.5961L45.9731 42.778V1.22244L46.5961 0.611328H67.1524C75.8733 0.611328 82.1025 4.8891 82.1025 13.4447C82.1025 20.1669 77.7421 24.4447 72.7587 25.6669ZM67.1524 7.94466H55.317L54.694 8.55577V18.3335L55.317 18.9447H67.1524C70.89 18.9447 73.3816 17.7224 73.3816 13.4447C73.3816 9.16688 70.89 7.94466 67.1524 7.94466Z" fill="#202840"/>
<path d="M86.4629 3.48355L90.761 0.672439V2.01688L86.4629 4.8891V3.48355ZM86.4629 7.76133L90.761 4.95022V6.29466L86.4629 9.16688V7.76133ZM86.4629 12.0391L90.761 9.22799V10.5724L86.4629 13.4447V12.0391ZM86.4629 16.3169L90.761 13.5058V14.8502L86.4629 17.7224V16.3169ZM86.4629 20.5947L90.761 17.7835V19.128L86.4629 22.0002V20.5947ZM86.4629 24.8724L90.761 22.0613V23.4058L86.4629 26.278V24.8724ZM86.4629 29.1502L90.761 26.3391V27.6835L86.4629 30.5558V29.1502ZM86.4629 33.428L90.761 30.6169V31.9613L86.4629 34.8335V33.428ZM86.4629 37.7058L90.761 34.8947V36.2391L86.4629 39.1113V37.7058ZM86.4629 41.9835L90.761 39.1724V40.5169L86.4629 43.3891V41.9835ZM90.8233 7.76133L95.1215 4.95022V2.01688L90.8233 4.8891V3.48355L95.1838 0.611328H116.363L116.986 1.22244V7.33355L116.363 7.94466H95.1215V6.29466L90.8233 9.16688V7.76133ZM90.8233 12.0391L95.1215 9.22799V10.5724L90.8233 13.4447V12.0391ZM90.8233 16.3169L95.1215 13.5058V14.8502L90.8233 17.7224V16.3169ZM90.8233 24.8724L95.1215 22.0613V19.128L90.8233 22.0002V20.5947L95.1838 17.7224H115.117L115.74 18.3335V24.4447L115.117 25.0558H95.1215V23.4058L90.8233 26.278V24.8724ZM90.8233 29.1502L95.1215 26.3391V27.6835L90.8233 30.5558V29.1502ZM90.8233 33.428L95.1215 30.6169V31.9613L90.8233 34.8335V33.428ZM90.8233 41.9835L95.1215 39.1724V36.2391L90.8233 39.1113V37.7058L95.1215 34.8947V36.0558H116.363L116.986 36.6669V42.778L116.363 43.3891H95.1215V40.5169L90.8233 43.3891V41.9835Z" fill="#202840"/>
<path d="M152.492 43.3891H123.215L122.592 42.778V1.22244L123.215 0.611328H152.492L153.115 1.22244V7.33355L152.492 7.94466H131.936L131.313 8.55577V17.1113L131.936 17.7224H151.247L151.87 18.3335V24.4447L151.247 25.0558H131.936L131.313 25.6669V35.4447L131.936 36.0558H152.492L153.115 36.6669V42.778L152.492 43.3891Z" fill="#202840"/>
<path d="M186.753 39.1724H191.051L186.753 43.3891H186.13L184.884 42.778L168.065 14.6669H167.443V42.778L166.82 43.3891H159.345L158.722 42.778V1.22244L159.345 0.611328H168.065L169.311 1.22244L186.753 30.4335V26.3391H191.051L186.753 30.5558V30.6169H191.051L186.753 34.8335V34.8947H191.051L186.753 39.1113V39.1724ZM186.753 0.611328H191.051L186.753 4.82799V0.611328ZM186.753 4.8891H191.051L186.753 9.16688V4.8891ZM186.753 9.22799H191.051L186.753 13.4447V9.22799ZM186.753 13.5058H191.051L186.753 17.7224V13.5058ZM186.753 17.7835H191.051L186.753 22.0002V17.7835ZM186.753 22.0613H191.051L186.753 26.278V22.0613ZM191.114 0.611328H195.412L191.114 4.82799V0.611328ZM191.114 4.8891H195.412L191.114 9.16688V4.8891ZM191.114 9.22799H195.412L191.114 13.4447V9.22799ZM191.114 13.5058H195.412L191.114 17.7224V13.5058ZM191.114 17.7835H195.412L191.114 22.0002V17.7835ZM191.114 22.0613H195.412L191.114 26.278V22.0613ZM191.114 26.3391H195.412L191.114 30.5558V26.3391ZM191.114 30.6169H195.412L191.114 34.8335V30.6169ZM191.114 34.8947H195.412L191.114 39.1113V34.8947ZM191.114 39.1724H195.412L191.114 43.3891V39.1724Z" fill="#202840"/>
<path d="M240.324 30.5556L240.947 29.9444H248.422L249.045 30.5556C247.799 39.1111 240.947 44 230.981 44C217.276 44 209.801 34.8333 209.801 22C209.801 9.16667 217.276 0 230.981 0C240.947 0 247.799 4.88889 249.045 12.8333L248.422 13.4444H240.947L240.324 12.8333C239.079 9.16667 235.964 7.33333 230.981 7.33333C222.26 7.33333 218.522 13.4444 218.522 22C218.522 30.5556 222.26 36.6667 230.981 36.6667C235.964 36.6667 239.079 34.8333 240.324 30.5556Z" fill="#202840"/>
<path d="M253.406 2.01688C253.406 1.22244 254.029 0.611328 254.838 0.611328C255.648 0.611328 256.271 1.22244 256.271 2.01688C256.271 2.81133 255.648 3.42244 254.838 3.42244C254.029 3.42244 253.406 2.81133 253.406 2.01688ZM253.406 7.76133C253.406 6.96688 254.029 6.35577 254.838 6.35577C255.648 6.35577 256.271 6.96688 256.271 7.76133C256.271 8.55577 255.648 9.16688 254.838 9.16688C254.029 9.16688 253.406 8.55577 253.406 7.76133ZM253.406 13.4447C253.406 12.6502 254.029 12.0391 254.838 12.0391C255.648 12.0391 256.271 12.6502 256.271 13.4447C256.271 14.2391 255.648 14.8502 254.838 14.8502C254.029 14.8502 253.406 14.2391 253.406 13.4447ZM253.406 19.128C253.406 18.3335 254.029 17.7224 254.838 17.7224C255.648 17.7224 256.271 18.3335 256.271 19.128C256.271 19.9224 255.648 20.5335 254.838 20.5335C254.029 20.5335 253.406 19.9224 253.406 19.128ZM253.406 24.8724C253.406 24.078 254.029 23.4669 254.838 23.4669C255.648 23.4669 256.271 24.078 256.271 24.8724C256.271 25.6669 255.648 26.278 254.838 26.278C254.029 26.278 253.406 25.6669 253.406 24.8724ZM253.406 30.5558C253.406 29.7613 254.029 29.1502 254.838 29.1502C255.648 29.1502 256.271 29.7613 256.271 30.5558C256.271 31.3502 255.648 31.9613 254.838 31.9613C254.029 31.9613 253.406 31.3502 253.406 30.5558ZM253.406 36.2391C253.406 35.4447 254.029 34.8335 254.838 34.8335C255.648 34.8335 256.271 35.4447 256.271 36.2391C256.271 37.0335 255.648 37.6447 254.838 37.6447C254.029 37.6447 253.406 37.0335 253.406 36.2391ZM253.406 41.9835C253.406 41.1891 254.029 40.578 254.838 40.578C255.648 40.578 256.271 41.1891 256.271 41.9835C256.271 42.778 255.648 43.3891 254.838 43.3891C254.029 43.3891 253.406 42.778 253.406 41.9835ZM256.333 4.8891C256.333 4.09466 256.956 3.48355 257.766 3.48355C258.576 3.48355 259.199 4.09466 259.199 4.8891C259.199 5.68355 258.576 6.29466 257.766 6.29466C256.956 6.29466 256.333 5.68355 256.333 4.8891ZM256.333 10.5724C256.333 9.77799 256.956 9.16688 257.766 9.16688C258.576 9.16688 259.199 9.77799 259.199 10.5724C259.199 11.3669 258.576 11.978 257.766 11.978C256.956 11.978 256.333 11.3669 256.333 10.5724ZM256.333 16.3169C256.333 15.5224 256.956 14.9113 257.766 14.9113C258.576 14.9113 259.199 15.5224 259.199 16.3169C259.199 17.1113 258.576 17.7224 257.766 17.7224C256.956 17.7224 256.333 17.1113 256.333 16.3169ZM256.333 22.0002C256.333 21.2058 256.956 20.5947 257.766 20.5947C258.576 20.5947 259.199 21.2058 259.199 22.0002C259.199 22.7947 258.576 23.4058 257.766 23.4058C256.956 23.4058 256.333 22.7947 256.333 22.0002ZM256.333 27.6835C256.333 26.8891 256.956 26.278 257.766 26.278C258.576 26.278 259.199 26.8891 259.199 27.6835C259.199 28.478 258.576 29.0891 257.766 29.0891C256.956 29.0891 256.333 28.478 256.333 27.6835ZM256.333 33.428C256.333 32.6335 256.956 32.0224 257.766 32.0224C258.576 32.0224 259.199 32.6335 259.199 33.428C259.199 34.2224 258.576 34.8335 257.766 34.8335C256.956 34.8335 256.333 34.2224 256.333 33.428ZM256.333 39.1113C256.333 38.3169 256.956 37.7058 257.766 37.7058C258.576 37.7058 259.199 38.3169 259.199 39.1113C259.199 39.9058 258.576 40.5169 257.766 40.5169C256.956 40.5169 256.333 39.9058 256.333 39.1113ZM259.261 2.01688C259.261 1.22244 259.884 0.611328 260.694 0.611328C261.504 0.611328 262.127 1.22244 262.127 2.01688C262.127 2.81133 261.504 3.42244 260.694 3.42244C259.884 3.42244 259.261 2.81133 259.261 2.01688ZM259.261 7.76133C259.261 6.96688 259.884 6.35577 260.694 6.35577C261.504 6.35577 262.127 6.96688 262.127 7.76133C262.127 8.55577 261.504 9.16688 260.694 9.16688C259.884 9.16688 259.261 8.55577 259.261 7.76133ZM259.261 13.4447C259.261 12.6502 259.884 12.0391 260.694 12.0391C261.504 12.0391 262.127 12.6502 262.127 13.4447C262.127 14.2391 261.504 14.8502 260.694 14.8502C259.884 14.8502 259.261 14.2391 259.261 13.4447ZM259.261 19.128C259.261 18.3335 259.884 17.7224 260.694 17.7224C261.504 17.7224 262.127 18.3335 262.127 19.128C262.127 19.9224 261.504 20.5335 260.694 20.5335C259.884 20.5335 259.261 19.9224 259.261 19.128ZM259.261 24.8724C259.261 24.078 259.884 23.4669 260.694 23.4669C261.504 23.4669 262.127 24.078 262.127 24.8724C262.127 25.6669 261.504 26.278 260.694 26.278C259.884 26.278 259.261 25.6669 259.261 24.8724ZM259.261 30.5558C259.261 29.7613 259.884 29.1502 260.694 29.1502C261.504 29.1502 262.127 29.7613 262.127 30.5558C262.127 31.3502 261.504 31.9613 260.694 31.9613C259.884 31.9613 259.261 31.3502 259.261 30.5558ZM259.261 36.2391C259.261 35.4447 259.884 34.8335 260.694 34.8335C261.504 34.8335 262.127 35.4447 262.127 36.2391C262.127 37.0335 261.504 37.6447 260.694 37.6447C259.884 37.6447 259.261 37.0335 259.261 36.2391ZM259.261 41.9835C259.261 41.1891 259.884 40.578 260.694 40.578C261.504 40.578 262.127 41.1891 262.127 41.9835C262.127 42.778 261.504 43.3891 260.694 43.3891C259.884 43.3891 259.261 42.778 259.261 41.9835Z" fill="#202840"/>
<path d="M300.748 7.94466H288.289L287.666 8.55577V42.778L287.043 43.3891H279.568L278.945 42.778V8.55577L278.323 7.94466H265.864L265.241 7.33355V1.22244L265.864 0.611328H300.748L301.371 1.22244V7.33355L300.748 7.94466Z" fill="#202840"/>
<path d="M317.747 27.5002H320.55L304.168 0.611328H305.538L320.681 25.4224V20.778L308.41 0.611328H309.718L320.681 18.6391L331.271 1.22244L332.517 0.611328H336.877L337.5 1.22244V7.33355L325.042 27.5002V42.778L324.419 43.3891H316.944L316.321 42.778V27.5002L303.862 7.0891V4.76688L317.747 27.5002Z" fill="#202840"/>
</svg>
