<svg viewBox="0 0 113 112" fill="none" xmlns="http://www.w3.org/2000/svg">
<path fill-rule="evenodd" clip-rule="evenodd" d="M0.126465 56.0099C0.126465 25.0711 25.1931 0 56.1265 0C87.04 0 112.107 25.0711 112.126 55.9901C112.126 86.9289 87.0598 112 56.1265 112C25.1931 112 0.126465 86.9289 0.126465 56.0099ZM2.93148 56.0095C2.93148 26.6314 26.7537 2.80501 56.1265 2.80501C85.4994 2.80501 109.322 26.6117 109.322 56.0095C109.322 85.3875 85.4994 109.214 56.1265 109.214C26.7537 109.214 2.93148 85.3875 2.93148 56.0095ZM28.3131 64.6044C29.6366 68.8916 31.8687 72.6651 34.7329 75.7471V62.6288L43.2267 75.0359V82.1087C45.281 83.1361 47.4736 83.9066 49.7255 84.4203L43.286 75.0161V59.9814L51.7798 72.3885V84.8154C55.9872 85.4476 60.3921 85.171 64.7378 83.8276C69.0835 82.4841 72.8761 80.2121 75.9773 77.3277L68.965 67.074V52.0483L77.4391 64.4266V75.8064C79.0193 74.1073 80.3625 72.2305 81.4884 70.235L77.5181 64.4266V49.3919L84.9452 60.2382C85.5378 56.0498 85.2613 51.6836 83.9378 47.3965C82.6144 43.1093 80.3823 39.3358 77.5181 36.2537V49.3919L69.0242 36.9847V29.9119C66.9699 28.8845 64.7773 28.114 62.5255 27.6004L68.9452 36.9847V52.0104L60.4712 39.6321V27.2052C56.2637 26.573 51.8391 26.8496 47.5131 28.1931C43.1674 29.5365 39.3749 31.8085 36.2736 34.693L43.286 44.9466V59.9814L34.7921 47.5743V36.1945C33.2119 37.8935 31.8687 39.7704 30.7428 41.7658L34.7329 47.594V62.6288L27.3057 51.7824C26.6934 55.951 26.9699 60.3172 28.3131 64.6044ZM51.8391 57.334L60.3329 69.7411V84.7759L51.8391 72.3688V57.334ZM51.8391 57.334L43.3452 44.9269V29.8921L51.8391 42.2993V57.334ZM60.3921 54.6866L51.8983 42.2795V27.2448L60.3921 39.6519V54.6866ZM60.3921 54.6866L68.886 67.0938V82.1285L60.3921 69.7214V54.6866ZM56.1275 5.3138C28.1373 5.3138 5.46079 28.0141 5.46079 55.9894C5.44103 83.9845 28.1373 106.685 56.1275 106.685C84.0978 106.685 106.794 83.9845 106.794 56.0092C106.794 28.0141 84.0978 5.3138 56.1275 5.3138ZM56.1275 87.6394C38.646 87.6394 24.483 73.474 24.483 55.9894C24.483 38.5048 38.646 24.3394 56.1275 24.3394C73.6089 24.3394 87.7719 38.5048 87.7719 55.9894C87.7522 73.474 73.5892 87.6394 56.1275 87.6394ZM22.2503 66.4818L23.6923 69.544L21.3614 73.9695C21.0058 74.6215 20.7095 75.1747 20.7095 75.1747L20.7491 75.2339C20.7491 75.2339 21.3614 75.2734 22.112 75.3327L27.0898 75.7871L28.8676 78.6518L18.1021 84.9344L16.3836 82.1685L20.8873 79.5409C21.9342 78.9284 22.7244 78.4938 22.7244 78.4938L22.6849 78.4345C22.6849 78.4345 22.1318 78.395 21.0058 78.2172L16.4231 77.5257L16.3836 77.4664L18.3194 73.2583C18.7935 72.2112 19.07 71.737 19.07 71.737L19.0305 71.6777C19.0305 71.6777 18.2404 72.1124 17.154 72.6656L12.4923 75.0166L11.1095 72.0729L22.2503 66.4818ZM32.9765 82.2661L30.4876 80.0534L25.3913 86.1384C23.0604 88.9241 24.2653 91.5122 26.695 93.4286C29.1246 95.3253 31.9296 95.8982 34.0826 92.9742L38.8036 86.5928L36.0777 84.6962L31.4752 90.9393C30.7049 91.9666 29.6974 92.1642 28.453 91.1961C27.2283 90.2083 27.1888 89.181 27.9987 88.1931L32.9765 82.2661ZM32.3839 86.2372L35.4456 84.1035L33.6876 82.7205L32.3246 86.1977L32.3839 86.2372ZM40.6987 87.68L43.9383 88.8654L45.7753 95.1283C46.1704 96.4717 46.3284 97.2027 46.3284 97.2027L46.4272 97.2225C46.4272 97.2225 46.6445 96.2939 46.9408 95.148L48.2642 90.1693L51.4247 90.9201L48.205 102.972L44.8469 102.162L42.7728 95.6222C42.3778 94.3577 42.2 93.5477 42.2 93.5477L42.1012 93.528C42.1012 93.528 41.8247 94.5158 41.4691 95.5629L39.7703 100.64L36.7284 99.5142L40.6987 87.68ZM59.6432 103.7C63.179 103.443 65.016 101.428 64.9568 98.4651L61.5988 98.6824C61.5197 100.026 60.8481 100.776 59.3074 100.875C57.7667 100.974 56.6802 99.9663 56.5617 97.3392C56.4629 94.8305 57.4111 93.5664 58.7938 93.4676C60.2753 93.3688 60.8679 94.0404 61.1839 95.1663L64.5222 94.9491C64.1864 92.3417 62.1913 90.4256 58.7543 90.6627C55.5938 90.8799 52.8876 92.717 53.0654 97.596C53.2432 102.416 56.3444 103.917 59.6432 103.7ZM65.7059 89.8529L68.8071 88.6675L70.5652 92.8757L74.4368 91.1173L72.422 87.0277L75.3454 85.4669L80.8763 96.6492L77.9529 98.21L75.7603 93.7647L71.7109 95.6021L73.6072 100.166L70.5059 101.351L65.7059 89.8529ZM83.2468 78.2931L77.2814 84.0028L85.6172 93.2488L92.2937 86.8477L90.3777 84.9709L86.1703 89.0012L84.6098 87.2626L88.3431 83.6867L86.4666 81.8493L82.8518 85.3265L81.4296 83.7459L85.1629 80.17L83.2468 78.2931ZM84.7485 76.5168L86.4671 73.5138L92.9461 72.763C94.3485 72.605 95.0794 72.5655 95.0794 72.5655L95.1189 72.4865C95.1189 72.4865 94.23 72.1111 93.1634 71.6172L88.4819 69.4637L89.7461 66.4607L101.065 71.6764L99.7016 74.8375L92.9066 75.7858C91.5831 75.9636 90.7732 76.0031 90.7732 76.0031L90.7337 76.0822C90.7337 76.0822 91.6424 76.5168 92.63 77.0502L97.3313 79.5791L95.7115 82.4043L84.7485 76.5168ZM15.9485 36.2138L13.4398 35.2262L10.2596 44.0558L22.1905 47.9274L23.1386 44.7471L18.7732 43.3249L20.5905 38.3076L18.1608 37.3397L16.2843 42.515L13.9534 41.7447L15.9485 36.2138ZM28.7287 27.0068C30.8818 28.9623 31.2571 31.629 29.104 34.3549C27.1287 36.8438 24.1064 38.0487 20.1756 35.1253C16.304 32.2611 16.8175 28.8636 18.8719 26.2562C21.0447 23.5105 23.8299 23.2734 25.983 24.8142L23.9089 27.4413C22.9015 26.8685 21.9533 26.9278 21.0052 28.1327C20.057 29.3376 20.2743 30.8191 22.3682 32.3796C24.383 33.8808 25.9435 33.8216 26.8126 32.7154C27.741 31.5302 27.5632 30.5821 26.6546 29.6339L28.7287 27.0068ZM42.2201 13.9062C41.272 11.6539 39.1189 11.8712 36.9066 12.8986L31.8498 15.2299L37.4399 26.3726L42.1016 24.2191C44.3139 23.2115 45.9139 21.7693 44.867 19.2997C43.9979 17.245 42.6152 17.2055 41.588 17.4426L41.5485 17.3636C42.4967 16.5535 42.9905 15.7435 42.2201 13.9062ZM39.5535 15.7633C39.8893 16.5931 39.6522 17.0079 38.7831 17.4031L37.0053 18.2329L35.9584 16.1584L37.8152 15.2891C38.6448 14.894 39.2177 14.9533 39.5535 15.7633ZM41.7065 20.2085C42.1016 21.1568 41.8448 21.5322 40.8967 21.9669L39.2374 22.7176L38.1115 20.4851L39.7115 19.7344C40.6794 19.2997 41.3312 19.3195 41.7065 20.2085ZM59.6038 21.0788H56.068L55.0408 18.8463L50.7544 19.2217L50.1421 21.5925L46.6655 22.2049L50.1223 9.16561L53.9742 8.82975L59.6038 21.0788ZM54.0729 16.436L53.0063 14.006C52.631 13.1762 52.3544 12.4452 52.3544 12.4452H52.2952C52.2952 12.4452 52.1569 13.2157 51.9198 14.085L51.2877 16.6534L54.0729 16.436ZM59.8407 8.57283L62.7444 17.4238L61.8752 21.5924L65.1345 22.3036L66.1024 18.1745L72.4037 11.319L68.7099 10.4102L66.1222 13.3539C65.6481 13.9269 65.1543 14.5393 65.1543 14.5393L65.095 14.5196C65.095 14.5196 64.9172 13.7491 64.7 13.0378L63.574 9.28407L59.8407 8.57283ZM74.9305 12.385L82.7724 16.6919L81.4095 19.0035L76.57 16.3561L75.6021 18.2527L80.0663 20.7025L78.7231 22.9548L74.3971 20.584L73.3305 22.6584L78.0515 25.2465L76.6885 27.5581L69.2811 23.4882L74.9305 12.385ZM90.9313 24.143L87.119 20.0732L78.1906 28.9241L80.6005 31.2159L83.5437 28.2721L84.6301 29.4378L82.8128 33.5472L85.1634 36.4316L87.1585 31.4134C88.4622 31.9271 89.5486 31.5715 91.0301 30.2676C93.3412 28.2326 92.8869 26.2372 90.9313 24.143ZM86.6844 27.8375L85.4005 26.4545L87.4943 24.3603L88.8573 25.8026C89.5684 26.5533 89.5881 27.225 88.798 27.9165C88.0079 28.6278 87.3955 28.608 86.6844 27.8375ZM90.2593 47.9291L89.1137 44.6693L92.7877 39.2955C93.5778 38.1496 94.0322 37.5569 94.0322 37.5569L93.9927 37.4581C93.9927 37.4581 93.1433 37.8928 92.0569 38.3669L87.3557 40.5006L85.9334 37.5767L97.2914 32.4399L98.7926 35.5417L95.0791 41.2909C94.368 42.3775 93.8346 43.0492 93.8346 43.0492L93.8741 43.148C93.8741 43.148 94.8025 42.7529 95.8494 42.338L100.847 40.4414L101.914 43.5234L90.2593 47.9291Z" fill="#202840"/>
</svg>
