<svg viewBox="0 0 93 92" fill="none" xmlns="http://www.w3.org/2000/svg">
<path fill-rule="evenodd" clip-rule="evenodd" d="M0.126465 92C29.3871 78.8673 62.8658 78.8673 92.1265 92V0H0.126465V92ZM6.36268 32.4587C6.53307 29.9989 8.5708 28.0863 11.0364 28.0717L12.9862 28.0573C12.169 31.1542 8.65648 35.0824 8.65648 35.0824C2.9503 41.0609 3.55252 45.9929 3.55252 45.9929H20.0112V39.4839H17.8607C17.8607 39.4839 17.4737 43.8709 13.7317 43.8709H11.1225C11.2372 41.5627 15.7677 36.301 15.7677 36.301C20.5274 30.982 20.3984 25.9641 20.3984 25.9641H4.29802V32.4587H6.36268ZM52.041 45.9787V43.8569H51.5535C50.6681 43.8583 49.9492 43.1417 49.9478 42.2565V42.2511V29.692C49.9463 28.8066 50.6629 28.0877 51.5481 28.0862H51.5535H52.041V25.9645H41.36V28.0864H41.8475C42.7345 28.0788 43.4599 28.7917 43.4675 29.6788V29.6921V42.2513C43.4672 43.1385 42.748 43.8574 41.8608 43.857H41.8475H41.36V45.979L52.041 45.9787ZM39.1522 39.484V45.993L22.1918 45.9785V43.8567H22.6793H22.6846C23.5698 43.8553 24.2865 43.1364 24.285 42.251V29.6918V29.6865C24.2835 28.8013 23.5646 28.0846 22.6793 28.0861H22.1918V25.9499H39.1521V32.4588H37.0016C37.0016 32.4588 36.6001 28.0718 32.8581 28.0718H30.7076V34.8962H31.4674H31.489C32.3778 34.8904 33.0936 34.165 33.0876 33.2762V32.459H35.2095V39.4696H33.0876V38.6668V38.6452C33.0817 37.7564 32.3564 37.0406 31.4676 37.0466H30.7078V43.871H32.8583C36.6003 43.871 37.0017 39.484 37.0017 39.484H39.1522ZM63.2514 28.0717C65.7178 28.0779 67.7563 29.9971 67.9108 32.4587H69.9896V25.9641H54.6062C54.6062 25.9641 52.1689 29.1468 58.5344 36.301C58.5344 36.301 63.0506 41.5627 63.1652 43.8709H60.5702C56.8282 43.8709 56.4268 39.4839 56.4268 39.4839H54.2618V45.9929H69.7744C69.7744 45.9929 72.5989 42.9534 65.6167 35.0824C65.6167 35.0824 61.9608 31.3262 61.287 28.0573L63.2514 28.0717ZM85.9048 32.4587C85.7437 30.0002 83.709 28.0847 81.2453 28.0717L79.3095 28.0573C79.969 31.3262 83.625 35.0824 83.625 35.0824C90.5927 42.9534 87.7827 45.9929 87.7827 45.9929H72.2702V39.4839H74.4207C74.4207 39.4839 74.8222 43.8709 78.5642 43.8709H81.1592C81.0446 41.5627 76.5284 36.301 76.5284 36.301C70.1629 29.1468 72.6001 25.9641 72.6001 25.9641H87.9693V32.4587H85.9048Z" fill="#202840"/>
</svg>
