<svg viewBox="0 0 324 92" fill="none" xmlns="http://www.w3.org/2000/svg">
    <g clip-path="url(#clip0_6586_31217)">
        <path fill-rule="evenodd" clip-rule="evenodd" d="M0.196289 91.93H91.6175V0.508789H0.196289V91.93Z"
              fill="#202840"/>
    </g>

    <path fill-rule="evenodd" clip-rule="evenodd"
          d="M4.52148 32.9007H10.0927L11.2515 27.2852H17.4213L18.4682 32.9007H25.2727L19.5897 5.1377H10.7658L4.52148 32.9007ZM14.4668 11.0641H14.5425L16.4861 22.372H12.1866L14.4668 11.0641Z"
          fill="white"/>
    <path fill-rule="evenodd" clip-rule="evenodd"
          d="M27.1045 32.9007H35.3822C43.6971 32.9007 46.9392 26.505 46.9392 18.5895C46.9392 10.4411 42.9716 5.1377 34.5425 5.1377H27.1045V32.9007ZM33.9707 10.051H34.5425C39.082 10.051 39.5396 15.1191 39.5396 18.317C39.5396 21.9818 39.5396 27.9875 34.7335 27.9875H33.9707V10.051Z"
          fill="white"/>
    <path fill-rule="evenodd" clip-rule="evenodd"
          d="M46.1182 32.9007H51.8583L53.0531 27.2852H59.4093L60.4876 32.9007H67.4983L61.6429 5.1377H52.5523L46.1182 32.9007ZM56.3651 11.0641H56.442L58.445 22.372H54.015L56.3651 11.0641Z"
          fill="white"/>
    <path fill-rule="evenodd" clip-rule="evenodd"
          d="M80.9643 14.8469C80.9643 12.9754 80.5066 9.73914 78.0284 9.73914C75.1299 9.73914 74.7095 13.9106 74.7095 19.0579C74.7095 24.7514 74.9773 28.2987 78.181 28.2987C80.6988 28.2987 81.2706 26.1943 81.4231 22.7228L87.3729 23.269C87.3729 29.3526 83.8268 33.446 77.8759 33.446C69.561 33.446 67.311 26.2328 67.311 19.0195C67.311 12.3512 69.5225 4.5918 77.8759 4.5918C84.4358 4.5918 87.3729 9.11494 87.3729 14.8469H80.9643Z"
          fill="white"/>
    <path fill-rule="evenodd" clip-rule="evenodd"
          d="M102.777 5.19238H112.579L115.573 20.7124H115.652L119.191 5.19238H128.72V32.8855H121.719V12.4266H121.642L116.858 32.8855H112.617L108.223 11.7279H108.145V32.8855H102.777V5.19238Z"
          fill="#202840"/>
    <path fill-rule="evenodd" clip-rule="evenodd"
          d="M141.688 28.2959C144.917 28.2959 144.917 24.4843 144.917 19.0389C144.917 13.5946 144.917 9.78297 141.688 9.78297C138.461 9.78297 138.461 13.5946 138.461 19.0389C138.461 24.4843 138.461 28.2959 141.688 28.2959ZM141.688 4.64844C149.935 4.64844 152.462 11.9607 152.462 19.0389C152.462 26.1182 149.935 33.4305 141.688 33.4305C133.443 33.4305 130.916 26.1182 130.916 19.0389C130.916 11.9607 133.443 4.64844 141.688 4.64844Z"
          fill="#202840"/>
    <path fill-rule="evenodd" clip-rule="evenodd"
          d="M152.473 5.19238H171.999V10.5598H165.736V32.8855H158.736V10.5598H152.473V5.19238Z" fill="#202840"/>
    <path fill-rule="evenodd" clip-rule="evenodd"
          d="M182.782 28.2959C186.012 28.2959 186.012 24.4843 186.012 19.0389C186.012 13.5946 186.012 9.78297 182.782 9.78297C179.555 9.78297 179.555 13.5946 179.555 19.0389C179.555 24.4843 179.555 28.2959 182.782 28.2959ZM182.782 4.64844C191.03 4.64844 193.557 11.9607 193.557 19.0389C193.557 26.1182 191.03 33.4305 182.782 33.4305C174.537 33.4305 172.01 26.1182 172.01 19.0389C172.01 11.9607 174.537 4.64844 182.782 4.64844Z"
          fill="#202840"/>
    <path fill-rule="evenodd" clip-rule="evenodd"
          d="M202.748 16.4723H204.11C206.755 16.4723 208.466 15.6559 208.466 13.4386C208.466 10.5598 206.25 10.3269 203.915 10.3269H202.748V16.4723ZM195.748 5.19238H206.171C211.422 5.19238 215.467 7.60418 215.467 13.0496C215.467 15.9669 213.561 18.4171 210.839 19.4291L215.467 32.8855H208.544L205.083 20.9058H202.748V32.8855H195.748V5.19238Z"
          fill="#202840"/>
    <path fill-rule="evenodd" clip-rule="evenodd"
          d="M221.858 24.0965C222.87 26.4291 223.959 28.063 226.643 28.063C228.237 28.063 229.521 27.051 229.521 25.7292C229.521 20.0893 217.229 23.201 217.229 12.5057C217.229 8.34358 221.392 4.64844 226.176 4.64844C230.843 4.64844 234.344 7.29315 235.549 10.7554L229.988 13.088C229.248 11.4553 228.198 10.0159 226.176 10.0159C224.97 10.0159 223.764 10.7554 223.764 12.3497C223.764 16.2789 236.289 15.3833 236.289 24.0569C236.289 29.7353 231.622 33.4305 226.176 33.4305C221.47 33.4305 217.697 30.9418 216.062 26.4291L221.858 24.0965Z"
          fill="#202840"/>
    <path fill-rule="evenodd" clip-rule="evenodd"
          d="M245.362 16.9008H246.606C248.629 16.9008 250.963 16.1217 250.963 13.5166C250.963 10.9104 248.629 10.094 246.606 10.094H245.362V16.9008ZM238.361 5.19238H248.785C253.997 5.19238 258.198 7.60418 258.198 13.0496C258.198 19.4291 253.607 21.8001 248.046 21.8001C247.151 21.8001 246.257 21.7233 245.362 21.6452V32.8855H238.361V5.19238Z"
          fill="#202840"/>
    <path fill-rule="evenodd" clip-rule="evenodd"
          d="M270.151 28.2959C273.379 28.2959 273.379 24.4843 273.379 19.0389C273.379 13.5946 273.379 9.78297 270.151 9.78297C266.923 9.78297 266.923 13.5946 266.923 19.0389C266.923 24.4843 266.923 28.2959 270.151 28.2959ZM270.151 4.64844C278.397 4.64844 280.925 11.9607 280.925 19.0389C280.925 26.1182 278.397 33.4305 270.151 33.4305C261.905 33.4305 259.378 26.1182 259.378 19.0389C259.378 11.9607 261.905 4.64844 270.151 4.64844Z"
          fill="#202840"/>
    <path fill-rule="evenodd" clip-rule="evenodd"
          d="M290.115 16.4723H291.477C294.122 16.4723 295.833 15.6559 295.833 13.4386C295.833 10.5598 293.617 10.3269 291.283 10.3269H290.115V16.4723ZM283.115 5.19238H293.539C298.79 5.19238 302.834 7.60418 302.834 13.0496C302.834 15.9669 300.929 18.4171 298.205 19.4291L302.834 32.8855H295.911L292.45 20.9058H290.115V32.8855H283.115V5.19238Z"
          fill="#202840"/>
    <path fill-rule="evenodd" clip-rule="evenodd"
          d="M303.352 5.19238H322.879V10.5598H316.616V32.8855H309.615V10.5598H303.352V5.19238Z" fill="#202840"/>
    <defs>
        <clipPath id="clip0_6586_31217">
            <rect width="323.747" height="92" fill="white" transform="translate(0.126465)"/>
        </clipPath>
    </defs>
</svg>
