<svg viewBox="0 0 144 144" fill="none" xmlns="http://www.w3.org/2000/svg">
<path d="M36.6469 88.0312H28.7719C14.5969 88.0312 3.09375 99.5625 3.09375 113.766V139.5H11.5312V113.766C11.5312 99.7875 22.6688 88.3688 36.6469 88.0312Z" fill="#3E61EE" fill-opacity="0.2"/>
<path d="M86.3998 19.1812C87.131 19.1812 87.7779 18.7031 88.0029 18.0281C88.481 16.6218 89.5779 15.4968 90.9841 15.0468C91.856 14.7656 92.3341 13.8093 92.0529 12.9093C91.8841 12.4031 91.4904 12.0093 90.9841 11.8406C89.5779 11.3625 88.481 10.2656 88.0029 8.85933C87.7216 7.98745 86.7654 7.50933 85.8654 7.79058C85.3591 7.95933 84.9654 8.35308 84.7966 8.85933C84.3185 10.2656 83.2216 11.3906 81.8154 11.8406C80.9435 12.15 80.4654 13.0781 80.7466 13.9781C80.9154 14.4843 81.3091 14.8781 81.8154 15.0468C83.2216 15.525 84.3185 16.6218 84.7966 18.0281C85.0498 18.7031 85.6685 19.1812 86.3998 19.1812V19.1812ZM86.3998 12.6843C86.6248 12.9375 86.8779 13.1906 87.131 13.4156C86.8779 13.6406 86.6248 13.8937 86.3998 14.1468C86.1748 13.8937 85.9216 13.6406 85.6685 13.4156C85.9216 13.1906 86.1748 12.9656 86.3998 12.6843Z" fill="#17E5C3"/>
<path d="M139.19 63.3934C137.699 62.8872 136.518 61.7059 136.04 60.2153C135.759 59.3434 134.802 58.8653 133.902 59.1465C133.396 59.3153 133.002 59.709 132.834 60.2153C132.327 61.7059 131.174 62.8872 129.684 63.3934C128.812 63.6747 128.334 64.6309 128.615 65.5309C128.784 66.0372 129.177 66.4309 129.684 66.5997C131.174 67.1059 132.355 68.2872 132.834 69.7778C133.115 70.6497 134.071 71.1278 134.971 70.8465C135.477 70.6778 135.871 70.284 136.04 69.7778C136.546 68.2872 137.699 67.1059 139.19 66.5997C140.062 66.3184 140.54 65.3622 140.259 64.4622C140.09 63.9559 139.696 63.5622 139.19 63.3934ZM134.437 65.8684C134.155 65.559 133.874 65.2497 133.537 64.9684C133.846 64.6872 134.155 64.4059 134.437 64.0684C134.718 64.3778 134.999 64.6872 135.337 64.9684C134.999 65.2778 134.69 65.559 134.437 65.8684Z" fill="#17E5C3"/>
<path d="M124.705 71.7749C123.187 71.7749 121.949 73.0124 121.949 74.5312C121.949 76.0499 123.187 77.2874 124.705 77.2874C126.224 77.2874 127.462 76.0499 127.462 74.5312C127.434 73.0124 126.224 71.7749 124.705 71.7749Z" fill="#17E5C3"/>
<path d="M63.8438 122.766C63.8438 123.694 64.6031 124.453 65.5312 124.453H82.7438C83.6719 124.453 84.4313 123.694 84.4313 122.766C84.4313 121.838 83.6719 121.078 82.7438 121.078H65.5312C64.6031 121.078 63.8438 121.838 63.8438 122.766Z" fill="#3E61EE"/>
<path d="M51.2443 56.25H43.5381C39.8818 56.25 36.9287 59.2031 36.9287 62.8594V64.5187C36.9287 65.4469 37.6881 66.2062 38.6162 66.2062C40.2193 66.2062 41.7662 65.6437 42.9475 64.575C43.9318 65.6156 45.2537 66.2344 46.66 66.3187H46.9975C48.3756 66.3187 49.6975 65.8125 50.7381 64.9125L51.0756 64.6031C52.4537 65.6437 54.1412 66.2062 55.8568 66.2062H56.11C57.0381 66.2062 57.7975 65.4469 57.7975 64.5187V62.8594C57.8256 59.2031 54.8725 56.25 51.2443 56.25V56.25ZM52.4256 61.2281C51.8068 60.525 50.7662 60.4406 50.035 61.0312L50.0068 61.0594L48.5162 62.3812C48.0662 62.775 47.4756 62.9719 46.885 62.9437C46.2381 62.9156 45.6193 62.5781 45.2256 62.0437L44.3537 60.8625C44.0443 60.4406 43.5381 60.1875 43.0037 60.1875C42.9756 60.1875 42.9756 60.1875 42.9475 60.1875C42.385 60.2156 41.8787 60.4969 41.5975 60.975L41.3725 61.3406C41.1193 61.7344 40.7818 62.0719 40.36 62.325C40.6131 60.75 41.9631 59.625 43.5381 59.625H51.2443C52.9318 59.625 54.3381 60.9187 54.4506 62.6062C53.6631 62.325 52.96 61.8469 52.4256 61.2281V61.2281Z" fill="#3E61EE"/>
<path d="M48.9656 68.7656H44.5781C43.65 68.7656 42.8906 69.525 42.8906 70.4531C42.8906 71.3812 43.65 72.1406 44.5781 72.1406H48.9656C49.8938 72.1406 50.6531 71.3812 50.6531 70.4531C50.6531 69.525 49.8938 68.7656 48.9656 68.7656Z" fill="#3E61EE"/>
<path d="M41.2599 46.0126C41.2599 45.9845 41.2599 45.9563 41.2599 45.9282C41.2599 45.0001 40.5005 44.2407 39.5724 44.2407C38.6442 44.2407 37.8849 45.0001 37.8849 45.9282C37.8849 46.6313 37.3224 47.222 36.6192 47.222C35.9161 47.222 35.3255 46.6595 35.3255 45.9563V45.9282C35.3255 45.0001 34.5661 44.2407 33.638 44.2407C32.7099 44.2407 31.9505 45.0001 31.9505 45.9282C31.9224 48.5157 34.0036 50.597 36.563 50.6251C39.1505 50.6532 41.2599 48.6001 41.2599 46.0126V46.0126Z" fill="#3E61EE"/>
<path d="M56.3628 50.6251C58.9503 50.6532 61.0315 48.572 61.0597 46.0126C61.0597 45.9845 61.0597 45.9563 61.0597 45.9282C61.0597 45.0001 60.3003 44.2407 59.3722 44.2407C58.444 44.2407 57.6847 45.0001 57.6847 45.9282C57.6847 46.6313 57.1222 47.222 56.419 47.222C55.7159 47.222 55.1253 46.6595 55.1253 45.9563V45.9282C55.1253 45.0001 54.3659 44.2407 53.4378 44.2407C52.5097 44.2407 51.7503 45.0001 51.7503 45.9282C51.7222 48.5157 53.7753 50.6251 56.3628 50.6251V50.6251Z" fill="#3E61EE"/>
<path d="M38.3064 55.9406C41.7658 55.2656 44.494 52.5375 45.169 49.0781H47.8127C48.7408 53.8031 53.3252 56.8406 58.0502 55.9125C62.7752 54.9844 65.8127 50.4 64.8846 45.675C64.069 41.5969 60.4971 38.6719 56.3627 38.6719C52.2002 38.6719 48.6283 41.625 47.8127 45.7031H45.169C44.2408 40.9781 39.6564 37.9125 34.9314 38.8406C30.2065 39.7688 27.1408 44.3531 28.069 49.0781C28.9971 53.8031 33.5814 56.8687 38.3064 55.9406ZM56.3346 42.0469C59.2877 42.0469 61.6783 44.4375 61.6783 47.3625C61.6783 50.3156 59.2877 52.7062 56.3627 52.7062C53.4096 52.7062 51.0189 50.3156 51.0189 47.3906C50.9908 44.4656 53.3815 42.0469 56.3346 42.0469ZM31.2752 47.3906C31.2752 44.4375 33.6658 42.0469 36.5908 42.0469C39.5158 42.0469 41.9346 44.4375 41.9346 47.3625C41.9346 50.3156 39.5439 52.7062 36.6189 52.7062C33.6939 52.7344 31.3033 50.3437 31.2752 47.3906Z" fill="#3E61EE"/>
<path d="M33.8905 36.3096C34.7062 35.7471 35.6624 35.4658 36.6187 35.4658C38.503 35.4658 40.2187 36.5627 41.0343 38.2502C41.428 39.094 42.4405 39.4596 43.2843 39.0658C44.128 38.6721 44.4937 37.6596 44.0999 36.8158C44.0999 36.8158 44.0999 36.7877 44.0718 36.7877C42.6937 33.9471 39.7968 32.1189 36.6187 32.0908C34.9593 32.0908 33.3562 32.5971 31.978 33.5252C31.2187 34.0596 30.9937 35.1002 31.528 35.8596C32.0905 36.619 33.1312 36.8158 33.8905 36.3096Z" fill="#3E61EE"/>
<path d="M49.6406 38.9531C50.5124 39.3188 51.4968 38.8969 51.8343 38.0531C52.5937 36.225 54.3656 35.0438 56.3343 35.0438C57.1218 35.0438 57.8812 35.2125 58.5562 35.5781C59.3718 36 60.4124 35.6906 60.8343 34.875C61.2562 34.0594 60.9468 33.0188 60.1312 32.5969H60.1031C56.0531 30.5156 51.0749 32.1188 48.9656 36.1688C48.8531 36.3656 48.7687 36.5625 48.6843 36.7594C48.3749 37.6031 48.7968 38.5875 49.6406 38.9531V38.9531Z" fill="#3E61EE"/>
<path d="M64.7437 86.3439H58.5562V75.4032C62.4094 72.5626 65.1656 68.4001 66.2062 63.6188L68.8781 51.1032C71.8031 50.9345 74.1375 48.4876 74.1375 45.5345C74.1375 45.0001 74.0531 44.4657 73.9125 43.9876V31.5845C73.9125 24.272 69.7219 17.4657 63.225 14.147C59.0344 9.50635 53.0438 6.83447 46.7719 6.83447C40.5 6.83447 34.5094 9.50635 30.2906 14.1751C23.85 17.4657 19.6875 24.2438 19.6875 31.5563V43.7626C19.4906 44.3251 19.4062 44.9157 19.4062 45.5345C19.4062 48.5157 21.7406 50.9345 24.6656 51.1032L27.3656 63.7595C28.3781 68.5407 31.1344 72.7032 34.9875 75.5438V86.3439H28.8C13.6969 86.3439 1.40625 98.6345 1.40625 113.766V139.5C1.40625 140.428 2.16563 141.188 3.09375 141.188H90.45C91.3781 141.188 92.1375 140.428 92.1375 139.5V113.766C92.1375 98.6345 79.8469 86.3439 64.7437 86.3439V86.3439ZM70.5656 31.5563V40.3032C70.1719 40.1626 69.75 40.022 69.3 39.9657V33.6095C69.3 30.3188 68.2031 27.0563 66.1781 24.4688C64.8563 22.7813 64.0969 20.672 63.9281 18.4782C68.0344 21.4876 70.5656 26.3813 70.5656 31.5563V31.5563ZM37.4344 12.6845C40.2469 11.0813 43.4531 10.1813 46.7719 10.1813C50.0344 10.1813 53.1844 11.0251 55.9688 12.6001V15.0751C55.9688 18.5345 53.1562 21.3751 49.6969 21.3751H43.7062C40.2469 21.3751 37.4344 18.5626 37.4344 15.0751V12.6845ZM23.0344 31.5563C23.0625 26.3813 25.5937 21.4876 29.7 18.4782V18.7595C29.7 20.7563 29.025 22.6407 27.7875 24.0751C25.5375 26.7188 24.3 30.122 24.3 33.6376V39.9938C23.85 40.0501 23.4281 40.1626 23.0344 40.3032V31.5563ZM30.6562 63.0282L27.675 49.0501C27.5063 48.2626 26.8313 47.7282 26.0156 47.7282H24.975C23.7656 47.7282 22.7812 46.7438 22.7812 45.5063C22.7812 44.2688 23.7656 43.2845 24.975 43.2845H26.0156C26.9437 43.2845 27.7031 42.5251 27.7031 41.597V33.6095C27.7031 30.9095 28.6594 28.2938 30.375 26.2407C32.1187 24.1876 33.075 21.5438 33.075 18.7595V16.1157C33.3844 15.7782 33.7219 15.4688 34.0594 15.1595C34.1156 20.447 38.4187 24.7501 43.7062 24.7501H49.6969C55.0125 24.7501 59.3438 20.4188 59.3438 15.0751V15.0188C59.7375 15.3845 60.1313 15.7501 60.4969 16.1438V17.7188C60.4969 20.9251 61.5656 24.047 63.4781 26.5501C65.025 28.5751 65.8969 31.0782 65.8969 33.6376V41.6251C65.8969 42.5532 66.6563 43.3126 67.5844 43.3126H68.5406C69.75 43.3126 70.7344 44.297 70.7344 45.5345C70.7344 46.772 69.75 47.7563 68.5406 47.7563H67.5C66.7125 47.7563 66.0094 48.3188 65.8406 49.0782L62.8875 62.9157C61.7625 68.2032 58.1063 72.5907 53.1 74.6157L47.7563 76.8376C47.3625 77.0064 47.025 77.1189 46.6875 77.1189C46.3781 77.1189 46.0125 77.0345 45.6469 76.8657L40.2188 74.672C35.3531 72.5907 31.7531 68.2595 30.6562 63.0282V63.0282ZM55.1531 77.4282L54.8719 91.9407C53.1 94.7251 50.0906 96.3845 46.7719 96.3845C43.4531 96.3845 40.4719 94.7251 38.6719 91.9407L38.3906 77.5407L44.2969 79.9032C45.1125 80.2689 45.9281 80.4376 46.7156 80.4376C47.5313 80.4376 48.375 80.2407 49.2188 79.847L55.1531 77.4282ZM39.5156 137.813H4.78125V113.766C4.78125 100.491 15.5531 89.7189 28.8 89.7189H32.625L25.0031 97.4251C24.6938 97.7345 24.4969 98.1845 24.525 98.6345C24.525 99.0845 24.7219 99.5064 25.0594 99.8439L34.425 108.731L30.9094 112.669C30.3188 113.344 30.3469 114.356 30.9656 115.003L36.1406 120.15C38.3062 122.316 39.5156 125.184 39.5156 128.25V137.813ZM45.0844 137.813H42.8625V128.194C42.8625 124.228 41.3156 120.516 38.5031 117.703L34.4812 113.681L38.025 109.716C38.6437 109.041 38.5875 108 37.9406 107.353L28.6313 98.522L35.2406 91.8282C35.8875 95.6251 37.6594 99.1126 40.3875 101.897L45.0844 106.678V137.813ZM42.1875 98.9157C43.6219 99.4501 45.1687 99.7595 46.8 99.7595C48.4031 99.7595 49.95 99.4782 51.4125 98.9157L46.8281 103.641L42.1875 98.9157ZM50.175 137.813H48.4594V106.734L53.1562 101.953C55.9125 99.1689 57.6844 95.6532 58.3031 91.8564L64.9406 98.5501L55.6313 107.381C54.9563 108 54.9281 109.041 55.5469 109.744L59.0906 113.709L54.5344 118.266C51.7219 121.05 50.175 124.791 50.175 128.756V137.813ZM88.7906 137.813H53.55V128.728C53.55 125.663 54.7313 122.794 56.8969 120.628L62.5781 114.947C63.225 114.3 63.2531 113.288 62.6344 112.613L59.1187 108.675L68.4844 99.7876C68.8219 99.4782 68.9906 99.0564 69.0187 98.5782C69.0187 98.1282 68.85 97.6782 68.5406 97.3689L60.9469 89.7189H64.7719C78.0188 89.7189 88.7906 100.519 88.7906 113.766V137.813Z" fill="#3E61EE"/>
<path d="M137.362 33.1311C136.434 33.2155 135.759 34.0311 135.844 34.9593V35.0155C137.278 48.6843 127.378 60.9468 113.709 62.3811C112.162 62.5499 110.616 62.5499 109.069 62.4374C108.141 62.353 107.325 63.028 107.241 63.9561C107.156 64.8843 107.831 65.6999 108.759 65.7843H108.787C109.575 65.8405 110.334 65.8686 111.122 65.8686C126.731 65.8405 139.359 53.1843 139.359 37.5749C139.331 36.5905 139.303 35.6061 139.191 34.6499C139.106 33.7218 138.291 33.0468 137.362 33.1311V33.1311Z" fill="#17E5C3"/>
<path d="M95.737 61.2847C96.5245 61.7909 97.5651 61.5659 98.0713 60.8065C98.5776 60.019 98.3526 58.9784 97.5932 58.4722C86.062 50.9347 82.8276 35.4659 90.3651 23.9065C91.2932 22.4722 92.362 21.1503 93.5713 19.9409C103.246 10.2378 118.94 10.2097 128.643 19.8847C128.643 19.9128 128.671 19.9409 128.671 19.969C129.853 21.1503 130.921 22.4722 131.849 23.8784C132.356 24.6659 133.396 24.8909 134.184 24.3847C134.971 23.8784 135.196 22.8378 134.69 22.0503L134.662 22.0222C133.621 20.419 132.412 18.9565 131.062 17.6065C120.093 6.5534 102.234 6.52528 91.2088 17.494C91.1807 17.5222 91.1526 17.5503 91.1526 17.5503C80.0995 28.6315 80.1276 46.5753 91.237 57.6284C92.6151 59.0065 94.1057 60.2159 95.737 61.2847V61.2847Z" fill="#17E5C3"/>
<path d="M94.6963 50.0626C95.2307 50.822 96.2995 50.9908 97.0588 50.4564C97.8182 49.922 97.987 48.8533 97.4526 48.0939L97.4245 48.0658C97.087 47.6158 96.7776 47.1658 96.4963 46.6876C96.0182 45.9001 94.9776 45.647 94.1901 46.1251C93.4026 46.6033 93.1495 47.6439 93.6276 48.4314C93.9651 48.9939 94.3307 49.5283 94.6963 50.0626V50.0626Z" fill="#17E5C3"/>
<path d="M93.5709 27.5062C92.699 27.1969 91.7428 27.675 91.4334 28.575C89.9428 32.9625 89.7741 37.7156 90.9553 42.1875C91.1803 43.0875 92.1084 43.6219 93.0084 43.3969C93.9084 43.1719 94.4428 42.2437 94.2178 41.3437C93.2053 37.4906 93.3459 33.4406 94.6115 29.6719C94.9209 28.7719 94.4428 27.8156 93.5709 27.5062Z" fill="#17E5C3"/>
<path d="M97.1434 8.2125C98.6345 8.2125 99.8434 7.00367 99.8434 5.5125C99.8434 4.02133 98.6345 2.8125 97.1434 2.8125C95.6522 2.8125 94.4434 4.02133 94.4434 5.5125C94.4434 7.00367 95.6522 8.2125 97.1434 8.2125Z" fill="#17E5C3"/>
<path d="M125.072 46.8559C125.662 47.0247 126.309 47.109 126.956 47.109C130.978 47.109 134.212 43.8465 134.212 39.8528C134.212 39.1778 134.128 38.5028 133.931 37.884C133.875 37.659 133.79 37.434 133.706 37.209C133.65 37.0684 133.593 36.9278 133.537 36.7872C142.875 23.9622 145.125 14.0622 139.865 8.77467C135.703 4.6403 129.318 5.93405 124.678 7.76217C123.806 8.09967 123.384 9.08405 123.721 9.95592C124.059 10.8278 125.043 11.2497 125.915 10.9122H125.943C131.315 8.8028 135.168 8.88717 137.475 11.1934C141.215 14.9622 138.909 23.4559 131.343 34.059C130.134 33.1309 128.587 32.5684 126.956 32.5684C122.934 32.5684 119.7 35.8309 119.7 39.8247C119.7 41.934 120.6 43.8466 122.062 45.1684C121.528 45.7309 120.993 46.2653 120.431 46.8278C108.984 58.3028 96.9184 65.7278 89.6903 65.7278C87.6371 65.7278 86.034 65.1372 84.8528 63.9559C81.8715 60.9465 83.2215 55.6028 84.8809 51.6372C85.2465 50.7934 84.8528 49.7809 83.9809 49.4153C83.109 49.0497 82.1246 49.4434 81.759 50.3153C79.6778 55.2372 78.1309 62.0153 82.434 66.3184C84.2621 68.1466 86.709 69.0747 89.6621 69.0747C99.4777 69.0747 113.203 58.809 122.793 49.1903C123.525 48.459 124.312 47.6434 125.072 46.8559V46.8559ZM126.928 36.084C129.037 36.084 130.781 37.7715 130.809 39.909V39.9372C130.809 42.0465 129.121 43.7903 126.984 43.7903C124.846 43.7903 123.131 42.1028 123.103 39.9653C123.075 37.8559 124.79 36.1122 126.928 36.084V36.084Z" fill="#17E5C3"/>
</svg>
