<svg viewBox="0 0 144 144" fill="none" xmlns="http://www.w3.org/2000/svg">
<path d="M54.8319 73.2379C51.8872 73.2373 49.033 74.256 46.7542 76.121C44.4753 77.9859 42.9122 80.5822 42.3303 83.4689C36.8991 75.4148 34.1994 65.8287 34.6293 56.1239C35.0592 46.4192 38.596 37.1093 44.7181 29.567L40.3278 25.1807L39.425 26.0835C35.2154 30.2899 31.876 35.2846 29.5976 40.7822C27.3192 46.2798 26.1465 52.1725 26.1465 58.1235C26.1465 64.0745 27.3192 69.9672 29.5976 75.4648C31.876 80.9623 35.2154 85.9571 39.425 90.1635C39.9197 90.661 40.4254 91.1417 40.937 91.608L35.5016 123.565V123.745H43.9391V123.565L50.6947 83.8466C51.0774 81.602 52.0543 79.5009 53.5238 77.7616C54.9933 76.0223 56.9018 74.7083 59.0509 73.9562C57.6952 73.4804 56.2687 73.2376 54.8319 73.2379V73.2379Z" fill="#3E61EE" fill-opacity="0.2"/>
<path d="M100.292 24.8975C101.863 24.9324 103.392 25.4112 104.702 26.2784C105.61 26.8756 106.388 27.6509 106.987 28.5574C107.586 29.4639 107.996 30.4828 108.19 31.5521C108.477 33.1129 108.311 34.7234 107.712 36.1927C107.627 36.3983 107.583 36.6187 107.584 36.8411C107.584 37.0635 107.629 37.2837 107.715 37.4888C107.801 37.694 107.926 37.8801 108.085 38.0365C108.243 38.1929 108.43 38.3165 108.636 38.4002C108.842 38.4839 109.063 38.526 109.285 38.5242C109.508 38.5223 109.728 38.4765 109.932 38.3893C110.137 38.3022 110.322 38.1755 110.478 38.0164C110.633 37.8574 110.756 37.6692 110.838 37.4626C111.681 35.3964 111.914 33.1319 111.509 30.9376C111.234 29.4224 110.654 27.9788 109.805 26.6942C108.956 25.4097 107.855 24.3109 106.569 23.4645C104.728 22.2456 102.581 21.5723 100.374 21.5225C100.152 21.5171 99.9319 21.5555 99.7251 21.6354C99.5184 21.7153 99.3294 21.8351 99.1689 21.9881C98.8448 22.2969 98.6567 22.7219 98.646 23.1695C98.6353 23.617 98.8027 24.0505 99.1116 24.3746C99.4205 24.6986 99.8454 24.8867 100.293 24.8975H100.292Z" fill="#3E61EE"/>
<path d="M116.265 41.6926C116.46 41.7993 116.673 41.8666 116.893 41.8907C117.114 41.9149 117.337 41.8954 117.549 41.8334C117.762 41.7714 117.961 41.6681 118.134 41.5294C118.306 41.3906 118.45 41.2192 118.557 41.0249C120.01 38.3878 120.82 35.445 120.922 32.4357C121.024 29.4265 120.414 26.4357 119.142 23.7064C117.682 20.6205 115.405 17.9933 112.558 16.1098C109.661 14.1925 106.297 13.0995 102.827 12.948C102.381 12.9308 101.947 13.0907 101.619 13.3926C101.291 13.6945 101.096 14.114 101.076 14.5595C101.056 15.0049 101.213 15.44 101.513 15.7698C101.813 16.0996 102.232 16.2973 102.677 16.3197C105.536 16.444 108.307 17.3438 110.693 18.9226C113.026 20.4654 114.893 22.6177 116.09 25.1461C117.135 27.3935 117.635 29.8556 117.55 32.3326C117.464 34.8096 116.796 37.2314 115.598 39.4013C115.491 39.5956 115.424 39.8089 115.4 40.0292C115.376 40.2495 115.395 40.4724 115.457 40.6852C115.519 40.898 115.622 41.0964 115.761 41.2693C115.9 41.4422 116.071 41.586 116.265 41.6926V41.6926Z" fill="#3E61EE"/>
<path d="M102.499 7.91239C107.483 7.61009 112.43 8.94068 116.59 11.7025C121.03 14.6443 124.28 19.0697 125.758 24.1875C126.626 27.2593 126.851 30.4776 126.416 33.6401C125.982 36.8027 124.898 39.8413 123.234 42.5652C123.001 42.9476 122.93 43.4067 123.036 43.8416C123.142 44.2765 123.416 44.6515 123.798 44.8841C124.181 45.1167 124.64 45.1879 125.075 45.082C125.51 44.9761 125.885 44.7018 126.117 44.3194C128.024 41.1965 129.264 37.7131 129.761 34.088C130.257 30.4628 129.999 26.7742 129.001 23.2537C127.301 17.3659 123.563 12.2745 118.455 8.88945C113.688 5.72463 108.02 4.19855 102.309 4.54217C101.862 4.5672 101.444 4.76872 101.145 5.10241C100.847 5.4361 100.693 5.87462 100.718 6.3215C100.743 6.76838 100.945 7.18702 101.279 7.48532C101.612 7.78361 102.051 7.93714 102.498 7.91211L102.499 7.91239Z" fill="#3E61EE"/>
<path d="M105.638 88.0659L81.1219 63.5626L91.4469 47.4188C93.5155 48.0641 95.7383 48.0159 97.7769 47.2816C99.8156 46.5472 101.559 45.167 102.741 43.3508C103.923 41.5347 104.479 39.3821 104.325 37.2207C104.171 35.0592 103.315 33.0073 101.887 31.3771C100.46 29.747 98.5386 28.6278 96.4164 28.19C94.2942 27.7522 92.087 28.0197 90.1308 28.9518C88.1746 29.8839 86.5765 31.4295 85.5796 33.3535C84.5828 35.2775 84.2418 37.4745 84.6086 39.6102L65.6889 48.1391L41.5233 23.9856C41.2069 23.6694 40.7778 23.4917 40.3304 23.4917C39.883 23.4917 39.4539 23.6694 39.1375 23.9856L38.2324 24.8907C33.8659 29.2538 30.402 34.4346 28.0387 40.137C25.6754 45.8394 24.459 51.9516 24.459 58.1243C24.459 64.2971 25.6754 70.4093 28.0387 76.1117C30.402 81.8141 33.8659 86.9949 38.2324 91.3579C38.742 91.8673 39.2699 92.3704 39.8018 92.8567L42.0765 90.3637C41.5826 89.9137 41.0921 89.4443 40.6182 88.971C32.4827 80.842 27.888 69.8283 27.8343 58.3277C27.7807 46.8271 32.2726 35.771 40.3319 27.5665L102.058 89.2581C97.9407 93.3236 93.0506 96.5229 87.6765 98.6671C82.3023 100.811 76.553 101.857 70.768 101.742L70.7131 105.117C70.9775 105.121 71.2414 105.124 71.5048 105.124C77.679 105.143 83.7955 103.936 89.4996 101.573C95.2038 99.2096 100.382 95.7376 104.734 91.3579L105.639 90.4534C105.796 90.2967 105.92 90.1107 106.005 89.9059C106.09 89.7011 106.134 89.4816 106.134 89.26C106.134 89.0383 106.09 88.8188 106.005 88.614C105.92 88.4092 105.796 88.2232 105.639 88.0665L105.638 88.0659ZM94.3952 31.3876C95.6909 31.3882 96.9573 31.7731 98.0342 32.4934C99.1112 33.2137 99.9504 34.2372 100.446 35.4344C100.941 36.6316 101.07 37.9488 100.817 39.2195C100.564 40.4902 99.9398 41.6573 99.0234 42.5732C98.107 43.4892 96.9396 44.1128 95.6688 44.3654C94.398 44.6179 93.0808 44.4879 91.8838 43.992C90.6868 43.496 89.6638 42.6562 88.944 41.5789C88.2243 40.5015 87.8401 39.235 87.8401 37.9393C87.8426 36.2018 88.5341 34.5363 89.763 33.308C90.9919 32.0798 92.6578 31.3891 94.3952 31.3876V31.3876ZM68.2415 50.6906L85.7428 42.8013C86.4185 43.9982 87.3337 45.043 88.4313 45.8703L78.6778 61.121L68.2415 50.6906Z" fill="#3E61EE"/>
<path d="M81.5137 111.591C80.6283 111.725 79.7275 111.838 78.8365 111.929C78.4063 111.972 78.0093 112.18 77.7275 112.508C77.4458 112.836 77.3008 113.26 77.3224 113.692C77.3441 114.124 77.5307 114.531 77.8439 114.829C78.157 115.127 78.5728 115.294 79.0053 115.295C79.0632 115.295 79.1211 115.292 79.1788 115.286C80.1232 115.19 81.0781 115.069 82.0166 114.927C82.2357 114.894 82.4462 114.819 82.636 114.704C82.8258 114.59 82.9912 114.439 83.1228 114.261C83.2544 114.082 83.3495 113.88 83.4028 113.665C83.4562 113.45 83.4666 113.226 83.4335 113.007C83.4005 112.788 83.3246 112.578 83.2102 112.388C83.0958 112.198 82.9451 112.032 82.7668 111.901C82.5885 111.769 82.386 111.674 82.1709 111.621C81.9558 111.568 81.7323 111.557 81.5132 111.59L81.5137 111.591Z" fill="#3E61EE"/>
<path d="M103.218 103.432C98.7762 106.28 93.95 108.479 88.8862 109.962C88.6715 110.023 88.4711 110.125 88.2963 110.264C88.1216 110.402 87.976 110.574 87.8681 110.769C87.7601 110.965 87.6919 111.179 87.6674 111.401C87.6429 111.623 87.6626 111.847 87.7253 112.061C87.7881 112.275 87.8926 112.474 88.0329 112.648C88.1732 112.821 88.3464 112.965 88.5426 113.071C88.7388 113.177 88.9541 113.243 89.176 113.265C89.3979 113.288 89.622 113.266 89.8354 113.201C95.2076 111.627 100.327 109.295 105.04 106.274C105.227 106.154 105.388 105.999 105.514 105.817C105.641 105.635 105.73 105.43 105.778 105.213C105.825 104.997 105.829 104.773 105.79 104.555C105.751 104.337 105.669 104.129 105.55 103.942C105.43 103.756 105.275 103.594 105.093 103.468C104.911 103.341 104.706 103.252 104.49 103.204C104.273 103.157 104.049 103.153 103.831 103.192C103.613 103.231 103.405 103.313 103.218 103.432V103.432Z" fill="#3E61EE"/>
<path d="M19.2448 78.1403C19.517 78.1403 19.7851 78.0745 20.0263 77.9485C20.2675 77.8225 20.4747 77.64 20.6301 77.4166C20.7855 77.1932 20.8846 76.9355 20.9189 76.6656C20.9533 76.3956 20.9218 76.1213 20.8271 75.8661C17.1739 66.0048 16.3807 55.3122 18.5389 45.0198C18.6264 44.5833 18.5379 44.1298 18.2926 43.7583C18.0474 43.3868 17.6652 43.1272 17.2294 43.0362C16.7936 42.9451 16.3395 43.03 15.966 43.2722C15.5925 43.5145 15.3299 43.8945 15.2353 44.3296C12.9469 55.2436 13.7882 66.5821 17.6622 77.0389C17.782 77.3622 17.9978 77.641 18.2807 77.8379C18.5637 78.0348 18.9001 78.1404 19.2448 78.1403V78.1403Z" fill="#3E61EE"/>
<path d="M26.3783 92.695C26.5139 92.8713 26.6829 93.019 26.8758 93.1298C27.0686 93.2405 27.2814 93.3121 27.502 93.3403C27.7226 93.3685 27.9466 93.3528 28.1611 93.2942C28.3756 93.2356 28.5764 93.1351 28.752 92.9986C28.9275 92.8621 29.0744 92.6922 29.1841 92.4988C29.2938 92.3053 29.3641 92.0921 29.3911 91.8714C29.4181 91.6506 29.4013 91.4267 29.3414 91.2125C29.2816 90.9984 29.1801 90.7981 29.0426 90.6233C27.9843 89.262 26.9791 87.8367 26.0549 86.3868C25.9357 86.2 25.781 86.0384 25.5994 85.9113C25.4178 85.7843 25.213 85.6942 24.9966 85.6463C24.7803 85.5984 24.5566 85.5936 24.3383 85.6322C24.1201 85.6707 23.9116 85.7519 23.7247 85.871C23.5379 85.9901 23.3763 86.1449 23.2492 86.3265C23.1222 86.5081 23.0321 86.7129 22.9842 86.9293C22.9363 87.1456 22.9315 87.3693 22.9701 87.5876C23.0086 87.8058 23.0898 88.0143 23.2089 88.2012C24.1893 89.7393 25.2561 91.251 26.3783 92.695V92.695Z" fill="#3E61EE"/>
<path d="M19.8262 139.5H89.8405C90.062 139.5 90.2813 139.457 90.486 139.373C90.6907 139.288 90.8767 139.164 91.0334 139.008C91.1902 138.851 91.3145 138.665 91.3994 138.461C91.4842 138.256 91.528 138.037 91.528 137.816C91.5232 133.639 89.8615 129.634 86.9076 126.681C83.9537 123.728 79.9489 122.067 75.7719 122.063H75.6203L69.0708 83.5673C68.4983 80.2058 66.7548 77.1553 64.149 74.9558C61.5433 72.7563 58.2433 71.5498 54.8334 71.5498C51.4234 71.5498 48.1235 72.7563 45.5177 74.9558C42.9119 77.1553 41.1685 80.2058 40.5959 83.5673L34.0465 122.063H33.8946C29.7176 122.067 25.7128 123.728 22.759 126.681C19.8051 129.634 18.1435 133.639 18.1387 137.816C18.1387 138.037 18.1825 138.256 18.2673 138.461C18.3522 138.665 18.4766 138.851 18.6333 139.008C18.79 139.164 18.976 139.288 19.1807 139.373C19.3854 139.457 19.6047 139.5 19.8262 139.5V139.5ZM52.594 125.438V136.125H38.5315V125.438H52.594ZM71.1565 125.438V136.125H55.969V125.438H71.1565ZM88.0383 136.125H74.5315V125.438H75.7719C78.7617 125.44 81.6499 126.523 83.9041 128.487C86.1583 130.451 87.6266 133.164 88.0383 136.125V136.125ZM43.9231 84.1335C44.362 81.5576 45.6981 79.2201 47.6949 77.5348C49.6917 75.8494 52.2204 74.9249 54.8334 74.9249C57.4463 74.9249 59.9751 75.8494 61.9719 77.5348C63.9687 79.2201 65.3047 81.5576 65.7436 84.1335L72.1972 122.063H37.4698L43.9231 84.1335ZM33.8946 125.438H35.1565V136.125H21.6284C22.0402 133.164 23.5084 130.451 25.7626 128.487C28.0167 126.523 30.9048 125.44 33.8946 125.438V125.438Z" fill="#17E5C3"/>
<path d="M54.8329 91.7048C56.1153 91.7045 57.3689 91.3239 58.435 90.6112C59.5012 89.8985 60.332 88.8856 60.8226 87.7007C61.3131 86.5158 61.4413 85.212 61.1909 83.9542C60.9405 82.6965 60.3228 81.5412 59.4158 80.6345C58.5089 79.7278 57.3534 79.1104 56.0956 78.8603C54.8378 78.6102 53.5341 78.7388 52.3493 79.2296C51.1645 79.7205 50.1519 80.5516 49.4394 81.6179C48.7269 82.6843 48.3467 83.9379 48.3467 85.2203C48.3489 86.9397 49.033 88.5881 50.249 89.8037C51.465 91.0193 53.1135 91.7031 54.8329 91.7048V91.7048ZM54.8329 82.1111C55.4478 82.1115 56.0488 82.2941 56.56 82.636C57.0711 82.9779 57.4694 83.4637 57.7045 84.0319C57.9396 84.6001 58.0009 85.2253 57.8807 85.8284C57.7605 86.4315 57.4642 86.9854 57.0292 87.4201C56.5943 87.8548 56.0402 88.1507 55.437 88.2705C54.8339 88.3903 54.2087 88.3286 53.6406 88.0932C53.0726 87.8577 52.587 87.4591 52.2455 86.9478C51.9039 86.4364 51.7216 85.8353 51.7217 85.2203C51.7229 84.3958 52.0511 83.6053 52.6344 83.0224C53.2176 82.4395 54.0083 82.1118 54.8329 82.1111V82.1111Z" fill="#17E5C3"/>
</svg>
