<svg viewBox="0 0 144 144" fill="none" xmlns="http://www.w3.org/2000/svg">
<path d="M98.3546 48.6228C99.7613 48.6228 100.902 47.4825 100.902 46.0758C100.902 44.6691 99.7613 43.5288 98.3546 43.5288C96.948 43.5288 95.8076 44.6691 95.8076 46.0758C95.8076 47.4825 96.948 48.6228 98.3546 48.6228Z" fill="#3E61EE"/>
<path d="M78.3034 38.5965C79.5518 38.5965 80.5638 37.5845 80.5638 36.3361C80.5638 35.0877 79.5518 34.0757 78.3034 34.0757C77.055 34.0757 76.043 35.0877 76.043 36.3361C76.043 37.5845 77.055 38.5965 78.3034 38.5965Z" fill="#3E61EE"/>
<path d="M121.845 36.3046C122.236 36.3046 122.617 36.1889 122.942 35.9719C123.267 35.755 123.52 35.4467 123.669 35.086C123.818 34.7253 123.858 34.3283 123.781 33.9454C123.705 33.5625 123.517 33.2107 123.241 32.9346C122.965 32.6586 122.613 32.4705 122.23 32.3944C121.847 32.3182 121.45 32.3573 121.09 32.5067C120.729 32.6561 120.421 32.9092 120.204 33.2338C119.987 33.5584 119.871 33.9401 119.871 34.3305C119.872 34.8539 120.08 35.3558 120.45 35.7259C120.82 36.096 121.322 36.3041 121.845 36.3046Z" fill="#3E61EE"/>
<path d="M46.2191 68.3883C46.7794 68.3883 47.3272 68.2221 47.7932 67.9108C48.2591 67.5995 48.6222 67.157 48.8367 66.6393C49.0511 66.1215 49.1072 65.5519 48.9979 65.0022C48.8886 64.4526 48.6188 63.9478 48.2225 63.5515C47.8263 63.1553 47.3214 62.8854 46.7718 62.7761C46.2222 62.6668 45.6525 62.7229 45.1348 62.9374C44.6171 63.1518 44.1746 63.515 43.8632 63.9809C43.5519 64.4468 43.3857 64.9946 43.3857 65.555C43.3866 66.3062 43.6853 67.0264 44.2165 67.5575C44.7477 68.0887 45.4679 68.3875 46.2191 68.3883ZM46.2191 65.0133C46.3262 65.0133 46.4309 65.0451 46.52 65.1046C46.6091 65.1641 46.6785 65.2487 46.7195 65.3477C46.7605 65.4467 46.7712 65.5556 46.7503 65.6607C46.7294 65.7658 46.6778 65.8623 46.6021 65.938C46.5263 66.0138 46.4298 66.0654 46.3247 66.0863C46.2197 66.1072 46.1107 66.0965 46.0118 66.0555C45.9128 66.0145 45.8282 65.945 45.7687 65.8559C45.7091 65.7669 45.6774 65.6621 45.6774 65.555C45.6775 65.4114 45.7346 65.2737 45.8362 65.1721C45.9377 65.0706 46.0754 65.0135 46.2191 65.0133Z" fill="#3E61EE"/>
<path d="M44.7866 74.4042C45.8769 74.4042 46.7607 73.5204 46.7607 72.4302C46.7607 71.3399 45.8769 70.4561 44.7866 70.4561C43.6963 70.4561 42.8125 71.3399 42.8125 72.4302C42.8125 73.5204 43.6963 74.4042 44.7866 74.4042Z" fill="#3E61EE"/>
<path d="M76.8697 129.977C77.3735 129.977 77.8659 129.828 78.2849 129.548C78.7038 129.268 79.0303 128.87 79.2232 128.405C79.4161 127.94 79.4666 127.427 79.3684 126.933C79.2702 126.439 79.0276 125.985 78.6714 125.629C78.3153 125.273 77.8614 125.03 77.3673 124.932C76.8733 124.833 76.3611 124.884 75.8957 125.077C75.4302 125.269 75.0324 125.596 74.7525 126.015C74.4726 126.434 74.3232 126.926 74.3232 127.43C74.324 128.105 74.5925 128.752 75.0699 129.23C75.5472 129.707 76.1945 129.976 76.8697 129.977V129.977Z" fill="#3E61EE"/>
<path d="M46.5053 95.6015C47.5956 95.6015 48.4794 94.7177 48.4794 93.6274C48.4794 92.5372 47.5956 91.6533 46.5053 91.6533C45.4151 91.6533 44.5312 92.5372 44.5312 93.6274C44.5312 94.7177 45.4151 95.6015 46.5053 95.6015Z" fill="#3E61EE"/>
<path d="M11.5889 88.1851C11.5888 88.7455 11.7549 89.2933 12.0662 89.7593C12.3775 90.2252 12.82 90.5884 13.3377 90.8029C13.8554 91.0174 14.4251 91.0736 14.9748 90.9643C15.5244 90.855 16.0293 90.5852 16.4255 90.1889C16.8218 89.7927 17.0917 89.2878 17.201 88.7382C17.3104 88.1886 17.2543 87.6189 17.0398 87.1012C16.8254 86.5834 16.4623 86.1409 15.9963 85.8296C15.5304 85.5182 14.9826 85.3521 14.4222 85.3521C13.6711 85.3529 12.951 85.6517 12.4198 86.1828C11.8887 86.7139 11.5898 87.434 11.5889 88.1851V88.1851Z" fill="#3E61EE"/>
<path d="M129.292 68.3883C129.853 68.3883 130.4 68.2221 130.866 67.9108C131.332 67.5995 131.696 67.157 131.91 66.6393C132.124 66.1215 132.181 65.5519 132.071 65.0022C131.962 64.4526 131.692 63.9478 131.296 63.5515C130.9 63.1553 130.395 62.8854 129.845 62.7761C129.295 62.6668 128.726 62.7229 128.208 62.9374C127.69 63.1518 127.248 63.515 126.936 63.9809C126.625 64.4468 126.459 64.9946 126.459 65.555C126.46 66.3062 126.758 67.0264 127.29 67.5576C127.821 68.0888 128.541 68.3876 129.292 68.3883V68.3883Z" fill="#3E61EE"/>
<path d="M54.5268 14.8203C55.6171 14.8203 56.5009 13.9364 56.5009 12.8462C56.5009 11.7559 55.6171 10.8721 54.5268 10.8721C53.4366 10.8721 52.5527 11.7559 52.5527 12.8462C52.5527 13.9364 53.4366 14.8203 54.5268 14.8203Z" fill="#3E61EE"/>
<path d="M24.623 124.995C24.6231 125.669 24.8229 126.328 25.1973 126.888C25.5716 127.448 26.1036 127.884 26.726 128.142C27.3484 128.4 28.0333 128.467 28.6941 128.336C29.3548 128.204 29.9617 127.88 30.438 127.403C30.9144 126.927 31.2387 126.32 31.3701 125.659C31.5015 124.999 31.434 124.314 31.1761 123.691C30.9182 123.069 30.4816 122.537 29.9214 122.163C29.3612 121.789 28.7027 121.589 28.029 121.589C27.1259 121.59 26.2602 121.949 25.6217 122.588C24.9831 123.226 24.624 124.092 24.623 124.995V124.995Z" fill="#3E61EE"/>
<path d="M118.694 131.696C119.784 131.696 120.668 130.812 120.668 129.722C120.668 128.631 119.784 127.748 118.694 127.748C117.604 127.748 116.72 128.631 116.72 129.722C116.72 130.812 117.604 131.696 118.694 131.696Z" fill="#3E61EE"/>
<path d="M25.0208 8.51819C25.5812 8.51819 26.129 8.35202 26.5949 8.04069C27.0609 7.72936 27.424 7.28686 27.6385 6.76914C27.8529 6.25142 27.909 5.68173 27.7997 5.13212C27.6904 4.58252 27.4205 4.07767 27.0243 3.68142C26.628 3.28518 26.1232 3.01533 25.5736 2.90601C25.024 2.79668 24.4543 2.85279 23.9366 3.06724C23.4188 3.28168 22.9763 3.64484 22.665 4.11077C22.3537 4.57671 22.1875 5.1245 22.1875 5.68488C22.1883 6.43607 22.4871 7.15625 23.0183 7.68743C23.5494 8.2186 24.2696 8.51737 25.0208 8.51819V8.51819ZM25.0208 5.14319C25.1279 5.14319 25.2327 5.17496 25.3218 5.23448C25.4108 5.294 25.4803 5.3786 25.5213 5.47758C25.5623 5.57656 25.573 5.68548 25.5521 5.79055C25.5312 5.89563 25.4796 5.99215 25.4038 6.06791C25.3281 6.14366 25.2316 6.19525 25.1265 6.21616C25.0214 6.23706 24.9125 6.22633 24.8135 6.18533C24.7145 6.14433 24.6299 6.0749 24.5704 5.98582C24.5109 5.89674 24.4791 5.79201 24.4791 5.68488C24.4793 5.54128 24.5365 5.40363 24.638 5.30209C24.7396 5.20055 24.8772 5.14341 25.0208 5.14319V5.14319Z" fill="#3E61EE"/>
<path d="M89.4754 12.815C90.0924 12.815 90.6956 12.632 91.2087 12.2892C91.7218 11.9464 92.1217 11.4591 92.3578 10.889C92.5939 10.319 92.6557 9.69164 92.5353 9.08644C92.415 8.48124 92.1178 7.92532 91.6815 7.489C91.2452 7.05267 90.6892 6.75553 90.084 6.63514C89.4788 6.51476 88.8515 6.57655 88.2814 6.81269C87.7114 7.04882 87.2241 7.44871 86.8813 7.96178C86.5384 8.47484 86.3555 9.07804 86.3555 9.6951C86.3564 10.5223 86.6855 11.3153 87.2703 11.9001C87.8552 12.485 88.6482 12.814 89.4754 12.815V12.815ZM89.4754 9.44001C89.5258 9.44001 89.5752 9.45497 89.6171 9.483C89.6591 9.51103 89.6917 9.55087 89.7111 9.59748C89.7304 9.64409 89.7354 9.69539 89.7256 9.74487C89.7157 9.79435 89.6914 9.83981 89.6558 9.87548C89.6201 9.91116 89.5746 9.93545 89.5251 9.9453C89.4757 9.95514 89.4244 9.95009 89.3778 9.93078C89.3311 9.91147 89.2913 9.87878 89.2633 9.83683C89.2352 9.79488 89.2203 9.74556 89.2203 9.6951C89.2204 9.62747 89.2473 9.56263 89.2951 9.51481C89.3429 9.46698 89.4077 9.44008 89.4754 9.44001V9.44001Z" fill="#3E61EE"/>
<path d="M96.3491 16.539C97.4394 16.539 98.3232 15.6552 98.3232 14.5649C98.3232 13.4747 97.4394 12.5908 96.3491 12.5908C95.2588 12.5908 94.375 13.4747 94.375 14.5649C94.375 15.6552 95.2588 16.539 96.3491 16.539Z" fill="#3E61EE"/>
<path d="M20.1509 11.6694C21.2411 11.6694 22.1249 10.7855 22.1249 9.69529C22.1249 8.60502 21.2411 7.72119 20.1509 7.72119C19.0606 7.72119 18.1768 8.60502 18.1768 9.69529C18.1768 10.7855 19.0606 11.6694 20.1509 11.6694Z" fill="#3E61EE"/>
<path d="M13.5631 55.4974C14.8115 55.4974 15.8235 54.4854 15.8235 53.237C15.8235 51.9886 14.8115 50.9766 13.5631 50.9766C12.3148 50.9766 11.3027 51.9886 11.3027 53.237C11.3027 54.4854 12.3148 55.4974 13.5631 55.4974Z" fill="#3E61EE"/>
<path d="M128.719 14.534C129.166 14.534 129.603 14.4014 129.975 14.153C130.347 13.9047 130.637 13.5516 130.808 13.1386C130.979 12.7256 131.024 12.2711 130.936 11.8326C130.849 11.3941 130.634 10.9914 130.318 10.6752C130.002 10.3591 129.599 10.1438 129.16 10.0566C128.722 9.9694 128.267 10.0142 127.854 10.1852C127.441 10.3563 127.088 10.6461 126.84 11.0178C126.592 11.3895 126.459 11.8265 126.459 12.2736C126.46 12.8729 126.698 13.4474 127.122 13.8712C127.546 14.295 128.12 14.5333 128.719 14.534V14.534Z" fill="#3E61EE"/>
<path d="M48.2822 98.4977C48.2822 98.8517 48.3936 99.1968 48.6005 99.484C48.8075 99.7713 49.0995 99.9861 49.4353 100.098C50.1875 100.353 50.8706 100.777 51.431 101.34C51.9915 101.902 52.4141 102.587 52.6658 103.34C52.7776 103.676 52.9925 103.969 53.2799 104.176C53.5673 104.383 53.9127 104.495 54.2671 104.495C54.6215 104.495 54.9669 104.383 55.2543 104.176C55.5417 103.969 55.7566 103.676 55.8684 103.34C56.1199 102.586 56.5424 101.902 57.1028 101.339C57.6632 100.777 58.3463 100.352 59.0985 100.097C59.4342 99.9849 59.7261 99.77 59.9329 99.4828C60.1398 99.1956 60.2511 98.8506 60.2511 98.4967C60.2511 98.1428 60.1398 97.7978 59.9329 97.5106C59.7261 97.2233 59.4342 97.0084 59.0985 96.8962C58.3465 96.6422 57.6635 96.2176 57.103 95.6555C56.5425 95.0934 56.1197 94.4092 55.8678 93.6565C55.756 93.3202 55.5411 93.0277 55.2537 92.8204C54.9663 92.613 54.6209 92.5015 54.2665 92.5015C53.9121 92.5015 53.5667 92.613 53.2793 92.8204C52.9919 93.0277 52.777 93.3202 52.6652 93.6565C52.4135 94.4095 51.9909 95.094 51.4304 95.6564C50.87 96.2187 50.1869 96.6437 49.4348 96.8979C49.0992 97.0101 48.8074 97.2249 48.6006 97.512C48.3937 97.799 48.2824 98.1439 48.2822 98.4977V98.4977ZM54.2664 97.5524C54.5561 97.8915 54.8718 98.2075 55.2105 98.4977C54.8719 98.788 54.5562 99.1041 54.2664 99.4432C53.9769 99.104 53.6614 98.7879 53.3228 98.4977C53.6615 98.2076 53.977 97.8916 54.2664 97.5524Z" fill="#3E61EE"/>
<path d="M121.336 134.996C121 135.108 120.709 135.323 120.502 135.611C120.295 135.898 120.184 136.243 120.184 136.597C120.184 136.951 120.295 137.296 120.502 137.583C120.709 137.87 121 138.085 121.336 138.197C122.088 138.451 122.771 138.876 123.332 139.439C123.892 140.001 124.315 140.686 124.567 141.439C124.678 141.775 124.893 142.067 125.181 142.275C125.468 142.482 125.813 142.594 126.168 142.594C126.522 142.594 126.868 142.482 127.155 142.275C127.442 142.067 127.657 141.775 127.769 141.439C128.021 140.686 128.444 140.001 129.004 139.439C129.565 138.876 130.248 138.451 131 138.197C131.336 138.085 131.627 137.87 131.834 137.583C132.041 137.296 132.152 136.951 132.152 136.597C132.152 136.243 132.041 135.898 131.834 135.611C131.627 135.323 131.336 135.108 131 134.996C130.248 134.742 129.565 134.317 129.004 133.755C128.443 133.193 128.021 132.508 127.769 131.755C127.657 131.419 127.442 131.126 127.155 130.919C126.868 130.712 126.522 130.6 126.168 130.6C125.813 130.6 125.468 130.712 125.181 130.919C124.893 131.126 124.678 131.419 124.567 131.755C124.315 132.508 123.892 133.193 123.332 133.755C122.771 134.317 122.088 134.742 121.336 134.996V134.996ZM126.168 135.652C126.457 135.991 126.773 136.307 127.112 136.597C126.773 136.887 126.457 137.203 126.168 137.542C125.878 137.203 125.563 136.887 125.224 136.597C125.563 136.307 125.878 135.991 126.168 135.652V135.652Z" fill="#3E61EE"/>
<path d="M55.1633 9.0041C55.9155 9.2582 56.5986 9.68306 57.1591 10.2454C57.7196 10.8077 58.1423 11.4922 58.394 12.2452C58.5058 12.5815 58.7207 12.8741 59.0081 13.0814C59.2955 13.2887 59.6409 13.4003 59.9953 13.4003C60.3497 13.4003 60.6951 13.2887 60.9825 13.0814C61.2699 12.8741 61.4848 12.5815 61.5966 12.2452C61.8484 11.4921 62.2712 10.8075 62.8319 10.2452C63.3927 9.68287 64.076 9.25807 64.8284 9.0041C65.1641 8.89189 65.456 8.67698 65.6628 8.38977C65.8697 8.10256 65.9809 7.75758 65.9809 7.40365C65.9809 7.04971 65.8697 6.70474 65.6628 6.41752C65.456 6.13031 65.1641 5.9154 64.8284 5.80319C64.076 5.54914 63.3927 5.12427 62.832 4.5619C62.2713 3.99953 61.8484 3.31494 61.5966 2.56179C61.4848 2.2255 61.2699 1.93295 60.9825 1.72563C60.6951 1.51831 60.3497 1.40674 59.9953 1.40674C59.6409 1.40674 59.2955 1.51831 59.0081 1.72563C58.7207 1.93295 58.5058 2.2255 58.394 2.56179C58.1423 3.31482 57.7196 3.99933 57.1591 4.5617C56.5986 5.12406 55.9155 5.54899 55.1633 5.80319C54.8276 5.9154 54.5357 6.13031 54.3289 6.41752C54.122 6.70474 54.0107 7.04971 54.0107 7.40365C54.0107 7.75758 54.122 8.10256 54.3289 8.38977C54.5357 8.67698 54.8276 8.89189 55.1633 9.0041V9.0041ZM59.9951 6.45822C60.2847 6.79729 60.6002 7.11333 60.9387 7.40351C60.6003 7.69375 60.2848 8.00979 59.9951 8.34879C59.7057 8.00959 59.3902 7.69353 59.0515 7.40351C59.3902 7.11348 59.7057 6.79742 59.9951 6.45822V6.45822Z" fill="#3E61EE"/>
<path d="M97.5527 54.0961C97.5527 54.4502 97.6641 54.7952 97.8711 55.0825C98.078 55.3697 98.37 55.5846 98.7059 55.6967C99.7916 56.0634 100.778 56.6765 101.587 57.4882C102.396 58.2998 103.006 59.2878 103.369 60.3748C103.481 60.7111 103.696 61.0038 103.983 61.2112C104.27 61.4186 104.616 61.5302 104.97 61.5302C105.325 61.5302 105.67 61.4186 105.958 61.2112C106.245 61.0038 106.46 60.7111 106.572 60.3748C106.935 59.2878 107.545 58.2998 108.354 57.4882C109.163 56.6765 110.149 56.0634 111.235 55.6967C111.57 55.5845 111.862 55.3696 112.069 55.0824C112.276 54.7952 112.387 54.4502 112.387 54.0963C112.387 53.7423 112.276 53.3974 112.069 53.1102C111.862 52.8229 111.57 52.608 111.235 52.4958C110.149 52.1292 109.163 51.516 108.354 50.7044C107.545 49.8929 106.935 48.9049 106.572 47.8181C106.46 47.4817 106.246 47.189 105.958 46.9816C105.671 46.7742 105.325 46.6626 104.971 46.6626C104.616 46.6626 104.271 46.7742 103.983 46.9816C103.696 47.189 103.481 47.4817 103.369 47.8181C103.006 48.905 102.396 49.893 101.587 50.7046C100.778 51.5162 99.7919 52.1294 98.7061 52.4961C98.3704 52.6081 98.0783 52.8229 97.8713 53.1101C97.6643 53.3972 97.5529 53.7422 97.5527 54.0961V54.0961ZM104.97 51.937C105.583 52.7545 106.308 53.4814 107.125 54.0961C106.308 54.7109 105.583 55.4379 104.97 56.2556C104.356 55.4381 103.63 54.7111 102.814 54.0961C103.63 53.4813 104.356 52.7544 104.97 51.937V51.937Z" fill="#3E61EE"/>
<path d="M23.446 132.985C24.6943 132.985 25.7064 131.973 25.7064 130.724C25.7064 129.476 24.6943 128.464 23.446 128.464C22.1976 128.464 21.1855 129.476 21.1855 130.724C21.1855 131.973 22.1976 132.985 23.446 132.985Z" fill="#3E61EE"/>
<path d="M14.9058 29.9366C15.187 28.057 14.0795 26.2038 12.1996 25.8056C11.7476 25.6984 11.2787 25.6825 10.8204 25.759C10.3622 25.8355 9.92382 26.0028 9.53113 26.2511C9.13843 26.4994 8.7993 26.8236 8.53364 27.2047C8.26798 27.5859 8.08115 28.0162 7.98413 28.4706C7.8871 28.9249 7.88183 29.3941 7.96863 29.8505C8.05543 30.3069 8.23254 30.7414 8.48958 31.1284C8.74661 31.5154 9.07838 31.8471 9.4654 32.1042C9.85242 32.3612 10.2869 32.5383 10.7433 32.625C10.9863 32.6754 11.2337 32.7009 11.4819 32.701C13.0917 32.6999 14.6245 31.574 14.9058 29.9366ZM11.5671 29.2374C11.5628 29.2577 11.5528 29.2764 11.5383 29.2913C11.5239 29.3062 11.5055 29.3166 11.4853 29.3215C11.4651 29.3264 11.4439 29.3254 11.4242 29.3188C11.4046 29.3121 11.3872 29.3 11.3741 29.2839C11.361 29.2678 11.3528 29.2483 11.3503 29.2276C11.3478 29.207 11.3513 29.1861 11.3602 29.1674C11.3691 29.1486 11.3832 29.1328 11.4007 29.1217C11.4183 29.1106 11.4386 29.1047 11.4594 29.1046C11.467 29.1047 11.4746 29.1054 11.4821 29.1069C11.5107 29.113 11.5356 29.1302 11.5515 29.1546C11.5674 29.1791 11.573 29.2088 11.5671 29.2374V29.2374Z" fill="#17E5C3"/>
<path d="M43.9714 39.6607C44.2111 39.7117 44.4556 39.7374 44.7007 39.7375C45.5961 39.7373 46.4573 39.3936 47.1067 38.7772C47.7562 38.1608 48.1443 37.3187 48.1912 36.4245C48.2381 35.5303 47.94 34.6523 47.3586 33.9714C46.7771 33.2904 45.9566 32.8586 45.0661 32.7648C44.1756 32.6711 43.2831 32.9226 42.5726 33.4675C41.8621 34.0124 41.3877 34.8091 41.2473 35.6934C41.107 36.5778 41.3112 37.4822 41.8181 38.2204C42.3249 38.9585 43.0957 39.4741 43.9714 39.6607V39.6607Z" fill="#17E5C3"/>
<path d="M62.5219 57.9191C62.7602 57.9694 63.0031 57.9949 63.2466 57.995C64.0478 58.0033 64.8267 57.7319 65.4491 57.2275C66.0716 56.723 66.4985 56.0172 66.6562 55.2317C66.9375 53.3521 65.8459 51.499 63.9661 51.1007C63.0632 50.9125 62.1225 51.0898 61.3501 51.5939C60.5777 52.0979 60.0366 52.8875 59.8453 53.7898C59.654 54.692 59.8282 55.6333 60.3296 56.4074C60.831 57.1815 61.6188 57.7253 62.5204 57.9196L62.5219 57.9191ZM63.1361 54.4878C63.1413 54.4632 63.1547 54.4411 63.1742 54.4252C63.1937 54.4093 63.2181 54.4007 63.2433 54.4006C63.2509 54.4007 63.2585 54.4014 63.266 54.4029C63.2874 54.4073 63.3069 54.418 63.3221 54.4336C63.3374 54.4491 63.3477 54.4689 63.3517 54.4903C63.3557 54.5117 63.3532 54.5338 63.3447 54.5538C63.3361 54.5739 63.3217 54.5909 63.3035 54.6027C63.2852 54.6146 63.2638 54.6208 63.242 54.6205C63.2203 54.6202 63.1991 54.6134 63.1811 54.601C63.1632 54.5886 63.1493 54.5712 63.1413 54.551C63.1333 54.5307 63.1315 54.5085 63.1361 54.4872V54.4878Z" fill="#17E5C3"/>
<path d="M85.4374 76.3672C85.6772 76.4183 85.9216 76.4441 86.1667 76.4443C87.0628 76.4445 87.9249 76.1009 88.5752 75.4843C89.2254 74.8677 89.6143 74.025 89.6616 73.1301C89.7089 72.2352 89.4109 71.3563 88.8293 70.6746C88.2476 69.9929 87.4265 69.5603 86.5354 69.4662C85.6442 69.372 84.7508 69.6234 84.0395 70.1685C83.3282 70.7136 82.8532 71.5108 82.7124 72.3958C82.5716 73.2808 82.7758 74.1861 83.2828 74.9251C83.7898 75.664 84.561 76.1802 85.4374 76.3672ZM86.0522 72.936C86.0552 72.9219 86.0609 72.9085 86.0691 72.8966C86.0772 72.8847 86.0876 72.8745 86.0997 72.8666C86.1118 72.8588 86.1253 72.8533 86.1395 72.8507C86.1537 72.848 86.1682 72.8482 86.1823 72.8512C86.1964 72.8541 86.2098 72.8599 86.2217 72.868C86.2336 72.8762 86.2438 72.8866 86.2517 72.8987C86.2595 72.9107 86.2649 72.9242 86.2676 72.9384C86.2702 72.9526 86.2701 72.9672 86.2671 72.9813C86.2644 72.9954 86.2587 73.0088 86.2506 73.0207C86.2424 73.0325 86.2318 73.0426 86.2196 73.0502C86.2077 73.0584 86.1941 73.0641 86.1799 73.0668C86.1656 73.0694 86.151 73.069 86.1369 73.0656C86.1085 73.0595 86.0836 73.0423 86.0678 73.0179C86.052 72.9935 86.0465 72.9639 86.0525 72.9354L86.0522 72.936Z" fill="#17E5C3"/>
<path d="M133.209 83.0446C132.761 82.9525 132.3 82.9494 131.851 83.0356C131.402 83.1218 130.974 83.2956 130.593 83.547C130.211 83.7984 129.882 84.1226 129.626 84.5009C129.369 84.8793 129.19 85.3045 129.098 85.7522C129.006 86.1999 129.003 86.6614 129.089 87.1103C129.175 87.5592 129.349 87.9867 129.6 88.3685C129.852 88.7502 130.176 89.0787 130.554 89.3352C130.933 89.5916 131.358 89.7711 131.805 89.8632C132.027 89.9135 132.253 89.9389 132.48 89.9392C133.276 89.9468 134.049 89.6742 134.664 89.1689C135.279 88.6637 135.697 87.9581 135.844 87.1759C136.406 85.2955 135.089 83.4426 133.209 83.0446ZM132.648 86.4759C132.641 86.5039 132.624 86.5284 132.6 86.5441C132.575 86.5598 132.546 86.5656 132.518 86.5602C132.491 86.5545 132.468 86.5391 132.452 86.5172C132.436 86.4953 132.429 86.4683 132.432 86.4413C132.434 86.4144 132.447 86.3895 132.467 86.3713C132.487 86.3531 132.513 86.343 132.54 86.3428C132.548 86.3428 132.556 86.3437 132.563 86.3454C132.577 86.3484 132.591 86.3542 132.603 86.3625C132.615 86.3708 132.625 86.3813 132.633 86.3935C132.641 86.4058 132.646 86.4195 132.649 86.4338C132.651 86.4481 132.651 86.4628 132.648 86.477V86.4759Z" fill="#17E5C3"/>
<path d="M85.6337 98.2538C85.0559 98.6295 84.6025 99.1682 84.3309 99.8017C84.0592 100.435 83.9815 101.135 84.1076 101.812C84.2337 102.49 84.5579 103.115 85.0392 103.608C85.5205 104.102 86.1373 104.441 86.8116 104.584C87.0514 104.635 87.2958 104.661 87.5409 104.661C88.083 104.66 88.6173 104.532 89.1014 104.288C89.5856 104.045 90.0061 103.691 90.3297 103.256C90.6533 102.821 90.871 102.317 90.9655 101.783C91.06 101.249 91.0286 100.701 90.874 100.181C90.7194 99.6618 90.4456 99.1855 90.0746 98.7903C89.7036 98.3951 89.2456 98.0918 88.7368 97.9047C88.2281 97.7176 87.6827 97.6517 87.144 97.7123C86.6053 97.7729 86.0882 97.9583 85.6337 98.2538V98.2538ZM87.641 101.197C87.6349 101.226 87.6177 101.251 87.5933 101.266C87.5689 101.282 87.5393 101.288 87.5108 101.282C87.4966 101.279 87.4831 101.273 87.4712 101.265C87.4593 101.257 87.4493 101.246 87.4416 101.234C87.4259 101.209 87.4205 101.18 87.4265 101.151C87.4326 101.123 87.4496 101.098 87.474 101.082C87.4913 101.07 87.5118 101.064 87.5327 101.064C87.5408 101.064 87.5488 101.065 87.5567 101.067C87.5708 101.069 87.5843 101.075 87.5962 101.083C87.6081 101.091 87.6182 101.102 87.6258 101.114C87.6341 101.126 87.6397 101.14 87.6424 101.154C87.645 101.168 87.6445 101.183 87.641 101.197Z" fill="#17E5C3"/>
<path d="M129.675 117.335C129.915 117.386 130.159 117.412 130.404 117.412C131.298 117.412 132.158 117.069 132.806 116.453C133.454 115.838 133.842 114.997 133.888 114.105C133.935 113.212 133.638 112.336 133.057 111.656C132.477 110.976 131.658 110.545 130.769 110.451C129.88 110.358 128.989 110.609 128.279 111.153C127.57 111.697 127.097 112.492 126.956 113.375C126.816 114.257 127.02 115.16 127.526 115.897C128.032 116.634 128.801 117.149 129.675 117.335V117.335ZM130.29 113.904C130.295 113.88 130.308 113.857 130.328 113.842C130.347 113.826 130.372 113.817 130.397 113.817C130.405 113.817 130.412 113.818 130.42 113.819C130.448 113.825 130.473 113.843 130.489 113.867C130.505 113.891 130.51 113.921 130.504 113.949C130.5 113.971 130.489 113.99 130.473 114.005C130.458 114.02 130.438 114.03 130.417 114.034C130.395 114.038 130.373 114.036 130.353 114.027C130.333 114.019 130.317 114.004 130.305 113.986C130.297 113.974 130.291 113.961 130.288 113.946C130.286 113.932 130.286 113.918 130.29 113.904V113.904Z" fill="#17E5C3"/>
<path d="M18.32 32.3917L36.959 36.3388C37.0745 36.3632 37.1922 36.3755 37.3103 36.3757C37.7275 36.3757 38.13 36.2211 38.44 35.9418C38.75 35.6625 38.9455 35.2782 38.9888 34.8632C39.0321 34.4482 38.9201 34.0318 38.6744 33.6946C38.4287 33.3573 38.0668 33.123 37.6584 33.0369L19.0192 29.0902C18.8014 29.0417 18.5762 29.0368 18.3566 29.0759C18.1369 29.115 17.9272 29.1973 17.7396 29.318C17.552 29.4386 17.3901 29.5953 17.2634 29.7789C17.1367 29.9625 17.0477 30.1694 17.0015 30.3877C16.9552 30.6059 16.9528 30.8312 16.9941 31.0504C17.0355 31.2696 17.12 31.4784 17.2426 31.6648C17.3652 31.8512 17.5236 32.0114 17.7085 32.1362C17.8934 32.2609 18.1013 32.3478 18.32 32.3917V32.3917Z" fill="#17E5C3"/>
<path d="M93.0188 76.1252L124.629 86.4932C125.052 86.6229 125.508 86.5817 125.901 86.3784C126.293 86.1752 126.59 85.826 126.728 85.4061C126.866 84.9861 126.833 84.5289 126.637 84.1326C126.442 83.7363 126.098 83.4327 125.681 83.2869L94.071 72.9184C93.8593 72.8447 93.6351 72.814 93.4114 72.828C93.1877 72.842 92.9691 72.9003 92.7682 72.9997C92.5674 73.0991 92.3883 73.2375 92.2415 73.4069C92.0947 73.5762 91.9831 73.7731 91.9132 73.986C91.8433 74.199 91.8166 74.4237 91.8345 74.6471C91.8524 74.8705 91.9147 75.0881 92.0176 75.2872C92.1205 75.4863 92.2621 75.6629 92.434 75.8066C92.6059 75.9504 92.8047 76.0585 93.0188 76.1246V76.1252Z" fill="#17E5C3"/>
<path d="M123.559 110.766L95.4659 101.143C95.2563 101.071 95.0345 101.041 94.8133 101.055C94.5921 101.069 94.3759 101.126 94.1768 101.224C93.9778 101.321 93.7999 101.457 93.6533 101.623C93.5067 101.789 93.3943 101.983 93.3225 102.192C93.2507 102.402 93.2209 102.624 93.2348 102.845C93.2486 103.066 93.3059 103.283 93.4034 103.482C93.5009 103.681 93.6366 103.858 93.8028 104.005C93.969 104.152 94.1625 104.264 94.3721 104.336L122.465 113.959C122.889 114.104 123.352 114.075 123.754 113.878C124.156 113.681 124.464 113.333 124.609 112.909C124.754 112.486 124.724 112.022 124.528 111.62C124.331 111.218 123.982 110.911 123.559 110.766V110.766Z" fill="#17E5C3"/>
<path d="M57.2181 50.6197C57.5291 50.939 57.9538 51.1223 58.3994 51.1296C58.8451 51.1369 59.2755 50.9676 59.5968 50.6586C59.918 50.3497 60.104 49.9261 60.1141 49.4805C60.1242 49.0349 59.9576 48.6034 59.6506 48.2803L51.2182 39.5131C51.0654 39.3502 50.8817 39.2192 50.6779 39.1278C50.4741 39.0363 50.2541 38.9863 50.0308 38.9805C49.8074 38.9748 49.5852 39.0134 49.3769 39.0942C49.1687 39.175 48.9785 39.2964 48.8175 39.4513C48.6565 39.6061 48.5278 39.7914 48.439 39.9964C48.3501 40.2014 48.3029 40.4219 48.3 40.6453C48.297 40.8687 48.3385 41.0904 48.4219 41.2977C48.5053 41.5049 48.6291 41.6935 48.786 41.8526L57.2181 50.6197Z" fill="#17E5C3"/>
<path d="M67.0308 61.3063L78.1559 70.0012C78.3305 70.1385 78.5304 70.24 78.7442 70.2998C78.9581 70.3597 79.1816 70.3768 79.4021 70.3501C79.6225 70.3234 79.8356 70.2534 80.0289 70.1442C80.2223 70.035 80.3922 69.8887 80.5289 69.7137C80.6656 69.5388 80.7665 69.3385 80.8257 69.1245C80.8848 68.9104 80.9012 68.6868 80.8738 68.4664C80.8463 68.2461 80.7757 68.0333 80.6659 67.8403C80.5561 67.6473 80.4092 67.4778 80.2338 67.3417L69.1089 58.6471C68.9345 58.509 68.7344 58.4068 68.5203 58.3463C68.3062 58.2858 68.0823 58.2682 67.8613 58.2946C67.6404 58.321 67.4269 58.3909 67.233 58.5001C67.0392 58.6093 66.8689 58.7558 66.7319 58.9311C66.5949 59.1064 66.4939 59.3071 66.4347 59.5216C66.3756 59.7361 66.3594 59.9601 66.3872 60.1809C66.415 60.4017 66.4862 60.6147 66.5966 60.8079C66.7071 61.001 66.8546 61.1704 67.0308 61.3063V61.3063Z" fill="#17E5C3"/>
<path d="M87.2621 95.4564C87.2975 95.4564 87.333 95.4553 87.3684 95.453C87.5896 95.4392 87.806 95.382 88.0051 95.2847C88.2042 95.1873 88.3821 95.0517 88.5288 94.8855C88.6755 94.7194 88.788 94.5259 88.8599 94.3163C88.9318 94.1067 88.9617 93.8849 88.9479 93.6637L88.112 80.2588C88.0842 79.8121 87.88 79.3947 87.5445 79.0986C87.2089 78.8024 86.7694 78.6517 86.3227 78.6795C85.876 78.7074 85.4587 78.9116 85.1625 79.2471C84.8664 79.5827 84.7156 80.0222 84.7435 80.4689L85.5794 93.8738C85.6061 94.3021 85.7949 94.7041 86.1075 94.9981C86.4201 95.2921 86.833 95.456 87.2621 95.4564V95.4564Z" fill="#17E5C3"/>
<path d="M131.959 108.228C131.998 108.228 132.038 108.228 132.078 108.224C132.525 108.193 132.94 107.986 133.234 107.648C133.528 107.311 133.675 106.87 133.644 106.424L132.734 93.3706C132.721 93.1476 132.664 92.9294 132.566 92.7286C132.468 92.5278 132.332 92.3483 132.164 92.2007C131.996 92.0531 131.801 91.9403 131.589 91.8687C131.378 91.7972 131.154 91.7683 130.931 91.7839C130.709 91.7994 130.491 91.859 130.291 91.9593C130.092 92.0595 129.914 92.1984 129.769 92.3678C129.623 92.5373 129.513 92.7339 129.444 92.9464C129.375 93.1588 129.349 93.3829 129.367 93.6055L130.277 106.659C130.307 107.085 130.497 107.483 130.809 107.774C131.121 108.066 131.532 108.228 131.959 108.228V108.228Z" fill="#17E5C3"/>
</svg>
