<svg viewBox="0 0 144 144" fill="none" xmlns="http://www.w3.org/2000/svg">
<path d="M22.4073 63.1772C22.4073 31.4182 46.9778 5.41575 78.0948 3.24422C76.7009 3.14691 75.2947 3.09375 73.876 3.09375C40.7898 3.09375 13.9698 29.9953 13.9698 63.1772C13.9584 72.3208 16.0355 81.3462 20.0425 89.565C24.0496 97.7839 29.8808 104.979 37.0913 110.602H37.1898V102.693C27.6372 91.7473 22.3842 77.7052 22.4073 63.1772Z" fill="#3E61EE" fill-opacity="0.2"/>
<path d="M37.1892 113.282V110.677C37.1554 110.652 37.1217 110.627 37.0908 110.602C33.0998 110.68 29.2993 112.323 26.5069 115.175C23.7144 118.027 22.1533 121.862 22.1592 125.854V140.906H30.5967V125.854C30.5938 123.381 31.1924 120.944 32.3409 118.754C33.4894 116.564 35.1533 114.686 37.1892 113.282V113.282Z" fill="#3E61EE" fill-opacity="0.2"/>
<path d="M88.8746 113.344V107.141C91.8164 106.668 94.6325 105.606 97.1536 104.018C99.6747 102.43 101.849 100.349 103.546 97.9C105.243 95.4508 106.427 92.684 107.028 89.7657C107.629 86.8474 107.634 83.8377 107.043 80.9173L104.735 69.4623C105.367 68.8618 105.869 68.1378 106.21 67.3352C106.55 66.5327 106.723 65.6687 106.715 64.7969C106.696 63.7336 106.419 62.6909 105.908 61.7584C105.397 60.8258 104.667 60.0313 103.781 59.443V42.5765C103.781 28.3922 92.3157 16.8874 78.1896 16.8874L74.0195 16.875H68.4297C54.9665 16.875 43.8746 27.7889 43.8746 41.2892V58.9483C40.4996 60.3599 37.7715 63.8758 37.7715 67.9956C37.778 69.5043 38.1361 70.9907 38.8173 72.337C39.4985 73.6832 40.484 74.8521 41.6958 75.751L40.6684 80.9173C40.0696 83.8575 40.0757 86.8889 40.6864 89.8267C41.2971 92.7645 42.4996 95.5472 44.2205 98.0052C45.9415 100.463 48.1449 102.545 50.6965 104.124C53.2481 105.703 56.0944 106.746 59.0621 107.189V113.344H62.4371V96.419C66.0054 98.2525 69.9565 99.217 73.9684 99.2337C77.9842 99.2505 81.9431 98.2841 85.4996 96.419V113.344H88.8746ZM103.758 81.587C104.244 84.0184 104.244 86.5219 103.757 88.9532C103.271 91.3845 102.309 93.6956 100.925 95.7531C99.5415 97.8107 97.7644 99.5741 95.6962 100.942C93.628 102.309 91.3096 103.254 88.8746 103.721V94.3338C89.1559 94.0925 89.5755 93.8453 89.8936 93.5873C94.403 89.9279 97.5293 84.8396 98.756 79.1632L100.469 71.2038C100.857 71.1967 101.244 71.1546 101.624 71.0781L103.758 81.587ZM68.4297 20.25H74.0004L78.1705 20.2624C81.0957 20.2673 83.9914 20.8484 86.692 21.9725C89.3926 23.0966 91.8454 24.7416 93.9102 26.8137C95.975 28.8859 97.6114 31.3444 98.7259 34.049C99.8404 36.7536 100.411 39.6512 100.406 42.5765V57.1714C99.2809 51.2761 94.0412 46.8397 87.7403 46.6135C86.102 46.5574 84.4686 46.402 82.8491 46.1481C78.7424 45.4941 74.9121 43.6678 71.8188 40.8887C67.562 37.083 64.9286 31.7883 64.4621 26.0975C64.4243 25.652 64.211 25.2399 63.8693 24.9517C63.5275 24.6635 63.0853 24.5229 62.6399 24.5607C62.1945 24.5986 61.7823 24.8118 61.4941 25.1536C61.2059 25.4953 61.0653 25.9375 61.1031 26.3829C61.5868 32.2163 64.0508 37.7088 68.0863 41.9487C65.7041 43.472 62.7389 44.5719 59.3841 45.2168C53.011 46.442 48.3746 51.6288 47.2496 57.94V41.29C47.2496 29.6499 56.8276 20.25 68.4297 20.25V20.25ZM49.2184 78.9047L49.2665 79.2141C49.9657 82.3485 51.216 85.3339 52.959 88.0312H51.4273C50.2019 88.0312 49.2189 86.924 49.2189 85.6924L49.2184 78.9047ZM47.5286 61.5938H48.3423C48.4567 61.6158 48.5642 61.6649 48.6559 61.7369V74.25H47.5286C45.8503 74.25 44.2407 73.5833 43.0539 72.3965C41.8672 71.2098 41.2005 69.6002 41.2005 67.9219C41.2005 66.2436 41.8672 64.634 43.0539 63.4472C44.2407 62.2605 45.8503 61.5938 47.5286 61.5938V61.5938ZM59.0621 103.769C54.4063 102.91 50.2371 100.348 47.3663 96.5835C45.7788 94.4628 44.6575 92.0304 44.0758 89.446C43.4942 86.8615 43.4654 84.1833 43.9913 81.587L44.8669 77.3055C45.1838 77.3966 45.5632 77.4717 45.8445 77.5305V85.6927C45.8445 88.7864 48.3414 91.4065 51.4279 91.4065H55.6401C56.3994 92.2136 57.2202 92.9604 58.0952 93.6402C58.4133 93.8981 58.782 94.093 59.0632 94.3343L59.0621 103.769ZM60.6574 91.4062H65.8101C66.1324 91.9934 66.6058 92.4839 67.1812 92.8267C67.7566 93.1696 68.4132 93.3525 69.083 93.3564C70.0635 93.349 71.0011 92.9541 71.6914 92.2578C72.3817 91.5615 72.7685 90.6204 72.7674 89.64C72.7667 89.1579 72.6707 88.6808 72.4849 88.2359C72.2991 87.7911 72.0271 87.3874 71.6847 87.0481C71.3423 86.7088 70.9361 86.4405 70.4896 86.2588C70.0431 86.077 69.5651 85.9854 69.083 85.9891C67.6585 85.9891 66.4233 86.625 65.8101 88.0312H57.1603C54.9071 85.2607 53.3367 81.9992 52.5759 78.5101L52.0314 75.8382V59.9726C52.028 59.5983 51.9012 59.2356 51.6707 58.9407C51.4402 58.6458 51.1189 58.4351 50.7565 58.3414C51.1068 55.9404 52.1936 53.7072 53.8669 51.95C55.5402 50.1928 57.7175 48.9981 60.0985 48.5308C64.22 47.7383 67.7634 46.314 70.6479 44.2997C74.0301 47.0141 78.0616 48.7999 82.3445 49.4809C84.1058 49.7565 85.8822 49.9256 87.6638 49.9871C90.2896 50.0805 92.7762 51.191 94.5983 53.0839C96.4205 54.9768 97.4355 57.5039 97.4288 60.1313C97.4264 60.5848 97.6016 61.0213 97.917 61.3472C98.2324 61.6731 98.6629 61.8626 99.1163 61.875H100.371C101.154 61.875 101.906 62.1861 102.459 62.74C103.013 63.2938 103.324 64.0449 103.324 64.8281C103.324 65.6113 103.013 66.3625 102.459 66.9163C101.906 67.4701 101.154 67.7812 100.371 67.7812H99.1163C98.7278 67.7864 98.3527 67.9238 98.0528 68.1707C97.7528 68.4177 97.5459 68.7594 97.4662 69.1397L95.4795 78.4457C94.4263 83.3653 91.7251 87.7779 87.8228 90.9534C83.9206 94.1288 79.0511 95.8769 74.0201 95.9082C69.2016 95.86 64.5227 94.2837 60.6574 91.4062V91.4062Z" fill="#3E61EE"/>
<path d="M65.1602 64.3677C64.7126 64.3677 64.2834 64.5455 63.967 64.8619C63.6505 65.1784 63.4727 65.6076 63.4727 66.0552C63.4727 66.6176 63.2493 67.157 62.8516 67.5547C62.4539 67.9524 61.9145 68.1758 61.3521 68.1758C60.7896 68.1758 60.2503 67.9524 59.8526 67.5547C59.4549 67.157 59.2314 66.6176 59.2314 66.0552C59.2314 65.6076 59.0537 65.1784 58.7372 64.8619C58.4207 64.5455 57.9915 64.3677 57.5439 64.3677C57.0964 64.3677 56.6672 64.5455 56.3507 64.8619C56.0342 65.1784 55.8564 65.6076 55.8564 66.0552C55.8564 67.5127 56.4354 68.9105 57.4661 69.9412C58.4967 70.9718 59.8945 71.5508 61.3521 71.5508C62.8096 71.5508 64.2074 70.9718 65.2381 69.9412C66.2687 68.9105 66.8477 67.5127 66.8477 66.0552C66.8477 65.6076 66.6699 65.1784 66.3534 64.8619C66.037 64.5455 65.6078 64.3677 65.1602 64.3677V64.3677Z" fill="#3E61EE"/>
<path d="M92.1836 66.0552C92.1836 65.6076 92.0058 65.1784 91.6894 64.8619C91.3729 64.5455 90.9437 64.3677 90.4961 64.3677C90.0486 64.3677 89.6194 64.5455 89.3029 64.8619C88.9864 65.1784 88.8086 65.6076 88.8086 66.0552C88.8086 66.6176 88.5852 67.157 88.1875 67.5547C87.7898 67.9524 87.2504 68.1758 86.688 68.1758C86.1256 68.1758 85.5862 67.9524 85.1885 67.5547C84.7908 67.157 84.5674 66.6176 84.5674 66.0552C84.5674 65.6076 84.3896 65.1784 84.0731 64.8619C83.7567 64.5455 83.3274 64.3677 82.8799 64.3677C82.4323 64.3677 82.0031 64.5455 81.6866 64.8619C81.3702 65.1784 81.1924 65.6076 81.1924 66.0552C81.1924 67.5127 81.7714 68.9105 82.802 69.9412C83.8326 70.9718 85.2305 71.5508 86.688 71.5508C88.1455 71.5508 89.5434 70.9718 90.574 69.9412C91.6046 68.9105 92.1836 67.5127 92.1836 66.0552V66.0552Z" fill="#3E61EE"/>
<path d="M28.9611 43.1234C28.7556 43.0403 28.5358 42.9986 28.3142 43.0006C28.0925 43.0025 27.8735 43.0481 27.6695 43.1347C27.4655 43.2213 27.2805 43.3472 27.1252 43.5053C26.9699 43.6634 26.8472 43.8505 26.7642 44.056C24.3101 50.1316 23.0542 56.6245 23.0655 63.1771C23.0655 63.6246 23.2433 64.0538 23.5598 64.3703C23.8762 64.6868 24.3055 64.8646 24.753 64.8646C25.2006 64.8646 25.6298 64.6868 25.9462 64.3703C26.2627 64.0538 26.4405 63.6246 26.4405 63.1771C26.4295 57.0577 27.6021 50.994 29.8937 45.3199C30.0613 44.905 30.0572 44.4404 29.8823 44.0285C29.7074 43.6166 29.376 43.291 28.9611 43.1234V43.1234Z" fill="#3E61EE"/>
<path d="M25.3247 70.9059C25.107 70.9477 24.8998 71.0321 24.7148 71.154C24.5298 71.276 24.3706 71.4332 24.2463 71.6167C24.122 71.8002 24.0351 72.0064 23.9906 72.2235C23.946 72.4406 23.9446 72.6643 23.9865 72.8819C24.348 74.7602 24.8152 76.6166 25.3857 78.4422C25.5193 78.8694 25.8172 79.226 26.2137 79.4335C26.6102 79.6411 27.073 79.6826 27.5001 79.549C27.9273 79.4153 28.2839 79.1175 28.4914 78.7209C28.699 78.3244 28.7405 77.8617 28.6068 77.4345C28.0742 75.7304 27.6381 73.9975 27.3004 72.2443C27.2159 71.8048 26.9603 71.4169 26.5898 71.1659C26.2192 70.9149 25.7642 70.8213 25.3247 70.9059V70.9059Z" fill="#3E61EE"/>
<path d="M110.25 108.91V112.285C117.844 112.285 124.031 118.372 124.031 125.854V139.219H105.75V131.854C105.75 131.407 105.572 130.977 105.256 130.661C104.939 130.345 104.51 130.167 104.062 130.167C103.615 130.167 103.186 130.345 102.869 130.661C102.553 130.977 102.375 131.407 102.375 131.854V139.219H45.5623V131.854C45.5623 131.407 45.3845 130.977 45.068 130.661C44.7516 130.345 44.3223 130.167 43.8748 130.167C43.4272 130.167 42.998 130.345 42.6815 130.661C42.3651 130.977 42.1873 131.407 42.1873 131.854V139.219H23.906V125.854C23.891 124.073 24.2293 122.308 24.9016 120.659C25.5738 119.011 26.5666 117.512 27.8223 116.25C29.078 114.988 30.5717 113.987 32.2168 113.307C33.8619 112.626 35.6257 112.279 37.406 112.285V108.91C32.9243 108.928 28.6322 110.721 25.4695 113.897C22.3068 117.072 20.5311 121.372 20.531 125.854V140.906C20.5244 141.125 20.5614 141.342 20.6401 141.546C20.7188 141.75 20.8374 141.936 20.989 142.093C21.1407 142.25 21.3223 142.376 21.5231 142.462C21.7239 142.548 21.9399 142.593 22.1584 142.594H125.593C126.525 142.594 127.406 141.838 127.406 140.906V125.854C127.406 116.511 119.812 108.91 110.25 108.91Z" fill="#3E61EE"/>
<path d="M120.141 14.0626C120.141 14.4166 120.252 14.7616 120.459 15.0488C120.666 15.336 120.958 15.5508 121.294 15.6629C122.678 16.1303 123.935 16.9119 124.966 17.9463C125.997 18.9808 126.775 20.2401 127.238 21.6254C127.35 21.9617 127.565 22.2542 127.852 22.4616C128.139 22.6689 128.485 22.7804 128.839 22.7804C129.194 22.7804 129.539 22.6689 129.826 22.4616C130.114 22.2542 130.329 21.9617 130.441 21.6254C130.904 20.2401 131.681 18.9808 132.713 17.9463C133.744 16.9119 135.001 16.1303 136.385 15.6629C136.72 15.5506 137.012 15.3357 137.219 15.0485C137.426 14.7613 137.537 14.4164 137.537 14.0626C137.537 13.7087 137.426 13.3638 137.219 13.0766C137.012 12.7895 136.72 12.5745 136.385 12.4623C135.001 11.9949 133.744 11.2133 132.713 10.1788C131.681 9.14437 130.904 7.88512 130.441 6.49978C130.329 6.16349 130.114 5.87094 129.826 5.66362C129.539 5.4563 129.194 5.34473 128.839 5.34473C128.485 5.34473 128.139 5.4563 127.852 5.66362C127.565 5.87094 127.35 6.16349 127.238 6.49978C126.775 7.88512 125.997 9.14437 124.966 10.1788C123.935 11.2133 122.678 11.9949 121.294 12.4623C120.958 12.5744 120.666 12.7892 120.459 13.0764C120.252 13.3636 120.141 13.7086 120.141 14.0626V14.0626ZM128.839 10.7742C129.725 12.0597 130.837 13.1738 132.12 14.0626C130.837 14.9513 129.725 16.0655 128.839 17.351C127.953 16.0655 126.841 14.9514 125.557 14.0626C126.841 13.1738 127.953 12.0596 128.839 10.7742V10.7742Z" fill="#3E61EE"/>
<path d="M21.787 104.307C21.8655 103.962 21.8336 103.601 21.6956 103.275C21.5577 102.949 21.3208 102.675 21.0183 102.491C19.7716 101.727 18.7183 100.686 17.941 99.4474C17.1636 98.2092 16.6833 96.808 16.5375 95.3532C16.5027 95.0005 16.3579 94.6677 16.1233 94.402C15.8888 94.1362 15.5766 93.9511 15.2309 93.8728C14.8853 93.7945 14.5237 93.827 14.1976 93.9657C13.8714 94.1044 13.5972 94.3423 13.4139 94.6456C12.6566 95.8934 11.6203 96.9485 10.3863 97.7281C9.15242 98.5077 7.75452 98.9905 6.30249 99.1386C5.95005 99.1733 5.61745 99.318 5.35181 99.5522C5.08616 99.7864 4.90093 100.098 4.82234 100.444C4.74376 100.789 4.77581 101.15 4.91395 101.476C5.05209 101.802 5.28933 102.077 5.59206 102.26C6.83889 103.024 7.89219 104.066 8.66958 105.304C9.44697 106.542 9.92737 107.943 10.0732 109.398C10.1079 109.751 10.2528 110.084 10.4873 110.349C10.7219 110.615 11.0341 110.8 11.3798 110.879C11.7254 110.957 12.087 110.924 12.4131 110.786C12.7392 110.647 13.0134 110.409 13.1968 110.106C13.9541 108.858 14.9904 107.803 16.2244 107.023C17.4583 106.244 18.8562 105.761 20.3082 105.613C20.6605 105.578 20.9928 105.433 21.2582 105.198C21.5236 104.964 21.7086 104.652 21.787 104.307V104.307ZM12.58 105.581C11.9996 104.13 11.1611 102.796 10.105 101.644C11.5523 101.063 12.8822 100.225 14.0301 99.169C14.6105 100.62 15.4491 101.954 16.5051 103.106C15.0578 103.687 13.7279 104.526 12.58 105.581V105.581Z" fill="#3E61EE"/>
<path d="M136.688 125.227C136.24 125.227 135.811 125.404 135.494 125.721C135.178 126.037 135 126.467 135 126.914V126.961C135 127.409 135.178 127.838 135.494 128.155C135.811 128.471 136.24 128.649 136.688 128.649C137.135 128.649 137.564 128.471 137.881 128.155C138.197 127.838 138.375 127.409 138.375 126.961V126.914C138.375 126.467 138.197 126.037 137.881 125.721C137.564 125.404 137.135 125.227 136.688 125.227Z" fill="#3E61EE"/>
<path d="M136.81 121.916C137.258 121.916 137.687 121.738 138.003 121.422C138.32 121.105 138.498 120.676 138.498 120.229C138.499 117.019 137.589 113.876 135.875 111.163C134.16 108.45 131.712 106.279 128.813 104.903C128.612 104.808 128.395 104.753 128.174 104.742C127.953 104.731 127.731 104.764 127.523 104.838C127.314 104.913 127.122 105.028 126.958 105.177C126.793 105.325 126.66 105.505 126.565 105.705C126.47 105.905 126.415 106.122 126.404 106.344C126.393 106.565 126.426 106.786 126.501 106.995C126.575 107.204 126.69 107.396 126.839 107.56C126.987 107.724 127.167 107.858 127.367 107.953C129.69 109.054 131.652 110.793 133.025 112.966C134.398 115.139 135.126 117.658 135.123 120.229C135.123 120.676 135.3 121.105 135.617 121.422C135.933 121.738 136.363 121.916 136.81 121.916Z" fill="#3E61EE"/>
<path d="M133.885 32.0625C135.592 32.0625 136.975 30.6774 136.975 28.9687C136.975 27.2601 135.592 25.875 133.885 25.875C132.179 25.875 130.796 27.2601 130.796 28.9687C130.796 30.6774 132.179 32.0625 133.885 32.0625Z" fill="#3E61EE"/>
<path d="M136.97 135.844C138.212 135.844 139.218 134.836 139.218 133.594C139.218 132.351 138.212 131.344 136.97 131.344C135.728 131.344 134.722 132.351 134.722 133.594C134.722 134.836 135.728 135.844 136.97 135.844Z" fill="#3E61EE"/>
<path d="M11.903 24.1875C13.6093 24.1875 14.9925 22.8024 14.9925 21.0938C14.9925 19.3851 13.6093 18 11.903 18C10.1967 18 8.81348 19.3851 8.81348 21.0938C8.81348 22.8024 10.1967 24.1875 11.903 24.1875Z" fill="#3E61EE"/>
<path d="M11.903 124.594C13.6093 124.594 14.9925 123.209 14.9925 121.5C14.9925 119.791 13.6093 118.406 11.903 118.406C10.1967 118.406 8.81348 119.791 8.81348 121.5C8.81348 123.209 10.1967 124.594 11.903 124.594Z" fill="#3E61EE"/>
<path d="M120.905 58.2384C120.951 58.6836 121.172 59.0924 121.519 59.3748C121.866 59.6571 122.311 59.79 122.756 59.7441C123.202 59.6982 123.61 59.4774 123.893 59.1301C124.175 58.7829 124.308 58.3377 124.262 57.8925C124.115 56.4623 123.904 55.0237 123.637 53.6175C123.552 53.1792 123.297 52.7923 122.927 52.5418C122.558 52.2912 122.104 52.1973 121.665 52.2806C121.227 52.364 120.839 52.6178 120.587 52.9864C120.335 53.3551 120.24 53.8086 120.322 54.2475C120.572 55.5604 120.769 56.9033 120.905 58.2384V58.2384Z" fill="#3E61EE"/>
<path d="M115.786 41.1979C116.459 42.4872 117.081 43.8257 117.634 45.1762C117.714 45.3876 117.835 45.5808 117.99 45.7446C118.146 45.9083 118.332 46.0392 118.539 46.1295C118.746 46.2197 118.969 46.2676 119.195 46.2701C119.421 46.2727 119.645 46.2299 119.853 46.1443C120.062 46.0588 120.252 45.9322 120.411 45.772C120.57 45.6118 120.696 45.4213 120.78 45.2118C120.864 45.0023 120.905 44.7781 120.901 44.5523C120.897 44.3266 120.848 44.104 120.756 43.8976C120.164 42.4506 119.498 41.0162 118.776 39.6353C116.322 34.9402 113.152 30.6566 109.378 26.9388C109.059 26.6266 108.629 26.4535 108.183 26.4576C107.736 26.4617 107.31 26.6425 106.996 26.9605C106.683 27.2785 106.508 27.7078 106.511 28.1543C106.513 28.6008 106.693 29.0281 107.009 29.3427C110.533 32.8143 113.494 36.8141 115.786 41.1979V41.1979Z" fill="#3E61EE"/>
<path d="M73.8754 1.40595C65.7752 1.41754 57.7566 3.02448 50.2774 6.13502C42.7982 9.24557 36.0049 13.7988 30.2854 19.5347C24.5659 25.2707 20.0321 32.077 16.9431 39.5651C13.854 47.0532 12.27 55.0764 12.2817 63.1766C12.2515 71.2851 13.827 79.3194 16.9174 86.816C20.0078 94.3126 24.5519 101.123 30.2876 106.855C31.9394 108.511 33.7492 110.058 35.4367 111.5V119.075C35.4367 119.718 35.5638 120.413 36.1325 120.821C46.9335 128.541 59.8411 132.766 73.1167 132.927C86.3924 133.087 99.3983 129.175 110.383 121.717C110.992 121.303 111.093 120.559 111.093 119.885V112.437C113.341 110.727 115.465 108.861 117.452 106.854C129.001 95.2502 135.483 79.5445 135.48 63.1734C135.477 46.8023 128.989 31.099 117.436 19.4999C111.736 13.7486 104.949 9.18733 97.4715 6.08116C89.9935 2.97498 81.9728 1.3858 73.8754 1.40595V1.40595ZM107.718 119.46C97.4513 126.19 85.4096 129.704 73.1343 129.551C60.8589 129.399 48.9083 125.586 38.812 118.603V114.022C49.2182 121.123 61.1764 124.948 73.8645 124.948C85.894 124.953 97.6622 121.438 107.718 114.836V119.46ZM107.718 110.697C97.64 117.918 85.5169 121.727 73.1198 121.568C60.7228 121.409 48.7015 117.289 38.812 109.812V105.731C49.0725 112.298 60.9702 115.854 73.1516 115.994C85.3331 116.135 97.3094 112.853 107.718 106.524V110.697ZM111.093 108.081V103.728C111.086 103.608 111.066 103.489 111.034 103.373L110.966 103.112C110.907 102.842 110.782 102.59 110.604 102.379C110.425 102.168 110.197 102.004 109.94 101.902C109.683 101.799 109.405 101.761 109.13 101.79C108.855 101.82 108.591 101.916 108.362 102.071C98.0287 109.058 85.8149 112.738 73.3414 112.623C60.8679 112.507 48.7244 108.602 38.522 101.424C38.3607 101.217 38.1533 101.05 37.9162 100.937C37.679 100.824 37.4188 100.768 37.1562 100.773C36.8935 100.779 36.6357 100.845 36.4033 100.968C36.1709 101.09 35.9703 101.265 35.8175 101.479L35.7435 101.537C35.5003 101.944 35.3929 102.418 35.437 102.891V107.055C29.2126 101.564 24.2271 94.8117 20.8113 87.2468C17.3954 79.6818 15.6273 71.477 15.6243 63.1766C15.6243 30.9771 41.7572 4.78095 73.8591 4.78095C105.961 4.78095 132.106 30.9771 132.106 63.1766C132.136 71.7487 130.267 80.2211 126.634 87.9853C123.001 95.7495 117.694 102.613 111.093 108.082V108.081Z" fill="#17E5C3"/>
</svg>
