<svg viewBox="0 0 144 144" fill="none" xmlns="http://www.w3.org/2000/svg">
<path d="M70.5228 5.10742C57.9374 5.41385 45.8124 9.90247 36.0612 17.8649L35.7912 18.0843C27.9829 24.5333 22.0326 32.9451 18.5518 42.4553C15.071 51.9654 14.1853 62.2309 15.9856 72.1968H21.1086C20.8384 69.9362 20.7027 67.6616 20.7022 65.3849C20.695 57.8478 22.1517 50.381 24.9915 43.3993C25.0219 43.4176 25.052 43.4364 25.0826 43.4556C28.6676 34.9886 34.2131 27.4946 41.2624 21.5912L41.297 21.6137C41.2866 21.6053 41.2748 21.598 41.2641 21.5895C47.0055 16.9101 54.1001 12.9833 61.3822 10.8176C64.2085 8.58212 67.2742 6.667 70.5228 5.10742V5.10742Z" fill="#3E61EE" fill-opacity="0.2"/>
<path d="M107.636 79.5938H107.537C107.09 79.5938 106.66 79.7715 106.344 80.088C106.027 80.4045 105.85 80.8337 105.85 81.2812C105.85 81.7288 106.027 82.158 106.344 82.4745C106.66 82.791 107.09 82.9688 107.537 82.9688H107.636C108.083 82.9688 108.512 82.791 108.829 82.4745C109.145 82.158 109.323 81.7288 109.323 81.2812C109.323 80.8337 109.145 80.4045 108.829 80.088C108.512 79.7715 108.083 79.5938 107.636 79.5938Z" fill="#3E61EE"/>
<path d="M101.146 79.5938H61.4912C61.0437 79.5938 60.6144 79.7715 60.298 80.088C59.9815 80.4045 59.8037 80.8337 59.8037 81.2812C59.8037 81.7288 59.9815 82.158 60.298 82.4745C60.6144 82.791 61.0437 82.9688 61.4912 82.9688H101.146C101.594 82.9688 102.023 82.791 102.339 82.4745C102.656 82.158 102.834 81.7288 102.834 81.2812C102.834 80.8337 102.656 80.4045 102.339 80.088C102.023 79.7715 101.594 79.5938 101.146 79.5938Z" fill="#3E61EE"/>
<path d="M55.0522 79.5938H36.3662C35.9187 79.5938 35.4894 79.7715 35.173 80.088C34.8565 80.4045 34.6787 80.8337 34.6787 81.2812C34.6787 81.7288 34.8565 82.158 35.173 82.4745C35.4894 82.791 35.9187 82.9688 36.3662 82.9688H55.0513C55.4989 82.9688 55.9281 82.791 56.2446 82.4745C56.561 82.158 56.7388 81.7288 56.7388 81.2812C56.7388 80.8337 56.561 80.4045 56.2446 80.088C55.9281 79.7715 55.4989 79.5938 55.0513 79.5938H55.0522Z" fill="#3E61EE"/>
<path d="M71.9996 3.3999C63.4167 3.40727 54.94 5.298 47.1674 8.93871C39.3949 12.5794 32.516 17.8814 27.0161 24.4706C21.5161 31.0597 17.5291 38.7756 15.3363 47.0737C13.1436 55.3718 12.7985 64.05 14.3254 72.496L17.6464 71.8961C15.8661 62.0203 16.7926 51.8468 20.3275 42.4551C25.9928 46.2383 32.0595 49.3828 38.4167 51.8311C37.6186 58.6652 37.6294 65.5694 38.4488 72.4009L41.799 71.9917C41.3983 68.6796 41.1986 65.3462 41.2011 62.0099C41.1986 59.0059 41.3582 56.004 41.6792 53.0172C50.9046 56.1664 60.5654 57.855 70.3121 58.022V72.2814H73.6871V58.0243C83.4354 57.8747 93.0987 56.1835 102.318 53.0135C102.639 56.0015 102.799 59.0047 102.797 62.0099C102.799 65.3462 102.599 68.6796 102.199 71.9917L105.549 72.4009C105.966 68.953 106.174 65.4829 106.172 62.0099C106.175 58.6041 105.977 55.201 105.579 51.8185C111.927 49.3524 117.979 46.1821 123.62 42.3668C126.014 48.6389 127.238 55.2965 127.233 62.0099C127.233 65.3249 126.938 68.6335 126.351 71.8961L129.672 72.4963C130.295 69.0356 130.608 65.5262 130.608 62.0099C130.61 29.6923 104.317 3.3999 71.9996 3.3999V3.3999ZM70.3121 7.093V28.7611C63.7316 28.5629 57.2374 27.2068 51.1275 24.7549C55.9684 17.1359 62.4549 11.0789 70.3121 7.093V7.093ZM47.9947 23.3838C44.7588 21.8476 41.6816 19.9973 38.8074 17.8595C45.9239 12.5178 54.2236 8.97099 63.0027 7.51993C56.9582 11.7148 51.8482 17.1162 47.9947 23.3838V23.3838ZM73.6871 7.093C81.5408 11.0769 88.025 17.1302 92.865 24.7442C86.7665 27.2273 80.2695 28.5884 73.6871 28.7619V7.093ZM80.9828 7.50925C89.7159 8.94612 97.9731 12.4703 105.052 17.7822C102.219 19.9303 99.1814 21.7954 95.9838 23.3509C92.13 17.092 87.0225 11.6984 80.9828 7.50953V7.50925ZM21.648 39.2756C24.9918 31.879 29.9254 25.3106 36.0972 20.0381C39.2692 22.4725 42.6844 24.5726 46.2883 26.3046C42.7218 32.8296 40.2133 40.2754 38.8974 48.3948C32.8307 45.9965 27.0462 42.9384 21.648 39.2756ZM42.1261 49.5997C43.3673 41.5053 45.8358 34.1138 49.3888 27.6878C56.0366 30.4248 63.1259 31.9324 70.3121 32.1375V54.647C60.7079 54.4766 51.1926 52.7727 42.1261 49.5997V49.5997ZM73.6871 54.6493V32.1372C80.8689 31.9296 87.9515 30.4042 94.582 27.6372C98.1494 34.0736 100.629 41.4809 101.872 49.5946C92.8116 52.7895 83.2934 54.4965 73.6871 54.6493V54.6493ZM105.099 48.3805C103.778 40.2394 101.258 32.7765 97.6744 26.2385C101.246 24.4978 104.627 22.3917 107.765 19.954C113.958 25.2241 118.918 31.7898 122.295 39.1873C116.922 42.881 111.155 45.9644 105.099 48.3805V48.3805Z" fill="#17E5C3"/>
<path d="M36.1688 3.16384C34.1573 4.09512 32.2002 5.13957 30.3067 6.29219C30.1175 6.40748 29.9528 6.55892 29.822 6.73786C29.6913 6.91681 29.5971 7.11975 29.5448 7.33511C29.4924 7.55046 29.4831 7.77402 29.5171 7.993C29.5512 8.21198 29.6281 8.4221 29.7434 8.61137C29.8587 8.80064 30.0101 8.96535 30.1891 9.09609C30.368 9.22684 30.571 9.32105 30.7863 9.37336C31.0017 9.42568 31.2252 9.43506 31.4442 9.40097C31.6632 9.36689 31.8733 9.29001 32.0626 9.17472C33.8467 8.08872 35.6909 7.10464 37.5863 6.22722C37.9926 6.03925 38.3075 5.6976 38.4618 5.27744C38.6162 4.85727 38.5973 4.39301 38.4093 3.98678C38.2213 3.58055 37.8797 3.26563 37.4595 3.1113C37.0393 2.95697 36.5751 2.97587 36.1688 3.16384V3.16384Z" fill="#17E5C3"/>
<path d="M25.6166 13.762C25.7876 13.6209 25.929 13.4476 26.0329 13.2518C26.1369 13.0561 26.2012 12.8418 26.2223 12.6212C26.2434 12.4006 26.2208 12.178 26.1559 11.9661C26.091 11.7542 25.985 11.5572 25.8439 11.3863C25.7028 11.2154 25.5295 11.0739 25.3337 10.97C25.138 10.8661 24.9237 10.8017 24.7031 10.7806C24.4825 10.7595 24.2599 10.7821 24.048 10.847C23.8361 10.9119 23.6391 11.0179 23.4682 11.159C17.6158 15.9775 12.7547 21.8865 9.1548 28.558C9.04414 28.7533 8.97357 28.9688 8.94721 29.1917C8.92086 29.4147 8.93926 29.6406 9.00133 29.8564C9.0634 30.0721 9.1679 30.2733 9.3087 30.4482C9.4495 30.623 9.62377 30.768 9.82132 30.8747C10.0189 30.9813 10.2357 31.0475 10.4591 31.0693C10.6826 31.0911 10.9081 31.0681 11.1226 31.0017C11.337 30.9352 11.536 30.8266 11.708 30.6823C11.8799 30.538 12.0213 30.3608 12.124 30.1611C15.5177 23.8729 20.1 18.3035 25.6166 13.762V13.762Z" fill="#17E5C3"/>
<path d="M140.906 137.531H138.094V90.2715C138.094 90.2546 138.092 90.2383 138.091 90.2217C138.091 90.2051 138.094 90.1885 138.094 90.1716V72.1969C138.093 71.98 138.048 71.7655 137.962 71.5663C137.876 71.367 137.751 71.1872 137.594 71.0375C137.437 70.8878 137.252 70.7713 137.049 70.6951C136.846 70.6189 136.629 70.5844 136.412 70.5938H7.58756C7.37084 70.5844 7.15446 70.6189 6.95137 70.6951C6.74829 70.7713 6.56269 70.8878 6.40569 71.0375C6.2487 71.1872 6.12354 71.367 6.03772 71.5663C5.9519 71.7655 5.90718 71.98 5.90625 72.1969V90.1716C5.90625 90.1885 5.90822 90.2048 5.90878 90.2217C5.90934 90.2385 5.90625 90.2546 5.90625 90.2715V137.531H3.09375C2.6462 137.531 2.21697 137.709 1.90051 138.026C1.58404 138.342 1.40625 138.771 1.40625 139.219C1.40625 139.666 1.58404 140.096 1.90051 140.412C2.21697 140.729 2.6462 140.906 3.09375 140.906H71.4327C71.6102 140.906 71.8006 141.006 72 141.006C72.1994 141.006 72.3898 140.906 72.5673 140.906H140.906C141.354 140.906 141.783 140.729 142.099 140.412C142.416 140.096 142.594 139.666 142.594 139.219C142.594 138.771 142.416 138.342 142.099 138.026C141.783 137.709 141.354 137.531 140.906 137.531ZM43.0312 91.9688V137.531H21.375V91.9688H43.0312ZM46.4062 91.9688H51.75V137.531H46.4062V91.9688ZM88.875 97.5938H55.125V91.9688H88.875V97.5938ZM55.125 100.969H70.3125V118.406H66.501C66.0534 118.406 65.6242 118.584 65.3078 118.901C64.9913 119.217 64.8135 119.646 64.8135 120.094C64.8135 120.541 64.9913 120.971 65.3078 121.287C65.6242 121.604 66.0534 121.781 66.501 121.781H70.3125V137.531H55.125V100.969ZM73.6875 121.781H77.499C77.9466 121.781 78.3758 121.604 78.6922 121.287C79.0087 120.971 79.1865 120.541 79.1865 120.094C79.1865 119.646 79.0087 119.217 78.6922 118.901C78.3758 118.584 77.9466 118.406 77.499 118.406H73.6875V100.969H88.875V137.531H73.6875V121.781ZM92.25 91.9688H97.5938V137.531H92.25V91.9688ZM100.969 91.9688H122.625V137.531H100.969V91.9688ZM126 91.9688H134.719V137.531H126V91.9688ZM9.28125 73.9688H134.719V88.5938H9.28125V73.9688ZM9.28125 91.9688H18V137.531H9.28125V91.9688Z" fill="#3E61EE"/>
</svg>
