<svg viewBox="0 0 144 144" fill="none" xmlns="http://www.w3.org/2000/svg">
<path d="M12.9375 72C12.9375 36.1381 40.9053 6.81356 76.2188 4.635C74.8232 4.54894 73.4175 4.5 72 4.5C34.7209 4.5 4.5 34.7209 4.5 72C4.5 109.279 34.7209 139.5 72 139.5C73.4175 139.5 74.8232 139.451 76.2188 139.365C40.9053 137.186 12.9375 107.862 12.9375 72V72Z" fill="#3E61EE" fill-opacity="0.2"/>
<path d="M43.0029 99.2812C43.0029 99.7288 43.1807 100.158 43.4972 100.474C43.8137 100.791 44.2429 100.969 44.6904 100.969H52.2898C52.7374 100.969 53.1666 100.791 53.483 100.474C53.7995 100.158 53.9773 99.7288 53.9773 99.2812C53.9773 98.8337 53.7995 98.4045 53.483 98.088C53.1666 97.7715 52.7374 97.5938 52.2898 97.5938H44.6904C44.2429 97.5938 43.8137 97.7715 43.4972 98.088C43.1807 98.4045 43.0029 98.8337 43.0029 99.2812Z" fill="#3E61EE"/>
<path d="M38.5376 97.5938H33.1309C32.6833 97.5938 32.2541 97.7715 31.9376 98.088C31.6211 98.4045 31.4434 98.8337 31.4434 99.2812C31.4434 99.7288 31.6211 100.158 31.9376 100.474C32.2541 100.791 32.6833 100.969 33.1309 100.969H38.5382C38.9857 100.969 39.4149 100.791 39.7314 100.474C40.0479 100.158 40.2257 99.7288 40.2257 99.2812C40.2257 98.8337 40.0479 98.4045 39.7314 98.088C39.4149 97.7715 38.9857 97.5938 38.5382 97.5938H38.5376Z" fill="#3E61EE"/>
<path d="M28.1893 99.2812C28.1893 98.8337 28.0115 98.4045 27.6951 98.088C27.3786 97.7715 26.9494 97.5938 26.5018 97.5938H10.1865C9.73897 97.5938 9.30975 97.7715 8.99328 98.088C8.67681 98.4045 8.49902 98.8337 8.49902 99.2812C8.49902 99.7288 8.67681 100.158 8.99328 100.474C9.30975 100.791 9.73897 100.969 10.1865 100.969H26.5018C26.9494 100.969 27.3786 100.791 27.6951 100.474C28.0115 100.158 28.1893 99.7288 28.1893 99.2812V99.2812Z" fill="#3E61EE"/>
<path d="M84.3749 114.75H77.1299C76.6823 114.75 76.2531 114.928 75.9366 115.244C75.6202 115.561 75.4424 115.99 75.4424 116.438C75.4424 116.885 75.6202 117.314 75.9366 117.631C76.2531 117.947 76.6823 118.125 77.1299 118.125H84.3749C84.8224 118.125 85.2517 117.947 85.5681 117.631C85.8846 117.314 86.0624 116.885 86.0624 116.438C86.0624 115.99 85.8846 115.561 85.5681 115.244C85.2517 114.928 84.8224 114.75 84.3749 114.75Z" fill="#3E61EE"/>
<path d="M44.1789 118.125C44.6265 118.125 45.0557 117.947 45.3722 117.631C45.6887 117.314 45.8664 116.885 45.8664 116.438C45.8664 115.99 45.6887 115.561 45.3722 115.244C45.0557 114.928 44.6265 114.75 44.1789 114.75H44.0273C43.5798 114.75 43.1506 114.928 42.8341 115.244C42.5176 115.561 42.3398 115.99 42.3398 116.438C42.3398 116.885 42.5176 117.314 42.8341 117.631C43.1506 117.947 43.5798 118.125 44.0273 118.125H44.1789Z" fill="#3E61EE"/>
<path d="M38.0016 114.75H21.2607C20.8132 114.75 20.384 114.928 20.0675 115.244C19.751 115.561 19.5732 115.99 19.5732 116.438C19.5732 116.885 19.751 117.314 20.0675 117.631C20.384 117.947 20.8132 118.125 21.2607 118.125H38.0016C38.4491 118.125 38.8784 117.947 39.1948 117.631C39.5113 117.314 39.6891 116.885 39.6891 116.438C39.6891 115.99 39.5113 115.561 39.1948 115.244C38.8784 114.928 38.4491 114.75 38.0016 114.75Z" fill="#3E61EE"/>
<path d="M67.5002 132.188C67.1091 132.187 66.7299 132.322 66.4272 132.57C66.1246 132.817 65.9172 133.162 65.8405 133.546C65.7637 133.929 65.8224 134.328 66.0064 134.673C66.1905 135.018 66.4885 135.288 66.8497 135.438C67.211 135.588 67.613 135.608 67.9873 135.495C68.3617 135.382 68.6851 135.142 68.9025 134.817C69.1199 134.492 69.2178 134.101 69.1796 133.712C69.1413 133.323 68.9692 132.959 68.6927 132.683C68.3763 132.366 67.9475 132.188 67.5002 132.188V132.188Z" fill="#3E61EE"/>
<path d="M61.8746 132.188H44.9805C44.5329 132.188 44.1037 132.365 43.7872 132.682C43.4708 132.998 43.293 133.427 43.293 133.875C43.293 134.323 43.4708 134.752 43.7872 135.068C44.1037 135.385 44.5329 135.562 44.9805 135.562H61.8746C62.3221 135.562 62.7514 135.385 63.0678 135.068C63.3843 134.752 63.5621 134.323 63.5621 133.875C63.5621 133.427 63.3843 132.998 63.0678 132.682C62.7514 132.365 62.3221 132.188 61.8746 132.188Z" fill="#3E61EE"/>
<path d="M55.4065 83.5312C55.854 83.5312 56.2833 83.3535 56.5997 83.037C56.9162 82.7205 57.094 82.2913 57.094 81.8438C57.094 81.3962 56.9162 80.967 56.5997 80.6505C56.2833 80.334 55.854 80.1562 55.4065 80.1562H48.96C48.5124 80.1562 48.0832 80.334 47.7667 80.6505C47.4503 80.967 47.2725 81.3962 47.2725 81.8438C47.2725 82.2913 47.4503 82.7205 47.7667 83.037C48.0832 83.3535 48.5124 83.5312 48.96 83.5312H55.4065Z" fill="#3E61EE"/>
<path d="M14.416 81.8438C14.416 81.3962 14.2382 80.967 13.9217 80.6505C13.6053 80.334 13.1761 80.1562 12.7285 80.1562H5.20703C4.75948 80.1562 4.33026 80.334 4.01379 80.6505C3.69732 80.967 3.51953 81.3962 3.51953 81.8438C3.51953 82.2913 3.69732 82.7205 4.01379 83.037C4.33026 83.3535 4.75948 83.5312 5.20703 83.5312H12.7285C13.1761 83.5312 13.6053 83.3535 13.9217 83.037C14.2382 82.7205 14.416 82.2913 14.416 81.8438V81.8438Z" fill="#3E61EE"/>
<path d="M37.7097 62.7188H26.4375C25.9899 62.7188 25.5607 62.8965 25.2443 63.213C24.9278 63.5295 24.75 63.9587 24.75 64.4063C24.75 64.8538 24.9278 65.283 25.2443 65.5995C25.5607 65.916 25.9899 66.0938 26.4375 66.0938H37.7097C38.1573 66.0938 38.5865 65.916 38.903 65.5995C39.2194 65.283 39.3972 64.8538 39.3972 64.4063C39.3972 63.9587 39.2194 63.5295 38.903 63.213C38.5865 62.8965 38.1573 62.7188 37.7097 62.7188Z" fill="#3E61EE"/>
<path d="M50.9927 66.0938C51.4403 66.0938 51.8695 65.916 52.1859 65.5995C52.5024 65.283 52.6802 64.8538 52.6802 64.4063C52.6802 63.9587 52.5024 63.5295 52.1859 63.213C51.8695 62.8965 51.4403 62.7188 50.9927 62.7188H43.4395C42.9919 62.7188 42.5627 62.8965 42.2462 63.213C41.9297 63.5295 41.752 63.9587 41.752 64.4063C41.752 64.8538 41.9297 65.283 42.2462 65.5995C42.5627 65.916 42.9919 66.0938 43.4395 66.0938H50.9927Z" fill="#3E61EE"/>
<path d="M20.877 62.7188C20.4294 62.7188 20.0002 62.8965 19.6837 63.213C19.3672 63.5295 19.1895 63.9587 19.1895 64.4063C19.1895 64.8538 19.3672 65.283 19.6837 65.5995C20.0002 65.916 20.4294 66.0938 20.877 66.0938H20.9279C21.3754 66.0938 21.8046 65.916 22.1211 65.5995C22.4376 65.283 22.6154 64.8538 22.6154 64.4063C22.6154 63.9587 22.4376 63.5295 22.1211 63.213C21.8046 62.8965 21.3754 62.7188 20.9279 62.7188H20.877Z" fill="#3E61EE"/>
<path d="M4.91797 66.0938H14.8883C15.3358 66.0938 15.7651 65.916 16.0815 65.5995C16.398 65.283 16.5758 64.8538 16.5758 64.4063C16.5758 63.9587 16.398 63.5295 16.0815 63.213C15.7651 62.8965 15.3358 62.7188 14.8883 62.7188H4.91797C4.47042 62.7188 4.04119 62.8965 3.72473 63.213C3.40826 63.5295 3.23047 63.9587 3.23047 64.4063C3.23047 64.8538 3.40826 65.283 3.72473 65.5995C4.04119 65.916 4.47042 66.0938 4.91797 66.0938Z" fill="#3E61EE"/>
<path d="M61.7939 46.9688C61.7939 47.4163 61.9717 47.8455 62.2882 48.162C62.6047 48.4785 63.0339 48.6562 63.4814 48.6562H67.4999C67.9475 48.6562 68.3767 48.4785 68.6932 48.162C69.0097 47.8455 69.1874 47.4163 69.1874 46.9688C69.1874 46.5212 69.0097 46.092 68.6932 45.7755C68.3767 45.459 67.9475 45.2812 67.4999 45.2812H63.4814C63.0339 45.2812 62.6047 45.459 62.2882 45.7755C61.9717 46.092 61.7939 46.5212 61.7939 46.9688Z" fill="#3E61EE"/>
<path d="M57.3192 48.6562C57.7667 48.6562 58.196 48.4785 58.5124 48.162C58.8289 47.8455 59.0067 47.4163 59.0067 46.9688C59.0067 46.5212 58.8289 46.092 58.5124 45.7755C58.196 45.459 57.7667 45.2812 57.3192 45.2812H57.2686C56.821 45.2812 56.3918 45.459 56.0753 45.7755C55.7588 46.092 55.5811 46.5212 55.5811 46.9688C55.5811 47.4163 55.7588 47.8455 56.0753 48.162C56.3918 48.4785 56.821 48.6562 57.2686 48.6562H57.3192Z" fill="#3E61EE"/>
<path d="M18.96 48.6562H49.7312C50.1788 48.6562 50.608 48.4785 50.9245 48.162C51.2409 47.8455 51.4187 47.4163 51.4187 46.9688C51.4187 46.5212 51.2409 46.092 50.9245 45.7755C50.608 45.459 50.1788 45.2812 49.7312 45.2812H18.96C18.5124 45.2812 18.0832 45.459 17.7667 45.7755C17.4503 46.092 17.2725 46.5212 17.2725 46.9688C17.2725 47.4163 17.4503 47.8455 17.7667 48.162C18.0832 48.4785 18.5124 48.6562 18.96 48.6562V48.6562Z" fill="#3E61EE"/>
<path d="M9.24609 48.6562H13.3456C13.7931 48.6562 14.2224 48.4785 14.5388 48.162C14.8553 47.8455 15.0331 47.4163 15.0331 46.9688C15.0331 46.5212 14.8553 46.092 14.5388 45.7755C14.2224 45.459 13.7931 45.2812 13.3456 45.2812H9.24609C8.79854 45.2812 8.36932 45.459 8.05285 45.7755C7.73638 46.092 7.55859 46.5212 7.55859 46.9688C7.55859 47.4163 7.73638 47.8455 8.05285 48.162C8.36932 48.4785 8.79854 48.6562 9.24609 48.6562V48.6562Z" fill="#3E61EE"/>
<path d="M82.9687 31.5H83.0981C83.5457 31.5 83.9749 31.3222 84.2914 31.0057C84.6078 30.6893 84.7856 30.2601 84.7856 29.8125C84.7856 29.3649 84.6078 28.9357 84.2914 28.6193C83.9749 28.3028 83.5457 28.125 83.0981 28.125H82.9687C82.5212 28.125 82.092 28.3028 81.7755 28.6193C81.459 28.9357 81.2812 29.3649 81.2812 29.8125C81.2812 30.2601 81.459 30.6893 81.7755 31.0057C82.092 31.3222 82.5212 31.5 82.9687 31.5V31.5Z" fill="#3E61EE"/>
<path d="M68.8379 29.8125C68.8379 30.2601 69.0157 30.6893 69.3321 31.0057C69.6486 31.3222 70.0778 31.5 70.5254 31.5H78.2944C78.7419 31.5 79.1711 31.3222 79.4876 31.0057C79.8041 30.6893 79.9819 30.2601 79.9819 29.8125C79.9819 29.3649 79.8041 28.9357 79.4876 28.6193C79.1711 28.3028 78.7419 28.125 78.2944 28.125H70.5254C70.0778 28.125 69.6486 28.3028 69.3321 28.6193C69.0157 28.9357 68.8379 29.3649 68.8379 29.8125V29.8125Z" fill="#3E61EE"/>
<path d="M64.5748 31.5C65.0224 31.5 65.4516 31.3222 65.768 31.0057C66.0845 30.6893 66.2623 30.2601 66.2623 29.8125C66.2623 29.3649 66.0845 28.9357 65.768 28.6193C65.4516 28.3028 65.0224 28.125 64.5748 28.125H64.3779C63.9304 28.125 63.5012 28.3028 63.1847 28.6193C62.8682 28.9357 62.6904 29.3649 62.6904 29.8125C62.6904 30.2601 62.8682 30.6893 63.1847 31.0057C63.5012 31.3222 63.9304 31.5 64.3779 31.5H64.5748Z" fill="#3E61EE"/>
<path d="M19.4062 31.5H27.5737C28.0213 31.5 28.4505 31.3222 28.767 31.0057C29.0835 30.6893 29.2612 30.2601 29.2612 29.8125C29.2612 29.3649 29.0835 28.9357 28.767 28.6193C28.4505 28.3028 28.0213 28.125 27.5737 28.125H19.4062C18.9587 28.125 18.5295 28.3028 18.213 28.6193C17.8965 28.9357 17.7188 29.3649 17.7188 29.8125C17.7188 30.2601 17.8965 30.6893 18.213 31.0057C18.5295 31.3222 18.9587 31.5 19.4062 31.5V31.5Z" fill="#3E61EE"/>
<path d="M82.9689 14.0625H82.9799C83.4284 14.0611 83.8581 13.8817 84.1745 13.5637C84.4909 13.2457 84.6682 12.8152 84.6675 12.3667C84.6668 11.9181 84.4881 11.4881 84.1706 11.1712C83.8532 10.8543 83.4229 10.6763 82.9744 10.6763C82.5258 10.6763 82.0956 10.8543 81.7781 11.1712C81.4607 11.4881 81.282 11.9181 81.2813 12.3667C81.2805 12.8152 81.4578 13.2457 81.7742 13.5637C82.0907 13.8817 82.5203 14.0611 82.9689 14.0625V14.0625Z" fill="#3E61EE"/>
<path d="M76.8373 14.0625C77.2848 14.0625 77.714 13.8847 78.0305 13.5682C78.347 13.2518 78.5248 12.8226 78.5248 12.375C78.5248 11.9274 78.347 11.4982 78.0305 11.1818C77.714 10.8653 77.2848 10.6875 76.8373 10.6875H76.7402C76.2927 10.6875 75.8635 10.8653 75.547 11.1818C75.2305 11.4982 75.0527 11.9274 75.0527 12.375C75.0527 12.8226 75.2305 13.2518 75.547 13.5682C75.8635 13.8847 76.2927 14.0625 76.7402 14.0625H76.8373Z" fill="#3E61EE"/>
<path d="M70.5373 10.6875H40.3311C39.8835 10.6875 39.4543 10.8653 39.1378 11.1818C38.8213 11.4982 38.6436 11.9274 38.6436 12.375C38.6436 12.8226 38.8213 13.2518 39.1378 13.5682C39.4543 13.8847 39.8835 14.0625 40.3311 14.0625H70.5373C70.9849 14.0625 71.4141 13.8847 71.7305 13.5682C72.047 13.2518 72.2248 12.8226 72.2248 12.375C72.2248 11.9274 72.047 11.4982 71.7305 11.1818C71.4141 10.8653 70.9849 10.6875 70.5373 10.6875V10.6875Z" fill="#3E61EE"/>
<path d="M25.4355 81.5362C25.7067 80.4767 26.3435 79.547 27.2336 78.9114C28.1236 78.2759 29.2097 77.9753 30.2999 78.0627C31.3901 78.1502 32.4143 78.6202 33.1916 79.3895C33.9689 80.1589 34.4494 81.1782 34.548 82.2675C34.5859 82.6868 34.779 83.0768 35.0896 83.3609C35.4002 83.6451 35.8058 83.8029 36.2268 83.8034C36.2777 83.8034 36.3289 83.8009 36.3807 83.7964C36.8264 83.7561 37.2379 83.5404 37.5246 83.1968C37.8113 82.8532 37.9498 82.4097 37.9095 81.964C37.7392 80.082 36.9093 78.3207 35.5663 76.9913C34.2233 75.6618 32.4537 74.8498 30.57 74.6986C28.6864 74.5473 26.8099 75.0667 25.272 76.1648C23.7341 77.263 22.6338 78.8693 22.1655 80.7001C22.0587 81.1323 22.1271 81.5892 22.3557 81.9712C22.5843 82.3533 22.9546 82.6295 23.3859 82.7397C23.8172 82.8499 24.2747 82.7852 24.6585 82.5597C25.0424 82.3342 25.3216 81.9661 25.4353 81.5357L25.4355 81.5362Z" fill="#3E61EE"/>
<path d="M29.9384 90.6973C30.175 90.6973 30.4123 90.6866 30.6503 90.665C30.8723 90.6468 31.0885 90.5847 31.2864 90.4825C31.4843 90.3803 31.66 90.24 31.8034 90.0695C31.9468 89.899 32.055 89.7019 32.1219 89.4894C32.1887 89.2769 32.2128 89.0533 32.1927 88.8314C32.1727 88.6096 32.109 88.3939 32.0052 88.1968C31.9014 87.9997 31.7596 87.8251 31.588 87.6831C31.4163 87.5411 31.2183 87.4345 31.0053 87.3694C30.7923 87.3043 30.5685 87.282 30.3468 87.3038C29.4711 87.3805 28.5915 87.2079 27.8096 86.806C27.0278 86.4041 26.3756 85.7892 25.9283 85.0324C25.8176 84.8384 25.6694 84.6683 25.4924 84.532C25.3154 84.3958 25.113 84.296 24.8972 84.2385C24.6813 84.181 24.4561 84.1669 24.2348 84.1971C24.0134 84.2273 23.8003 84.3012 23.6077 84.4144C23.4151 84.5276 23.2469 84.678 23.1129 84.8567C22.9788 85.0354 22.8816 85.239 22.8269 85.4556C22.7721 85.6722 22.7609 85.8975 22.7939 86.1184C22.8269 86.3394 22.9034 86.5516 23.0191 86.7427C23.7305 87.9453 24.7424 88.9422 25.9555 89.6356C27.1686 90.3289 28.5412 90.6948 29.9384 90.6973V90.6973Z" fill="#3E61EE"/>
<path d="M64.2351 120.079C64.067 120.224 63.9291 120.4 63.8291 120.598C63.7292 120.795 63.6692 121.011 63.6525 121.232C63.6359 121.453 63.663 121.675 63.7322 121.886C63.8014 122.096 63.9114 122.291 64.0559 122.459C64.2004 122.627 64.3766 122.765 64.5745 122.865C64.7723 122.965 64.9879 123.025 65.2089 123.042C65.4299 123.058 65.6521 123.031 65.8626 122.962C66.0732 122.893 66.2681 122.783 66.4361 122.638C67.8684 121.406 68.819 119.707 69.12 117.841C69.421 115.975 69.0531 114.064 68.0811 112.443C67.1092 110.822 65.5958 109.598 63.8083 108.985C62.0207 108.372 60.0741 108.41 58.3122 109.093C58.1034 109.172 57.9123 109.291 57.7498 109.444C57.5874 109.597 57.4568 109.78 57.3658 109.984C57.2747 110.187 57.2249 110.407 57.2193 110.63C57.2137 110.853 57.2523 111.075 57.333 111.283C57.4137 111.491 57.5348 111.681 57.6893 111.842C57.8439 112.003 58.0288 112.131 58.2334 112.22C58.4379 112.309 58.6581 112.357 58.8812 112.36C59.1042 112.363 59.3257 112.322 59.5328 112.24C60.5527 111.844 61.6794 111.822 62.714 112.177C63.7486 112.532 64.6246 113.241 65.1872 114.179C65.7497 115.117 65.9627 116.223 65.7885 117.303C65.6143 118.383 65.0641 119.366 64.2351 120.08V120.079Z" fill="#3E61EE"/>
<path d="M56.417 122.376C56.7399 122.375 57.0559 122.283 57.3277 122.108C57.5994 121.934 57.8154 121.685 57.9499 121.391C58.0845 121.098 58.132 120.772 58.0869 120.452C58.0418 120.132 57.9058 119.832 57.6952 119.587C57.124 118.919 56.7533 118.103 56.6259 117.234C56.4985 116.364 56.6196 115.476 56.9752 114.672C57.1573 114.263 57.1696 113.799 57.0093 113.381C56.849 112.963 56.5292 112.626 56.1204 112.444C55.7115 112.262 55.2471 112.25 54.8292 112.41C54.4114 112.57 54.0743 112.89 53.8922 113.299C53.278 114.687 53.069 116.221 53.2893 117.723C53.5095 119.225 54.1501 120.635 55.137 121.789C55.2953 121.973 55.4917 122.121 55.7126 122.222C55.9336 122.324 56.1739 122.376 56.417 122.376V122.376Z" fill="#3E61EE"/>
<path d="M58.6002 61.6349C58.1771 61.4892 57.7135 61.5175 57.3113 61.7136C56.9091 61.9097 56.6012 62.2576 56.4554 62.6806C55.8408 64.4673 55.8772 66.4137 56.5583 68.1762C57.2393 69.9386 58.5213 71.4037 60.1777 72.3127C61.8341 73.2218 63.7584 73.5163 65.6109 73.1443C67.4634 72.7723 69.1249 71.7577 70.3019 70.2797C70.5765 69.9291 70.7014 69.4841 70.6493 69.0418C70.5972 68.5996 70.3724 68.1958 70.0239 67.9186C69.6753 67.6413 69.2314 67.5131 68.7887 67.5618C68.346 67.6106 67.9406 67.8323 67.6607 68.1788C66.9797 69.0353 66.0178 69.6236 64.945 69.8395C63.8722 70.0554 62.7576 69.885 61.7983 69.3585C60.839 68.832 60.0967 67.9833 59.7027 66.9624C59.3086 65.9415 59.2882 64.8142 59.6451 63.7797C59.7908 63.3567 59.7626 62.8932 59.5667 62.491C59.3707 62.0888 59.0231 61.7809 58.6002 61.6349V61.6349Z" fill="#3E61EE"/>
<path d="M71.9968 64.4179C71.8269 62.9091 71.2339 61.4792 70.2861 60.2931C69.3383 59.107 68.0745 58.2131 66.6404 57.7146C66.2172 57.5688 65.7535 57.5971 65.3512 57.7933C64.949 57.9894 64.6411 58.3374 64.4953 58.7605C64.3496 59.1837 64.3779 59.6474 64.574 60.0497C64.7702 60.452 65.1181 60.7599 65.5413 60.9056C66.3715 61.1943 67.1032 61.7119 67.652 62.3987C68.2007 63.0854 68.544 63.9134 68.6423 64.7869C68.6638 65.0093 68.7293 65.2253 68.8349 65.4222C68.9406 65.6192 69.0843 65.7932 69.2577 65.9341C69.4311 66.0751 69.6308 66.1802 69.8452 66.2433C70.0596 66.3065 70.2844 66.3264 70.5065 66.302C70.7287 66.2776 70.9438 66.2092 71.1393 66.101C71.3348 65.9928 71.5069 65.8468 71.6456 65.6715C71.7842 65.4962 71.8867 65.2951 71.9469 65.0799C72.0072 64.8647 72.0242 64.6397 71.9968 64.4179V64.4179Z" fill="#3E61EE"/>
<path d="M51.834 33.7784C52.0513 33.8219 52.2751 33.8221 52.4925 33.7791C52.7099 33.736 52.9167 33.6506 53.1011 33.5276C53.2855 33.4047 53.4438 33.2466 53.5671 33.0625C53.6904 32.8783 53.7762 32.6716 53.8196 32.4543C54.1898 30.6011 53.893 28.6767 52.9817 27.0211C52.0705 25.3655 50.6035 24.0852 48.8398 23.4064C47.0761 22.7276 45.1292 22.6939 43.3431 23.3114C41.557 23.9289 40.0466 25.1578 39.0788 26.7809C38.9653 26.9713 38.8905 27.1821 38.8585 27.4014C38.8265 27.6207 38.838 27.8442 38.8924 28.059C38.9468 28.2738 39.0429 28.4759 39.1754 28.6535C39.3078 28.8312 39.474 28.981 39.6643 29.0945C39.8547 29.208 40.0655 29.2828 40.2848 29.3148C40.5041 29.3468 40.7276 29.3353 40.9424 29.2809C41.1572 29.2265 41.3592 29.1303 41.5369 28.9979C41.7146 28.8654 41.8644 28.6993 41.9779 28.5089C42.5375 27.5681 43.4118 26.8555 44.4462 26.4972C45.4806 26.1389 46.6084 26.158 47.63 26.5511C48.6517 26.9442 49.5014 27.6859 50.0288 28.6452C50.5563 29.6044 50.7275 30.7192 50.5122 31.7925C50.4243 32.2312 50.5141 32.6867 50.762 33.0591C51.0099 33.4315 51.3955 33.6902 51.834 33.7784V33.7784Z" fill="#3E61EE"/>
<path d="M38.1867 32.8166C38.5575 34.2888 39.3371 35.6262 40.4354 36.6744C41.5337 37.7226 42.906 38.4388 44.3939 38.7405C44.6121 38.7861 44.837 38.7879 45.0559 38.746C45.2747 38.7042 45.4831 38.6193 45.669 38.4965C45.8549 38.3737 46.0146 38.2152 46.139 38.0303C46.2633 37.8454 46.3498 37.6377 46.3935 37.4192C46.4371 37.2007 46.4371 36.9758 46.3933 36.7573C46.3496 36.5388 46.263 36.3311 46.1386 36.1463C46.0141 35.9615 45.8543 35.8031 45.6684 35.6803C45.4824 35.5576 45.274 35.4728 45.0552 35.4311C44.1936 35.2561 43.399 34.8412 42.7632 34.2341C42.1274 33.6269 41.6761 32.8524 41.4616 31.9998C41.4094 31.7834 41.3148 31.5795 41.1834 31.3998C41.052 31.2201 40.8863 31.0682 40.6959 30.9528C40.5055 30.8375 40.2942 30.7609 40.0741 30.7275C39.854 30.6942 39.6295 30.7047 39.4135 30.7585C39.1974 30.8123 38.9942 30.9083 38.8155 31.041C38.6367 31.1737 38.486 31.3404 38.372 31.5316C38.2579 31.7228 38.1829 31.9347 38.1511 32.155C38.1193 32.3754 38.1314 32.5998 38.1867 32.8154V32.8166Z" fill="#3E61EE"/>
<path d="M76.0237 60.0847C75.8514 59.673 75.523 59.3464 75.1104 59.1762C74.6978 59.0061 74.2346 59.0064 73.8222 59.1769C73.4098 59.3475 73.0817 59.6745 72.9098 60.0863C72.7379 60.4982 72.7361 60.9614 72.9049 61.3745C73.7635 63.4515 73.8605 65.7652 73.1786 67.9067C72.4968 70.0483 71.08 71.88 69.1785 73.0782C67.2771 74.2764 65.0133 74.7641 62.7872 74.455C60.561 74.146 58.5157 73.0601 57.0126 71.3892C56.8651 71.222 56.6859 71.0857 56.4854 70.9881C56.2849 70.8906 56.0671 70.8337 55.8445 70.8209C55.6219 70.808 55.3989 70.8394 55.1885 70.9132C54.9781 70.987 54.7844 71.1017 54.6186 71.2508C54.4529 71.3999 54.3183 71.5804 54.2226 71.7818C54.127 71.9833 54.0723 72.2016 54.0615 72.4244C54.0508 72.6471 54.0843 72.8697 54.1601 73.0794C54.236 73.2891 54.3526 73.4816 54.5033 73.646C56.5387 75.9086 59.3083 77.379 62.3229 77.7975C65.3374 78.216 68.4028 77.5556 70.9776 75.9331C73.5524 74.3105 75.471 71.8302 76.3943 68.9302C77.3177 66.0302 77.1864 62.8973 76.0237 60.0847Z" fill="#3E61EE"/>
<path d="M55.3433 57.8067C55.4915 57.9715 55.6707 58.1055 55.8707 58.201C56.0707 58.2966 56.2875 58.3518 56.5088 58.3635C56.7301 58.3752 56.9516 58.3432 57.1605 58.2694C57.3695 58.1955 57.5619 58.0812 57.7266 57.933C59.0729 56.7292 60.7321 55.9306 62.5128 55.6294C64.2935 55.3283 66.1231 55.5367 67.7903 56.2308C67.9948 56.3173 68.2144 56.3625 68.4364 56.3639C68.6584 56.3653 68.8785 56.3229 69.0841 56.2391C69.2897 56.1553 69.4767 56.0318 69.6345 55.8756C69.7922 55.7193 69.9176 55.5335 70.0035 55.3288C70.0893 55.124 70.1339 54.9044 70.1346 54.6823C70.1354 54.4603 70.0924 54.2403 70.008 54.035C69.9236 53.8296 69.7995 53.643 69.6429 53.4857C69.4862 53.3283 69.3 53.2035 69.095 53.1183C66.8376 52.1788 64.3605 51.8968 61.9496 52.3049C59.5388 52.713 57.2924 53.7944 55.4699 55.4245C55.1374 55.7237 54.9372 56.1427 54.9135 56.5894C54.8898 57.0361 55.0444 57.4739 55.3433 57.8067V57.8067Z" fill="#3E61EE"/>
<path d="M73.0472 118.666C72.8367 118.597 72.6146 118.57 72.3936 118.586C72.1725 118.603 71.9569 118.663 71.7591 118.763C71.5612 118.863 71.385 119 71.2404 119.168C71.0958 119.336 70.9857 119.531 70.9165 119.742C70.197 121.925 68.729 123.784 66.7718 124.991C64.8146 126.197 62.4941 126.673 60.2202 126.334C57.9462 125.995 55.8651 124.864 54.3445 123.139C52.8238 121.415 51.9614 119.209 51.9096 116.91C51.9047 116.689 51.8561 116.47 51.7667 116.268C51.6773 116.065 51.5489 115.881 51.3887 115.728C51.2285 115.575 51.0397 115.455 50.8331 115.375C50.6264 115.294 50.406 115.256 50.1844 115.261C49.9628 115.266 49.7443 115.314 49.5415 115.404C49.3387 115.493 49.1554 115.621 49.0022 115.782C48.849 115.942 48.7289 116.131 48.6486 116.337C48.5684 116.544 48.5297 116.764 48.5346 116.986C48.611 120.413 50.0258 123.675 52.4762 126.073C54.9266 128.47 58.2181 129.814 61.6465 129.816C61.7462 129.816 61.8463 129.815 61.9466 129.813C64.6582 129.749 67.2838 128.849 69.4637 127.235C71.6435 125.621 73.2708 123.372 74.1224 120.797C74.1918 120.587 74.2189 120.364 74.2024 120.143C74.1859 119.922 74.126 119.707 74.0262 119.509C73.9263 119.311 73.7885 119.135 73.6205 118.99C73.4526 118.846 73.2577 118.736 73.0472 118.666V118.666Z" fill="#3E61EE"/>
<path d="M71.8898 113.273C72.1774 113.273 72.4602 113.199 72.7113 113.059C72.9624 112.918 73.1735 112.716 73.3246 112.472C73.4757 112.227 73.5617 111.948 73.5746 111.66C73.5874 111.373 73.5265 111.087 73.3978 110.83C72.28 108.609 70.5569 106.749 68.4273 105.465C66.2977 104.181 63.8485 103.525 61.3623 103.574C61.1407 103.579 60.9222 103.627 60.7194 103.717C60.5165 103.806 60.3333 103.934 60.18 104.095C60.0268 104.255 59.9067 104.444 59.8264 104.65C59.7462 104.857 59.7074 105.077 59.7123 105.299C59.7173 105.52 59.7658 105.739 59.8552 105.942C59.9445 106.145 60.073 106.328 60.2331 106.481C60.3933 106.634 60.5821 106.754 60.7887 106.835C60.9954 106.915 61.2158 106.954 61.4374 106.949C63.2847 106.912 65.1049 107.398 66.6872 108.352C68.2696 109.307 69.5496 110.689 70.3792 112.34C70.5194 112.621 70.7351 112.856 71.0019 113.021C71.2687 113.186 71.5762 113.273 71.8898 113.273V113.273Z" fill="#3E61EE"/>
<path d="M18.9171 89.4276C19.0297 89.6191 19.179 89.7864 19.3564 89.9201C19.5338 90.0537 19.7358 90.1511 19.951 90.2065C20.1661 90.2618 20.39 90.2742 20.6099 90.2429C20.8298 90.2115 21.0413 90.1371 21.2324 90.0238C21.4235 89.9105 21.5903 89.7606 21.7233 89.5827C21.8563 89.4048 21.9529 89.2024 22.0075 88.9871C22.0621 88.7718 22.0737 88.5478 22.0415 88.3281C22.0094 88.1083 21.9341 87.897 21.8202 87.7063C20.6899 85.7993 20.27 83.5541 20.6346 81.3674C20.9993 79.1808 22.1251 77.1934 23.813 75.7563C25.501 74.3192 27.6426 73.525 29.8594 73.5139C32.0762 73.5028 34.2256 74.2755 35.928 75.6956C36.2722 75.9774 36.7137 76.1119 37.1566 76.0698C37.5994 76.0277 38.0078 75.8125 38.2928 75.4709C38.5777 75.1293 38.7163 74.689 38.6783 74.2458C38.6403 73.8025 38.4289 73.3922 38.0899 73.1041C35.7764 71.1743 32.8552 70.1242 29.8425 70.1393C26.8297 70.1545 23.9193 71.234 21.6253 73.187C19.3313 75.1401 17.8014 77.8411 17.3059 80.8128C16.8103 83.7846 17.381 86.8358 18.9171 89.4276V89.4276Z" fill="#3E61EE"/>
<path d="M26.6908 95.2759C27.7309 95.5459 28.8011 95.6823 29.8756 95.6821C31.7513 95.6824 33.6042 95.2719 35.3042 94.4794C37.0042 93.6869 38.51 92.5317 39.7157 91.0949C39.8601 90.925 39.9694 90.7283 40.0373 90.5159C40.1052 90.3036 40.1303 90.08 40.1113 89.8579C40.0923 89.6358 40.0294 89.4196 39.9264 89.222C39.8233 89.0243 39.6822 88.849 39.511 88.7062C39.3398 88.5634 39.1421 88.4559 38.9291 88.39C38.7162 88.324 38.4923 88.3009 38.2704 88.322C38.0485 88.3431 37.8329 88.4079 37.6362 88.5128C37.4395 88.6176 37.2655 88.7604 37.1243 88.9329C35.9791 90.2973 34.4715 91.3101 32.7755 91.8544C31.0794 92.3987 29.264 92.4524 27.5387 92.0092C27.324 91.9527 27.1002 91.9392 26.8801 91.9693C26.6601 91.9995 26.4482 92.0728 26.2566 92.185C26.065 92.2973 25.8974 92.4462 25.7634 92.6233C25.6295 92.8004 25.5318 93.0023 25.476 93.2172C25.4202 93.4322 25.4074 93.656 25.4383 93.8759C25.4692 94.0958 25.5432 94.3075 25.656 94.4987C25.7689 94.69 25.9184 94.8571 26.0959 94.9905C26.2735 95.1238 26.4756 95.2209 26.6908 95.2759V95.2759Z" fill="#3E61EE"/>
<path d="M44.2732 44.674C44.918 44.7619 45.5681 44.806 46.2189 44.8061C49.41 44.7984 52.5062 43.7193 55.0108 41.7419C57.5155 39.7645 59.2836 37.0032 60.0316 33.901C60.7796 30.7987 60.4641 27.5351 59.1359 24.6335C57.8076 21.7319 55.5435 19.3604 52.7065 17.8992C52.5094 17.7977 52.2943 17.736 52.0734 17.7177C51.8525 17.6994 51.6301 17.7247 51.4191 17.7923C51.208 17.8599 51.0123 17.9685 50.8431 18.1117C50.674 18.255 50.5347 18.4302 50.4333 18.6272C50.3319 18.8243 50.2702 19.0395 50.252 19.2604C50.2337 19.4813 50.2592 19.7036 50.3268 19.9147C50.3945 20.1258 50.5031 20.3214 50.6464 20.4905C50.7898 20.6596 50.965 20.7988 51.1621 20.9002C53.4408 22.0731 55.2316 24.0136 56.2181 26.379C57.2047 28.7443 57.3235 31.3822 56.5535 33.8267C55.7836 36.2711 54.1744 38.3648 52.0104 39.7377C49.8463 41.1107 47.2667 41.6746 44.7271 41.3299C44.5063 41.2973 44.2811 41.3088 44.0647 41.3638C43.8483 41.4188 43.645 41.5162 43.4666 41.6503C43.2881 41.7845 43.138 41.9527 43.025 42.1453C42.912 42.3378 42.8384 42.5509 42.8083 42.7721C42.7783 42.9934 42.7924 43.2184 42.85 43.4341C42.9075 43.6498 43.0073 43.852 43.1435 44.0289C43.2797 44.2058 43.4497 44.3539 43.6435 44.4646C43.8374 44.5753 44.0513 44.6465 44.2729 44.674H44.2732Z" fill="#3E61EE"/>
<path d="M32.0788 28.6476C32.049 28.8672 32.0627 29.0905 32.1192 29.3048C32.1757 29.5191 32.2738 29.7201 32.408 29.8965C32.5422 30.0729 32.7098 30.2211 32.9013 30.3327C33.0927 30.4443 33.3043 30.517 33.5239 30.5469C33.5999 30.5572 33.6764 30.5625 33.7531 30.5626C34.161 30.5621 34.5549 30.4139 34.8619 30.1454C35.1689 29.8769 35.3683 29.5062 35.4232 29.1021C35.7061 27.0624 36.56 25.1444 37.8863 23.5692C39.2125 21.994 40.9571 20.8259 42.9188 20.1997C43.1314 20.134 43.3289 20.0269 43.5 19.8845C43.6711 19.7421 43.8123 19.5673 43.9155 19.3702C44.0187 19.173 44.082 18.9574 44.1015 18.7357C44.1211 18.514 44.0966 18.2907 44.0295 18.0785C43.9623 17.8663 43.8539 17.6695 43.7104 17.4994C43.5669 17.3292 43.3912 17.1892 43.1934 17.0873C42.9955 16.9854 42.7795 16.9236 42.5577 16.9055C42.3359 16.8874 42.1127 16.9134 41.9009 16.9819C39.3304 17.8025 37.0442 19.3331 35.3063 21.3972C33.5684 23.4614 32.4495 25.9748 32.0788 28.6476V28.6476Z" fill="#3E61EE"/>
<path d="M85.2188 62.7188H80.7188C80.2712 62.7188 79.842 62.8965 79.5255 63.213C79.209 63.5295 79.0312 63.9587 79.0312 64.4063C79.0312 64.8538 79.209 65.283 79.5255 65.5995C79.842 65.916 80.2712 66.0938 80.7188 66.0938H85.2188C85.6663 66.0938 86.0955 65.916 86.412 65.5995C86.7285 65.283 86.9062 64.8538 86.9062 64.4063C86.9062 63.9587 86.7285 63.5295 86.412 63.213C86.0955 62.8965 85.6663 62.7188 85.2188 62.7188Z" fill="#3E61EE"/>
<path d="M71.9999 2.81276C58.3159 2.81279 44.9392 6.87058 33.5614 14.473C22.1836 22.0754 13.3157 32.881 8.07911 45.5234C2.84248 58.1657 1.47234 72.077 4.14194 85.498C6.81154 98.9191 13.401 111.247 23.077 120.923C36.0523 133.898 53.6506 141.188 72.0004 141.188C90.3503 141.188 107.949 133.898 120.924 120.923C133.899 107.948 141.189 90.3495 141.189 71.9997C141.189 53.6499 133.899 36.0516 120.924 23.0763C114.514 16.6315 106.889 11.5221 98.4917 8.04385C90.0938 4.56561 81.0895 2.78761 71.9999 2.81276V2.81276ZM118.536 118.537C106.194 130.879 89.4544 137.813 71.9999 137.813C54.5453 137.813 37.8057 130.879 25.4634 118.537C13.1212 106.194 6.18737 89.4548 6.18737 72.0003C6.18737 54.5457 13.1212 37.806 25.4634 25.4638C37.8057 13.1216 54.5453 6.18776 71.9999 6.18776C89.4544 6.18776 106.194 13.1216 118.536 25.4638C130.879 37.806 137.812 54.5457 137.812 72.0003C137.812 89.4548 130.879 106.194 118.536 118.537V118.537Z" fill="#17E5C3"/>
</svg>
