<svg viewBox="0 0 144 144" fill="none" xmlns="http://www.w3.org/2000/svg">
<path d="M72.3824 9.42218C72.7473 8.27249 73.3391 7.20763 74.1226 6.29056C74.9061 5.37349 75.8656 4.62282 76.9443 4.08293C75.6335 3.43133 74.1893 3.09283 72.7255 3.09406C70.7769 3.06826 68.8716 3.66939 67.2907 4.80878C65.7097 5.94817 64.5368 7.56549 63.9449 9.42218C60.5699 19.5472 58.8486 21.8253 58.8486 32.4959V85.7816H67.2861V32.4959C67.2861 21.8253 69.0074 19.5472 72.3824 9.42218V9.42218Z" fill="#3E61EE" fill-opacity="0.2"/>
<path d="M129.765 133.663C128.185 132.276 126.177 131.475 124.077 131.394C124.002 129.853 123.572 128.351 122.82 127.005C122.069 125.658 121.015 124.504 119.743 123.632C118.471 122.761 117.014 122.196 115.487 121.981C113.96 121.767 112.404 121.909 110.94 122.396C110.561 121.151 109.904 120.009 109.019 119.054C108.135 118.1 107.045 117.358 105.833 116.885C104.621 116.412 103.317 116.22 102.02 116.323C100.723 116.427 99.466 116.822 98.3438 117.481C97.5855 116.343 96.4824 115.477 95.1962 115.012C93.9101 114.547 92.5087 114.506 91.1978 114.896C89.8868 115.286 88.7354 116.086 87.9124 117.178C87.0894 118.271 86.6383 119.598 86.6252 120.966V124.643C86.6252 125.65 86.2252 126.616 85.5131 127.328C84.8011 128.04 83.8353 128.44 82.8283 128.44C81.8213 128.44 80.8556 128.04 80.1435 127.328C79.4315 126.616 79.0315 125.65 79.0315 124.643V86.0625H75.6565V124.644C75.6565 126.546 76.4121 128.37 77.757 129.715C79.102 131.06 80.9262 131.816 82.8283 131.816C84.7304 131.816 86.5546 131.06 87.8996 129.715C89.2446 128.37 90.0002 126.546 90.0002 124.644V120.966C90.0098 120.281 90.2531 119.62 90.6896 119.093C91.1262 118.566 91.7299 118.203 92.4006 118.066C93.0713 117.929 93.7688 118.025 94.3774 118.338C94.986 118.652 95.4693 119.164 95.747 119.79C95.4213 120.23 95.1388 120.701 94.9032 121.196C94.7148 121.6 94.6935 122.062 94.8439 122.482C94.9943 122.901 95.3043 123.245 95.7065 123.437C96.1087 123.629 96.5706 123.655 96.9916 123.509C97.4127 123.362 97.7589 123.055 97.9551 122.655C98.1883 122.17 98.4946 121.723 98.8632 121.331C99.3527 120.805 99.9459 120.386 100.605 120.1C101.265 119.814 101.977 119.669 102.695 119.672C103.934 119.676 105.132 120.118 106.078 120.918C107.024 121.719 107.657 122.827 107.866 124.048C107.631 124.234 107.401 124.428 107.182 124.636C107.015 124.787 106.88 124.969 106.785 125.173C106.69 125.377 106.637 125.598 106.628 125.823C106.62 126.048 106.656 126.272 106.735 126.483C106.815 126.693 106.936 126.886 107.091 127.049C107.245 127.212 107.431 127.343 107.638 127.433C107.844 127.523 108.066 127.571 108.291 127.574C108.516 127.577 108.739 127.535 108.948 127.451C109.156 127.367 109.346 127.241 109.505 127.083C110.445 126.189 111.627 125.59 112.904 125.36C114.18 125.131 115.496 125.28 116.689 125.79C117.882 126.301 118.899 127.149 119.615 128.231C120.33 129.313 120.713 130.581 120.716 131.878C118.981 132.469 117.462 133.563 116.351 135.02C116.085 135.376 115.971 135.822 116.033 136.262C116.094 136.702 116.327 137.1 116.68 137.369C117.033 137.639 117.479 137.758 117.919 137.701C118.36 137.645 118.76 137.417 119.034 137.067C119.662 136.244 120.497 135.602 121.453 135.207C122.41 134.811 123.454 134.676 124.48 134.815C125.505 134.954 126.476 135.362 127.293 135.998C128.11 136.634 128.744 137.474 129.131 138.434L14.4691 139.209C14.4433 137.913 14.7973 136.638 15.4873 135.541C16.1772 134.444 17.1731 133.573 18.3521 133.035C19.5311 132.498 20.8418 132.317 22.1224 132.515C23.4031 132.713 24.5978 133.281 25.5594 134.15C25.8917 134.45 26.3296 134.605 26.7766 134.582C27.2236 134.559 27.6431 134.359 27.9428 134.027C28.2426 133.694 28.398 133.257 28.3749 132.81C28.3518 132.363 28.1521 131.943 27.8198 131.643C27.5658 131.416 27.3004 131.202 27.0247 131.002C27.5488 130.604 28.1643 130.344 28.8148 130.246C29.4654 130.148 30.1301 130.215 30.7481 130.441C31.3661 130.666 31.9175 131.043 32.3519 131.538C32.7863 132.032 33.0898 132.627 33.2344 133.269C33.3329 133.705 33.6007 134.085 33.9791 134.324C34.3574 134.563 34.8152 134.642 35.2518 134.544C35.6884 134.445 36.068 134.177 36.3071 133.799C36.5462 133.421 36.6252 132.963 36.5267 132.526C36.1891 131.023 35.3823 129.666 34.223 128.652L34.1735 127.523C34.182 125.948 34.7502 124.427 35.7767 123.232C36.8031 122.038 38.2209 121.247 39.7768 121.001C41.3327 120.755 42.9252 121.071 44.2699 121.891C45.6146 122.711 46.6239 123.983 47.1175 125.479C47.2575 125.904 47.5607 126.256 47.9604 126.457C48.3601 126.659 48.8235 126.694 49.2486 126.554C49.6738 126.414 50.0259 126.11 50.2275 125.711C50.4292 125.311 50.4637 124.848 50.3237 124.422C50.1709 123.96 49.9847 123.508 49.7666 123.072C49.9046 122.382 50.2938 121.767 50.8588 121.346C51.4238 120.926 52.1246 120.73 52.8259 120.796C53.5271 120.862 54.1789 121.185 54.6556 121.704C55.1322 122.222 55.3997 122.899 55.4065 123.603V124.644C55.4065 125.586 55.592 126.519 55.9524 127.389C56.3128 128.259 56.8411 129.049 57.507 129.715C58.173 130.381 58.9636 130.91 59.8338 131.27C60.7039 131.63 61.6365 131.816 62.5783 131.816C63.5202 131.816 64.4528 131.63 65.3229 131.27C66.193 130.91 66.9836 130.381 67.6496 129.715C68.3156 129.049 68.8439 128.259 69.2043 127.389C69.5647 126.519 69.7502 125.586 69.7502 124.644V86.0625H66.3752V124.644C66.3752 125.651 65.9752 126.617 65.2631 127.329C64.5511 128.041 63.5853 128.441 62.5783 128.441C61.5713 128.441 60.6056 128.041 59.8935 127.329C59.1815 126.617 58.7815 125.651 58.7815 124.644V123.603C58.777 122.283 58.3519 120.997 57.5679 119.934C56.7839 118.871 55.6817 118.085 54.4211 117.69C53.1605 117.296 51.8069 117.313 50.5566 117.739C49.3063 118.165 48.2243 118.979 47.4673 120.061C46.0598 118.816 44.3306 117.992 42.477 117.682C40.6235 117.372 38.7202 117.59 36.9844 118.31C35.2486 119.031 33.7502 120.224 32.6603 121.755C31.5703 123.286 30.9327 125.092 30.8201 126.968C29.537 126.713 28.2088 126.808 26.9748 127.242C25.7408 127.677 24.6463 128.435 23.806 129.438C22.1374 128.97 20.3759 128.943 18.6938 129.36C17.0117 129.777 15.4668 130.624 14.2103 131.818C12.9538 133.011 12.0287 134.51 11.5257 136.169C11.0226 137.827 10.9588 139.588 11.3405 141.278C11.4249 141.652 11.6338 141.985 11.9329 142.224C12.232 142.464 12.6035 142.594 12.9864 142.594H12.9979L131.231 141.795C131.462 141.794 131.689 141.745 131.9 141.652C132.111 141.559 132.3 141.425 132.457 141.256C132.613 141.087 132.734 140.888 132.811 140.671C132.887 140.454 132.919 140.224 132.903 139.994C132.825 138.784 132.507 137.601 131.968 136.514C131.43 135.427 130.681 134.458 129.765 133.663V133.663Z" fill="#3E61EE"/>
<path d="M83.471 119.127C83.6915 119.125 83.9095 119.079 84.1124 118.993C84.3153 118.906 84.4991 118.78 84.6531 118.623C84.8071 118.465 84.9284 118.278 85.0099 118.073C85.0913 117.868 85.1314 117.649 85.1278 117.428C85.1336 117.209 85.0953 116.991 85.0154 116.787C84.9355 116.583 84.8155 116.397 84.6625 116.239C84.5095 116.082 84.3266 115.958 84.1245 115.872C83.9225 115.787 83.7054 115.743 83.4862 115.743C83.2669 115.743 83.0498 115.787 82.8478 115.872C82.6458 115.958 82.4628 116.082 82.3098 116.239C82.1568 116.397 82.0368 116.583 81.9569 116.787C81.877 116.991 81.8388 117.209 81.8445 117.428V117.449C81.8379 117.667 81.875 117.884 81.9538 118.087C82.0325 118.29 82.1513 118.476 82.303 118.632C82.4546 118.788 82.6362 118.913 82.8368 118.998C83.0375 119.083 83.2531 119.126 83.471 119.127Z" fill="#3E61EE"/>
<path d="M83.5312 114.343C83.9788 114.343 84.408 114.165 84.7245 113.849C85.041 113.533 85.2188 113.103 85.2188 112.656V101.426C85.2188 100.979 85.041 100.549 84.7245 100.233C84.408 99.9166 83.9788 99.7388 83.5312 99.7388C83.0837 99.7388 82.6545 99.9166 82.338 100.233C82.0215 100.549 81.8438 100.979 81.8438 101.426V112.656C81.8438 113.103 82.0215 113.533 82.338 113.849C82.6545 114.165 83.0837 114.343 83.5312 114.343V114.343Z" fill="#3E61EE"/>
<path d="M62.1562 119.116C62.6038 119.116 63.033 118.939 63.3495 118.622C63.666 118.306 63.8438 117.876 63.8438 117.429V106.35C63.8437 105.902 63.666 105.473 63.3495 105.156C63.033 104.84 62.6038 104.662 62.1562 104.662C61.7087 104.662 61.2795 104.84 60.963 105.156C60.6465 105.473 60.4688 105.902 60.4688 106.35V117.429C60.4687 117.876 60.6465 118.306 60.963 118.622C61.2795 118.939 61.7087 119.116 62.1562 119.116V119.116Z" fill="#3E61EE"/>
<path d="M62.1562 103.243C62.6038 103.243 63.033 103.065 63.3495 102.748C63.666 102.432 63.8438 102.003 63.8438 101.555V101.426C63.8437 100.979 63.666 100.549 63.3495 100.233C63.033 99.9166 62.6038 99.7388 62.1562 99.7388C61.7087 99.7388 61.2795 99.9166 60.963 100.233C60.6465 100.549 60.4688 100.979 60.4688 101.426V101.555C60.4687 102.003 60.6465 102.432 60.963 102.748C61.2795 103.065 61.7087 103.243 62.1562 103.243V103.243Z" fill="#3E61EE"/>
<path d="M94.8187 59.9299C93.0948 59.9282 91.442 59.2432 90.2224 58.0249C89.0028 56.8067 88.316 55.1545 88.3125 53.4307V32.4962C88.3125 23.6039 87.0871 20.1864 84.8846 13.9829C84.3612 12.5083 83.7616 10.8371 83.1127 8.88832C82.386 6.70934 80.9923 4.81421 79.1288 3.4713C77.2653 2.12839 75.0265 1.40576 72.7296 1.40576C70.4326 1.40576 68.1939 2.12839 66.3304 3.4713C64.4669 4.81421 63.0731 6.70934 62.3464 8.88832C61.6967 10.8368 61.0687 12.508 60.5464 13.9823C58.3419 20.1861 57.0938 23.6036 57.0938 32.4962V53.4307C57.0903 55.1545 56.4034 56.8067 55.1838 58.0249C53.9643 59.2432 52.3114 59.9282 50.5876 59.9299C46.4975 59.9342 42.576 61.5604 39.6832 64.4519C36.7904 67.3433 35.1624 71.2641 35.1562 75.3542V97.1699C35.1562 98.1019 35.9941 98.7184 36.9259 98.7184H43.5862C44.5182 98.7184 45.2812 98.1019 45.2812 97.1699V93.0934H50.625V97.1699C50.6138 97.3775 50.6467 97.5851 50.7216 97.7791C50.7964 97.9731 50.9115 98.1491 51.0593 98.2954C51.2071 98.4417 51.3841 98.555 51.5788 98.6279C51.7736 98.7008 51.9815 98.7317 52.189 98.7184H58.8493C59.7814 98.7184 60.4688 98.1019 60.4688 97.1699V87.4684H84.9375V97.1699C84.9375 98.1019 85.6687 98.7184 86.6005 98.7184H93.2608C94.1926 98.7184 95.0625 98.1019 95.0625 97.1699V93.0934H100.125V97.1699C100.125 98.1019 100.932 98.7184 101.864 98.7184H108.524C109.456 98.7184 110.25 98.1019 110.25 97.1699V75.3542C110.244 71.2641 108.616 67.3433 105.723 64.4519C102.83 61.5604 98.9088 59.9342 94.8187 59.9299V59.9299ZM41.9062 95.3434H38.5312V93.0934H41.9062V95.3434ZM57.0938 95.3434H54V93.0934H57.0938V95.3434ZM57.0938 89.7184H38.5312V87.4684H57.0938V89.7184ZM57.0938 84.0934H38.5312V75.3542C38.5365 72.1589 39.8086 69.096 42.0687 66.8373C44.3287 64.5785 47.3923 63.3082 50.5876 63.3049C52.9837 63.3154 55.2997 62.4432 57.0938 60.8549V84.0934ZM84.9375 84.0934H60.4688V78.4684H84.9375V84.0934ZM84.9375 50.9059V75.0934H60.4688V32.4962C60.4688 24.1849 61.5794 21.1525 63.7239 15.1115C64.2527 13.6229 64.8689 11.9354 65.5287 9.95538C66.8005 6.14022 70.0796 4.78094 72.7163 4.78094C75.3531 4.78094 78.6282 6.14022 79.8998 9.95594C80.5598 11.9359 81.1733 13.6237 81.702 15.1127C83.8465 21.1533 84.9364 24.1858 84.9364 32.4967L84.9375 50.9059ZM91.6875 95.3434H88.3125V93.0934H91.6875V95.3434ZM106.875 95.3434H103.5V93.0934H106.875V95.3434ZM106.875 89.7184H88.3125V87.4684H106.875V89.7184ZM106.875 84.0934H88.3125V60.8549C90.1065 62.4432 92.4226 63.3154 94.8187 63.3049C98.014 63.3082 101.078 64.5785 103.338 66.8373C105.598 69.096 106.87 72.1589 106.875 75.3542V84.0934Z" fill="#17E5C3"/>
<path d="M63.4112 27.6749C63.8357 27.8164 64.2991 27.7835 64.6993 27.5834C65.0996 27.3833 65.404 27.0324 65.5456 26.6079C66.8174 22.7927 70.088 21.4329 72.725 21.4329C75.362 21.4329 78.6313 22.7924 79.9042 26.6079C80.0459 27.0324 80.3505 27.3833 80.7509 27.5833C81.1513 27.7832 81.6148 27.816 82.0393 27.6742C82.4639 27.5325 82.8147 27.228 83.0147 26.8275C83.2147 26.4271 83.2474 25.9637 83.1057 25.5391C82.3795 23.3603 80.9861 21.4652 79.123 20.1222C77.2599 18.7793 75.0214 18.0566 72.7247 18.0566C70.4281 18.0566 68.1896 18.7793 66.3265 20.1222C64.4633 21.4652 63.07 23.3603 62.3438 25.5391C62.2735 25.7495 62.2454 25.9716 62.261 26.1928C62.2766 26.4139 62.3357 26.6299 62.4348 26.8283C62.534 27.0266 62.6712 27.2035 62.8387 27.3488C63.0063 27.494 63.2008 27.6049 63.4112 27.6749V27.6749Z" fill="#17E5C3"/>
</svg>
