<svg viewBox="0 0 144 144" fill="none" xmlns="http://www.w3.org/2000/svg">
<path d="M88.8371 36.0228L82.6738 29.8071C78.812 34.1457 76.749 39.7931 76.9047 45.5993C77.0604 51.4056 79.4232 56.9342 83.5119 61.0596C84.566 62.1228 85.723 63.0788 86.966 63.9135C86.4997 63.2199 86.0724 62.5009 85.686 61.7599C83.5473 57.6544 82.7036 52.997 83.2662 48.4022C83.8288 43.8073 85.7712 39.491 88.8371 36.0228V36.0228Z" fill="#3E61EE" fill-opacity="0.2"/>
<path d="M67.1998 54.5176L30.6035 91.5695L33.2866 94.2779L36.791 97.757L73.3608 60.7318L67.1998 54.5176Z" fill="#3E61EE" fill-opacity="0.2"/>
<path d="M56.9784 76.7963C57.1328 76.6373 57.2543 76.4494 57.336 76.2434C57.4177 76.0374 57.4581 75.8174 57.4547 75.5958C57.4514 75.3742 57.4044 75.1554 57.3166 74.952C57.2287 74.7485 57.1016 74.5644 56.9426 74.4101C56.7835 74.2557 56.5957 74.1342 56.3897 74.0525C56.1837 73.9708 55.9636 73.9305 55.742 73.9338C55.5204 73.9371 55.3017 73.9841 55.0982 74.0719C54.8948 74.1598 54.7106 74.2869 54.5563 74.4459L46.3674 82.8862C46.2109 83.0448 46.0873 83.2328 46.0038 83.4394C45.9203 83.646 45.8786 83.8671 45.881 84.0899C45.8834 84.3128 45.9299 84.5329 46.0178 84.7376C46.1057 84.9424 46.2333 85.1277 46.3933 85.2829C46.5532 85.438 46.7422 85.56 46.9496 85.6417C47.1569 85.7234 47.3783 85.7633 47.6011 85.7589C47.8239 85.7546 48.0436 85.7062 48.2476 85.6165C48.4516 85.5268 48.6358 85.3976 48.7896 85.2364L56.9784 76.7963Z" fill="#3E61EE"/>
<path d="M43.0933 86.25L40.3722 89.0856C40.2188 89.2455 40.0983 89.434 40.0178 89.6405C39.9372 89.8469 39.8981 90.0672 39.9027 90.2888C39.9073 90.5103 39.9555 90.7288 40.0445 90.9318C40.1335 91.1347 40.2616 91.3181 40.4215 91.4716C40.7445 91.7814 41.1773 91.9503 41.6248 91.941C41.8463 91.9364 42.0648 91.8883 42.2677 91.7992C42.4707 91.7102 42.6541 91.5821 42.8075 91.4222L45.5283 88.5869C45.6818 88.427 45.8022 88.2385 45.8828 88.032C45.9634 87.8256 46.0025 87.6053 45.998 87.3838C45.9934 87.1622 45.9452 86.9437 45.8562 86.7408C45.7672 86.5378 45.6391 86.3544 45.4793 86.2009C45.3194 86.0475 45.1308 85.927 44.9244 85.8465C44.7179 85.7659 44.4977 85.7268 44.2761 85.7313C44.0545 85.7359 43.8361 85.784 43.6331 85.873C43.4302 85.962 43.2467 86.0901 43.0933 86.25V86.25Z" fill="#3E61EE"/>
<path d="M112.077 1.56775C111.634 1.61856 111.23 1.84247 110.951 2.19061C110.673 2.53875 110.544 2.98284 110.592 3.42594C110.64 3.86904 110.861 4.27517 111.208 4.55566C111.554 4.83615 111.997 4.96823 112.441 4.92306C116.035 4.52696 119.672 4.94352 123.084 6.14197C126.495 7.34042 129.594 9.29012 132.151 11.847C134.708 14.4039 136.658 17.5027 137.856 20.9143C139.054 24.3259 139.471 27.9632 139.075 31.5574C139.027 32.0024 139.157 32.4483 139.438 32.797C139.718 33.1458 140.126 33.3687 140.571 33.4169C141.016 33.4651 141.462 33.3346 141.811 33.054C142.159 32.7734 142.382 32.3658 142.431 31.9208C142.881 27.8249 142.406 23.6801 141.039 19.7926C139.673 15.9051 137.451 12.3741 134.538 9.46038C131.624 6.54669 128.093 4.32476 124.205 2.95867C120.318 1.59258 116.173 1.11724 112.077 1.56775V1.56775Z" fill="#3E61EE"/>
<path d="M133.403 33.4096C133.486 33.4219 133.57 33.4281 133.654 33.4281C134.058 33.4277 134.449 33.2822 134.754 33.0182C135.06 32.7541 135.261 32.389 135.321 31.9893C135.8 28.8178 135.528 25.5782 134.525 22.5314C133.523 19.4846 131.82 16.7157 129.552 14.4477C127.284 12.1797 124.515 10.4761 121.468 9.47402C118.421 8.47194 115.182 8.19943 112.01 8.67842C111.567 8.7444 111.169 8.98354 110.903 9.34323C110.636 9.70292 110.524 10.1537 110.59 10.5964C110.656 11.0391 110.895 11.4375 111.255 11.7039C111.614 11.9702 112.065 12.0828 112.508 12.0169C115.157 11.6155 117.864 11.8423 120.41 12.6791C122.956 13.5158 125.27 14.9391 127.165 16.8341C129.06 18.7292 130.484 21.043 131.32 23.589C132.157 26.135 132.384 28.842 131.983 31.4917C131.95 31.7109 131.961 31.9344 132.014 32.1495C132.068 32.3645 132.164 32.5668 132.296 32.7449C132.428 32.923 132.593 33.0734 132.783 33.1874C132.973 33.3015 133.184 33.3769 133.403 33.4096V33.4096Z" fill="#3E61EE"/>
<path d="M110.62 17.9236C110.726 18.3583 111.001 18.7331 111.383 18.9654C111.766 19.1978 112.225 19.2686 112.66 19.1625C114.341 18.7499 116.101 18.7778 117.768 19.2436C119.435 19.7094 120.955 20.5972 122.179 21.8215C123.403 23.0457 124.291 24.5649 124.757 26.2323C125.223 27.8998 125.25 29.6592 124.838 31.3406C124.783 31.5565 124.772 31.7811 124.805 32.0015C124.837 32.2218 124.913 32.4334 125.028 32.6242C125.143 32.8151 125.295 32.9812 125.474 33.1132C125.653 33.2452 125.857 33.3403 126.074 33.3932C126.29 33.446 126.515 33.4555 126.735 33.4211C126.955 33.3867 127.166 33.3091 127.356 33.1927C127.546 33.0763 127.711 32.9235 127.841 32.743C127.972 32.5626 128.065 32.3581 128.116 32.1413C128.666 29.897 128.628 27.5488 128.006 25.3234C127.384 23.098 126.199 21.0705 124.565 19.4366C122.931 17.8027 120.903 16.6175 118.678 15.9954C116.453 15.3733 114.105 15.3353 111.86 15.8851C111.425 15.991 111.051 16.2653 110.818 16.6476C110.586 17.0298 110.514 17.4888 110.62 17.9236V17.9236Z" fill="#3E61EE"/>
<path d="M118.878 124.729L84.8249 90.3848C84.668 90.2266 84.4814 90.1011 84.2757 90.0154C84.07 89.9297 83.8494 89.8855 83.6266 89.8855C83.4038 89.8855 83.1832 89.9297 82.9776 90.0154C82.7719 90.1011 82.5852 90.2266 82.4284 90.3848L81.3084 91.5141L78.0333 88.2305L75.6426 90.6141L78.9313 93.9109L72.608 100.288L71.4723 101.434L68.1982 98.1516L65.8076 100.535L69.0949 103.831L67.5651 105.373C67.2518 105.689 67.076 106.116 67.076 106.561C67.076 107.006 67.2518 107.433 67.5651 107.749L101.62 142.094C101.777 142.253 101.964 142.378 102.17 142.464C102.375 142.55 102.596 142.594 102.819 142.594C103.041 142.594 103.262 142.55 103.468 142.464C103.673 142.378 103.86 142.253 104.017 142.094L118.878 127.105C119.192 126.789 119.368 126.362 119.368 125.917C119.368 125.472 119.192 125.045 118.878 124.729V124.729ZM78.5961 99.0445L87.2979 107.82L84.8761 110.262L76.1745 101.487L78.5961 99.0445ZM71.1429 106.562L73.7982 103.884L83.678 113.848C83.8348 114.007 84.0215 114.132 84.2272 114.218C84.4329 114.304 84.6535 114.348 84.8764 114.348C85.0992 114.348 85.3198 114.304 85.5255 114.218C85.7312 114.132 85.9179 114.007 86.0748 113.848L90.8729 109.009C91.1863 108.693 91.3621 108.266 91.3621 107.821C91.3621 107.376 91.1863 106.949 90.8729 106.633L80.9729 96.6483L83.6282 93.9702L109.87 120.438L97.3858 133.03L71.1429 106.562ZM102.819 138.509L99.7615 135.426L112.247 122.834L115.304 125.917L102.819 138.509Z" fill="#17E5C3"/>
<path d="M51.9776 62.1082L53.2058 60.8707C53.5192 60.5546 53.695 60.1276 53.695 59.6825C53.695 59.2375 53.5192 58.8104 53.2058 58.4944L19.1532 24.1487C18.9963 23.9905 18.8097 23.8649 18.604 23.7792C18.3983 23.6935 18.1777 23.6494 17.9549 23.6494C17.7321 23.6494 17.5115 23.6935 17.3059 23.7792C17.1002 23.8649 16.9136 23.9905 16.7567 24.1487L1.89543 39.1374C1.58207 39.4534 1.40625 39.8805 1.40625 40.3255C1.40625 40.7706 1.58207 41.1976 1.89543 41.5137L35.9478 75.8582C36.1047 76.0164 36.2913 76.142 36.497 76.2277C36.7026 76.3134 36.9232 76.3575 37.146 76.3575C37.3688 76.3575 37.5894 76.3134 37.7951 76.2277C38.0008 76.142 38.1874 76.0164 38.3443 75.8582L39.7655 74.4238L43.6467 78.3141L46.0373 75.9305L42.1417 72.0282L49.601 64.505L53.4789 68.3924L55.8696 66.0091L51.9776 62.1082ZM5.47011 40.3257L17.9551 27.7335L21.0123 30.8169L8.5273 43.409L5.47011 40.3257ZM42.1777 67.1985L33.4252 58.3712L35.8471 55.9286L44.5996 64.7562L42.1777 67.1985ZM46.9759 62.3593L37.0452 52.3435C36.8883 52.1853 36.7017 52.0597 36.496 51.974C36.2903 51.8883 36.0697 51.8442 35.8469 51.8442C35.6241 51.8442 35.4035 51.8883 35.1979 51.974C34.9922 52.0597 34.8056 52.1853 34.6487 52.3435L29.8506 57.1829C29.5372 57.499 29.3614 57.926 29.3614 58.3711C29.3614 58.8161 29.5372 59.2432 29.8506 59.5592L39.8015 69.5953L37.1462 72.2734L10.9039 45.8058L23.3886 33.2137L49.6311 59.6813L46.9759 62.3593Z" fill="#17E5C3"/>
<path d="M36.8886 124.345C37.2017 124.673 37.6317 124.863 38.0848 124.875H38.087C38.5392 124.864 38.9687 124.675 39.2821 124.348L44.7468 118.852C44.7788 118.823 44.814 118.795 44.8443 118.765C44.8747 118.734 44.9034 118.688 44.9341 118.652L50.0179 113.549L51.5063 115.072C51.8207 115.398 52.2512 115.585 52.7036 115.594H52.7053C52.9298 115.59 53.1513 115.541 53.357 115.451C53.5627 115.361 53.7487 115.231 53.9043 115.069L90.5002 78.0065C90.8126 77.6891 90.9875 77.2614 90.9871 76.8161C90.9867 76.3707 90.811 75.9434 90.498 75.6266L84.7104 69.7864L87.9892 66.5065C92.3756 68.8837 97.3928 69.8381 102.346 69.2374C107.299 68.6367 111.942 66.5106 115.633 63.1537C115.802 63.0006 115.938 62.8148 116.033 62.6076C116.128 62.4005 116.18 62.1762 116.186 61.9483C116.192 61.7204 116.152 61.4937 116.068 61.2817C115.984 61.0698 115.858 60.8771 115.698 60.7152L100.891 45.7809L107.372 39.3C108.334 39.7073 109.408 39.7673 110.41 39.4696C111.412 39.1719 112.278 38.535 112.862 37.6683C113.445 36.8015 113.709 35.7587 113.608 34.7187C113.507 33.6787 113.048 32.7062 112.308 31.9679C111.569 31.2296 110.596 30.7715 109.556 30.6721C108.515 30.5727 107.473 30.8382 106.607 31.423C105.741 32.0079 105.106 32.8757 104.81 33.8778C104.513 34.8798 104.575 35.9537 104.984 36.9153L98.515 43.3841L83.8731 28.6165C83.7109 28.4529 83.517 28.3243 83.3032 28.2385C83.0894 28.1528 82.8604 28.1117 82.6301 28.1178C82.3998 28.1239 82.1733 28.1771 81.9643 28.2741C81.7554 28.3711 81.5686 28.5098 81.4153 28.6817C78.25 32.2446 76.1901 36.6516 75.4867 41.3652C74.7833 46.0788 75.4669 50.8952 77.4542 55.2269L73.8511 58.8303L68.3971 53.3532C68.2391 53.198 68.0517 53.0757 67.846 52.9936C67.6402 52.9115 67.4202 52.8712 67.1987 52.8751H67.197C66.9753 52.8712 66.7551 52.9115 66.5492 52.9939C66.3434 53.0762 66.1561 53.1989 65.9983 53.3547L29.4023 90.3939C29.09 90.709 28.9149 91.1349 28.9152 91.5786C28.9156 92.0223 29.0914 92.4479 29.4043 92.7626L30.907 94.2751L20.1582 105.06C19.8434 105.378 19.6666 105.808 19.666 106.256C19.6654 106.704 19.8411 107.134 20.1551 107.454L36.8886 124.345ZM109.125 34.0314C109.347 34.0314 109.565 34.0974 109.75 34.221C109.935 34.3446 110.079 34.5203 110.164 34.7259C110.249 34.9314 110.272 35.1576 110.228 35.3759C110.185 35.5941 110.078 35.7945 109.92 35.9519C109.763 36.1092 109.563 36.2163 109.344 36.2598C109.126 36.3032 108.9 36.2809 108.694 36.1957C108.489 36.1106 108.313 35.9664 108.189 35.7814C108.066 35.5964 108 35.3789 108 35.1564C108 34.858 108.118 34.5719 108.329 34.3609C108.54 34.1499 108.827 34.0314 109.125 34.0314ZM82.7937 32.3225L97.0775 46.7287C97.1978 46.9121 97.3538 47.0695 97.5363 47.1913L112.007 61.786C108.003 64.8434 103.022 66.336 97.9967 65.9839C92.9714 65.6319 88.247 63.4593 84.7087 59.8735C81.1456 56.2701 78.993 51.5085 78.6416 46.4531C78.2902 41.3978 79.7634 36.3841 82.7937 32.3225V32.3225ZM79.1456 58.31C80.7273 60.7596 82.7353 62.906 85.0743 64.6471L82.3341 67.3876L76.2273 61.2282L79.1456 58.31ZM67.2012 56.9181L86.9255 76.8117L80.7161 83.0985L60.9915 63.2049L67.2012 56.9181ZM58.6197 65.6062L78.3443 85.5001L52.7013 111.462L51.2107 109.96L32.9767 91.5698L58.6197 65.6062ZM47.6405 111.15L43.6499 115.156L29.2923 100.675L33.2841 96.6702L47.6405 111.15ZM26.909 103.066L41.2666 117.546L38.0901 120.733L23.7329 106.253L26.909 103.066Z" fill="#3E61EE"/>
</svg>
