<svg viewBox="0 0 144 144" fill="none" xmlns="http://www.w3.org/2000/svg">
<path d="M32.4693 110.922L38.1658 99.8101L32.1408 88.6293L22.9023 87.1426L29.7283 99.8101L23.1639 112.615L32.4693 110.922Z" fill="#3E61EE" fill-opacity="0.2"/>
<path d="M115.575 98.0172C115.939 98.0174 116.293 97.8995 116.584 97.6811L117.321 97.1295C117.501 96.9976 117.652 96.8314 117.767 96.6406C117.882 96.4498 117.958 96.2381 117.991 96.0178C118.023 95.7974 118.012 95.5728 117.958 95.3568C117.903 95.1409 117.806 94.9378 117.673 94.7595C117.54 94.5811 117.372 94.4308 117.18 94.3175C116.989 94.2041 116.776 94.1298 116.556 94.0989C116.335 94.0679 116.111 94.081 115.895 94.1373C115.68 94.1935 115.477 94.2919 115.3 94.4267L114.563 94.9783C114.279 95.1908 114.07 95.487 113.964 95.8251C113.859 96.1632 113.862 96.5259 113.974 96.8619C114.086 97.1979 114.301 97.4901 114.588 97.6972C114.876 97.9043 115.221 98.0158 115.575 98.0158L115.575 98.0172Z" fill="#3E61EE"/>
<path d="M104.112 26.2006C104.499 26.2008 104.874 26.0674 105.174 25.8228L111.962 20.3103C112.308 20.0277 112.528 19.6195 112.573 19.1752C112.618 18.7309 112.486 18.2867 112.204 17.9401C111.923 17.5934 111.515 17.3725 111.071 17.3257C110.627 17.2789 110.182 17.4101 109.835 17.6905L103.047 23.203C102.776 23.4228 102.58 23.7211 102.486 24.0569C102.391 24.3926 102.403 24.7493 102.52 25.0779C102.637 25.4065 102.853 25.6909 103.138 25.892C103.423 26.093 103.763 26.2008 104.112 26.2006Z" fill="#3E61EE"/>
<path d="M82.4142 43.8208C82.8015 43.8211 83.177 43.6878 83.4774 43.4433L95.8192 33.4199C95.992 33.2804 96.1356 33.1082 96.2418 32.9132C96.348 32.7181 96.4146 32.5041 96.4378 32.2832C96.4611 32.0624 96.4405 31.8391 96.3774 31.6262C96.3142 31.4133 96.2096 31.215 96.0696 31.0426C95.9296 30.8702 95.7569 30.7272 95.5615 30.6216C95.3661 30.5161 95.1518 30.4502 94.9309 30.4277C94.71 30.4051 94.4868 30.4264 94.2741 30.4903C94.0614 30.5542 93.8634 30.6595 93.6915 30.8L81.3494 40.8232C81.0787 41.043 80.8827 41.3413 80.7884 41.6771C80.6941 42.0128 80.7062 42.3695 80.8229 42.6981C80.9397 43.0267 81.1553 43.3111 81.4403 43.5122C81.7253 43.7132 82.0655 43.821 82.4142 43.8208V43.8208Z" fill="#3E61EE"/>
<path d="M62.7831 59.7636C63.1703 59.764 63.5457 59.6306 63.8459 59.3861L72.7762 52.1338C72.9482 51.9941 73.0911 51.8219 73.1966 51.627C73.302 51.4321 73.3681 51.2184 73.391 50.998C73.4139 50.7775 73.3931 50.5548 73.3299 50.3424C73.2667 50.13 73.1622 49.9321 73.0226 49.7601C72.8829 49.588 72.7107 49.4452 72.5158 49.3397C72.3209 49.2342 72.1071 49.1681 71.8867 49.1452C71.6663 49.1224 71.4435 49.1431 71.2311 49.2063C71.0187 49.2696 70.8209 49.374 70.6488 49.5137L61.7186 56.766C61.4478 56.9858 61.2519 57.2841 61.1576 57.6198C61.0633 57.9555 61.0753 58.3122 61.192 58.6408C61.3087 58.9694 61.5244 59.2538 61.8093 59.4548C62.0942 59.6559 62.4344 59.7637 62.7831 59.7636V59.7636Z" fill="#3E61EE"/>
<path d="M137.548 48.4168C137.26 48.0744 136.847 47.8605 136.401 47.8221C135.955 47.7838 135.513 47.9241 135.17 48.2123L129.021 53.3873C128.69 53.6788 128.487 54.0883 128.454 54.528C128.421 54.9678 128.562 55.4029 128.846 55.7402C129.13 56.0776 129.534 56.2904 129.973 56.333C130.412 56.3757 130.85 56.2449 131.194 55.9686L137.343 50.7936C137.685 50.5055 137.899 50.0933 137.937 49.6476C137.976 49.2019 137.836 48.7592 137.548 48.4168V48.4168Z" fill="#3E61EE"/>
<path d="M98.3527 83.0854C98.7501 83.0857 99.1347 82.9452 99.4383 82.6888L120.353 65.0901C120.695 64.802 120.909 64.3895 120.948 63.9436C120.986 63.4977 120.846 63.0548 120.558 62.7123C120.269 62.3699 119.857 62.1559 119.411 62.1175C118.965 62.0792 118.522 62.2195 118.18 62.5077L97.2651 80.1067C97.0002 80.3296 96.8102 80.6285 96.721 80.9631C96.6318 81.2976 96.6477 81.6514 96.7664 81.9766C96.8852 82.3018 97.1011 82.5827 97.3848 82.781C97.6686 82.9793 98.0065 83.0856 98.3527 83.0854V83.0854Z" fill="#3E61EE"/>
<path d="M87.8935 87.9931L84.4448 90.8953C84.1023 91.1834 83.8884 91.5958 83.85 92.0417C83.8116 92.4876 83.9519 92.9305 84.24 93.273C84.5282 93.6154 84.9406 93.8294 85.3865 93.8678C85.8324 93.9062 86.2753 93.7659 86.6177 93.4777L90.0667 90.5755C90.4091 90.2873 90.6231 89.8749 90.6615 89.429C90.6998 88.983 90.5595 88.5401 90.2713 88.1977C89.9831 87.8552 89.5707 87.6413 89.1248 87.6029C88.6788 87.5645 88.2359 87.7049 87.8935 87.9931V87.9931Z" fill="#3E61EE"/>
<path d="M111.524 45.3549C111.8 45.707 112.205 45.935 112.649 45.9886C113.094 46.0423 113.541 45.9172 113.893 45.641L139.134 25.841C139.312 25.7052 139.46 25.5356 139.571 25.3421C139.683 25.1485 139.754 24.9348 139.782 24.7134C139.81 24.4919 139.794 24.2671 139.735 24.0519C139.675 23.8368 139.574 23.6356 139.436 23.4599C139.298 23.2843 139.127 23.1377 138.932 23.0288C138.737 22.9198 138.523 22.8505 138.301 22.825C138.079 22.7995 137.855 22.8183 137.64 22.8802C137.426 22.9421 137.226 23.0459 137.052 23.1857L111.81 42.9857C111.458 43.2619 111.23 43.6668 111.176 44.1111C111.123 44.5554 111.248 45.0028 111.524 45.3549V45.3549Z" fill="#3E61EE"/>
<path d="M98.353 57.3749C98.7305 57.3752 99.0971 57.2484 99.3937 57.0149L103.329 53.9279C103.503 53.7911 103.649 53.6213 103.758 53.4283C103.867 53.2352 103.936 53.0226 103.963 52.8026C103.989 52.5825 103.972 52.3595 103.913 52.146C103.853 51.9326 103.752 51.733 103.615 51.5586C103.478 51.3843 103.309 51.2385 103.116 51.1298C102.923 51.021 102.71 50.9514 102.49 50.9248C102.27 50.8982 102.047 50.9152 101.833 50.9748C101.62 51.0345 101.42 51.1356 101.246 51.2723L97.3124 54.3593C97.0361 54.5759 96.8343 54.8733 96.735 55.21C96.6356 55.5467 96.6438 55.906 96.7583 56.2379C96.8728 56.5697 97.088 56.8576 97.3738 57.0614C97.6597 57.2652 98.002 57.3748 98.353 57.3749Z" fill="#3E61EE"/>
<path d="M86.5721 62.7835L61.7349 82.4429C61.5611 82.5804 61.4161 82.7508 61.3082 82.9444C61.2004 83.1379 61.1316 83.3509 61.106 83.571C61.0804 83.7911 61.0984 84.0141 61.159 84.2273C61.2196 84.4405 61.3216 84.6396 61.4591 84.8134C61.5966 84.9871 61.7671 85.1321 61.9606 85.24C62.1542 85.3479 62.3671 85.4166 62.5872 85.4422C62.8074 85.4678 63.0304 85.4498 63.2435 85.3892C63.4567 85.3287 63.6559 85.2267 63.8296 85.0891L88.6665 65.4298C89.0175 65.152 89.2437 64.7462 89.2955 64.3017C89.3473 63.8571 89.2203 63.4102 88.9426 63.0592C88.6648 62.7083 88.259 62.482 87.8145 62.4303C87.3699 62.3785 86.923 62.5055 86.5721 62.7832V62.7835Z" fill="#3E61EE"/>
<path d="M7.63031 70.8134C8.30507 70.8134 8.96467 70.6133 9.52571 70.2384C10.0867 69.8635 10.524 69.3307 10.7822 68.7073C11.0404 68.0839 11.108 67.3979 10.9763 66.7361C10.8446 66.0743 10.5197 65.4665 10.0426 64.9894C9.56541 64.5123 8.9575 64.1874 8.2957 64.0558C7.63391 63.9241 6.94795 63.9917 6.32457 64.25C5.70119 64.5083 5.1684 64.9456 4.79357 65.5066C4.41873 66.0677 4.21869 66.7273 4.21875 67.4021C4.21987 68.3065 4.57967 69.1736 5.21922 69.8131C5.85878 70.4526 6.72588 70.8123 7.63031 70.8134V70.8134Z" fill="#3E61EE"/>
<path d="M23.1515 56.7883C23.5534 56.7883 23.9463 56.6691 24.2805 56.4458C24.6148 56.2224 24.8752 55.905 25.0291 55.5337C25.1829 55.1623 25.2231 54.7537 25.1447 54.3595C25.0663 53.9652 24.8727 53.6031 24.5885 53.3189C24.3043 53.0347 23.9422 52.8411 23.5479 52.7627C23.1537 52.6843 22.7451 52.7245 22.3737 52.8783C22.0024 53.0322 21.685 53.2926 21.4616 53.6269C21.2383 53.9611 21.1191 54.354 21.1191 54.7559C21.1198 55.2947 21.3341 55.8113 21.7151 56.1923C22.0961 56.5733 22.6127 56.7876 23.1515 56.7883V56.7883Z" fill="#3E61EE"/>
<path d="M89.0879 123.62C89.0879 124.227 89.2677 124.819 89.6045 125.323C89.9414 125.828 90.4202 126.221 90.9804 126.453C91.5405 126.685 92.1569 126.745 92.7516 126.627C93.3463 126.509 93.8925 126.217 94.3212 125.788C94.75 125.359 95.042 124.813 95.1602 124.218C95.2785 123.624 95.2178 123.007 94.9858 122.447C94.7538 121.887 94.3608 121.408 93.8567 121.071C93.3525 120.734 92.7598 120.555 92.1535 120.555C91.3408 120.556 90.5617 120.879 89.987 121.454C89.4124 122.028 89.089 122.808 89.0879 123.62Z" fill="#3E61EE"/>
<path d="M87.6196 22.6367C88.143 22.6367 88.6546 22.4815 89.0897 22.1908C89.5248 21.9 89.864 21.4868 90.0642 21.0032C90.2645 20.5197 90.3169 19.9877 90.2148 19.4744C90.1127 18.9611 89.8606 18.4897 89.4905 18.1196C89.1205 17.7496 88.649 17.4976 88.1357 17.3955C87.6224 17.2935 87.0903 17.3459 86.6069 17.5462C86.1234 17.7465 85.7101 18.0857 85.4194 18.5209C85.1287 18.9561 84.9736 19.4677 84.9736 19.991C84.9745 20.6925 85.2535 21.365 85.7496 21.861C86.2456 22.357 86.9181 22.636 87.6196 22.6367V22.6367Z" fill="#3E61EE"/>
<path d="M66.5031 104.133C66.6564 104.407 66.8835 104.634 67.1587 104.787C67.4339 104.94 67.7462 105.013 68.0606 104.997L72.195 104.793L74.7074 108.084C74.8985 108.334 75.1558 108.526 75.4502 108.638C75.7447 108.749 76.0645 108.776 76.3735 108.716C76.6825 108.655 76.9684 108.509 77.1988 108.295C77.4292 108.08 77.595 107.805 77.6774 107.501L78.7611 103.506L82.6674 102.133C82.9644 102.028 83.2264 101.843 83.4236 101.598C83.6208 101.352 83.7454 101.056 83.7832 100.744C83.8211 100.431 83.7708 100.114 83.6379 99.8286C83.505 99.5432 83.2949 99.3006 83.0313 99.1283L79.5655 96.8622L79.467 92.7234C79.4596 92.4085 79.3642 92.102 79.1916 91.8386C79.0191 91.5751 78.7763 91.3652 78.4906 91.2326C78.205 91.1 77.8879 91.0499 77.5753 91.0881C77.2627 91.1263 76.967 91.2512 76.7217 91.4487L73.4964 94.0444L69.5307 92.8589C69.229 92.7688 68.9081 92.7649 68.6043 92.8476C68.3005 92.9304 68.0259 93.0965 67.8115 93.3271C67.5972 93.5578 67.4517 93.8438 67.3914 94.1529C67.3312 94.462 67.3586 94.7817 67.4706 95.076L68.9426 98.9457L66.5894 102.352C66.4103 102.611 66.3073 102.915 66.292 103.23C66.2768 103.545 66.3499 103.857 66.5031 104.133V104.133ZM72.4121 98.5753L71.8404 97.0723L73.3813 97.5327C73.6435 97.6111 73.9208 97.6245 74.1893 97.5718C74.4578 97.5191 74.7094 97.402 74.9226 97.2304L76.1753 96.2224L76.2135 97.83C76.22 98.1035 76.2929 98.3713 76.426 98.6104C76.559 98.8494 76.7481 99.0525 76.9771 99.2022L78.3235 100.082L76.8061 100.617C76.5481 100.707 76.316 100.86 76.1298 101.06C75.9436 101.26 75.8089 101.503 75.7374 101.767L75.3155 103.319L74.3395 102.041C74.1821 101.835 73.9791 101.667 73.7465 101.552C73.5138 101.437 73.2578 101.377 72.9983 101.377C72.9701 101.377 72.942 101.377 72.9139 101.38L71.3077 101.459L72.2217 100.137C72.3779 99.9118 72.4769 99.6519 72.5101 99.3798C72.5433 99.1077 72.5096 98.8315 72.4121 98.5753V98.5753Z" fill="#3E61EE"/>
<path d="M45.7315 69.2719L49.8658 69.0677L52.3785 72.3583C52.5696 72.6086 52.8269 72.8004 53.1213 72.9121C53.4157 73.0238 53.7355 73.0509 54.0445 72.9903C54.3535 72.9298 54.6394 72.7839 54.8698 72.5694C55.1003 72.3548 55.2661 72.08 55.3485 71.7761L56.4342 67.7812L60.3404 66.4085C60.6374 66.304 60.8993 66.1186 61.0964 65.8731C61.2935 65.6276 61.418 65.3319 61.4559 65.0193C61.4937 64.7068 61.4433 64.3899 61.3105 64.1044C61.1776 63.819 60.9676 63.5764 60.7041 63.4041L57.2388 61.1384L57.1404 56.9995C57.1329 56.6847 57.0375 56.3783 56.865 56.1149C56.6924 55.8515 56.4496 55.6416 56.164 55.509C55.8784 55.3764 55.5614 55.3263 55.2489 55.3645C54.9363 55.4026 54.6407 55.5275 54.3954 55.7249L51.1697 58.3208L47.2041 57.1354C46.9024 57.0452 46.5815 57.0412 46.2777 57.1239C45.9738 57.2066 45.6992 57.3727 45.4849 57.6033C45.2705 57.834 45.1249 58.12 45.0646 58.4291C45.0043 58.7381 45.0317 59.0579 45.1437 59.3522L46.6157 63.2219L44.2614 66.6281C44.0827 66.8872 43.9799 67.191 43.9648 67.5054C43.9497 67.8198 44.0228 68.1321 44.1759 68.4071C44.329 68.6821 44.5559 68.9088 44.831 69.0616C45.1061 69.2144 45.4185 69.2872 45.7329 69.2719H45.7315ZM50.083 62.8501L49.5112 61.3471L51.0522 61.8075C51.3144 61.886 51.5917 61.8995 51.8603 61.847C52.1289 61.7944 52.3807 61.6773 52.594 61.5057L53.8469 60.4974L53.8852 62.105C53.8917 62.3786 53.9646 62.6465 54.0977 62.8856C54.2308 63.1247 54.42 63.3278 54.6491 63.4775L55.9951 64.3576L54.4764 64.892C54.2183 64.9827 53.9862 65.1348 53.8001 65.3352C53.6139 65.5356 53.4792 65.7783 53.4076 66.0423L52.9857 67.5945L52.0098 66.3162C51.8523 66.1099 51.6494 65.9427 51.4167 65.8277C51.1841 65.7126 50.9281 65.6527 50.6685 65.6527C50.6404 65.6527 50.6123 65.6527 50.5842 65.6547L48.9779 65.734L49.892 64.4107C50.0482 64.1858 50.1474 63.9263 50.1809 63.6545C50.2144 63.3827 50.1813 63.1068 50.0844 62.8506L50.083 62.8501Z" fill="#3E61EE"/>
<path d="M27.8231 99.8299L21.662 111.847C21.5184 112.127 21.4561 112.441 21.482 112.755C21.5079 113.069 21.6211 113.369 21.8087 113.622C21.9964 113.875 22.251 114.07 22.5438 114.186C22.8366 114.301 23.1559 114.333 23.4657 114.277L36.7514 111.858L46.2759 121.431C46.498 121.654 46.7781 121.811 47.0846 121.883C47.3911 121.956 47.7117 121.941 48.0101 121.84C48.3086 121.74 48.573 121.558 48.7735 121.315C48.974 121.072 49.1026 120.778 49.1446 120.466L50.9497 107.084L62.9973 100.984C63.2782 100.841 63.5137 100.623 63.6772 100.354C63.8407 100.085 63.9256 99.7757 63.9224 99.4608C63.9192 99.146 63.828 98.8383 63.659 98.5726C63.4901 98.3069 63.2501 98.0938 62.9664 97.9573L50.7961 92.105L48.718 78.762C48.6696 78.4508 48.535 78.1594 48.3296 77.9207C48.1242 77.682 47.8561 77.5056 47.5556 77.4113C47.2552 77.3171 46.9343 77.3088 46.6294 77.3874C46.3245 77.466 46.0476 77.6283 45.8301 77.8561L36.5036 87.6222L23.1723 85.4757C22.8615 85.4257 22.5428 85.4637 22.2524 85.5853C21.962 85.7069 21.7114 85.9074 21.529 86.164C21.3465 86.4206 21.2395 86.7231 21.22 87.0374C21.2006 87.3516 21.2694 87.6651 21.4187 87.9423L27.8231 99.8299ZM36.8442 91.0951C37.1143 91.1386 37.391 91.1157 37.6503 91.0285C37.9096 90.9413 38.1439 90.7923 38.3328 90.5945L45.9091 82.6593L47.5966 93.5006C47.6387 93.7709 47.7459 94.027 47.909 94.2467C48.0721 94.4664 48.2861 94.6432 48.5326 94.7617L58.4208 99.5149L48.6333 104.471C48.3892 104.595 48.1788 104.776 48.0202 104.999C47.8617 105.222 47.7597 105.48 47.7232 105.751L46.2568 116.625L38.5182 108.847C38.3614 108.689 38.175 108.564 37.9697 108.479C37.7644 108.393 37.5443 108.349 37.322 108.349C37.2206 108.35 37.1194 108.359 37.0197 108.378L26.225 110.343L31.2313 100.58C31.3561 100.336 31.4199 100.066 31.4171 99.7924C31.4143 99.5188 31.345 99.25 31.2152 99.0092L26.0101 89.351L36.8442 91.0951Z" fill="#17E5C3"/>
</svg>
