<svg viewBox="0 0 144 144" fill="none" xmlns="http://www.w3.org/2000/svg">
<path d="M67.0332 58.7584L66.8223 58.4688C50.8757 59.7679 36.0021 67.0208 25.1589 78.7854C14.3157 90.5499 8.29706 105.964 8.29981 121.964C8.29914 125.15 8.53511 128.332 9.00574 131.484C9.46665 134.558 10.1529 137.595 11.0589 140.568C15.8261 141.345 19.1392 140.696 21.9885 139.483C21.2397 136.856 20.6609 134.185 20.2557 131.484C19.7851 128.332 19.5491 125.15 19.5498 121.964C19.5299 109.141 23.3988 96.6129 30.646 86.0341L30.6474 86.0321L31.1486 85.3067C39.9463 72.8048 52.9432 63.8801 67.7707 60.1591C67.5935 59.6592 67.3451 59.1874 67.0332 58.7584V58.7584Z" fill="#3E61EE" fill-opacity="0.2"/>
<path d="M108.854 10.151C108.71 9.87825 108.492 9.6518 108.225 9.49789C107.958 9.34398 107.652 9.26891 107.344 9.28137H73.6867V7.21081C74.8117 6.65112 75.2055 5.67153 75.2055 4.55581C75.2081 4.14379 75.1294 3.7353 74.9738 3.35379C74.8182 2.97228 74.5888 2.62525 74.2987 2.33263C74.0087 2.04 73.6637 1.80754 73.2835 1.64859C72.9034 1.48964 72.4956 1.40733 72.0836 1.40637C71.401 1.40041 70.7347 1.61535 70.1843 2.01912C69.6339 2.42289 69.2288 2.99383 69.0295 3.64673C68.8302 4.29963 68.8473 4.99947 69.0784 5.64181C69.3095 6.28414 69.7421 6.83453 70.3117 7.21081V58.7814H73.6867V36.0001H107.344C107.661 35.9911 107.968 35.8958 108.234 35.7245C108.5 35.5533 108.714 35.3126 108.853 35.0285C108.992 34.7444 109.051 34.4277 109.023 34.1127C108.995 33.7976 108.881 33.4962 108.694 33.2411L100.682 22.5479L108.694 11.8914C108.882 11.6458 108.997 11.3521 109.025 11.0441C109.053 10.7362 108.994 10.4266 108.854 10.151V10.151ZM97.2226 21.5889C97.0033 21.8824 96.8848 22.2389 96.8848 22.6053C96.8848 22.9717 97.0033 23.3282 97.2226 23.6217L103.969 32.6251H73.968V12.6564H103.969L97.2226 21.5889Z" fill="#17E5C3"/>
<path d="M10.7875 142.235C12.1665 142.466 13.5621 142.585 14.9604 142.591C20.5508 142.591 24.0937 140.414 27.5398 138.356C31.1725 136.186 34.9283 133.875 41.5886 133.875H41.6248C48.781 133.875 52.2912 135.758 56.006 137.752C59.9258 139.857 63.978 142.031 71.9838 142.031H72.0243C80.0562 142.031 84.1113 139.866 88.0333 137.751C91.7509 135.746 95.262 133.875 102.443 133.875H102.472C109.116 133.875 112.87 136.141 116.5 138.3C120.735 140.817 125.114 143.437 133.248 142.107C133.559 142.058 133.85 141.922 134.088 141.715C134.326 141.508 134.5 141.238 134.591 140.936L134.62 140.848C137.558 131.074 138.168 120.748 136.4 110.696C134.632 100.644 130.536 91.1458 124.439 82.9608C118.342 74.7758 110.414 68.1317 101.289 63.5601C92.1639 58.9885 82.0954 56.6165 71.8892 56.6339C61.683 56.6512 51.6226 59.0575 42.5131 63.6601C33.4036 68.2626 25.498 74.9337 19.429 83.1394C13.3599 91.3451 9.29601 100.858 7.56245 110.915C5.82888 120.973 6.47381 131.297 9.44562 141.061C9.53747 141.363 9.71183 141.632 9.94897 141.84C10.1861 142.047 10.4766 142.184 10.7875 142.235V142.235ZM130.8 102.171L130.682 102.227C130.595 102.269 130.506 102.309 130.42 102.345L129.213 102.848C127.35 103.617 125.741 104.895 124.57 106.536C123.399 108.176 122.714 110.113 122.593 112.125L122.54 112.954C122.473 114.012 122.098 115.028 121.463 115.877C120.828 116.726 119.959 117.372 118.963 117.735L113.74 119.64C113.532 119.717 113.303 119.713 113.097 119.629C112.891 119.546 112.724 119.388 112.628 119.188L111.658 117.177C110.96 115.719 109.939 114.438 108.674 113.431C107.409 112.424 105.932 111.717 104.355 111.363C104.11 111.308 103.884 111.192 103.695 111.027C103.507 110.861 103.364 110.651 103.278 110.415L102.516 108.324C102.386 107.968 102.333 107.589 102.361 107.212C102.389 106.834 102.497 106.467 102.678 106.134L108.725 95.0011C109.729 93.1445 110.181 91.0392 110.026 88.9341C109.872 86.829 109.118 84.8122 107.853 83.1222C106.548 81.3856 104.766 80.065 102.725 79.3206C100.684 78.5763 98.4708 78.44 96.3538 78.9285L95.4131 79.1459C94.6942 79.3127 93.939 79.2082 93.2924 78.8525C93.1218 78.7608 92.983 78.6195 92.8944 78.4472C92.8059 78.2748 92.7718 78.0797 92.7966 77.8876L93.4997 74.0117C94.0745 70.856 94.876 67.7458 95.8979 64.7054C104.036 68.1243 111.356 73.232 117.372 79.6907C123.389 86.1494 127.966 93.812 130.801 102.172L130.8 102.171ZM28.1496 78.1128C38.2829 67.9217 51.6632 61.5981 65.9704 60.2386C66.3057 60.8757 66.4548 61.5945 66.4005 62.3125C66.3462 63.0304 66.0908 63.7186 65.6636 64.2981L64.0801 66.4559C63.8657 66.7469 63.5792 66.9769 63.2487 67.1233C62.9182 67.2697 62.5553 67.3274 62.1957 67.2906L60.3367 67.0974C58.6966 66.9259 57.0424 67.2424 55.5815 68.0071C54.1205 68.7719 52.9178 69.9509 52.1242 71.3963C51.9137 71.7537 51.6039 72.0422 51.2325 72.2267C50.861 72.4112 50.4439 72.4838 50.032 72.4355L45.7812 71.9973C44.1536 71.8212 42.5096 72.1147 41.0434 72.843C39.5773 73.5713 38.3503 74.7041 37.5073 76.1075C36.7403 77.3948 36.3549 78.8736 36.3961 80.3716C36.4372 81.8695 36.9033 83.3249 37.7399 84.5681L40.6278 88.8993C41.6705 90.4505 43.2591 91.552 45.0773 91.9846C46.8955 92.4172 48.81 92.1491 50.4395 91.2337L53.3119 89.6067C53.8635 89.296 54.486 89.133 55.1191 89.1334C55.7522 89.1338 56.3744 89.2976 56.9257 89.6089L62.5254 92.7918C63.0222 93.0774 63.5907 93.2141 64.1631 93.1856C66.0711 93.0813 67.9858 94.0468 69.2776 95.7604L72.0671 99.4611C72.2895 99.7564 72.528 100.047 72.7761 100.325L76.4084 104.4C76.4225 104.414 76.4327 104.432 76.438 104.451C76.4433 104.47 76.4436 104.49 76.4388 104.51C76.4171 104.555 76.3846 104.593 76.3443 104.622L71.1342 108.822C69.4661 110.162 68.2585 111.99 67.6801 114.05L66.032 119.882C65.9621 120.129 65.8437 120.361 65.6835 120.562L63.996 122.692C62.5219 124.523 61.6408 126.759 61.4701 129.103C61.4534 129.356 61.3469 129.596 61.1697 129.778L59.388 120.451C59.1032 118.969 58.4624 117.579 57.5208 116.401L51.342 108.683C50.9198 108.157 50.6026 107.554 50.4077 106.908L48.2623 99.8208C47.7982 98.3021 46.9494 96.9291 45.7982 95.8351C44.647 94.7411 43.2325 93.9633 41.6921 93.5771L41.2592 93.4694C40.6469 93.3169 40.0811 93.0171 39.6111 92.5961L36.5623 89.8593C35.7008 89.0667 34.931 88.1799 34.2673 87.2155C33.4145 86.0004 32.2985 84.9933 31.0025 84.2692C29.7066 83.545 28.264 83.1225 26.7822 83.033C25.8948 82.9869 25.0054 83.0661 24.1401 83.2682L23.4055 83.4327C24.8853 81.5714 26.4692 79.7953 28.1496 78.1128V78.1128ZM20.7086 87.0847C21.6585 87.1435 22.612 87.0678 23.5407 86.8597L24.8761 86.5605C25.4316 86.4281 26.003 86.3743 26.5735 86.4007C27.551 86.4603 28.5026 86.7396 29.3573 87.2179C30.212 87.6961 30.9478 88.3609 31.51 89.1629C32.3189 90.3331 33.257 91.4087 34.3064 92.3691L37.3566 95.1071C38.2378 95.8967 39.2987 96.4588 40.447 96.7445L40.8798 96.8523C41.8534 97.0963 42.7473 97.5878 43.4749 98.2792C44.2024 98.9706 44.7389 99.8383 45.0322 100.798L47.1773 107.884C47.4965 108.942 48.016 109.929 48.7076 110.791L54.8863 118.507C55.485 119.257 55.8924 120.14 56.0732 121.082L57.9328 130.817C58.0627 131.531 58.4372 132.178 58.992 132.645C59.4339 133.014 59.9706 133.252 60.5409 133.33C61.1112 133.408 61.6921 133.325 62.2171 133.089C62.9549 132.76 63.5888 132.236 64.0506 131.573C64.5125 130.91 64.7846 130.134 64.8378 129.328C64.9637 127.666 65.5929 126.082 66.6417 124.786L68.3292 122.657C68.7666 122.106 69.0899 121.474 69.2802 120.797L70.928 114.966C71.3172 113.58 72.1299 112.35 73.2525 111.448L78.463 107.248C79.1537 106.702 79.6189 105.921 79.7691 105.054C79.8551 104.538 79.8242 104.009 79.6786 103.507C79.5331 103.004 79.2766 102.541 78.9282 102.15L75.2961 98.0765C75.1099 97.8676 74.9305 97.6493 74.7634 97.4268L71.9734 93.7256C70.0328 91.1499 67.0943 89.6908 64.1105 89.8061L58.5941 86.6704C57.5346 86.0722 56.3387 85.7575 55.1221 85.7567C53.9054 85.7559 52.7091 86.0691 51.6489 86.6659L48.7767 88.293C47.8899 88.7913 46.8478 88.9373 45.8581 88.7018C44.8684 88.4663 44.0038 87.8667 43.4364 87.0223L40.5488 82.6924C40.0672 81.9843 39.7967 81.1539 39.7689 80.298C39.741 79.4421 39.957 78.5959 40.3916 77.858C40.9052 77.0023 41.6531 76.3116 42.5468 75.8673C43.4405 75.4231 44.4427 75.244 45.4349 75.3512L49.6863 75.7897C50.7582 75.9105 51.842 75.7122 52.8017 75.2197C53.7614 74.7272 54.5544 73.9624 55.0812 73.0211C55.5562 72.1575 56.2753 71.4532 57.1484 70.9961C58.0216 70.539 59.0102 70.3495 59.9905 70.4513L61.8495 70.6445C62.7943 70.7404 63.7478 70.5885 64.6161 70.2039C65.4844 69.8192 66.2375 69.215 66.8012 68.4508L68.3849 66.2927C69.0422 65.4005 69.4844 64.3684 69.6772 63.2771C69.87 62.1858 69.8082 61.0647 69.4964 60.0012C70.3284 59.9686 71.1626 59.9475 71.9996 59.9475C79.0659 59.9383 86.0819 61.1357 92.7451 63.4881C91.6489 66.7273 90.7913 70.0423 90.1793 73.4067L89.4725 77.2997C89.3247 78.1862 89.4566 79.0967 89.85 79.9047C90.2434 80.7127 90.8787 81.3781 91.6677 81.8085C93.0413 82.5646 94.6456 82.7874 96.1733 82.4343L97.1143 82.2166C98.5945 81.8751 100.142 81.9704 101.569 82.4909C102.996 83.0114 104.241 83.9347 105.154 85.1489C106.031 86.3214 106.554 87.7205 106.661 89.1809C106.768 90.6412 106.455 92.1017 105.758 93.3895L99.7111 104.523C99.3023 105.276 99.0582 106.107 98.9949 106.962C98.9316 107.816 99.0506 108.675 99.3441 109.48L100.107 111.571C100.384 112.337 100.851 113.021 101.462 113.56C102.074 114.099 102.811 114.475 103.607 114.653C104.689 114.896 105.703 115.381 106.571 116.072C107.439 116.763 108.139 117.642 108.619 118.642L109.589 120.654C110.046 121.609 110.844 122.36 111.826 122.759C112.808 123.157 113.903 123.176 114.897 122.81L120.119 120.905C121.731 120.317 123.137 119.273 124.165 117.9C125.193 116.526 125.799 114.883 125.908 113.171L125.961 112.342C126.045 110.959 126.516 109.627 127.32 108.5C128.125 107.372 129.231 106.494 130.512 105.965L131.721 105.461C131.746 105.45 131.771 105.438 131.795 105.427C134.798 116.404 134.751 127.992 131.661 138.944C125.419 139.712 122.07 137.686 118.224 135.4C114.389 133.118 110.044 130.5 102.471 130.5H102.44C94.4084 130.5 90.3531 132.666 86.4313 134.78C82.7138 136.785 79.2024 138.656 72.0209 138.656H71.9838C64.8277 138.656 61.318 136.773 57.6032 134.779C53.6837 132.674 49.6315 130.5 41.6248 130.5H41.5846C33.9954 130.5 29.6461 133.166 25.809 135.458C21.9655 137.754 18.6186 139.784 12.3701 139.022C9.87653 130.282 9.3309 121.101 10.7716 112.127C12.2124 103.153 15.6044 94.6042 20.7086 87.0839V87.0847Z" fill="#3E61EE"/>
</svg>
