<svg viewBox="0 0 144 144" fill="none" xmlns="http://www.w3.org/2000/svg">
<path d="M32.0572 96.472L32.1075 96.421V96.4014H25.3097C19.4128 96.4063 13.7594 98.7535 9.59316 102.927C5.42688 107.1 3.08898 112.757 3.09376 118.654V140.906H11.5313V118.654C11.5281 113.05 13.6407 107.652 17.4464 103.54C21.2521 99.4269 26.4703 96.9027 32.0572 96.472V96.472Z" fill="#3E61EE" fill-opacity="0.2"/>
<path d="M42.9238 90.6441C40.8903 89.7811 39.0532 88.5143 37.5238 86.9203C37.2397 86.625 36.9669 86.3194 36.7053 86.0035C35.0349 83.9775 33.8764 81.5794 33.3275 79.0116L31.8501 73.4974C31.0311 70.4406 30.6163 67.2897 30.6163 64.125V61.8272C33.5645 61.2216 36.3938 60.1376 38.9919 58.6182C41.9748 56.9287 44.5635 54.6231 46.5857 51.8549C44.4918 49.9209 42.9165 47.4924 42.0041 44.7919L41.7369 43.9932C39.861 51.6066 34.9757 56.0644 30.5544 58.6182C27.9563 60.1376 25.127 61.2216 22.1788 61.8272H21.2366C20.2997 61.8272 19.4012 62.1994 18.7387 62.8619C18.0763 63.5243 17.7041 64.4228 17.7041 65.3597C17.7041 66.2966 18.0763 67.1951 18.7387 67.8576C19.4012 68.5201 20.2997 68.8922 21.2366 68.8922H22.1788L24.89 79.0116C25.4389 81.5794 26.5974 83.9775 28.2679 86.0035C28.5294 86.3185 28.8022 86.6241 29.0863 86.9203C30.6157 88.5143 32.4528 89.7811 34.4863 90.6441C34.9616 90.8438 35.4482 91.021 35.9375 91.1813C37.0837 91.5711 38.2043 92.0323 39.2929 92.5622C39.8218 92.8335 40.4096 92.9695 41.004 92.9582C41.5983 92.9469 42.1805 92.7887 42.6988 92.4975C43.4828 92.1027 44.2869 91.7494 45.108 91.4389C44.8653 91.3492 44.6217 91.2612 44.375 91.1813C43.8857 91.021 43.3991 90.8438 42.9238 90.6441V90.6441Z" fill="#3E61EE" fill-opacity="0.2"/>
<path d="M108.776 22.2236C106.805 22.2038 104.879 22.8147 103.28 23.9671C101.681 25.1196 100.493 26.7531 99.8883 28.6291C99.7468 29.0537 99.7798 29.5171 99.98 29.9174C100.18 30.3177 100.531 30.6221 100.956 30.7636C101.38 30.9051 101.844 30.8722 102.244 30.672C102.644 30.4718 102.949 30.1208 103.09 29.6961C103.488 28.503 104.251 27.4653 105.272 26.7299C106.292 25.9945 107.518 25.5988 108.776 25.5988C110.033 25.5988 111.259 25.9945 112.279 26.7299C113.3 27.4653 114.063 28.503 114.461 29.6961C114.605 30.1172 114.91 30.4642 115.309 30.6617C115.708 30.8591 116.168 30.8909 116.591 30.7501C117.013 30.6094 117.363 30.3075 117.563 29.9103C117.764 29.513 117.8 29.0525 117.662 28.6291C117.058 26.7532 115.87 25.1198 114.271 23.9673C112.672 22.8149 110.747 22.2039 108.776 22.2236V22.2236Z" fill="#3E61EE"/>
<path d="M133.647 84.1562C132.413 84.1547 131.199 84.462 130.114 85.05C129.424 84.1052 128.453 83.4027 127.34 83.0431C126.227 82.6835 125.029 82.6852 123.917 83.0481C122.805 83.4109 121.836 84.1162 121.15 85.063C120.463 86.0098 120.093 87.1496 120.094 88.3193V91.3708C120.094 92.1541 119.783 92.9052 119.229 93.459C118.675 94.0128 117.924 94.324 117.141 94.324C116.357 94.324 115.606 94.0128 115.052 93.459C114.499 92.9052 114.187 92.1541 114.187 91.3708V70.3125H118.687V73.3107C118.687 74.2424 119.359 75.0938 120.291 75.0938H126V78.1723C126 79.1044 126.642 79.875 127.575 79.875H133.102C133.321 79.8717 133.536 79.8248 133.737 79.737C133.937 79.6492 134.118 79.5222 134.268 79.3637C134.419 79.2051 134.536 79.018 134.614 78.8134C134.691 78.6089 134.727 78.3909 134.719 78.1723V56.9886C134.719 56.8353 134.747 56.6834 134.739 56.5324C140.154 50.0547 142.937 41.779 142.538 33.3455C142.138 24.9121 138.584 16.9366 132.581 11C129.529 7.95337 125.907 5.53798 121.922 3.89184C117.936 2.2457 113.665 1.40109 109.353 1.40627C109.233 1.40627 109.111 1.40627 108.991 1.40824C104.491 1.45717 100.044 2.40039 95.9113 4.18306C91.7783 5.96572 88.0409 8.55226 84.9164 11.7923C78.6749 18.1893 75.3055 26.4375 75.427 35.0156C75.5364 42.7739 78.1245 50.1939 82.7902 56.0129C82.7354 56.3358 82.7011 56.6619 82.6875 56.9892V78.1729C82.7046 78.6297 82.8979 79.0622 83.227 79.3795C83.556 79.6969 83.9952 79.8745 84.4523 79.875H89.9795C90.4307 79.8724 90.8628 79.6923 91.1824 79.3737C91.502 79.0551 91.6834 78.6236 91.6875 78.1723V75.0938H97.2619C97.7243 75.0741 98.1617 74.8786 98.4848 74.5472C98.8079 74.2157 98.9922 73.7734 99 73.3107V70.3125H103.219V91.3708C103.219 92.1541 102.908 92.9052 102.354 93.459C101.8 94.0128 101.049 94.324 100.266 94.324C99.4824 94.324 98.7313 94.0128 98.1774 93.459C97.6236 92.9052 97.3125 92.1541 97.3125 91.3708V90.5063C97.3286 89.379 96.9883 88.2755 96.3403 87.353C95.6922 86.4305 94.7695 85.7361 93.7036 85.3689C92.6377 85.0017 91.4831 84.9804 90.4044 85.308C89.3257 85.6356 88.3779 86.2955 87.6963 87.1934C86.1413 85.8664 84.154 85.1549 82.1101 85.1935C79.8635 85.2477 77.7266 86.1761 76.1538 87.7811C74.5809 89.3862 73.6961 91.5415 73.6875 93.7887C73.6932 94.2334 73.8739 94.6579 74.1903 94.9702C74.5068 95.2826 74.9336 95.4578 75.3782 95.4578C75.8229 95.4578 76.2497 95.2826 76.5661 94.9702C76.8826 94.6579 77.0632 94.2334 77.069 93.7887C77.0757 92.4235 77.6142 91.1145 78.5703 90.1399C79.5264 89.1653 80.8248 88.6017 82.1897 88.5687C82.8725 88.5583 83.5504 88.685 84.1833 88.9413C84.8161 89.1977 85.3911 89.5786 85.8741 90.0613C86.3902 90.5682 86.8008 91.1724 87.0823 91.8388C87.3637 92.5053 87.5103 93.2208 87.5137 93.9443C87.5137 94.3918 87.6915 94.821 88.008 95.1375C88.3245 95.454 88.7537 95.6318 89.2012 95.6318C89.6488 95.6318 90.078 95.454 90.3945 95.1375C90.711 94.821 90.8887 94.3918 90.8887 93.9443C90.8859 92.619 90.5839 91.3116 90.0053 90.1193C90.0837 89.6203 90.3499 89.1702 90.7494 88.8612C91.1489 88.5522 91.6514 88.4076 92.1541 88.4571C92.6567 88.5065 93.1214 88.7463 93.453 89.1273C93.7845 89.5083 93.9579 90.0016 93.9375 90.5063V91.37C93.9375 93.0483 94.6042 94.6579 95.791 95.8447C96.9777 97.0314 98.5873 97.6981 100.266 97.6981C101.944 97.6981 103.554 97.0314 104.74 95.8447C105.927 94.6579 106.594 93.0483 106.594 91.37V70.3125H110.812V91.3708C110.812 93.0492 111.479 94.6587 112.666 95.8455C113.853 97.0323 115.462 97.699 117.141 97.699C118.819 97.699 120.429 97.0323 121.615 95.8455C122.802 94.6587 123.469 93.0492 123.469 91.3708V88.3193C123.469 87.8336 123.632 87.3621 123.932 86.9801C124.232 86.5981 124.651 86.3276 125.123 86.2119C125.595 86.0962 126.091 86.142 126.534 86.3419C126.977 86.5418 127.34 86.8843 127.565 87.3146C126.677 88.5675 126.201 90.0654 126.202 91.6009C126.202 92.0484 126.38 92.4777 126.696 92.7941C127.013 93.1106 127.442 93.2884 127.89 93.2884C128.337 93.2884 128.766 93.1106 129.083 92.7941C129.399 92.4777 129.577 92.0484 129.577 91.6009C129.577 90.5215 130.006 89.4864 130.769 88.7232C131.532 87.96 132.568 87.5312 133.647 87.5312C134.726 87.5312 135.761 87.96 136.525 88.7232C137.288 89.4864 137.717 90.5215 137.717 91.6009C137.717 92.0484 137.894 92.4777 138.211 92.7941C138.527 93.1106 138.957 93.2884 139.404 93.2884C139.852 93.2884 140.281 93.1106 140.597 92.7941C140.914 92.4777 141.092 92.0484 141.092 91.6009C141.089 89.6272 140.304 87.735 138.909 86.3394C137.513 84.9437 135.621 84.1586 133.647 84.1562V84.1562ZM118.687 66.9375H114.187V62.7188H118.687V66.9375ZM131.344 76.5H129.375V75.0938H131.344V76.5ZM131.344 71.7188H122.062V70.3125H131.344V71.7188ZM131.344 66.9375H122.062V50.9457C123.501 52.0613 125.271 52.665 127.092 52.6613C127.656 52.6634 128.214 52.7774 128.734 52.9965C129.254 53.2157 129.725 53.5357 130.12 53.9381C130.516 54.3405 130.827 54.8173 131.037 55.3409C131.247 55.8645 131.352 56.4245 131.344 56.9886V66.9375ZM88.3125 76.5H86.0625V75.0938H88.3125V76.5ZM95.625 71.7188H86.0625V70.3125H95.625V71.7188ZM95.625 66.9375H86.0625V56.9886C86.078 55.8343 86.5478 54.7327 87.3701 53.9225C88.1923 53.1123 89.3007 52.6587 90.4551 52.6601C92.3187 52.6645 94.1332 52.0627 95.625 50.9457V66.9375ZM98.4532 19.035C96.615 24.2128 95.625 27.0647 95.625 34.4931V44.1791C95.6179 45.5354 95.0742 46.8338 94.1127 47.7906C93.1513 48.7473 91.8502 49.2846 90.4939 49.2851C89.2959 49.2851 88.1144 49.5639 87.0428 50.0994C85.9711 50.6349 85.0388 51.4124 84.3196 52.3705C80.7876 47.249 78.8678 41.1883 78.8071 34.9673C78.6985 27.2925 81.7245 19.899 87.3335 14.1489C90.1485 11.2278 93.5163 8.89557 97.2408 7.28773C100.965 5.6799 104.972 4.82857 109.029 4.78324C112.955 4.73924 116.85 5.47861 120.487 6.95809C124.123 8.43757 127.428 10.6275 130.209 13.3996C135.35 18.4838 138.508 25.237 139.112 32.4427C139.715 39.6485 137.726 46.833 133.502 52.7021C132.803 51.6516 131.855 50.7902 130.743 50.1941C129.63 49.5981 128.388 49.286 127.126 49.2854C126.458 49.2837 125.797 49.1501 125.181 48.8923C124.564 48.6345 124.005 48.2577 123.535 47.7833C123.064 47.3089 122.692 46.7464 122.44 46.128C122.187 45.5095 122.059 44.8473 122.063 44.1793V34.4931C122.063 27.0647 121.009 24.2128 119.171 19.035C118.737 17.8124 118.224 16.4267 117.685 14.8118C117.062 12.9462 115.867 11.324 114.271 10.1745C112.675 9.02504 110.757 8.40657 108.79 8.40657C106.823 8.40657 104.906 9.02504 103.31 10.1745C101.714 11.324 100.519 12.9462 99.8955 14.8118C99.3563 16.4267 98.8875 17.8124 98.4532 19.035V19.035ZM103.219 66.9375H99V62.7188H103.219V66.9375ZM110.812 66.9375H106.594V62.7188H110.812V66.9375ZM99 59.3438V34.4931C99 27.6461 99.8072 25.3013 101.631 20.1642C102.07 18.9267 102.555 17.525 103.104 15.8788C103.501 14.6859 104.263 13.648 105.282 12.9126C106.302 12.1771 107.527 11.7813 108.784 11.7813C110.042 11.7813 111.267 12.1771 112.286 12.9126C113.306 13.648 114.068 14.6859 114.465 15.8788C115.014 17.525 115.552 18.927 115.991 20.1642C117.816 25.3013 118.687 27.6469 118.687 34.4931V59.3438H99Z" fill="#3E61EE"/>
<path d="M69.9643 24.3472C70.1752 24.4154 70.3975 24.4414 70.6184 24.4237C70.8394 24.4059 71.0546 24.3447 71.2519 24.2436C71.4491 24.1426 71.6245 24.0036 71.768 23.8346C71.9115 23.6657 72.0202 23.4701 72.088 23.259C73.5657 18.7478 76.0797 14.6456 79.4287 11.2812C79.5879 11.1245 79.7145 10.9378 79.8011 10.7318C79.8876 10.5258 79.9324 10.3047 79.9328 10.0813C79.9332 9.85784 79.8893 9.63656 79.8035 9.43026C79.7177 9.22396 79.5918 9.03674 79.4331 8.87948C79.2744 8.72222 79.0861 8.59803 78.879 8.51413C78.6719 8.43023 78.4503 8.38828 78.2269 8.39073C78.0034 8.39317 77.7827 8.43995 77.5776 8.52836C77.3724 8.61677 77.1868 8.74504 77.0316 8.90574C73.3096 12.6466 70.5162 17.2078 68.8753 22.2232C68.8073 22.4342 68.7815 22.6565 68.7995 22.8774C68.8174 23.0983 68.8787 23.3136 68.9798 23.5108C69.0809 23.708 69.2199 23.8834 69.3889 24.0269C69.5578 24.1704 69.7533 24.2793 69.9643 24.3472V24.3472Z" fill="#3E61EE"/>
<path d="M69.0384 34.0313H69.0628C69.2859 34.0268 69.5059 33.9783 69.7102 33.8887C69.9145 33.7992 70.0992 33.6702 70.2536 33.5092C70.4081 33.3483 70.5293 33.1584 70.6104 32.9506C70.6915 32.7428 70.7308 32.521 70.7262 32.2979C70.7094 31.0833 70.7715 29.8688 70.9121 28.6622C70.9652 28.2177 70.8396 27.7703 70.5629 27.4184C70.2862 27.0666 69.881 26.839 69.4365 26.7859C68.992 26.7327 68.5446 26.8583 68.1927 27.1351C67.8408 27.4118 67.6133 27.817 67.5601 28.2614C67.4022 29.6173 67.3326 30.982 67.3517 32.3469C67.3571 32.7923 67.5366 33.218 67.8518 33.5327C68.1671 33.8475 68.5929 34.0265 69.0384 34.0313Z" fill="#3E61EE"/>
<path d="M84.9202 46.2338C86.1494 46.2338 87.146 45.2373 87.146 44.008C87.146 42.7788 86.1494 41.7822 84.9202 41.7822C83.6909 41.7822 82.6943 42.7788 82.6943 44.008C82.6943 45.2373 83.6909 46.2338 84.9202 46.2338Z" fill="#3E61EE"/>
<path d="M90.302 35.1982C91.5313 35.1982 92.5278 34.2017 92.5278 32.9724C92.5278 31.7431 91.5313 30.7466 90.302 30.7466C89.0727 30.7466 88.0762 31.7431 88.0762 32.9724C88.0762 34.2017 89.0727 35.1982 90.302 35.1982Z" fill="#3E61EE"/>
<path d="M133.099 42.7348C134.328 42.7348 135.325 41.7383 135.325 40.509C135.325 39.2797 134.328 38.2832 133.099 38.2832C131.87 38.2832 130.873 39.2797 130.873 40.509C130.873 41.7383 131.87 42.7348 133.099 42.7348Z" fill="#3E61EE"/>
<path d="M126.101 30.2085C125.661 30.2085 125.23 30.339 124.864 30.5836C124.498 30.8282 124.213 31.1759 124.044 31.5826C123.876 31.9893 123.832 32.4369 123.918 32.8686C124.004 33.3004 124.216 33.697 124.527 34.0083C124.838 34.3196 125.235 34.5315 125.667 34.6174C126.099 34.7032 126.546 34.6591 126.953 34.4906C127.359 34.3221 127.707 34.0368 127.952 33.6707C128.196 33.3046 128.327 32.8743 128.327 32.434C128.326 31.8439 128.091 31.2782 127.674 30.861C127.257 30.4437 126.691 30.2091 126.101 30.2085V30.2085Z" fill="#3E61EE"/>
<path d="M129.869 22.0092C131.099 22.0092 132.095 21.0127 132.095 19.7834C132.095 18.5541 131.099 17.5576 129.869 17.5576C128.64 17.5576 127.644 18.5541 127.644 19.7834C127.644 21.0127 128.64 22.0092 129.869 22.0092Z" fill="#3E61EE"/>
<path d="M87.342 25.5088C88.5713 25.5088 89.5678 24.5122 89.5678 23.2829C89.5678 22.0537 88.5713 21.0571 87.342 21.0571C86.1127 21.0571 85.1162 22.0537 85.1162 23.2829C85.1162 24.5122 86.1127 25.5088 87.342 25.5088Z" fill="#3E61EE"/>
<path d="M55.3887 126.562C55.3887 127.01 55.5665 127.439 55.8829 127.756C56.1994 128.072 56.6286 128.25 57.0762 128.25H71.9596C72.4072 128.25 72.8364 128.072 73.1529 127.756C73.4693 127.439 73.6471 127.01 73.6471 126.562C73.6471 126.115 73.4693 125.686 73.1529 125.369C72.8364 125.053 72.4072 124.875 71.9596 124.875H57.0762C56.6286 124.875 56.1994 125.053 55.8829 125.369C55.5665 125.686 55.3887 126.115 55.3887 126.562Z" fill="#17E5C3"/>
<path d="M56.4092 94.7809H56.1724C59.0478 93.4936 61.4886 91.4005 63.1994 88.7551C64.9103 86.1097 65.8179 83.0251 65.8125 79.8747V73.6658C68.0322 71.2114 69.2637 68.0215 69.2693 64.7123C69.2749 61.403 68.0542 58.209 65.8429 55.7471C65.6597 49.2681 62.9567 43.1161 58.3085 38.599C53.6604 34.0819 47.4336 31.5559 40.9521 31.5581C34.4705 31.5603 28.2455 34.0905 23.6004 38.6108C18.9552 43.1311 16.2564 49.2849 16.0777 55.7639C11.1125 61.2427 11.25 69.5148 16.0312 74.9415V80.3832C16.0312 86.7588 19.9353 92.2497 25.4067 94.7809H25.3091C18.974 94.7776 12.897 97.2907 8.41455 101.767C3.93207 106.244 1.41117 112.318 1.40625 118.653V140.906C1.40625 141.353 1.58404 141.783 1.90051 142.099C2.21697 142.416 2.6462 142.593 3.09375 142.593H78.624C79.5558 142.593 80.4375 141.838 80.4375 140.906V118.653C80.4375 105.452 69.5891 94.7809 56.4092 94.7809ZM62.9578 71.8C62.6339 72.1137 62.4469 72.5425 62.4375 72.9933V79.8747C62.4396 82.6241 61.5588 85.3016 59.9248 87.5128C58.2909 89.7241 55.9901 91.3523 53.3613 92.1577C54.2773 90.6046 55.105 88.7017 55.1185 86.8381C56.9049 84.6399 58.1489 82.0521 58.75 79.284L61.0942 70.567C62.0773 70.4978 63.0207 70.1522 63.8158 69.57C64.6108 68.9877 65.2251 68.1926 65.5878 67.2763C65.1273 68.9906 64.2197 70.5517 62.9578 71.8V71.8ZM46.694 89.0344L46.3897 89.1587C46.1663 89.2504 45.9374 89.3373 45.709 89.418C44.4157 89.8565 43.1538 90.3827 41.9321 90.993C41.643 91.1676 41.3131 91.263 40.9755 91.27C40.6379 91.2769 40.3044 91.195 40.0084 91.0324C38.8572 90.4734 37.6722 89.9868 36.4604 89.5755C35.9848 89.4211 35.5551 89.2617 35.1464 89.0884C32.9804 88.1677 31.0678 86.7394 29.5699 84.9241C28.072 83.1087 27.0328 80.9596 26.5402 78.6583C26.5342 78.6301 26.5275 78.602 26.5202 78.5739L23.8089 68.4607C23.7124 68.1024 23.5 67.7862 23.205 67.5611C22.9099 67.3361 22.5487 67.2151 22.1777 67.2167H21.2383C20.7535 67.2167 20.2885 67.0241 19.9456 66.6813C19.6028 66.3384 19.4102 65.8735 19.4102 65.3886C19.4102 64.9038 19.6028 64.4388 19.9456 64.0959C20.2885 63.7531 20.7535 63.5605 21.2383 63.5605H22.1785C22.2711 63.5522 22.3629 63.5365 22.453 63.5135C25.6021 62.8695 28.6242 61.713 31.3987 60.0901C36.2112 57.3086 39.7848 53.4062 41.9096 48.6714C44.2898 52.8143 48.1598 55.894 52.7313 57.2833C52.9943 57.3625 53.2726 57.3764 53.5422 57.3238C53.8118 57.2713 54.0645 57.1538 54.2784 56.9815C54.4923 56.8093 54.6611 56.5875 54.77 56.3353C54.8789 56.0832 54.9247 55.8083 54.9034 55.5344L54.3729 48.459C56.2039 50.2469 58.2188 53.5997 58.2188 59.5009V61.8274C58.2084 62.2756 58.3758 62.7096 58.6845 63.0346C58.9932 63.3597 59.418 63.5494 59.866 63.5622H60.741C61.2258 63.5622 61.6908 63.7548 62.0337 64.0976C62.3765 64.4404 62.5691 64.9054 62.5691 65.3903C62.5691 65.8751 62.3765 66.3401 62.0337 66.683C61.6908 67.0258 61.2258 67.2184 60.741 67.2184H59.8005C59.4298 67.217 59.0691 67.3381 58.7743 67.5628C58.4796 67.7876 58.2674 68.1034 58.1707 68.4613L55.4861 78.4535C55.4788 78.4816 55.4718 78.5081 55.4659 78.5379C54.9682 80.8692 53.9091 83.0438 52.3805 84.873C50.8518 86.7022 48.8999 88.1307 46.694 89.0344V89.0344ZM47.8125 92.1768V96.9761C47.8306 97.8867 47.7552 98.7968 47.5875 99.6921C46.8584 100.827 45.856 101.76 44.6724 102.406C43.4888 103.052 42.1618 103.391 40.8132 103.391C39.4646 103.391 38.1376 103.052 36.954 102.406C35.7703 101.76 34.768 100.827 34.0388 99.6921C33.8498 98.799 33.753 97.8889 33.75 96.9761V92.1805C33.75 92.1855 33.7947 92.1914 33.8062 92.1965C34.3063 92.4086 34.8373 92.6015 35.4074 92.7871C36.4873 93.1562 37.5435 93.5911 38.5701 94.0896C39.3332 94.4707 40.1772 94.6615 41.03 94.6457C41.8829 94.6299 42.7192 94.4081 43.4678 93.999C44.5556 93.4576 45.679 92.9905 46.8301 92.6012C47.1113 92.5022 47.3363 92.3948 47.6128 92.282L47.8125 92.1768ZM19.4062 80.3832V74.2671C19.4137 74.0481 19.3775 73.8298 19.2997 73.625C19.2219 73.4202 19.1041 73.2329 18.9532 73.074C16.961 71.0849 15.8166 68.4015 15.7602 65.5868C15.7038 62.7722 16.7397 60.045 18.6505 57.9777L19.0344 57.5704C19.3212 57.2596 19.4812 56.8528 19.483 56.4299C19.5036 50.7404 21.7782 45.291 25.8086 41.2751C29.839 37.2593 35.2966 35.0045 40.9861 35.0045C46.6757 35.0045 52.1333 37.2593 56.1637 41.2751C60.1941 45.291 62.4687 50.7404 62.4893 56.4299C62.4893 56.6516 62.5331 56.8711 62.618 57.0759C62.703 57.2806 62.8274 57.4666 62.9843 57.6233C64.8541 59.4832 65.9096 62.009 65.9191 64.6464C65.7622 63.5428 65.2587 62.5176 64.4812 61.7187C63.7038 60.9198 62.6927 60.3887 61.5938 60.2018V59.551C61.875 47.0072 53.3782 43.6505 53.0184 43.5135C52.7518 43.4118 52.4638 43.3789 52.181 43.418C51.8983 43.4571 51.63 43.5669 51.401 43.7372C51.172 43.9076 50.9896 44.1329 50.8708 44.3924C50.7519 44.6519 50.7005 44.9372 50.7212 45.2218L51.3315 53.1047C47.6877 51.2905 44.9102 48.1077 43.6061 44.2518L43.353 43.5048C43.2459 43.1425 43.0203 42.8267 42.7124 42.6078C42.4045 42.3889 42.032 42.2797 41.6547 42.2976C41.2773 42.3155 40.9169 42.4596 40.6311 42.7066C40.3453 42.9537 40.1507 43.2895 40.0784 43.6604C38.6381 49.44 35.1847 53.9856 29.8094 57.1238C26.1087 59.2852 22.6969 59.9059 22.0241 60.1872H21.2383C19.8922 60.1914 18.6001 60.7171 17.6334 61.6539C16.6668 62.5908 16.1008 63.8658 16.0545 65.2111C16.0081 66.5565 16.485 67.8674 17.3849 68.8685C18.2848 69.8697 19.5376 70.4831 20.8803 70.5799L23.249 79.4145C23.9173 82.4876 25.3776 85.3324 27.4852 87.6667C27.6929 89.2615 28.0967 90.8247 28.6875 92.3205C26.0397 91.6345 23.6933 90.0915 22.0144 87.9321C20.3355 85.7727 19.4184 83.1184 19.4062 80.3832V80.3832ZM34.3125 139.218H4.78125V118.653C4.78321 115.959 5.31574 113.292 6.34843 110.804C7.38113 108.316 8.89376 106.056 10.8 104.153C12.7062 102.249 14.9686 100.74 17.4581 99.7113C19.9476 98.6823 22.6154 98.1538 25.3091 98.1559H28.0856L21.8874 104.392C21.7298 104.548 21.6055 104.735 21.5218 104.941C21.4381 105.146 21.3969 105.367 21.4006 105.589C21.4042 105.812 21.4526 106.032 21.543 106.236C21.6333 106.44 21.7637 106.624 21.9265 106.777L29.8628 114.301L26.962 117.527C26.6733 117.849 26.5191 118.269 26.531 118.701C26.5429 119.133 26.7202 119.544 27.0262 119.849L31.4814 124.298C33.2907 126.114 34.3084 128.572 34.3125 131.136V139.218ZM39.0938 139.218H37.6875V131.136C37.6805 127.675 36.3056 124.358 33.8625 121.907L30.5381 118.588L33.4688 115.33C33.7627 115.003 33.9176 114.575 33.9004 114.135C33.8833 113.696 33.6954 113.281 33.3768 112.978L25.4987 105.505L30.7325 100.21C31.3431 103.381 32.8752 106.301 35.1371 108.605L39.0938 112.668V139.218ZM37.6543 106.312C39.7479 106.919 41.9709 106.919 44.0646 106.312L40.8583 109.572L37.6543 106.312ZM43.5938 139.218H42.4688V112.668L46.5033 108.605C48.7859 106.301 50.3393 103.376 50.9695 100.194L56.2303 105.506L48.3553 112.979C48.0371 113.282 47.8497 113.697 47.8331 114.136C47.8164 114.576 47.9718 115.004 48.2662 115.33L51.1945 118.59L47.4134 122.372C46.1977 123.579 45.234 125.017 44.5783 126.6C43.9226 128.183 43.5879 129.881 43.5938 131.595V139.218ZM77.0625 139.218H46.9688V131.595C46.9641 130.325 47.2118 129.067 47.6975 127.894C48.1831 126.72 48.8969 125.655 49.7976 124.76L54.7169 119.848C55.0226 119.542 55.1993 119.131 55.2108 118.699C55.2223 118.267 55.0675 117.847 54.7785 117.526L51.8766 114.296L59.8126 106.768C59.9755 106.614 60.1059 106.428 60.1962 106.223C60.2865 106.017 60.3349 105.796 60.3385 105.571C60.342 105.352 60.3005 105.134 60.2167 104.931C60.133 104.729 60.0087 104.545 59.8514 104.392L53.6532 98.1559H56.4095C67.7281 98.1559 77.0625 107.313 77.0625 118.653V139.218Z" fill="#17E5C3"/>
<path d="M34.7211 66.353C34.2735 66.353 33.8443 66.5308 33.5278 66.8473C33.2113 67.1638 33.0336 67.593 33.0336 68.0405C33.0358 68.1741 33.0114 68.3068 32.9618 68.4309C32.9123 68.5549 32.8385 68.6679 32.7448 68.7631C32.6511 68.8584 32.5394 68.9341 32.4162 68.9857C32.293 69.0374 32.1607 69.0639 32.0271 69.0639C31.8935 69.0639 31.7612 69.0374 31.638 68.9857C31.5148 68.9341 31.4031 68.8584 31.3094 68.7631C31.2157 68.6679 31.142 68.5549 31.0924 68.4309C31.0428 68.3068 31.0184 68.1741 31.0206 68.0405C31.0206 67.593 30.8429 67.1638 30.5264 66.8473C30.2099 66.5308 29.7807 66.353 29.3331 66.353C28.8856 66.353 28.4564 66.5308 28.1399 66.8473C27.8234 67.1638 27.6456 67.593 27.6456 68.0405C27.641 68.6189 27.7509 69.1924 27.969 69.728C28.1871 70.2637 28.5091 70.7509 28.9165 71.1615C29.3238 71.572 29.8083 71.8979 30.3422 72.1203C30.8761 72.3427 31.4487 72.4572 32.0271 72.4572C32.6055 72.4572 33.1781 72.3427 33.712 72.1203C34.2459 71.8979 34.7304 71.572 35.1377 71.1615C35.5451 70.7509 35.8671 70.2637 36.0852 69.728C36.3033 69.1924 36.4132 68.6189 36.4086 68.0405C36.4086 67.593 36.2308 67.1638 35.9143 66.8473C35.5978 66.5308 35.1686 66.353 34.7211 66.353V66.353Z" fill="#17E5C3"/>
<path d="M54.3324 68.0405C54.3324 67.593 54.1546 67.1638 53.8381 66.8473C53.5217 66.5308 53.0924 66.353 52.6449 66.353C52.1973 66.353 51.7681 66.5308 51.4516 66.8473C51.1352 67.1638 50.9574 67.593 50.9574 68.0405C50.9596 68.1741 50.9352 68.3068 50.8857 68.4309C50.8361 68.5549 50.7623 68.6679 50.6686 68.7631C50.5749 68.8584 50.4632 68.9341 50.34 68.9857C50.2168 69.0374 50.0845 69.0639 49.9509 69.0639C49.8173 69.0639 49.6851 69.0374 49.5618 68.9857C49.4386 68.9341 49.3269 68.8584 49.2332 68.7631C49.1396 68.6679 49.0658 68.5549 49.0162 68.4309C48.9666 68.3068 48.9422 68.1741 48.9445 68.0405C48.9445 67.593 48.7667 67.1638 48.4502 66.8473C48.1338 66.5308 47.7045 66.353 47.257 66.353C46.8094 66.353 46.3802 66.5308 46.0637 66.8473C45.7473 67.1638 45.5695 67.593 45.5695 68.0405C45.5648 68.6189 45.6747 69.1924 45.8929 69.728C46.111 70.2637 46.433 70.7509 46.8403 71.1615C47.2476 71.572 47.7322 71.8979 48.2661 72.1203C48.7999 72.3427 49.3726 72.4572 49.9509 72.4572C50.5293 72.4572 51.1019 72.3427 51.6358 72.1203C52.1697 71.8979 52.6543 71.572 53.0616 71.1615C53.4689 70.7509 53.7909 70.2637 54.009 69.728C54.2271 69.1924 54.337 68.6189 54.3324 68.0405V68.0405Z" fill="#17E5C3"/>
<path d="M34.3307 47.0087C34.5143 47.1329 34.7205 47.2198 34.9376 47.2643C35.1547 47.3088 35.3784 47.3101 35.596 47.2681C35.8136 47.2261 36.0209 47.1417 36.2058 47.0196C36.3908 46.8976 36.5499 46.7403 36.6741 46.5568C37.4718 45.3802 38.156 44.1305 38.7174 42.8246C38.8088 42.6202 38.8586 42.3997 38.8639 42.176C38.8692 41.9522 38.83 41.7296 38.7485 41.5211C38.667 41.3127 38.5448 41.1225 38.3891 40.9617C38.2333 40.8009 38.0472 40.6727 37.8414 40.5846C37.6357 40.4965 37.4144 40.4501 37.1906 40.4483C36.9668 40.4465 36.7448 40.4892 36.5377 40.574C36.3305 40.6588 36.1423 40.7839 35.984 40.9422C35.8257 41.1004 35.7004 41.2885 35.6155 41.4957C35.1381 42.6048 34.5566 43.6661 33.8788 44.6653C33.7546 44.8489 33.6677 45.0551 33.6232 45.2722C33.5787 45.4893 33.5774 45.713 33.6194 45.9306C33.6614 46.1482 33.7458 46.3555 33.8678 46.5404C33.9899 46.7254 34.1472 46.8845 34.3307 47.0087V47.0087Z" fill="#17E5C3"/>
<path d="M24.1709 56.3345C24.3739 56.3345 29.1827 56.2732 32.8111 50.9441C32.9359 50.7609 33.0233 50.5549 33.0684 50.3379C33.1135 50.1209 33.1155 49.8972 33.0741 49.6795C33.0328 49.4617 32.949 49.2543 32.8275 49.0689C32.7059 48.8836 32.5491 48.724 32.3659 48.5993C32.1827 48.4745 31.9768 48.3871 31.7598 48.342C31.5428 48.2969 31.319 48.2949 31.1013 48.3363C30.8836 48.3776 30.6761 48.4614 30.4908 48.583C30.3054 48.7045 30.1459 48.8613 30.0211 49.0445C27.4561 52.8132 24.3219 52.9539 24.1534 52.9595C23.7059 52.9618 23.2776 53.1418 22.9627 53.4599C22.6479 53.778 22.4723 54.2082 22.4746 54.6557C22.4769 55.1033 22.657 55.5316 22.9751 55.8464C23.2932 56.1612 23.7233 56.3368 24.1709 56.3345V56.3345Z" fill="#17E5C3"/>
</svg>
