<svg viewBox="0 0 144 144" fill="none" xmlns="http://www.w3.org/2000/svg">
<path d="M20.5245 55.6575C19.6159 55.3505 18.7907 54.8372 18.1137 54.1578C17.4366 53.4785 16.9261 52.6516 16.6221 51.742C16.5103 51.4057 16.2955 51.1131 16.008 50.9058C15.7206 50.6985 15.3752 50.5869 15.0208 50.5869C14.6665 50.5869 14.3211 50.6985 14.0336 50.9058C13.7462 51.1131 13.5314 51.4057 13.4195 51.742C13.1154 52.6517 12.6047 53.4787 11.9276 54.158C11.2504 54.8374 10.4251 55.3507 9.51635 55.6578C9.18078 55.7701 8.88899 55.985 8.68224 56.2722C8.4755 56.5594 8.36426 56.9043 8.36426 57.2581C8.36426 57.612 8.4755 57.9569 8.68224 58.2441C8.88899 58.5312 9.18078 58.7462 9.51635 58.8584C10.4251 59.1656 11.2503 59.6791 11.9274 60.3586C12.6044 61.038 13.115 61.8651 13.419 62.7748C13.5307 63.1112 13.7456 63.4039 14.033 63.6113C14.3205 63.8187 14.666 63.9303 15.0204 63.9303C15.3749 63.9303 15.7203 63.8187 16.0078 63.6113C16.2953 63.4039 16.5101 63.1112 16.6219 62.7748C16.9258 61.8651 17.4363 61.0381 18.1134 60.3587C18.7905 59.6793 19.6158 59.166 20.5245 58.859C20.8601 58.7467 21.1518 58.5318 21.3586 58.2446C21.5653 57.9574 21.6766 57.6125 21.6766 57.2587C21.6766 56.9048 21.5653 56.5599 21.3586 56.2727C21.1518 55.9856 20.8601 55.7706 20.5245 55.6584V55.6575ZM15.019 58.7653C14.5744 58.209 14.0698 57.7035 13.5143 57.2578C14.0699 56.8123 14.5745 56.3067 15.019 55.7503C15.4634 56.3068 15.9681 56.8124 16.5237 57.2578C15.9681 57.7033 15.4634 58.2089 15.019 58.7653V58.7653Z" fill="#3E61EE"/>
<path d="M117.258 79.5091C116.349 79.2021 115.524 78.6888 114.847 78.0095C114.169 77.3301 113.659 76.5032 113.355 75.5935C113.243 75.2572 113.028 74.9647 112.741 74.7574C112.453 74.55 112.108 74.4385 111.753 74.4385C111.399 74.4385 111.054 74.55 110.766 74.7574C110.479 74.9647 110.264 75.2572 110.152 75.5935C109.848 76.5033 109.338 77.3302 108.66 78.0096C107.983 78.6889 107.158 79.2022 106.249 79.5091C105.914 79.6213 105.622 79.8362 105.415 80.1234C105.208 80.4106 105.097 80.7556 105.097 81.1095C105.097 81.4635 105.208 81.8084 105.415 82.0957C105.622 82.3829 105.914 82.5978 106.249 82.71C107.158 83.0169 107.983 83.53 108.66 84.2092C109.337 84.8884 109.848 85.7151 110.152 86.6247C110.264 86.961 110.479 87.2535 110.766 87.4609C111.054 87.6682 111.399 87.7798 111.753 87.7798C112.108 87.7798 112.453 87.6682 112.741 87.4609C113.028 87.2535 113.243 86.961 113.355 86.6247C113.659 85.7149 114.169 84.888 114.847 84.2086C115.524 83.5292 116.349 83.0159 117.258 82.7089C117.594 82.5967 117.885 82.3817 118.092 82.0945C118.299 81.8073 118.41 81.4623 118.41 81.1084C118.41 80.7545 118.299 80.4095 118.092 80.1223C117.885 79.8351 117.594 79.6202 117.258 79.508V79.5091ZM111.754 82.6172C111.309 82.0607 110.804 81.5551 110.249 81.1097C110.804 80.6642 111.309 80.1586 111.754 79.6022C112.198 80.1586 112.703 80.6641 113.259 81.1097C112.703 81.5552 112.198 82.0609 111.754 82.6175V82.6172Z" fill="#3E61EE"/>
<path d="M93.7371 130.858C92.8284 130.551 92.0031 130.038 91.326 129.359C90.6489 128.679 90.1384 127.852 89.8345 126.943C89.7227 126.606 89.5079 126.314 89.2204 126.106C88.933 125.899 88.5875 125.787 88.233 125.787C87.8786 125.787 87.5331 125.899 87.2456 126.106C86.9582 126.314 86.7434 126.606 86.6316 126.943C86.3276 127.852 85.817 128.679 85.1398 129.359C84.4627 130.038 83.6374 130.551 82.7287 130.858C82.393 130.97 82.1011 131.185 81.8943 131.472C81.6875 131.76 81.5762 132.105 81.5762 132.459C81.5762 132.813 81.6875 133.158 81.8943 133.445C82.1011 133.732 82.393 133.947 82.7287 134.059C83.6374 134.366 84.4627 134.879 85.1398 135.559C85.8169 136.238 86.3275 137.065 86.6316 137.975C86.7434 138.311 86.9582 138.604 87.2456 138.811C87.5331 139.019 87.8786 139.13 88.233 139.13C88.5875 139.13 88.933 139.019 89.2204 138.811C89.5079 138.604 89.7227 138.311 89.8345 137.975C90.1384 137.065 90.649 136.238 91.3261 135.559C92.0031 134.879 92.8284 134.366 93.7371 134.059C94.0728 133.947 94.3647 133.732 94.5715 133.445C94.7783 133.158 94.8896 132.813 94.8896 132.459C94.8896 132.105 94.7783 131.76 94.5715 131.472C94.3647 131.185 94.0728 130.97 93.7371 130.858V130.858ZM88.233 133.966C87.7885 133.41 87.2836 132.904 86.7278 132.459C87.2836 132.013 87.7885 131.508 88.233 130.951C88.6774 131.508 89.182 132.013 89.7374 132.459C89.1819 132.904 88.6774 133.41 88.233 133.966V133.966Z" fill="#3E61EE"/>
<path d="M57.296 12.9229C56.3873 12.6158 55.562 12.1025 54.8849 11.4231C54.2078 10.7437 53.6973 9.91677 53.3933 9.00703C53.2816 8.67065 53.0667 8.37799 52.7793 8.17059C52.4918 7.96318 52.1464 7.85156 51.7919 7.85156C51.4374 7.85156 51.092 7.96318 50.8045 8.17059C50.5171 8.37799 50.3022 8.67065 50.1905 9.00703C49.8863 9.91677 49.3757 10.7437 48.6985 11.4231C48.0213 12.1025 47.196 12.6158 46.2873 12.9229C45.9516 13.0351 45.6597 13.25 45.4529 13.5372C45.2461 13.8244 45.1348 14.1694 45.1348 14.5233C45.1348 14.8773 45.2461 15.2222 45.4529 15.5095C45.6597 15.7967 45.9516 16.0116 46.2873 16.1238C47.196 16.4308 48.0214 16.944 48.6985 17.6234C49.3757 18.3027 49.8864 19.1296 50.1905 20.0393C50.3023 20.3756 50.5171 20.6682 50.8046 20.8755C51.092 21.0828 51.4374 21.1944 51.7918 21.1944C52.1462 21.1944 52.4916 21.0828 52.779 20.8755C53.0664 20.6682 53.2812 20.3756 53.3931 20.0393C53.697 19.1296 54.2076 18.3027 54.8848 17.6233C55.5619 16.944 56.3872 16.4307 57.296 16.1238C57.6316 16.0116 57.9235 15.7967 58.1304 15.5095C58.3372 15.2222 58.4485 14.8773 58.4485 14.5233C58.4485 14.1694 58.3372 13.8244 58.1304 13.5372C57.9235 13.25 57.6316 13.0351 57.296 12.9229V12.9229ZM51.7916 16.0315C51.347 15.4752 50.8424 14.9696 50.2869 14.524C50.8425 14.0785 51.3471 13.5729 51.7916 13.0165C52.2361 13.5729 52.7408 14.0785 53.2963 14.524C52.7408 14.9696 52.2361 15.4751 51.7916 16.0315Z" fill="#3E61EE"/>
<path d="M100.821 97.6431C100.356 97.6431 99.9016 97.7809 99.5152 98.0391C99.1287 98.2974 98.8275 98.6644 98.6496 99.0938C98.4717 99.5233 98.4252 99.9958 98.5159 100.452C98.6065 100.908 98.8304 101.326 99.159 101.655C99.4877 101.984 99.9065 102.207 100.362 102.298C100.818 102.389 101.291 102.342 101.72 102.164C102.15 101.987 102.517 101.685 102.775 101.299C103.033 100.912 103.171 100.458 103.171 99.9932C103.17 99.3701 102.922 98.7727 102.482 98.3321C102.041 97.8916 101.444 97.6437 100.821 97.6431V97.6431Z" fill="#3E61EE"/>
<path d="M38.1915 83.6553C37.5956 83.6553 37.0131 83.832 36.5176 84.163C36.0222 84.4941 35.636 84.9646 35.408 85.5152C35.18 86.0657 35.1204 86.6715 35.2366 87.2559C35.3529 87.8403 35.6399 88.3771 36.0612 88.7985C36.4826 89.2198 37.0194 89.5067 37.6039 89.6229C38.1883 89.7391 38.7941 89.6794 39.3446 89.4514C39.8951 89.2233 40.3656 88.8371 40.6966 88.3416C41.0276 87.8461 41.2043 87.2636 41.2042 86.6677C41.2033 85.869 40.8856 85.1032 40.3208 84.5385C39.756 83.9737 38.9902 83.6561 38.1915 83.6553V83.6553Z" fill="#3E61EE"/>
<path d="M121.509 54.0762C120.913 54.0762 120.33 54.2529 119.835 54.5839C119.34 54.915 118.953 55.3855 118.725 55.936C118.497 56.4865 118.438 57.0923 118.554 57.6767C118.67 58.2611 118.957 58.7979 119.379 59.2193C119.8 59.6406 120.337 59.9275 120.921 60.0438C121.506 60.16 122.111 60.1004 122.662 59.8723C123.212 59.6443 123.683 59.2582 124.014 58.7627C124.345 58.2673 124.522 57.6848 124.522 57.0889C124.521 56.2902 124.203 55.5244 123.638 54.9596C123.073 54.3948 122.308 54.0771 121.509 54.0762V54.0762Z" fill="#3E61EE"/>
<path d="M28.2711 24.7617C27.6752 24.7616 27.0927 24.9382 26.5971 25.2692C26.1016 25.6002 25.7154 26.0707 25.4873 26.6212C25.2592 27.1717 25.1994 27.7775 25.3157 28.362C25.4319 28.9464 25.7188 29.4833 26.1401 29.9047C26.5615 30.3261 27.0983 30.6131 27.6828 30.7293C28.2672 30.8456 28.873 30.7859 29.4236 30.5579C29.9741 30.3298 30.4446 29.9436 30.7757 29.4481C31.1067 28.9526 31.2834 28.3701 31.2833 27.7742C31.2824 26.9756 30.9648 26.2099 30.4001 25.6451C29.8354 25.0804 29.0698 24.7627 28.2711 24.7617V24.7617Z" fill="#3E61EE"/>
<path d="M87.5701 9.25297C88.1659 9.25297 88.7483 9.07628 89.2438 8.74526C89.7392 8.41423 90.1253 7.94373 90.3533 7.39326C90.5813 6.84278 90.6409 6.23706 90.5246 5.65269C90.4084 5.06832 90.1214 4.53155 89.7001 4.11026C89.2788 3.68897 88.742 3.40208 88.1576 3.28588C87.5732 3.16967 86.9675 3.22937 86.4171 3.45742C85.8666 3.68547 85.3962 4.07163 85.0652 4.56706C84.7342 5.0625 84.5576 5.64496 84.5576 6.24078C84.5586 7.03941 84.8763 7.80506 85.441 8.36975C86.0058 8.93444 86.7714 9.25207 87.5701 9.25297V9.25297Z" fill="#3E61EE"/>
<path d="M50.136 47.9512C49.7367 47.9512 49.3464 48.0696 49.0144 48.2914C48.6824 48.5132 48.4237 48.8285 48.2709 49.1974C48.1181 49.5663 48.0781 49.9722 48.156 50.3638C48.2339 50.7555 48.4261 51.1152 48.7085 51.3975C48.9908 51.6798 49.3505 51.8721 49.7421 51.95C50.1338 52.0279 50.5397 51.9879 50.9086 51.8351C51.2775 51.6823 51.5928 51.4236 51.8146 51.0916C52.0364 50.7596 52.1548 50.3693 52.1548 49.97C52.1542 49.4347 51.9413 48.9216 51.5629 48.5431C51.1844 48.1647 50.6712 47.9518 50.136 47.9512Z" fill="#3E61EE"/>
<path d="M3.42534 102.943C3.02606 102.943 2.63573 103.062 2.30371 103.283C1.97168 103.505 1.71288 103.82 1.56003 104.189C1.40718 104.558 1.36715 104.964 1.44499 105.356C1.52283 105.747 1.71505 106.107 1.99735 106.389C2.27965 106.672 2.63934 106.864 3.03094 106.942C3.42254 107.02 3.82846 106.98 4.19737 106.827C4.56628 106.675 4.88161 106.416 5.10349 106.084C5.32536 105.752 5.44382 105.362 5.44388 104.962C5.44328 104.427 5.23044 103.914 4.85204 103.536C4.47364 103.157 3.96056 102.944 3.42534 102.943Z" fill="#3E61EE"/>
<path d="M113.741 138.39C113.342 138.39 112.952 138.509 112.62 138.731C112.288 138.952 112.029 139.268 111.876 139.637C111.723 140.005 111.684 140.411 111.761 140.803C111.839 141.195 112.032 141.554 112.314 141.837C112.596 142.119 112.956 142.311 113.348 142.389C113.739 142.467 114.145 142.427 114.514 142.274C114.883 142.121 115.198 141.862 115.42 141.531C115.642 141.199 115.76 140.808 115.76 140.409C115.76 139.874 115.547 139.36 115.168 138.982C114.79 138.604 114.276 138.391 113.741 138.39V138.39Z" fill="#3E61EE"/>
<path d="M8.27049 133.009C7.87121 133.009 7.48093 133.128 7.14897 133.35C6.81702 133.572 6.5583 133.887 6.40555 134.256C6.25279 134.625 6.21285 135.031 6.29078 135.422C6.36871 135.814 6.561 136.173 6.84335 136.456C7.1257 136.738 7.48542 136.93 7.87702 137.008C8.26862 137.086 8.67452 137.046 9.0434 136.893C9.41227 136.74 9.72755 136.482 9.94937 136.15C10.1712 135.818 10.2896 135.427 10.2896 135.028C10.289 134.493 10.0761 133.98 9.69753 133.601C9.31899 133.223 8.80577 133.01 8.27049 133.009V133.009Z" fill="#3E61EE"/>
<path d="M5.41237 5.6094C5.81165 5.6094 6.20197 5.491 6.53396 5.26917C6.86595 5.04734 7.12471 4.73205 7.27751 4.36316C7.43031 3.99427 7.47028 3.58835 7.39239 3.19674C7.31449 2.80513 7.12222 2.44541 6.83988 2.16307C6.55755 1.88074 6.19783 1.68847 5.80622 1.61057C5.41461 1.53267 5.00869 1.57265 4.6398 1.72545C4.27091 1.87825 3.95562 2.13701 3.73379 2.469C3.51196 2.80099 3.39355 3.19131 3.39355 3.59059C3.39415 4.12583 3.60704 4.63898 3.98551 5.01745C4.36398 5.39592 4.87713 5.60881 5.41237 5.6094V5.6094Z" fill="#3E61EE"/>
<path d="M132.124 29.8994C131.725 29.8994 131.335 30.0178 131.003 30.2396C130.671 30.4615 130.412 30.7768 130.259 31.1457C130.106 31.5146 130.066 31.9205 130.144 32.3121C130.222 32.7037 130.414 33.0634 130.697 33.3457C130.979 33.6281 131.339 33.8204 131.73 33.8983C132.122 33.9761 132.528 33.9362 132.897 33.7834C133.266 33.6306 133.581 33.3718 133.803 33.0398C134.025 32.7078 134.143 32.3175 134.143 31.9182C134.142 31.383 133.93 30.8698 133.551 30.4914C133.173 30.1129 132.66 29.9 132.124 29.8994V29.8994Z" fill="#3E61EE"/>
<path d="M140.575 100.956C140.176 100.956 139.786 101.074 139.454 101.296C139.122 101.518 138.863 101.833 138.71 102.202C138.558 102.571 138.518 102.977 138.595 103.368C138.673 103.76 138.866 104.12 139.148 104.402C139.43 104.684 139.79 104.876 140.182 104.954C140.573 105.032 140.979 104.992 141.348 104.84C141.717 104.687 142.032 104.428 142.254 104.096C142.476 103.764 142.594 103.374 142.594 102.974C142.594 102.439 142.381 101.926 142.002 101.547C141.624 101.169 141.111 100.956 140.575 100.956Z" fill="#3E61EE"/>
<path d="M126.499 11.9497C127.897 11.9497 129.03 10.8164 129.03 9.41846C129.03 8.02049 127.897 6.88721 126.499 6.88721C125.101 6.88721 123.968 8.02049 123.968 9.41846C123.968 10.8164 125.101 11.9497 126.499 11.9497Z" fill="#3E61EE"/>
<path d="M72.2045 64.2707C70.1389 63.5731 68.2629 62.4064 66.7236 60.8624C65.1842 59.3183 64.0235 57.4387 63.3322 55.3709C63.2204 55.0346 63.0055 54.742 62.7181 54.5347C62.4307 54.3274 62.0853 54.2158 61.7309 54.2158C61.3765 54.2158 61.0311 54.3274 60.7437 54.5347C60.4563 54.742 60.2414 55.0346 60.1296 55.3709C59.4384 57.4386 58.2777 59.3182 56.7384 60.8623C55.1992 62.4063 53.3232 63.5729 51.2576 64.2705C50.922 64.3827 50.6302 64.5977 50.4235 64.8848C50.2167 65.172 50.1055 65.5169 50.1055 65.8708C50.1055 66.2246 50.2167 66.5695 50.4235 66.8567C50.6302 67.1439 50.922 67.3588 51.2576 67.4711C53.3232 68.1686 55.1991 69.3352 56.7384 70.8792C58.2776 72.4233 59.4382 74.3029 60.1293 76.3707C60.2411 76.7071 60.4559 76.9997 60.7434 77.2071C61.0308 77.4145 61.3763 77.5262 61.7307 77.5262C62.0852 77.5262 62.4307 77.4145 62.7181 77.2071C63.0056 76.9997 63.2204 76.7071 63.3322 76.3707C64.0236 74.303 65.1844 72.4236 66.7237 70.8797C68.263 69.3357 70.1389 68.1693 72.2045 67.4716C72.5401 67.3594 72.8319 67.1445 73.0386 66.8573C73.2454 66.5701 73.3566 66.2252 73.3566 65.8713C73.3566 65.5175 73.2454 65.1726 73.0386 64.8854C72.8319 64.5982 72.5401 64.3833 72.2045 64.271V64.2707ZM61.7307 71.831C60.2604 69.3917 58.2194 67.3461 55.7834 65.8702C58.2193 64.3943 60.2602 62.3488 61.7307 59.9097C63.2014 62.3489 65.2425 64.3944 67.6786 65.8702C65.2425 67.3461 63.2013 69.3917 61.7307 71.831V71.831Z" fill="#17E5C3"/>
<path d="M42.4418 108.994C41.0579 108.526 39.801 107.745 38.7698 106.71C37.7385 105.676 36.9609 104.416 36.4979 103.031C36.386 102.695 36.1712 102.402 35.8838 102.195C35.5963 101.988 35.2509 101.876 34.8966 101.876C34.5422 101.876 34.1968 101.988 33.9094 102.195C33.6219 102.402 33.4071 102.695 33.2953 103.031C32.8321 104.416 32.0543 105.676 31.023 106.71C29.9916 107.745 28.7347 108.526 27.3508 108.994C27.0151 109.106 26.7232 109.321 26.5164 109.608C26.3095 109.895 26.1982 110.24 26.1982 110.594C26.1982 110.948 26.3095 111.293 26.5164 111.58C26.7232 111.867 27.0151 112.082 27.3508 112.194C28.7347 112.662 29.9916 113.443 31.023 114.478C32.0543 115.512 32.8321 116.772 33.2953 118.157C33.4071 118.493 33.6219 118.786 33.9094 118.993C34.1968 119.2 34.5422 119.312 34.8966 119.312C35.2509 119.312 35.5963 119.2 35.8838 118.993C36.1712 118.786 36.386 118.493 36.4979 118.157C36.9609 116.772 37.7386 115.512 38.7698 114.478C39.8011 113.443 41.0579 112.662 42.4418 112.194C42.7775 112.082 43.0694 111.867 43.2762 111.58C43.483 111.293 43.5943 110.948 43.5943 110.594C43.5943 110.24 43.483 109.895 43.2762 109.608C43.0694 109.321 42.7775 109.106 42.4418 108.994ZM34.8964 113.882C34.0103 112.597 32.8984 111.483 31.6145 110.594C32.8983 109.705 34.0103 108.591 34.8964 107.306C35.7827 108.591 36.8945 109.705 38.178 110.594C36.8945 111.483 35.7826 112.597 34.8964 113.882V113.882Z" fill="#17E5C3"/>
<path d="M103.729 26.8363C102.345 26.3689 101.088 25.5874 100.057 24.5529C99.0255 23.5184 98.2478 22.2592 97.7847 20.8738C97.6729 20.5375 97.458 20.245 97.1706 20.0376C96.8832 19.8303 96.5378 19.7188 96.1834 19.7188C95.829 19.7188 95.4836 19.8303 95.1962 20.0376C94.9088 20.245 94.6939 20.5375 94.5821 20.8738C94.1189 22.2591 93.3412 23.5184 92.3099 24.5528C91.2786 25.5873 90.0218 26.3689 88.6379 26.8363C88.3022 26.9485 88.0103 27.1634 87.8035 27.4506C87.5966 27.7378 87.4854 28.0828 87.4854 28.4368C87.4854 28.7907 87.5966 29.1357 87.8035 29.4229C88.0103 29.7101 88.3022 29.925 88.6379 30.0372C90.0218 30.5046 91.2788 31.2862 92.3101 32.3207C93.3414 33.3552 94.119 34.6146 94.5821 36C94.6939 36.3363 94.9088 36.6288 95.1962 36.8361C95.4836 37.0435 95.829 37.155 96.1834 37.155C96.5378 37.155 96.8832 37.0435 97.1706 36.8361C97.458 36.6288 97.6729 36.3363 97.7847 36C98.2478 34.6146 99.0255 33.3553 100.057 32.3209C101.088 31.2864 102.345 30.5048 103.729 30.0375C104.065 29.9253 104.356 29.7104 104.563 29.4232C104.77 29.1359 104.881 28.791 104.881 28.437C104.881 28.0831 104.77 27.7381 104.563 27.4509C104.356 27.1637 104.065 26.9488 103.729 26.8366V26.8363ZM96.1832 31.725C95.2972 30.4394 94.1853 29.3253 92.9016 28.4366C94.1853 27.548 95.2972 26.434 96.1832 25.1485C97.0696 26.4337 98.1814 27.5477 99.4649 28.4366C98.1813 29.3255 97.0695 30.4396 96.1832 31.725V31.725Z" fill="#17E5C3"/>
<path d="M62.1562 93.625C61.7087 93.625 61.2795 93.8028 60.963 94.1193C60.6465 94.4357 60.4688 94.8649 60.4688 95.3125V97.4674C60.4687 97.915 60.6465 98.3442 60.963 98.6607C61.2795 98.9771 61.7087 99.1549 62.1562 99.1549C62.6038 99.1549 63.033 98.9771 63.3495 98.6607C63.666 98.3442 63.8438 97.915 63.8438 97.4674V95.3125C63.8437 94.8649 63.666 94.4357 63.3495 94.1193C63.033 93.8028 62.6038 93.625 62.1562 93.625V93.625Z" fill="#17E5C3"/>
<path d="M62.1562 82.4927C61.7087 82.4927 61.2795 82.6705 60.963 82.9869C60.6465 83.3034 60.4688 83.7326 60.4688 84.1802V90.6585C60.4687 91.106 60.6465 91.5353 60.963 91.8517C61.2795 92.1682 61.7087 92.346 62.1562 92.346C62.6038 92.346 63.033 92.1682 63.3495 91.8517C63.666 91.5353 63.8438 91.106 63.8438 90.6585V84.1802C63.8437 83.7326 63.666 83.3034 63.3495 82.9869C63.033 82.6705 62.6038 82.4927 62.1562 82.4927V82.4927Z" fill="#17E5C3"/>
<path d="M67.7812 89.3579C67.3337 89.3579 66.9045 89.5357 66.588 89.8522C66.2715 90.1686 66.0938 90.5979 66.0938 91.0454V93.2006C66.0938 93.6482 66.2715 94.0774 66.588 94.3939C66.9045 94.7103 67.3337 94.8881 67.7812 94.8881C68.2288 94.8881 68.658 94.7103 68.9745 94.3939C69.291 94.0774 69.4688 93.6482 69.4688 93.2006V91.0454C69.4688 90.5979 69.291 90.1686 68.9745 89.8522C68.658 89.5357 68.2288 89.3579 67.7812 89.3579Z" fill="#17E5C3"/>
<path d="M67.7812 76.0923C67.3337 76.0923 66.9045 76.2701 66.588 76.5865C66.2715 76.903 66.0938 77.3322 66.0938 77.7798V86.3917C66.0938 86.8392 66.2715 87.2684 66.588 87.5849C66.9045 87.9014 67.3337 88.0792 67.7812 88.0792C68.2288 88.0792 68.658 87.9014 68.9745 87.5849C69.291 87.2684 69.4688 86.8392 69.4688 86.3917V77.7798C69.4688 77.3322 69.291 76.903 68.9745 76.5865C68.658 76.2701 68.2288 76.0923 67.7812 76.0923V76.0923Z" fill="#17E5C3"/>
<path d="M56.5312 89.3579C56.0837 89.3579 55.6545 89.5357 55.338 89.8522C55.0215 90.1686 54.8438 90.5979 54.8438 91.0454V93.2006C54.8438 93.6482 55.0215 94.0774 55.338 94.3939C55.6545 94.7103 56.0837 94.8881 56.5312 94.8881C56.9788 94.8881 57.408 94.7103 57.7245 94.3939C58.041 94.0774 58.2188 93.6482 58.2188 93.2006V91.0454C58.2188 90.5979 58.041 90.1686 57.7245 89.8522C57.408 89.5357 56.9788 89.3579 56.5312 89.3579Z" fill="#17E5C3"/>
<path d="M56.5312 76.0923C56.0837 76.0923 55.6545 76.2701 55.338 76.5865C55.0215 76.903 54.8438 77.3322 54.8438 77.7798V86.3917C54.8438 86.8392 55.0215 87.2684 55.338 87.5849C55.6545 87.9014 56.0837 88.0792 56.5312 88.0792C56.9788 88.0792 57.408 87.9014 57.7245 87.5849C58.041 87.2684 58.2188 86.8392 58.2188 86.3917V77.7798C58.2188 77.3322 58.041 76.903 57.7245 76.5865C57.408 76.2701 56.9788 76.0923 56.5312 76.0923V76.0923Z" fill="#17E5C3"/>
<path d="M96.1875 55.9375C95.7399 55.9375 95.3107 56.1153 94.9943 56.4318C94.6778 56.7482 94.5 57.1774 94.5 57.625V59.7799C94.5 60.2275 94.6778 60.6567 94.9943 60.9732C95.3107 61.2896 95.7399 61.4674 96.1875 61.4674C96.6351 61.4674 97.0643 61.2896 97.3807 60.9732C97.6972 60.6567 97.875 60.2275 97.875 59.7799V57.625C97.875 57.1774 97.6972 56.7482 97.3807 56.4318C97.0643 56.1153 96.6351 55.9375 96.1875 55.9375Z" fill="#17E5C3"/>
<path d="M96.1875 44.8052C95.7399 44.8052 95.3107 44.983 94.9943 45.2994C94.6778 45.6159 94.5 46.0451 94.5 46.4927V52.971C94.5 53.4185 94.6778 53.8478 94.9943 54.1642C95.3107 54.4807 95.7399 54.6585 96.1875 54.6585C96.6351 54.6585 97.0643 54.4807 97.3807 54.1642C97.6972 53.8478 97.875 53.4185 97.875 52.971V46.4927C97.875 46.0451 97.6972 45.6159 97.3807 45.2994C97.0643 44.983 96.6351 44.8052 96.1875 44.8052Z" fill="#17E5C3"/>
<path d="M101.812 51.6704C101.365 51.6704 100.936 51.8482 100.619 52.1647C100.303 52.4811 100.125 52.9104 100.125 53.3579V55.5131C100.125 55.9607 100.303 56.3899 100.619 56.7064C100.936 57.0228 101.365 57.2006 101.812 57.2006C102.26 57.2006 102.689 57.0228 103.006 56.7064C103.322 56.3899 103.5 55.9607 103.5 55.5131V53.3579C103.5 52.9104 103.322 52.4811 103.006 52.1647C102.689 51.8482 102.26 51.6704 101.812 51.6704Z" fill="#17E5C3"/>
<path d="M101.812 38.4048C101.365 38.4048 100.936 38.5826 100.619 38.899C100.303 39.2155 100.125 39.6447 100.125 40.0923V48.7042C100.125 49.1517 100.303 49.5809 100.619 49.8974C100.936 50.2139 101.365 50.3917 101.812 50.3917C102.26 50.3917 102.689 50.2139 103.006 49.8974C103.322 49.5809 103.5 49.1517 103.5 48.7042V40.0923C103.5 39.6447 103.322 39.2155 103.006 38.899C102.689 38.5826 102.26 38.4048 101.812 38.4048Z" fill="#17E5C3"/>
<path d="M90.5625 51.6704C90.1149 51.6704 89.6857 51.8482 89.3693 52.1647C89.0528 52.4811 88.875 52.9104 88.875 53.3579V55.5131C88.875 55.9607 89.0528 56.3899 89.3693 56.7064C89.6857 57.0228 90.1149 57.2006 90.5625 57.2006C91.0101 57.2006 91.4393 57.0228 91.7557 56.7064C92.0722 56.3899 92.25 55.9607 92.25 55.5131V53.3579C92.25 52.9104 92.0722 52.4811 91.7557 52.1647C91.4393 51.8482 91.0101 51.6704 90.5625 51.6704Z" fill="#17E5C3"/>
<path d="M90.5625 38.4048C90.1149 38.4048 89.6857 38.5826 89.3693 38.899C89.0528 39.2155 88.875 39.6447 88.875 40.0923V48.7042C88.875 49.1517 89.0528 49.5809 89.3693 49.8974C89.6857 50.2139 90.1149 50.3917 90.5625 50.3917C91.0101 50.3917 91.4393 50.2139 91.7557 49.8974C92.0722 49.5809 92.25 49.1517 92.25 48.7042V40.0923C92.25 39.6447 92.0722 39.2155 91.7557 38.899C91.4393 38.5826 91.0101 38.4048 90.5625 38.4048Z" fill="#17E5C3"/>
<path d="M34.875 132.719C34.4274 132.719 33.9982 132.897 33.6818 133.213C33.3653 133.529 33.1875 133.959 33.1875 134.406V139.374C33.1875 139.821 33.3653 140.25 33.6818 140.567C33.9982 140.883 34.4274 141.061 34.875 141.061C35.3226 141.061 35.7518 140.883 36.0682 140.567C36.3847 140.25 36.5625 139.821 36.5625 139.374V134.406C36.5625 133.959 36.3847 133.529 36.0682 133.213C35.7518 132.897 35.3226 132.719 34.875 132.719V132.719Z" fill="#17E5C3"/>
<path d="M34.875 124.399C34.4274 124.399 33.9982 124.577 33.6818 124.893C33.3653 125.21 33.1875 125.639 33.1875 126.086V129.752C33.1875 130.2 33.3653 130.629 33.6818 130.945C33.9982 131.262 34.4274 131.44 34.875 131.44C35.3226 131.44 35.7518 131.262 36.0682 130.945C36.3847 130.629 36.5625 130.2 36.5625 129.752V126.086C36.5625 125.639 36.3847 125.21 36.0682 124.893C35.7518 124.577 35.3226 124.399 34.875 124.399V124.399Z" fill="#17E5C3"/>
<path d="M40.5 128.452C40.0524 128.452 39.6232 128.629 39.3068 128.946C38.9903 129.262 38.8125 129.692 38.8125 130.139V132.294C38.8125 132.742 38.9903 133.171 39.3068 133.488C39.6232 133.804 40.0524 133.982 40.5 133.982C40.9476 133.982 41.3768 133.804 41.6932 133.488C42.0097 133.171 42.1875 132.742 42.1875 132.294V130.139C42.1875 129.692 42.0097 129.262 41.6932 128.946C41.3768 128.629 40.9476 128.452 40.5 128.452V128.452Z" fill="#17E5C3"/>
<path d="M40.5 117.999C40.0524 117.999 39.6232 118.176 39.3068 118.493C38.9903 118.809 38.8125 119.238 38.8125 119.686V125.485C38.8125 125.933 38.9903 126.362 39.3068 126.679C39.6232 126.995 40.0524 127.173 40.5 127.173C40.9476 127.173 41.3768 126.995 41.6932 126.679C42.0097 126.362 42.1875 125.933 42.1875 125.485V119.686C42.1875 119.238 42.0097 118.809 41.6932 118.493C41.3768 118.176 40.9476 117.999 40.5 117.999V117.999Z" fill="#17E5C3"/>
<path d="M29.25 128.452C28.8024 128.452 28.3732 128.629 28.0568 128.946C27.7403 129.262 27.5625 129.692 27.5625 130.139V132.294C27.5625 132.742 27.7403 133.171 28.0568 133.488C28.3732 133.804 28.8024 133.982 29.25 133.982C29.6976 133.982 30.1268 133.804 30.4432 133.488C30.7597 133.171 30.9375 132.742 30.9375 132.294V130.139C30.9375 129.692 30.7597 129.262 30.4432 128.946C30.1268 128.629 29.6976 128.452 29.25 128.452V128.452Z" fill="#17E5C3"/>
<path d="M29.25 117.999C28.8024 117.999 28.3732 118.176 28.0568 118.493C27.7403 118.809 27.5625 119.238 27.5625 119.686V125.485C27.5625 125.933 27.7403 126.362 28.0568 126.679C28.3732 126.995 28.8024 127.173 29.25 127.173C29.6976 127.173 30.1268 126.995 30.4432 126.679C30.7597 126.362 30.9375 125.933 30.9375 125.485V119.686C30.9375 119.238 30.7597 118.809 30.4432 118.493C30.1268 118.176 29.6976 117.999 29.25 117.999V117.999Z" fill="#17E5C3"/>
</svg>
