<svg viewBox="0 0 144 144" fill="none" xmlns="http://www.w3.org/2000/svg">
<path d="M48.0769 82.2856C42.3981 81.4729 36.7774 80.2957 31.2497 78.7615C19.0519 75.2824 11.5312 70.5124 11.5312 65.253C11.5312 59.7124 19.8796 54.7171 33.2474 51.197C33.3641 50.5335 33.4946 49.8751 33.6431 49.2246C15.2184 52.6896 3.09375 58.5762 3.09375 65.253C3.09375 70.5124 10.6144 75.2824 22.8122 78.7615C28.3399 80.2957 33.9606 81.4729 39.6394 82.2856C46.8833 83.344 54.1776 84.0227 61.4925 84.319H61.4953L69.7939 84.3122C62.5246 84.0138 55.2758 83.3373 48.0769 82.2856V82.2856Z" fill="#3E61EE" fill-opacity="0.2"/>
<path d="M103.617 84.0735L135.108 120.649C135.743 121.389 136.626 121.87 137.591 122.004C138.556 122.137 139.537 121.913 140.349 121.374C141.16 120.835 141.747 120.017 141.997 119.076C142.248 118.134 142.146 117.133 141.71 116.262L123.551 79.8092C134.872 76.3394 142.594 71.4744 142.594 65.2529C142.594 61.2872 139.448 57.6687 133.245 54.4979C127.759 51.6938 119.875 49.2829 110.445 47.5254L109.826 50.8441C127.682 54.1708 139.219 59.827 139.219 65.2529C139.219 69.0407 133.529 73.0536 123.608 76.2632C113.474 79.5418 99.6337 81.7546 84.4597 82.5371L84.6712 81.1486C84.7121 80.8791 84.6872 80.6037 84.5986 80.346C84.5099 80.0883 84.3602 79.8558 84.1621 79.6686C80.8743 76.5626 76.5229 74.8322 72 74.8322C67.4771 74.8322 63.1257 76.5626 59.8379 79.6686C59.6411 79.8546 59.492 80.0852 59.4031 80.341C59.3142 80.5968 59.2881 80.8702 59.3272 81.1381L59.5311 82.5365C44.3717 81.7541 30.5432 79.5443 20.4117 76.2694C6.30422 71.7095 4.78125 67.0464 4.78125 65.2529C4.78125 59.8298 16.3094 54.1755 34.1511 50.8478L33.5323 47.529C24.1087 49.2866 16.2304 51.6975 10.7488 54.5007C4.5495 57.6715 1.40625 61.2889 1.40625 65.2529C1.40625 71.4758 9.12684 76.3409 20.4469 79.8104L2.28966 116.262C1.85392 117.133 1.75185 118.134 2.00266 119.076C2.25347 120.017 2.83986 120.835 3.65141 121.374C4.46297 121.913 5.44369 122.137 6.40891 122.004C7.37413 121.87 8.25726 121.389 8.892 120.649L40.3833 84.0741C46.7564 84.9929 53.4333 85.6173 60.0272 85.9413L66.9656 133.55C67.1411 134.716 67.7281 135.782 68.6204 136.553C69.5127 137.325 70.6516 137.752 71.8312 137.757C73.0086 137.763 74.1485 137.344 75.0414 136.577C75.9344 135.809 76.5204 134.745 76.6918 133.581L83.9433 85.943C90.5434 85.6196 97.2329 84.9938 103.617 84.0735ZM138.689 117.767C138.758 117.903 138.775 118.058 138.736 118.205C138.698 118.352 138.606 118.48 138.48 118.564C138.354 118.648 138.201 118.683 138.05 118.661C137.9 118.64 137.763 118.564 137.665 118.448L107.543 83.4632C112.028 82.7129 116.313 81.8103 120.25 80.7554L138.689 117.767ZM6.33234 118.448C6.23442 118.564 6.09721 118.64 5.94684 118.662C5.79648 118.683 5.64347 118.648 5.51696 118.564C5.39044 118.48 5.29926 118.353 5.26079 118.206C5.22231 118.059 5.23923 117.903 5.30831 117.768L23.7454 80.7551C27.6829 81.8098 31.9677 82.7126 36.4537 83.4627L6.33234 118.448ZM73.3514 133.073C73.2977 133.438 73.1139 133.772 72.8339 134.012C72.5539 134.253 72.1965 134.385 71.8273 134.383C71.4575 134.381 71.1004 134.247 70.8207 134.005C70.541 133.763 70.357 133.429 70.3021 133.063L62.7978 81.5496C65.3769 79.3906 68.633 78.2071 71.9965 78.2063C75.36 78.2055 78.6167 79.3873 81.1969 81.5451L73.3514 133.073Z" fill="#3E61EE"/>
<path d="M19.7812 68.2193C19.7812 68.6668 19.959 69.096 20.2755 69.4125C20.592 69.729 21.0212 69.9068 21.4688 69.9068C21.9163 69.9068 22.3455 69.729 22.662 69.4125C22.9785 69.096 23.1562 68.6668 23.1562 68.2193C23.161 67.9085 23.2879 67.6121 23.5093 67.394C23.7308 67.176 24.0291 67.0537 24.3399 67.0537C24.6507 67.0537 24.949 67.176 25.1705 67.394C25.3919 67.6121 25.5187 67.9085 25.5235 68.2193C25.5235 68.6668 25.7013 69.096 26.0178 69.4125C26.3343 69.729 26.7635 69.9068 27.211 69.9068C27.6586 69.9068 28.0878 69.729 28.4043 69.4125C28.7207 69.096 28.8985 68.6668 28.8985 68.2193C28.8891 67.0164 28.4046 65.8661 27.5508 65.0189C26.6969 64.1717 25.5428 63.6963 24.3399 63.6963C23.137 63.6963 21.9829 64.1717 21.129 65.0189C20.2751 65.8661 19.7907 67.0164 19.7812 68.2193Z" fill="#3E61EE"/>
<path d="M30.6914 68.2193C30.6914 68.6668 30.8692 69.096 31.1857 69.4125C31.5021 69.729 31.9314 69.9068 32.3789 69.9068C32.8265 69.9068 33.2557 69.729 33.5721 69.4125C33.8886 69.096 34.0664 68.6668 34.0664 68.2193C34.0712 67.9085 34.198 67.6121 34.4195 67.394C34.6409 67.176 34.9392 67.0537 35.25 67.0537C35.5608 67.0537 35.8592 67.176 36.0806 67.394C36.3021 67.6121 36.4289 67.9085 36.4337 68.2193C36.4337 68.6668 36.6115 69.096 36.9279 69.4125C37.2444 69.729 37.6736 69.9068 38.1212 69.9068C38.5687 69.9068 38.998 69.729 39.3144 69.4125C39.6309 69.096 39.8087 68.6668 39.8087 68.2193C39.7992 67.0164 39.3148 65.8661 38.4609 65.0189C37.607 64.1717 36.4529 63.6963 35.25 63.6963C34.0472 63.6963 32.8931 64.1717 32.0392 65.0189C31.1853 65.8661 30.7009 67.0164 30.6914 68.2193Z" fill="#3E61EE"/>
<path d="M99.6511 20.1156C100.727 20.5068 101.697 21.1422 102.486 21.9719C103.274 22.8015 103.86 23.8027 104.196 24.8968C104.299 25.2354 104.506 25.5331 104.787 25.7477C105.069 25.9623 105.411 26.083 105.764 26.0927C105.78 26.0927 105.795 26.0927 105.811 26.0927C106.157 26.0927 106.494 25.9863 106.778 25.7879C107.062 25.5895 107.277 25.3088 107.396 24.9837C107.792 23.9076 108.432 22.9378 109.266 22.1501C110.099 21.3624 111.103 20.7782 112.2 20.4432C112.539 20.3403 112.837 20.1332 113.052 19.8514C113.267 19.5695 113.388 19.2272 113.397 18.8729C113.406 18.5186 113.304 18.1704 113.104 17.8776C112.905 17.5849 112.618 17.3624 112.285 17.2417C111.209 16.8504 110.239 16.215 109.45 15.3854C108.661 14.5558 108.076 13.5546 107.74 12.4605C107.637 12.1217 107.43 11.824 107.148 11.6094C106.866 11.3948 106.524 11.2742 106.17 11.2648C105.816 11.2553 105.468 11.3574 105.176 11.5567C104.883 11.7559 104.66 12.0422 104.539 12.375C104.143 13.4509 103.503 14.4206 102.67 15.2082C101.836 15.9958 100.832 16.5799 99.7355 16.9149C99.3964 17.0178 99.0983 17.2249 98.8835 17.5068C98.6686 17.7886 98.548 18.131 98.5387 18.4852C98.5293 18.8395 98.6318 19.1877 98.8314 19.4805C99.0311 19.7733 99.3179 19.9958 99.6511 20.1164V20.1156ZM106.028 16.5254C106.62 17.3565 107.326 18.1002 108.125 18.7343C107.291 19.3261 106.544 20.0325 105.908 20.8327C105.316 20.0017 104.61 19.258 103.81 18.6238C104.644 18.032 105.391 17.3256 106.028 16.5254V16.5254Z" fill="#3E61EE"/>
<path d="M100.921 116.759C100.762 116.443 100.508 116.184 100.195 116.02C99.8809 115.856 99.5235 115.795 99.1731 115.845C98.8226 115.895 98.4969 116.055 98.2419 116.3C97.9869 116.546 97.8156 116.865 97.7523 117.214C97.5436 118.341 97.0768 119.406 96.3884 120.323C95.6999 121.24 94.8086 121.986 93.7841 122.501C93.4673 122.66 93.2085 122.914 93.0444 123.228C92.8803 123.543 92.8192 123.9 92.8699 124.251C92.9205 124.602 93.0804 124.928 93.3266 125.183C93.5729 125.437 93.8932 125.608 94.242 125.671C95.3684 125.875 96.4321 126.337 97.3496 127.022C98.2671 127.706 99.0132 128.594 99.5295 129.616C99.6882 129.932 99.9424 130.191 100.256 130.355C100.57 130.519 100.927 130.58 101.277 130.53C101.628 130.479 101.953 130.32 102.208 130.075C102.463 129.829 102.635 129.51 102.698 129.161C102.907 128.034 103.374 126.97 104.062 126.052C104.751 125.135 105.642 124.389 106.666 123.874C106.983 123.715 107.242 123.461 107.407 123.147C107.571 122.832 107.632 122.475 107.581 122.124C107.53 121.773 107.371 121.447 107.124 121.192C106.878 120.937 106.558 120.766 106.209 120.704C105.082 120.5 104.019 120.038 103.101 119.353C102.184 118.669 101.437 117.781 100.921 116.759V116.759ZM100.529 125.32C99.8057 124.601 98.9843 123.987 98.0892 123.497C98.8114 122.773 99.4279 121.95 99.9207 121.054C100.644 121.773 101.466 122.387 102.361 122.877C101.639 123.601 101.022 124.424 100.529 125.32V125.32Z" fill="#3E61EE"/>
<path d="M13.0275 26.9633C12.6884 27.0663 12.3903 27.2733 12.1754 27.5552C11.9606 27.8371 11.84 28.1794 11.8307 28.5336C11.8213 28.8879 11.9238 29.2361 12.1234 29.5289C12.3231 29.8217 12.6099 30.0442 12.9431 30.1648C14.0188 30.5561 14.9892 31.1915 15.7778 32.0211C16.5665 32.8507 17.152 33.8519 17.4884 34.9461C17.5916 35.2846 17.7986 35.582 18.0801 35.7964C18.3616 36.0108 18.7035 36.1313 19.0572 36.1408H19.1033C19.4494 36.1408 19.787 36.0344 20.0706 35.836C20.3541 35.6377 20.5698 35.3569 20.6884 35.0318C21.0847 33.9558 21.7245 32.986 22.5579 32.1984C23.3912 31.4107 24.3955 30.8266 25.4922 30.4916C25.8313 30.3887 26.1294 30.1816 26.3442 29.8998C26.559 29.6179 26.6797 29.2756 26.689 28.9213C26.6983 28.5671 26.5959 28.2188 26.3962 27.9261C26.1966 27.6333 25.9098 27.4108 25.5766 27.2902C24.501 26.8987 23.5308 26.2633 22.7422 25.4337C21.9536 24.6041 21.368 23.6029 21.0316 22.5089C20.9286 22.1703 20.7217 21.8726 20.4402 21.658C20.1587 21.4434 19.8169 21.3228 19.4631 21.3131C19.1093 21.3035 18.7614 21.4053 18.4686 21.6043C18.1759 21.8032 17.9531 22.0892 17.8318 22.4217C17.4357 23.4981 16.7958 24.4682 15.9623 25.2561C15.1289 26.044 14.1244 26.6283 13.0275 26.9633ZM19.3202 26.5744C19.9121 27.4055 20.6182 28.1491 21.4174 28.7833C20.5833 29.375 19.8367 30.0815 19.1998 30.8817C18.6079 30.0507 17.9019 29.3071 17.1025 28.6731C17.9366 28.0812 18.6832 27.3746 19.3202 26.5744V26.5744Z" fill="#3E61EE"/>
<path d="M12.8553 13.9205C13.4727 13.9205 14.0763 13.7374 14.5897 13.3944C15.1031 13.0513 15.5032 12.5638 15.7395 11.9933C15.9758 11.4229 16.0376 10.7952 15.9172 10.1896C15.7967 9.584 15.4994 9.02774 15.0628 8.59114C14.6262 8.15453 14.0699 7.8572 13.4643 7.73675C12.8587 7.61629 12.231 7.67811 11.6606 7.9144C11.0901 8.15068 10.6026 8.55082 10.2595 9.06421C9.91649 9.5776 9.7334 10.1812 9.7334 10.7986C9.73466 11.6262 10.064 12.4195 10.6492 13.0047C11.2344 13.5899 12.0277 13.9192 12.8553 13.9205V13.9205ZM12.8553 10.5455C12.9053 10.5455 12.9543 10.5604 12.9959 10.5882C13.0375 10.616 13.07 10.6555 13.0891 10.7018C13.1083 10.748 13.1133 10.7989 13.1035 10.848C13.0938 10.8971 13.0697 10.9422 13.0343 10.9776C12.9989 11.013 12.9538 11.0371 12.9047 11.0469C12.8556 11.0567 12.8047 11.0516 12.7584 11.0325C12.7122 11.0133 12.6726 10.9809 12.6448 10.9393C12.617 10.8976 12.6021 10.8487 12.6021 10.7986C12.6021 10.7315 12.6288 10.6671 12.6763 10.6196C12.7238 10.5722 12.7881 10.5455 12.8553 10.5455V10.5455Z" fill="#3E61EE"/>
<path d="M10.2715 20.524C10.6621 20.524 11.0439 20.4082 11.3686 20.1912C11.6933 19.9743 11.9464 19.6659 12.0959 19.305C12.2453 18.9442 12.2844 18.5472 12.2082 18.1641C12.1321 17.7811 11.944 17.4292 11.6678 17.1531C11.3917 16.8769 11.0398 16.6888 10.6568 16.6127C10.2737 16.5365 9.87668 16.5756 9.51586 16.725C9.15504 16.8745 8.84664 17.1276 8.62966 17.4523C8.41269 17.777 8.29688 18.1588 8.29688 18.5494C8.2974 19.0729 8.50561 19.5749 8.87581 19.9451C9.24602 20.3153 9.74798 20.5235 10.2715 20.524Z" fill="#3E61EE"/>
<path d="M37.83 113.32C37.1296 112.87 36.28 112.715 35.4656 112.887C34.6513 113.059 33.9376 113.546 33.4796 114.241C33.0277 114.934 32.8693 115.778 33.0392 116.588C33.2091 117.398 33.6934 118.107 34.3858 118.56C34.9095 118.889 35.5154 119.063 36.1337 119.062C37.1575 119.062 37.9689 118.56 38.8126 117.639C39.2305 116.93 39.3614 116.088 39.1788 115.285C38.9961 114.482 38.5136 113.779 37.83 113.32V113.32ZM36.2808 116.076C36.2413 116.124 36.1854 116.156 36.1239 116.166C36.0623 116.175 35.9994 116.162 35.9472 116.128C35.8949 116.094 35.857 116.042 35.8408 115.982C35.8245 115.922 35.831 115.858 35.859 115.802L36.2808 116.076V116.076Z" fill="#3E61EE"/>
<path d="M42.3566 105.036C42.0292 104.823 41.6461 104.712 41.2558 104.717C40.8655 104.723 40.4854 104.843 40.1637 105.064C39.842 105.285 39.593 105.597 39.4483 105.96C39.3036 106.322 39.2696 106.719 39.3506 107.101C39.4317 107.483 39.6242 107.832 39.9037 108.105C40.1832 108.377 40.5372 108.561 40.921 108.632C41.3048 108.704 41.7012 108.66 42.0599 108.506C42.4187 108.352 42.7238 108.095 42.9366 107.768C43.2216 107.329 43.3205 106.794 43.2116 106.282C43.1027 105.77 42.7949 105.322 42.3558 105.037L42.3566 105.036Z" fill="#3E61EE"/>
<path d="M105.684 110.243C105.069 110.374 104.524 110.729 104.154 111.238C103.785 111.747 103.616 112.375 103.682 113.001C103.747 113.626 104.041 114.206 104.508 114.627C104.975 115.049 105.581 115.283 106.21 115.285C106.39 115.285 106.57 115.266 106.746 115.229C107.076 115.162 107.389 115.03 107.668 114.841C107.946 114.652 108.185 114.409 108.369 114.128C108.554 113.846 108.68 113.531 108.742 113.2C108.804 112.869 108.8 112.529 108.73 112.2C108.659 111.871 108.525 111.559 108.333 111.282C108.142 111.005 107.898 110.769 107.614 110.587C107.331 110.405 107.015 110.281 106.683 110.222C106.352 110.163 106.012 110.17 105.684 110.243V110.243Z" fill="#3E61EE"/>
<path d="M107.964 108.636C108.292 108.849 108.675 108.959 109.066 108.954C109.456 108.948 109.836 108.827 110.158 108.605C110.48 108.384 110.728 108.072 110.873 107.709C111.017 107.346 111.05 106.948 110.969 106.566C110.887 106.185 110.694 105.835 110.414 105.563C110.134 105.291 109.78 105.108 109.396 105.037C109.012 104.966 108.615 105.011 108.257 105.165C107.898 105.32 107.593 105.577 107.381 105.905C107.238 106.122 107.14 106.366 107.092 106.621C107.044 106.876 107.048 107.139 107.102 107.393C107.156 107.647 107.26 107.888 107.408 108.101C107.556 108.315 107.745 108.497 107.964 108.636V108.636Z" fill="#3E61EE"/>
<path d="M135.422 12.2065C135.795 12.3773 136.198 12.473 136.608 12.4881C137.018 12.5032 137.426 12.4374 137.811 12.2945C138.195 12.1516 138.548 11.9344 138.848 11.6552C139.149 11.3761 139.391 11.0405 139.562 10.6677C139.733 10.2948 139.828 9.89194 139.844 9.48209C139.859 9.07225 139.793 8.66345 139.65 8.27903C139.507 7.8946 139.29 7.54209 139.011 7.24162C138.732 6.94114 138.396 6.69859 138.023 6.5278C137.27 6.18289 136.411 6.15125 135.634 6.43984C134.858 6.72843 134.228 7.31362 133.883 8.06666C133.538 8.81971 133.507 9.67893 133.795 10.4553C134.084 11.2317 134.669 11.8616 135.422 12.2065ZM136.828 9.13809C136.862 9.14963 136.892 9.16802 136.918 9.19208C136.944 9.21613 136.964 9.24532 136.978 9.27777C136.992 9.31022 136.999 9.34521 136.999 9.3805C136.998 9.41578 136.99 9.45059 136.976 9.48267C136.961 9.51476 136.94 9.54341 136.913 9.56681C136.887 9.5902 136.856 9.60781 136.822 9.6185C136.789 9.62919 136.753 9.63274 136.718 9.62891C136.683 9.62507 136.649 9.61395 136.619 9.59624L136.828 9.13809Z" fill="#3E61EE"/>
<path d="M132.907 23.7902C133.322 23.9802 133.79 24.0204 134.232 23.9038C134.673 23.7872 135.061 23.5211 135.328 23.1509C135.596 22.7806 135.727 22.329 135.698 21.8732C135.67 21.4173 135.485 20.9853 135.174 20.6508C134.863 20.3164 134.445 20.1001 133.993 20.0388C133.54 19.9776 133.08 20.0752 132.692 20.315C132.303 20.5548 132.009 20.922 131.861 21.3539C131.713 21.7859 131.719 22.256 131.878 22.684C131.968 22.927 132.105 23.1498 132.282 23.3396C132.458 23.5295 132.671 23.6826 132.907 23.7902V23.7902Z" fill="#3E61EE"/>
<path d="M124.396 47.0594C126.033 47.4883 127.608 47.9439 129.078 48.4139C130.991 49.0256 132.776 49.6759 134.382 50.3469C134.586 50.4324 134.805 50.4768 135.027 50.4775C135.249 50.4782 135.468 50.4353 135.673 50.3512C135.878 50.267 136.065 50.1433 136.222 49.9872C136.379 49.831 136.504 49.6453 136.59 49.4409C136.675 49.2364 136.72 49.0171 136.72 48.7955C136.721 48.5739 136.678 48.3543 136.594 48.1492C136.51 47.9442 136.386 47.7578 136.23 47.6005C136.074 47.4433 135.888 47.3184 135.684 47.2329C133.988 46.5244 132.112 45.8402 130.106 45.1992C128.579 44.7112 126.946 44.2387 125.252 43.793C124.819 43.6795 124.359 43.7426 123.973 43.9685C123.586 44.1944 123.305 44.5646 123.192 44.9975C123.078 45.4305 123.142 45.8908 123.367 46.2772C123.593 46.6636 123.963 46.9445 124.396 47.058V47.0594Z" fill="#3E61EE"/>
<path d="M117.253 45.4254C117.684 45.5113 118.112 45.5985 118.537 45.687C118.973 45.7735 119.426 45.6845 119.797 45.4391C120.168 45.1938 120.427 44.812 120.518 44.3767C120.609 43.9415 120.524 43.4879 120.282 43.1147C120.041 42.7414 119.661 42.4786 119.227 42.3834C118.793 42.2927 118.354 42.2033 117.912 42.1154C117.474 42.0311 117.021 42.1235 116.651 42.3722C116.281 42.621 116.025 43.006 115.938 43.4431C115.851 43.8803 115.94 44.3341 116.187 44.7055C116.433 45.0769 116.816 45.3357 117.253 45.4254V45.4254Z" fill="#3E61EE"/>
<path d="M71.9999 17.2124C60.9867 17.2124 50.6784 21.4224 42.9749 29.0671C35.2175 36.7643 30.9453 47.1346 30.9453 58.2673C30.9455 58.6231 31.0582 58.9697 31.2672 59.2576C31.4762 59.5455 31.7709 59.76 32.1091 59.8704C44.9871 64.0812 58.451 66.225 71.9999 66.2222C85.5491 66.2256 99.0132 64.0822 111.892 59.8718C112.23 59.7614 112.524 59.5469 112.733 59.259C112.942 58.9711 113.055 58.6245 113.055 58.2687C113.055 47.136 108.783 36.7657 101.025 29.0685C93.3215 21.4227 83.0131 17.2124 71.9999 17.2124ZM69.1874 62.8137V60.0772L69.2119 60.0788C69.5693 60.459 69.999 60.7641 70.4757 60.9762C70.9525 61.1884 71.4667 61.3033 71.9884 61.3144C73.0276 61.3144 74.0415 60.7499 74.7593 60.1874H74.7849L74.813 60.0769V62.8137C73.9693 62.834 72.9236 62.8472 72.0005 62.8472C71.0774 62.8472 70.0312 62.834 69.1874 62.8137ZM72.3259 57.7459C72.2839 57.79 72.2333 57.8252 72.1773 57.8492C72.1212 57.8733 72.0609 57.8856 71.9999 57.8856C71.939 57.8856 71.8786 57.8733 71.8226 57.8492C71.7666 57.8252 71.716 57.79 71.674 57.7459L62.7865 48.452C61.3401 46.9234 60.2974 45.0586 59.7526 43.0259C59.2078 40.9933 59.1782 38.8569 59.6663 36.8099C60.6012 32.7433 63.275 29.6169 67.0024 28.2318C70.2272 27.0363 73.7738 27.0363 76.9986 28.2318C80.726 29.6167 83.3998 32.743 84.3347 36.8099C84.8228 38.8569 84.7932 40.9933 84.2484 43.0259C83.7036 45.0586 82.6609 46.9234 81.2145 48.452L72.3259 57.7459ZM78.1874 62.6905V56.5478L83.6758 50.7847C85.5079 48.8517 86.8294 46.4926 87.5206 43.9206C88.2119 41.3486 88.2512 38.6449 87.6349 36.0539C86.4584 30.9352 82.92 26.8289 78.1796 25.0683C74.1947 23.5912 69.8125 23.5912 65.8276 25.0683C61.0874 26.8312 57.5535 30.9374 56.3773 36.0539C55.759 38.6439 55.7961 41.3471 56.4852 43.9192C57.1744 46.4912 58.4939 48.8509 60.3244 50.7847L65.8124 56.5478V62.6905C55.1146 62.1672 44.5286 60.2689 34.3155 57.0425C34.558 47.4138 38.5075 38.2503 45.3405 31.4622C52.4083 24.4492 61.878 20.5868 71.9949 20.5868C81.7999 20.5161 91.2412 24.2957 98.2888 31.113C105.336 37.9302 109.427 47.2408 109.682 57.0428C99.4699 60.269 88.8846 62.1672 78.1874 62.6905V62.6905Z" fill="#17E5C3"/>
<path d="M49.6059 36.09C49.271 35.793 48.8319 35.6413 48.3852 35.6681C47.9384 35.6949 47.5206 35.898 47.2237 36.2329C45.1191 38.6067 43.3738 41.2762 42.0436 44.1562C41.9498 44.3575 41.8967 44.5753 41.8873 44.7972C41.8778 45.019 41.9123 45.2405 41.9886 45.449C42.0649 45.6576 42.1817 45.849 42.3321 46.0123C42.4826 46.1756 42.6638 46.3076 42.8653 46.4007C43.0669 46.4939 43.2849 46.5464 43.5067 46.5551C43.7286 46.5639 43.95 46.5287 44.1583 46.4517C44.3666 46.3748 44.5576 46.2574 44.7205 46.1065C44.8833 45.9555 45.0148 45.7739 45.1073 45.572C46.299 42.9913 47.8624 40.5992 49.7479 38.4719C50.0449 38.1372 50.1967 37.6982 50.1701 37.2515C50.1435 36.8049 49.9405 36.3871 49.6059 36.09Z" fill="#17E5C3"/>
<path d="M52.1152 31.7448C51.6975 32.0555 51.2824 32.3804 50.8816 32.71C50.7081 32.85 50.5641 33.023 50.4579 33.219C50.3516 33.415 50.2853 33.6301 50.2626 33.8519C50.24 34.0737 50.2615 34.2977 50.326 34.5111C50.3904 34.7245 50.4965 34.9231 50.6382 35.0952C50.7798 35.2674 50.9541 35.4098 51.1511 35.5142C51.3481 35.6186 51.5638 35.683 51.7858 35.7035C52.0078 35.7241 52.2316 35.7004 52.4444 35.634C52.6572 35.5675 52.8547 35.4596 53.0256 35.3164C53.3844 35.0213 53.7568 34.7305 54.13 34.4521C54.3105 34.3208 54.4632 34.1551 54.5791 33.9644C54.6951 33.7737 54.7721 33.562 54.8057 33.3414C54.8393 33.1207 54.8288 32.8957 54.7748 32.6791C54.7208 32.4626 54.6244 32.2589 54.4912 32.0799C54.3579 31.9009 54.1905 31.7501 53.9986 31.6362C53.8067 31.5223 53.5941 31.4476 53.3731 31.4164C53.1521 31.3853 52.9272 31.3982 52.7112 31.4546C52.4953 31.511 52.2927 31.6096 52.1152 31.7448V31.7448Z" fill="#17E5C3"/>
<path d="M83.3794 37.6623C83.3346 37.297 83.1716 36.9565 82.9153 36.6924C82.659 36.4284 82.3234 36.2554 81.9597 36.1998C81.7724 36.1716 77.3584 35.5324 74.8187 38.375C72.4197 41.0606 72.884 45.5046 72.9445 46.0027C72.9893 46.368 73.1523 46.7085 73.4086 46.9725C73.6649 47.2366 74.0005 47.4096 74.3642 47.4652C74.7879 47.5221 75.2151 47.549 75.6425 47.5459C77.1849 47.5459 79.7769 47.2225 81.5052 45.2898C83.9042 42.6041 83.4402 38.1601 83.3794 37.6623V37.6623ZM78.9883 43.0412C78.3133 43.796 77.195 44.0756 76.257 44.153C76.3082 42.9832 76.5602 41.4909 77.3359 40.6227C78.0109 39.8681 79.1281 39.5885 80.0671 39.5115C80.0157 40.6812 79.7625 42.173 78.9883 43.0412V43.0412Z" fill="#17E5C3"/>
<path d="M70.7687 46.002C70.8295 45.5039 71.2935 41.0599 68.8945 38.3742C66.3556 35.5316 61.9411 36.1704 61.7538 36.199C61.3901 36.2547 61.0546 36.4278 60.7983 36.6918C60.5421 36.9558 60.3791 37.2964 60.3343 37.6615C60.2736 38.1594 59.8092 42.6034 62.2083 45.289C63.9349 47.2221 66.5289 47.5452 68.0707 47.5452C68.4981 47.5483 68.9253 47.5213 69.349 47.4645C69.7127 47.4089 70.0483 47.2359 70.3046 46.9718C70.5609 46.7078 70.7239 46.3672 70.7687 46.002V46.002ZM64.7252 43.0416C63.9484 42.1719 63.6964 40.6912 63.6458 39.5164C64.5458 39.5864 65.6806 39.8426 66.3775 40.6228C67.1544 41.4922 67.4066 42.9729 67.4573 44.1474C66.5561 44.0777 65.4219 43.8215 64.7252 43.0416V43.0416Z" fill="#17E5C3"/>
<path d="M72.8457 51.4688H71.1543C70.7067 51.4688 70.2775 51.6465 69.9611 51.963C69.6446 52.2795 69.4668 52.7087 69.4668 53.1562C69.4668 53.6038 69.6446 54.033 69.9611 54.3495C70.2775 54.666 70.7067 54.8438 71.1543 54.8438H72.8457C73.2933 54.8438 73.7225 54.666 74.039 54.3495C74.3555 54.033 74.5332 53.6038 74.5332 53.1562C74.5332 52.7087 74.3555 52.2795 74.039 51.963C73.7225 51.6465 73.2933 51.4688 72.8457 51.4688Z" fill="#17E5C3"/>
</svg>
