<svg viewBox="0 0 72 72" fill="none" xmlns="http://www.w3.org/2000/svg">
    <path d="M16.2347 55.4611L19.0829 49.905L16.0704 44.3146L11.4512 43.5713L14.8641 49.905L11.582 56.3077L16.2347 55.4611Z" fill="#3E61EE" fill-opacity="0.2"/>
    <path d="M57.7868 49.0083C57.9688 49.0085 58.1458 48.9495 58.2914 48.8403L58.6601 48.5645C58.7498 48.4986 58.8256 48.4155 58.8831 48.3201C58.9405 48.2246 58.9785 48.1188 58.9949 48.0086C59.0112 47.8985 59.0056 47.7862 58.9783 47.6782C58.9511 47.5702 58.9027 47.4687 58.836 47.3795C58.7693 47.2903 58.6856 47.2152 58.5897 47.1585C58.4939 47.1018 58.3877 47.0647 58.2774 47.0492C58.1671 47.0337 58.0549 47.0402 57.9471 47.0684C57.8394 47.0965 57.7382 47.1457 57.6496 47.2131L57.2809 47.4889C57.1392 47.5951 57.0345 47.7433 56.9817 47.9123C56.9289 48.0813 56.9307 48.2627 56.9867 48.4307C57.0427 48.5987 57.1501 48.7448 57.2938 48.8484C57.4374 48.9519 57.61 49.0076 57.7871 49.0076L57.7868 49.0083Z" fill="#3E61EE"/>
    <path d="M52.0553 13.1003C52.2489 13.1004 52.4366 13.0337 52.5867 12.9114L55.9807 10.1552C56.1535 10.0138 56.2633 9.80973 56.286 9.58759C56.3087 9.36544 56.2423 9.14337 56.1016 8.97004C55.9608 8.7967 55.7571 8.68624 55.535 8.66285C55.3129 8.63946 55.0906 8.70505 54.9168 8.84525L51.5229 11.6015C51.3875 11.7114 51.2895 11.8606 51.2424 12.0284C51.1952 12.1963 51.2012 12.3747 51.2596 12.539C51.318 12.7033 51.4258 12.8455 51.5683 12.946C51.7108 13.0465 51.8809 13.1004 52.0553 13.1003Z" fill="#3E61EE"/>
    <path d="M41.2076 21.9104C41.4012 21.9105 41.589 21.8439 41.7392 21.7217L47.9101 16.7099C47.9965 16.6402 48.0683 16.5541 48.1214 16.4566C48.1745 16.3591 48.2078 16.252 48.2194 16.1416C48.231 16.0312 48.2208 15.9195 48.1892 15.8131C48.1576 15.7067 48.1053 15.6075 48.0353 15.5213C47.9653 15.4351 47.8789 15.3636 47.7812 15.3108C47.6835 15.2581 47.5764 15.2251 47.4659 15.2138C47.3555 15.2026 47.2439 15.2132 47.1375 15.2452C47.0312 15.2771 46.9322 15.3297 46.8462 15.4L40.6752 20.4116C40.5398 20.5215 40.4418 20.6707 40.3947 20.8385C40.3476 21.0064 40.3536 21.1848 40.412 21.3491C40.4703 21.5134 40.5782 21.6556 40.7206 21.7561C40.8631 21.8566 41.0332 21.9105 41.2076 21.9104V21.9104Z" fill="#3E61EE"/>
    <path d="M31.3911 29.882C31.5847 29.8822 31.7724 29.8156 31.9225 29.6933L36.3876 26.0671C36.4736 25.9973 36.545 25.9112 36.5978 25.8138C36.6505 25.7163 36.6836 25.6094 36.695 25.4992C36.7065 25.389 36.6961 25.2776 36.6645 25.1714C36.6329 25.0652 36.5806 24.9663 36.5108 24.8803C36.441 24.7943 36.3549 24.7228 36.2574 24.6701C36.16 24.6173 36.0531 24.5843 35.9429 24.5729C35.8327 24.5614 35.7213 24.5718 35.6151 24.6034C35.5089 24.635 35.4099 24.6872 35.3239 24.7571L30.8588 28.3832C30.7234 28.4931 30.6254 28.6423 30.5783 28.8101C30.5312 28.978 30.5372 29.1563 30.5955 29.3206C30.6539 29.4849 30.7617 29.6271 30.9041 29.7277C31.0466 29.8282 31.2167 29.8821 31.3911 29.882V29.882Z" fill="#3E61EE"/>
    <path d="M68.7739 24.2082C68.6298 24.0369 68.4236 23.93 68.2007 23.9108C67.9777 23.8916 67.7563 23.9618 67.5851 24.1059L64.5106 26.6934C64.3451 26.8392 64.2433 27.0439 64.2269 27.2638C64.2106 27.4836 64.2809 27.7012 64.4229 27.8699C64.5649 28.0385 64.7672 28.1449 64.9867 28.1663C65.2061 28.1876 65.4252 28.1222 65.597 27.9841L68.6715 25.3966C68.8426 25.2525 68.9495 25.0464 68.9687 24.8236C68.9879 24.6007 68.9178 24.3794 68.7739 24.2082V24.2082Z" fill="#3E61EE"/>
    <path d="M49.1763 41.5427C49.375 41.5428 49.5673 41.4726 49.7192 41.3444L60.1765 32.5451C60.3477 32.401 60.4546 32.1948 60.4738 31.9718C60.493 31.7488 60.4229 31.5274 60.2788 31.3562C60.1347 31.1849 59.9285 31.078 59.7055 31.0588C59.4825 31.0396 59.2611 31.1098 59.0898 31.2539L48.6325 40.0533C48.5001 40.1648 48.4051 40.3143 48.3605 40.4815C48.3159 40.6488 48.3238 40.8257 48.3832 40.9883C48.4426 41.1509 48.5505 41.2913 48.6924 41.3905C48.8343 41.4897 49.0032 41.5428 49.1763 41.5427V41.5427Z" fill="#3E61EE"/>
    <path d="M43.9467 43.9965L42.2224 45.4476C42.0512 45.5917 41.9442 45.7979 41.925 46.0209C41.9058 46.2438 41.9759 46.4653 42.12 46.6365C42.2641 46.8077 42.4703 46.9147 42.6932 46.9339C42.9162 46.9531 43.1376 46.8829 43.3089 46.7389L45.0333 45.2877C45.2046 45.1437 45.3115 44.9374 45.3307 44.7145C45.3499 44.4915 45.2797 44.2701 45.1356 44.0988C44.9916 43.9276 44.7853 43.8206 44.5624 43.8014C44.3394 43.7823 44.118 43.8524 43.9467 43.9965V43.9965Z" fill="#3E61EE"/>
    <path d="M55.7619 22.6772C55.9001 22.8533 56.1025 22.9673 56.3246 22.9941C56.5468 23.0209 56.7705 22.9584 56.9466 22.8202L69.5672 12.9202C69.6558 12.8524 69.7301 12.7676 69.7857 12.6708C69.8413 12.574 69.8771 12.4672 69.8911 12.3564C69.9052 12.2457 69.8971 12.1333 69.8673 12.0257C69.8376 11.9181 69.7868 11.8175 69.7179 11.7297C69.6491 11.6419 69.5634 11.5686 69.466 11.5141C69.3686 11.4596 69.2614 11.425 69.1505 11.4123C69.0396 11.3995 68.9273 11.4089 68.8201 11.4398C68.7128 11.4708 68.6128 11.5227 68.5258 11.5926L55.905 21.4926C55.7289 21.6307 55.6149 21.8331 55.5881 22.0553C55.5613 22.2775 55.6238 22.5012 55.7619 22.6772V22.6772Z" fill="#3E61EE"/>
    <path d="M49.1755 28.6872C49.3643 28.6874 49.5476 28.624 49.6959 28.5072L51.6635 26.9637C51.7507 26.8953 51.8235 26.8104 51.8779 26.7139C51.9323 26.6173 51.9671 26.511 51.9804 26.401C51.9937 26.291 51.9852 26.1795 51.9554 26.0728C51.9256 25.9661 51.875 25.8663 51.8066 25.7791C51.7382 25.6919 51.6534 25.619 51.5568 25.5646C51.4603 25.5103 51.354 25.4754 51.244 25.4621C51.134 25.4489 51.0224 25.4574 50.9157 25.4872C50.809 25.517 50.7092 25.5675 50.622 25.6359L48.6552 27.1794C48.5171 27.2877 48.4162 27.4364 48.3665 27.6047C48.3168 27.7731 48.3209 27.9528 48.3782 28.1187C48.4354 28.2846 48.543 28.4286 48.6859 28.5305C48.8289 28.6324 49 28.6871 49.1755 28.6872Z" fill="#3E61EE"/>
    <path d="M43.2855 31.3917L30.8669 41.2214C30.7801 41.2902 30.7076 41.3754 30.6536 41.4722C30.5997 41.569 30.5653 41.6754 30.5525 41.7855C30.5397 41.8956 30.5487 42.0071 30.579 42.1136C30.6093 42.2202 30.6603 42.3198 30.7291 42.4067C30.7978 42.4936 30.883 42.566 30.9798 42.62C31.0766 42.6739 31.1831 42.7083 31.2931 42.7211C31.4032 42.7339 31.5147 42.7249 31.6213 42.6946C31.7279 42.6643 31.8274 42.6133 31.9143 42.5446L44.3328 32.7149C44.5083 32.576 44.6214 32.3731 44.6473 32.1508C44.6731 31.9286 44.6097 31.7051 44.4708 31.5296C44.3319 31.3541 44.129 31.241 43.9068 31.2151C43.6845 31.1893 43.461 31.2527 43.2855 31.3916V31.3917Z" fill="#3E61EE"/>
    <path d="M3.81516 35.4067C4.15253 35.4067 4.48234 35.3066 4.76285 35.1192C5.04337 34.9318 5.262 34.6653 5.39111 34.3536C5.52021 34.0419 5.55398 33.699 5.48815 33.3681C5.42232 33.0372 5.25985 32.7332 5.02128 32.4947C4.7827 32.2561 4.47875 32.0937 4.14785 32.0279C3.81695 31.9621 3.47397 31.9959 3.16228 32.125C2.8506 32.2541 2.5842 32.4728 2.39678 32.7533C2.20937 33.0339 2.10935 33.3637 2.10938 33.701C2.10993 34.1533 2.28983 34.5868 2.60961 34.9065C2.92939 35.2263 3.36294 35.4062 3.81516 35.4067V35.4067Z" fill="#3E61EE"/>
    <path d="M11.5767 28.3941C11.7777 28.3941 11.9741 28.3345 12.1412 28.2229C12.3084 28.1112 12.4386 27.9525 12.5155 27.7668C12.5924 27.5812 12.6125 27.3768 12.5733 27.1797C12.5341 26.9826 12.4373 26.8016 12.2952 26.6594C12.1531 26.5173 11.9721 26.4206 11.7749 26.3813C11.5778 26.3421 11.3735 26.3623 11.1878 26.4392C11.0022 26.5161 10.8435 26.6463 10.7318 26.8134C10.6201 26.9805 10.5605 27.177 10.5605 27.378C10.5609 27.6474 10.668 27.9056 10.8585 28.0961C11.049 28.2866 11.3073 28.3938 11.5767 28.3941V28.3941Z" fill="#3E61EE"/>
    <path d="M44.5449 61.8102C44.5449 62.1133 44.6348 62.4097 44.8033 62.6617C44.9717 62.9138 45.2111 63.1103 45.4912 63.2263C45.7712 63.3423 46.0794 63.3727 46.3768 63.3135C46.6741 63.2544 46.9472 63.1084 47.1616 62.894C47.376 62.6796 47.522 62.4065 47.5811 62.1092C47.6402 61.8119 47.6099 61.5037 47.4939 61.2236C47.3779 60.9435 47.1814 60.7041 46.9293 60.5357C46.6773 60.3672 46.3809 60.2773 46.0777 60.2773C45.6714 60.2779 45.2818 60.4396 44.9945 60.7269C44.7072 61.0142 44.5455 61.4038 44.5449 61.8102Z" fill="#3E61EE"/>
    <path d="M43.8093 11.3184C44.071 11.3184 44.3268 11.2408 44.5444 11.0954C44.7619 10.95 44.9315 10.7434 45.0316 10.5016C45.1318 10.2599 45.158 9.99385 45.1069 9.73721C45.0558 9.48057 44.9298 9.24483 44.7448 9.05981C44.5597 8.87479 44.324 8.7488 44.0673 8.69777C43.8107 8.64674 43.5447 8.67296 43.3029 8.77311C43.0612 8.87327 42.8546 9.04286 42.7092 9.26045C42.5639 9.47803 42.4863 9.73383 42.4863 9.9955C42.4867 10.3462 42.6263 10.6825 42.8743 10.9305C43.1223 11.1785 43.4586 11.318 43.8093 11.3184V11.3184Z" fill="#3E61EE"/>
    <path d="M33.251 52.0665C33.3277 52.204 33.4413 52.3173 33.5788 52.3937C33.7164 52.4701 33.8726 52.5065 34.0298 52.4989L36.097 52.3968L37.3532 54.0422C37.4488 54.1673 37.5774 54.2632 37.7246 54.3191C37.8718 54.3749 38.0317 54.3884 38.1862 54.3581C38.3408 54.3278 38.4837 54.2549 38.5989 54.1476C38.7141 54.0403 38.797 53.9029 38.8382 53.7509L39.3801 51.7531L41.3332 51.0667C41.4817 51.0145 41.6127 50.9218 41.7113 50.799C41.8099 50.6763 41.8722 50.5284 41.8911 50.3721C41.9101 50.2158 41.8849 50.0573 41.8184 49.9146C41.752 49.7718 41.6469 49.6505 41.5152 49.5644L39.7822 48.4314L39.733 46.3619C39.7293 46.2045 39.6816 46.0513 39.5953 45.9195C39.5091 45.7878 39.3876 45.6829 39.2448 45.6165C39.102 45.5502 38.9435 45.5252 38.7872 45.5443C38.6309 45.5634 38.483 45.6259 38.3604 45.7246L36.7477 47.0224L34.7649 46.4297C34.614 46.3846 34.4536 46.3827 34.3017 46.4241C34.1498 46.4654 34.0125 46.5485 33.9053 46.6638C33.7981 46.7791 33.7253 46.9222 33.6952 47.0767C33.6651 47.2312 33.6788 47.3911 33.7348 47.5383L34.4708 49.4731L33.2942 51.1764C33.2047 51.3059 33.1532 51.458 33.1455 51.6153C33.1379 51.7726 33.1744 51.9289 33.251 52.0665V52.0665ZM36.2056 49.2879L35.9197 48.5364L36.6902 48.7666C36.8213 48.8058 36.9599 48.8125 37.0941 48.7861C37.2284 48.7598 37.3542 48.7012 37.4608 48.6154L38.0871 48.1114L38.1063 48.9153C38.1095 49.052 38.146 49.1859 38.2125 49.3054C38.279 49.425 38.3736 49.5265 38.4881 49.6014L39.1612 50.0414L38.4026 50.3086C38.2735 50.3539 38.1575 50.43 38.0644 50.5302C37.9713 50.6304 37.904 50.7517 37.8682 50.8837L37.6573 51.6598L37.1693 51.0207C37.0905 50.9175 36.9891 50.834 36.8727 50.7764C36.7564 50.7189 36.6284 50.689 36.4986 50.689C36.4846 50.689 36.4705 50.689 36.4565 50.6901L35.6533 50.7297L36.1104 50.0688C36.1885 49.9562 36.238 49.8262 36.2546 49.6901C36.2711 49.5541 36.2543 49.416 36.2056 49.2879V49.2879Z" fill="#3E61EE"/>
    <path d="M22.8648 34.6357L24.9319 34.5336L26.1883 36.1789C26.2838 36.304 26.4125 36.4 26.5597 36.4558C26.7069 36.5117 26.8668 36.5252 27.0213 36.4949C27.1758 36.4646 27.3187 36.3917 27.4339 36.2844C27.5492 36.1772 27.6321 36.0398 27.6733 35.8878L28.2161 33.8904L30.1692 33.204C30.3177 33.1518 30.4487 33.059 30.5472 32.9363C30.6458 32.8135 30.708 32.6657 30.727 32.5094C30.7459 32.3531 30.7207 32.1947 30.6543 32.052C30.5878 31.9093 30.4828 31.788 30.3511 31.7018L28.6184 30.5689L28.5692 28.4995C28.5655 28.3421 28.5178 28.1889 28.4315 28.0572C28.3452 27.9255 28.2238 27.8206 28.081 27.7543C27.9382 27.688 27.7797 27.6629 27.6235 27.682C27.4672 27.7011 27.3194 27.7635 27.1967 27.8622L25.5839 29.1602L23.6011 28.5674C23.4502 28.5224 23.2898 28.5204 23.1379 28.5617C22.9859 28.6031 22.8486 28.6861 22.7415 28.8014C22.6343 28.9167 22.5615 29.0598 22.5313 29.2143C22.5012 29.3688 22.5149 29.5287 22.5708 29.6758L23.3069 31.6107L22.1297 33.3138C22.0403 33.4433 21.989 33.5953 21.9814 33.7525C21.9739 33.9096 22.0104 34.0658 22.087 34.2033C22.1635 34.3408 22.277 34.4541 22.4145 34.5306C22.5521 34.607 22.7083 34.6434 22.8655 34.6357H22.8648ZM25.0405 31.4248L24.7546 30.6733L25.5251 30.9035C25.6562 30.9427 25.7949 30.9495 25.9292 30.9232C26.0635 30.897 26.1894 30.8384 26.296 30.7526L26.9225 30.2485L26.9416 31.0523C26.9449 31.1891 26.9813 31.323 27.0479 31.4426C27.1144 31.5621 27.209 31.6637 27.3236 31.7385L27.9966 32.1785L27.2372 32.4457C27.1082 32.4911 26.9921 32.5672 26.8991 32.6674C26.806 32.7676 26.7386 32.8889 26.7028 33.0209L26.4919 33.797L26.0039 33.1579C25.9252 33.0547 25.8237 32.9711 25.7074 32.9136C25.5911 32.8561 25.4631 32.8261 25.3333 32.8261C25.3192 32.8261 25.3052 32.8261 25.2911 32.8271L24.488 32.8668L24.945 32.2051C25.0231 32.0927 25.0727 31.9629 25.0895 31.827C25.1062 31.6911 25.0897 31.5531 25.0412 31.4251L25.0405 31.4248Z" fill="#3E61EE"/>
    <path d="M13.9106 49.9149L10.83 55.9233C10.7582 56.0634 10.727 56.2207 10.74 56.3776C10.753 56.5345 10.8096 56.6846 10.9034 56.811C10.9972 56.9374 11.1245 57.0351 11.2709 57.0929C11.4173 57.1507 11.577 57.1664 11.7319 57.1383L18.3747 55.9289L23.137 60.7155C23.248 60.8271 23.3881 60.9054 23.5413 60.9416C23.6946 60.9778 23.8549 60.9704 24.0041 60.9202C24.1533 60.87 24.2855 60.7791 24.3858 60.6576C24.486 60.5362 24.5503 60.3892 24.5713 60.2332L25.4739 53.5418L31.4977 50.4918C31.6381 50.4207 31.7559 50.3117 31.8376 50.1771C31.9194 50.0426 31.9618 49.8878 31.9602 49.7304C31.9586 49.573 31.913 49.4191 31.8285 49.2863C31.7441 49.1535 31.6241 49.0469 31.4822 48.9786L25.3971 46.0525L24.358 39.381C24.3338 39.2254 24.2665 39.0797 24.1638 38.9604C24.0611 38.841 23.9271 38.7528 23.7768 38.7057C23.6266 38.6585 23.4662 38.6544 23.3137 38.6937C23.1613 38.733 23.0228 38.8142 22.9141 38.928L18.2508 43.8111L11.5852 42.7379C11.4298 42.7128 11.2704 42.7318 11.1252 42.7926C10.98 42.8535 10.8547 42.9537 10.7635 43.082C10.6723 43.2103 10.6188 43.3616 10.609 43.5187C10.5993 43.6758 10.6337 43.8325 10.7084 43.9711L13.9106 49.9149ZM18.4211 45.5475C18.5562 45.5693 18.6945 45.5579 18.8242 45.5143C18.9538 45.4706 19.071 45.3962 19.1654 45.2972L22.9536 41.3296L23.7973 46.7503C23.8184 46.8855 23.872 47.0135 23.9535 47.1233C24.035 47.2332 24.1421 47.3216 24.2653 47.3809L29.2094 49.7574L24.3157 52.2355C24.1936 52.2973 24.0884 52.3879 24.0091 52.4994C23.9299 52.6109 23.8789 52.74 23.8606 52.8756L23.1274 58.3123L19.2581 54.4234C19.1797 54.3446 19.0865 54.282 18.9839 54.2394C18.8812 54.1967 18.7712 54.1747 18.66 54.1747C18.6093 54.1748 18.5587 54.1795 18.5089 54.1888L13.1115 55.1713L15.6147 50.2898C15.6771 50.1681 15.709 50.033 15.7076 49.8962C15.7062 49.7594 15.6715 49.625 15.6066 49.5046L13.0041 44.6755L18.4211 45.5475Z" fill="#17E5C3"/>
</svg>
