<svg viewBox="0 0 24 24" fill="none" xmlns="http://www.w3.org/2000/svg">
<path d="M23 12C23 5.92422 18.0758 1 12 1C5.92422 1 1 5.92422 1 12C1 18.0758 5.92422 23 12 23C12.0645 23 12.1289 23 12.1934 22.9957V14.4363H9.83008V11.682H12.1934V9.65391C12.1934 7.30352 13.6285 6.02305 15.7254 6.02305C16.7309 6.02305 17.5945 6.09609 17.8438 6.13047V8.58828H16.4C15.2613 8.58828 15.0379 9.12969 15.0379 9.92461V11.6777H17.7664L17.4098 14.432H15.0379V22.5746C19.6355 21.2555 23 17.023 23 12Z" fill="currentColor"/>
</svg>
