<svg viewBox="0 0 24 24" fill="none" xmlns="http://www.w3.org/2000/svg">
<path d="M22.9947 23.0002V22.9993H23.0002V14.9728C23.0002 11.0462 22.147 8.02148 17.5136 8.02148C15.2862 8.02148 13.7914 9.23247 13.1812 10.3805H13.1168V8.38806H8.72363V22.9993H13.2981V15.7643C13.2981 13.8594 13.6626 12.0174 16.0437 12.0174C18.3898 12.0174 18.4248 14.1913 18.4248 15.8865V23.0002H22.9947Z" fill="currentColor"/>
<path d="M1.46777 8.25537H5.91458V23H1.46777V8.25537Z" fill="currentColor"/>
<path d="M3.69149 1C2.20566 1 1 2.20004 1 3.67894C1 5.15784 2.20566 6.38297 3.69149 6.38297C5.17731 6.38297 6.38297 5.15784 6.38297 3.67894C6.38204 2.20004 5.17638 1 3.69149 1V1Z" fill="currentColor"/>
</svg>
