<svg viewBox="0 0 24 24" fill="none" xmlns="http://www.w3.org/2000/svg">
<path fill-rule="evenodd" clip-rule="evenodd" d="M20.7614 8.07024C20.7614 14.0766 16.2213 21 7.91848 21C5.3689 21 2.99748 20.2483 1 18.9573C1.35316 18.9992 1.71262 19.022 2.07712 19.022C4.19106 19.022 6.13755 18.295 7.68178 17.0769C5.70696 17.0408 4.0406 15.7263 3.46585 13.9219C3.74221 13.9758 4.02487 14.0012 4.31571 14.0012C4.72679 14.0012 5.12528 13.9441 5.50425 13.8421C3.43878 13.4263 1.88322 11.5896 1.88322 9.38597C1.88322 9.36632 1.88322 9.35048 1.88385 9.33083C2.49197 9.66991 3.18823 9.87652 3.92792 9.89617C2.71797 9.08302 1.92037 7.69124 1.92037 6.11566C1.92037 5.28288 2.14259 4.50143 2.53163 3.83215C4.757 6.58023 8.08278 8.38967 11.8354 8.57917C11.7573 8.24644 11.7177 7.89976 11.7177 7.54167C11.7177 5.03507 13.7391 3 16.2313 3C17.5301 3 18.7029 3.55076 19.5269 4.43488C20.5537 4.23017 21.5206 3.85307 22.3919 3.33083C22.0551 4.39368 21.3399 5.28288 20.4076 5.84504C21.3211 5.73793 22.1904 5.49329 23 5.13014C22.3938 6.04025 21.6302 6.84008 20.7482 7.4821C20.7564 7.67667 20.7614 7.87377 20.7614 8.07024Z" fill="currentColor"/>
</svg>
