<svg viewBox="0 0 80 80" fill="none" xmlns="http://www.w3.org/2000/svg">
<path d="M66.3859 30.0926C65.4281 29.3645 64.4489 28.6775 63.4484 28.0317C60.8383 26.3438 58.0675 24.9186 55.1765 23.777C53.8859 23.2666 52.5781 22.8145 51.2531 22.4207C50.4343 22.177 49.6109 21.9561 48.7828 21.7582C39.1276 19.4446 28.9921 20.1883 19.7781 23.8863L21.0281 27.0113C30.2421 23.3133 40.3776 22.5696 50.0328 24.8832C50.8609 25.0817 51.6843 25.3025 52.5031 25.5457C53.8265 25.9395 55.1343 26.3916 56.4265 26.902C59.3175 28.0436 62.0883 29.4688 64.6984 31.1567C65.6968 31.802 66.676 32.489 67.6359 33.2176C68.9341 34.2047 70.0194 35.4441 70.8264 36.8613C70.1617 34.1646 68.5949 31.7762 66.3859 30.0926Z" fill="#3E61EE" fill-opacity="0.2"/>
<path d="M2.96876 42.9684C2.96781 41.9335 3.17212 40.9088 3.56987 39.9534C3.96761 38.9981 4.55089 38.1311 5.28595 37.4027C8.8905 33.8094 13.0503 30.8201 17.6056 28.5498C17.2613 27.484 16.8682 26.4303 16.4266 25.3887C11.8436 27.6634 7.65926 30.6653 4.03595 34.2777C2.73701 35.5673 1.93003 37.2706 1.75479 39.0925C1.57955 40.9145 2.04709 42.7403 3.07642 44.2538C3.00549 43.829 2.96948 43.3991 2.96876 42.9684Z" fill="#3E61EE" fill-opacity="0.2"/>
<path d="M17.2897 25.0205L15.5648 25.756C17.4765 30.2247 18.466 35.0335 18.4742 39.8939C18.4924 44.7335 17.5376 49.5274 15.6665 53.9907L17.3965 54.7136C19.3644 50.0199 20.3687 44.9785 20.3497 39.8889C20.3411 34.7773 19.3003 29.7201 17.2897 25.0205Z" fill="#968B82"/>
<path d="M18.9199 24.2637C21.0787 29.1808 22.203 34.4894 22.2229 39.8594C22.2429 45.2295 21.158 50.5463 19.0357 55.4792L20.7573 56.2227C22.9814 51.0527 24.1184 45.4806 24.0974 39.8526C24.0765 34.2246 22.8981 28.661 20.6355 23.5078L18.9199 24.2637Z" fill="#968B82"/>
<path d="M62.5001 57.5197C59.9668 57.3714 57.5117 56.5876 55.361 55.2408L54.3595 56.8272C56.8128 58.3567 59.6132 59.2407 62.5001 59.397V62.1856C60.4296 62.0737 58.4052 61.531 56.5562 60.5924C54.7073 59.6538 53.0745 58.3398 51.7621 56.7344L50.3115 57.9259C51.8072 59.7373 53.663 61.2182 55.7612 62.2746C57.8594 63.3309 60.1542 63.9398 62.5001 64.0625V66.8498C59.679 66.7004 56.9584 65.7526 54.6551 64.1169C52.3518 62.4812 50.5605 60.2249 49.4898 57.6106L47.7592 58.3253C49.0324 61.4188 51.1986 64.0627 53.9813 65.9195C56.764 67.7763 60.0368 68.7617 63.3821 68.75H63.449C63.5715 68.7498 63.6928 68.7253 63.8058 68.678C63.9188 68.6306 64.0213 68.5614 64.1074 68.4742C64.1935 68.3871 64.2615 68.2837 64.3074 68.1701C64.3534 68.0566 64.3764 67.935 64.3751 67.8125V51.875H62.5001V57.5197Z" fill="#968B82"/>
<path d="M63.449 11.25H63.3821C60.1308 11.2495 56.9483 12.1862 54.2156 13.9478C51.4829 15.7095 49.3159 18.2215 47.974 21.183L49.6771 21.953C50.8003 19.4499 52.5911 17.3043 54.8529 15.7516C57.1148 14.1988 59.7605 13.2988 62.5001 13.1502V15.9375C60.2102 16.0459 57.9668 16.6231 55.9089 17.6332C53.851 18.6434 52.0223 20.0652 50.5359 21.8105L51.956 23.0312C53.2726 21.4975 54.8849 20.245 56.6966 19.3487C58.5083 18.4524 60.4821 17.9307 62.5001 17.8147V20.6028C59.7407 20.7342 57.0569 21.548 54.6893 22.9714L55.6496 24.5808C57.7348 23.3484 60.0826 22.6285 62.5001 22.48V28.125H64.3751V12.1875C64.3764 12.065 64.3534 11.9434 64.3074 11.8299C64.2615 11.7163 64.1935 11.6129 64.1074 11.5258C64.0213 11.4386 63.9188 11.3694 63.8058 11.322C63.6928 11.2747 63.5715 11.2502 63.449 11.25Z" fill="#968B82"/>
<path d="M78.2813 38.9062H72.0938C71.96 37.0401 71.4328 35.2235 70.5468 33.5758C69.6608 31.9281 68.4361 30.4865 66.9532 29.3458C57.618 22.2826 46.0474 18.8253 34.3674 19.6092C22.6875 20.3931 11.6827 25.3656 3.37506 33.613C2.55317 34.4293 1.90089 35.4002 1.45577 36.4696C1.01065 37.539 0.781494 38.686 0.781494 39.8444C0.781494 41.0027 1.01065 42.1497 1.45577 43.2191C1.90089 44.2886 2.55317 45.2594 3.37506 46.0757C8.351 51.0264 14.3435 54.8364 20.9376 57.2421V64.0979C20.9376 64.2981 21.0017 64.4931 21.1205 64.6543C21.2394 64.8155 21.4067 64.9343 21.598 64.9935C28.3279 67.0823 35.5254 67.1328 42.284 65.1387L42.7644 64.998C42.9589 64.9409 43.1295 64.8223 43.2509 64.66C43.3722 64.4977 43.4377 64.3005 43.4376 64.0979V59.8387C51.9807 58.8192 60.0979 55.5413 66.9532 50.3423C68.4361 49.2015 69.6608 47.7598 70.5468 46.1119C71.4328 44.464 71.96 42.6473 72.0938 40.7812H78.2813C78.53 40.7812 78.7684 40.6824 78.9442 40.5066C79.12 40.3308 79.2188 40.0923 79.2188 39.8437C79.2188 39.595 79.12 39.3566 78.9442 39.1807C78.7684 39.0049 78.53 38.9062 78.2813 38.9062ZM22.8126 57.8851C23.3302 58.0504 23.8515 58.2048 24.3751 58.3527V63.8077C23.8523 63.6838 23.3314 63.5476 22.8126 63.3993V57.8851ZM37.6143 60.1874C37.7848 60.1874 37.9549 60.184 38.1251 60.1823V64.1946C37.6056 64.2874 37.0848 64.3677 36.5626 64.4354V60.1751C36.9133 60.1826 37.264 60.1874 37.6143 60.1874ZM34.6876 64.6283C34.1667 64.6671 33.6459 64.6937 33.1251 64.7082V59.9787C33.6001 60.0226 34.0757 60.0619 34.5532 60.0919C34.598 60.0948 34.6427 60.0966 34.6876 60.0993V64.6283ZM31.2501 64.7085C30.7292 64.6941 30.2084 64.6678 29.6876 64.6294V59.5371C30.2066 59.6227 30.7271 59.7027 31.2501 59.7715V64.7085ZM27.8126 64.4374C27.2905 64.3693 26.7696 64.2892 26.2501 64.1973V58.8437C26.7685 58.968 27.2893 59.0842 27.8126 59.1923V64.4374ZM41.5626 63.3955C41.0439 63.5447 40.5231 63.681 40.0001 63.8044V60.1271C40.5218 60.1016 41.0429 60.0701 41.5626 60.0279V63.3955ZM65.8193 48.8487C57.7037 54.9991 47.7973 58.323 37.6144 58.3124C36.6358 58.3124 35.6545 58.2817 34.6705 58.2204C23.3749 57.5175 12.721 52.7282 4.69741 44.7465C4.05061 44.1044 3.53727 43.3408 3.18696 42.4994C2.83665 41.6581 2.6563 40.7558 2.6563 39.8444C2.6563 38.9331 2.83665 38.0308 3.18696 37.1894C3.53727 36.3481 4.05061 35.5844 4.69741 34.9424C12.721 26.9607 23.3749 22.1715 34.6705 21.4687C35.6535 21.4071 36.6348 21.3764 37.6144 21.3765C47.7972 21.3658 57.7034 24.6892 65.8193 30.839C67.0692 31.8073 68.1051 33.024 68.8616 34.4124C69.6181 35.8008 70.0788 37.3309 70.2148 38.9062H64.0313C63.7827 38.9062 63.5442 39.0049 63.3684 39.1807C63.1926 39.3566 63.0938 39.595 63.0938 39.8437C63.0938 40.0923 63.1926 40.3308 63.3684 40.5066C63.5442 40.6824 63.7827 40.7812 64.0313 40.7812H70.2149C70.0789 42.3566 69.6181 43.8868 68.8616 45.2753C68.1051 46.6639 67.0692 47.8808 65.8193 48.8493V48.8487Z" fill="#3E61EE"/>
</svg>
