<svg viewBox="0 0 144 144" fill="none" xmlns="http://www.w3.org/2000/svg">
<path d="M119.495 54.1657C117.771 52.8551 116.008 51.6185 114.207 50.456C109.509 47.4179 104.522 44.8525 99.3178 42.7976C96.9946 41.8788 94.6406 41.0651 92.2556 40.3563C90.7818 39.9176 89.2996 39.5201 87.809 39.1638C70.4298 34.9993 52.1859 36.3379 35.6006 42.9944L37.8506 48.6194C54.4359 41.9629 72.6798 40.6243 90.059 44.7888C91.5496 45.146 93.0318 45.5435 94.5056 45.9813C96.8878 46.6901 99.2418 47.5038 101.568 48.4226C106.772 50.4775 111.759 53.0429 116.457 56.081C118.254 57.2426 120.017 58.4791 121.745 59.7907C124.081 61.5675 126.035 63.7984 127.487 66.3494C126.291 61.4953 123.471 57.1962 119.495 54.1657Z" fill="#3E61EE" fill-opacity="0.2"/>
<path d="M5.34377 77.3436C5.34206 75.4809 5.70982 73.6364 6.42576 71.9168C7.1417 70.1972 8.19161 68.6366 9.51471 67.3255C16.0029 60.8574 23.4906 55.4767 31.6901 51.3902C31.0703 49.4718 30.3628 47.5752 29.5678 45.7002C21.3185 49.7948 13.7867 55.1981 7.26471 61.7005C4.92662 64.0217 3.47405 67.0876 3.15862 70.3671C2.84319 73.6466 3.68476 76.9332 5.53755 79.6575C5.40988 78.8928 5.34507 78.1189 5.34377 77.3436V77.3436Z" fill="#3E61EE" fill-opacity="0.2"/>
<path d="M31.1213 45.0376L28.0166 46.3614C31.4575 54.4052 33.2388 63.061 33.2535 71.8098C33.2862 80.521 31.5676 89.15 28.1997 97.1839L31.3137 98.4852C34.8559 90.0365 36.6636 80.9619 36.6293 71.8008C36.6139 62.5999 34.7404 53.4969 31.1213 45.0376V45.0376Z" fill="#17E5C3"/>
<path d="M34.0557 43.6742C37.9415 52.5249 39.9652 62.0803 40.0011 71.7464C40.0369 81.4125 38.0841 90.9827 34.2641 99.862L37.3629 101.2C41.3664 91.8943 43.4129 81.8645 43.3752 71.7341C43.3375 61.6036 41.2164 51.5893 37.1438 42.3135L34.0557 43.6742Z" fill="#17E5C3"/>
<path d="M112.5 103.535C107.941 103.268 103.521 101.858 99.6502 99.4334L97.8474 102.289C102.263 105.042 107.304 106.633 112.5 106.915V111.934C108.774 111.733 105.13 110.756 101.802 109.066C98.4734 107.377 95.5344 105.012 93.1721 102.122L90.561 104.267C93.2533 107.527 96.5937 110.193 100.37 112.094C104.147 113.996 108.278 115.092 112.5 115.312V120.33C107.423 120.061 102.526 118.355 98.3795 115.41C94.2336 112.466 91.0092 108.405 89.0819 103.699L85.9668 104.986C88.2586 110.554 92.1578 115.313 97.1666 118.655C102.175 121.997 108.067 123.771 114.088 123.75H114.209C114.429 123.75 114.647 123.706 114.851 123.62C115.054 123.535 115.239 123.41 115.394 123.254C115.549 123.097 115.671 122.911 115.754 122.706C115.836 122.502 115.878 122.283 115.875 122.062V93.375H112.5V103.535Z" fill="#17E5C3"/>
<path d="M114.209 20.25H114.088C108.236 20.2491 102.507 21.9352 97.5883 25.1061C92.6695 28.2771 88.7689 32.7986 86.3535 38.1293L89.4191 39.5153C91.4409 35.0097 94.6642 31.1478 98.7356 28.3528C102.807 25.5579 107.569 23.9378 112.5 23.6703V28.6875C108.379 28.8826 104.341 29.9215 100.636 31.7398C96.9321 33.5582 93.6404 36.1173 90.9649 39.2588L93.5212 41.4562C95.8909 38.6955 98.7931 36.4411 102.054 34.8277C105.315 33.2143 108.868 32.2752 112.5 32.0664V37.0851C107.534 37.3216 102.703 38.7865 98.4411 41.3485L100.17 44.2454C103.923 42.0272 108.149 40.7312 112.5 40.464V50.625H115.875V21.9375C115.878 21.717 115.836 21.4982 115.754 21.2938C115.671 21.0893 115.549 20.9033 115.394 20.7464C115.239 20.5895 115.054 20.4649 114.851 20.3797C114.647 20.2945 114.429 20.2504 114.209 20.25V20.25Z" fill="#17E5C3"/>
<path d="M140.906 70.0312H129.768C129.528 66.6723 128.579 63.4024 126.984 60.4365C125.389 57.4706 123.185 54.8758 120.515 52.8226C103.712 40.1087 82.8849 33.8856 61.8609 35.2966C40.837 36.7077 21.0284 45.6582 6.07468 60.5036C4.59527 61.9729 3.42116 63.7204 2.61995 65.6454C1.81873 67.5704 1.40625 69.6349 1.40625 71.72C1.40625 73.805 1.81873 75.8695 2.61995 77.7945C3.42116 79.7195 4.59527 81.467 6.07468 82.9364C15.0314 91.8476 25.8178 98.7057 37.6872 103.036V115.376C37.6872 115.737 37.8026 116.088 38.0165 116.378C38.2305 116.668 38.5317 116.882 38.876 116.988C50.9898 120.748 63.9453 120.839 76.1107 117.25L76.9755 116.997C77.3255 116.894 77.6327 116.68 77.8511 116.388C78.0695 116.096 78.1874 115.741 78.1872 115.376V107.71C93.5649 105.875 108.176 99.9744 120.515 90.6162C123.185 88.5627 125.389 85.9677 126.984 83.0015C128.579 80.0354 129.528 76.7653 129.768 73.4062H140.906C141.353 73.4062 141.783 73.2284 142.099 72.9119C142.416 72.5955 142.593 72.1662 142.593 71.7187C142.593 71.2711 142.416 70.8419 142.099 70.5254C141.783 70.209 141.353 70.0312 140.906 70.0312ZM41.0622 104.193C41.994 104.491 42.9322 104.769 43.8747 105.035V114.854C42.9336 114.631 41.9961 114.386 41.0622 114.119V104.193ZM67.7053 108.337C68.0121 108.337 68.3184 108.331 68.6247 108.328V115.55C67.6896 115.717 66.7521 115.862 65.8122 115.984V108.315C66.4436 108.329 67.0747 108.337 67.7053 108.337V108.337ZM62.4372 116.331C61.4997 116.401 60.5622 116.449 59.6247 116.475V107.962C60.4797 108.041 61.3358 108.112 62.1953 108.166C62.276 108.171 62.3565 108.174 62.4372 108.179V116.331ZM56.2497 116.475C55.3122 116.45 54.3747 116.402 53.4372 116.333V107.167C54.3715 107.321 55.3083 107.465 56.2497 107.589V116.475ZM50.0622 115.987C49.1224 115.865 48.1849 115.721 47.2497 115.555V105.919C48.1829 106.143 49.1204 106.352 50.0622 106.546V115.987ZM74.8122 114.112C73.8786 114.381 72.9411 114.626 71.9997 114.848V108.229C72.9388 108.183 73.8767 108.126 74.8122 108.05V114.112ZM118.474 87.9277C103.866 98.9985 86.0348 104.982 67.7055 104.962C65.944 104.962 64.1776 104.907 62.4065 104.797C42.0743 103.532 22.8973 94.9109 8.45489 80.5438C7.29067 79.3881 6.36665 78.0135 5.73609 76.4991C5.10553 74.9847 4.78089 73.3605 4.78089 71.7201C4.78089 70.0797 5.10553 68.4555 5.73609 66.9411C6.36665 65.4267 7.29067 64.0521 8.45489 62.8964C22.8973 48.5294 42.0744 39.9088 62.4065 38.6437C64.1758 38.5329 65.9421 38.4776 67.7055 38.4778C86.0344 38.4585 103.866 44.4407 118.474 55.5103C120.724 57.2532 122.589 59.4433 123.95 61.9424C125.312 64.4416 126.141 67.1957 126.386 70.0312H115.256C114.808 70.0312 114.379 70.209 114.063 70.5254C113.746 70.8419 113.568 71.2711 113.568 71.7187C113.568 72.1662 113.746 72.5955 114.063 72.9119C114.379 73.2284 114.808 73.4062 115.256 73.4062H126.386C126.142 76.2419 125.312 78.9963 123.95 81.4957C122.589 83.9951 120.724 86.1855 118.474 87.9288V87.9277Z" fill="#3E61EE"/>
</svg>
