<svg viewBox="0 0 144 144" fill="none" xmlns="http://www.w3.org/2000/svg">
<path d="M26.9073 59.3213C26.9073 30.015 49.1488 5.92313 77.6251 3.09206C75.7746 2.90813 73.8996 2.81494 72.0001 2.8125C40.8826 2.8125 15.6572 28.1109 15.6572 59.3213C15.648 69.7664 18.5334 80.0098 23.9931 88.9145C29.4528 97.8192 37.2732 105.037 46.5863 109.766H57.8363C48.5232 105.037 40.7028 97.8192 35.2431 88.9145C29.7834 80.0098 26.898 69.7664 26.9073 59.3213Z" fill="#3E61EE" fill-opacity="0.2"/>
<path d="M46.4282 114.173C45.3861 114.173 44.3542 114.379 43.3914 114.778C42.4287 115.177 41.5539 115.761 40.8171 116.498C40.0804 117.235 39.496 118.11 39.0974 119.073C38.6988 120.036 38.4938 121.068 38.4941 122.11V141.187H46.9316V122.11C46.9313 121.068 47.1363 120.036 47.5349 119.073C47.9335 118.11 48.5179 117.235 49.2546 116.498C49.9914 115.761 50.8662 115.177 51.8289 114.778C52.7917 114.379 53.8236 114.173 54.8657 114.173H46.4282Z" fill="#3E61EE" fill-opacity="0.2"/>
<path d="M51.1875 133.359V141.187C51.1875 141.635 51.3653 142.064 51.6818 142.381C51.9982 142.697 52.4274 142.875 52.875 142.875C53.3226 142.875 53.7518 142.697 54.0682 142.381C54.3847 142.064 54.5625 141.635 54.5625 141.187V133.359C54.5625 133.137 54.5189 132.918 54.434 132.713C54.3492 132.508 54.2249 132.322 54.0682 132.166C53.9115 132.009 53.7255 131.885 53.5208 131.8C53.316 131.715 53.0966 131.671 52.875 131.671C52.6534 131.671 52.434 131.715 52.2292 131.8C52.0245 131.885 51.8385 132.009 51.6818 132.166C51.5251 132.322 51.4008 132.508 51.316 132.713C51.2311 132.918 51.1875 133.137 51.1875 133.359Z" fill="#3E61EE"/>
<path d="M91.6875 141.187V133.921C91.6875 133.474 91.5097 133.045 91.1932 132.728C90.8768 132.412 90.4476 132.234 90 132.234C89.5524 132.234 89.1232 132.412 88.8068 132.728C88.4903 133.045 88.3125 133.474 88.3125 133.921V141.187C88.3125 141.635 88.4903 142.064 88.8068 142.381C89.1232 142.697 89.5524 142.875 90 142.875C90.4476 142.875 90.8768 142.697 91.1932 142.381C91.5097 142.064 91.6875 141.635 91.6875 141.187Z" fill="#3E61EE"/>
<path d="M72 127.688C71.3881 127.688 70.79 127.869 70.2812 128.209C69.7724 128.549 69.3759 129.032 69.1417 129.597C68.9076 130.163 68.8463 130.785 68.9657 131.385C69.0851 131.985 69.3797 132.536 69.8124 132.969C70.2451 133.402 70.7963 133.696 71.3964 133.816C71.9966 133.935 72.6186 133.874 73.1839 133.64C73.7492 133.405 74.2324 133.009 74.5724 132.5C74.9123 131.991 75.0938 131.393 75.0938 130.781C75.0928 129.961 74.7665 129.175 74.1865 128.595C73.6066 128.015 72.8202 127.688 72 127.688ZM72 131.063C71.9444 131.063 71.89 131.046 71.8437 131.015C71.7975 130.984 71.7614 130.94 71.7402 130.889C71.7189 130.837 71.7133 130.781 71.7242 130.726C71.735 130.672 71.7618 130.622 71.8011 130.582C71.8405 130.543 71.8906 130.516 71.9451 130.505C71.9997 130.495 72.0562 130.5 72.1076 130.521C72.159 130.543 72.203 130.579 72.2339 130.625C72.2648 130.671 72.2813 130.726 72.2813 130.781C72.2813 130.856 72.2516 130.927 72.1989 130.98C72.1461 131.033 72.0746 131.063 72 131.063Z" fill="#3E61EE"/>
<path d="M72 136.688C71.3881 136.688 70.79 136.869 70.2812 137.209C69.7724 137.549 69.3759 138.032 69.1417 138.597C68.9076 139.163 68.8463 139.785 68.9657 140.385C69.0851 140.985 69.3797 141.536 69.8124 141.969C70.2451 142.402 70.7963 142.696 71.3964 142.816C71.9966 142.935 72.6186 142.874 73.1839 142.64C73.7492 142.405 74.2324 142.009 74.5724 141.5C74.9123 140.991 75.0938 140.393 75.0938 139.781C75.0928 138.961 74.7665 138.175 74.1865 137.595C73.6066 137.015 72.8202 136.688 72 136.688ZM72 140.063C71.9444 140.063 71.89 140.046 71.8437 140.015C71.7975 139.984 71.7614 139.94 71.7402 139.889C71.7189 139.837 71.7133 139.781 71.7242 139.726C71.735 139.672 71.7618 139.622 71.8011 139.582C71.8405 139.543 71.8906 139.516 71.9451 139.505C71.9997 139.495 72.0562 139.5 72.1076 139.521C72.159 139.543 72.203 139.579 72.2339 139.625C72.2648 139.671 72.2813 139.726 72.2813 139.781C72.2813 139.856 72.2516 139.927 72.1989 139.98C72.1461 140.033 72.0746 140.063 72 140.063Z" fill="#3E61EE"/>
<path d="M113.731 57.7823C113.526 58.1719 113.482 58.6261 113.607 59.0481C113.732 59.4701 114.017 59.8265 114.401 60.0412C114.786 60.256 115.239 60.3121 115.664 60.1975C116.089 60.083 116.452 59.8069 116.677 59.4282C119.542 54.5195 120.826 48.8472 120.354 43.1829C119.882 37.5186 117.677 32.1372 114.038 27.7707C113.373 26.9623 112.451 26.4067 111.426 26.1968C110.401 25.9869 109.335 26.1355 108.406 26.6176C107.762 26.9454 107.206 27.4231 106.785 28.0104C106.364 28.5977 106.091 29.2775 105.987 29.9926C105.88 30.7161 105.946 31.4546 106.18 32.1477C106.413 32.8409 106.807 33.4689 107.33 33.9807C110.43 37.0113 112.66 40.819 113.786 45.0059C114.912 49.1928 114.893 53.6052 113.731 57.7823ZM109.324 30.4926C109.351 30.3065 109.422 30.1295 109.531 29.9768C109.641 29.8242 109.786 29.7005 109.954 29.6162C110.123 29.5286 110.31 29.4829 110.501 29.4829C110.682 29.4839 110.86 29.5247 111.024 29.6024C111.187 29.6802 111.332 29.793 111.447 29.9329C114.781 33.9315 116.741 38.8966 117.037 44.0947C115.75 39.3379 113.214 35.0123 109.691 31.5667C109.548 31.43 109.441 31.2612 109.377 31.0743C109.313 30.8874 109.295 30.6879 109.324 30.4926Z" fill="#3E61EE"/>
<path d="M113.17 61.8563C112.656 61.8792 112.172 62.1021 111.821 62.4773C111.469 62.8525 111.279 63.3502 111.289 63.8642C111.3 64.3781 111.512 64.8674 111.878 65.2276C112.245 65.5879 112.738 65.7903 113.252 65.7918C113.28 65.7918 113.306 65.7918 113.333 65.7901C113.594 65.7823 113.85 65.723 114.087 65.6154C114.324 65.5079 114.538 65.3544 114.715 65.1638C114.893 64.9731 115.031 64.7492 115.121 64.5049C115.211 64.2606 115.252 64.0008 115.241 63.7406C115.231 63.4803 115.168 63.2248 115.058 62.9889C114.948 62.7529 114.792 62.5411 114.599 62.3659C114.407 62.1906 114.181 62.0553 113.936 61.9679C113.69 61.8804 113.43 61.8425 113.17 61.8563Z" fill="#3E61EE"/>
<path d="M108.649 43.3571C105.897 31.3866 97.6236 21.7867 86.5652 17.6771C77.1677 14.1929 66.8325 14.1929 57.435 17.6771C46.3754 21.7867 38.1297 31.3866 35.3777 43.3571C32.4974 55.8863 35.9199 68.7982 44.6212 77.8966L59.0626 93.0518V109.687H62.4376V96.5812L66.8611 101.151C67.5187 101.848 68.3109 102.405 69.1897 102.787C70.0685 103.169 71.0157 103.368 71.9739 103.373C72.924 103.387 73.8669 103.206 74.7441 102.841C75.6213 102.475 76.4141 101.934 77.0736 101.25H77.1326L81.5626 96.5812V109.687H84.9376V93.0518L99.3789 77.8966C108.08 68.7982 111.529 55.8863 108.649 43.3571ZM96.8873 75.5639L74.6475 98.8185C74.3055 99.1761 73.8946 99.4606 73.4396 99.6551C72.9846 99.8495 72.4949 99.9497 72.0001 99.9497C71.5053 99.9497 71.0156 99.8495 70.5606 99.6551C70.1056 99.4606 69.6947 99.1761 69.3527 98.8185L47.1128 75.5639C39.1993 67.289 36.0417 55.5319 38.6669 44.1134C39.8322 38.9739 42.1821 34.1776 45.5294 30.1072C48.9927 25.9149 53.5069 22.7171 58.6106 20.8406C67.2497 17.6381 76.7505 17.6381 85.3896 20.8406C90.4936 22.7173 95.008 25.9153 98.4713 30.108C101.819 34.1785 104.169 38.9747 105.334 44.1143C107.958 55.5319 104.801 67.289 96.8873 75.5639Z" fill="#968B82"/>
<path d="M98.5647 43.3851C98.0672 43.3086 86.3064 41.6045 79.7491 48.9462C73.2899 56.1766 74.7839 69.0972 74.8505 69.644C74.8954 70.0092 75.0584 70.3498 75.3147 70.6138C75.571 70.8778 75.9066 71.0508 76.2703 71.1065C77.438 71.2643 78.6155 71.3395 79.7938 71.3315C83.9 71.3315 90.6723 70.4877 95.0868 65.5465C101.546 58.3161 100.052 45.3952 99.9853 44.8487C99.9406 44.4832 99.7776 44.1422 99.5211 43.878C99.2647 43.6137 98.9288 43.4406 98.5647 43.3851ZM92.5687 63.2976C88.375 67.9919 81.0693 68.0788 78.0953 67.8938C77.915 64.6048 77.919 56.0596 82.2651 51.1943C86.4594 46.4994 93.766 46.413 96.7408 46.5984C96.9247 49.8836 96.9284 58.4176 92.5687 63.2979V63.2976Z" fill="#968B82"/>
<path d="M69.1505 69.6446C69.2171 69.0978 70.7111 56.1772 64.2519 48.9468C57.6935 41.6062 45.933 43.3095 45.4363 43.3857C45.0726 43.4413 44.737 43.6144 44.4807 43.8784C44.2244 44.1424 44.0614 44.483 44.0166 44.8482C43.9499 45.3947 42.4559 58.3156 48.9151 65.5459C53.3307 70.4878 60.1012 71.331 64.2081 71.331C65.3864 71.3388 66.5638 71.2636 67.7316 71.106C68.095 71.0502 68.4302 70.8773 68.6864 70.6135C68.9425 70.3497 69.1054 70.0095 69.1505 69.6446ZM65.9048 67.8944C62.9289 68.0786 55.624 67.992 51.4314 63.2985C47.0847 58.4328 47.0813 49.8871 47.2613 46.5993C50.2372 46.415 57.5422 46.5017 61.735 51.1952C66.0815 56.0608 66.0851 64.6066 65.9048 67.8941V67.8944Z" fill="#968B82"/>
<path d="M74.116 86.9062H69.8838C69.4362 86.9062 69.007 87.084 68.6905 87.4005C68.3741 87.717 68.1963 88.1462 68.1963 88.5938C68.1963 89.0413 68.3741 89.4705 68.6905 89.787C69.007 90.1035 69.4362 90.2812 69.8838 90.2812H74.116C74.5636 90.2812 74.9928 90.1035 75.3093 89.787C75.6258 89.4705 75.8035 89.0413 75.8035 88.5938C75.8035 88.1462 75.6258 87.717 75.3093 87.4005C74.9928 87.084 74.5636 86.9062 74.116 86.9062Z" fill="#968B82"/>
<path d="M53.5264 32.6606C53.9161 32.661 54.2939 32.526 54.5951 32.2786C56.5752 30.6578 58.7493 29.2896 61.0672 28.2056C61.81 27.8579 62.5798 27.5339 63.3546 27.2428C63.7698 27.0827 64.1048 26.765 64.2869 26.359C64.469 25.953 64.4834 25.4915 64.3269 25.075C64.1704 24.6585 63.8558 24.3206 63.4514 24.1349C63.047 23.9492 62.5857 23.9308 62.1678 24.0836C61.3105 24.4053 60.4589 24.7639 59.6365 25.1489C57.0651 26.3517 54.6531 27.8695 52.4562 29.6675C52.1869 29.8881 51.9923 30.1866 51.8993 30.522C51.8062 30.8575 51.8192 31.2135 51.9365 31.5413C52.0537 31.8691 52.2694 32.1526 52.5541 32.353C52.8388 32.5534 53.1785 32.6608 53.5266 32.6606H53.5264Z" fill="#968B82"/>
<path d="M47.0632 38.004C47.4206 38.2731 47.8702 38.3893 48.3132 38.327C48.7562 38.2647 49.1564 38.029 49.4257 37.6718C49.9089 37.0303 50.4213 36.4008 50.9487 35.8012C51.0974 35.6352 51.2118 35.4413 51.2852 35.2308C51.3585 35.0204 51.3895 34.7974 51.3762 34.5749C51.363 34.3524 51.3058 34.1347 51.2079 33.9344C51.11 33.7342 50.9735 33.5553 50.8061 33.4081C50.6387 33.2609 50.4438 33.1483 50.2326 33.0768C50.0215 33.0054 49.7983 32.9765 49.5759 32.9918C49.3535 33.0071 49.1364 33.0663 48.937 33.166C48.7376 33.2657 48.56 33.4039 48.4143 33.5726C47.831 34.2361 47.2643 34.9319 46.7299 35.6409C46.4608 35.9985 46.3447 36.4483 46.4072 36.8915C46.4697 37.3346 46.7057 37.7348 47.0632 38.004Z" fill="#968B82"/>
<path d="M44.9997 110.784V112.61C42.7209 112.939 40.6386 114.083 39.1388 115.83C37.639 117.576 36.8235 119.808 36.8434 122.11V141.188C36.8434 141.635 37.0212 142.064 37.3377 142.381C37.6541 142.697 38.0834 142.875 38.5309 142.875C38.9785 142.875 39.4077 142.697 39.7242 142.381C40.0406 142.064 40.2184 141.635 40.2184 141.188V122.109C40.2165 120.639 40.7332 119.216 41.6776 118.09C42.6221 116.964 43.9335 116.208 45.381 115.954C45.4433 116.021 45.5111 116.082 45.5838 116.137C53.1025 121.516 62.0901 124.46 71.3344 124.572C80.5786 124.684 89.6348 121.957 97.2812 116.761C97.5434 116.58 97.7477 116.328 97.8696 116.033C99.2335 116.362 100.447 117.14 101.315 118.242C102.184 119.344 102.656 120.706 102.656 122.109V141.188C102.656 141.635 102.834 142.064 103.15 142.381C103.467 142.697 103.896 142.875 104.343 142.875C104.791 142.875 105.22 142.697 105.537 142.381C105.853 142.064 106.031 141.635 106.031 141.188V122.109C106.048 119.808 105.231 117.578 103.732 115.833C102.233 114.087 100.152 112.943 97.8747 112.612V111.363C107.533 106.525 115.653 99.0945 121.328 89.9032C127.002 80.7119 130.006 70.1225 130.003 59.3207C130.003 27.2315 103.984 1.125 71.9867 1.125C39.9892 1.125 13.9648 27.2315 13.9648 59.3207C13.9744 69.909 16.8686 80.2945 22.3365 89.3617C27.8044 98.4289 35.6394 105.835 44.9997 110.784ZM67.4997 112.693V120.961C66.6559 120.884 65.8122 120.785 65.2497 120.67V112.421C65.8122 112.528 66.6559 112.62 67.4997 112.692V112.693ZM61.8747 119.981C61.0309 119.801 60.4684 119.605 59.6247 119.386V111.243C60.4684 111.445 61.0309 111.624 61.8747 111.79V119.981ZM56.2497 118.191C55.4059 117.895 54.8434 117.577 53.9997 117.238V109.279C54.8434 109.588 55.4059 109.876 56.2497 110.146V118.191ZM50.6247 115.456C49.8178 115.028 49.0628 114.508 48.3747 113.907V106.268C49.0713 106.814 49.8258 107.282 50.6247 107.662V115.456ZM70.8747 121.179V112.895C71.1559 112.904 71.5044 112.914 71.8776 112.914C72.1442 112.914 72.2809 112.906 72.5622 112.901V121.186C72.2809 121.191 72.1442 121.2 71.8776 121.2C71.5044 121.2 71.1559 121.191 70.8747 121.179V121.179ZM88.8747 109.627V117.622C88.0309 117.941 87.4684 118.245 86.6247 118.522V110.448C87.4684 110.194 88.0309 109.919 88.8747 109.628V109.627ZM83.2497 119.627C82.6872 119.806 81.8434 119.97 81.2809 120.118V111.915C81.8434 111.778 82.6872 111.628 83.2497 111.464V119.627ZM77.9059 120.759C77.3434 120.851 76.7809 120.926 75.9372 120.989V112.719C76.7809 112.661 77.3434 112.591 77.9059 112.505V120.759ZM94.4997 114.487C93.8067 115.054 93.0519 115.542 92.2497 115.94V108.1C93.0444 107.745 93.7988 107.305 94.4997 106.789V114.487ZM71.9997 4.5C102.136 4.5 126.654 29.0925 126.654 59.3207C126.645 69.2074 123.967 78.9083 118.901 87.3986C113.836 95.889 106.571 102.854 97.8747 107.557V103.938C97.8916 103.821 97.8961 103.701 97.8882 103.582L97.875 103.402C97.8193 103.133 97.698 102.882 97.5219 102.671C97.3457 102.46 97.1201 102.295 96.8651 102.192C96.6102 102.089 96.3337 102.051 96.0604 102.08C95.787 102.11 95.5252 102.207 95.2981 102.362C88.2811 107.107 79.9885 109.61 71.5178 109.538C63.0472 109.467 54.798 106.825 47.8619 101.962C47.6948 101.768 47.486 101.616 47.2512 101.515C47.0163 101.414 46.7617 101.368 46.5063 101.379C46.251 101.391 46.0018 101.461 45.7773 101.583C45.5529 101.706 45.3592 101.877 45.2109 102.086L45.2334 102.126C44.9569 102.514 44.7184 102.979 44.9997 103.413V106.928C36.6042 102.135 29.6261 95.2068 24.7737 86.8455C19.9213 78.4842 17.3674 68.988 17.3711 59.3207C17.3711 29.0925 41.8634 4.5 71.9997 4.5Z" fill="#3E61EE"/>
</svg>
