<svg viewBox="0 0 144 144" fill="none" xmlns="http://www.w3.org/2000/svg">
<path d="M17.9999 112.781C18.0006 109.265 19.1572 105.846 21.2916 103.051C23.4261 100.257 26.42 98.2411 29.8124 97.315C27.4342 96.6663 24.9385 96.5748 22.5192 97.0476C20.0998 97.5204 17.8221 98.5447 15.8631 100.041C13.9041 101.537 12.3165 103.465 11.2237 105.675C10.131 107.884 9.5625 110.316 9.5625 112.781C9.5625 115.246 10.131 117.678 11.2237 119.888C12.3165 122.097 13.9041 124.025 15.8631 125.522C17.8221 127.018 20.0998 128.042 22.5192 128.515C24.9385 128.988 27.4342 128.896 29.8124 128.247C26.42 127.321 23.4261 125.306 21.2916 122.511C19.1572 119.717 18.0006 116.298 17.9999 112.781Z" fill="#3E61EE" fill-opacity="0.2"/>
<path d="M131.632 78.7783C130.13 78.7784 128.662 79.2237 127.414 80.0579C126.165 80.8921 125.192 82.0778 124.618 83.465C124.043 84.8523 123.893 86.3787 124.186 87.8514C124.479 89.324 125.202 90.6767 126.264 91.7384C127.325 92.8001 128.678 93.5231 130.151 93.816C131.623 94.1089 133.15 93.9586 134.537 93.384C135.924 92.8094 137.11 91.8363 137.944 90.5878C138.778 89.3394 139.224 87.8716 139.224 86.3701C139.221 84.3573 138.421 82.4276 136.997 81.0043C135.574 79.5811 133.644 78.7806 131.632 78.7783ZM131.632 90.5866C130.798 90.5865 129.982 90.3392 129.289 89.8758C128.595 89.4124 128.055 88.7538 127.736 87.9832C127.417 87.2127 127.333 86.3648 127.496 85.5469C127.659 84.7289 128.061 83.9776 128.65 83.3879C129.24 82.7982 129.991 82.3967 130.809 82.234C131.627 82.0714 132.475 82.1549 133.246 82.4741C134.016 82.7933 134.675 83.3339 135.138 84.0273C135.601 84.7208 135.849 85.5361 135.849 86.3701C135.847 87.4881 135.403 88.5601 134.612 89.3506C133.822 90.1411 132.75 90.5858 131.632 90.5869V90.5866Z" fill="#3E61EE"/>
<path d="M82.2134 70.7724C81.0934 71.2294 80.1342 72.0082 79.4569 73.0104C78.7796 74.0126 78.4147 75.1931 78.4083 76.4027C78.4019 77.6122 78.7544 78.7965 79.4211 79.8058C80.0878 80.815 81.0388 81.6039 82.1538 82.0727C83.2689 82.5415 84.4979 82.6691 85.6855 82.4394C86.873 82.2096 87.9658 81.6329 88.8256 80.7821C89.6854 79.9314 90.2736 78.8447 90.5159 77.6596C90.7581 76.4746 90.6435 75.2443 90.1865 74.1243C89.5721 72.6238 88.3877 71.4282 86.893 70.7998C85.3983 70.1714 83.7153 70.1616 82.2134 70.7724ZM87.0615 75.3995C87.2832 75.9431 87.3243 76.5434 87.1791 77.1121C87.0338 77.6809 86.7097 78.1879 86.2545 78.5586C85.7993 78.9292 85.2371 79.1439 84.6508 79.171C84.0644 79.198 83.4848 79.0361 82.9974 78.709C82.5101 78.3818 82.1406 77.9068 81.9435 77.3539C81.7464 76.801 81.7321 76.1994 81.9027 75.6378C82.0732 75.0761 82.4197 74.584 82.891 74.2341C83.3622 73.8842 83.9335 73.6948 84.5204 73.694C85.0655 73.6938 85.5982 73.8559 86.0508 74.1597C86.5033 74.4634 86.8552 74.895 87.0615 75.3995Z" fill="#3E61EE"/>
<path d="M89.7469 82.2059C89.4111 82.3432 89.1235 82.577 88.9205 82.8777C88.7176 83.1784 88.6083 83.5325 88.6065 83.8953C88.6047 84.2581 88.7105 84.6133 88.9105 84.9159C89.1105 85.2186 89.3958 85.4552 89.7302 85.5958C90.0647 85.7364 90.4333 85.7747 90.7895 85.7059C91.1457 85.637 91.4735 85.4641 91.7315 85.209C91.9895 84.9539 92.166 84.6281 92.2388 84.2727C92.3117 83.9173 92.2775 83.5482 92.1407 83.2122C91.9563 82.7616 91.6008 82.4026 91.152 82.2139C90.7032 82.0253 90.1979 82.0224 89.7469 82.2059Z" fill="#3E61EE"/>
<path d="M11.2078 11.0672C10.0878 11.5241 9.12854 12.3028 8.45119 13.3049C7.77385 14.307 7.40887 15.4875 7.40243 16.697C7.39599 17.9065 7.74836 19.0908 8.41499 20.1001C9.08163 21.1093 10.0326 21.8983 11.1476 22.3671C12.2626 22.8359 13.4916 22.9635 14.6791 22.7338C15.8667 22.5041 16.9594 21.9275 17.8192 21.0767C18.679 20.226 19.2672 19.1394 19.5095 17.9543C19.7517 16.7693 19.6371 15.539 19.1801 14.4191C18.5658 12.9187 17.3815 11.7232 15.887 11.0948C14.3924 10.4664 12.7096 10.4565 11.2078 11.0672ZM14.5547 19.2673C14.0527 19.4722 13.5013 19.5237 12.9701 19.4151C12.439 19.3066 11.9519 19.043 11.5706 18.6577C11.1892 18.2723 10.9307 17.7825 10.8278 17.2502C10.7249 16.7179 10.7821 16.1671 10.9923 15.6673C11.2024 15.1676 11.5561 14.7414 12.0085 14.4427C12.4609 14.1439 12.9918 13.9861 13.5339 13.9891C14.0761 13.9921 14.6051 14.1558 15.0542 14.4595C15.5033 14.7633 15.8522 15.1934 16.0568 15.6954C16.1948 16.0284 16.2654 16.3855 16.2644 16.7459C16.2635 17.1064 16.191 17.4631 16.0511 17.7953C15.9113 18.1275 15.7069 18.4287 15.4499 18.6814C15.1928 18.9341 14.8881 19.1332 14.5535 19.2673H14.5547Z" fill="#3E61EE"/>
<path d="M21.6986 9.11949C21.4482 9.01502 21.1777 8.96738 20.9066 8.98002C20.6356 8.99266 20.3707 9.06525 20.1311 9.19258C19.8915 9.3199 19.6831 9.49878 19.5209 9.71634C19.3588 9.93389 19.2469 10.1847 19.1933 10.4507C19.1398 10.7167 19.1459 10.9913 19.2112 11.2546C19.2765 11.518 19.3994 11.7636 19.5711 11.9737C19.7428 12.1839 19.9589 12.3533 20.2039 12.4699C20.449 12.5864 20.7168 12.6472 20.9882 12.6478C21.4121 12.6477 21.8229 12.5009 22.1509 12.2324C22.4789 11.9638 22.7038 11.59 22.7875 11.1744C22.8712 10.7588 22.8084 10.3271 22.6099 9.95253C22.4115 9.57795 22.0895 9.28361 21.6986 9.11949Z" fill="#3E61EE"/>
<path d="M81.1497 110.662C79.6482 110.662 78.1803 111.107 76.9318 111.941C75.6833 112.775 74.7102 113.961 74.1356 115.348C73.5609 116.735 73.4106 118.262 73.7035 119.734C73.9964 121.207 74.7194 122.56 75.7811 123.622C76.8428 124.683 78.1955 125.406 79.6682 125.699C81.1409 125.992 82.6674 125.842 84.0546 125.267C85.4418 124.693 86.6275 123.72 87.4617 122.471C88.2959 121.223 88.7412 119.755 88.7412 118.253C88.7389 116.241 87.9383 114.311 86.5152 112.888C85.092 111.465 83.1624 110.664 81.1497 110.662ZM81.1497 122.47C80.3157 122.47 79.5004 122.223 78.8069 121.76C78.1134 121.296 77.5729 120.638 77.2537 119.867C76.9345 119.097 76.8509 118.249 77.0136 117.431C77.1763 116.613 77.5779 115.862 78.1676 115.272C78.7573 114.682 79.5087 114.28 80.3266 114.118C81.1446 113.955 81.9925 114.038 82.763 114.358C83.5336 114.677 84.1922 115.217 84.6555 115.911C85.1189 116.604 85.3662 117.419 85.3662 118.253C85.3649 119.371 84.9203 120.443 84.1298 121.234C83.3394 122.024 82.2676 122.469 81.1497 122.47Z" fill="#3E61EE"/>
<path d="M78.8721 105.264C78.8721 105.715 79.0057 106.155 79.256 106.53C79.5063 106.904 79.8621 107.196 80.2784 107.369C80.6947 107.541 81.1527 107.586 81.5946 107.498C82.0366 107.41 82.4425 107.193 82.7611 106.875C83.0797 106.556 83.2966 106.15 83.3845 105.708C83.4724 105.266 83.4273 104.808 83.2549 104.392C83.0825 103.976 82.7905 103.62 82.4159 103.37C82.0412 103.119 81.6008 102.986 81.1502 102.986C80.5462 102.987 79.9671 103.227 79.5401 103.654C79.113 104.081 78.8727 104.66 78.8721 105.264Z" fill="#3E61EE"/>
<path d="M81.1492 128.965C80.6987 128.965 80.2582 129.099 79.8836 129.349C79.5089 129.6 79.2169 129.955 79.0445 130.372C78.8721 130.788 78.827 131.246 78.9149 131.688C79.0028 132.13 79.2197 132.536 79.5383 132.854C79.8569 133.173 80.2629 133.39 80.7048 133.478C81.1467 133.566 81.6048 133.521 82.021 133.348C82.4373 133.176 82.7931 132.884 83.0434 132.509C83.2937 132.134 83.4274 131.694 83.4274 131.243C83.4268 130.639 83.1865 130.06 82.7594 129.633C82.3323 129.206 81.7532 128.966 81.1492 128.965Z" fill="#3E61EE"/>
<path d="M70.4381 118.253C70.4381 117.803 70.3045 117.362 70.0542 116.988C69.8038 116.613 69.448 116.321 69.0318 116.149C68.6155 115.976 68.1574 115.931 67.7155 116.019C67.2736 116.107 66.8677 116.324 66.5491 116.642C66.2305 116.961 66.0135 117.367 65.9256 117.809C65.8377 118.251 65.8828 118.709 66.0552 119.125C66.2277 119.541 66.5197 119.897 66.8943 120.147C67.2689 120.398 67.7094 120.531 68.16 120.531C68.764 120.531 69.343 120.29 69.7701 119.863C70.1972 119.436 70.4374 118.857 70.4381 118.253Z" fill="#3E61EE"/>
<path d="M94.1395 115.976C93.6889 115.976 93.2484 116.109 92.8738 116.36C92.4992 116.61 92.2072 116.966 92.0347 117.382C91.8623 117.798 91.8172 118.256 91.9051 118.698C91.993 119.14 92.21 119.546 92.5286 119.865C92.8472 120.183 93.2531 120.4 93.695 120.488C94.1369 120.576 94.595 120.531 95.0113 120.358C95.4275 120.186 95.7833 119.894 96.0336 119.519C96.284 119.145 96.4176 118.704 96.4176 118.254C96.4169 117.65 96.1767 117.071 95.7496 116.644C95.3225 116.216 94.7434 115.976 94.1395 115.976Z" fill="#3E61EE"/>
<path d="M71.965 125.161C71.6659 125.16 71.3695 125.218 71.0931 125.333C70.8167 125.447 70.5657 125.615 70.3546 125.827C69.982 126.2 69.7501 126.69 69.6985 127.215C69.6468 127.739 69.7787 128.265 70.0715 128.704C70.3643 129.142 70.8 129.465 71.3044 129.618C71.8087 129.771 72.3505 129.744 72.8374 129.543C73.3243 129.341 73.7263 128.977 73.9747 128.512C74.2232 128.047 74.3028 127.51 74.2 126.993C74.0972 126.477 73.8184 126.011 73.411 125.677C73.0036 125.343 72.4929 125.16 71.9659 125.16L71.965 125.161Z" fill="#3E61EE"/>
<path d="M90.3348 106.791C89.8077 106.791 89.2969 106.973 88.8895 107.308C88.4821 107.642 88.2032 108.107 88.1004 108.624C87.9976 109.141 88.0772 109.678 88.3257 110.143C88.5742 110.608 88.9762 110.972 89.4632 111.173C89.9502 111.375 90.492 111.402 90.9964 111.249C91.5008 111.096 91.9364 110.772 92.2292 110.334C92.522 109.896 92.6537 109.369 92.6019 108.845C92.5501 108.32 92.318 107.83 91.9452 107.457C91.7342 107.245 91.4833 107.077 91.2068 106.963C90.9304 106.848 90.634 106.79 90.3348 106.791Z" fill="#3E61EE"/>
<path d="M71.9644 111.347C72.4148 111.347 72.8551 111.213 73.2296 110.963C73.6041 110.713 73.896 110.357 74.0684 109.941C74.2408 109.525 74.286 109.067 74.1983 108.625C74.1105 108.183 73.8938 107.777 73.5754 107.459C73.3105 107.194 72.9843 106.998 72.6258 106.89C72.2672 106.781 71.8874 106.762 71.52 106.835C71.1526 106.908 70.8088 107.071 70.5192 107.309C70.2297 107.546 70.0032 107.852 69.8598 108.198C69.7165 108.544 69.6608 108.92 69.6975 109.293C69.7343 109.666 69.8624 110.024 70.0706 110.336C70.2788 110.647 70.5606 110.902 70.891 111.079C71.2214 111.255 71.5903 111.348 71.965 111.348L71.9644 111.347Z" fill="#3E61EE"/>
<path d="M91.9458 125.827C91.6272 125.508 91.2213 125.291 90.7794 125.203C90.3374 125.116 89.8794 125.161 89.4631 125.333C89.0468 125.505 88.6909 125.797 88.4406 126.172C88.1903 126.547 88.0566 126.987 88.0566 127.438C88.0566 127.888 88.1903 128.329 88.4406 128.704C88.6909 129.078 89.0468 129.37 89.4631 129.543C89.8794 129.715 90.3374 129.76 90.7794 129.672C91.2213 129.584 91.6272 129.367 91.9458 129.049C92.1591 128.838 92.3285 128.587 92.4441 128.311C92.5597 128.034 92.6193 127.737 92.6193 127.438C92.6193 127.138 92.5597 126.841 92.4441 126.565C92.3285 126.288 92.1591 126.038 91.9458 125.827Z" fill="#3E61EE"/>
<path d="M118.937 68.1509C118.487 68.1509 118.046 68.2845 117.672 68.5348C117.297 68.7851 117.005 69.1409 116.833 69.5572C116.66 69.9735 116.615 70.4315 116.703 70.8734C116.791 71.3153 117.008 71.7213 117.326 72.0399C117.645 72.3585 118.051 72.5754 118.493 72.6633C118.935 72.7512 119.393 72.7061 119.809 72.5337C120.225 72.3613 120.581 72.0693 120.832 71.6947C121.082 71.32 121.215 70.8796 121.215 70.429C121.215 69.825 120.975 69.2459 120.547 68.8189C120.12 68.3918 119.541 68.1515 118.937 68.1509Z" fill="#3E61EE"/>
<path d="M82.6258 12.4825C83.0763 12.4825 83.5168 12.3489 83.8914 12.0986C84.2661 11.8483 84.5581 11.4925 84.7305 11.0762C84.9029 10.6599 84.948 10.2019 84.8601 9.75996C84.7722 9.31804 84.5553 8.91212 84.2367 8.59352C83.9181 8.27492 83.5121 8.05795 83.0702 7.97004C82.6283 7.88214 82.1703 7.92726 81.754 8.09968C81.3377 8.27211 80.9819 8.5641 80.7316 8.93874C80.4813 9.31337 80.3477 9.75383 80.3477 10.2044C80.3483 10.8084 80.5885 11.3875 81.0156 11.8146C81.4427 12.2417 82.0218 12.4819 82.6258 12.4825Z" fill="#3E61EE"/>
<path d="M11.7742 87.6348C11.3236 87.6348 10.8832 87.7684 10.5086 88.0187C10.1339 88.269 9.84193 88.6248 9.66951 89.0411C9.49708 89.4574 9.45197 89.9154 9.53987 90.3573C9.62777 90.7992 9.84474 91.2052 10.1633 91.5238C10.4819 91.8424 10.8879 92.0593 11.3298 92.1473C11.7717 92.2352 12.2297 92.19 12.646 92.0176C13.0623 91.8452 13.4181 91.5532 13.6684 91.1786C13.9187 90.8039 14.0523 90.3635 14.0523 89.9129C14.0517 89.3089 13.8115 88.7298 13.3844 88.3027C12.9573 87.8756 12.3782 87.6354 11.7742 87.6348Z" fill="#3E61EE"/>
<path d="M7.93702 46.4322C9.19504 46.4322 10.2149 45.4123 10.2149 44.1543C10.2149 42.8963 9.19504 41.8765 7.93702 41.8765C6.67901 41.8765 5.65918 42.8963 5.65918 44.1543C5.65918 45.4123 6.67901 46.4322 7.93702 46.4322Z" fill="#3E61EE"/>
<path d="M102.11 136.641C101.66 136.641 101.219 136.774 100.845 137.025C100.47 137.275 100.178 137.631 100.005 138.047C99.833 138.463 99.7879 138.921 99.8758 139.363C99.9637 139.805 100.181 140.211 100.499 140.53C100.818 140.848 101.224 141.065 101.666 141.153C102.108 141.241 102.566 141.196 102.982 141.023C103.398 140.851 103.754 140.559 104.004 140.184C104.255 139.81 104.388 139.369 104.388 138.919C104.388 138.315 104.147 137.736 103.72 137.309C103.293 136.882 102.714 136.641 102.11 136.641Z" fill="#3E61EE"/>
<path d="M53.99 78.7783C53.5395 78.7783 53.099 78.9119 52.7244 79.1623C52.3497 79.4126 52.0578 79.7684 51.8853 80.1846C51.7129 80.6009 51.6678 81.059 51.7557 81.5009C51.8436 81.9428 52.0606 82.3487 52.3792 82.6673C52.6978 82.9859 53.1037 83.2029 53.5456 83.2908C53.9875 83.3787 54.4456 83.3336 54.8618 83.1612C55.2781 82.9887 55.6339 82.6967 55.8842 82.3221C56.1346 81.9475 56.2682 81.507 56.2682 81.0564C56.2675 80.4525 56.0273 79.8734 55.6002 79.4463C55.1731 79.0192 54.594 78.779 53.99 78.7783Z" fill="#3E61EE"/>
<path d="M134.879 48.4986C135.329 48.4986 135.77 48.365 136.144 48.1147C136.519 47.8644 136.811 47.5086 136.983 47.0923C137.156 46.676 137.201 46.218 137.113 45.7761C137.025 45.3342 136.808 44.9282 136.49 44.6096C136.171 44.291 135.765 44.0741 135.323 43.9862C134.881 43.8983 134.423 43.9434 134.007 44.1158C133.591 44.2882 133.235 44.5802 132.985 44.9548C132.734 45.3295 132.601 45.7699 132.601 46.2205C132.601 46.8245 132.841 47.4036 133.269 47.8306C133.696 48.2577 134.275 48.498 134.879 48.4986Z" fill="#3E61EE"/>
<path d="M62.2557 40.6968C61.8051 40.6968 61.3646 40.8304 60.99 41.0807C60.6154 41.331 60.3234 41.6868 60.151 42.1031C59.9785 42.5194 59.9334 42.9774 60.0213 43.4193C60.1092 43.8613 60.3262 44.2672 60.6448 44.5858C60.9634 44.9044 61.3693 45.1214 61.8112 45.2093C62.2531 45.2972 62.7112 45.252 63.1275 45.0796C63.5437 44.9072 63.8995 44.6152 64.1499 44.2406C64.4002 43.8659 64.5338 43.4255 64.5338 42.9749C64.5332 42.3709 64.293 41.7918 63.8659 41.3647C63.4388 40.9376 62.8597 40.6974 62.2557 40.6968Z" fill="#3E61EE"/>
<path d="M119.772 77.8004C118.806 77.474 117.929 76.9284 117.209 76.2062C116.489 75.4841 115.946 74.605 115.622 73.6379C115.511 73.3015 115.296 73.0089 115.008 72.8014C114.721 72.594 114.375 72.4824 114.021 72.4824C113.667 72.4824 113.321 72.594 113.034 72.8014C112.746 73.0089 112.531 73.3015 112.42 73.6379C112.096 74.605 111.553 75.4841 110.834 76.2062C110.114 76.9284 109.236 77.4741 108.27 77.8004C107.935 77.9127 107.643 78.1276 107.436 78.4148C107.229 78.7019 107.118 79.0468 107.118 79.4007C107.118 79.7546 107.229 80.0995 107.436 80.3867C107.643 80.6738 107.935 80.8888 108.27 81.001C109.236 81.3273 110.114 81.8729 110.834 82.5951C111.553 83.3173 112.096 84.1964 112.42 85.1635C112.531 85.4999 112.746 85.7926 113.034 86C113.321 86.2074 113.667 86.319 114.021 86.319C114.375 86.319 114.721 86.2074 115.008 86C115.296 85.7926 115.511 85.4999 115.622 85.1635C115.946 84.1963 116.489 83.317 117.208 82.5947C117.928 81.8724 118.806 81.3266 119.772 81.0002C120.108 80.8879 120.399 80.673 120.606 80.3858C120.813 80.0986 120.924 79.7537 120.924 79.3999C120.924 79.046 120.813 78.7011 120.606 78.4139C120.399 78.1267 120.108 77.9118 119.772 77.7996V77.8004ZM114.021 81.1192C113.521 80.4795 112.945 79.9029 112.307 79.4018C112.945 78.9008 113.521 78.3241 114.021 77.6845C114.521 78.3241 115.097 78.9008 115.737 79.4018C115.098 79.9026 114.521 80.4788 114.021 81.118V81.1192Z" fill="#3E61EE"/>
<path d="M73.2371 59.3384C74.2032 59.6647 75.0806 60.2103 75.8005 60.9324C76.5204 61.6546 77.0632 62.5338 77.3863 63.5009C77.4981 63.8373 77.7129 64.13 78.0004 64.3374C78.2879 64.5448 78.6333 64.6564 78.9878 64.6564C79.3422 64.6564 79.6877 64.5448 79.9752 64.3374C80.2626 64.13 80.4775 63.8373 80.5892 63.5009C80.9126 62.5338 81.4556 61.6547 82.1756 60.9326C82.8955 60.2104 83.7729 59.6648 84.7391 59.3384C85.0746 59.2262 85.3664 59.0112 85.5732 58.7241C85.7799 58.4369 85.8912 58.092 85.8912 57.7381C85.8912 57.3843 85.7799 57.0393 85.5732 56.7522C85.3664 56.465 85.0746 56.2501 84.7391 56.1378C83.7729 55.8115 82.8955 55.2658 82.1756 54.5437C81.4556 53.8215 80.9126 52.9424 80.5892 51.9753C80.4775 51.6389 80.2626 51.3463 79.9752 51.1388C79.6877 50.9314 79.3422 50.8198 78.9878 50.8198C78.6333 50.8198 78.2879 50.9314 78.0004 51.1388C77.7129 51.3463 77.4981 51.6389 77.3863 51.9753C77.0631 52.9424 76.5203 53.8214 75.8004 54.5436C75.0805 55.2657 74.2031 55.8113 73.2371 56.1375C72.9015 56.2498 72.6097 56.4647 72.4029 56.7519C72.1962 57.0391 72.085 57.384 72.085 57.7378C72.085 58.0917 72.1962 58.4366 72.4029 58.7238C72.6097 59.011 72.9015 59.2259 73.2371 59.3381V59.3384ZM78.9881 56.0197C79.4881 56.6592 80.0636 57.2358 80.7023 57.737C80.0636 58.2381 79.4881 58.8148 78.9881 59.4543C78.4876 58.8148 77.9115 58.2381 77.2724 57.737C77.9114 57.2362 78.4875 56.66 78.9881 56.0208V56.0197Z" fill="#3E61EE"/>
<path d="M17.4299 61.7467C16.4638 61.4204 15.5864 60.8748 14.8665 60.1526C14.1466 59.4305 13.6038 58.5513 13.2806 57.5842C13.1689 57.2478 12.954 56.9551 12.6666 56.7477C12.3791 56.5403 12.0337 56.4287 11.6792 56.4287C11.3247 56.4287 10.9793 56.5403 10.6918 56.7477C10.4044 56.9551 10.1895 57.2478 10.0778 57.5842C9.75433 58.5513 9.21137 59.4303 8.4914 60.1525C7.77143 60.8747 6.89402 61.4203 5.92791 61.7467C5.59223 61.8589 5.30033 62.0738 5.0935 62.361C4.88668 62.6482 4.77539 62.9932 4.77539 63.3471C4.77539 63.7011 4.88668 64.046 5.0935 64.3333C5.30033 64.6205 5.59223 64.8354 5.92791 64.9476C6.89403 65.2739 7.77145 65.8196 8.49142 66.5417C9.21139 67.2639 9.75435 68.143 10.0778 69.1101C10.1895 69.4465 10.4044 69.7391 10.6918 69.9465C10.9793 70.1539 11.3247 70.2656 11.6792 70.2656C12.0337 70.2656 12.3791 70.1539 12.6666 69.9465C12.954 69.7391 13.1689 69.4465 13.2806 69.1101C13.6038 68.143 14.1466 67.2638 14.8665 66.5416C15.5864 65.8194 16.4638 65.2738 17.4299 64.9476C17.7656 64.8354 18.0575 64.6205 18.2643 64.3333C18.4711 64.046 18.5824 63.7011 18.5824 63.3471C18.5824 62.9932 18.4711 62.6482 18.2643 62.361C18.0575 62.0738 17.7656 61.8589 17.4299 61.7467ZM11.6789 65.0654C11.1788 64.4259 10.6033 63.8492 9.96469 63.3478C10.6034 62.8468 11.179 62.2701 11.6789 61.6305C12.1788 62.2701 12.7544 62.8468 13.3931 63.3478C12.7546 63.8489 12.179 64.4253 11.6789 65.0646V65.0654Z" fill="#3E61EE"/>
<path d="M53.4462 134.074C52.4802 133.748 51.6028 133.202 50.8829 132.48C50.163 131.758 49.6201 130.879 49.2967 129.912C49.1848 129.576 48.9699 129.283 48.6825 129.076C48.3952 128.869 48.0498 128.757 47.6955 128.757C47.3412 128.757 46.9959 128.869 46.7085 129.076C46.4211 129.283 46.2062 129.576 46.0944 129.912C45.7709 130.879 45.2279 131.758 44.508 132.48C43.788 133.202 42.9106 133.748 41.9445 134.074C41.6088 134.187 41.3169 134.402 41.1101 134.689C40.9033 134.976 40.792 135.321 40.792 135.675C40.792 136.029 40.9033 136.374 41.1101 136.661C41.3169 136.948 41.6088 137.163 41.9445 137.275C42.9106 137.602 43.7881 138.147 44.508 138.87C45.228 139.592 45.771 140.471 46.0944 141.438C46.2062 141.774 46.4211 142.066 46.7085 142.274C46.9959 142.481 47.3412 142.592 47.6955 142.592C48.0498 142.592 48.3952 142.481 48.6825 142.274C48.9699 142.066 49.1848 141.774 49.2967 141.438C49.62 140.471 50.1629 139.592 50.8829 138.87C51.6028 138.147 52.4802 137.602 53.4462 137.275C53.7819 137.163 54.0738 136.948 54.2806 136.661C54.4875 136.374 54.5987 136.029 54.5987 135.675C54.5987 135.321 54.4875 134.976 54.2806 134.689C54.0738 134.402 53.7819 134.187 53.4462 134.074ZM47.6955 137.393C47.1952 136.753 46.6191 136.177 45.9799 135.676C46.6191 135.175 47.1952 134.598 47.6955 133.958C48.1954 134.598 48.771 135.175 49.4097 135.676C48.7711 136.177 48.1956 136.753 47.6955 137.392V137.393Z" fill="#3E61EE"/>
<path d="M129.443 27.7781L129.206 27.9553C129.029 28.0881 128.879 28.2545 128.766 28.445C128.653 28.6355 128.578 28.8465 128.547 29.0658C128.515 29.2852 128.527 29.5086 128.582 29.7233C128.636 29.9381 128.733 30.1399 128.866 30.3174C128.998 30.4948 129.165 30.6444 129.355 30.7576C129.546 30.8707 129.757 30.9452 129.976 30.9768C130.195 31.0084 130.419 30.9965 130.634 30.9418C130.848 30.8871 131.05 30.7906 131.228 30.6579L131.465 30.4807C131.642 30.3479 131.792 30.1815 131.905 29.991C132.018 29.8004 132.093 29.5895 132.124 29.3701C132.156 29.1508 132.144 28.9274 132.089 28.7126C132.034 28.4979 131.938 28.296 131.805 28.1186C131.672 27.9411 131.506 27.7916 131.315 27.6784C131.125 27.5653 130.914 27.4908 130.695 27.4592C130.475 27.4275 130.252 27.4394 130.037 27.4942C129.822 27.5489 129.621 27.6454 129.443 27.7781Z" fill="#968B82"/>
<path d="M124.905 13.9218L123.639 14.914C123.287 15.1903 123.059 15.5951 123.005 16.0395C122.952 16.4839 123.077 16.9314 123.353 17.2836C123.629 17.6358 124.034 17.8638 124.478 17.9175C124.923 17.9712 125.37 17.8461 125.722 17.5699L126.988 16.5776C127.34 16.3014 127.568 15.8965 127.622 15.4522C127.676 15.0078 127.551 14.5603 127.274 14.2081C126.998 13.8559 126.593 13.6279 126.149 13.5742C125.705 13.5205 125.257 13.6455 124.905 13.9218Z" fill="#968B82"/>
<path d="M125.908 30.4218L109.825 42.4464C108.647 43.3276 107.306 43.968 105.88 44.3311C104.454 44.6942 102.97 44.7729 101.514 44.5626C100.057 44.3523 98.6566 43.8572 97.3915 43.1056C96.1264 42.3539 95.0216 41.3605 94.1405 40.1819C93.2593 39.0033 92.6188 37.6627 92.2557 36.2367C91.8926 34.8106 91.814 33.3269 92.0242 31.8705C92.2345 30.414 92.7296 29.0132 93.4813 27.7481C94.2329 26.4829 95.2264 25.3782 96.4049 24.497L117.056 9.05639C117.235 8.92422 117.386 8.758 117.501 8.56728C117.615 8.37657 117.69 8.16512 117.723 7.9451C117.755 7.72508 117.744 7.50082 117.689 7.28522C117.635 7.06962 117.538 6.86694 117.405 6.68881C117.272 6.51069 117.105 6.36065 116.913 6.24731C116.722 6.13397 116.51 6.05957 116.29 6.02839C116.07 5.99721 115.846 6.00986 115.63 6.06562C115.415 6.12138 115.213 6.21914 115.036 6.35329L94.3839 21.7939C92.0742 23.5207 90.3285 25.8936 89.3675 28.6126C88.4066 31.3316 88.2734 34.2745 88.985 37.0691C89.6966 39.8637 91.221 42.3845 93.3653 44.3128C95.5096 46.2411 98.1776 47.4901 101.032 47.9021C101.732 48.0034 102.438 48.0543 103.145 48.0545C106.284 48.0549 109.338 47.0349 111.846 45.1484L127.928 33.1235C128.109 32.992 128.262 32.826 128.378 32.635C128.494 32.444 128.57 32.2319 128.604 32.011C128.637 31.7901 128.626 31.5647 128.572 31.348C128.517 31.1313 128.421 30.9276 128.287 30.7487C128.153 30.5697 127.985 30.4191 127.793 30.3056C127.6 30.1921 127.387 30.118 127.166 30.0875C126.944 30.0569 126.719 30.0707 126.503 30.1279C126.287 30.1851 126.085 30.2846 125.907 30.4207L125.908 30.4218Z" fill="#968B82"/>
<path d="M126.534 7.90985C126.921 7.91026 127.297 7.77693 127.597 7.53241L129.779 5.76054C130.125 5.47786 130.344 5.06966 130.389 4.62537C130.435 4.18108 130.302 3.73694 130.021 3.39027C129.739 3.0436 129.332 2.82267 128.887 2.77589C128.443 2.72911 127.999 2.86029 127.651 3.14069L125.469 4.91257C125.199 5.13241 125.003 5.43069 124.908 5.76638C124.814 6.10208 124.826 6.45871 124.943 6.78726C125.06 7.11581 125.275 7.40014 125.56 7.60116C125.845 7.80218 126.185 7.91002 126.534 7.90985Z" fill="#968B82"/>
<path d="M119.559 13.5735C119.946 13.5738 120.322 13.4404 120.622 13.1958L123.791 10.6227C123.963 10.483 124.105 10.3107 124.211 10.1158C124.316 9.92092 124.382 9.70715 124.405 9.48671C124.428 9.26628 124.407 9.0435 124.344 8.83109C124.281 8.61868 124.177 8.42081 124.037 8.24877C123.897 8.07673 123.725 7.93389 123.53 7.82841C123.335 7.72293 123.121 7.65687 122.901 7.63401C122.68 7.61114 122.458 7.63192 122.245 7.69515C122.033 7.75838 121.835 7.86283 121.663 8.00254L118.494 10.5748C118.223 10.7945 118.027 11.0929 117.932 11.4289C117.838 11.7648 117.85 12.1218 117.966 12.4507C118.083 12.7796 118.299 13.0642 118.584 13.2653C118.87 13.4664 119.21 13.5741 119.559 13.5735Z" fill="#968B82"/>
<path d="M115.055 13.3696L112.185 15.7009C111.843 15.9848 111.627 16.392 111.583 16.8343C111.54 17.2766 111.673 17.7182 111.953 18.0631C112.233 18.4081 112.638 18.6287 113.08 18.6769C113.521 18.7252 113.964 18.5972 114.312 18.3208L117.183 15.9898C117.53 15.7077 117.751 15.2991 117.798 14.8539C117.844 14.4088 117.711 13.9635 117.429 13.616C117.147 13.2686 116.738 13.0474 116.293 13.0012C115.848 12.955 115.403 13.0875 115.055 13.3696Z" fill="#968B82"/>
<path d="M135.778 12.9638L133.802 14.6268C133.631 14.7692 133.49 14.9438 133.387 15.1408C133.284 15.3377 133.221 15.553 133.202 15.7744C133.182 15.9958 133.207 16.2188 133.274 16.4307C133.341 16.6426 133.449 16.8392 133.592 17.0092C133.735 17.1793 133.91 17.3193 134.107 17.4215C134.305 17.5236 134.52 17.5857 134.742 17.6042C134.963 17.6228 135.186 17.5974 135.398 17.5296C135.609 17.4618 135.806 17.3528 135.975 17.209L137.951 15.546C138.124 15.4042 138.266 15.2296 138.371 15.0323C138.475 14.8351 138.539 14.6191 138.56 14.3968C138.58 14.1745 138.556 13.9504 138.489 13.7375C138.423 13.5245 138.314 13.3269 138.171 13.1561C138.027 12.9854 137.851 12.8448 137.652 12.7426C137.454 12.6403 137.237 12.5785 137.015 12.5606C136.792 12.5427 136.568 12.5691 136.356 12.6384C136.144 12.7076 135.948 12.8182 135.778 12.9638Z" fill="#968B82"/>
<path d="M130.318 17.559L123.596 23.2158C123.254 23.504 123.04 23.9164 123.001 24.3623C122.963 24.8083 123.103 25.2512 123.391 25.5936C123.68 25.9361 124.092 26.15 124.538 26.1884C124.984 26.2268 125.427 26.0864 125.769 25.7982L132.491 20.1412C132.664 19.9994 132.806 19.8248 132.911 19.6276C133.015 19.4303 133.079 19.2143 133.1 18.992C133.12 18.7698 133.096 18.5456 133.029 18.3327C132.962 18.1197 132.854 17.9221 132.71 17.7514C132.567 17.5806 132.391 17.44 132.192 17.3378C131.994 17.2356 131.777 17.1737 131.554 17.1558C131.332 17.1379 131.108 17.1644 130.896 17.2336C130.684 17.3028 130.487 17.4134 130.318 17.559H130.318Z" fill="#968B82"/>
<path d="M120.561 29.662C120.958 29.6623 121.343 29.5219 121.647 29.2657L122.756 28.3328C123.093 28.0431 123.302 27.6321 123.338 27.189C123.374 26.7459 123.233 26.3065 122.947 25.9664C122.661 25.6262 122.252 25.4127 121.809 25.3722C121.367 25.3318 120.926 25.4677 120.583 25.7503L119.475 26.6832C119.21 26.9061 119.02 27.205 118.931 27.5395C118.842 27.874 118.858 28.2278 118.976 28.553C119.095 28.8782 119.311 29.159 119.594 29.3574C119.878 29.5557 120.216 29.6621 120.562 29.662H120.561Z" fill="#968B82"/>
<path d="M138.784 5.1807C138.647 5.00633 138.477 4.86061 138.284 4.75186C138.091 4.6431 137.878 4.57344 137.658 4.54686C137.438 4.52027 137.215 4.53728 137.002 4.59691C136.788 4.65654 136.589 4.75762 136.415 4.89439L128.301 11.2588C127.949 11.535 127.721 11.9398 127.667 12.3841C127.614 12.8284 127.739 13.2759 128.015 13.628C128.291 13.9802 128.696 14.2082 129.14 14.2619C129.585 14.3156 130.032 14.1906 130.384 13.9144L138.498 7.54995C138.85 7.27369 139.078 6.86888 139.131 6.42456C139.185 5.98024 139.06 5.53281 138.784 5.1807Z" fill="#968B82"/>
<path d="M122.555 17.9015C122.417 17.7277 122.247 17.5827 122.053 17.4748C121.86 17.3669 121.647 17.2982 121.427 17.2725C121.207 17.2469 120.984 17.2649 120.77 17.3255C120.557 17.3861 120.358 17.4881 120.184 17.6256L112.201 23.9447C111.855 24.2241 111.633 24.6288 111.584 25.0708C111.534 25.5128 111.662 25.9565 111.938 26.3052C112.214 26.654 112.616 26.8797 113.058 26.9332C113.499 26.9867 113.944 26.8637 114.295 26.591L122.279 20.2722C122.453 20.1346 122.598 19.9642 122.706 19.7707C122.814 19.5771 122.882 19.3641 122.908 19.144C122.934 18.9239 122.916 18.7008 122.855 18.4876C122.794 18.2745 122.692 18.0753 122.555 17.9015Z" fill="#968B82"/>
<path d="M121.232 6.76426C121.627 6.76454 122.013 6.64762 122.342 6.42831C122.67 6.209 122.927 5.89714 123.078 5.5322C123.229 5.16726 123.269 4.76564 123.192 4.37816C123.115 3.99067 122.925 3.63473 122.645 3.35538C122.366 3.07603 122.01 2.88581 121.622 2.80881C121.235 2.7318 120.833 2.77147 120.468 2.92278C120.103 3.07409 119.792 3.33026 119.572 3.65886C119.353 3.98746 119.236 4.37372 119.236 4.76879C119.237 5.29791 119.447 5.80524 119.821 6.17939C120.195 6.55353 120.703 6.76389 121.232 6.76426Z" fill="#968B82"/>
<path d="M102.977 24.2856C101.152 24.2856 99.3689 24.8267 97.8518 25.8403C96.3348 26.854 95.1524 28.2947 94.4542 29.9804C93.7559 31.666 93.5733 33.5209 93.9292 35.3104C94.2852 37.0998 95.1638 38.7436 96.4539 40.0337C97.744 41.3238 99.3878 42.2024 101.177 42.5584C102.967 42.9143 104.822 42.7317 106.507 42.0334C108.193 41.3352 109.634 40.1528 110.647 38.6358C111.661 37.1187 112.202 35.3352 112.202 33.5106C112.199 31.0648 111.227 28.7199 109.497 26.9904C107.768 25.2609 105.423 24.2882 102.977 24.2856ZM102.977 39.3587C101.82 39.3587 100.689 39.0156 99.7269 38.3728C98.7648 37.73 98.015 36.8163 97.5723 35.7474C97.1295 34.6784 97.0136 33.5022 97.2394 32.3674C97.4651 31.2326 98.0222 30.1902 98.8404 29.3721C99.6585 28.554 100.701 27.9968 101.836 27.7711C102.97 27.5454 104.147 27.6612 105.216 28.104C106.285 28.5468 107.198 29.2966 107.841 30.2586C108.484 31.2206 108.827 32.3517 108.827 33.5087C108.826 35.0598 108.209 36.5469 107.112 37.6437C106.015 38.7405 104.528 39.3573 102.977 39.3587Z" fill="#968B82"/>
<path d="M101.315 35.147C100.959 35.147 100.612 35.2524 100.316 35.45C100.02 35.6476 99.7896 35.9285 99.6535 36.2571C99.5174 36.5857 99.4818 36.9473 99.5512 37.2961C99.6205 37.645 99.7918 37.9654 100.043 38.2169C100.295 38.4684 100.615 38.6397 100.964 38.709C101.313 38.7784 101.674 38.7428 102.003 38.6067C102.332 38.4706 102.613 38.2401 102.81 37.9444C103.008 37.6486 103.113 37.301 103.113 36.9453C103.113 36.4685 102.923 36.0113 102.586 35.6742C102.249 35.337 101.792 35.1474 101.315 35.147Z" fill="#968B82"/>
<path d="M101.784 32.0686C101.784 31.7129 101.678 31.3653 101.481 31.0695C101.283 30.7738 101.002 30.5432 100.674 30.4071C100.345 30.2709 99.9836 30.2352 99.6348 30.3045C99.2859 30.3738 98.9654 30.5449 98.7138 30.7963C98.4622 31.0477 98.2908 31.3681 98.2213 31.7169C98.1517 32.0657 98.1871 32.4273 98.323 32.7559C98.4589 33.0846 98.6893 33.3656 98.9849 33.5634C99.2804 33.7612 99.628 33.8669 99.9837 33.8672C100.461 33.8672 100.918 33.6778 101.256 33.3405C101.594 33.0032 101.783 32.5458 101.784 32.0686Z" fill="#968B82"/>
<path d="M104.836 35.1718C104.836 35.5274 104.941 35.8751 105.139 36.1708C105.336 36.4665 105.617 36.697 105.946 36.8331C106.274 36.9693 106.636 37.005 106.984 36.9357C107.333 36.8665 107.654 36.6954 107.905 36.444C108.157 36.1927 108.328 35.8724 108.398 35.5237C108.467 35.175 108.432 34.8135 108.296 34.4848C108.16 34.1562 107.93 33.8752 107.635 33.6774C107.339 33.4796 106.992 33.3739 106.636 33.3735C106.159 33.3735 105.701 33.5629 105.364 33.9001C105.026 34.2373 104.836 34.6948 104.836 35.1718Z" fill="#968B82"/>
<path d="M42.6341 111.938H42.6077C42.1624 111.942 41.7366 112.121 41.4213 112.435C41.1059 112.749 40.9261 113.174 40.9202 113.62C40.87 117.268 39.4097 120.755 36.8452 123.351C34.2807 125.946 30.8111 127.448 27.1637 127.542C26.9483 127.54 26.7347 127.582 26.5356 127.664C26.3364 127.746 26.1556 127.866 26.0037 128.019C25.8518 128.172 25.7319 128.353 25.6509 128.553C25.57 128.753 25.5297 128.966 25.5323 129.182C25.535 129.397 25.5806 129.61 25.6664 129.807C25.7522 130.005 25.8766 130.183 26.0322 130.332C26.1878 130.481 26.3716 130.598 26.5727 130.675C26.7738 130.752 26.9883 130.788 27.2036 130.781H27.2441C29.4693 130.769 31.6701 130.316 33.7193 129.449C35.7685 128.582 37.6256 127.317 39.1832 125.727C42.4014 122.519 44.2368 118.18 44.2968 113.636C44.3012 113.415 44.2614 113.195 44.1798 112.989C44.0982 112.783 43.9765 112.596 43.8217 112.438C43.6669 112.28 43.4822 112.154 43.2783 112.068C43.0743 111.982 42.8554 111.938 42.6341 111.938Z" fill="#968B82"/>
<path d="M13.9023 125.281C14.2358 125.281 14.5619 125.182 14.8393 124.997C15.1167 124.812 15.333 124.549 15.4608 124.24C15.5887 123.932 15.6224 123.593 15.5576 123.266C15.4928 122.939 15.3326 122.638 15.097 122.402C12.4565 119.746 10.9743 116.154 10.9743 112.409C10.9743 108.664 12.4565 105.071 15.097 102.416C16.4037 101.104 17.9564 100.064 19.666 99.3538C21.3757 98.6438 23.2087 98.2784 25.0599 98.2784C26.9111 98.2784 28.7441 98.6438 30.4537 99.3538C32.1634 100.064 33.7161 101.104 35.0227 102.416C35.2477 102.641 35.4663 102.875 35.673 103.112C35.9674 103.449 36.3836 103.655 36.8302 103.686C37.2767 103.716 37.7169 103.567 38.0541 103.273C38.3912 102.979 38.5976 102.562 38.6278 102.116C38.658 101.669 38.5096 101.229 38.2152 100.892C37.9596 100.599 37.6893 100.31 37.4125 100.032C35.7923 98.4063 33.8672 97.1165 31.7475 96.2364C29.6278 95.3564 27.3552 94.9033 25.06 94.9033C22.7649 94.9033 20.4923 95.3564 18.3726 96.2364C16.2529 97.1165 14.3277 98.4063 12.7075 100.032C9.43723 103.321 7.60156 107.771 7.60156 112.409C7.60156 117.047 9.43723 121.497 12.7075 124.786C12.8641 124.943 13.0503 125.068 13.2554 125.153C13.4604 125.238 13.6803 125.281 13.9023 125.281Z" fill="#968B82"/>
<path d="M35.722 93.1884C35.2832 93.2762 34.8972 93.5348 34.649 93.9072C34.4007 94.2796 34.3106 94.7354 34.3985 95.1743C34.4863 95.6131 34.7449 95.9991 35.1173 96.2473C35.4897 96.4956 35.9455 96.5857 36.3844 96.4978C39.0107 95.9722 39.9281 96.8936 40.2293 97.1962C42.1185 99.0898 40.82 103.695 36.8583 109.402C35.8836 108.889 34.762 108.726 33.6816 108.942C32.6013 109.158 31.628 109.738 30.9251 110.587C30.2221 111.435 29.8324 112.499 29.8212 113.601C29.8101 114.702 30.1781 115.774 30.8637 116.636C30.6024 116.907 30.3403 117.178 30.0762 117.444C23.4922 124.043 16.3405 128.478 12.2798 128.478C11.246 128.478 10.4638 128.197 9.88922 127.622C8.9805 126.711 8.79459 125.2 9.33628 123.131C9.39244 122.917 9.40582 122.694 9.37566 122.474C9.34551 122.255 9.2724 122.043 9.16051 121.852C9.04863 121.66 8.90016 121.493 8.72359 121.359C8.54701 121.225 8.34579 121.127 8.13141 121.071C7.91702 121.015 7.69367 121.002 7.47412 121.032C7.25456 121.062 7.04309 121.135 6.85179 121.247C6.66049 121.359 6.49309 121.507 6.35917 121.684C6.22524 121.86 6.12741 122.062 6.07125 122.276C4.99153 126.399 6.25209 128.755 7.49972 130.005C8.72259 131.231 10.3308 131.853 12.281 131.853C18.3188 131.853 26.6666 125.641 32.4663 119.827C32.9334 119.359 33.3944 118.878 33.85 118.395C34.1061 118.439 34.3653 118.461 34.6252 118.463C35.3967 118.463 36.1568 118.277 36.8412 117.92C37.5256 117.564 38.1142 117.048 38.5572 116.417C39.0002 115.785 39.2845 115.056 39.3863 114.291C39.4881 113.526 39.4042 112.748 39.1418 112.023C44.7271 104.26 45.9677 98.1704 42.6194 94.8137C41.4787 93.6699 39.3558 92.4611 35.722 93.1884ZM34.6252 115.088C34.3396 115.091 34.0598 115.008 33.8213 114.851C33.5829 114.694 33.3964 114.47 33.2857 114.206C33.175 113.943 33.145 113.653 33.1996 113.373C33.2542 113.092 33.3908 112.835 33.5922 112.632C33.7936 112.43 34.0506 112.292 34.3306 112.236C34.6106 112.18 34.9009 112.208 35.1647 112.317C35.4285 112.427 35.6538 112.612 35.8121 112.85C35.9704 113.087 36.0544 113.367 36.0536 113.652C36.0539 114.032 35.9036 114.396 35.6357 114.665C35.3678 114.934 35.004 115.086 34.6243 115.088L34.6252 115.088Z" fill="#968B82"/>
<path d="M14.6358 116.898C14.2539 117.131 13.9804 117.507 13.8753 117.942C13.7702 118.377 13.8423 118.836 14.0756 119.218L14.1434 119.327C14.2596 119.517 14.4123 119.682 14.5926 119.812C14.7728 119.943 14.9771 120.037 15.1937 120.088C15.4102 120.139 15.6348 120.147 15.8544 120.111C16.0741 120.075 16.2844 119.996 16.4734 119.879C16.6624 119.761 16.8263 119.607 16.9556 119.426C17.0849 119.245 17.1771 119.04 17.2269 118.823C17.2767 118.606 17.2832 118.382 17.2458 118.162C17.2085 117.943 17.1281 117.733 17.0093 117.545L16.9556 117.458C16.7223 117.076 16.3468 116.803 15.9117 116.698C15.4767 116.592 15.0178 116.665 14.6358 116.898Z" fill="#968B82"/>
<path d="M121.38 114.763C119.99 115.331 118.799 116.297 117.958 117.541C117.118 118.785 116.664 120.251 116.656 121.752C116.648 123.253 117.086 124.724 117.913 125.976C118.74 127.229 119.921 128.209 121.305 128.791C122.689 129.373 124.215 129.532 125.689 129.247C127.163 128.962 128.519 128.246 129.587 127.19C130.654 126.134 131.385 124.785 131.686 123.314C131.987 121.843 131.845 120.316 131.278 118.926C130.907 117.998 130.355 117.154 129.655 116.441C128.955 115.729 128.12 115.163 127.199 114.775C126.278 114.388 125.29 114.188 124.291 114.186C123.292 114.184 122.303 114.38 121.38 114.763ZM128.136 123.426C127.758 124.325 127.079 125.066 126.216 125.521C125.354 125.977 124.36 126.119 123.404 125.923C122.448 125.728 121.589 125.207 120.974 124.45C120.359 123.693 120.026 122.745 120.031 121.77C120.036 120.794 120.379 119.85 121.002 119.099C121.625 118.349 122.489 117.837 123.447 117.651C124.405 117.466 125.397 117.619 126.255 118.083C127.113 118.547 127.784 119.295 128.152 120.198C128.363 120.711 128.471 121.26 128.468 121.814C128.465 122.369 128.352 122.917 128.136 123.427V123.426Z" fill="#968B82"/>
<path d="M129.479 109.351C126.601 108.141 123.391 107.966 120.399 108.856C117.406 109.746 114.814 111.647 113.065 114.234C111.316 116.821 110.519 119.934 110.808 123.043C111.097 126.152 112.456 129.065 114.652 131.285C116.848 133.504 119.746 134.894 122.852 135.217C125.958 135.54 129.079 134.775 131.685 133.055C134.29 131.334 136.219 128.763 137.141 125.779C138.063 122.796 137.923 119.585 136.743 116.694C136.078 115.051 135.094 113.556 133.847 112.295C132.6 111.035 131.115 110.034 129.479 109.351ZM133.578 125.715C132.671 127.874 131.043 129.651 128.972 130.744C126.901 131.837 124.515 132.178 122.221 131.709C119.927 131.24 117.866 129.99 116.39 128.172C114.914 126.354 114.114 124.081 114.127 121.739C114.139 119.397 114.963 117.133 116.458 115.33C117.953 113.528 120.027 112.3 122.326 111.855C124.625 111.411 127.007 111.777 129.066 112.892C131.126 114.007 132.735 115.801 133.619 117.969C134.125 119.199 134.382 120.517 134.375 121.846C134.368 123.176 134.097 124.491 133.578 125.715Z" fill="#968B82"/>
<path d="M56.8062 17.5217C57.4121 15.9312 57.5867 14.2088 57.3122 12.5292C57.0377 10.8495 56.3239 9.27227 55.2432 7.95746C54.1625 6.64265 52.7533 5.637 51.1586 5.04251C49.5638 4.44802 47.8402 4.28582 46.1625 4.57237C42.6064 1.54668 39.9784 0.682959 38.3477 2.01271C37.826 2.43768 36.2383 3.73171 38.4512 8.54615C38.6453 8.96802 38.8638 9.40536 39.1009 9.85199C38.9738 10.1133 38.8551 10.3813 38.7499 10.6581C38.196 12.1209 38.0052 13.6964 38.1939 15.2492C38.3826 16.802 38.9452 18.2859 39.8333 19.5735C40.7214 20.8612 41.9086 21.9142 43.2931 22.6422C44.6776 23.3703 46.218 23.7517 47.7823 23.7536C48.6726 23.7524 49.5585 23.627 50.4142 23.381C50.5281 23.4679 50.642 23.5539 50.7545 23.6363C52.6133 24.9984 54.1472 25.6754 55.3898 25.6754C55.9977 25.6852 56.5923 25.4964 57.0832 25.1376C58.9735 23.7564 58.0048 20.5485 56.6771 17.8381C56.7209 17.7332 56.7654 17.6288 56.8062 17.5217ZM50.0106 8.2168C51.1147 8.63573 52.0783 9.35751 52.7907 10.2993C53.5032 11.241 53.9356 12.3646 54.0384 13.541C54.1412 14.7175 53.9101 15.899 53.3718 16.9501C52.8335 18.0011 52.0097 18.8791 50.995 19.4831C49.3403 17.9929 47.8073 16.3729 46.4106 14.6386C45.1899 13.1527 44.0678 11.5885 43.0513 9.95605C43.6425 9.28238 44.3703 8.74227 45.1863 8.37164C46.0024 8.00101 46.888 7.80834 47.7842 7.80646C48.5451 7.80658 49.2996 7.94564 50.0106 8.2168ZM42.5144 5.99887C42.1193 6.25551 41.7433 6.54051 41.3894 6.85161C41.1054 6.24251 40.8851 5.60565 40.7322 4.95121C41.3615 5.23674 41.9589 5.58791 42.5144 5.99887ZM41.5048 13.7389C42.2062 14.7438 42.9746 15.7639 43.7967 16.771C44.8373 18.0468 45.9094 19.2415 46.9748 20.3167C45.3984 20.1194 43.956 19.33 42.9403 18.1085C41.9245 16.8869 41.4113 15.3248 41.5048 13.7389ZM53.8142 21.6333C54.0122 21.4756 54.2031 21.3102 54.3868 21.1371C54.5103 21.491 54.6118 21.8211 54.6802 22.0993C54.3818 21.9627 54.0926 21.807 53.8142 21.6333Z" fill="#968B82"/>
<path d="M36.8682 41.8765C34.3741 41.8765 31.936 42.6161 29.8623 44.0017C27.7885 45.3874 26.1722 47.3568 25.2177 49.6611C24.2633 51.9653 24.0135 54.5009 24.5001 56.947C24.9867 59.3932 26.1877 61.6402 27.9513 63.4038C29.7149 65.1674 31.9619 66.3684 34.4081 66.855C36.8542 67.3416 39.3898 67.0918 41.694 66.1374C43.9983 65.1829 45.9677 63.5666 47.3534 61.4928C48.739 59.4191 49.4786 56.981 49.4786 54.4869C49.4749 51.1435 48.1451 47.9382 45.781 45.5741C43.4169 43.21 40.2116 41.8802 36.8682 41.8765ZM36.8682 63.7591C35.1726 63.7652 33.5075 63.3081 32.0527 62.4373H35.4116C35.8592 62.4373 36.2884 62.2595 36.6049 61.943C36.9213 61.6265 37.0991 61.1973 37.0991 60.7498C37.0991 60.3022 36.9213 59.873 36.6049 59.5565C36.2884 59.24 35.8592 59.0623 35.4116 59.0623H28.8585C28.8425 59.0623 28.8267 58.9824 28.811 58.9829C28.4228 58.3045 28.1349 57.5735 27.9563 56.8125H32.4999C32.9474 56.8125 33.3766 56.6347 33.6931 56.3183C34.0096 56.0018 34.1874 55.5726 34.1874 55.125C34.1874 54.6775 34.0096 54.2483 33.6931 53.9318C33.3766 53.6153 32.9474 53.4375 32.4999 53.4375H27.6829C27.799 52.4683 28.0548 51.521 28.4423 50.625H34.319C34.7665 50.625 35.1958 50.4472 35.5122 50.1308C35.8287 49.8143 36.0065 49.3851 36.0065 48.9375C36.0065 48.49 35.8287 48.0608 35.5122 47.7443C35.1958 47.4278 34.7665 47.25 34.319 47.25H31.0283C32.6208 46.125 34.6542 45.2076 36.8677 45.2076C39.3189 45.2211 41.6651 46.2043 43.3937 47.9424C45.1222 49.6805 46.0925 52.0321 46.0925 54.4834C46.0925 56.9346 45.1222 59.2863 43.3937 61.0243C41.6651 62.7624 39.3189 63.7456 36.8677 63.7591H36.8682Z" fill="#968B82"/>
</svg>
