<svg viewBox="0 0 80 80" fill="none" xmlns="http://www.w3.org/2000/svg">
<path d="M10.0002 62.6562C10.0006 60.7026 10.6431 58.8033 11.8289 57.2507C13.0147 55.6981 14.678 54.5784 16.5627 54.0639C15.2415 53.7035 13.8549 53.6527 12.5109 53.9153C11.1668 54.178 9.90144 54.747 8.81308 55.5783C7.72473 56.4095 6.84273 57.4806 6.23565 58.7082C5.62856 59.9357 5.31274 61.2868 5.31274 62.6562C5.31274 64.0257 5.62856 65.3768 6.23565 66.6043C6.84273 67.8319 7.72473 68.9029 8.81308 69.7342C9.90144 70.5654 11.1668 71.1345 12.5109 71.3972C13.8549 71.6598 15.2415 71.609 16.5627 71.2486C14.678 70.7341 13.0147 69.6144 11.8289 68.0618C10.6431 66.5092 10.0006 64.6099 10.0002 62.6562Z" fill="#3E61EE" fill-opacity="0.2"/>
<path d="M73.1289 43.7656C72.2947 43.7657 71.4793 44.013 70.7857 44.4765C70.0921 44.94 69.5516 45.5987 69.2324 46.3694C68.9132 47.14 68.8297 47.9881 68.9924 48.8062C69.1552 49.6243 69.5569 50.3758 70.1468 50.9657C70.7366 51.5555 71.4881 51.9572 72.3063 52.1199C73.1244 52.2826 73.9724 52.1991 74.7431 51.8799C75.5138 51.5606 76.1725 51.0201 76.6359 50.3265C77.0993 49.6329 77.3467 48.8174 77.3467 47.9833C77.3454 46.8651 76.9006 45.793 76.1099 45.0023C75.3192 44.2116 74.2471 43.7669 73.1289 43.7656ZM73.1289 50.3258C72.6655 50.3257 72.2126 50.1883 71.8274 49.9309C71.4422 49.6734 71.1419 49.3076 70.9646 48.8795C70.7874 48.4514 70.741 47.9804 70.8314 47.5259C70.9218 47.0715 71.145 46.6541 71.4726 46.3265C71.8003 45.9989 72.2177 45.7758 72.6722 45.6855C73.1266 45.5951 73.5976 45.6415 74.0257 45.8189C74.4537 45.9962 74.8196 46.2965 75.077 46.6817C75.3344 47.067 75.4717 47.5199 75.4717 47.9833C75.471 48.6044 75.224 49.1999 74.7848 49.6391C74.3455 50.0783 73.75 50.3253 73.1289 50.3259V50.3258Z" fill="#3E61EE"/>
<path d="M45.6745 39.318C45.0523 39.5719 44.5194 40.0046 44.1431 40.5613C43.7669 41.1181 43.5641 41.7739 43.5606 42.4459C43.5571 43.1179 43.7529 43.7758 44.1232 44.3365C44.4936 44.8972 45.022 45.3355 45.6414 45.5959C46.2609 45.8564 46.9437 45.9273 47.6035 45.7996C48.2632 45.672 48.8703 45.3516 49.348 44.879C49.8257 44.4063 50.1525 43.8026 50.287 43.1442C50.4216 42.4859 50.3579 41.8024 50.104 41.1802C49.7627 40.3465 49.1047 39.6823 48.2743 39.3332C47.4439 38.9841 46.509 38.9786 45.6745 39.318ZM48.368 41.8886C48.4911 42.1906 48.514 42.5241 48.4332 42.8401C48.3525 43.156 48.1725 43.4377 47.9196 43.6436C47.6667 43.8496 47.3544 43.9688 47.0286 43.9839C46.7029 43.9989 46.3809 43.9089 46.1101 43.7272C45.8394 43.5455 45.6341 43.2816 45.5246 42.9744C45.4151 42.6672 45.4072 42.333 45.5019 42.021C45.5967 41.7089 45.7891 41.4356 46.051 41.2412C46.3128 41.0468 46.6301 40.9416 46.9562 40.9411C47.259 40.941 47.555 41.0311 47.8064 41.1998C48.0578 41.3686 48.2533 41.6084 48.368 41.8886Z" fill="#3E61EE"/>
<path d="M49.8593 45.6701C49.6728 45.7463 49.513 45.8762 49.4002 46.0433C49.2874 46.2103 49.2267 46.407 49.2257 46.6086C49.2247 46.8101 49.2835 47.0075 49.3946 47.1756C49.5057 47.3438 49.6642 47.4752 49.85 47.5533C50.0358 47.6314 50.2406 47.6527 50.4385 47.6145C50.6364 47.5762 50.8185 47.4802 50.9618 47.3385C51.1052 47.1967 51.2032 47.0157 51.2437 46.8183C51.2842 46.6208 51.2652 46.4158 51.1892 46.2291C51.0868 45.9788 50.8892 45.7793 50.6399 45.6745C50.3906 45.5697 50.1098 45.5681 49.8593 45.6701Z" fill="#3E61EE"/>
<path d="M6.22692 6.14799C5.60474 6.40182 5.07179 6.83446 4.69549 7.39118C4.31918 7.94791 4.11642 8.60372 4.11284 9.27568C4.10926 9.94764 4.30503 10.6056 4.67538 11.1663C5.04573 11.727 5.57403 12.1653 6.19348 12.4257C6.81293 12.6862 7.4957 12.7571 8.15544 12.6295C8.81519 12.5019 9.42228 12.1815 9.89994 11.7089C10.3776 11.2362 10.7044 10.6325 10.839 9.97419C10.9735 9.31583 10.9099 8.63235 10.656 8.01018C10.3147 7.17661 9.65679 6.51243 8.82648 6.16333C7.99617 5.81423 7.06129 5.80871 6.22692 6.14799ZM8.0863 10.7036C7.80745 10.8175 7.5011 10.846 7.20601 10.7858C6.91091 10.7255 6.64032 10.579 6.42847 10.3649C6.21661 10.1508 6.07301 9.87873 6.01582 9.58302C5.95864 9.2873 5.99044 8.98127 6.1072 8.70363C6.22396 8.426 6.42044 8.18922 6.67178 8.02326C6.92312 7.8573 7.21804 7.76961 7.51923 7.77128C7.82042 7.77295 8.11434 7.86391 8.36383 8.03265C8.61332 8.20139 8.80716 8.44033 8.92083 8.71924C8.99751 8.90423 9.03672 9.10261 9.03618 9.30286C9.03563 9.50312 8.99536 9.70127 8.91767 9.88585C8.83999 10.0704 8.72645 10.2377 8.58364 10.3781C8.44082 10.5185 8.27156 10.6291 8.08567 10.7036H8.0863Z" fill="#3E61EE"/>
<path d="M12.0548 5.0659C11.9157 5.00785 11.7654 4.98139 11.6148 4.98841C11.4643 4.99543 11.3171 5.03576 11.184 5.1065C11.0509 5.17723 10.9351 5.27661 10.845 5.39748C10.7549 5.51834 10.6928 5.65768 10.663 5.80546C10.6332 5.95324 10.6366 6.10578 10.6729 6.25209C10.7092 6.3984 10.7775 6.53485 10.8729 6.65159C10.9682 6.76833 11.0883 6.86247 11.2245 6.92722C11.3606 6.99197 11.5094 7.02573 11.6601 7.02605C11.8956 7.02602 12.1239 6.94448 12.3061 6.79527C12.4883 6.64607 12.6133 6.4384 12.6598 6.20752C12.7062 5.97664 12.6714 5.73679 12.5611 5.52869C12.4509 5.32059 12.272 5.15707 12.0548 5.0659Z" fill="#3E61EE"/>
<path d="M45.0835 61.4785C44.2494 61.4785 43.4339 61.7258 42.7403 62.1892C42.0467 62.6527 41.5061 63.3114 41.1868 64.082C40.8676 64.8527 40.784 65.7007 40.9467 66.5189C41.1095 67.3371 41.5111 68.0886 42.101 68.6785C42.6908 69.2683 43.4423 69.67 44.2605 69.8328C45.0786 69.9955 45.9267 69.912 46.6974 69.5928C47.4681 69.2736 48.1268 68.733 48.5902 68.0394C49.0537 67.3458 49.301 66.5304 49.301 65.6962C49.2998 64.578 48.855 63.506 48.0644 62.7153C47.2737 61.9246 46.2017 61.4798 45.0835 61.4785ZM45.0835 68.0388C44.6202 68.0389 44.1673 67.9015 43.782 67.6441C43.3967 67.3867 43.0964 67.0208 42.9191 66.5928C42.7418 66.1647 42.6953 65.6937 42.7857 65.2392C42.8761 64.7848 43.0992 64.3674 43.4268 64.0397C43.7544 63.7121 44.1719 63.4889 44.6263 63.3985C45.0807 63.3081 45.5518 63.3545 45.9798 63.5318C46.4079 63.7091 46.7738 64.0094 47.0312 64.3946C47.2886 64.7799 47.426 65.2328 47.426 65.6962C47.4253 66.3172 47.1783 66.9127 46.7392 67.3519C46.3 67.791 45.7046 68.0381 45.0835 68.0388Z" fill="#3E61EE"/>
<path d="M43.8179 58.4795C43.8179 58.7298 43.8921 58.9745 44.0312 59.1826C44.1702 59.3908 44.3679 59.553 44.5992 59.6488C44.8304 59.7446 45.0849 59.7696 45.3304 59.7208C45.5759 59.672 45.8014 59.5514 45.9784 59.3744C46.1554 59.1974 46.276 58.9719 46.3248 58.7264C46.3736 58.4809 46.3486 58.2264 46.2528 57.9952C46.157 57.7639 45.9948 57.5662 45.7866 57.4272C45.5785 57.2881 45.3338 57.2139 45.0835 57.2139C44.7479 57.2142 44.4262 57.3477 44.189 57.585C43.9517 57.8222 43.8182 58.1439 43.8179 58.4795Z" fill="#3E61EE"/>
<path d="M45.0834 71.6475C44.8331 71.6475 44.5884 71.7217 44.3802 71.8608C44.1721 71.9998 44.0099 72.1975 43.9141 72.4288C43.8183 72.66 43.7932 72.9145 43.8421 73.16C43.8909 73.4055 44.0114 73.631 44.1884 73.808C44.3654 73.985 44.591 74.1056 44.8365 74.1544C45.082 74.2032 45.3364 74.1782 45.5677 74.0824C45.799 73.9866 45.9966 73.8244 46.1357 73.6162C46.2748 73.4081 46.349 73.1634 46.349 72.9131C46.3487 72.5775 46.2152 72.2558 45.9779 72.0185C45.7407 71.7812 45.4189 71.6478 45.0834 71.6475Z" fill="#3E61EE"/>
<path d="M39.1327 65.6963C39.1327 65.446 39.0585 65.2013 38.9194 64.9931C38.7803 64.785 38.5827 64.6228 38.3514 64.527C38.1201 64.4312 37.8657 64.4061 37.6202 64.455C37.3746 64.5038 37.1491 64.6244 36.9721 64.8014C36.7951 64.9784 36.6746 65.2039 36.6258 65.4494C36.5769 65.6949 36.602 65.9494 36.6978 66.1806C36.7936 66.4119 36.9558 66.6096 37.1639 66.7486C37.3721 66.8877 37.6168 66.9619 37.8671 66.9619C38.2026 66.9615 38.5243 66.8281 38.7616 66.5908C38.9989 66.3535 39.1323 66.0318 39.1327 65.6963Z" fill="#3E61EE"/>
<path d="M52.2999 64.4307C52.0496 64.4307 51.8049 64.5049 51.5968 64.644C51.3887 64.783 51.2264 64.9807 51.1306 65.212C51.0349 65.4432 51.0098 65.6977 51.0586 65.9432C51.1075 66.1887 51.228 66.4142 51.405 66.5912C51.582 66.7682 51.8075 66.8888 52.053 66.9376C52.2985 66.9864 52.553 66.9614 52.7843 66.8656C53.0155 66.7698 53.2132 66.6076 53.3523 66.3994C53.4913 66.1913 53.5656 65.9466 53.5656 65.6963C53.5652 65.3607 53.4317 65.039 53.1945 64.8018C52.9572 64.5645 52.6355 64.431 52.2999 64.4307Z" fill="#3E61EE"/>
<path d="M39.9807 69.5337C39.8145 69.5332 39.6499 69.5657 39.4963 69.6293C39.3428 69.6928 39.2033 69.7862 39.0861 69.904C38.879 70.111 38.7502 70.3835 38.7215 70.6749C38.6929 70.9663 38.7661 71.2586 38.9288 71.502C39.0915 71.7455 39.3335 71.925 39.6137 72.01C39.8939 72.095 40.1949 72.0802 40.4654 71.9681C40.7359 71.8561 40.9592 71.6537 41.0972 71.3955C41.2353 71.1373 41.2795 70.8392 41.2224 70.552C41.1653 70.2648 41.0104 70.0063 40.7841 69.8206C40.5577 69.6348 40.274 69.5332 39.9812 69.5332L39.9807 69.5337Z" fill="#3E61EE"/>
<path d="M50.1863 59.3281C49.8935 59.3281 49.6097 59.4297 49.3834 59.6154C49.157 59.8012 49.0021 60.0597 48.945 60.3469C48.8879 60.6341 48.9321 60.9322 49.0701 61.1905C49.2082 61.4487 49.4315 61.6511 49.7021 61.7631C49.9726 61.8751 50.2737 61.8899 50.5539 61.8048C50.8341 61.7198 51.0761 61.5402 51.2387 61.2967C51.4014 61.0532 51.4746 60.7608 51.4458 60.4694C51.417 60.178 51.2881 59.9056 51.081 59.6986C50.9638 59.5808 50.8243 59.4873 50.6708 59.4237C50.5172 59.3601 50.3525 59.3277 50.1863 59.3281Z" fill="#3E61EE"/>
<path d="M39.9806 61.8589C40.2308 61.8588 40.4754 61.7846 40.6835 61.6456C40.8915 61.5065 41.0537 61.3089 41.1495 61.0777C41.2453 60.8465 41.2704 60.5922 41.2216 60.3467C41.1729 60.1013 41.0524 59.8758 40.8756 59.6988C40.7284 59.5516 40.5472 59.443 40.348 59.3826C40.1488 59.3222 39.9378 59.3118 39.7337 59.3525C39.5296 59.3931 39.3386 59.4834 39.1777 59.6155C39.0168 59.7475 38.891 59.9172 38.8114 60.1095C38.7317 60.3018 38.7008 60.5108 38.7212 60.7179C38.7416 60.9251 38.8128 61.124 38.9285 61.297C39.0441 61.4701 39.2007 61.6119 39.3842 61.71C39.5678 61.8081 39.7728 61.8594 39.9809 61.8594L39.9806 61.8589Z" fill="#3E61EE"/>
<path d="M51.0809 69.904C50.9039 69.727 50.6784 69.6064 50.4329 69.5575C50.1874 69.5087 49.9329 69.5337 49.7016 69.6295C49.4704 69.7253 49.2727 69.8875 49.1336 70.0957C48.9945 70.3038 48.9203 70.5485 48.9203 70.7988C48.9203 71.0492 48.9945 71.2939 49.1336 71.502C49.2727 71.7101 49.4704 71.8724 49.7016 71.9681C49.9329 72.0639 50.1874 72.089 50.4329 72.0401C50.6784 71.9913 50.9039 71.8707 51.0809 71.6937C51.1994 71.5767 51.2935 71.4374 51.3578 71.2838C51.422 71.1302 51.4551 70.9653 51.4551 70.7988C51.4551 70.6323 51.422 70.4675 51.3578 70.3139C51.2935 70.1603 51.1994 70.0209 51.0809 69.904Z" fill="#3E61EE"/>
<path d="M66.0767 37.8613C65.8263 37.8613 65.5817 37.9356 65.3735 38.0746C65.1654 38.2137 65.0032 38.4114 64.9074 38.6426C64.8116 38.8739 64.7865 39.1284 64.8354 39.3739C64.8842 39.6194 65.0047 39.8449 65.1817 40.0219C65.3587 40.1989 65.5842 40.3194 65.8298 40.3683C66.0753 40.4171 66.3297 40.392 66.561 40.2962C66.7923 40.2004 66.9899 40.0382 67.129 39.8301C67.2681 39.622 67.3423 39.3773 67.3423 39.1269C67.3419 38.7914 67.2085 38.4697 66.9712 38.2324C66.7339 37.9952 66.4122 37.8617 66.0767 37.8613Z" fill="#3E61EE"/>
<path d="M45.9033 6.93457C46.1536 6.93457 46.3983 6.86034 46.6065 6.72127C46.8146 6.58221 46.9768 6.38454 47.0726 6.15328C47.1684 5.92202 47.1935 5.66754 47.1446 5.42203C47.0958 5.17653 46.9753 4.95101 46.7983 4.77401C46.6213 4.59701 46.3957 4.47647 46.1502 4.42764C45.9047 4.37881 45.6502 4.40387 45.419 4.49966C45.1877 4.59545 44.9901 4.75767 44.851 4.9658C44.7119 5.17393 44.6377 5.41863 44.6377 5.66895C44.638 6.00451 44.7715 6.32623 45.0088 6.56351C45.246 6.80079 45.5678 6.93424 45.9033 6.93457Z" fill="#3E61EE"/>
<path d="M6.54138 48.6855C6.29107 48.6855 6.04637 48.7598 5.83824 48.8988C5.63011 49.0379 5.46789 49.2356 5.3721 49.4668C5.27631 49.6981 5.25124 49.9526 5.30008 50.1981C5.34891 50.4436 5.46945 50.6691 5.64645 50.8461C5.82345 51.0231 6.04896 51.1437 6.29447 51.1925C6.53998 51.2413 6.79445 51.2163 7.02572 51.1205C7.25698 51.0247 7.45464 50.8625 7.59371 50.6543C7.73278 50.4462 7.80701 50.2015 7.80701 49.9512C7.80668 49.6156 7.67323 49.2939 7.43595 49.0566C7.19867 48.8193 6.87695 48.6859 6.54138 48.6855Z" fill="#3E61EE"/>
<path d="M4.40951 25.7956C5.10841 25.7956 5.67498 25.229 5.67498 24.5301C5.67498 23.8312 5.10841 23.2646 4.40951 23.2646C3.71061 23.2646 3.14404 23.8312 3.14404 24.5301C3.14404 25.229 3.71061 25.7956 4.40951 25.7956Z" fill="#3E61EE"/>
<path d="M56.7283 75.9111C56.478 75.9111 56.2333 75.9854 56.0251 76.1244C55.817 76.2635 55.6548 76.4612 55.559 76.6924C55.4632 76.9237 55.4381 77.1782 55.487 77.4237C55.5358 77.6692 55.6563 77.8947 55.8333 78.0717C56.0103 78.2487 56.2359 78.3692 56.4814 78.4181C56.7269 78.4669 56.9813 78.4418 57.2126 78.346C57.4439 78.2503 57.6415 78.088 57.7806 77.8799C57.9197 77.6718 57.9939 77.4271 57.9939 77.1768C57.9935 76.8412 57.8601 76.5195 57.6228 76.2822C57.3855 76.045 57.0638 75.9115 56.7283 75.9111Z" fill="#3E61EE"/>
<path d="M29.9948 43.7656C29.7444 43.7656 29.4997 43.8399 29.2916 43.9789C29.0835 44.118 28.9213 44.3157 28.8255 44.5469C28.7297 44.7782 28.7046 45.0327 28.7534 45.2782C28.8023 45.5237 28.9228 45.7492 29.0998 45.9262C29.2768 46.1032 29.5023 46.2237 29.7478 46.2726C29.9933 46.3214 30.2478 46.2963 30.4791 46.2005C30.7103 46.1047 30.908 45.9425 31.0471 45.7344C31.1861 45.5263 31.2604 45.2816 31.2604 45.0313C31.26 44.6957 31.1265 44.374 30.8893 44.1367C30.652 43.8995 30.3303 43.766 29.9948 43.7656Z" fill="#3E61EE"/>
<path d="M74.9327 26.9434C75.1831 26.9434 75.4278 26.8691 75.6359 26.7301C75.844 26.591 76.0062 26.3933 76.102 26.1621C76.1978 25.9308 76.2229 25.6763 76.1741 25.4308C76.1252 25.1853 76.0047 24.9598 75.8277 24.7828C75.6507 24.6058 75.4252 24.4853 75.1797 24.4364C74.9341 24.3876 74.6797 24.4127 74.4484 24.5085C74.2171 24.6042 74.0195 24.7665 73.8804 24.9746C73.7413 25.1827 73.6671 25.4274 73.6671 25.6777C73.6675 26.0133 73.8009 26.335 74.0382 26.5723C74.2755 26.8095 74.5972 26.943 74.9327 26.9434Z" fill="#3E61EE"/>
<path d="M34.5869 22.6094C34.3366 22.6094 34.0919 22.6836 33.8838 22.8227C33.6756 22.9617 33.5134 23.1594 33.4176 23.3907C33.3218 23.6219 33.2968 23.8764 33.3456 24.1219C33.3944 24.3674 33.515 24.5929 33.692 24.7699C33.869 24.9469 34.0945 25.0675 34.34 25.1163C34.5855 25.1651 34.84 25.1401 35.0712 25.0443C35.3025 24.9485 35.5002 24.7863 35.6392 24.5781C35.7783 24.37 35.8525 24.1253 35.8525 23.875C35.8522 23.5394 35.7188 23.2177 35.4815 22.9804C35.2442 22.7432 34.9225 22.6097 34.5869 22.6094Z" fill="#3E61EE"/>
<path d="M66.5399 43.222C66.0032 43.0407 65.5158 42.7376 65.1158 42.3364C64.7159 41.9352 64.4142 41.4468 64.2346 40.9095C64.1725 40.7226 64.0532 40.56 63.8935 40.4448C63.7338 40.3296 63.5418 40.2676 63.3449 40.2676C63.148 40.2676 62.9561 40.3296 62.7964 40.4448C62.6367 40.56 62.5173 40.7226 62.4552 40.9095C62.2756 41.4468 61.974 41.9352 61.5741 42.3364C61.1742 42.7376 60.6868 43.0407 60.1501 43.222C59.9636 43.2844 59.8015 43.4038 59.6867 43.5633C59.5718 43.7229 59.51 43.9145 59.51 44.1111C59.51 44.3077 59.5718 44.4993 59.6867 44.6588C59.8015 44.8184 59.9636 44.9378 60.1501 45.0001C60.6868 45.1814 61.1742 45.4845 61.5741 45.8857C61.9741 46.287 62.2757 46.7753 62.4552 47.3126C62.5173 47.4995 62.6367 47.6621 62.7964 47.7773C62.9561 47.8926 63.148 47.9546 63.3449 47.9546C63.5418 47.9546 63.7338 47.8926 63.8935 47.7773C64.0532 47.6621 64.1725 47.4995 64.2346 47.3126C64.4142 46.7753 64.7158 46.2868 65.1157 45.8855C65.5157 45.4842 66.0031 45.181 66.5399 44.9997C66.7263 44.9373 66.8884 44.8179 67.0033 44.6584C67.1182 44.4988 67.18 44.3072 67.18 44.1106C67.18 43.914 67.1182 43.7224 67.0033 43.5629C66.8884 43.4033 66.7263 43.2839 66.5399 43.2215V43.222ZM63.3449 45.0658C63.0672 44.7104 62.7474 44.3901 62.3926 44.1117C62.7474 43.8333 63.0672 43.513 63.3449 43.1576C63.6229 43.513 63.943 43.8333 64.298 44.1117C63.943 44.3899 63.623 44.71 63.3449 45.0651V45.0658Z" fill="#3E61EE"/>
<path d="M40.6875 32.966C41.2243 33.1472 41.7117 33.4503 42.1117 33.8515C42.5116 34.2527 42.8132 34.7412 42.9927 35.2785C43.0548 35.4653 43.1741 35.6279 43.3338 35.7432C43.4935 35.8584 43.6855 35.9204 43.8824 35.9204C44.0793 35.9204 44.2712 35.8584 44.4309 35.7432C44.5906 35.6279 44.71 35.4653 44.7721 35.2785C44.9517 34.7412 45.2534 34.2528 45.6534 33.8516C46.0534 33.4504 46.5408 33.1473 47.0775 32.966C47.264 32.9036 47.4261 32.7842 47.5409 32.6246C47.6558 32.4651 47.7176 32.2735 47.7176 32.0769C47.7176 31.8803 47.6558 31.6887 47.5409 31.5291C47.4261 31.3696 47.264 31.2502 47.0775 31.1878C46.5408 31.0065 46.0534 30.7034 45.6534 30.3022C45.2534 29.901 44.9517 29.4126 44.7721 28.8753C44.71 28.6884 44.5906 28.5259 44.4309 28.4106C44.2712 28.2954 44.0793 28.2334 43.8824 28.2334C43.6855 28.2334 43.4935 28.2954 43.3338 28.4106C43.1741 28.5259 43.0548 28.6884 42.9927 28.8753C42.8131 29.4126 42.5115 29.901 42.1116 30.3021C41.7117 30.7033 41.2242 31.0064 40.6875 31.1877C40.5011 31.25 40.339 31.3694 40.2241 31.529C40.1093 31.6885 40.0475 31.8801 40.0475 32.0767C40.0475 32.2733 40.1093 32.4649 40.2241 32.6245C40.339 32.784 40.5011 32.9034 40.6875 32.9658V32.966ZM43.8825 31.1222C44.1603 31.4775 44.4801 31.7979 44.8349 32.0763C44.4801 32.3547 44.1603 32.675 43.8825 33.0303C43.6045 32.675 43.2844 32.3547 42.9294 32.0763C43.2844 31.7981 43.6044 31.4779 43.8825 31.1228V31.1222Z" fill="#3E61EE"/>
<path d="M9.68349 34.304C9.14676 34.1228 8.65932 33.8197 8.25938 33.4185C7.85943 33.0172 7.55787 32.5288 7.37833 31.9915C7.31625 31.8047 7.19689 31.6421 7.03719 31.5268C6.87749 31.4116 6.68557 31.3496 6.48864 31.3496C6.29172 31.3496 6.09979 31.4116 5.9401 31.5268C5.7804 31.6421 5.66104 31.8047 5.59896 31.9915C5.41928 32.5288 5.11763 33.0172 4.71765 33.4184C4.31766 33.8196 3.83021 34.1227 3.29349 34.304C3.107 34.3664 2.94483 34.4858 2.82993 34.6453C2.71502 34.8049 2.6532 34.9965 2.6532 35.1932C2.6532 35.3898 2.71502 35.5815 2.82993 35.741C2.94483 35.9006 3.107 36.02 3.29349 36.0823C3.83022 36.2636 4.31768 36.5668 4.71766 36.968C5.11764 37.3692 5.41929 37.8575 5.59896 38.3948C5.66104 38.5817 5.7804 38.7443 5.9401 38.8595C6.09979 38.9747 6.29172 39.0367 6.48864 39.0367C6.68557 39.0367 6.87749 38.9747 7.03719 38.8595C7.19689 38.7443 7.31625 38.5817 7.37833 38.3948C7.55787 37.8575 7.85943 37.3691 8.25938 36.9679C8.65932 36.5667 9.14676 36.2636 9.68349 36.0823C9.86998 36.02 10.0321 35.9006 10.147 35.741C10.262 35.5815 10.3238 35.3898 10.3238 35.1932C10.3238 34.9965 10.262 34.8049 10.147 34.6453C10.0321 34.4858 9.86998 34.3664 9.68349 34.304ZM6.48849 36.1478C6.21067 35.7925 5.8909 35.4721 5.53614 35.1936C5.89097 34.9152 6.21076 34.5948 6.48849 34.2395C6.76622 34.5948 7.086 34.9152 7.44083 35.1936C7.0861 35.4719 6.76633 35.7922 6.48849 36.1473V36.1478Z" fill="#3E61EE"/>
<path d="M29.6925 74.4852C29.1558 74.3039 28.6684 74.0007 28.2684 73.5995C27.8685 73.1983 27.5668 72.71 27.3872 72.1727C27.325 71.9859 27.2056 71.8235 27.046 71.7083C26.8863 71.5932 26.6945 71.5312 26.4976 71.5312C26.3008 71.5312 26.109 71.5932 25.9493 71.7083C25.7896 71.8235 25.6703 71.9859 25.6081 72.1727C25.4284 72.71 25.1268 73.1983 24.7268 73.5995C24.3268 74.0007 23.8394 74.3039 23.3026 74.4852C23.1162 74.5475 22.954 74.6669 22.8391 74.8265C22.7242 74.9861 22.6624 75.1777 22.6624 75.3743C22.6624 75.571 22.7242 75.7626 22.8391 75.9222C22.954 76.0818 23.1162 76.2012 23.3026 76.2635C23.8394 76.4448 24.3268 76.7479 24.7268 77.1491C25.1268 77.5503 25.4284 78.0387 25.6081 78.576C25.6703 78.7628 25.7896 78.9252 25.9493 79.0404C26.109 79.1555 26.3008 79.2174 26.4976 79.2174C26.6945 79.2174 26.8863 79.1555 27.046 79.0404C27.2056 78.9252 27.325 78.7628 27.3872 78.576C27.5668 78.0387 27.8684 77.5503 28.2684 77.1491C28.6683 76.7479 29.1558 76.4448 29.6925 76.2635C29.879 76.2012 30.0411 76.0818 30.156 75.9222C30.2709 75.7626 30.3328 75.571 30.3328 75.3743C30.3328 75.1777 30.2709 74.9861 30.156 74.8265C30.0411 74.6669 29.879 74.5475 29.6925 74.4852ZM26.4976 76.329C26.2197 75.9735 25.8996 75.6531 25.5445 75.3747C25.8997 75.0965 26.2197 74.7761 26.4976 74.4207C26.7754 74.776 27.0952 75.0964 27.45 75.3747C27.0952 75.6531 26.7754 75.9733 26.4976 76.3285V76.329Z" fill="#3E61EE"/>
<path d="M71.9127 15.4319L71.781 15.5304C71.6824 15.6041 71.5993 15.6965 71.5364 15.8024C71.4736 15.9083 71.4322 16.0255 71.4146 16.1473C71.3971 16.2692 71.4037 16.3933 71.4341 16.5126C71.4645 16.6319 71.5181 16.744 71.5918 16.8426C71.6656 16.9412 71.758 17.0243 71.8639 17.0872C71.9697 17.15 72.0869 17.1914 72.2088 17.209C72.3306 17.2265 72.4548 17.2199 72.5741 17.1895C72.6934 17.1591 72.8055 17.1055 72.9041 17.0318L73.0358 16.9333C73.1344 16.8596 73.2175 16.7671 73.2803 16.6613C73.3432 16.5554 73.3846 16.4382 73.4022 16.3164C73.4197 16.1945 73.4131 16.0704 73.3827 15.9511C73.3523 15.8318 73.2987 15.7196 73.2249 15.6211C73.1512 15.5225 73.0588 15.4394 72.9529 15.3765C72.847 15.3137 72.7298 15.2723 72.608 15.2547C72.4861 15.2371 72.362 15.2438 72.2427 15.2742C72.1234 15.3046 72.0113 15.3582 71.9127 15.4319Z" fill="#968B82"/>
<path d="M69.3918 7.73406L68.6887 8.28531C68.493 8.43878 68.3663 8.6637 68.3365 8.91057C68.3067 9.15744 68.3761 9.40606 68.5296 9.60172C68.6831 9.79738 68.908 9.92405 69.1549 9.95388C69.4017 9.98371 69.6503 9.91425 69.846 9.76078L70.5491 9.20953C70.7448 9.05606 70.8715 8.83114 70.9013 8.58427C70.9311 8.33739 70.8617 8.08878 70.7082 7.89312C70.5547 7.69746 70.3298 7.57078 70.0829 7.54095C69.8361 7.51112 69.5874 7.58059 69.3918 7.73406Z" fill="#968B82"/>
<path d="M69.9488 16.901L61.0141 23.5813C60.3593 24.0709 59.6146 24.4267 58.8223 24.6284C58.03 24.8301 57.2058 24.8738 56.3966 24.757C55.5875 24.6402 54.8093 24.3651 54.1064 23.9475C53.4035 23.53 52.7898 22.978 52.3003 22.3233C51.8107 21.6685 51.4549 20.9237 51.2532 20.1315C51.0515 19.3392 51.0078 18.515 51.1246 17.7058C51.2414 16.8967 51.5165 16.1184 51.934 15.4156C52.3516 14.7127 52.9036 14.099 53.5583 13.6094L65.0313 5.03133C65.1306 4.9579 65.2145 4.86555 65.2781 4.7596C65.3416 4.65365 65.3836 4.53618 65.4016 4.41394C65.4196 4.29171 65.4133 4.16712 65.383 4.04735C65.3527 3.92757 65.299 3.81496 65.225 3.71601C65.151 3.61705 65.0582 3.53369 64.9519 3.47073C64.8456 3.40776 64.7279 3.36643 64.6056 3.3491C64.4832 3.33178 64.3587 3.33881 64.2391 3.36979C64.1195 3.40076 64.0072 3.45508 63.9086 3.52961L52.4355 12.1077C51.1524 13.0671 50.1825 14.3854 49.6486 15.8959C49.1148 17.4064 49.0408 19.0414 49.4361 20.5939C49.8315 22.1465 50.6783 23.547 51.8696 24.6182C53.0609 25.6895 54.5431 26.3834 56.1288 26.6123C56.5177 26.6686 56.9101 26.6969 57.303 26.697C59.0467 26.6972 60.7432 26.1305 62.1367 25.0824L71.0713 18.402C71.1716 18.3289 71.2565 18.2367 71.3209 18.1306C71.3853 18.0245 71.4281 17.9066 71.4466 17.7839C71.4651 17.6612 71.4591 17.536 71.4288 17.4156C71.3986 17.2952 71.3448 17.182 71.2704 17.0826C71.1961 16.9832 71.1028 16.8995 70.9959 16.8365C70.8889 16.7734 70.7706 16.7322 70.6476 16.7153C70.5246 16.6983 70.3995 16.7059 70.2795 16.7377C70.1596 16.7695 70.0471 16.8248 69.9486 16.9004L69.9488 16.901Z" fill="#968B82"/>
<path d="M70.2968 4.39447C70.5119 4.3947 70.7205 4.32063 70.8873 4.18478L72.0995 3.20041C72.2916 3.04336 72.4136 2.81658 72.4387 2.56976C72.4639 2.32293 72.3902 2.07619 72.2338 1.88359C72.0774 1.691 71.851 1.56826 71.6043 1.54227C71.3575 1.51628 71.1106 1.58916 70.9175 1.74494L69.7053 2.72931C69.5549 2.85145 69.4461 3.01716 69.3938 3.20365C69.3414 3.39015 69.3481 3.58828 69.413 3.77081C69.4778 3.95334 69.5976 4.1113 69.7559 4.22297C69.9141 4.33465 70.1031 4.39456 70.2968 4.39447Z" fill="#968B82"/>
<path d="M66.4219 7.54107C66.637 7.54124 66.8455 7.46711 67.0123 7.33123L68.7727 5.9017C68.8683 5.82408 68.9477 5.7284 69.0063 5.62012C69.0649 5.51184 69.1016 5.39308 69.1143 5.27061C69.127 5.14815 69.1154 5.02438 69.0803 4.90638C69.0452 4.78837 68.9871 4.67845 68.9095 4.58287C68.8319 4.48729 68.7362 4.40794 68.628 4.34933C68.5197 4.29073 68.4009 4.25403 68.2784 4.24133C68.156 4.22863 68.0322 4.24017 67.9142 4.2753C67.7962 4.31043 67.6863 4.36846 67.5907 4.44607L65.8304 5.87513C65.6797 5.99719 65.5706 6.16295 65.5181 6.34959C65.4656 6.53623 65.4722 6.73457 65.5371 6.91728C65.602 7.09999 65.7219 7.2581 65.8804 7.36981C66.0388 7.48153 66.2281 7.54136 66.4219 7.54107Z" fill="#968B82"/>
<path d="M63.9194 7.42747L62.3247 8.72263C62.1347 8.88031 62.0146 9.10658 61.9905 9.35228C61.9663 9.59799 62.0401 9.84331 62.1957 10.035C62.3513 10.2266 62.5763 10.3492 62.8217 10.376C63.0671 10.4028 63.3132 10.3317 63.5066 10.1781L65.1013 8.8831C65.2943 8.72637 65.4171 8.49938 65.4428 8.25207C65.4685 8.00475 65.3948 7.75737 65.2381 7.56434C65.0814 7.37132 64.8544 7.24845 64.6071 7.22279C64.3598 7.19712 64.1124 7.27074 63.9194 7.42747Z" fill="#968B82"/>
<path d="M75.4325 7.2026L74.3344 8.12651C74.2396 8.20559 74.1613 8.30262 74.1041 8.41203C74.0469 8.52144 74.0119 8.64106 74.0011 8.76404C73.9902 8.88702 74.0038 9.01093 74.0409 9.12866C74.0781 9.24639 74.1382 9.35561 74.2177 9.45007C74.2972 9.54452 74.3945 9.62235 74.5042 9.67907C74.6138 9.7358 74.7336 9.7703 74.8566 9.78062C74.9797 9.79093 75.1035 9.77684 75.2211 9.73916C75.3386 9.70147 75.4476 9.64094 75.5417 9.56104L76.6397 8.63713C76.7355 8.55836 76.8146 8.46138 76.8727 8.35179C76.9307 8.2422 76.9664 8.1222 76.9777 7.99871C76.9891 7.87523 76.9758 7.75073 76.9387 7.63242C76.9015 7.5141 76.8413 7.40433 76.7615 7.30945C76.6816 7.21458 76.5838 7.13648 76.4735 7.07969C76.3633 7.0229 76.2429 6.98854 76.1193 6.9786C75.9957 6.96866 75.8713 6.98334 75.7535 7.02179C75.6356 7.06024 75.5265 7.1217 75.4325 7.2026Z" fill="#968B82"/>
<path d="M72.3987 9.75533L68.6643 12.898C68.4741 13.0581 68.3552 13.2872 68.3339 13.535C68.3126 13.7827 68.3905 14.0288 68.5506 14.219C68.7108 14.4093 68.9399 14.5281 69.1876 14.5494C69.4354 14.5708 69.6814 14.4928 69.8717 14.3327L73.606 11.1899C73.7018 11.1111 73.781 11.0141 73.839 10.9045C73.8971 10.7949 73.9328 10.6749 73.9441 10.5514C73.9554 10.428 73.9421 10.3035 73.905 10.1852C73.8679 10.0668 73.8077 9.95707 73.7278 9.86219C73.648 9.76731 73.5501 9.68922 73.4399 9.63243C73.3296 9.57563 73.2092 9.54127 73.0856 9.53134C72.962 9.5214 72.8377 9.53608 72.7198 9.57453C72.6019 9.61298 72.4928 9.67443 72.3989 9.75533H72.3987Z" fill="#968B82"/>
<path d="M66.9784 16.4789C67.1991 16.479 67.4127 16.401 67.5813 16.2587L68.1974 15.7404C68.3848 15.5795 68.501 15.3511 68.521 15.105C68.5409 14.8588 68.4629 14.6147 68.3039 14.4258C68.1449 14.2368 67.9178 14.1182 67.6718 14.0957C67.4259 14.0732 67.181 14.1487 66.9904 14.3057L66.3749 14.824C66.2278 14.9478 66.1223 15.1139 66.0727 15.2997C66.0231 15.4855 66.0319 15.6821 66.0978 15.8628C66.1638 16.0434 66.2836 16.1994 66.4412 16.3096C66.5988 16.4199 66.7865 16.4789 66.9788 16.4789H66.9784Z" fill="#968B82"/>
<path d="M77.1019 2.87844C77.026 2.78157 76.9316 2.70061 76.8244 2.64019C76.7171 2.57977 76.599 2.54107 76.4768 2.5263C76.3545 2.51153 76.2306 2.52098 76.112 2.55411C75.9934 2.58724 75.8826 2.64339 75.7857 2.71938L71.2783 6.25516C71.0827 6.40861 70.956 6.63349 70.9262 6.88034C70.8964 7.12718 70.9658 7.37577 71.1193 7.57141C71.2727 7.76705 71.4976 7.89371 71.7445 7.92354C71.9913 7.95337 72.2399 7.88392 72.4355 7.73047L76.943 4.19469C77.1386 4.04121 77.2653 3.81632 77.2951 3.56947C77.3249 3.32263 77.2554 3.07406 77.1019 2.87844Z" fill="#968B82"/>
<path d="M68.086 9.94556C68.0096 9.84901 67.915 9.76846 67.8074 9.7085C67.6999 9.64855 67.5816 9.61036 67.4593 9.59613C67.337 9.5819 67.2131 9.59189 67.0946 9.62555C66.9762 9.6592 66.8655 9.71586 66.769 9.79228L62.3339 13.3029C62.1416 13.4581 62.0183 13.6829 61.9909 13.9285C61.9635 14.1741 62.0341 14.4205 62.1875 14.6143C62.3409 14.8081 62.5645 14.9334 62.8098 14.9632C63.0551 14.9929 63.3022 14.9246 63.4974 14.7731L67.9328 11.2626C68.0293 11.1862 68.1099 11.0915 68.1698 10.984C68.2298 10.8764 68.268 10.7581 68.2822 10.6358C68.2964 10.5135 68.2864 10.3896 68.2528 10.2712C68.2191 10.1527 68.1625 10.0421 68.086 9.94556Z" fill="#968B82"/>
<path d="M67.3509 3.75781C67.5704 3.75797 67.785 3.69302 67.9675 3.57117C68.1501 3.44933 68.2924 3.27608 68.3765 3.07334C68.4605 2.87059 68.4826 2.64747 68.4398 2.4322C68.397 2.21693 68.2913 2.01919 68.1361 1.86399C67.9809 1.7088 67.7832 1.60312 67.5679 1.56034C67.3527 1.51756 67.1295 1.5396 66.9268 1.62366C66.724 1.70772 66.5508 1.85003 66.4289 2.03259C66.3071 2.21514 66.2422 2.42974 66.2423 2.64922C66.2425 2.94317 66.3594 3.22503 66.5672 3.43288C66.7751 3.64074 67.057 3.75761 67.3509 3.75781Z" fill="#968B82"/>
<path d="M57.2096 13.4922C56.196 13.4922 55.2051 13.7928 54.3623 14.3559C53.5195 14.919 52.8626 15.7195 52.4747 16.6559C52.0868 17.5924 51.9853 18.6229 52.1831 19.617C52.3808 20.6112 52.8689 21.5244 53.5857 22.2411C54.3024 22.9579 55.2156 23.446 56.2098 23.6437C57.2039 23.8415 58.2344 23.74 59.1708 23.3521C60.1073 22.9642 60.9077 22.3073 61.4709 21.4645C62.034 20.6217 62.3346 19.6308 62.3346 18.6172C62.3332 17.2584 61.7928 15.9556 60.832 14.9948C59.8711 14.034 58.5684 13.4936 57.2096 13.4922ZM57.2096 21.8661C56.5668 21.8661 55.9385 21.6755 55.404 21.3184C54.8695 20.9613 54.453 20.4537 54.207 19.8598C53.961 19.266 53.8966 18.6125 54.022 17.9821C54.1474 17.3516 54.457 16.7725 54.9115 16.318C55.366 15.8635 55.9451 15.5539 56.5756 15.4285C57.206 15.3031 57.8595 15.3675 58.4533 15.6135C59.0472 15.8595 59.5548 16.276 59.9119 16.8105C60.269 17.345 60.4596 17.9733 60.4596 18.6161C60.4588 19.4778 60.1161 20.304 59.5068 20.9133C58.8975 21.5226 58.0713 21.8653 57.2096 21.8661Z" fill="#968B82"/>
<path d="M56.2859 19.5264C56.0883 19.5264 55.8952 19.585 55.7309 19.6947C55.5666 19.8045 55.4385 19.9606 55.3629 20.1431C55.2873 20.3257 55.2675 20.5265 55.3061 20.7203C55.3446 20.9141 55.4398 21.0922 55.5795 21.2319C55.7192 21.3716 55.8972 21.4667 56.091 21.5053C56.2848 21.5438 56.4857 21.5241 56.6682 21.4484C56.8508 21.3728 57.0068 21.2448 57.1166 21.0805C57.2264 20.9162 57.285 20.723 57.285 20.5254C57.2847 20.2605 57.1794 20.0066 56.9921 19.8193C56.8048 19.632 56.5508 19.5266 56.2859 19.5264Z" fill="#968B82"/>
<path d="M56.5468 17.8156C56.5468 17.618 56.4882 17.4249 56.3784 17.2606C56.2687 17.0963 56.1127 16.9682 55.9301 16.8925C55.7476 16.8169 55.5467 16.7971 55.3529 16.8355C55.1591 16.874 54.9811 16.9691 54.8413 17.1088C54.7015 17.2485 54.6063 17.4264 54.5676 17.6202C54.529 17.814 54.5487 18.0149 54.6242 18.1975C54.6997 18.3801 54.8276 18.5362 54.9919 18.6461C55.1561 18.756 55.3492 18.8147 55.5468 18.8148C55.8119 18.8148 56.0661 18.7096 56.2536 18.5222C56.4411 18.3349 56.5466 18.0807 56.5468 17.8156Z" fill="#968B82"/>
<path d="M58.2423 19.5401C58.2423 19.7376 58.3009 19.9308 58.4106 20.095C58.5204 20.2593 58.6763 20.3874 58.8588 20.463C59.0413 20.5386 59.2422 20.5585 59.4359 20.52C59.6297 20.4815 59.8077 20.3865 59.9475 20.2469C60.0872 20.1072 60.1825 19.9293 60.2211 19.7356C60.2598 19.5418 60.2401 19.341 60.1647 19.1584C60.0892 18.9758 59.9613 18.8197 59.7971 18.7098C59.6329 18.6 59.4399 18.5412 59.2423 18.541C58.9773 18.541 58.723 18.6462 58.5355 18.8336C58.348 19.0209 58.2426 19.275 58.2423 19.5401Z" fill="#968B82"/>
<path d="M23.6857 62.1875H23.671C23.4237 62.19 23.1871 62.2892 23.0119 62.4638C22.8368 62.6384 22.7368 62.8747 22.7335 63.122C22.7057 65.1489 21.8944 67.0862 20.4697 68.5281C19.0449 69.9699 17.1174 70.8043 15.091 70.8564C14.9714 70.8556 14.8528 70.8786 14.7421 70.9242C14.6315 70.9698 14.531 71.0369 14.4466 71.1218C14.3622 71.2066 14.2956 71.3074 14.2506 71.4183C14.2057 71.5292 14.1833 71.648 14.1848 71.7676C14.1862 71.8873 14.2116 72.0055 14.2592 72.1152C14.3069 72.225 14.376 72.3241 14.4625 72.4068C14.5489 72.4896 14.651 72.5543 14.7627 72.5971C14.8745 72.6399 14.9936 72.66 15.1132 72.6562H15.1357C16.372 72.6496 17.5946 72.398 18.7331 71.9161C19.8715 71.4342 20.9032 70.7315 21.7685 69.8486C23.5565 68.0664 24.5761 65.6554 24.6095 63.1311C24.6119 63.0082 24.5898 62.886 24.5445 62.7718C24.4991 62.6575 24.4315 62.5534 24.3455 62.4656C24.2595 62.3777 24.1569 62.3079 24.0436 62.2601C23.9303 62.2124 23.8087 62.1877 23.6857 62.1875Z" fill="#968B82"/>
<path d="M7.7233 69.6002C7.90861 69.6002 8.08976 69.5453 8.24387 69.4424C8.39798 69.3395 8.51814 69.1932 8.58916 69.022C8.66019 68.8509 8.67889 68.6625 8.64292 68.4807C8.60695 68.2989 8.51791 68.1319 8.38705 68.0007C6.92007 66.5254 6.09662 64.5294 6.09662 62.4489C6.09662 60.3684 6.92007 58.3724 8.38705 56.8971C9.11297 56.1686 9.97557 55.5905 10.9254 55.1961C11.8752 54.8017 12.8935 54.5987 13.922 54.5987C14.9504 54.5987 15.9687 54.8017 16.9186 55.1961C17.8684 55.5905 18.731 56.1686 19.4569 56.8971C19.5819 57.0221 19.7033 57.1523 19.8181 57.284C19.9817 57.4713 20.2129 57.5859 20.461 57.6027C20.7091 57.6195 20.9537 57.537 21.141 57.3735C21.3282 57.21 21.4429 56.9787 21.4597 56.7306C21.4765 56.4826 21.394 56.238 21.2305 56.0507C21.0885 55.888 20.9383 55.7273 20.7845 55.5729C19.8844 54.6698 18.8149 53.9532 17.6373 53.4643C16.4597 52.9753 15.1971 52.7236 13.922 52.7236C12.647 52.7236 11.3844 52.9753 10.2068 53.4643C9.02919 53.9532 7.95966 54.6698 7.05955 55.5729C5.24272 57.4001 4.2229 59.8721 4.2229 62.4489C4.2229 65.0256 5.24272 67.4977 7.05955 69.3249C7.14655 69.4123 7.24999 69.4816 7.36391 69.5289C7.47783 69.5761 7.59997 69.6004 7.7233 69.6002Z" fill="#968B82"/>
<path d="M19.8458 51.771C19.602 51.8198 19.3876 51.9634 19.2497 52.1703C19.1118 52.3772 19.0617 52.6305 19.1105 52.8743C19.1593 53.1181 19.303 53.3325 19.5099 53.4704C19.7168 53.6083 19.97 53.6584 20.2138 53.6096C21.6729 53.3176 22.1826 53.8294 22.3499 53.9976C23.3994 55.0496 22.678 57.608 20.4771 60.7788C19.9356 60.4935 19.3125 60.4032 18.7123 60.523C18.1121 60.6428 17.5714 60.9654 17.1808 61.4366C16.7903 61.9079 16.5738 62.4991 16.5676 63.1111C16.5614 63.7231 16.7659 64.3186 17.1468 64.7977C17.0016 64.9482 16.856 65.0988 16.7093 65.2461C13.0515 68.9127 9.07833 71.3761 6.82239 71.3763C6.24802 71.3763 5.81349 71.2201 5.49427 70.9007C4.98942 70.3946 4.88614 69.5552 5.18708 68.406C5.21828 68.2869 5.22571 68.1628 5.20896 68.0408C5.19221 67.9189 5.15159 67.8014 5.08943 67.6951C5.02728 67.5888 4.94479 67.4958 4.8467 67.4214C4.7486 67.347 4.63681 67.2927 4.51771 67.2615C4.3986 67.2303 4.27452 67.2228 4.15254 67.2396C4.03057 67.2563 3.91309 67.2969 3.80681 67.3591C3.70053 67.4213 3.60753 67.5037 3.53313 67.6018C3.45873 67.6999 3.40437 67.8117 3.37317 67.9308C2.77333 70.2211 3.47364 71.5302 4.16677 72.2249C4.84614 72.906 5.73958 73.2513 6.82302 73.2513C10.1774 73.2513 14.8151 69.8001 18.0371 66.5704C18.2966 66.3101 18.5527 66.0432 18.8058 65.7744C18.9481 65.7989 19.0921 65.8116 19.2365 65.8126C19.6651 65.8123 20.0874 65.7088 20.4676 65.5109C20.8478 65.313 21.1748 65.0265 21.4209 64.6756C21.667 64.3246 21.825 63.9196 21.8815 63.4947C21.9381 63.0698 21.8915 62.6375 21.7457 62.2344C24.8486 57.9219 25.5379 54.5388 23.6777 52.674C23.044 52.0385 21.8646 51.3669 19.8458 51.771ZM19.2365 63.9376C19.0778 63.9389 18.9224 63.893 18.7899 63.8057C18.6574 63.7185 18.5538 63.5939 18.4923 63.4476C18.4308 63.3014 18.4142 63.1402 18.4445 62.9845C18.4748 62.8288 18.5507 62.6856 18.6626 62.5731C18.7745 62.4607 18.9173 62.384 19.0728 62.3528C19.2283 62.3217 19.3896 62.3375 19.5362 62.3982C19.6827 62.4589 19.8079 62.5619 19.8959 62.6939C19.9838 62.8259 20.0305 62.9811 20.0301 63.1397C20.0302 63.3507 19.9467 63.5531 19.7979 63.7026C19.649 63.8521 19.447 63.9365 19.236 63.9372L19.2365 63.9376Z" fill="#968B82"/>
<path d="M8.1311 64.9431C7.91893 65.0728 7.76695 65.2814 7.70858 65.5231C7.65021 65.7647 7.69023 66.0197 7.81985 66.2319L7.85751 66.2928C7.9221 66.3982 8.00691 66.4899 8.10706 66.5624C8.2072 66.6349 8.32069 66.6869 8.44101 66.7153C8.56132 66.7438 8.68608 66.7482 8.8081 66.7282C8.93012 66.7083 9.04698 66.6644 9.15197 66.5991C9.25697 66.5338 9.348 66.4484 9.41985 66.3478C9.4917 66.2472 9.54293 66.1334 9.5706 66.0129C9.59827 65.8924 9.60184 65.7676 9.58109 65.6457C9.56034 65.5238 9.51568 65.4072 9.4497 65.3027L9.41985 65.2544C9.29023 65.0422 9.08162 64.8902 8.83994 64.8319C8.59825 64.7735 8.34328 64.8135 8.1311 64.9431Z" fill="#968B82"/>
<path d="M67.4337 63.7576C66.6613 64.0727 65.9997 64.6097 65.5326 65.3008C65.0655 65.9919 64.8137 66.806 64.8093 67.6401C64.8048 68.4742 65.0477 69.291 65.5074 69.987C65.9671 70.6831 66.6229 71.2272 67.3918 71.5506C68.1607 71.874 69.0082 71.9621 69.8272 71.8038C70.6462 71.6455 71.3999 71.2479 71.9929 70.6613C72.586 70.0747 72.9917 69.3254 73.1589 68.5081C73.3261 67.6909 73.2472 66.8425 72.9322 66.0701C72.7261 65.5548 72.4197 65.0856 72.0307 64.6898C71.6417 64.294 71.178 63.9793 70.6665 63.7642C70.1549 63.549 69.6057 63.4377 69.0507 63.4365C68.4958 63.4354 67.9461 63.5445 67.4337 63.7576ZM71.1866 68.5701C70.9766 69.0698 70.5998 69.4811 70.1204 69.7341C69.6411 69.9871 69.0888 70.0661 68.5578 69.9576C68.0267 69.8491 67.5498 69.5598 67.2081 69.139C66.8664 68.7182 66.6813 68.192 66.6841 67.65C66.6869 67.1079 66.8776 66.5837 67.2236 66.1665C67.5697 65.7493 68.0497 65.465 68.5818 65.3621C69.114 65.2591 69.6654 65.3438 70.142 65.6018C70.6187 65.8598 70.9912 66.2751 71.196 66.777C71.3132 67.0617 71.3727 67.3669 71.3711 67.6748C71.3695 67.9827 71.3068 68.2872 71.1866 68.5707V68.5701Z" fill="#968B82"/>
<path d="M71.933 60.7504C70.3339 60.0779 68.5511 59.9807 66.8884 60.4753C65.2256 60.9699 63.7858 62.0257 62.8143 63.4629C61.8428 64.9001 61.3996 66.6297 61.5603 68.357C61.7211 70.0843 62.4758 71.7024 63.6958 72.9356C64.9159 74.1688 66.5258 74.9409 68.2513 75.1202C69.9767 75.2994 71.711 74.8749 73.1585 73.9189C74.606 72.9628 75.6773 71.5345 76.1897 69.8771C76.7022 68.2198 76.6241 66.436 75.9688 64.8298C75.5993 63.9168 75.0523 63.0861 74.3596 62.3858C73.6668 61.6856 72.8421 61.1297 71.933 60.7504ZM74.2104 69.8415C73.7062 71.0408 72.8018 72.0281 71.6512 72.6352C70.5007 73.2424 69.1753 73.4319 67.9007 73.1713C66.6261 72.9108 65.4814 72.2163 64.6614 71.2064C63.8415 70.1964 63.3971 68.9334 63.404 67.6325C63.4109 66.3316 63.8686 65.0733 64.6992 64.0721C65.5299 63.0709 66.6819 62.3886 67.9592 62.1416C69.2364 61.8946 70.5598 62.0981 71.7038 62.7174C72.8479 63.3367 73.7417 64.3336 74.2332 65.5381C74.5141 66.2213 74.6568 66.9534 74.6529 67.6921C74.649 68.4308 74.4986 69.1614 74.2104 69.8415Z" fill="#968B82"/>
<path d="M31.5592 9.7347C31.8958 8.85112 31.9928 7.89424 31.8403 6.96108C31.6878 6.02793 31.2913 5.1517 30.6909 4.42125C30.0905 3.69079 29.3076 3.1321 28.4216 2.80183C27.5357 2.47155 26.5781 2.38144 25.6461 2.54064C23.6705 0.859699 22.2105 0.379856 21.3045 1.11861C21.0147 1.3547 20.1326 2.07361 21.362 4.74829C21.4698 4.98267 21.5912 5.22564 21.723 5.47376C21.6523 5.61892 21.5864 5.76782 21.528 5.92157C21.2202 6.73429 21.1142 7.60952 21.2191 8.4722C21.3239 9.33487 21.6364 10.1592 22.1298 10.8746C22.6232 11.59 23.2828 12.175 24.052 12.5795C24.8211 12.9839 25.6769 13.1958 26.5459 13.1969C27.0406 13.1962 27.5327 13.1266 28.0081 12.9899C28.0714 13.0381 28.1347 13.0859 28.1972 13.1317C29.2298 13.8884 30.082 14.2645 30.7723 14.2645C31.1101 14.27 31.4404 14.1651 31.7131 13.9658C32.7633 13.1984 32.2251 11.4163 31.4875 9.91048C31.5119 9.8522 31.5365 9.79423 31.5592 9.7347ZM27.7839 4.56532C28.3973 4.79806 28.9326 5.19905 29.3284 5.72225C29.7242 6.24546 29.9645 6.86967 30.0216 7.52323C30.0787 8.1768 29.9503 8.83322 29.6512 9.41714C29.3522 10.0011 28.8945 10.4888 28.3308 10.8244C27.4115 9.99651 26.5598 9.09651 25.7839 8.13298C25.1057 7.30748 24.4823 6.43849 23.9176 5.53157C24.2461 5.15731 24.6504 4.85725 25.1037 4.65134C25.5571 4.44544 26.0491 4.3384 26.547 4.33736C26.9697 4.33742 27.3889 4.41468 27.7839 4.56532ZM23.6194 3.33314C23.3998 3.47572 23.191 3.63405 22.9944 3.80689C22.8366 3.4685 22.7142 3.11468 22.6292 2.75111C22.9788 2.90974 23.3107 3.10483 23.6194 3.33314ZM23.0584 7.63314C23.4481 8.19142 23.875 8.75814 24.3317 9.31767C24.9098 10.0264 25.5055 10.6902 26.0973 11.2875C25.2216 11.1779 24.4203 10.7393 23.8559 10.0607C23.2916 9.38206 23.0065 8.51421 23.0584 7.63314ZM29.897 12.0189C30.007 11.9313 30.1131 11.8394 30.2151 11.7433C30.2837 11.9399 30.3401 12.1233 30.3781 12.2778C30.2124 12.2019 30.0517 12.1154 29.897 12.0189Z" fill="#968B82"/>
<path d="M20.4823 23.2646C19.0967 23.2646 17.7422 23.6755 16.5901 24.4453C15.438 25.2151 14.5401 26.3093 14.0098 27.5894C13.4796 28.8696 13.3409 30.2782 13.6112 31.6372C13.8815 32.9962 14.5487 34.2445 15.5285 35.2243C16.5083 36.204 17.7566 36.8713 19.1156 37.1416C20.4746 37.4119 21.8832 37.2732 23.1633 36.7429C24.4435 36.2127 25.5376 35.3147 26.3074 34.1626C27.0772 33.0105 27.4881 31.656 27.4881 30.2704C27.4861 28.413 26.7473 26.6323 25.4339 25.3189C24.1205 24.0055 22.3398 23.2667 20.4823 23.2646ZM20.4823 35.4217C19.5403 35.425 18.6153 35.1711 17.807 34.6873H19.6731C19.9218 34.6873 20.1602 34.5885 20.336 34.4127C20.5119 34.2369 20.6106 33.9984 20.6106 33.7498C20.6106 33.5012 20.5119 33.2627 20.336 33.0869C20.1602 32.9111 19.9218 32.8123 19.6731 32.8123H16.0325C16.0236 32.8123 16.0148 32.7679 16.0061 32.7682C15.7904 32.3913 15.6305 31.9852 15.5313 31.5625H18.0555C18.3041 31.5625 18.5426 31.4637 18.7184 31.2879C18.8942 31.1121 18.993 30.8736 18.993 30.625C18.993 30.3763 18.8942 30.1379 18.7184 29.962C18.5426 29.7862 18.3041 29.6875 18.0555 29.6875H15.3794C15.4439 29.149 15.586 28.6227 15.8013 28.125H19.0661C19.3147 28.125 19.5532 28.0262 19.729 27.8504C19.9048 27.6746 20.0036 27.4361 20.0036 27.1875C20.0036 26.9388 19.9048 26.7004 19.729 26.5245C19.5532 26.3487 19.3147 26.25 19.0661 26.25H17.238C18.1227 25.625 19.2523 25.1153 20.482 25.1153C21.8438 25.1228 23.1473 25.669 24.1076 26.6346C25.0679 27.6002 25.6069 28.9067 25.6069 30.2685C25.6069 31.6303 25.0679 32.9368 24.1076 33.9024C23.1473 34.868 21.8438 35.4142 20.482 35.4217H20.4823Z" fill="#968B82"/>
</svg>
