<svg viewBox="0 0 144 144" fill="none" xmlns="http://www.w3.org/2000/svg">
<path d="M30.4616 122.721L25.9082 116.063C25.506 115.509 25.1066 114.955 24.7044 114.401L23.6554 113.034C21.2076 109.849 20.0398 105.863 20.3816 101.86L21.1129 93.254C21.1535 92.7839 21.2664 92.3229 21.4475 91.8871C23.4293 87.1485 26.336 82.8526 29.9976 79.2506C31.309 77.9609 33.0717 77.2334 34.911 77.2228C39.2188 77.1984 43.3593 75.5515 46.5069 72.6103C48.2269 71.0008 50.2935 69.8077 52.5474 69.1231C54.8013 68.4384 57.1823 68.2805 59.5069 68.6615C56.6167 66.3868 53.0075 65.2224 49.3329 65.3792C45.6583 65.5361 42.1614 67.0038 39.4757 69.5165C36.3281 72.4577 32.1876 74.1047 27.8797 74.129C26.0404 74.1396 24.2777 74.8671 22.9663 76.1568C19.3047 79.7589 16.3981 84.0548 14.4163 88.7934C14.2352 89.2291 14.1223 89.6901 14.0816 90.1603L13.3504 98.7665C13.0086 102.769 14.1764 106.755 16.6241 109.941L17.6732 111.307C18.0754 111.862 18.4747 112.416 18.8769 112.97L23.4304 119.627C24.5759 121.302 26.0533 122.724 27.7711 123.805C29.4889 124.885 31.4104 125.601 33.4164 125.909C32.28 124.997 31.2844 123.923 30.4616 122.721Z" fill="#3E61EE" fill-opacity="0.2"/>
<path d="M73.8608 27.6927C74.2247 27.6929 74.5788 27.575 74.8699 27.3567L79.4509 23.9313C79.6304 23.7994 79.7819 23.6332 79.8968 23.4424C80.0117 23.2515 80.0877 23.0399 80.1204 22.8195C80.1531 22.5992 80.1419 22.3746 80.0874 22.1586C80.0328 21.9426 79.9361 21.7396 79.8027 21.5612C79.6693 21.3828 79.5019 21.2326 79.3102 21.1192C79.1184 21.0059 78.9061 20.9316 78.6856 20.9006C78.465 20.8697 78.2404 20.8827 78.0249 20.939C77.8094 20.9953 77.6071 21.0937 77.4298 21.2285L72.8488 24.6538C72.5655 24.8663 72.3562 25.1626 72.2506 25.5007C72.145 25.8387 72.1484 26.2015 72.2604 26.5375C72.3724 26.8735 72.5873 27.1657 72.8746 27.3728C73.162 27.5799 73.5072 27.6913 73.8613 27.6913L73.8608 27.6927Z" fill="#3E61EE"/>
<path d="M60.2777 37.8486C60.6418 37.8485 60.9959 37.73 61.2868 37.5111L67.7775 32.6579C67.957 32.5259 68.1085 32.3597 68.2234 32.1689C68.3383 31.9781 68.4143 31.7664 68.447 31.5461C68.4797 31.3258 68.4685 31.1011 68.414 30.8852C68.3594 30.6692 68.2627 30.4662 68.1293 30.2878C67.9959 30.1094 67.8285 29.9592 67.6368 29.8458C67.445 29.7324 67.2327 29.6581 67.0122 29.6272C66.7916 29.5963 66.567 29.6093 66.3515 29.6656C66.136 29.7218 65.9337 29.8202 65.7564 29.9551L59.2657 34.8083C58.9818 35.0206 58.772 35.317 58.666 35.6553C58.56 35.9937 58.5633 36.3568 58.6754 36.6931C58.7875 37.0295 59.0026 37.322 59.2903 37.5292C59.5781 37.7363 59.9237 37.8476 60.2782 37.8472L60.2777 37.8486Z" fill="#3E61EE"/>
<path d="M40.7611 137.049C49.23 137.058 57.4726 134.316 64.2497 129.238L91.4834 108.875C91.6629 108.743 91.8144 108.577 91.9294 108.386C92.0443 108.196 92.1203 107.984 92.153 107.764C92.1857 107.543 92.1744 107.319 92.1199 107.103C92.0654 106.887 91.9686 106.684 91.8352 106.505C91.7018 106.327 91.5344 106.177 91.3427 106.063C91.151 105.95 90.9387 105.876 90.7181 105.845C90.4975 105.814 90.273 105.827 90.0575 105.883C89.8419 105.939 89.6397 106.038 89.4624 106.172L62.2287 126.535C54.5969 132.241 45.011 134.682 35.5796 133.321C26.1482 131.959 17.6439 126.907 11.9376 119.275C6.23134 111.644 3.79044 102.058 5.15191 92.6262C6.51338 83.1948 11.5657 74.6905 19.1974 68.9842L53.7166 43.1719C54.071 42.9024 54.3046 42.5038 54.3664 42.063C54.4282 41.6221 54.3133 41.1746 54.0467 40.8181C53.7801 40.4615 53.3834 40.2248 52.943 40.1594C52.5026 40.094 52.0542 40.2054 51.6956 40.4691L17.1761 66.2811C-0.181284 79.2594 -3.7436 103.939 9.23468 121.296C12.8988 126.197 17.6576 130.173 23.1313 132.908C28.605 135.644 34.6421 137.062 40.7611 137.049Z" fill="#3E61EE"/>
<path d="M101.799 99.0536C101.667 98.8761 101.5 98.7264 101.31 98.6132C101.119 98.5 100.908 98.4254 100.689 98.3938C100.469 98.3621 100.246 98.374 100.031 98.4287C99.8164 98.4834 99.6145 98.58 99.437 98.7128L95.765 101.46C95.5855 101.592 95.434 101.758 95.3191 101.949C95.2041 102.139 95.1281 102.351 95.0954 102.571C95.0627 102.792 95.074 103.016 95.1285 103.232C95.1831 103.448 95.2798 103.651 95.4132 103.83C95.5466 104.008 95.714 104.158 95.9057 104.272C96.0975 104.385 96.3097 104.459 96.5303 104.49C96.7509 104.521 96.9754 104.508 97.191 104.452C97.4065 104.396 97.6087 104.297 97.786 104.163L101.46 101.416C101.818 101.147 102.055 100.748 102.119 100.305C102.182 99.862 102.068 99.4119 101.799 99.0536Z" fill="#3E61EE"/>
<path d="M109.151 91.4503L105.417 94.242C105.238 94.3739 105.086 94.5401 104.971 94.7309C104.856 94.9217 104.78 95.1334 104.748 95.3537C104.715 95.5741 104.726 95.7987 104.781 96.0147C104.835 96.2306 104.932 96.4337 105.066 96.6121C105.199 96.7904 105.366 96.9406 105.558 97.054C105.75 97.1674 105.962 97.2417 106.183 97.2726C106.403 97.3036 106.628 97.2905 106.843 97.2342C107.059 97.178 107.261 97.0796 107.438 96.9448L111.172 94.1534C111.53 93.8854 111.768 93.4859 111.832 93.043C111.896 92.6 111.781 92.1497 111.513 91.7913C111.245 91.4328 110.846 91.1955 110.403 91.1316C109.96 91.0676 109.509 91.1823 109.151 91.4503Z" fill="#3E61EE"/>
<path d="M122.482 81.4819L118.775 84.2539C118.416 84.5219 118.179 84.9213 118.115 85.3643C118.051 85.8073 118.166 86.2575 118.434 86.616C118.702 86.9744 119.101 87.2118 119.544 87.2757C119.987 87.3397 120.437 87.225 120.796 86.957L124.503 84.1847C124.683 84.0528 124.834 83.8866 124.949 83.6958C125.064 83.505 125.14 83.2933 125.173 83.073C125.205 82.8526 125.194 82.628 125.14 82.412C125.085 82.1961 124.988 81.993 124.855 81.8146C124.722 81.6362 124.554 81.486 124.362 81.3726C124.171 81.2593 123.958 81.185 123.738 81.154C123.517 81.1231 123.293 81.1362 123.077 81.1924C122.862 81.2487 122.659 81.3471 122.482 81.4819Z" fill="#3E61EE"/>
<path d="M109.036 19.9422C109.423 19.9426 109.799 19.8093 110.099 19.5648L116.465 14.3951C116.812 14.113 117.033 13.7044 117.08 13.2592C117.126 12.814 116.993 12.3687 116.711 12.0212C116.429 11.6738 116.02 11.4527 115.575 11.4065C115.13 11.3603 114.685 11.4929 114.337 11.775L107.971 16.9449C107.701 17.1648 107.505 17.4631 107.41 17.7988C107.316 18.1344 107.328 18.4911 107.445 18.8196C107.562 19.1482 107.777 19.4325 108.062 19.6335C108.347 19.8345 108.687 19.9424 109.036 19.9422H109.036Z" fill="#3E61EE"/>
<path d="M88.6889 36.4665C89.076 36.4667 89.4514 36.3333 89.7515 36.0888L101.326 26.6902C101.672 26.4075 101.892 25.9993 101.937 25.5551C101.982 25.1108 101.85 24.6666 101.568 24.32C101.287 23.9733 100.879 23.7524 100.435 23.7056C99.9908 23.6588 99.5463 23.79 99.1987 24.0704L87.6238 33.4684C87.3531 33.6882 87.1571 33.9865 87.0628 34.3223C86.9685 34.658 86.9806 35.0148 87.0974 35.3434C87.2142 35.672 87.4299 35.9564 87.7149 36.1574C87.9999 36.3584 88.3402 36.4662 88.6889 36.4659V36.4665Z" fill="#3E61EE"/>
<path d="M70.2781 51.4183C70.6653 51.4187 71.0408 51.2853 71.341 51.0409L79.7161 44.2405C80.0618 43.9578 80.2814 43.5496 80.3267 43.1054C80.372 42.6611 80.2394 42.2169 79.9579 41.8703C79.6763 41.5236 79.2688 41.3027 78.8247 41.2559C78.3806 41.2091 77.936 41.3403 77.5884 41.6207L69.2133 48.4222C68.9427 48.642 68.7468 48.9403 68.6526 49.276C68.5584 49.6117 68.5705 49.9683 68.6872 50.2968C68.8039 50.6254 69.0196 50.9097 69.3044 51.1107C69.5893 51.3118 69.9295 51.4196 70.2781 51.4194V51.4183Z" fill="#3E61EE"/>
<path d="M58.534 60.9561C58.9212 60.9565 59.2966 60.8231 59.5968 60.5787L64.7325 56.408C65.0782 56.1253 65.2978 55.7171 65.3431 55.2728C65.3885 54.8285 65.2558 54.3844 64.9743 54.0377C64.6927 53.6911 64.2853 53.4701 63.8411 53.4234C63.397 53.3766 62.9524 53.5078 62.6048 53.7882L57.4692 57.9588C57.1986 58.1787 57.0027 58.4769 56.9085 58.8126C56.8143 59.1483 56.8263 59.505 56.9431 59.8335C57.0598 60.1621 57.2754 60.4464 57.5603 60.6474C57.8452 60.8484 58.1853 60.9563 58.534 60.9561Z" fill="#3E61EE"/>
<path d="M131.211 50.0871C131.608 50.0875 131.993 49.9471 132.296 49.6909L140.269 42.9825C140.441 42.8407 140.584 42.6661 140.688 42.4689C140.793 42.2716 140.857 42.0556 140.877 41.8333C140.898 41.6111 140.874 41.387 140.807 41.174C140.74 40.961 140.632 40.7634 140.488 40.5927C140.344 40.4219 140.168 40.2813 139.97 40.1791C139.771 40.0769 139.554 40.015 139.332 39.9971C139.11 39.9792 138.886 40.0057 138.674 40.0749C138.461 40.1441 138.265 40.2547 138.096 40.4003L130.123 47.1095C129.859 47.3324 129.669 47.6314 129.579 47.9659C129.49 48.3005 129.506 48.6543 129.625 48.9795C129.744 49.3047 129.959 49.5856 130.243 49.7839C130.527 49.9822 130.865 50.0885 131.211 50.0883V50.0871Z" fill="#3E61EE"/>
<path d="M122.164 53.8065L102.549 70.3125C102.213 70.6024 102.004 71.0133 101.968 71.4561C101.933 71.899 102.073 72.338 102.359 72.6779C102.645 73.0178 103.054 73.2312 103.496 73.2718C103.939 73.3124 104.379 73.1769 104.722 72.8947L124.336 56.3903C124.679 56.1022 124.893 55.6898 124.931 55.2439C124.97 54.798 124.829 54.3551 124.541 54.0127C124.253 53.6702 123.841 53.4562 123.395 53.4178C122.949 53.3794 122.506 53.5198 122.164 53.8079V53.8065Z" fill="#3E61EE"/>
<path d="M82.6587 90.9405C83.0561 90.9409 83.4407 90.8005 83.7444 90.5442L95.9337 80.2893C96.1033 80.1466 96.2431 79.9719 96.3452 79.7752C96.4472 79.5785 96.5095 79.3636 96.5286 79.1428C96.5476 78.922 96.5229 78.6997 96.456 78.4884C96.3891 78.2772 96.2812 78.0811 96.1385 77.9116C95.9958 77.742 95.8211 77.6022 95.6244 77.5002C95.4277 77.3981 95.2128 77.3358 94.9921 77.3168C94.7713 77.2978 94.5489 77.3224 94.3376 77.3893C94.1264 77.4563 93.9304 77.5641 93.7608 77.7068L81.5737 87.9618C81.3088 88.1846 81.1189 88.4836 81.0297 88.8181C80.9404 89.1526 80.9563 89.5064 81.075 89.8316C81.1937 90.1568 81.4095 90.4376 81.6932 90.636C81.977 90.8343 82.3148 90.9406 82.661 90.9405H82.6587Z" fill="#3E61EE"/>
<path d="M139.866 16.9269L116.193 35.4959C116.017 35.6322 115.87 35.8019 115.76 35.9952C115.651 36.1885 115.58 36.4016 115.553 36.6223C115.526 36.843 115.542 37.0669 115.602 37.2811C115.661 37.4953 115.763 37.6956 115.9 37.8705C116.037 38.0455 116.208 38.1915 116.401 38.3004C116.595 38.4092 116.809 38.4787 117.03 38.5048C117.25 38.5308 117.474 38.513 117.688 38.4523C117.902 38.3917 118.102 38.2893 118.276 38.1511L141.947 19.5822C142.124 19.4464 142.273 19.2768 142.384 19.0833C142.495 18.8897 142.567 18.676 142.595 18.4546C142.623 18.2331 142.607 18.0083 142.547 17.7932C142.488 17.578 142.386 17.3768 142.248 17.2011C142.11 17.0255 141.939 16.879 141.744 16.77C141.55 16.661 141.335 16.5917 141.113 16.5662C140.892 16.5407 140.667 16.5595 140.452 16.6214C140.238 16.6833 140.038 16.7871 139.864 16.9269H139.866Z" fill="#3E61EE"/>
<path d="M102.308 48.5316C102.445 48.706 102.615 48.8517 102.808 48.9604C103.001 49.0692 103.213 49.1388 103.433 49.1654C103.653 49.192 103.876 49.175 104.09 49.1154C104.303 49.0558 104.503 48.9547 104.677 48.8179L108.368 45.923C108.542 45.7862 108.688 45.6165 108.797 45.4234C108.905 45.2303 108.975 45.0177 109.002 44.7977C109.028 44.5777 109.011 44.3546 108.952 44.1411C108.892 43.9277 108.791 43.7281 108.654 43.5537C108.517 43.3794 108.348 43.2337 108.154 43.1249C107.961 43.0161 107.749 42.9465 107.529 42.9199C107.309 42.8933 107.086 42.9103 106.872 42.97C106.659 43.0296 106.459 43.1307 106.285 43.2674L102.594 46.1623C102.42 46.2991 102.274 46.4689 102.165 46.662C102.057 46.855 101.987 47.0677 101.96 47.2877C101.934 47.5077 101.951 47.7308 102.01 47.9442C102.07 48.1576 102.171 48.3572 102.308 48.5316Z" fill="#3E61EE"/>
<path d="M83.3502 65.0919C83.7276 65.0923 84.0942 64.9654 84.3908 64.7319L94.6126 56.714C94.7869 56.5772 94.9326 56.4075 95.0414 56.2144C95.1502 56.0213 95.2198 55.8087 95.2464 55.5887C95.273 55.3687 95.256 55.1456 95.1963 54.9322C95.1367 54.7187 95.0356 54.5191 94.8989 54.3448C94.7621 54.1704 94.5923 54.0247 94.3992 53.9159C94.2062 53.8072 93.9935 53.7375 93.7735 53.7109C93.5535 53.6843 93.3304 53.7013 93.117 53.761C92.9036 53.8206 92.704 53.9217 92.5296 54.0584L82.3081 62.0766C82.0318 62.2933 81.83 62.5908 81.7308 62.9277C81.6316 63.2646 81.64 63.624 81.7548 63.9558C81.8695 64.2877 82.0849 64.5755 82.371 64.7792C82.6571 64.9828 82.9996 65.0921 83.3507 65.0919H83.3502Z" fill="#3E61EE"/>
<path d="M13.2792 53.7493C15.0385 53.7493 16.4646 52.3231 16.4646 50.5639C16.4646 48.8046 15.0385 47.3784 13.2792 47.3784C11.5199 47.3784 10.0938 48.8046 10.0938 50.5639C10.0938 52.3231 11.5199 53.7493 13.2792 53.7493Z" fill="#3E61EE"/>
<path d="M21.3686 47.458C21.8209 47.458 22.2631 47.3239 22.6392 47.0727C23.0153 46.8215 23.3084 46.4643 23.4816 46.0465C23.6547 45.6286 23.7 45.1688 23.6118 44.7252C23.5236 44.2815 23.3058 43.874 22.986 43.5542C22.6662 43.2343 22.2587 43.0165 21.8151 42.9282C21.3715 42.84 20.9117 42.8852 20.4938 43.0583C20.0759 43.2314 19.7187 43.5245 19.4675 43.9006C19.2162 44.2767 19.082 44.7188 19.082 45.1711C19.0828 45.7774 19.3239 46.3585 19.7526 46.7872C20.1812 47.2159 20.7624 47.4571 21.3686 47.458Z" fill="#3E61EE"/>
<path d="M100.462 119.66C101.092 119.66 101.708 119.473 102.232 119.123C102.755 118.773 103.164 118.276 103.405 117.694C103.646 117.111 103.709 116.471 103.586 115.853C103.463 115.235 103.16 114.668 102.714 114.222C102.269 113.777 101.701 113.473 101.083 113.35C100.465 113.227 99.8249 113.29 99.2428 113.532C98.6607 113.773 98.1632 114.181 97.8132 114.705C97.4632 115.229 97.2764 115.844 97.2764 116.475C97.2773 117.319 97.6133 118.129 98.2104 118.726C98.8076 119.323 99.6173 119.659 100.462 119.66Z" fill="#3E61EE"/>
<path d="M108.25 113.368C109.347 113.368 110.237 112.478 110.237 111.381C110.237 110.284 109.347 109.394 108.25 109.394C107.152 109.394 106.263 110.284 106.263 111.381C106.263 112.478 107.152 113.368 108.25 113.368Z" fill="#3E61EE"/>
<path d="M93.5719 16.5998C94.0837 16.5998 94.584 16.448 95.0095 16.1636C95.4351 15.8793 95.7667 15.4751 95.9625 15.0022C96.1583 14.5293 96.2095 14.009 96.1095 13.507C96.0096 13.005 95.763 12.544 95.401 12.1822C95.039 11.8204 94.5778 11.574 94.0758 11.4744C93.5738 11.3747 93.0535 11.4261 92.5807 11.6222C92.1079 11.8182 91.7039 12.1501 91.4198 12.5758C91.1356 13.0015 90.9841 13.5019 90.9844 14.0137C90.9852 14.6996 91.2581 15.3571 91.7432 15.8419C92.2283 16.3268 92.886 16.5994 93.5719 16.5998Z" fill="#3E61EE"/>
<path d="M101.359 10.9077C101.752 10.9077 102.136 10.7911 102.463 10.5728C102.79 10.3544 103.044 10.0441 103.195 9.68103C103.345 9.31795 103.385 8.91842 103.308 8.53298C103.231 8.14753 103.042 7.79347 102.764 7.51558C102.486 7.23769 102.132 7.04844 101.747 6.97177C101.361 6.8951 100.962 6.93445 100.599 7.08485C100.236 7.23524 99.9253 7.48993 99.7069 7.81669C99.4886 8.14346 99.3721 8.52763 99.3721 8.92063C99.3727 9.44744 99.5822 9.9525 99.9547 10.325C100.327 10.6975 100.832 10.9071 101.359 10.9077Z" fill="#3E61EE"/>
<path d="M16.3198 112.316L17.4985 113.942L22.0362 120.579C23.5411 122.798 25.5669 124.615 27.9365 125.87C30.3061 127.125 32.9471 127.78 35.6285 127.777C36.397 127.777 37.1647 127.724 37.926 127.619C37.9796 127.612 38.0327 127.602 38.0852 127.589L38.1234 127.58C38.1547 127.572 38.1856 127.563 38.2162 127.553L40.4336 126.844C42.2646 126.257 43.711 125.734 44.9873 125.272C48.5716 123.974 50.3705 123.322 54.6446 123.575C55.6716 123.637 56.699 123.464 57.6492 123.069C58.5994 122.675 59.4474 122.069 60.129 121.299C61.3569 119.926 62.8859 118.856 64.5964 118.173L66.1621 117.551C69.2966 116.303 71.9287 114.051 73.6461 111.148L75.7206 107.639C76.638 106.124 77.0869 104.372 77.0107 102.602C76.9346 100.833 76.3369 99.1255 75.2929 97.6949L71.5508 92.5531L67.0438 79.5331L66.98 78.94C66.6407 75.7833 65.4286 72.7835 63.4798 70.2772C61.5309 67.7708 58.9223 65.857 55.9465 64.7504C52.9708 63.6437 49.7456 63.388 46.6326 64.0119C43.5196 64.6358 40.642 66.1147 38.3226 68.2826C35.4882 70.9375 31.7551 72.4231 27.8716 72.4414C25.5915 72.449 23.4054 73.3507 21.7831 74.953C17.9571 78.7092 14.9231 83.1945 12.8607 88.1436C12.6111 88.7407 12.4561 89.373 12.4012 90.0179L11.6679 98.6241C11.2873 103.047 12.5779 107.452 15.2851 110.971L16.3198 112.316ZM15.0308 98.9093L15.7641 90.3031C15.7891 90.0076 15.8602 89.7179 15.9747 89.4444C17.8645 84.9103 20.6444 80.8013 24.1498 77.3602C25.1464 76.3756 26.4895 75.8214 27.8904 75.8167C32.6241 75.795 37.1746 73.9845 40.6294 70.7483C42.4907 69.0084 44.7999 67.8216 47.2981 67.3208C49.7963 66.8201 52.3845 67.0253 54.7726 67.9134C57.1607 68.8015 59.2541 70.3374 60.818 72.3488C62.3819 74.3602 63.3545 76.7676 63.6266 79.3008L63.711 80.0883C63.7257 80.2149 63.754 80.3396 63.7954 80.4601L68.4441 93.8895C68.5004 94.0502 68.5797 94.2018 68.6796 94.3396L72.565 99.6805C73.2184 100.577 73.5918 101.647 73.638 102.755C73.6842 103.863 73.4011 104.96 72.8246 105.908L70.742 109.429C69.4049 111.69 67.3557 113.443 64.9156 114.414L63.3496 115.037C61.1528 115.915 59.189 117.288 57.6121 119.052C57.2686 119.442 56.8408 119.748 56.3611 119.948C55.8813 120.149 55.3623 120.237 54.8435 120.206C49.8749 119.913 47.603 120.735 43.8382 122.098C42.59 122.55 41.175 123.062 39.4042 123.629L37.3267 124.294C34.9264 124.608 32.486 124.249 30.278 123.257C28.0699 122.265 26.1811 120.678 24.8223 118.675L20.2714 112.018L20.2447 111.979L19.0384 110.316L19.0103 110.278L17.9618 108.913C15.7681 106.062 14.7224 102.493 15.0308 98.9093Z" fill="#968B82"/>
<path d="M55.9833 85.6499C57.1599 85.6504 58.3141 85.3286 59.3207 84.7195C59.701 84.4869 59.9739 84.1133 60.0797 83.6802C60.1854 83.247 60.1155 82.7897 59.8851 82.4079C59.6548 82.0262 59.2827 81.7512 58.8502 81.6429C58.4177 81.5346 57.96 81.6018 57.5769 81.83C56.872 82.2554 56.027 82.3833 55.2278 82.1857C54.4285 81.988 53.7405 81.481 53.3151 80.7761C52.8897 80.0712 52.7618 79.2262 52.9594 78.427C53.157 77.6277 53.6641 76.9397 54.369 76.5143C54.5601 76.4005 54.7268 76.25 54.8596 76.0716C54.9923 75.8931 55.0885 75.6901 55.1425 75.4744C55.1965 75.2586 55.2074 75.0343 55.1744 74.8143C55.1414 74.5943 55.0653 74.383 54.9503 74.1926C54.8354 74.0021 54.684 73.8363 54.5047 73.7046C54.3255 73.5729 54.122 73.4779 53.9059 73.4251C53.6898 73.3724 53.4654 73.3628 53.2456 73.3971C53.0258 73.4314 52.815 73.5087 52.6252 73.6248C51.4126 74.3565 50.4732 75.4655 49.9508 76.7819C49.4285 78.0983 49.3519 79.5497 49.733 80.9138C50.114 82.2778 50.9316 83.4794 52.0605 84.3346C53.1895 85.1898 54.5676 85.6514 55.9839 85.6488L55.9833 85.6499Z" fill="#968B82"/>
<path d="M57.9727 101.778C58.0373 103.451 58.7469 105.034 59.9529 106.195C61.1588 107.356 62.7674 108.006 64.4415 108.007C64.5258 108.007 64.6119 108.006 64.6974 108.002C64.9193 107.994 65.1375 107.943 65.3395 107.85C65.5415 107.758 65.7232 107.627 65.8743 107.464C66.0255 107.301 66.143 107.11 66.2202 106.902C66.2973 106.694 66.3326 106.473 66.3241 106.251C66.3155 106.029 66.2632 105.811 66.1702 105.609C66.0772 105.407 65.9453 105.226 65.7821 105.075C65.6189 104.925 65.4276 104.808 65.2191 104.731C65.0106 104.655 64.7891 104.62 64.5672 104.63C63.7483 104.655 62.9525 104.356 62.3533 103.797C61.7542 103.239 61.4002 102.466 61.3686 101.647C61.337 100.828 61.6304 100.03 62.1847 99.4272C62.7391 98.8239 63.5094 98.4643 64.3278 98.4267C64.5499 98.4191 64.7683 98.3677 64.9704 98.2754C65.1726 98.1832 65.3545 98.0519 65.5058 97.8892C65.6571 97.7265 65.7747 97.5355 65.852 97.3272C65.9293 97.1188 65.9647 96.8973 65.9561 96.6753C65.9476 96.4532 65.8952 96.2351 65.8022 96.0333C65.7091 95.8316 65.5771 95.6502 65.4137 95.4996C65.2504 95.3489 65.0589 95.2321 64.8502 95.1557C64.6416 95.0793 64.4199 95.0448 64.1979 95.0543C63.3477 95.0871 62.5123 95.287 61.7394 95.6426C60.9665 95.9983 60.2712 96.5027 59.6932 97.1271C59.1152 97.7514 58.6658 98.4835 58.3708 99.2816C58.0757 100.08 57.9408 100.928 57.9736 101.778H57.9727Z" fill="#968B82"/>
<path d="M35.237 89.0081C35.3783 89.0203 35.519 89.0263 35.6588 89.0261C36.8804 89.0239 38.0567 88.5639 38.9556 87.7368C39.8545 86.9097 40.4107 85.7756 40.5143 84.5585C40.5331 84.3377 40.5083 84.1153 40.4412 83.9041C40.3741 83.6929 40.266 83.497 40.1232 83.3275C39.9803 83.1581 39.8055 83.0185 39.6087 82.9166C39.4119 82.8147 39.197 82.7526 38.9762 82.7337C38.7554 82.7149 38.533 82.7398 38.3218 82.8069C38.1106 82.874 37.9147 82.9821 37.7452 83.1249C37.5758 83.2677 37.4361 83.4425 37.3342 83.6393C37.2324 83.8361 37.1702 84.0511 37.1514 84.2719C37.1144 84.6676 36.9226 85.0326 36.6177 85.2876C36.3127 85.5425 35.9195 85.6666 35.5235 85.6328C35.1275 85.5991 34.7609 85.4103 34.5034 85.1075C34.246 84.8047 34.1186 84.4125 34.1491 84.0162C34.1679 83.7954 34.143 83.5731 34.0759 83.3619C34.0087 83.1507 33.9007 82.9548 33.7578 82.7853C33.615 82.6159 33.4402 82.4763 33.2433 82.3744C33.0465 82.2725 32.8316 82.2104 32.6108 82.1916C32.39 82.1728 32.1676 82.1977 31.9564 82.2648C31.7452 82.332 31.5493 82.44 31.3799 82.5829C31.2105 82.7257 31.0708 82.9006 30.9689 83.0974C30.8671 83.2942 30.805 83.5091 30.7862 83.7299C30.6763 85.0199 31.0834 86.3007 31.9179 87.2906C32.7523 88.2804 33.9458 88.8982 35.2358 89.0081H35.237Z" fill="#968B82"/>
<path d="M37.2958 98.3884C36.9369 99.6324 37.0868 100.968 37.7126 102.101C38.3383 103.235 39.3887 104.073 40.6326 104.432C40.8462 104.496 41.0704 104.517 41.2921 104.494C41.5139 104.47 41.7288 104.403 41.9245 104.297C42.1202 104.19 42.2928 104.045 42.4323 103.871C42.5718 103.697 42.6755 103.498 42.7373 103.283C42.7991 103.069 42.8179 102.845 42.7925 102.623C42.7671 102.402 42.6981 102.187 42.5894 101.993C42.4807 101.798 42.3345 101.627 42.1592 101.489C41.9839 101.351 41.7831 101.249 41.5683 101.19C41.1844 101.079 40.8602 100.82 40.6671 100.47C40.4739 100.12 40.4277 99.7082 40.5385 99.3243C40.6493 98.9404 40.9081 98.6162 41.2579 98.4231C41.6077 98.23 42.02 98.1837 42.4039 98.2945C42.8339 98.4186 43.2956 98.3668 43.6875 98.1505C44.0793 97.9342 44.3692 97.5711 44.4933 97.1411C44.6174 96.7111 44.5656 96.2494 44.3493 95.8575C44.133 95.4657 43.7699 95.1758 43.3399 95.0517C42.0959 94.6928 40.7603 94.8427 39.6269 95.4684C38.4934 96.0942 37.6549 97.1445 37.2958 98.3884Z" fill="#968B82"/>
<path d="M23.7394 98.6245C24.8648 99.2642 26.1981 99.431 27.4465 99.0883C28.6948 98.7455 29.756 97.9211 30.3968 96.7963C30.6182 96.4074 30.676 95.9464 30.5576 95.5148C30.4391 95.0833 30.154 94.7164 29.765 94.495C29.5724 94.3854 29.3601 94.3148 29.1402 94.2872C28.9204 94.2596 28.6972 94.2756 28.4835 94.3343C28.0519 94.4528 27.6851 94.7379 27.4637 95.1269C27.3665 95.3002 27.2361 95.4526 27.0798 95.5753C26.9235 95.698 26.7445 95.7886 26.5531 95.8418C26.3616 95.895 26.1615 95.9099 25.9643 95.8855C25.7672 95.8611 25.5767 95.7979 25.404 95.6996C25.2314 95.6013 25.0798 95.4699 24.9582 95.3128C24.8365 95.1557 24.7471 94.976 24.6952 94.7843C24.6432 94.5925 24.6297 94.3923 24.6554 94.1953C24.6811 93.9983 24.7455 93.8083 24.845 93.6362C24.9546 93.4436 25.0252 93.2313 25.0528 93.0114C25.0804 92.7915 25.0644 92.5684 25.0058 92.3547C24.9471 92.141 24.8469 91.9409 24.711 91.7659C24.575 91.5909 24.4059 91.4444 24.2133 91.3348C24.0207 91.2251 23.8084 91.1545 23.5885 91.1269C23.3686 91.0993 23.1454 91.1153 22.9317 91.174C22.718 91.2326 22.5179 91.3328 22.343 91.4688C22.168 91.6047 22.0215 91.7739 21.9118 91.9665C21.2727 93.092 21.1061 94.4252 21.4487 95.6734C21.7914 96.9216 22.6152 97.9829 23.7394 98.6245Z" fill="#968B82"/>
<path d="M31.6737 109.726C31.2848 109.504 30.8239 109.446 30.3923 109.565C29.9608 109.683 29.594 109.968 29.3726 110.357C29.2747 110.529 29.1439 110.68 28.9877 110.802C28.8314 110.923 28.6528 111.013 28.462 111.065C28.0766 111.171 27.665 111.119 27.3177 110.921C26.9704 110.724 26.7159 110.396 26.6101 110.011C26.5043 109.626 26.5559 109.214 26.7536 108.867C26.8699 108.674 26.9465 108.46 26.9789 108.237C27.0112 108.014 26.9986 107.787 26.9417 107.569C26.8849 107.351 26.7851 107.147 26.6481 106.968C26.5111 106.789 26.3397 106.64 26.144 106.528C25.9483 106.417 25.7323 106.346 25.5087 106.319C25.285 106.292 25.0584 106.311 24.8419 106.373C24.6255 106.435 24.4238 106.54 24.2486 106.682C24.0734 106.823 23.9283 106.998 23.8218 107.197C23.1813 108.322 23.014 109.656 23.3568 110.904C23.6995 112.153 24.5242 113.214 25.6494 113.854C26.7746 114.495 28.1081 114.662 29.3566 114.319C30.6051 113.977 31.6664 113.152 32.3068 112.027C32.4164 111.834 32.4869 111.622 32.5144 111.402C32.5418 111.182 32.5257 110.959 32.4669 110.745C32.4081 110.531 32.3078 110.331 32.1717 110.156C32.0356 109.981 31.8664 109.835 31.6737 109.726Z" fill="#968B82"/>
<path d="M47.7057 115.978C48.1392 116.1 48.5875 116.163 49.038 116.163C50.1004 116.16 51.133 115.811 51.9794 115.169C52.8259 114.527 53.4401 113.627 53.7292 112.604C53.7894 112.391 53.8069 112.168 53.7809 111.948C53.7548 111.728 53.6857 111.515 53.5774 111.322C53.4691 111.128 53.3238 110.958 53.1497 110.821C52.9757 110.684 52.7763 110.582 52.563 110.522C52.1323 110.401 51.6709 110.455 51.2804 110.674C51.087 110.782 50.9169 110.928 50.7797 111.102C50.6425 111.276 50.5409 111.475 50.4808 111.688C50.3723 112.073 50.1155 112.399 49.7668 112.594C49.4181 112.789 49.0062 112.838 48.6216 112.729C48.237 112.621 47.9112 112.364 47.716 112.015C47.5208 111.667 47.472 111.255 47.5805 110.87C47.6431 110.656 47.6625 110.432 47.6379 110.21C47.6132 109.989 47.5449 109.774 47.4369 109.579C47.3289 109.384 47.1833 109.213 47.0085 109.074C46.8338 108.936 46.6333 108.833 46.4188 108.773C46.2042 108.712 45.9798 108.695 45.7585 108.722C45.5371 108.748 45.3233 108.819 45.1293 108.929C44.9353 109.038 44.765 109.186 44.6282 109.362C44.4914 109.538 44.3909 109.739 44.3324 109.954C43.9825 111.2 44.1411 112.534 44.7735 113.663C45.4059 114.793 46.4604 115.625 47.7057 115.978Z" fill="#968B82"/>
</svg>
