<svg viewBox="0 0 144 144" fill="none" xmlns="http://www.w3.org/2000/svg">
<path d="M45.3035 49.0416C35.3301 49.0361 25.7141 52.7553 18.3399 59.4703C10.9657 66.1854 6.36494 75.4121 5.43914 85.3425C5.32664 86.5716 5.26945 87.8166 5.26758 89.0775C5.266 96.5349 7.34744 103.845 11.2773 110.183C15.2071 116.52 20.8292 121.635 27.5097 124.949C23.1715 121.195 19.6929 116.55 17.3108 111.33C14.9287 106.111 13.6989 100.44 13.7051 94.7025C13.7051 93.4425 13.7623 92.1975 13.8766 90.9675L14.0434 89.4912C14.87 83.2012 17.1789 77.1976 20.7801 71.9747C24.3814 66.7519 29.1718 62.4592 34.7569 59.4503L35.1645 59.2284C40.6074 56.3842 46.6307 54.8276 52.7702 54.6784C58.9096 54.5292 65.0014 55.7916 70.5761 58.3681L70.7313 58.1512C63.5734 52.2488 54.5812 49.0273 45.3035 49.0416ZM33.1141 58.3031C33.1653 58.3329 33.2126 58.3622 33.2579 58.3911C33.2098 58.3622 33.1628 58.3312 33.1141 58.3031Z" fill="#3E61EE" fill-opacity="0.2"/>
<path d="M45.3041 47.3535C22.2978 47.3535 3.58008 66.0707 3.58008 89.0778C3.58008 112.085 22.2973 130.802 45.3041 130.802C68.3109 130.802 87.0286 112.084 87.0286 89.0778C87.0286 66.0713 68.3112 47.3535 45.3041 47.3535ZM26.5934 55.6138L30.903 58.8547C31.3386 59.1814 31.7926 59.4831 32.2625 59.7583C33.6276 60.5601 34.8026 61.6482 35.7067 62.9477L38.4227 66.865C38.7365 67.3149 38.8983 67.8534 38.8845 68.4018C38.8707 68.9502 38.682 69.4798 38.346 69.9134L37.086 71.548C36.9568 71.7152 36.7863 71.8457 36.5913 71.9267C36.3962 72.0078 36.1834 72.0365 35.9739 72.0101L34.544 71.827C33.2072 71.6553 31.8495 71.8819 30.641 72.4785C29.4324 73.0752 28.4269 74.0153 27.7504 75.181C27.62 75.3873 27.4324 75.5514 27.2106 75.6534C26.9888 75.7554 26.7421 75.7909 26.5005 75.7555L23.2319 75.3401C21.9388 75.1719 20.6245 75.3673 19.4363 75.9043C18.2481 76.4413 17.233 77.2988 16.5049 78.3805C15.8028 79.4164 15.4185 80.6348 15.3992 81.8862C15.3798 83.1375 15.7263 84.3672 16.3961 85.4244L18.576 88.8666C19.404 90.1638 20.6902 91.1015 22.1784 91.493C23.6667 91.8844 25.2478 91.7009 26.6069 90.979L28.8512 89.7767C29.2233 89.5787 29.6402 89.4801 30.0615 89.4903C30.4828 89.5005 30.8944 89.6192 31.2565 89.8349L35.5157 92.3906C35.9613 92.6578 36.4738 92.7926 36.9931 92.7793H37.0874C37.7758 92.802 38.4489 92.9878 39.0515 93.3214C39.654 93.6551 40.1687 94.1271 40.5532 94.6986L42.6367 97.603C42.81 97.8446 42.995 98.0812 43.1868 98.3062L45.7181 101.283L41.8259 104.272C40.4517 105.323 39.4405 106.778 38.9338 108.432L37.5573 112.897C37.514 113.038 37.4429 113.17 37.3481 113.284L36.0085 114.895C35.085 115.995 34.4244 117.291 34.0771 118.685L33.174 113.266C32.9713 112.057 32.4771 110.914 31.734 109.938L27.1095 103.875C26.8231 103.501 26.6116 103.075 26.4865 102.621L24.9604 97.1156C24.6124 95.8722 23.9487 94.7398 23.0337 93.8287C22.1187 92.9175 20.9837 92.2585 19.7387 91.9156L19.4069 91.8245C18.9997 91.7132 18.626 91.5038 18.3184 91.2147L15.4722 88.5358C15.1389 88.2228 14.8525 87.8634 14.6217 87.4688C13.8874 86.2086 12.8243 85.1717 11.5462 84.4692C10.268 83.7666 8.82288 83.4248 7.36542 83.4804C8.23047 77.6758 10.4131 72.1465 13.7461 67.3161C17.079 62.4858 21.4738 58.4827 26.5934 55.6138ZM45.3041 127.427C24.1586 127.427 6.95508 110.224 6.95508 89.0778C6.95508 88.3465 6.97758 87.6209 7.01808 86.9001C7.93692 86.768 8.87427 86.9135 9.70978 87.3181C10.5453 87.7226 11.2408 88.3676 11.7071 89.1703C12.1008 89.8445 12.5893 90.4585 13.1578 90.9937L16.004 93.6726C16.7145 94.3399 17.5774 94.8232 18.5175 95.0805L18.8503 95.1716C19.5315 95.3593 20.1527 95.7199 20.6534 96.2184C21.1542 96.717 21.5175 97.3366 21.708 98.017L23.2338 103.523C23.4739 104.391 23.8787 105.206 24.426 105.922L29.0492 111.984C29.4593 112.523 29.732 113.153 29.8438 113.82L31.1007 121.36C31.2007 122.011 31.531 122.605 32.0316 123.034C32.5321 123.462 33.1698 123.697 33.8288 123.696C34.1943 123.696 34.5561 123.623 34.893 123.482C35.5325 123.215 36.0869 122.778 36.4965 122.219C36.9061 121.66 37.1553 120.999 37.2173 120.309C37.3374 119.108 37.8208 117.972 38.603 117.052L39.9423 115.441C40.3223 114.985 40.6077 114.458 40.7819 113.891L42.1583 109.426C42.4602 108.44 43.0625 107.574 43.881 106.948L47.9757 103.804C48.6172 103.321 49.0486 102.61 49.1805 101.818C49.2516 101.377 49.2262 100.926 49.1061 100.496C48.986 100.066 48.7741 99.6673 48.485 99.3271L45.7583 96.1195C45.6264 95.9642 45.499 95.8011 45.3795 95.6346L43.2957 92.7298C42.6002 91.7236 41.6755 90.8972 40.5978 90.3188C39.5202 89.7403 38.3204 89.4264 37.0975 89.4029L32.9912 86.9409C32.1281 86.4259 31.1468 86.1425 30.1421 86.1178C29.1373 86.0932 28.1433 86.3282 27.256 86.8002L25.013 88.0031C24.4062 88.3255 23.7002 88.4075 23.0357 88.2326C22.3712 88.0578 21.797 87.6391 21.4274 87.0598L19.2474 83.6179C18.9292 83.1158 18.7646 82.5318 18.7737 81.9375C18.7829 81.3432 18.9654 80.7645 19.2989 80.2724C19.6782 79.7083 20.2073 79.2612 20.8268 78.9812C21.4462 78.7012 22.1314 78.5994 22.8055 78.6873L26.0753 79.1027C26.9749 79.2249 27.8905 79.0788 28.7074 78.6829C29.5243 78.2871 30.2063 77.6589 30.6678 76.8772C31.0112 76.2853 31.5216 75.8079 32.1352 75.5049C32.7487 75.202 33.4381 75.0869 34.1168 75.1742L35.547 75.357C36.3405 75.4566 37.1463 75.3476 37.8849 75.0409C38.6236 74.7341 39.2695 74.2401 39.759 73.6076L41.019 71.973C41.794 70.9729 42.2292 69.7514 42.2611 68.4865C42.293 67.2217 41.92 65.9797 41.1964 64.9418L38.4801 61.0245C37.2955 59.3217 35.7558 57.8959 33.9672 56.8454C33.6084 56.6355 33.2619 56.4052 32.9294 56.1558L29.9712 53.9311C36.2059 51.2069 43.0541 50.1935 49.8106 50.9953C56.5671 51.7971 62.9879 54.3852 68.4119 58.493L67.8266 59.3086C65.3298 62.038 63.1287 65.0238 61.2602 68.2164L59.7735 70.758C59.4004 71.4173 59.2418 72.1765 59.3197 72.93C59.3976 73.6836 59.7082 74.3942 60.2084 74.9633C61.0452 75.9203 62.2054 76.5351 63.4672 76.6901L64.1796 76.7779C65.2157 76.9062 66.1923 77.3323 66.991 78.0045C67.7897 78.6767 68.3763 79.5663 68.6796 80.5652C68.9696 81.5271 68.9781 82.5519 68.7039 83.5185C68.4298 84.485 67.8846 85.3528 67.1327 86.0192L60.1226 92.25C59.6052 92.7146 59.193 93.2841 58.9133 93.9207C58.6336 94.5573 58.4929 95.2462 58.5006 95.9414V97.5938C58.491 98.2686 58.6523 98.9348 58.9695 99.5305C59.2867 100.126 59.7494 100.632 60.3147 101.001C60.9504 101.411 61.4846 101.961 61.8767 102.609C62.2689 103.256 62.5089 103.984 62.5784 104.738L62.7326 106.413C62.815 107.306 63.227 108.136 63.8884 108.742C64.5497 109.347 65.4129 109.684 66.3095 109.688H70.4383C71.7992 109.682 73.1292 109.282 74.2666 108.534C75.4039 107.787 76.2996 106.725 76.8446 105.478L77.0924 104.9C77.4665 104.038 78.0734 103.298 78.8451 102.762C79.6167 102.226 80.5225 101.915 81.4607 101.865C78.809 109.337 73.9102 115.804 67.4367 120.381C60.9631 124.957 53.232 127.419 45.3041 127.427ZM82.4988 98.4268C82.4426 98.4322 82.3863 98.4367 82.3301 98.4392L81.3598 98.4834C79.783 98.5489 78.2566 99.0571 76.9553 99.9498C75.6539 100.842 74.6302 102.084 74.0014 103.531L73.7534 104.122C73.472 104.768 73.0091 105.32 72.4207 105.709C71.8322 106.097 71.1436 106.307 70.4383 106.313H66.3095C66.2495 106.308 66.193 106.282 66.1509 106.239C66.1087 106.196 66.0837 106.139 66.0806 106.079L65.9152 104.416C65.8007 103.158 65.4017 101.942 64.7485 100.86C64.0953 99.7785 63.2049 98.8594 62.1445 98.1723C62.0532 98.1076 61.9804 98.0202 61.9332 97.9187C61.8861 97.8173 61.8662 97.7053 61.8756 97.5938V95.9403C61.8679 95.7235 61.907 95.5076 61.99 95.3072C62.0731 95.1067 62.1983 94.9265 62.3571 94.7787L69.3884 88.5488C70.6228 87.453 71.5174 86.0265 71.9664 84.4381C72.4153 82.8497 72.3998 81.166 71.9216 79.5862C71.4272 77.9613 70.4721 76.5148 69.1721 75.4218C67.8722 74.3288 66.2831 73.6363 64.5975 73.4282L63.8826 73.3405C63.4439 73.2868 63.0404 73.0732 62.7495 72.7405C62.7138 72.7014 62.69 72.653 62.6806 72.6009C62.6713 72.5488 62.6768 72.4952 62.6966 72.4461L64.1737 69.9205C65.938 66.9059 68.0191 64.0884 70.3817 61.5159C70.4279 61.4657 70.4709 61.4127 70.5105 61.3572L71.0168 60.6499C76.1785 65.3118 79.9742 71.2906 81.9968 77.9454C84.0193 84.6002 84.1926 91.68 82.498 98.4257L82.4988 98.4268Z" fill="#3E61EE"/>
<path d="M111.373 96.1072C111.709 95.995 112.001 95.7801 112.207 95.4929C112.414 95.2057 112.526 94.8607 112.526 94.5068C112.526 94.1528 112.414 93.8078 112.207 93.5206C112.001 93.2334 111.709 93.0185 111.373 92.9063C110.639 92.6583 109.972 92.2437 109.426 91.6949C108.879 91.1462 108.466 90.4782 108.221 89.7434C108.109 89.407 107.894 89.1143 107.607 88.9069C107.319 88.6995 106.974 88.5879 106.619 88.5879C106.265 88.5879 105.919 88.6995 105.632 88.9069C105.345 89.1143 105.13 89.407 105.018 89.7434C104.772 90.4783 104.36 91.1463 103.813 91.6951C103.266 92.2439 102.599 92.6586 101.865 92.9066C101.53 93.0188 101.238 93.2337 101.031 93.5209C100.824 93.8081 100.713 94.1531 100.713 94.507C100.713 94.861 100.824 95.2059 101.031 95.4932C101.238 95.7804 101.53 95.9953 101.865 96.1075C102.599 96.3554 103.266 96.77 103.813 97.3187C104.36 97.8674 104.773 98.5353 105.019 99.2701C105.13 99.6065 105.345 99.8992 105.633 100.107C105.92 100.314 106.265 100.426 106.62 100.426C106.974 100.426 107.32 100.314 107.607 100.107C107.895 99.8992 108.11 99.6065 108.221 99.2701C108.467 98.5354 108.879 97.8674 109.426 97.3187C109.973 96.7699 110.639 96.3553 111.373 96.1072ZM106.62 95.3878C106.349 95.073 106.055 94.7784 105.74 94.5066C106.055 94.235 106.349 93.9405 106.62 93.6257C106.891 93.9407 107.185 94.2351 107.499 94.5066C107.185 94.7783 106.891 95.0728 106.619 95.3878H106.62Z" fill="#3E61EE"/>
<path d="M16.3658 38.4514C17.0999 38.6994 17.7666 39.114 18.3137 39.6628C18.8607 40.2115 19.2733 40.8795 19.5189 41.6144C19.6307 41.9508 19.8455 42.2434 20.133 42.4508C20.4204 42.6582 20.7659 42.7699 21.1204 42.7699C21.4748 42.7699 21.8203 42.6582 22.1077 42.4508C22.3952 42.2434 22.61 41.9508 22.7218 41.6144C22.9673 40.8796 23.3797 40.2116 23.9266 39.6628C24.4735 39.114 25.14 38.6994 25.874 38.4514C26.2097 38.3392 26.5016 38.1243 26.7084 37.8371C26.9153 37.5499 27.0266 37.2049 27.0266 36.851C27.0266 36.4971 26.9153 36.1521 26.7084 35.8649C26.5016 35.5777 26.2097 35.3627 25.874 35.2505C25.14 35.0026 24.4735 34.5879 23.9266 34.0392C23.3797 33.4904 22.9673 32.8224 22.7218 32.0876C22.61 31.7512 22.3952 31.4586 22.1077 31.2512C21.8203 31.0437 21.4748 30.9321 21.1204 30.9321C20.7659 30.9321 20.4204 31.0437 20.133 31.2512C19.8455 31.4586 19.6307 31.7512 19.5189 32.0876C19.2734 32.8225 18.861 33.4905 18.314 34.0393C17.7671 34.5881 17.1004 35.0028 16.3664 35.2508C16.0307 35.363 15.7388 35.5779 15.532 35.8651C15.3252 36.1524 15.2139 36.4973 15.2139 36.8513C15.2139 37.2052 15.3252 37.5502 15.532 37.8374C15.7388 38.1246 16.0307 38.3395 16.3664 38.4517L16.3658 38.4514ZM21.1189 35.97C21.39 36.2849 21.6839 36.5793 21.9984 36.8509C21.684 37.1225 21.39 37.4171 21.1189 37.732C20.8477 37.4172 20.5538 37.1227 20.2395 36.8509C20.5541 36.5792 20.8484 36.2848 21.1198 35.97H21.1189Z" fill="#3E61EE"/>
<path d="M111.667 112.507C113.373 112.507 114.756 111.122 114.756 109.413C114.756 107.704 113.373 106.319 111.667 106.319C109.96 106.319 108.577 107.704 108.577 109.413C108.577 111.122 109.96 112.507 111.667 112.507Z" fill="#3E61EE"/>
<path d="M61.6038 131.351C60.9918 131.35 60.3932 131.53 59.8839 131.87C59.3746 132.209 58.9774 132.692 58.7426 133.257C58.5078 133.823 58.4459 134.445 58.5648 135.045C58.6837 135.646 58.978 136.197 59.4105 136.63C59.843 137.064 60.3943 137.359 60.9945 137.478C61.5947 137.598 62.217 137.537 62.7826 137.303C63.3481 137.069 63.8316 136.672 64.1717 136.164C64.5118 135.655 64.6934 135.056 64.6934 134.444C64.6934 133.625 64.368 132.838 63.7887 132.258C63.2094 131.678 62.4236 131.352 61.6038 131.351ZM61.6038 134.726C61.5484 134.725 61.4944 134.708 61.4487 134.676C61.4031 134.645 61.3677 134.601 61.347 134.549C61.3264 134.498 61.3214 134.441 61.3327 134.387C61.3441 134.333 61.3712 134.283 61.4107 134.244C61.4502 134.205 61.5003 134.179 61.5547 134.168C61.6092 134.158 61.6655 134.164 61.7166 134.185C61.7678 134.206 61.8115 134.242 61.8422 134.289C61.8729 134.335 61.8893 134.389 61.8893 134.444C61.8886 134.519 61.8582 134.591 61.8047 134.644C61.7512 134.697 61.679 134.726 61.6038 134.726Z" fill="#3E61EE"/>
<path d="M29.2604 30.1006C30.9667 30.1006 32.35 28.7155 32.35 27.0068C32.35 25.2982 30.9667 23.9131 29.2604 23.9131C27.5541 23.9131 26.1709 25.2982 26.1709 27.0068C26.1709 28.7155 27.5541 30.1006 29.2604 30.1006Z" fill="#3E61EE"/>
<path d="M126.714 41.8067C126.582 41.6292 126.415 41.4795 126.225 41.3663C126.034 41.2531 125.823 41.1785 125.604 41.1469C125.384 41.1152 125.161 41.1271 124.946 41.1818C124.731 41.2366 124.529 41.3331 124.352 41.4659L103.946 56.7234C100.829 59.0368 96.9218 60.0203 93.0807 59.4588C89.2395 58.8972 85.7774 56.8362 83.4528 53.7272C81.1281 50.6181 80.1303 46.7146 80.6779 42.8714C81.2256 39.0282 83.274 35.5587 86.3745 33.2227L112.578 13.63C112.759 13.4985 112.911 13.3325 113.027 13.1415C113.143 12.9505 113.22 12.7384 113.254 12.5175C113.287 12.2966 113.276 12.0712 113.222 11.8545C113.167 11.6378 113.07 11.4341 112.936 11.2552C112.803 11.0762 112.635 10.9256 112.442 10.8121C112.25 10.6986 112.037 10.6244 111.815 10.5939C111.594 10.5634 111.369 10.5772 111.153 10.6344C110.937 10.6916 110.734 10.7911 110.557 10.9272L84.3538 30.5199C80.5378 33.3923 78.0161 37.6603 77.3413 42.3886C76.6664 47.1169 77.8936 51.92 80.7537 55.7452C83.6138 59.5703 87.8737 62.1057 92.5998 62.7957C97.326 63.4857 102.133 62.274 105.967 59.4262L126.373 44.1687C126.55 44.036 126.7 43.8697 126.813 43.6792C126.926 43.4887 127.001 43.2778 127.033 43.0585C127.065 42.8392 127.053 42.6157 126.998 42.4009C126.944 42.1862 126.847 41.9843 126.714 41.8067Z" fill="#968B82"/>
<path d="M128.839 38.1109L128.538 38.3359C128.179 38.6038 127.942 39.0032 127.878 39.4462C127.814 39.8891 127.928 40.3393 128.196 40.6978C128.464 41.0563 128.863 41.2937 129.306 41.3577C129.749 41.4218 130.2 41.3072 130.558 41.0393L130.859 40.8143C131.218 40.5464 131.455 40.147 131.519 39.7041C131.583 39.2611 131.469 38.8109 131.201 38.4523C130.933 38.0938 130.534 37.8564 130.091 37.7923C129.648 37.7282 129.197 37.8427 128.839 38.1106V38.1109Z" fill="#968B82"/>
<path d="M124.876 12.0849C125.263 12.0853 125.638 11.952 125.938 11.7074L128.707 9.45912C129.049 9.17529 129.265 8.76801 129.308 8.32574C129.352 7.88346 129.219 7.44189 128.939 7.0969C128.659 6.75191 128.254 6.53135 127.812 6.48312C127.37 6.43488 126.927 6.56287 126.579 6.83928L123.811 9.08759C123.54 9.30744 123.344 9.60571 123.25 9.9414C123.156 10.2771 123.168 10.6337 123.285 10.9623C123.402 11.2908 123.617 11.5752 123.902 11.7762C124.187 11.9772 124.527 12.085 124.876 12.0849Z" fill="#968B82"/>
<path d="M116.026 19.2717C116.413 19.272 116.788 19.1385 117.088 18.8939L122.123 14.8063C122.295 14.6666 122.438 14.4943 122.543 14.2994C122.649 14.1045 122.715 13.8907 122.738 13.6703C122.76 13.4499 122.74 13.2271 122.676 13.0147C122.613 12.8023 122.509 12.6044 122.369 12.4324C122.229 12.2603 122.057 12.1175 121.862 12.012C121.667 11.9065 121.453 11.8405 121.233 11.8176C121.013 11.7947 120.79 11.8155 120.577 11.8787C120.365 11.942 120.167 12.0464 119.995 12.1861L114.961 16.2741C114.69 16.4939 114.494 16.7922 114.4 17.128C114.305 17.4637 114.318 17.8204 114.434 18.149C114.551 18.4776 114.767 18.762 115.052 18.9631C115.337 19.1641 115.677 19.2719 116.026 19.2717H116.026Z" fill="#968B82"/>
<path d="M110.596 19.818L106.954 22.7759C106.606 23.058 106.385 23.4666 106.339 23.9118C106.293 24.357 106.425 24.8023 106.708 25.1498C106.99 25.4972 107.398 25.7184 107.844 25.7645C108.289 25.8107 108.734 25.6781 109.082 25.396L112.725 22.4381C113.072 22.156 113.293 21.7473 113.34 21.3022C113.386 20.857 113.253 20.4117 112.971 20.0642C112.689 19.7168 112.28 19.4956 111.835 19.4494C111.39 19.4033 110.945 19.5358 110.597 19.818H110.596Z" fill="#968B82"/>
<path d="M136.898 19.2982L134.39 21.4076C134.048 21.6958 133.834 22.1082 133.795 22.5541C133.757 23.0001 133.897 23.443 134.185 23.7854C134.474 24.1279 134.886 24.3418 135.332 24.3802C135.778 24.4186 136.221 24.2782 136.563 23.99L139.071 21.8807C139.413 21.5925 139.627 21.1801 139.666 20.7341C139.704 20.2882 139.564 19.8453 139.275 19.5028C138.987 19.1604 138.575 18.9464 138.129 18.9081C137.683 18.8697 137.24 19.01 136.898 19.2982Z" fill="#968B82"/>
<path d="M129.969 25.129L121.439 32.3065C121.099 32.5954 120.887 33.0072 120.85 33.4519C120.812 33.8967 120.953 34.3381 121.24 34.6795C121.528 35.021 121.938 35.2347 122.383 35.2739C122.828 35.3131 123.27 35.1746 123.612 34.8887L132.142 27.7112C132.482 27.4223 132.694 27.0105 132.731 26.5657C132.769 26.121 132.628 25.6796 132.341 25.3382C132.054 24.9967 131.643 24.783 131.198 24.7438C130.753 24.7046 130.311 24.8431 129.969 25.129Z" fill="#968B82"/>
<path d="M117.297 39.6844C117.695 39.6846 118.079 39.5442 118.383 39.2881L119.789 38.1043C119.959 37.9616 120.099 37.7869 120.201 37.5902C120.303 37.3935 120.365 37.1786 120.384 36.9578C120.403 36.737 120.378 36.5146 120.311 36.3033C120.244 36.092 120.137 35.896 119.994 35.7265C119.851 35.5569 119.676 35.4171 119.48 35.3151C119.283 35.213 119.068 35.1507 118.847 35.1317C118.627 35.1127 118.404 35.1374 118.193 35.2043C117.982 35.2713 117.786 35.3792 117.616 35.5219L116.21 36.7054C115.945 36.9282 115.755 37.2272 115.665 37.5618C115.576 37.8964 115.592 38.2503 115.711 38.5756C115.829 38.9009 116.045 39.1817 116.329 39.3801C116.613 39.5784 116.951 39.6847 117.297 39.6844Z" fill="#968B82"/>
<path d="M137.692 9.06985L127.398 17.1451C127.221 17.2809 127.073 17.4504 126.962 17.644C126.85 17.8375 126.779 18.0512 126.751 18.2727C126.723 18.4942 126.739 18.719 126.798 18.9341C126.858 19.1493 126.959 19.3505 127.097 19.5261C127.235 19.7018 127.406 19.8483 127.601 19.9573C127.796 20.0663 128.01 20.1355 128.232 20.1611C128.454 20.1866 128.678 20.1678 128.893 20.1059C129.107 20.044 129.307 19.9401 129.481 19.8004L139.775 11.7251C139.951 11.5888 140.098 11.4191 140.208 11.2258C140.317 11.0325 140.388 10.8194 140.415 10.5987C140.442 10.378 140.426 10.1541 140.366 9.93994C140.307 9.72572 140.205 9.5254 140.068 9.35047C139.931 9.17554 139.76 9.02945 139.566 8.92061C139.373 8.81177 139.159 8.74231 138.938 8.71624C138.718 8.69016 138.494 8.70798 138.28 8.76866C138.066 8.82934 137.866 8.9317 137.692 9.06985H137.692Z" fill="#968B82"/>
<path d="M121.199 24.153C121.335 24.3274 121.505 24.4731 121.698 24.5818C121.891 24.6906 122.104 24.7603 122.324 24.7868C122.544 24.8134 122.767 24.7964 122.98 24.7368C123.194 24.6772 123.393 24.5761 123.568 24.4393L125.173 23.1802C125.522 22.903 125.748 22.4988 125.8 22.0558C125.853 21.6129 125.727 21.1672 125.452 20.8163C125.177 20.4654 124.774 20.2377 124.331 20.1831C123.888 20.1285 123.442 20.2514 123.09 20.5249L121.485 21.784C121.133 22.0603 120.905 22.465 120.851 22.9093C120.797 23.3535 120.922 23.8009 121.199 24.153Z" fill="#968B82"/>
<path d="M119.471 25.4982C119.334 25.3244 119.163 25.1794 118.97 25.0715C118.776 24.9636 118.563 24.8948 118.343 24.8692C118.123 24.8436 117.9 24.8616 117.687 24.9222C117.474 24.9828 117.274 25.0847 117.101 25.2223L106.971 33.2399C106.795 33.3766 106.648 33.5469 106.538 33.7408C106.428 33.9348 106.357 34.1486 106.331 34.3699C106.304 34.5912 106.321 34.8157 106.382 35.0303C106.442 35.2449 106.544 35.4454 106.683 35.6202C106.821 35.7951 106.993 35.9407 107.188 36.0488C107.383 36.1569 107.597 36.2253 107.819 36.25C108.04 36.2748 108.265 36.2553 108.479 36.1929C108.693 36.1304 108.892 36.0262 109.066 35.8862L119.194 27.8686C119.368 27.7311 119.513 27.5608 119.621 27.3673C119.729 27.1738 119.798 26.9609 119.824 26.7408C119.849 26.5207 119.832 26.2976 119.771 26.0844C119.711 25.8712 119.609 25.672 119.471 25.4982Z" fill="#968B82"/>
<path d="M83.2314 26.8389C84.5518 26.8389 85.6221 25.7685 85.6221 24.4482C85.6221 23.1279 84.5518 22.0576 83.2314 22.0576C81.9111 22.0576 80.8408 23.1279 80.8408 24.4482C80.8408 25.7685 81.9111 26.8389 83.2314 26.8389Z" fill="#968B82"/>
<path d="M89.5615 21.1186C90.5712 21.1186 91.3896 20.3002 91.3896 19.2905C91.3896 18.2809 90.5712 17.4624 89.5615 17.4624C88.5519 17.4624 87.7334 18.2809 87.7334 19.2905C87.7334 20.3002 88.5519 21.1186 89.5615 21.1186Z" fill="#968B82"/>
<path d="M121.145 55.3618C122.387 55.3618 123.395 54.3545 123.395 53.1118C123.395 51.8692 122.387 50.8618 121.145 50.8618C119.902 50.8618 118.895 51.8692 118.895 53.1118C118.895 54.3545 119.902 55.3618 121.145 55.3618Z" fill="#968B82"/>
<path d="M118.149 10.631C118.56 10.631 118.962 10.5091 119.303 10.2807C119.645 10.0523 119.912 9.72773 120.069 9.34794C120.226 8.96816 120.267 8.55025 120.187 8.14708C120.107 7.7439 119.909 7.37356 119.618 7.08288C119.328 6.79221 118.957 6.59426 118.554 6.51406C118.151 6.43386 117.733 6.47502 117.353 6.63233C116.974 6.78965 116.649 7.05604 116.421 7.39784C116.192 7.73964 116.07 8.14148 116.07 8.55256C116.071 9.10357 116.29 9.63179 116.68 10.0214C117.07 10.411 117.598 10.6303 118.149 10.631Z" fill="#968B82"/>
<path d="M83.7363 45.0205C83.7363 47.2455 84.3961 49.4206 85.6323 51.2707C86.8685 53.1207 88.6255 54.5627 90.6811 55.4141C92.7368 56.2656 94.9988 56.4884 97.1811 56.0543C99.3634 55.6203 101.368 54.5488 102.941 52.9755C104.515 51.4021 105.586 49.3976 106.02 47.2153C106.454 45.033 106.231 42.771 105.38 40.7153C104.528 38.6596 103.087 36.9026 101.236 35.6665C99.3864 34.4303 97.2114 33.7705 94.9863 33.7705C92.0037 33.7739 89.1441 34.9602 87.0351 37.0693C84.926 39.1783 83.7397 42.0378 83.7363 45.0205ZM102.861 45.0205C102.861 46.578 102.399 48.1006 101.534 49.3956C100.669 50.6907 99.4389 51.7 98 52.2961C96.561 52.8921 94.9776 53.048 93.45 52.7442C91.9224 52.4403 90.5192 51.6903 89.4179 50.589C88.3165 49.4876 87.5665 48.0844 87.2626 46.5568C86.9588 45.0292 87.1147 43.4458 87.7108 42.0069C88.3068 40.5679 89.3162 39.338 90.6112 38.4727C91.9062 37.6074 93.4288 37.1455 94.9863 37.1455C97.0742 37.1478 99.0759 37.9782 100.552 39.4546C102.029 40.9309 102.859 42.9326 102.861 45.0205Z" fill="#968B82"/>
<path d="M126.77 51.2837C127.779 51.2837 128.598 50.4652 128.598 49.4556C128.598 48.4459 127.779 47.6274 126.77 47.6274C125.76 47.6274 124.941 48.4459 124.941 49.4556C124.941 50.4652 125.76 51.2837 126.77 51.2837Z" fill="#968B82"/>
<path d="M92.877 51.208C93.8866 51.208 94.7051 50.3895 94.7051 49.3799C94.7051 48.3702 93.8866 47.5518 92.877 47.5518C91.8673 47.5518 91.0488 48.3702 91.0488 49.3799C91.0488 50.3895 91.8673 51.208 92.877 51.208Z" fill="#968B82"/>
<path d="M91.1895 45.0205C92.1991 45.0205 93.0176 44.202 93.0176 43.1924C93.0176 42.1827 92.1991 41.3643 91.1895 41.3643C90.1798 41.3643 89.3613 42.1827 89.3613 43.1924C89.3613 44.202 90.1798 45.0205 91.1895 45.0205Z" fill="#968B82"/>
<path d="M99.627 48.958C100.637 48.958 101.455 48.1395 101.455 47.1299C101.455 46.1202 100.637 45.3018 99.627 45.3018C98.6173 45.3018 97.7988 46.1202 97.7988 47.1299C97.7988 48.1395 98.6173 48.958 99.627 48.958Z" fill="#968B82"/>
</svg>
