<svg viewBox="0 0 80 80" fill="none" xmlns="http://www.w3.org/2000/svg">
<path d="M25.1686 27.2451C19.6278 27.2421 14.2855 29.3084 10.1888 33.0389C6.09202 36.7695 3.53603 41.8954 3.0217 47.4123C2.9592 48.0951 2.92743 48.7868 2.92639 49.4873C2.92552 53.6303 4.08187 57.6913 6.26512 61.2123C8.44836 64.7334 11.5717 67.5747 15.2831 69.4159C12.873 67.3301 10.9405 64.7496 9.61709 61.85C8.29369 58.9504 7.61046 55.7997 7.61389 52.6123C7.61389 51.9123 7.64566 51.2207 7.7092 50.5373L7.80186 49.7172C8.26105 46.2227 9.54381 42.8874 11.5445 39.9858C13.5452 37.0842 16.2065 34.6994 19.3094 33.0278L19.5358 32.9045C22.5596 31.3244 25.9059 30.4596 29.3167 30.3767C32.7275 30.2939 36.1119 30.9951 39.2089 32.4266L39.2951 32.3061C35.3185 29.027 30.3228 27.2372 25.1686 27.2451ZM18.3967 32.3905C18.4251 32.407 18.4514 32.4233 18.4765 32.4394C18.4498 32.4233 18.4237 32.4061 18.3967 32.3905Z" fill="#3E61EE" fill-opacity="0.2"/>
<path d="M25.1688 26.3076C12.3875 26.3076 1.98877 36.7061 1.98877 49.4878C1.98877 62.2695 12.3872 72.6678 25.1688 72.6678C37.9503 72.6678 48.3491 62.2692 48.3491 49.4878C48.3491 36.7064 37.9505 26.3076 25.1688 26.3076ZM14.7739 30.8967L17.1681 32.6971C17.4102 32.8787 17.6624 33.0463 17.9235 33.1992C18.6818 33.6446 19.3346 34.2491 19.8369 34.9711L21.3458 37.1473C21.5201 37.3973 21.61 37.6964 21.6023 38.0011C21.5947 38.3058 21.4898 38.6 21.3031 38.8409L20.6031 39.749C20.5314 39.8419 20.4367 39.9144 20.3283 39.9594C20.22 40.0044 20.1017 40.0204 19.9853 40.0057L19.191 39.904C18.4483 39.8086 17.694 39.9345 17.0226 40.266C16.3512 40.5974 15.7926 41.1197 15.4167 41.7673C15.3443 41.882 15.2401 41.9731 15.1168 42.0298C14.9936 42.0864 14.8566 42.1062 14.7224 42.0865L12.9064 41.8557C12.1881 41.7623 11.4579 41.8708 10.7978 42.1691C10.1377 42.4675 9.57374 42.9439 9.16924 43.5448C8.77918 44.1203 8.56568 44.7972 8.55493 45.4924C8.54419 46.1876 8.73668 46.8708 9.10877 47.4581L10.3199 49.3704C10.7798 50.0911 11.4944 50.612 12.3212 50.8295C13.148 51.047 14.0264 50.9451 14.7814 50.544L16.0283 49.8761C16.235 49.7661 16.4666 49.7113 16.7007 49.7169C16.9347 49.7226 17.1634 49.7885 17.3646 49.9084L19.7308 51.3282C19.9783 51.4767 20.263 51.5516 20.5516 51.5442H20.6039C20.9864 51.5568 21.3604 51.66 21.6951 51.8454C22.0299 52.0307 22.3158 52.2929 22.5294 52.6104L23.6869 54.224C23.7831 54.3582 23.886 54.4896 23.9925 54.6146L25.3988 56.2684L23.2364 57.9289C22.473 58.513 21.9112 59.3212 21.6297 60.2403L20.865 62.7206C20.841 62.7993 20.8014 62.8724 20.7488 62.9356L20.0046 63.8306C19.4915 64.4417 19.1245 65.1618 18.9316 65.9361L18.4299 62.9259C18.3172 62.2537 18.0427 61.6191 17.6299 61.0768L15.0606 57.7086C14.9016 57.5007 14.7841 57.2642 14.7146 57.0118L13.8667 53.9532C13.6734 53.2624 13.3046 52.6333 12.7963 52.1271C12.288 51.6209 11.6574 51.2548 10.9658 51.0643L10.7814 51.0137C10.5552 50.9519 10.3476 50.8356 10.1767 50.675L8.59549 49.1867C8.41036 49.0128 8.25123 48.8131 8.12299 48.5939C7.71506 47.8938 7.12446 47.3177 6.41437 46.9274C5.70428 46.5371 4.90143 46.3472 4.09174 46.3781C4.57232 43.1534 5.78491 40.0815 7.63655 37.3979C9.48819 34.7144 11.9297 32.4905 14.7739 30.8967ZM25.1688 70.7928C13.4213 70.7928 3.86377 61.2354 3.86377 49.4878C3.86377 49.0815 3.87627 48.6784 3.89877 48.2779C4.40924 48.2045 4.92999 48.2854 5.39416 48.5101C5.85834 48.7349 6.24474 49.0932 6.50377 49.5392C6.72249 49.9137 6.99391 50.2549 7.30971 50.5521L8.89096 52.0404C9.28566 52.4112 9.76506 52.6797 10.2874 52.8226L10.4722 52.8732C10.8507 52.9775 11.1958 53.1778 11.474 53.4548C11.7522 53.7318 11.954 54.076 12.0599 54.454L12.9075 57.5126C13.0409 57.9953 13.2658 58.448 13.5699 58.8459L16.1383 62.2136C16.3661 62.5126 16.5176 62.8627 16.5797 63.2336L17.278 67.4223C17.3336 67.7842 17.5171 68.1141 17.7952 68.3522C18.0733 68.5904 18.4275 68.7209 18.7936 68.7201C18.9966 68.7202 19.1976 68.6798 19.3849 68.6012C19.7401 68.4527 20.0481 68.2101 20.2757 67.8995C20.5032 67.5889 20.6417 67.222 20.6761 66.8386C20.7429 66.1712 21.0114 65.54 21.446 65.0292L22.19 64.1342C22.4011 63.8809 22.5596 63.5881 22.6564 63.2729L23.4211 60.7921C23.5888 60.2448 23.9235 59.7635 24.3781 59.4156L26.653 57.6689C27.0094 57.4006 27.249 57.0056 27.3224 56.5656C27.3618 56.3207 27.3477 56.0702 27.281 55.8313C27.2143 55.5924 27.0966 55.3708 26.936 55.1818L25.4211 53.3998C25.3478 53.3136 25.2771 53.2229 25.2106 53.1304L24.053 51.5167C23.6666 50.9577 23.1529 50.4986 22.5542 50.1772C21.9555 49.8559 21.2889 49.6815 20.6096 49.6684L18.3283 48.3006C17.8488 48.0145 17.3036 47.857 16.7454 47.8433C16.1873 47.8297 15.635 47.9602 15.1421 48.2225L13.896 48.8907C13.5588 49.0698 13.1666 49.1154 12.7975 49.0182C12.4283 48.9211 12.1093 48.6885 11.9039 48.3667L10.6928 46.4545C10.5161 46.1756 10.4246 45.8511 10.4297 45.5209C10.4348 45.1908 10.5362 44.8692 10.7214 44.5959C10.9322 44.2825 11.2261 44.0341 11.5703 43.8785C11.9144 43.723 12.2951 43.6665 12.6696 43.7153L14.4861 43.9461C14.9859 44.0139 15.4945 43.9328 15.9484 43.7129C16.4022 43.4929 16.7811 43.1439 17.0375 42.7097C17.2283 42.3808 17.5119 42.1156 17.8527 41.9473C18.1936 41.779 18.5766 41.7151 18.9536 41.7636L19.7481 41.8651C20.189 41.9204 20.6367 41.8599 21.047 41.6895C21.4574 41.5191 21.8162 41.2446 22.0881 40.8932L22.7881 39.9851C23.2187 39.4295 23.4605 38.7509 23.4782 38.0482C23.496 37.3455 23.2887 36.6555 22.8867 36.0789L21.3777 33.9026C20.7196 32.9566 19.8642 32.1645 18.8705 31.5809C18.6712 31.4643 18.4787 31.3363 18.2939 31.1978L16.6505 29.9618C20.1142 28.4484 23.9188 27.8854 27.6724 28.3308C31.426 28.7763 34.9931 30.2141 38.0064 32.4962L37.6813 32.9493C36.2942 34.4656 35.0714 36.1245 34.0333 37.8981L33.2074 39.3101C33.0001 39.6764 32.9119 40.0981 32.9552 40.5168C32.9985 40.9355 33.1711 41.3302 33.4489 41.6464C33.9138 42.178 34.5584 42.5196 35.2594 42.6057L35.6552 42.6545C36.2308 42.7258 36.7733 42.9625 37.2171 43.3359C37.6608 43.7094 37.9867 44.2036 38.1552 44.7586C38.3163 45.2929 38.321 45.8623 38.1687 46.3993C38.0164 46.9362 37.7135 47.4183 37.2958 47.7886L33.4013 51.2501C33.1139 51.5082 32.8848 51.8246 32.7294 52.1783C32.574 52.5319 32.4959 52.9146 32.5002 53.3009V54.2189C32.4948 54.5938 32.5844 54.9639 32.7607 55.2948C32.9369 55.6257 33.194 55.9067 33.508 56.1115C33.8612 56.3397 34.1579 56.6452 34.3758 57.0049C34.5937 57.3646 34.727 57.769 34.7656 58.1878L34.8513 59.1186C34.897 59.6146 35.126 60.0757 35.4934 60.4121C35.8608 60.7484 36.3403 60.9358 36.8385 60.9376H39.1322C39.8883 60.9347 40.6272 60.7121 41.259 60.2969C41.8909 59.8817 42.3885 59.2918 42.6913 58.599L42.8289 58.2779C43.0368 57.7991 43.374 57.3877 43.8027 57.0899C44.2313 56.7921 44.7346 56.6197 45.2558 56.592C43.7826 60.7427 41.0611 64.3358 37.4646 66.8784C33.8682 69.4209 29.5732 70.7882 25.1688 70.7928ZM45.8325 54.6817C45.8013 54.6847 45.77 54.6872 45.7388 54.6886L45.1997 54.7131C44.3237 54.7495 43.4757 55.0318 42.7528 55.5278C42.0298 56.0237 41.4611 56.7132 41.1117 57.5173L40.9739 57.8454C40.8176 58.2048 40.5604 58.511 40.2335 58.7271C39.9066 58.9431 39.524 59.0597 39.1322 59.0626H36.8385C36.8051 59.0602 36.7737 59.0457 36.7503 59.0218C36.7269 58.998 36.713 58.9663 36.7113 58.9329L36.6194 58.009C36.5558 57.3099 36.3341 56.6344 35.9712 56.0335C35.6083 55.4326 35.1137 54.922 34.5245 54.5403C34.4738 54.5043 34.4334 54.4558 34.4072 54.3994C34.381 54.343 34.37 54.2808 34.3752 54.2189V53.3003C34.3709 53.1798 34.3926 53.0599 34.4388 52.9485C34.4849 52.8372 34.5544 52.7371 34.6427 52.655L38.5489 49.1939C39.2347 48.5851 39.7317 47.7926 39.9812 46.9102C40.2306 46.0277 40.2219 45.0923 39.9563 44.2146C39.6816 43.312 39.151 42.5083 38.4288 41.9011C37.7066 41.2939 36.8238 40.9092 35.8874 40.7936L35.4902 40.7448C35.2465 40.715 35.0223 40.5963 34.8606 40.4115C34.8409 40.3898 34.8276 40.3629 34.8224 40.334C34.8172 40.305 34.8203 40.2752 34.8313 40.2479L35.6519 38.8448C36.6321 37.1701 37.7882 35.6048 39.1008 34.1756C39.1264 34.1477 39.1503 34.1183 39.1724 34.0875L39.4536 33.6945C42.3213 36.2844 44.4299 39.606 45.5536 43.3031C46.6773 47.0002 46.7735 50.9334 45.8321 54.6811L45.8325 54.6817Z" fill="#3E61EE"/>
<path d="M61.8742 53.3932C62.0607 53.3309 62.2229 53.2115 62.3378 53.0519C62.4527 52.8924 62.5145 52.7007 62.5145 52.5041C62.5145 52.3075 62.4527 52.1158 62.3378 51.9562C62.2229 51.7967 62.0607 51.6773 61.8742 51.6149C61.4664 51.4772 61.0961 51.2468 60.7923 50.942C60.4885 50.6371 60.2594 50.266 60.123 49.8578C60.0609 49.6709 59.9415 49.5083 59.7818 49.3931C59.6221 49.2778 59.4302 49.2158 59.2333 49.2158C59.0364 49.2158 58.8444 49.2778 58.6847 49.3931C58.525 49.5083 58.4057 49.6709 58.3436 49.8578C58.2072 50.266 57.9781 50.6371 57.6742 50.942C57.3703 51.2469 57 51.4773 56.5922 51.6151C56.4057 51.6774 56.2435 51.7968 56.1286 51.9564C56.0137 52.116 55.9519 52.3076 55.9519 52.5042C55.9519 52.7009 56.0137 52.8925 56.1286 53.0521C56.2435 53.2116 56.4057 53.331 56.5922 53.3934C57 53.5311 57.3704 53.7614 57.6743 54.0663C57.9782 54.3711 58.2074 54.7422 58.3439 55.1504C58.406 55.3373 58.5254 55.4999 58.685 55.6151C58.8447 55.7303 59.0367 55.7923 59.2336 55.7923C59.4305 55.7923 59.6225 55.7303 59.7821 55.6151C59.9418 55.4999 60.0612 55.3373 60.1233 55.1504C60.2596 54.7422 60.4887 54.3711 60.7925 54.0663C61.0962 53.7614 61.4665 53.531 61.8742 53.3932ZM59.2336 52.9935C59.0829 52.8186 58.9196 52.655 58.745 52.504C58.9197 52.3531 59.083 52.1895 59.2336 52.0146C59.3842 52.1896 59.5475 52.3532 59.7222 52.504C59.5474 52.6549 59.384 52.8185 59.2333 52.9935H59.2336Z" fill="#968B82"/>
<path d="M9.09212 21.362C9.49996 21.4997 9.87036 21.7301 10.1743 22.0349C10.4782 22.3398 10.7074 22.7109 10.8438 23.1192C10.9059 23.306 11.0253 23.4686 11.185 23.5839C11.3447 23.6991 11.5366 23.7611 11.7335 23.7611C11.9305 23.7611 12.1224 23.6991 12.2821 23.5839C12.4418 23.4686 12.5611 23.306 12.6232 23.1192C12.7596 22.7109 12.9887 22.3398 13.2925 22.0349C13.5964 21.7301 13.9667 21.4997 14.3745 21.362C14.561 21.2996 14.7231 21.1802 14.838 21.0207C14.9529 20.8611 15.0148 20.6695 15.0148 20.4728C15.0148 20.2762 14.9529 20.0845 14.838 19.925C14.7231 19.7654 14.561 19.646 14.3745 19.5837C13.9667 19.4459 13.5964 19.2156 13.2925 18.9107C12.9887 18.6058 12.7596 18.2347 12.6232 17.8265C12.5611 17.6396 12.4418 17.477 12.2821 17.3618C12.1224 17.2466 11.9305 17.1846 11.7335 17.1846C11.5366 17.1846 11.3447 17.2466 11.185 17.3618C11.0253 17.477 10.9059 17.6396 10.8438 17.8265C10.7074 18.2348 10.4783 18.6059 10.1744 18.9108C9.87059 19.2157 9.50024 19.446 9.09244 19.5838C8.90595 19.6462 8.74378 19.7656 8.62888 19.9251C8.51397 20.0847 8.45215 20.2764 8.45215 20.473C8.45215 20.6696 8.51397 20.8613 8.62888 21.0208C8.74378 21.1804 8.90595 21.2998 9.09244 21.3621L9.09212 21.362ZM11.7327 19.9834C11.8833 20.1583 12.0466 20.3219 12.2213 20.4727C12.0467 20.6237 11.8833 20.7873 11.7327 20.9623C11.5821 20.7874 11.4188 20.6238 11.2442 20.4727C11.419 20.3218 11.5824 20.1583 11.7332 19.9834H11.7327Z" fill="#968B82"/>
<path d="M62.0373 62.5039C62.9853 62.5039 63.7537 61.7344 63.7537 60.7852C63.7537 59.8359 62.9853 59.0664 62.0373 59.0664C61.0894 59.0664 60.3209 59.8359 60.3209 60.7852C60.3209 61.7344 61.0894 62.5039 62.0373 62.5039Z" fill="#968B82"/>
<path d="M34.2245 72.9727C33.8845 72.9722 33.5519 73.0726 33.269 73.2612C32.986 73.4498 32.7654 73.718 32.6349 74.032C32.5045 74.3461 32.4701 74.6917 32.5362 75.0253C32.6022 75.3588 32.7657 75.6653 33.006 75.9059C33.2463 76.1465 33.5525 76.3104 33.886 76.377C34.2195 76.4435 34.5652 76.4096 34.8794 76.2795C35.1936 76.1495 35.4621 75.9292 35.6511 75.6465C35.8401 75.3638 35.9409 75.0314 35.9409 74.6914C35.9409 74.236 35.7602 73.7992 35.4383 73.4769C35.1165 73.1546 34.6799 72.9733 34.2245 72.9727ZM34.2245 74.8477C34.1937 74.8472 34.1637 74.8376 34.1384 74.8202C34.113 74.8027 34.0933 74.7782 34.0818 74.7496C34.0704 74.721 34.0676 74.6897 34.0739 74.6595C34.0802 74.6294 34.0953 74.6017 34.1172 74.5801C34.1391 74.5585 34.167 74.5439 34.1972 74.538C34.2275 74.5322 34.2588 74.5354 34.2872 74.5473C34.3156 74.5592 34.3399 74.5792 34.3569 74.6049C34.374 74.6305 34.3831 74.6606 34.3831 74.6914C34.3827 74.7331 34.3658 74.773 34.3361 74.8023C34.3064 74.8316 34.2662 74.8479 34.2245 74.8477Z" fill="#968B82"/>
<path d="M16.2561 16.7227C17.204 16.7227 17.9725 15.9531 17.9725 15.0039C17.9725 14.0547 17.204 13.2852 16.2561 13.2852C15.3081 13.2852 14.5397 14.0547 14.5397 15.0039C14.5397 15.9531 15.3081 16.7227 16.2561 16.7227Z" fill="#3E61EE"/>
<path d="M70.3968 23.2262C70.323 23.1275 70.2306 23.0444 70.1247 22.9815C70.0189 22.9186 69.9016 22.8772 69.7797 22.8596C69.6579 22.842 69.5337 22.8486 69.4144 22.879C69.295 22.9094 69.1829 22.963 69.0843 23.0368L57.7479 31.5132C56.016 32.7984 53.8453 33.3449 51.7113 33.0329C49.5773 32.7209 47.654 31.5759 46.3625 29.8486C45.071 28.1214 44.5167 25.9527 44.8209 23.8176C45.1251 21.6825 46.2632 19.755 47.9857 18.4573L62.5432 7.57243C62.6435 7.49939 62.7284 7.40714 62.7928 7.30104C62.8572 7.19494 62.8999 7.07711 62.9185 6.95437C62.937 6.83164 62.931 6.70645 62.9007 6.58606C62.8705 6.46567 62.8166 6.35249 62.7423 6.25308C62.668 6.15367 62.5747 6.07 62.4677 6.00694C62.3608 5.94389 62.2425 5.90269 62.1195 5.88574C61.9965 5.86879 61.8714 5.87642 61.7514 5.9082C61.6314 5.93998 61.519 5.99527 61.4205 6.07087L46.863 16.9557C44.743 18.5515 43.3421 20.9226 42.9672 23.5494C42.5923 26.1763 43.274 28.8446 44.863 30.9697C46.4519 33.0949 48.8185 34.5034 51.4442 34.8867C54.0698 35.2701 56.7403 34.5969 58.8705 33.0148L70.2069 24.5384C70.3055 24.4647 70.3887 24.3723 70.4516 24.2665C70.5145 24.1606 70.556 24.0434 70.5736 23.9216C70.5912 23.7997 70.5847 23.6756 70.5543 23.5563C70.524 23.437 70.4705 23.3248 70.3968 23.2262Z" fill="#968B82"/>
<path d="M71.5772 21.173L71.4098 21.298C71.2107 21.4468 71.0788 21.6687 71.0432 21.9148C71.0076 22.1609 71.0713 22.411 71.2201 22.6102C71.369 22.8093 71.5909 22.9412 71.8369 22.9768C72.083 23.0124 72.3332 22.9487 72.5323 22.7999L72.6995 22.6749C72.8987 22.526 73.0306 22.3042 73.0662 22.0581C73.1018 21.812 73.0382 21.5619 72.8894 21.3627C72.7405 21.1635 72.5187 21.0316 72.2726 20.996C72.0265 20.9604 71.7763 21.024 71.5772 21.1728V21.173Z" fill="#968B82"/>
<path d="M69.3751 6.71431C69.5901 6.71454 69.7987 6.64046 69.9654 6.50462L71.5034 5.25556C71.6933 5.09787 71.8134 4.87161 71.8376 4.6259C71.8617 4.38019 71.788 4.13487 71.6324 3.94321C71.4767 3.75155 71.2518 3.62902 71.0063 3.60222C70.7609 3.57542 70.5148 3.64653 70.3215 3.80009L68.7835 5.04915C68.6332 5.17129 68.5243 5.33699 68.472 5.52349C68.4197 5.70999 68.4264 5.90812 68.4912 6.09065C68.5561 6.27317 68.6759 6.43113 68.8341 6.54281C68.9924 6.65449 69.1814 6.7144 69.3751 6.71431Z" fill="#968B82"/>
<path d="M64.4584 10.7067C64.6735 10.7069 64.882 10.6327 65.0487 10.4969L67.8456 8.22591C67.9412 8.1483 68.0206 8.05262 68.0792 7.94434C68.1378 7.83606 68.1745 7.7173 68.1872 7.59483C68.1999 7.47237 68.1883 7.3486 68.1532 7.2306C68.1181 7.11259 68.06 7.00266 67.9824 6.90709C67.9048 6.81151 67.8091 6.73215 67.7008 6.67355C67.5926 6.61495 67.4738 6.57825 67.3513 6.56555C67.2289 6.55285 67.1051 6.56439 66.9871 6.59952C66.8691 6.63465 66.7592 6.69268 66.6636 6.77029L63.8667 9.04138C63.7163 9.1635 63.6074 9.32922 63.5551 9.51575C63.5027 9.70227 63.5094 9.90044 63.5742 10.083C63.6391 10.2656 63.7589 10.4236 63.9172 10.5352C64.0755 10.6469 64.2645 10.7068 64.4583 10.7067H64.4584Z" fill="#968B82"/>
<path d="M61.4422 11.0105L59.4188 12.6538C59.2258 12.8106 59.1029 13.0376 59.0773 13.2849C59.0516 13.5322 59.1253 13.7796 59.282 13.9726C59.4388 14.1657 59.6658 14.2885 59.9131 14.3142C60.1604 14.3398 60.4078 14.2662 60.6008 14.1094L62.6249 12.4662C62.8179 12.3094 62.9408 12.0824 62.9664 11.8351C62.9921 11.5877 62.9184 11.3404 62.7617 11.1473C62.605 10.9543 62.3779 10.8314 62.1306 10.8058C61.8833 10.7801 61.6359 10.8538 61.4429 11.0105H61.4422Z" fill="#968B82"/>
<path d="M76.0538 10.7222L74.6607 11.894C74.4704 12.0541 74.3516 12.2833 74.3302 12.531C74.3089 12.7787 74.3869 13.0248 74.547 13.2151C74.7071 13.4053 74.9362 13.5242 75.184 13.5455C75.4317 13.5668 75.6778 13.4888 75.868 13.3287L77.2611 12.1568C77.4514 11.9967 77.5702 11.7676 77.5916 11.5199C77.6129 11.2721 77.5349 11.0261 77.3748 10.8358C77.2147 10.6456 76.9856 10.5267 76.7378 10.5054C76.4901 10.4841 76.244 10.5621 76.0538 10.7222Z" fill="#968B82"/>
<path d="M72.2047 13.9608L67.466 17.9483C67.277 18.1088 67.1592 18.3376 67.1385 18.5846C67.1178 18.8317 67.1958 19.0769 67.3555 19.2666C67.5151 19.4563 67.7434 19.575 67.9904 19.5968C68.2374 19.6186 68.4829 19.5416 68.6733 19.3828L73.4121 15.3953C73.6011 15.2348 73.7188 15.006 73.7395 14.759C73.7602 14.5119 73.6822 14.2667 73.5226 14.077C73.3629 13.8873 73.1346 13.7686 72.8876 13.7468C72.6407 13.725 72.3951 13.802 72.2047 13.9608Z" fill="#968B82"/>
<path d="M65.1649 22.0474C65.3856 22.0475 65.5993 21.9695 65.768 21.8272L66.5492 21.1695C66.6435 21.0903 66.7211 20.9932 66.7778 20.8839C66.8345 20.7746 66.8691 20.6552 66.8797 20.5326C66.8902 20.4099 66.8765 20.2864 66.8393 20.169C66.8021 20.0516 66.7422 19.9427 66.6629 19.8485C66.5836 19.7543 66.4866 19.6767 66.3773 19.62C66.268 19.5633 66.1486 19.5287 66.026 19.5181C65.9033 19.5075 65.7797 19.5213 65.6624 19.5584C65.545 19.5956 65.4361 19.6556 65.3419 19.7349L64.5607 20.3924C64.4134 20.5162 64.3079 20.6823 64.2583 20.8682C64.2087 21.054 64.2174 21.2507 64.2834 21.4314C64.3494 21.6121 64.4694 21.7681 64.627 21.8783C64.7847 21.9885 64.9725 22.0475 65.1649 22.0474Z" fill="#968B82"/>
<path d="M76.4954 5.03886L70.7766 9.52511C70.6782 9.60053 70.5957 9.69474 70.5339 9.80227C70.4721 9.9098 70.4323 10.0285 70.4167 10.1516C70.4011 10.2746 70.4101 10.3995 70.4432 10.519C70.4762 10.6385 70.5326 10.7503 70.6092 10.8479C70.6857 10.9455 70.7809 11.0269 70.8891 11.0874C70.9973 11.148 71.1165 11.1865 71.2397 11.2006C71.3629 11.2148 71.4877 11.2044 71.6068 11.17C71.726 11.1356 71.8371 11.0779 71.9338 11.0003L77.6525 6.51402C77.7501 6.43827 77.8318 6.344 77.8928 6.2366C77.9538 6.12921 77.993 6.01081 78.0081 5.88821C78.0233 5.76562 78.014 5.64125 77.9809 5.52224C77.9478 5.40323 77.8915 5.29194 77.8153 5.19476C77.739 5.09757 77.6443 5.01642 77.5366 4.95595C77.4289 4.89548 77.3103 4.85689 77.1877 4.84241C77.065 4.82792 76.9407 4.83782 76.8218 4.87153C76.703 4.90525 76.592 4.96211 76.4952 5.03886H76.4954Z" fill="#968B82"/>
<path d="M67.3322 13.4186C67.4081 13.5155 67.5025 13.5964 67.6097 13.6569C67.717 13.7173 67.8351 13.756 67.9573 13.7707C68.0796 13.7855 68.2035 13.7761 68.3221 13.7429C68.4407 13.7098 68.5515 13.6537 68.6484 13.5777L69.5401 12.8781C69.7343 12.7242 69.8596 12.4996 69.8887 12.2535C69.9177 12.0074 69.8482 11.7598 69.6952 11.5649C69.5423 11.3699 69.3183 11.2434 69.0724 11.2131C68.8265 11.1828 68.5785 11.251 68.3828 11.403L67.4911 12.1025C67.2955 12.256 67.1689 12.4808 67.1391 12.7277C67.1093 12.9745 67.1787 13.223 67.3322 13.4186Z" fill="#968B82"/>
<path d="M66.3729 14.1663C66.2965 14.0697 66.2018 13.9892 66.0942 13.9292C65.9867 13.8693 65.8684 13.8311 65.7461 13.8168C65.6238 13.8026 65.4999 13.8126 65.3815 13.8463C65.263 13.8799 65.1524 13.9366 65.0558 14.013L59.4283 18.4672C59.3305 18.5432 59.2487 18.6377 59.1876 18.7455C59.1265 18.8532 59.0874 18.972 59.0725 19.095C59.0576 19.218 59.0672 19.3427 59.1008 19.4619C59.1343 19.5811 59.1912 19.6925 59.2681 19.7896C59.3449 19.8867 59.4403 19.9677 59.5486 20.0277C59.6569 20.0878 59.7761 20.1258 59.8992 20.1395C60.0223 20.1532 60.1469 20.1425 60.2658 20.1078C60.3847 20.0731 60.4955 20.0152 60.5919 19.9374L66.219 15.4831C66.3155 15.4068 66.3961 15.3121 66.4561 15.2046C66.5161 15.0971 66.5544 14.9789 66.5687 14.8566C66.583 14.7343 66.573 14.6104 66.5394 14.492C66.5058 14.3735 66.4492 14.2628 66.3729 14.1663Z" fill="#968B82"/>
<path d="M46.2394 14.9111C46.9729 14.9111 47.5675 14.3165 47.5675 13.583C47.5675 12.8495 46.9729 12.2549 46.2394 12.2549C45.5059 12.2549 44.9113 12.8495 44.9113 13.583C44.9113 14.3165 45.5059 14.9111 46.2394 14.9111Z" fill="#968B82"/>
<path d="M49.7561 11.7334C50.317 11.7334 50.7717 11.2787 50.7717 10.7178C50.7717 10.1569 50.317 9.70215 49.7561 9.70215C49.1952 9.70215 48.7405 10.1569 48.7405 10.7178C48.7405 11.2787 49.1952 11.7334 49.7561 11.7334Z" fill="#968B82"/>
<path d="M67.3022 30.7568C67.9926 30.7568 68.5522 30.1972 68.5522 29.5068C68.5522 28.8165 67.9926 28.2568 67.3022 28.2568C66.6119 28.2568 66.0522 28.8165 66.0522 29.5068C66.0522 30.1972 66.6119 30.7568 67.3022 30.7568Z" fill="#968B82"/>
<path d="M65.6377 5.90703C65.8661 5.90703 66.0893 5.83931 66.2792 5.71243C66.4691 5.58555 66.6171 5.40522 66.7045 5.19422C66.7919 4.98323 66.8148 4.75106 66.7702 4.52708C66.7257 4.30309 66.6157 4.09734 66.4542 3.93586C66.2927 3.77437 66.087 3.6644 65.863 3.61984C65.639 3.57529 65.4068 3.59816 65.1958 3.68555C64.9848 3.77295 64.8045 3.92095 64.6776 4.11083C64.5508 4.30072 64.483 4.52397 64.483 4.75234C64.4834 5.05846 64.6052 5.35192 64.8217 5.56837C65.0381 5.78483 65.3316 5.90662 65.6377 5.90703Z" fill="#968B82"/>
<path d="M46.52 25.0117C46.52 26.2478 46.8866 27.4562 47.5733 28.484C48.2601 29.5118 49.2362 30.3129 50.3783 30.786C51.5203 31.259 52.777 31.3828 53.9893 31.1416C55.2017 30.9005 56.3154 30.3052 57.1894 29.4311C58.0635 28.5571 58.6588 27.4434 58.8999 26.231C59.1411 25.0187 59.0173 23.762 58.5443 22.6199C58.0712 21.4779 57.2701 20.5018 56.2423 19.815C55.2145 19.1283 54.0062 18.7617 52.77 18.7617C51.113 18.7636 49.5244 19.4227 48.3527 20.5944C47.181 21.7661 46.5219 23.3547 46.52 25.0117ZM57.145 25.0117C57.145 25.877 56.8884 26.7229 56.4077 27.4423C55.927 28.1618 55.2437 28.7226 54.4443 29.0537C53.6448 29.3848 52.7652 29.4715 51.9165 29.3027C51.0678 29.1338 50.2883 28.7172 49.6764 28.1053C49.0646 27.4935 48.6479 26.7139 48.4791 25.8652C48.3103 25.0166 48.3969 24.1369 48.728 23.3375C49.0592 22.5381 49.6199 21.8548 50.3394 21.374C51.0589 20.8933 51.9047 20.6367 52.77 20.6367C53.9299 20.638 55.042 21.0993 55.8622 21.9195C56.6824 22.7397 57.1437 23.8518 57.145 25.0117Z" fill="#968B82"/>
<path d="M70.4272 28.4912C70.9882 28.4912 71.4429 28.0365 71.4429 27.4756C71.4429 26.9147 70.9882 26.46 70.4272 26.46C69.8663 26.46 69.4116 26.9147 69.4116 27.4756C69.4116 28.0365 69.8663 28.4912 70.4272 28.4912Z" fill="#968B82"/>
<path d="M51.5981 28.4492C52.1591 28.4492 52.6138 27.9945 52.6138 27.4336C52.6138 26.8727 52.1591 26.418 51.5981 26.418C51.0372 26.418 50.5825 26.8727 50.5825 27.4336C50.5825 27.9945 51.0372 28.4492 51.5981 28.4492Z" fill="#968B82"/>
<path d="M50.6606 25.0117C51.2216 25.0117 51.6763 24.557 51.6763 23.9961C51.6763 23.4352 51.2216 22.9805 50.6606 22.9805C50.0997 22.9805 49.645 23.4352 49.645 23.9961C49.645 24.557 50.0997 25.0117 50.6606 25.0117Z" fill="#968B82"/>
<path d="M55.3481 27.1992C55.9091 27.1992 56.3638 26.7445 56.3638 26.1836C56.3638 25.6227 55.9091 25.168 55.3481 25.168C54.7872 25.168 54.3325 25.6227 54.3325 26.1836C54.3325 26.7445 54.7872 27.1992 55.3481 27.1992Z" fill="#968B82"/>
</svg>
