<svg viewBox="0 0 144 144" fill="none" xmlns="http://www.w3.org/2000/svg">
<path d="M135.76 38.2498L134.664 39.0655C133.932 39.628 133.764 40.6967 134.326 41.428C134.664 41.878 135.17 42.103 135.676 42.103C136.042 42.103 136.379 41.9905 136.689 41.7655L137.785 40.9498C138.517 40.3873 138.685 39.3186 138.123 38.5873C137.56 37.828 136.492 37.6873 135.76 38.2498Z" fill="#3E61EE"/>
<path d="M131.935 45.3373L132.666 44.7748C133.397 44.2123 133.566 43.1436 133.004 42.4123C132.441 41.6811 131.372 41.5123 130.641 42.0748L108.226 58.8373C105.301 61.0311 101.701 61.9311 98.1006 61.4248C94.5006 60.8904 91.2943 59.0061 89.1287 56.0811C86.935 53.1561 86.035 49.5561 86.5412 45.9561C87.0756 42.3561 88.96 39.1498 91.885 36.9842L116.438 18.6186C117.197 18.0561 117.338 17.0154 116.776 16.2561C116.213 15.4967 115.172 15.3561 114.413 15.9186L108.591 20.2779C100.969 16.1998 92.3912 14.0342 83.6725 14.0342C73.5475 14.0342 63.7037 16.9029 55.21 22.3592L57.0381 25.1998C64.9693 20.1092 74.1943 17.4092 83.6725 17.4092C91.2943 17.4092 98.8037 19.1811 105.582 22.5279L89.86 34.2842C86.2318 37.0123 83.8693 40.9779 83.1943 45.4779C82.5475 49.9779 83.7006 54.4498 86.4006 58.1061C89.1287 61.7342 93.0943 64.0967 97.5943 64.7717C98.41 64.8842 99.2537 64.9404 100.069 64.9404C103.726 64.9404 107.241 63.7592 110.222 61.5373L129.122 47.4186C131.738 53.5498 133.088 60.0748 133.088 66.8248C133.088 94.0779 110.926 116.24 83.6725 116.24C83.0256 116.24 82.4068 116.24 81.76 116.212L81.6193 119.587C82.2943 119.615 82.9693 119.615 83.6443 119.615C112.754 119.615 136.435 95.9342 136.435 66.8248C136.491 59.3436 134.972 52.1154 131.935 45.3373Z" fill="#3E61EE"/>
<path d="M127.914 17.2124C128.279 17.2124 128.673 17.0999 128.982 16.8468L131.57 14.7374C132.301 14.1468 132.414 13.078 131.823 12.3749C131.232 11.6436 130.164 11.5311 129.46 12.1218L126.873 14.2311C126.142 14.8218 126.029 15.8905 126.62 16.5936C126.929 16.9874 127.435 17.2124 127.914 17.2124Z" fill="#3E61EE"/>
<path d="M119.617 23.9344C119.982 23.9344 120.376 23.8219 120.685 23.5687L125.41 19.7437C126.142 19.1531 126.254 18.0844 125.664 17.3812C125.073 16.65 124.004 16.5375 123.301 17.1281L118.576 20.9531C117.845 21.5437 117.732 22.6125 118.323 23.3156C118.66 23.7375 119.139 23.9344 119.617 23.9344Z" fill="#3E61EE"/>
<path d="M114.469 24.2721L111.066 27.0565C110.335 27.6471 110.223 28.7158 110.813 29.419C111.151 29.8408 111.629 30.0377 112.135 30.0377C112.501 30.0377 112.894 29.9252 113.204 29.6721L116.607 26.8877C117.338 26.2971 117.451 25.2283 116.86 24.5252C116.269 23.8221 115.201 23.6815 114.469 24.2721Z" fill="#3E61EE"/>
<path d="M139.107 23.7937L136.744 25.7624C136.041 26.353 135.929 27.4218 136.548 28.153C136.885 28.5468 137.363 28.7437 137.841 28.7437C138.235 28.7437 138.601 28.603 138.938 28.3499L141.301 26.3812C142.004 25.7905 142.116 24.7218 141.498 23.9905C140.907 23.2593 139.838 23.1749 139.107 23.7937Z" fill="#3E61EE"/>
<path d="M124.426 38.3627C124.763 38.7565 125.241 38.9533 125.719 38.9533C126.113 38.9533 126.479 38.8127 126.816 38.5596L134.804 31.8377C135.507 31.2471 135.619 30.1783 135.001 29.4471C134.41 28.744 133.341 28.6315 132.61 29.2502L124.623 35.9721C123.919 36.5627 123.835 37.6315 124.426 38.3627Z" fill="#3E61EE"/>
<path d="M120.826 43.0593C121.219 43.0593 121.585 42.9187 121.923 42.6655L123.244 41.5687C123.948 40.978 124.06 39.9093 123.441 39.178C122.823 38.4468 121.782 38.3624 121.051 38.9812L119.729 40.078C119.026 40.6687 118.913 41.7374 119.532 42.4687C119.869 42.8624 120.348 43.0593 120.826 43.0593Z" fill="#3E61EE"/>
<path d="M142.229 14.4843C141.666 13.7531 140.597 13.6125 139.866 14.2031L130.219 21.7687C129.488 22.3312 129.347 23.4 129.938 24.1312C130.275 24.5531 130.754 24.7781 131.26 24.7781C131.625 24.7781 131.991 24.6656 132.3 24.4125L141.947 16.8468C142.679 16.2843 142.819 15.2156 142.229 14.4843Z" fill="#3E61EE"/>
<path d="M124.398 28.4626C124.735 28.8845 125.214 29.1095 125.72 29.1095C126.085 29.1095 126.451 28.997 126.76 28.7439L128.251 27.5627C128.982 27.0002 129.123 25.9314 128.532 25.2001C127.97 24.4689 126.901 24.3283 126.17 24.9189L124.679 26.1002C123.948 26.6908 123.807 27.7314 124.398 28.4626Z" fill="#3E61EE"/>
<path d="M112.135 39.853C112.501 39.853 112.867 39.7405 113.176 39.4874L122.682 31.978C123.414 31.3874 123.526 30.3468 122.964 29.6155C122.373 28.8843 121.332 28.7718 120.601 29.3343L111.067 36.8436C110.335 37.4343 110.223 38.4749 110.785 39.2061C111.123 39.628 111.629 39.853 112.135 39.853Z" fill="#3E61EE"/>
<path d="M86.541 28.6874C86.541 29.9812 87.5816 31.0218 88.8754 31.0218C90.1691 31.0218 91.2098 29.9812 91.2098 28.6874C91.2098 27.3937 90.1691 26.353 88.8754 26.353C87.5816 26.353 86.541 27.3937 86.541 28.6874Z" fill="#3E61EE"/>
<path d="M96.6387 23.8496C96.6387 22.8371 95.823 22.0215 94.8105 22.0215C93.798 22.0215 92.9824 22.8371 92.9824 23.8496C92.9824 24.8621 93.798 25.6777 94.8105 25.6777C95.823 25.6777 96.6387 24.8621 96.6387 23.8496Z" fill="#3E61EE"/>
<path d="M124.425 57.7689C125.634 57.7689 126.647 56.7846 126.647 55.5471C126.647 54.3096 125.662 53.3252 124.425 53.3252C123.187 53.3252 122.203 54.3096 122.203 55.5471C122.203 56.7846 123.187 57.7689 124.425 57.7689Z" fill="#3E61EE"/>
<path d="M121.614 15.8343C122.739 15.8343 123.667 14.9062 123.667 13.7812C123.667 12.6562 122.739 11.728 121.614 11.728C120.489 11.728 119.561 12.6562 119.561 13.7812C119.561 14.9343 120.489 15.8343 121.614 15.8343Z" fill="#3E61EE"/>
<path d="M99.9006 37.3218C94.0225 37.3218 89.2412 42.103 89.2412 47.9812C89.2412 53.8593 94.0225 58.6405 99.9006 58.6405C105.779 58.6405 110.56 53.8593 110.56 47.9812C110.56 42.103 105.779 37.3218 99.9006 37.3218ZM99.9006 55.2374C95.8787 55.2374 92.6162 51.9749 92.6162 47.953C92.6162 43.9312 95.8787 40.6687 99.9006 40.6687C103.922 40.6687 107.185 43.9312 107.185 47.953C107.185 51.9749 103.922 55.2374 99.9006 55.2374Z" fill="#3E61EE"/>
<path d="M97.9316 50.2314C96.9191 50.2314 96.1035 51.0471 96.1035 52.0596C96.1035 53.0721 96.9191 53.8877 97.9316 53.8877C98.9441 53.8877 99.7598 53.0721 99.7598 52.0596C99.7598 51.0471 98.9441 50.2314 97.9316 50.2314Z" fill="#3E61EE"/>
<path d="M98.1562 46.2656C98.1562 45.2531 97.3406 44.4375 96.3281 44.4375C95.3156 44.4375 94.5 45.2531 94.5 46.2656C94.5 47.2781 95.3156 48.0938 96.3281 48.0938C97.3406 48.0938 98.1562 47.25 98.1562 46.2656Z" fill="#3E61EE"/>
<path d="M102.432 49.9502C102.432 50.9627 103.247 51.7783 104.26 51.7783C105.272 51.7783 106.088 50.9627 106.088 49.9502C106.088 48.9377 105.272 48.1221 104.26 48.1221C103.247 48.1221 102.432 48.9377 102.432 49.9502Z" fill="#3E61EE"/>
<path d="M117.057 63.7596C116.832 63.0564 116.186 62.6064 115.454 62.6064C114.723 62.6064 114.076 63.0846 113.851 63.7596C113.036 66.2064 111.067 68.1752 108.62 68.9908C107.945 69.2158 107.467 69.8627 107.467 70.5939C107.467 71.3252 107.945 71.9721 108.62 72.1971C111.067 73.0127 113.036 74.9814 113.851 77.4283C114.076 78.1314 114.723 78.5814 115.454 78.5814C116.186 78.5814 116.832 78.1033 117.057 77.4283C117.873 74.9814 119.842 73.0127 122.289 72.1971C122.964 71.9721 123.442 71.3252 123.442 70.5939C123.442 69.8627 122.964 69.2158 122.289 68.9908C119.842 68.1752 117.901 66.2064 117.057 63.7596ZM115.482 73.2377C114.751 72.2252 113.851 71.3252 112.839 70.5939C113.851 69.8627 114.751 68.9627 115.482 67.9502C116.214 68.9627 117.114 69.8627 118.126 70.5939C117.086 71.3252 116.214 72.2252 115.482 73.2377Z" fill="#3E61EE"/>
<path d="M83.6441 29.5593C84.1504 28.0687 85.3035 26.9155 86.7941 26.4093C87.4691 26.1843 87.9473 25.5374 87.9473 24.8062C87.9473 24.0749 87.4691 23.428 86.7941 23.203C85.3035 22.6968 84.1504 21.5437 83.6441 20.053C83.4191 19.3499 82.7723 18.8999 82.041 18.8999C81.3098 18.8999 80.6629 19.378 80.4379 20.053C79.9316 21.5437 78.7785 22.6968 77.2879 23.203C76.6129 23.428 76.1348 24.0749 76.1348 24.8062C76.1348 25.5374 76.6129 26.1843 77.2879 26.4093C78.7785 26.9155 79.9316 28.0687 80.4379 29.5593C80.6629 30.2624 81.3098 30.7124 82.041 30.7124C82.7723 30.7124 83.4191 30.2343 83.6441 29.5593ZM81.1691 24.8062C81.4785 24.5249 81.7598 24.2437 82.041 23.9343C82.3223 24.2437 82.6035 24.5249 82.9129 24.8062C82.6035 25.0874 82.3223 25.3687 82.041 25.678C81.7879 25.3687 81.4785 25.0874 81.1691 24.8062Z" fill="#3E61EE"/>
<path d="M86.2316 72.4219C85.0223 72.4219 84.0098 73.4063 84.0098 74.6438C84.0098 75.8813 84.9941 76.8656 86.2316 76.8656C87.4691 76.8656 88.4535 75.8813 88.4535 74.6438C88.4535 73.4063 87.441 72.4219 86.2316 72.4219Z" fill="#3E61EE"/>
<path d="M64.0412 74.1094C62.8318 74.1094 61.8193 75.0938 61.8193 76.3313C61.8193 77.5688 62.8037 78.5531 64.0412 78.5531C65.2787 78.5531 66.2631 77.5688 66.2631 76.3313C66.2631 75.0938 65.2787 74.1094 64.0412 74.1094Z" fill="#3E61EE"/>
<path d="M70.51 26.9434C69.3006 26.9434 68.2881 27.9277 68.2881 29.1652C68.2881 30.4027 69.2725 31.3871 70.51 31.3871C71.7475 31.3871 72.7318 30.4027 72.7318 29.1652C72.7318 27.9277 71.7193 26.9434 70.51 26.9434Z" fill="#3E61EE"/>
<path d="M106.764 91.7717C106.764 92.9811 107.748 93.9936 108.986 93.9936C110.223 93.9936 111.207 93.0092 111.207 91.7717C111.207 90.5342 110.223 89.5498 108.986 89.5498C107.748 89.5498 106.764 90.5623 106.764 91.7717Z" fill="#3E61EE"/>
<path d="M73.885 51.3002C75.0943 51.3002 76.1068 50.3158 76.1068 49.0783C76.1068 47.8408 75.1225 46.8564 73.885 46.8564C72.6756 46.8564 71.6631 47.8408 71.6631 49.0783C71.6631 50.3158 72.6475 51.3002 73.885 51.3002Z" fill="#3E61EE"/>
<path d="M103.697 89.4651C102.684 87.2151 100.856 85.4714 98.522 84.5995C96.9751 84.0089 95.3157 83.8401 93.7126 84.1214C90.3095 81.2245 87.7782 80.437 86.2032 81.7026C85.697 82.1245 84.1501 83.3901 86.2876 88.0026C86.4564 88.3964 86.6814 88.7901 86.8782 89.212C86.7657 89.4651 86.6532 89.6901 86.5689 89.9433C84.7407 94.7245 87.1595 100.096 91.9407 101.896C93.0095 102.318 94.1345 102.515 95.2314 102.515C96.0751 102.515 96.9189 102.403 97.7064 102.178C99.3376 103.415 101.053 104.343 102.488 104.343C103.078 104.343 103.641 104.175 104.119 103.837C105.947 102.487 105.047 99.4214 103.781 96.8058C103.809 96.7214 103.866 96.637 103.894 96.5526C104.766 94.2464 104.709 91.7151 103.697 89.4651ZM97.3126 87.7495C98.7751 88.312 99.9564 89.4089 100.603 90.8433C101.25 92.2776 101.306 93.8808 100.744 95.3433C100.266 96.6089 99.3939 97.6214 98.297 98.2683C97.0314 97.1433 95.5689 95.6245 93.9939 93.712C92.672 92.1089 91.6314 90.6183 90.8439 89.3245C91.3782 88.7058 92.0532 88.2276 92.8126 87.862C93.572 87.5245 94.4157 87.3276 95.2314 87.3276C95.9345 87.3558 96.6376 87.4964 97.3126 87.7495ZM90.0845 85.5558C89.7751 85.7526 89.4657 85.9776 89.1845 86.2308C88.9032 85.612 88.7345 85.1058 88.6501 84.712C88.9876 84.8526 89.4657 85.1339 90.0845 85.5558ZM89.3532 93.1776C89.972 94.0776 90.6751 94.9776 91.3782 95.8495C91.8282 96.412 92.897 97.6777 94.247 99.0558C93.8814 98.9995 93.4876 98.887 93.122 98.7464C90.7595 97.8745 89.3251 95.5964 89.3532 93.1776ZM101.109 100.434C101.222 100.321 101.363 100.237 101.475 100.125C101.559 100.35 101.616 100.575 101.672 100.743C101.503 100.659 101.306 100.546 101.109 100.434Z" fill="#3E61EE"/>
<path d="M72.1699 56.4468C67.8387 56.4468 64.2949 59.9624 64.2949 64.3218C64.2949 68.6812 67.8105 72.1968 72.1699 72.1968C76.5012 72.1968 80.0449 68.6812 80.0449 64.3218C80.0449 59.9624 76.5293 56.4468 72.1699 56.4468ZM72.1699 68.7937C69.6949 68.7937 67.6699 66.7687 67.6699 64.2937C67.6699 61.8187 69.6949 59.7937 72.1699 59.7937C74.6449 59.7937 76.6699 61.8187 76.6699 64.2937C76.6699 66.7687 74.6449 68.7937 72.1699 68.7937Z" fill="#3E61EE"/>
<path d="M39.5439 62.3247L39.2064 60.7497C38.5877 57.881 35.8314 55.9685 32.9346 56.3903L32.5689 56.4747L32.1471 54.5341V40.3028C32.1471 40.1341 32.1471 39.9935 32.1471 39.8247C32.3158 36.3091 34.2002 33.1028 37.2096 31.2185L40.5564 29.081C40.9221 28.8278 41.3158 28.6028 41.7096 28.3778C42.5814 27.056 43.3408 25.4247 42.8346 23.9341L36.5064 26.7185C34.9877 27.3935 33.5252 28.181 32.1189 29.0528L28.7721 31.1903C25.7908 33.0466 23.8783 36.281 23.7096 39.7966V40.2747V47.531H22.7814C21.3471 47.531 20.0814 48.4028 19.5471 49.6966C19.3783 50.1185 19.2939 50.5685 19.2939 51.0185C19.2939 52.9591 20.8689 54.5341 22.8096 54.5341H23.7377L24.1596 56.4747L24.5252 56.3903C27.4502 55.9685 30.1783 57.881 30.7971 60.7497L31.1346 62.3247C31.8096 65.5028 33.4408 68.4278 35.8033 70.6778C37.6596 69.2435 39.9377 68.456 42.3002 68.4278C42.0471 68.0903 41.8221 67.7528 41.5971 67.3872C40.6127 65.8403 39.9377 64.1247 39.5439 62.3247Z" fill="#3E61EE" fill-opacity="0.2"/>
<path d="M3.09375 107.409V130.584H11.5312V107.409C11.5312 95.175 21.0656 85.0219 33.2719 84.2906L33.3 84.2625V84.2344H26.2125C13.4437 84.2625 3.09375 94.6406 3.09375 107.409Z" fill="#3E61EE" fill-opacity="0.2"/>
<path d="M51.0752 54.7871C53.4939 54.7871 55.4346 52.8184 55.4346 50.4277C55.4346 49.4996 54.6752 48.7402 53.7471 48.7402C52.8189 48.7402 52.0596 49.4996 52.0596 50.4277C52.0596 50.9621 51.6096 51.4121 51.0752 51.4121C50.5408 51.4121 50.0908 50.9621 50.0908 50.4277C50.0908 49.4996 49.3314 48.7402 48.4033 48.7402C47.4752 48.7402 46.7158 49.4996 46.7158 50.4277C46.7158 52.8184 48.6564 54.7871 51.0752 54.7871Z" fill="#968B82"/>
<path d="M70.4813 113.85H65.1094C64.1813 113.85 63.4219 114.609 63.4219 115.537C63.4219 116.465 64.1813 117.225 65.1094 117.225H70.4813C71.4094 117.225 72.1688 116.465 72.1688 115.537C72.1688 114.609 71.4094 113.85 70.4813 113.85Z" fill="#968B82"/>
<path d="M37.6318 50.4277C37.6318 49.4996 36.8725 48.7402 35.9443 48.7402C35.0162 48.7402 34.2568 49.4996 34.2568 50.4277C34.2568 50.9621 33.8068 51.4121 33.2725 51.4121C32.7381 51.4121 32.2881 50.9621 32.2881 50.4277C32.2881 49.4996 31.5287 48.7402 30.6006 48.7402C29.6725 48.7402 28.9131 49.4996 28.9131 50.4277C28.9131 52.8465 30.8818 54.7871 33.2725 54.7871C35.6631 54.7871 37.6318 52.8184 37.6318 50.4277Z" fill="#968B82"/>
<path d="M58.6125 82.5749H53.2125V78.0468C56.7 75.4874 59.1469 71.7187 60.075 67.3874L62.4656 56.2499C65.1375 56.0249 67.2188 53.803 67.2188 51.0749C67.2188 50.5968 67.1625 50.1187 67.0219 49.6687V38.5312C67.0219 31.8937 63.225 25.7062 57.3469 22.6968C53.5219 18.478 48.1219 16.0874 42.4406 16.0874C36.7594 16.0874 31.3313 18.5062 27.5063 22.7249C21.6563 25.7343 17.8875 31.8937 17.8875 38.5312V49.4718C17.7188 49.978 17.6344 50.5124 17.6344 51.103C17.6344 53.8312 19.7437 56.053 22.3875 56.278L24.8062 67.5562C25.7344 71.8593 28.1812 75.628 31.6406 78.1874V82.603H26.2125C12.5437 82.5749 1.40625 93.7124 1.40625 107.409V130.584C1.40625 131.512 2.16563 132.272 3.09375 132.272H81.7313C82.6594 132.272 83.4188 131.512 83.4188 130.584V107.409C83.4188 93.7124 72.2812 82.5749 58.6125 82.5749ZM53.9156 23.9624C54.3094 24.328 54.7031 24.7218 55.0406 25.1437C55.1812 25.3124 55.3781 25.453 55.575 25.5374C60.4969 27.928 63.6469 33.0187 63.6469 38.4749V46.1249C63.3937 46.0405 63.1125 45.9843 62.8594 45.928V39.853C62.7469 36.5905 61.2844 33.4968 58.8375 31.2468C58.1344 30.5999 57.375 30.0937 56.5312 29.6718L52.8469 27.8437C53.4937 26.6905 53.8594 25.3687 53.9156 23.9624ZM21.2063 38.4749C21.2344 32.9905 24.4125 27.928 29.3062 25.5374C29.5875 25.3968 29.8125 25.1999 29.9812 24.9468C33.1594 21.4312 37.6875 19.4062 42.4406 19.4062C45.3094 19.4062 48.0938 20.1374 50.5406 21.5155V23.653C50.5406 26.6905 48.0656 29.1655 45.0562 29.1655H43.2844C44.325 27.5624 45.1125 25.4812 44.4375 23.4843C44.2969 23.0343 43.9594 22.6687 43.5094 22.4718C43.0594 22.2749 42.5812 22.2749 42.1313 22.4718L35.8031 25.2562C34.2 25.9593 32.6531 26.7749 31.1906 27.7312L27.8438 29.8687C24.3563 32.0905 22.1625 35.803 21.9937 39.8249V45.928C21.7125 45.9562 21.4594 46.0405 21.2063 46.1249V38.4749ZM25.3687 54.1968C25.2 53.4093 24.525 52.8749 23.7094 52.8749H22.8656C21.8531 52.8749 20.9813 52.0874 20.9531 51.103C20.925 50.0624 21.7406 49.2187 22.7812 49.2187H23.7094C24.6375 49.2187 25.3969 48.4593 25.3969 47.5312V39.9374C25.5094 37.0405 27.1125 34.3124 29.6719 32.7093L33.0188 30.5718C34.3406 29.728 35.7469 28.9687 37.1812 28.3499L40.7531 26.7749C40.1906 27.8155 39.2906 28.9124 38.5312 29.5874C38.025 30.0655 37.8281 30.7968 38.0812 31.4437C38.3344 32.0905 38.9531 32.5124 39.6562 32.5124H45.0281C47.1375 32.5124 49.0781 31.753 50.625 30.5155L54.3656 32.3155C56.1656 33.1874 57.6844 34.5937 58.5562 36.3655C59.1187 37.4624 59.4281 38.6999 59.4562 39.9374V47.5312C59.4562 48.4593 60.2156 49.2187 61.1437 49.2187H61.9312C62.9437 49.2187 63.8156 50.0062 63.8438 50.9905C63.8719 52.0312 63.0563 52.8749 62.0156 52.8749H61.0875C60.3 52.8749 59.5969 53.4374 59.4281 54.1968L59.3156 54.6468C55.9969 54.7312 53.0719 57.0655 52.3687 60.3843L52.0312 61.9593C51.6937 63.5905 51.075 65.1093 50.2031 66.5155C49.7812 67.2187 49.3031 67.8655 48.7687 68.4843C44.8312 66.178 39.9094 66.178 35.9719 68.4843C35.4375 67.8655 34.9594 67.2187 34.5375 66.5155C33.6656 65.1093 33.075 63.5624 32.7094 61.9593L32.3719 60.3843C31.6687 57.0655 28.7437 54.703 25.425 54.6468L25.3687 54.1968ZM28.0688 66.7968L26.2125 58.1624C27.6187 58.4999 28.8 59.6249 29.1094 61.1437L29.4469 62.7187C29.8687 64.7155 30.6281 66.5999 31.6969 68.3437C32.5125 69.6655 33.4969 70.8749 34.6219 71.9437C35.2125 72.5062 36.1406 72.5624 36.8156 72.0562C40.1344 69.5249 44.7469 69.5249 48.0375 72.0562C48.1219 72.1124 48.2062 72.1687 48.3188 72.2249C48.5719 72.3374 48.825 72.3937 49.0781 72.3937C49.5 72.3937 49.9219 72.2249 50.2313 71.9155C51.3563 70.8468 52.3406 69.6374 53.1562 68.3155C54.225 66.5718 54.9844 64.6874 55.4062 62.6905L55.7437 61.1155C56.0531 59.6249 57.2344 58.4718 58.6406 58.1343L56.8125 66.6562C55.8 71.353 52.5656 75.2343 48.1219 77.0624L43.2844 79.0593C42.975 79.1999 42.6656 79.2843 42.3844 79.2843C42.1031 79.2843 41.7656 79.1999 41.4281 79.0312L36.6187 77.1187C32.2594 75.2905 29.0531 71.4374 28.0688 66.7968ZM49.8375 80.0155V84.853C49.8375 88.5093 48.4313 91.9405 45.8719 94.5562L42.4125 98.0718L38.9531 94.5562C36.3937 91.9687 34.9875 88.5093 34.9875 84.853V80.0999L39.9375 82.0968C40.7531 82.4905 41.5688 82.6874 42.3563 82.6874C43.1156 82.6874 43.9031 82.4905 44.6906 82.1249L49.8375 80.0155ZM27.675 108.028L27.9 108.619C29.7 113.4 30.6281 118.434 30.6281 123.553V128.897H4.78125V107.409C4.78125 95.5686 14.4 85.9218 26.2125 85.9218H29.2781L22.6969 92.5593C22.3875 92.8687 22.1906 93.3186 22.2188 93.7686C22.2188 94.2187 22.4156 94.6405 22.7531 94.978L31.0781 102.853L28.0125 106.256C27.5625 106.762 27.45 107.437 27.675 108.028ZM50.3719 125.269V128.897H33.975V123.553C33.975 118.153 33.0188 112.866 31.1625 107.803L34.65 103.922C35.2687 103.247 35.2125 102.206 34.5656 101.559L26.325 93.7405L31.9219 88.0874C32.5406 91.4062 34.1437 94.4718 36.5625 96.9186L41.2313 101.672C41.5406 101.981 41.9906 102.178 42.4406 102.178C42.8906 102.178 43.3406 102.009 43.65 101.672L48.3188 96.9186C50.7375 94.4436 52.3125 91.378 52.9594 88.0593L58.5844 93.7405L50.3438 101.559C49.6688 102.178 49.6406 103.219 50.2594 103.922L53.7188 107.775C51.4688 113.372 50.3719 119.25 50.3719 125.269ZM80.0438 128.897H53.7469V125.269C53.7469 119.334 54.9 113.541 57.15 108.056C57.4031 107.466 57.2906 106.762 56.8406 106.284L53.775 102.881L62.1 95.0061C62.4375 94.6968 62.6063 94.2749 62.6344 93.7968C62.6344 93.3468 62.4656 92.8968 62.1562 92.5874L55.575 85.9499H58.6125C70.425 85.9499 80.0438 95.5968 80.0438 107.437V128.897Z" fill="#968B82"/>
<path d="M43.2563 65.9531H44.3531C45.2812 65.9531 46.0406 65.1937 46.0406 64.2656C46.0406 63.3375 45.2812 62.5781 44.3531 62.5781H43.2563C42.975 62.5781 42.75 62.3531 42.75 62.0719V56.6719C42.75 55.7437 41.9906 54.9844 41.0625 54.9844C40.1344 54.9844 39.375 55.7437 39.375 56.6719V62.0719C39.375 64.2094 41.1188 65.9531 43.2563 65.9531Z" fill="#968B82"/>
<path d="M40.7812 74.334H44.0719C45 74.334 45.7594 73.5746 45.7594 72.6465C45.7594 71.7184 45 70.959 44.0719 70.959H40.7812C39.8531 70.959 39.0938 71.7184 39.0938 72.6465C39.0938 73.5746 39.8531 74.334 40.7812 74.334Z" fill="#968B82"/>
</svg>
