<svg viewBox="0 0 80 80" fill="none" xmlns="http://www.w3.org/2000/svg">
<path d="M20.3594 48.9062H15.9844C8.10938 48.9062 1.71875 55.3125 1.71875 63.2031V77.5H6.40625V63.2031C6.40625 55.4375 12.5938 49.0938 20.3594 48.9062Z" fill="#3E61EE" fill-opacity="0.2"/>
<path d="M48 10.6561C48.4062 10.6561 48.7656 10.3905 48.8906 10.0155C49.1562 9.23424 49.7656 8.60924 50.5469 8.35924C51.0312 8.20299 51.2969 7.67174 51.1406 7.17174C51.0469 6.89049 50.8281 6.67174 50.5469 6.57799C49.7656 6.31237 49.1562 5.70299 48.8906 4.92174C48.7344 4.43737 48.2031 4.17174 47.7031 4.32799C47.4219 4.42174 47.2031 4.64049 47.1094 4.92174C46.8437 5.70299 46.2344 6.32799 45.4531 6.57799C44.9687 6.74987 44.7031 7.26549 44.8594 7.76549C44.9531 8.04674 45.1719 8.26549 45.4531 8.35924C46.2344 8.62487 46.8437 9.23424 47.1094 10.0155C47.25 10.3905 47.5937 10.6561 48 10.6561ZM48 7.04674C48.125 7.18737 48.2656 7.32799 48.4062 7.45299C48.2656 7.57799 48.125 7.71862 48 7.85924C47.875 7.71862 47.7344 7.57799 47.5937 7.45299C47.7344 7.32799 47.875 7.20299 48 7.04674Z" fill="#968B82"/>
<path d="M77.328 35.2186C76.4999 34.9374 75.8436 34.2811 75.578 33.453C75.4217 32.9686 74.8905 32.703 74.3905 32.8592C74.1092 32.953 73.8905 33.1717 73.7967 33.453C73.5155 34.2811 72.8749 34.9374 72.0467 35.2186C71.5624 35.3749 71.2967 35.9061 71.453 36.4061C71.5467 36.6874 71.7655 36.9061 72.0467 36.9999C72.8749 37.2811 73.5311 37.9374 73.7967 38.7655C73.953 39.2499 74.4842 39.5155 74.9842 39.3592C75.2655 39.2655 75.4842 39.0467 75.578 38.7655C75.8592 37.9374 76.4999 37.2811 77.328 36.9999C77.8124 36.8436 78.078 36.3124 77.9217 35.8124C77.828 35.5311 77.6092 35.3124 77.328 35.2186ZM74.6874 36.5936C74.5311 36.4217 74.3749 36.2499 74.1874 36.0936C74.3592 35.9374 74.5311 35.7811 74.6874 35.5936C74.8436 35.7655 74.9999 35.9374 75.1874 36.0936C74.9999 36.2655 74.828 36.4217 74.6874 36.5936Z" fill="#968B82"/>
<path d="M69.281 39.875C68.4373 39.875 67.7498 40.5625 67.7498 41.4063C67.7498 42.25 68.4373 42.9375 69.281 42.9375C70.1248 42.9375 70.8123 42.25 70.8123 41.4063C70.7966 40.5625 70.1248 39.875 69.281 39.875Z" fill="#968B82"/>
<path d="M35.4688 68.2031C35.4688 68.7188 35.8906 69.1406 36.4062 69.1406H45.9688C46.4844 69.1406 46.9062 68.7188 46.9062 68.2031C46.9062 67.6875 46.4844 67.2656 45.9688 67.2656H36.4062C35.8906 67.2656 35.4688 67.6875 35.4688 68.2031Z" fill="#3E61EE"/>
<path d="M28.4689 31.25H24.1876C22.1564 31.25 20.5157 32.8906 20.5157 34.9219V35.8437C20.5157 36.3594 20.9376 36.7812 21.4532 36.7812C22.3439 36.7812 23.2032 36.4687 23.8595 35.875C24.4064 36.4531 25.1407 36.7969 25.922 36.8437H26.1095C26.8751 36.8437 27.6095 36.5625 28.1876 36.0625L28.3751 35.8906C29.1407 36.4687 30.0782 36.7812 31.0314 36.7812H31.172C31.6876 36.7812 32.1095 36.3594 32.1095 35.8437V34.9219C32.1251 32.8906 30.4845 31.25 28.4689 31.25ZM29.1251 34.0156C28.7814 33.625 28.2032 33.5781 27.797 33.9062L27.7814 33.9219L26.9532 34.6562C26.7032 34.875 26.3751 34.9844 26.047 34.9687C25.6876 34.9531 25.3439 34.7656 25.1251 34.4687L24.6407 33.8125C24.4689 33.5781 24.1876 33.4375 23.8907 33.4375C23.8751 33.4375 23.8751 33.4375 23.8595 33.4375C23.547 33.4531 23.2657 33.6094 23.1095 33.875L22.9845 34.0781C22.8439 34.2969 22.6564 34.4844 22.422 34.625C22.5626 33.75 23.3126 33.125 24.1876 33.125H28.4689C29.4064 33.125 30.1876 33.8438 30.2501 34.7812C29.8126 34.625 29.422 34.3594 29.1251 34.0156Z" fill="#3E61EE"/>
<path d="M27.2031 38.2031H24.7656C24.25 38.2031 23.8281 38.625 23.8281 39.1406C23.8281 39.6562 24.25 40.0781 24.7656 40.0781H27.2031C27.7188 40.0781 28.1406 39.6562 28.1406 39.1406C28.1406 38.625 27.7188 38.2031 27.2031 38.2031Z" fill="#3E61EE"/>
<path d="M22.922 25.5625C22.922 25.5469 22.922 25.5312 22.922 25.5156C22.922 25 22.5002 24.5781 21.9845 24.5781C21.4689 24.5781 21.047 25 21.047 25.5156C21.047 25.9062 20.7345 26.2344 20.3439 26.2344C19.9533 26.2344 19.6252 25.9219 19.6252 25.5312V25.5156C19.6252 25 19.2033 24.5781 18.6877 24.5781C18.172 24.5781 17.7502 25 17.7502 25.5156C17.7345 26.9531 18.8908 28.1094 20.3127 28.125C21.7502 28.1406 22.922 27 22.922 25.5625Z" fill="#3E61EE"/>
<path d="M31.3125 28.125C32.75 28.1406 33.9063 26.9844 33.9219 25.5625C33.9219 25.5469 33.9219 25.5312 33.9219 25.5156C33.9219 25 33.5 24.5781 32.9844 24.5781C32.4688 24.5781 32.0469 25 32.0469 25.5156C32.0469 25.9062 31.7344 26.2344 31.3438 26.2344C30.9532 26.2344 30.625 25.9219 30.625 25.5312V25.5156C30.625 25 30.2032 24.5781 29.6875 24.5781C29.1719 24.5781 28.75 25 28.75 25.5156C28.7344 26.9531 29.875 28.125 31.3125 28.125Z" fill="#3E61EE"/>
<path d="M21.2813 31.0781C23.2032 30.7031 24.7188 29.1875 25.0938 27.2656H26.5626C27.0782 29.8906 29.6251 31.5781 32.2501 31.0625C34.8751 30.5469 36.5626 28 36.047 25.375C35.5938 23.1094 33.6095 21.4844 31.3126 21.4844C29.0001 21.4844 27.0157 23.125 26.5626 25.3906H25.0938C24.5782 22.7656 22.0313 21.0625 19.4063 21.5781C16.7813 22.0938 15.0782 24.6406 15.5938 27.2656C16.1095 29.8906 18.6563 31.5937 21.2813 31.0781ZM31.297 23.3594C32.9376 23.3594 34.2657 24.6875 34.2657 26.3125C34.2657 27.9531 32.9376 29.2812 31.3126 29.2812C29.672 29.2812 28.3438 27.9531 28.3438 26.3281C28.3282 24.7031 29.6563 23.3594 31.297 23.3594ZM17.3751 26.3281C17.3751 24.6875 18.7032 23.3594 20.3282 23.3594C21.9532 23.3594 23.297 24.6875 23.297 26.3125C23.297 27.9531 21.9688 29.2812 20.3438 29.2812C18.7188 29.2969 17.3907 27.9687 17.3751 26.3281Z" fill="#3E61EE"/>
<path d="M18.828 20.1719C19.2811 19.8594 19.8124 19.7031 20.3436 19.7031C21.3905 19.7031 22.3436 20.3125 22.7968 21.25C23.0155 21.7188 23.578 21.9219 24.0468 21.7031C24.5155 21.4844 24.7186 20.9219 24.4999 20.4531C24.4999 20.4531 24.4999 20.4375 24.4843 20.4375C23.7186 18.8594 22.1093 17.8438 20.3436 17.8281C19.4218 17.8281 18.5311 18.1094 17.7655 18.625C17.3436 18.9219 17.2186 19.5 17.5155 19.9219C17.828 20.3438 18.4061 20.4531 18.828 20.1719Z" fill="#3E61EE"/>
<path d="M27.5779 21.6404C28.0623 21.8435 28.6091 21.6091 28.7966 21.1404C29.2185 20.1247 30.2029 19.4685 31.2966 19.4685C31.7341 19.4685 32.156 19.5622 32.531 19.7654C32.9841 19.9997 33.5623 19.8279 33.7966 19.3747C34.031 18.9216 33.8591 18.3435 33.406 18.1091H33.3904C31.1404 16.9529 28.3748 17.8435 27.2029 20.0935C27.1404 20.2029 27.0935 20.3122 27.0466 20.4216C26.8748 20.8904 27.1091 21.4372 27.5779 21.6404Z" fill="#3E61EE"/>
<path d="M35.9688 47.9688H32.5313V41.8906C34.6719 40.3125 36.2031 38 36.7813 35.3438L38.2656 28.3906C39.8906 28.2969 41.1875 26.9375 41.1875 25.2969C41.1875 25 41.1406 24.7031 41.0625 24.4375V17.5469C41.0625 13.4844 38.7344 9.70313 35.125 7.85938C32.7969 5.28125 29.4688 3.79688 25.9844 3.79688C22.5 3.79688 19.1719 5.28125 16.8281 7.875C13.25 9.70313 10.9375 13.4688 10.9375 17.5312V24.3125C10.8281 24.625 10.7813 24.9531 10.7813 25.2969C10.7813 26.9531 12.0781 28.2969 13.7031 28.3906L15.2031 35.4219C15.7656 38.0781 17.2969 40.3906 19.4375 41.9688V47.9688H16C7.60938 47.9688 0.78125 54.7969 0.78125 63.2031V77.5C0.78125 78.0156 1.20313 78.4375 1.71875 78.4375H50.25C50.7656 78.4375 51.1875 78.0156 51.1875 77.5V63.2031C51.1875 54.7969 44.3594 47.9688 35.9688 47.9688ZM39.2031 17.5312V22.3906C38.9844 22.3125 38.75 22.2344 38.5 22.2031V18.6719C38.5 16.8438 37.8906 15.0313 36.7656 13.5938C36.0313 12.6563 35.6094 11.4844 35.5156 10.2656C37.7969 11.9375 39.2031 14.6562 39.2031 17.5312ZM20.7969 7.04688C22.3594 6.15625 24.1406 5.65625 25.9844 5.65625C27.7969 5.65625 29.5469 6.125 31.0938 7V8.375C31.0938 10.2969 29.5313 11.875 27.6094 11.875H24.2813C22.3594 11.875 20.7969 10.3125 20.7969 8.375V7.04688ZM12.7969 17.5312C12.8125 14.6562 14.2188 11.9375 16.5 10.2656V10.4219C16.5 11.5313 16.125 12.5781 15.4375 13.375C14.1875 14.8438 13.5 16.7344 13.5 18.6875V22.2188C13.25 22.25 13.0156 22.3125 12.7969 22.3906V17.5312ZM17.0313 35.0156L15.375 27.25C15.2813 26.8125 14.9063 26.5156 14.4531 26.5156H13.875C13.2031 26.5156 12.6563 25.9688 12.6563 25.2813C12.6563 24.5938 13.2031 24.0469 13.875 24.0469H14.4531C14.9688 24.0469 15.3906 23.625 15.3906 23.1094V18.6719C15.3906 17.1719 15.9219 15.7188 16.875 14.5781C17.8438 13.4375 18.375 11.9688 18.375 10.4219V8.95313C18.5469 8.76563 18.7344 8.59375 18.9219 8.42188C18.9531 11.3594 21.3438 13.75 24.2813 13.75H27.6094C30.5625 13.75 32.9688 11.3438 32.9688 8.375V8.34375C33.1875 8.54688 33.4063 8.75 33.6094 8.96875V9.84375C33.6094 11.625 34.2031 13.3594 35.2656 14.75C36.125 15.875 36.6094 17.2656 36.6094 18.6875V23.125C36.6094 23.6406 37.0313 24.0625 37.5469 24.0625H38.0781C38.75 24.0625 39.2969 24.6094 39.2969 25.2969C39.2969 25.9844 38.75 26.5313 38.0781 26.5313H37.5C37.0625 26.5313 36.6719 26.8438 36.5781 27.2656L34.9375 34.9531C34.3125 37.8906 32.2813 40.3281 29.5 41.4531L26.5313 42.6875C26.3125 42.7813 26.125 42.8438 25.9375 42.8438C25.7656 42.8438 25.5625 42.7969 25.3594 42.7031L22.3438 41.4844C19.6406 40.3281 17.6406 37.9219 17.0313 35.0156ZM30.6406 43.0156L30.4844 51.0781C29.5 52.625 27.8281 53.5469 25.9844 53.5469C24.1406 53.5469 22.4844 52.625 21.4844 51.0781L21.3281 43.0781L24.6094 44.3906C25.0625 44.5938 25.5156 44.6875 25.9531 44.6875C26.4063 44.6875 26.875 44.5781 27.3438 44.3594L30.6406 43.0156ZM21.9531 76.5625H2.65625V63.2031C2.65625 55.8281 8.64063 49.8438 16 49.8438H18.125L13.8906 54.125C13.7188 54.2969 13.6094 54.5469 13.625 54.7969C13.625 55.0469 13.7344 55.2813 13.9219 55.4688L19.125 60.4063L17.1719 62.5938C16.8438 62.9688 16.8594 63.5313 17.2031 63.8906L20.0781 66.75C21.2813 67.9531 21.9531 69.5469 21.9531 71.25V76.5625ZM25.0469 76.5625H23.8125V71.2188C23.8125 69.0156 22.9531 66.9531 21.3906 65.3906L19.1563 63.1563L21.125 60.9531C21.4688 60.5781 21.4375 60 21.0781 59.6406L15.9063 54.7344L19.5781 51.0156C19.9375 53.125 20.9219 55.0625 22.4375 56.6094L25.0469 59.2656V76.5625ZM23.4375 54.9531C24.2344 55.25 25.0938 55.4219 26 55.4219C26.8906 55.4219 27.75 55.2656 28.5625 54.9531L26.0156 57.5781L23.4375 54.9531ZM27.875 76.5625H26.9219V59.2969L29.5313 56.6406C31.0625 55.0938 32.0469 53.1406 32.3906 51.0313L36.0781 54.75L30.9063 59.6563C30.5313 60 30.5156 60.5781 30.8594 60.9688L32.8281 63.1719L30.2969 65.7031C28.7344 67.25 27.875 69.3281 27.875 71.5313V76.5625ZM49.3281 76.5625H29.75V71.5156C29.75 69.8125 30.4063 68.2188 31.6094 67.0156L34.7656 63.8594C35.125 63.5 35.1406 62.9375 34.7969 62.5625L32.8438 60.375L38.0469 55.4375C38.2344 55.2656 38.3281 55.0313 38.3438 54.7656C38.3438 54.5156 38.25 54.2656 38.0781 54.0938L33.8594 49.8438H35.9844C43.3438 49.8438 49.3281 55.8438 49.3281 63.2031V76.5625Z" fill="#3E61EE"/>
<path d="M76.3127 18.4063C75.797 18.4532 75.422 18.9063 75.4689 19.4219V19.4532C76.2658 27.0469 70.7658 33.8594 63.172 34.6563C62.3127 34.7501 61.4533 34.75 60.5939 34.6875C60.0783 34.6407 59.6252 35.0157 59.5783 35.5313C59.5314 36.0469 59.9064 36.5 60.4221 36.5469H60.4377C60.8752 36.5782 61.297 36.5938 61.7345 36.5938C70.4064 36.5782 77.422 29.5469 77.422 20.8751C77.4064 20.3282 77.3908 19.7813 77.3283 19.25C77.2814 18.7344 76.8283 18.3594 76.3127 18.4063Z" fill="#968B82"/>
<path d="M53.1874 34.0469C53.6249 34.3282 54.203 34.2032 54.4843 33.7813C54.7655 33.3438 54.6405 32.7657 54.2187 32.4844C47.8124 28.2969 46.0155 19.7032 50.203 13.2813C50.7187 12.4844 51.3124 11.75 51.9843 11.0782C57.3593 5.68755 66.078 5.67192 71.4687 11.0469C71.4687 11.0625 71.4843 11.0782 71.4843 11.0938C72.1405 11.75 72.7343 12.4844 73.2499 13.2657C73.5311 13.7032 74.1093 13.8282 74.5468 13.5469C74.9843 13.2657 75.1093 12.6875 74.828 12.25L74.8124 12.2344C74.2343 11.3438 73.5624 10.5313 72.8124 9.7813C66.7187 3.64067 56.7968 3.62505 50.6718 9.7188C50.6562 9.73442 50.6405 9.75005 50.6405 9.75005C44.4999 15.9063 44.5155 25.875 50.6874 32.0157C51.453 32.7813 52.2812 33.4532 53.1874 34.0469Z" fill="#968B82"/>
<path d="M52.6095 27.8121C52.9063 28.234 53.5001 28.3277 53.922 28.0308C54.3438 27.734 54.4376 27.1402 54.1407 26.7183L54.1251 26.7027C53.9376 26.4527 53.7657 26.2027 53.6095 25.9371C53.3438 25.4996 52.7657 25.359 52.3282 25.6246C51.8907 25.8902 51.7501 26.4683 52.0157 26.9058C52.2032 27.2183 52.4063 27.5152 52.6095 27.8121Z" fill="#968B82"/>
<path d="M51.9842 15.2808C51.4999 15.1089 50.9686 15.3746 50.7967 15.8746C49.9686 18.3121 49.8749 20.9527 50.5311 23.4371C50.6561 23.9371 51.1717 24.2339 51.6717 24.1089C52.1717 23.9839 52.4686 23.4683 52.3436 22.9683C51.7811 20.8277 51.8592 18.5777 52.5623 16.4839C52.7342 15.9839 52.4686 15.4527 51.9842 15.2808Z" fill="#968B82"/>
<path d="M53.9689 4.5625C54.7973 4.5625 55.4689 3.89093 55.4689 3.0625C55.4689 2.23407 54.7973 1.5625 53.9689 1.5625C53.1404 1.5625 52.4689 2.23407 52.4689 3.0625C52.4689 3.89093 53.1404 4.5625 53.9689 4.5625Z" fill="#968B82"/>
<path d="M69.4844 26.031C69.8125 26.1247 70.1719 26.1716 70.5312 26.1716C72.7656 26.1716 74.5625 24.3591 74.5625 22.1403C74.5625 21.7653 74.5156 21.3903 74.4062 21.0466C74.375 20.9216 74.3281 20.7966 74.2812 20.6716C74.25 20.5935 74.2187 20.5153 74.1875 20.4372C79.375 13.3122 80.625 7.81221 77.7031 4.87471C75.3906 2.57784 71.8437 3.29658 69.2656 4.31221C68.7812 4.49971 68.5469 5.04659 68.7344 5.53096C68.9219 6.01534 69.4687 6.24971 69.9531 6.06221H69.9687C72.9531 4.89033 75.0937 4.93721 76.375 6.21846C78.4531 8.31221 77.1719 13.031 72.9687 18.9216C72.2969 18.406 71.4375 18.0935 70.5312 18.0935C68.2969 18.0935 66.5 19.906 66.5 22.1247C66.5 23.2966 67 24.3591 67.8125 25.0935C67.5156 25.406 67.2187 25.7028 66.9062 26.0153C60.5469 32.3903 53.8437 36.5153 49.8281 36.5153C48.6875 36.5153 47.7969 36.1872 47.1406 35.531C45.4844 33.8591 46.2344 30.8903 47.1562 28.6872C47.3594 28.2185 47.1406 27.656 46.6562 27.4528C46.1719 27.2497 45.625 27.4685 45.4219 27.9528C44.2656 30.6872 43.4062 34.4528 45.7969 36.8435C46.8125 37.8591 48.1719 38.3747 49.8125 38.3747C55.2656 38.3747 62.8906 32.6716 68.2187 27.3278C68.625 26.9216 69.0625 26.4685 69.4844 26.031ZM70.5156 20.0466C71.6875 20.0466 72.6562 20.9841 72.6719 22.1716V22.1872C72.6719 23.3591 71.7344 24.3278 70.5469 24.3278C69.3594 24.3278 68.4062 23.3903 68.3906 22.2028C68.375 21.031 69.3281 20.0622 70.5156 20.0466Z" fill="#968B82"/>
</svg>
