<svg viewBox="0 0 80 80" fill="none" xmlns="http://www.w3.org/2000/svg">
<path d="M54.6414 27.0126C55.4229 27.0126 56.0564 26.3791 56.0564 25.5976C56.0564 24.8161 55.4229 24.1826 54.6414 24.1826C53.86 24.1826 53.2264 24.8161 53.2264 25.5976C53.2264 26.3791 53.86 27.0126 54.6414 27.0126Z" fill="#3E61EE"/>
<path d="M43.5014 21.4422C44.1949 21.4422 44.7572 20.88 44.7572 20.1864C44.7572 19.4929 44.1949 18.9307 43.5014 18.9307C42.8078 18.9307 42.2456 19.4929 42.2456 20.1864C42.2456 20.88 42.8078 21.4422 43.5014 21.4422Z" fill="#3E61EE"/>
<path d="M67.6914 20.169C67.9083 20.169 68.1204 20.1047 68.3007 19.9842C68.4811 19.8637 68.6217 19.6924 68.7047 19.492C68.7877 19.2916 68.8094 19.0711 68.7671 18.8583C68.7248 18.6456 68.6203 18.4502 68.4669 18.2968C68.3136 18.1434 68.1181 18.039 67.9054 17.9967C67.6927 17.9543 67.4721 17.9761 67.2717 18.0591C67.0713 18.1421 66.9001 18.2826 66.7796 18.463C66.659 18.6434 66.5947 18.8554 66.5947 19.0723C66.595 19.3631 66.7107 19.6419 66.9163 19.8475C67.1219 20.0531 67.4007 20.1687 67.6914 20.169Z" fill="#3E61EE"/>
<path d="M25.6771 37.9929C25.9884 37.9929 26.2927 37.9005 26.5516 37.7276C26.8104 37.5546 27.0122 37.3088 27.1313 37.0212C27.2505 36.7335 27.2816 36.417 27.2209 36.1117C27.1602 35.8064 27.0103 35.5259 26.7901 35.3058C26.57 35.0856 26.2895 34.9357 25.9842 34.875C25.6788 34.8142 25.3623 34.8454 25.0747 34.9645C24.7871 35.0837 24.5413 35.2854 24.3683 35.5443C24.1953 35.8031 24.103 36.1075 24.103 36.4188C24.1035 36.8361 24.2695 37.2362 24.5646 37.5313C24.8597 37.8264 25.2598 37.9924 25.6771 37.9929ZM25.6771 36.1179C25.7366 36.1179 25.7948 36.1355 25.8443 36.1686C25.8938 36.2016 25.9323 36.2486 25.9551 36.3036C25.9779 36.3586 25.9839 36.4191 25.9722 36.4775C25.9606 36.5359 25.932 36.5895 25.8899 36.6316C25.8478 36.6737 25.7942 36.7023 25.7358 36.7139C25.6774 36.7256 25.6169 36.7196 25.5619 36.6968C25.5069 36.674 25.4599 36.6355 25.4269 36.586C25.3938 36.5365 25.3762 36.4783 25.3762 36.4188C25.3762 36.339 25.408 36.2625 25.4644 36.2061C25.5208 36.1497 25.5973 36.1179 25.6771 36.1179Z" fill="#3E61EE"/>
<path d="M24.8814 41.335C25.4871 41.335 25.9781 40.844 25.9781 40.2383C25.9781 39.6326 25.4871 39.1416 24.8814 39.1416C24.2757 39.1416 23.7847 39.6326 23.7847 40.2383C23.7847 40.844 24.2757 41.335 24.8814 41.335Z" fill="#3E61EE"/>
<path d="M42.7053 72.2089C42.9852 72.209 43.2588 72.126 43.4916 71.9706C43.7243 71.8151 43.9057 71.5942 44.0128 71.3356C44.12 71.0771 44.1481 70.7926 44.0935 70.518C44.0389 70.2435 43.9042 69.9914 43.7063 69.7935C43.5084 69.5955 43.2563 69.4607 42.9818 69.4061C42.7073 69.3515 42.4228 69.3795 42.1642 69.4866C41.9056 69.5937 41.6846 69.775 41.5291 70.0077C41.3736 70.2404 41.2906 70.514 41.2906 70.7939C41.2911 71.169 41.4402 71.5286 41.7054 71.7939C41.9706 72.0592 42.3302 72.2084 42.7053 72.2089V72.2089Z" fill="#3E61EE"/>
<path d="M25.8362 53.1114C26.4419 53.1114 26.9329 52.6204 26.9329 52.0147C26.9329 51.409 26.4419 50.918 25.8362 50.918C25.2305 50.918 24.7395 51.409 24.7395 52.0147C24.7395 52.6204 25.2305 53.1114 25.8362 53.1114Z" fill="#3E61EE"/>
<path d="M6.43774 48.9919C6.43771 49.3032 6.53 49.6075 6.70295 49.8664C6.87589 50.1253 7.12171 50.3271 7.40933 50.4462C7.69695 50.5654 8.01345 50.5966 8.3188 50.5359C8.62414 50.4751 8.90463 50.3252 9.12478 50.1051C9.34494 49.885 9.49487 49.6045 9.55561 49.2992C9.61636 48.9938 9.5852 48.6773 9.46607 48.3897C9.34693 48.1021 9.14518 47.8562 8.88633 47.6833C8.62747 47.5103 8.32313 47.418 8.01181 47.418C7.59452 47.4185 7.19446 47.5844 6.89938 47.8795C6.6043 48.1745 6.43828 48.5746 6.43774 48.9919V48.9919Z" fill="#3E61EE"/>
<path d="M71.8289 37.9929C72.1403 37.9929 72.4446 37.9005 72.7035 37.7276C72.9623 37.5546 73.1641 37.3088 73.2832 37.0212C73.4023 36.7335 73.4335 36.417 73.3728 36.1117C73.312 35.8064 73.1621 35.5259 72.942 35.3058C72.7219 35.0856 72.4414 34.9357 72.136 34.875C71.8307 34.8142 71.5142 34.8454 71.2266 34.9645C70.939 35.0837 70.6931 35.2854 70.5202 35.5443C70.3472 35.8031 70.2549 36.1075 70.2549 36.4188C70.2553 36.8361 70.4213 37.2363 70.7164 37.5314C71.0115 37.8265 71.4116 37.9924 71.8289 37.9929V37.9929Z" fill="#3E61EE"/>
<path d="M30.2923 8.23348C30.898 8.23348 31.389 7.74246 31.389 7.13676C31.389 6.53106 30.898 6.04004 30.2923 6.04004C29.6866 6.04004 29.1956 6.53106 29.1956 7.13676C29.1956 7.74246 29.6866 8.23348 30.2923 8.23348Z" fill="#3E61EE"/>
<path d="M13.6791 69.4413C13.6791 69.8156 13.7901 70.1814 13.9981 70.4926C14.206 70.8038 14.5016 71.0463 14.8474 71.1895C15.1932 71.3327 15.5737 71.3702 15.9408 71.2971C16.3078 71.2241 16.645 71.0438 16.9096 70.7791C17.1742 70.5145 17.3544 70.1773 17.4274 69.8102C17.5004 69.4431 17.4629 69.0626 17.3197 68.7169C17.1764 68.3711 16.9338 68.0756 16.6226 67.8677C16.3114 67.6598 15.9455 67.5488 15.5713 67.5488C15.0696 67.5494 14.5886 67.749 14.2339 68.1038C13.8791 68.4586 13.6796 68.9396 13.6791 69.4413V69.4413Z" fill="#3E61EE"/>
<path d="M65.9406 73.1641C66.5463 73.1641 67.0373 72.6731 67.0373 72.0674C67.0373 71.4617 66.5463 70.9707 65.9406 70.9707C65.3349 70.9707 64.8439 71.4617 64.8439 72.0674C64.8439 72.6731 65.3349 73.1641 65.9406 73.1641Z" fill="#3E61EE"/>
<path d="M13.9004 4.73211C14.2117 4.73211 14.516 4.63979 14.7749 4.46683C15.0337 4.29387 15.2355 4.04804 15.3546 3.76042C15.4737 3.47279 15.5049 3.1563 15.4442 2.85096C15.3834 2.54563 15.2335 2.26515 15.0134 2.04502C14.7933 1.82488 14.5128 1.67497 14.2074 1.61423C13.9021 1.55349 13.5856 1.58467 13.298 1.7038C13.0104 1.82294 12.7645 2.02469 12.5916 2.28355C12.4186 2.5424 12.3263 2.84673 12.3263 3.15805C12.3267 3.57538 12.4927 3.97548 12.7878 4.27058C13.0829 4.56567 13.483 4.73166 13.9004 4.73211V4.73211ZM13.9004 2.85711C13.9599 2.85711 14.0181 2.87476 14.0675 2.90783C14.117 2.94089 14.1556 2.98789 14.1784 3.04288C14.2012 3.09787 14.2071 3.15838 14.1955 3.21676C14.1839 3.27513 14.1552 3.32876 14.1132 3.37084C14.0711 3.41293 14.0174 3.44159 13.9591 3.4532C13.9007 3.46481 13.8402 3.45885 13.7852 3.43608C13.7302 3.4133 13.6832 3.37473 13.6501 3.32524C13.6171 3.27575 13.5994 3.21757 13.5994 3.15805C13.5995 3.07827 13.6313 3.0018 13.6877 2.94539C13.7441 2.88898 13.8206 2.85723 13.9004 2.85711V2.85711Z" fill="#3E61EE"/>
<path d="M49.7081 7.11891C50.0509 7.11891 50.3861 7.01725 50.6711 6.8268C50.9561 6.63634 51.1783 6.36564 51.3095 6.04892C51.4407 5.73221 51.475 5.3837 51.4081 5.04748C51.3412 4.71126 51.1762 4.40241 50.9338 4.16001C50.6913 3.91761 50.3825 3.75253 50.0463 3.68565C49.7101 3.61877 49.3616 3.65309 49.0448 3.78428C48.7281 3.91547 48.4574 4.13763 48.267 4.42267C48.0765 4.7077 47.9749 5.04282 47.9749 5.38563C47.9754 5.84516 48.1582 6.28571 48.4831 6.61065C48.8081 6.93558 49.2486 7.11837 49.7081 7.11891V7.11891ZM49.7081 5.24391C49.7362 5.24391 49.7636 5.25222 49.7869 5.26779C49.8102 5.28336 49.8283 5.3055 49.8391 5.33139C49.8498 5.35729 49.8526 5.38578 49.8471 5.41327C49.8417 5.44076 49.8282 5.46602 49.8083 5.48584C49.7885 5.50566 49.7633 5.51915 49.7358 5.52462C49.7083 5.53009 49.6798 5.52728 49.6539 5.51656C49.628 5.50583 49.6059 5.48767 49.5903 5.46436C49.5747 5.44106 49.5664 5.41366 49.5664 5.38563C49.5665 5.34805 49.5814 5.31203 49.608 5.28546C49.6345 5.25889 49.6706 5.24395 49.7081 5.24391V5.24391Z" fill="#3E61EE"/>
<path d="M53.5273 9.18856C54.133 9.18856 54.624 8.69754 54.624 8.09184C54.624 7.48614 54.133 6.99512 53.5273 6.99512C52.9216 6.99512 52.4305 7.48614 52.4305 8.09184C52.4305 8.69754 52.9216 9.18856 53.5273 9.18856Z" fill="#3E61EE"/>
<path d="M11.1949 6.4825C11.8006 6.4825 12.2916 5.99148 12.2916 5.38578C12.2916 4.78008 11.8006 4.28906 11.1949 4.28906C10.5892 4.28906 10.0981 4.78008 10.0981 5.38578C10.0981 5.99148 10.5892 6.4825 11.1949 6.4825Z" fill="#3E61EE"/>
<path d="M7.53483 30.8319C8.22838 30.8319 8.79062 30.2696 8.79062 29.5761C8.79062 28.8825 8.22838 28.3203 7.53483 28.3203C6.84128 28.3203 6.27905 28.8825 6.27905 29.5761C6.27905 30.2696 6.84128 30.8319 7.53483 30.8319Z" fill="#3E61EE"/>
<path d="M71.5107 8.07406C71.759 8.07406 72.0018 8.00041 72.2083 7.86242C72.4148 7.72444 72.5758 7.52831 72.6709 7.29885C72.7659 7.06938 72.7908 6.81689 72.7423 6.57329C72.6939 6.32969 72.5743 6.10593 72.3986 5.93031C72.223 5.75469 71.9992 5.63508 71.7556 5.58663C71.5121 5.53818 71.2596 5.56304 71.0301 5.65809C70.8006 5.75314 70.6045 5.91409 70.4665 6.12061C70.3285 6.32712 70.2549 6.56991 70.2549 6.81828C70.2553 7.15122 70.3877 7.47042 70.6231 7.70584C70.8585 7.94127 71.1777 8.07369 71.5107 8.07406V8.07406Z" fill="#3E61EE"/>
<path d="M26.823 54.7209C26.823 54.9176 26.8849 55.1093 26.9998 55.2688C27.1148 55.4284 27.2771 55.5478 27.4636 55.6101C27.8815 55.7513 28.261 55.9874 28.5723 56.2998C28.8837 56.6123 29.1185 56.9925 29.2583 57.4109C29.3204 57.5977 29.4398 57.7602 29.5995 57.8754C29.7591 57.9906 29.951 58.0526 30.1479 58.0526C30.3448 58.0526 30.5367 57.9906 30.6964 57.8754C30.856 57.7602 30.9754 57.5977 31.0375 57.4109C31.1772 56.9924 31.412 56.612 31.7233 56.2995C32.0347 55.987 32.4142 55.7508 32.8321 55.6095C33.0185 55.5471 33.1807 55.4277 33.2956 55.2682C33.4105 55.1086 33.4723 54.917 33.4723 54.7203C33.4723 54.5237 33.4105 54.332 33.2956 54.1725C33.1807 54.0129 33.0185 53.8935 32.8321 53.8312C32.4143 53.6901 32.0348 53.4541 31.7234 53.1419C31.412 52.8296 31.1772 52.4495 31.0372 52.0313C30.9751 51.8445 30.8557 51.682 30.6961 51.5668C30.5364 51.4516 30.3445 51.3896 30.1476 51.3896C29.9507 51.3896 29.7588 51.4516 29.5992 51.5668C29.4395 51.682 29.3201 51.8445 29.258 52.0313C29.1182 52.4497 28.8834 52.83 28.572 53.1424C28.2606 53.4548 27.8812 53.6909 27.4633 53.8321C27.2769 53.8944 27.1148 54.0138 26.9998 54.1733C26.8849 54.3327 26.8231 54.5243 26.823 54.7209V54.7209ZM30.1475 54.1957C30.3085 54.3841 30.4839 54.5597 30.6721 54.7209C30.4839 54.8822 30.3085 55.0578 30.1475 55.2462C29.9867 55.0577 29.8114 54.8821 29.6233 54.7209C29.8115 54.5598 29.9867 54.3842 30.1475 54.1957Z" fill="#3E61EE"/>
<path d="M67.4087 74.998C67.2222 75.0603 67.0601 75.1797 66.9452 75.3393C66.8303 75.4988 66.7684 75.6905 66.7684 75.8871C66.7684 76.0838 66.8303 76.2754 66.9452 76.435C67.0601 76.5945 67.2222 76.7139 67.4087 76.7763C67.8266 76.9175 68.2061 77.1535 68.5175 77.466C68.8288 77.7784 69.0636 78.1587 69.2034 78.577C69.2655 78.7639 69.3849 78.9264 69.5446 79.0416C69.7042 79.1568 69.8961 79.2187 70.093 79.2187C70.2899 79.2187 70.4818 79.1568 70.6415 79.0416C70.8011 78.9264 70.9205 78.7639 70.9826 78.577C71.1225 78.1587 71.3573 77.7784 71.6687 77.466C71.9801 77.1536 72.3596 76.9175 72.7775 76.7763C72.964 76.7139 73.1261 76.5945 73.241 76.435C73.3559 76.2754 73.4178 76.0838 73.4178 75.8871C73.4178 75.6905 73.3559 75.4988 73.241 75.3393C73.1261 75.1797 72.964 75.0603 72.7775 74.998C72.3596 74.8568 71.9801 74.6208 71.6687 74.3084C71.3573 73.996 71.1224 73.6157 70.9826 73.1974C70.9205 73.0105 70.8011 72.848 70.6415 72.7328C70.4818 72.6176 70.2899 72.5557 70.093 72.5557C69.8961 72.5557 69.7042 72.6176 69.5446 72.7328C69.3849 72.848 69.2655 73.0105 69.2034 73.1974C69.0636 73.6157 68.8289 73.996 68.5175 74.3084C68.2061 74.6208 67.8266 74.8568 67.4087 74.998V74.998ZM70.0931 75.362C70.2539 75.5505 70.4292 75.7261 70.6173 75.8872C70.4292 76.0483 70.2539 76.2239 70.0931 76.4124C69.9322 76.224 69.757 76.0484 69.5689 75.8872C69.7569 75.726 69.9322 75.5504 70.0931 75.362V75.362Z" fill="#3E61EE"/>
<path d="M30.6461 5.00201C31.064 5.14317 31.4436 5.37921 31.755 5.69161C32.0664 6.00401 32.3012 6.38429 32.441 6.80263C32.5031 6.98946 32.6225 7.15198 32.7822 7.26716C32.9418 7.38234 33.1337 7.44433 33.3306 7.44433C33.5275 7.44433 33.7194 7.38234 33.879 7.26716C34.0387 7.15198 34.1581 6.98946 34.2202 6.80263C34.3601 6.38423 34.595 6.00391 34.9065 5.69151C35.218 5.3791 35.5977 5.1431 36.0157 5.00201C36.2022 4.93967 36.3643 4.82027 36.4792 4.66071C36.5941 4.50115 36.656 4.3095 36.656 4.11287C36.656 3.91624 36.5941 3.72458 36.4792 3.56502C36.3643 3.40546 36.2022 3.28606 36.0157 3.22373C35.5977 3.08258 35.218 2.84655 34.9065 2.53412C34.595 2.22169 34.3601 1.84136 34.2202 1.42294C34.1581 1.23612 34.0387 1.07359 33.879 0.958413C33.7194 0.843234 33.5275 0.78125 33.3306 0.78125C33.1337 0.78125 32.9418 0.843234 32.7822 0.958413C32.6225 1.07359 32.5031 1.23612 32.441 1.42294C32.3011 1.84129 32.0663 2.22158 31.7549 2.534C31.4435 2.84643 31.064 3.0825 30.6461 3.22373C30.4597 3.28606 30.2975 3.40546 30.1826 3.56502C30.0677 3.72458 30.0059 3.91624 30.0059 4.11287C30.0059 4.3095 30.0677 4.50115 30.1826 4.66071C30.2975 4.82027 30.4597 4.93967 30.6461 5.00201V5.00201ZM33.3305 3.58763C33.4914 3.776 33.6667 3.95158 33.8547 4.11279C33.6667 4.27403 33.4914 4.44961 33.3305 4.63794C33.1697 4.4495 32.9945 4.27391 32.8063 4.11279C32.9945 3.95166 33.1697 3.77608 33.3305 3.58763V3.58763Z" fill="#3E61EE"/>
<path d="M54.1959 30.0536C54.1959 30.2503 54.2578 30.442 54.3728 30.6015C54.4877 30.7611 54.65 30.8805 54.8365 30.9428C55.4398 31.1465 55.9876 31.4871 56.437 31.938C56.8865 32.3889 57.2254 32.9378 57.4272 33.5417C57.4893 33.7286 57.6086 33.8912 57.7683 34.0064C57.928 34.1216 58.1199 34.1836 58.3169 34.1836C58.5138 34.1836 58.7057 34.1216 58.8654 34.0064C59.0251 33.8912 59.1445 33.7286 59.2065 33.5417C59.4083 32.9379 59.7471 32.3889 60.1966 31.938C60.646 31.4871 61.1938 31.1465 61.797 30.9428C61.9835 30.8805 62.1457 30.7611 62.2606 30.6015C62.3755 30.4419 62.4373 30.2503 62.4373 30.0536C62.4373 29.857 62.3755 29.6654 62.2606 29.5058C62.1457 29.3462 61.9835 29.2268 61.797 29.1645C61.1939 28.9608 60.6461 28.6202 60.1967 28.1693C59.7473 27.7184 59.4084 27.1696 59.2067 26.5658C59.1446 26.3789 59.0253 26.2163 58.8656 26.1011C58.7059 25.9858 58.5139 25.9238 58.317 25.9238C58.1201 25.9238 57.9282 25.9858 57.7685 26.1011C57.6088 26.2163 57.4894 26.3789 57.4273 26.5658C57.2255 27.1696 56.8866 27.7185 56.4372 28.1694C55.9877 28.6203 55.4399 28.9609 54.8367 29.1647C54.6502 29.2269 54.4879 29.3462 54.3729 29.5057C54.2579 29.6653 54.196 29.8569 54.1959 30.0536V30.0536ZM58.3164 28.854C58.6571 29.3082 59.0601 29.7121 59.5137 30.0536C59.0601 30.3951 58.6571 30.799 58.3164 31.2533C57.9755 30.7991 57.5724 30.3952 57.1189 30.0536C57.5725 29.712 57.9756 29.3082 58.3164 28.854V28.854Z" fill="#3E61EE"/>
<path d="M13.0253 73.8797C13.7189 73.8797 14.2811 73.3175 14.2811 72.6239C14.2811 71.9304 13.7189 71.3682 13.0253 71.3682C12.3318 71.3682 11.7695 71.9304 11.7695 72.6239C11.7695 73.3175 12.3318 73.8797 13.0253 73.8797Z" fill="#3E61EE"/>
<path d="M8.28128 16.6315C8.43753 15.5873 7.82222 14.5577 6.77785 14.3365C6.52671 14.2769 6.2662 14.2681 6.01162 14.3106C5.75704 14.3531 5.51352 14.4461 5.29536 14.584C5.07719 14.7219 4.88878 14.902 4.7412 15.1138C4.59361 15.3255 4.48982 15.5646 4.43591 15.817C4.38201 16.0695 4.37908 16.3301 4.4273 16.5837C4.47552 16.8372 4.57392 17.0786 4.71672 17.2936C4.85951 17.5086 5.04383 17.6929 5.25884 17.8357C5.47385 17.9785 5.71522 18.0769 5.96879 18.1251C6.10376 18.1531 6.24125 18.1672 6.3791 18.1673C7.27347 18.1666 8.12503 17.5412 8.28128 16.6315ZM6.42644 16.243C6.42405 16.2543 6.41851 16.2647 6.41047 16.273C6.40243 16.2813 6.3922 16.2871 6.38099 16.2898C6.36977 16.2925 6.35802 16.292 6.34709 16.2883C6.33616 16.2846 6.3265 16.2778 6.31923 16.2689C6.31196 16.2599 6.30738 16.2491 6.30601 16.2376C6.30464 16.2262 6.30655 16.2146 6.3115 16.2042C6.31646 16.1937 6.32426 16.1849 6.33401 16.1788C6.34376 16.1726 6.35506 16.1693 6.3666 16.1693C6.37085 16.1693 6.37508 16.1697 6.37925 16.1705C6.39509 16.174 6.40894 16.1835 6.41778 16.1971C6.42662 16.2107 6.42973 16.2272 6.42644 16.243V16.243Z" fill="#968B82"/>
<path d="M24.4287 22.0341C24.5619 22.0624 24.6977 22.0767 24.8339 22.0768C25.3313 22.0767 25.8098 21.8857 26.1706 21.5433C26.5314 21.2008 26.747 20.733 26.7731 20.2362C26.7991 19.7395 26.6335 19.2516 26.3105 18.8734C25.9875 18.4951 25.5316 18.2551 25.0369 18.2031C24.5422 18.151 24.0464 18.2907 23.6516 18.5934C23.2569 18.8961 22.9934 19.3388 22.9154 19.8301C22.8374 20.3214 22.9509 20.8239 23.2325 21.2339C23.514 21.644 23.9422 21.9304 24.4287 22.0341V22.0341Z" fill="#968B82"/>
<path d="M34.7345 32.1774C34.8669 32.2053 35.0019 32.2195 35.1372 32.2195C35.5822 32.2242 36.015 32.0734 36.3608 31.7931C36.7066 31.5129 36.9437 31.1208 37.0314 30.6844C37.1876 29.6402 36.5812 28.6106 35.5369 28.3894C35.0352 28.2848 34.5126 28.3833 34.0835 28.6634C33.6544 28.9434 33.3538 29.3821 33.2476 29.8833C33.1413 30.3846 33.238 30.9075 33.5166 31.3376C33.7952 31.7676 34.2328 32.0697 34.7337 32.1777L34.7345 32.1774ZM35.0758 30.2711C35.0786 30.2574 35.0861 30.2452 35.0969 30.2363C35.1078 30.2275 35.1213 30.2227 35.1353 30.2227C35.1395 30.2227 35.1438 30.2231 35.148 30.2239C35.1598 30.2264 35.1706 30.2323 35.1791 30.241C35.1876 30.2496 35.1933 30.2606 35.1955 30.2725C35.1977 30.2844 35.1964 30.2967 35.1916 30.3078C35.1869 30.3189 35.1789 30.3284 35.1687 30.335C35.1586 30.3416 35.1467 30.345 35.1346 30.3448C35.1225 30.3446 35.1107 30.3409 35.1008 30.334C35.0908 30.3271 35.0831 30.3175 35.0787 30.3062C35.0742 30.2949 35.0732 30.2826 35.0758 30.2708V30.2711Z" fill="#968B82"/>
<path d="M47.4652 42.4267C47.5984 42.4551 47.7341 42.4694 47.8703 42.4695C48.3682 42.4697 48.8471 42.2788 49.2084 41.9362C49.5696 41.5936 49.7857 41.1255 49.8119 40.6283C49.8382 40.1312 49.6727 39.6429 49.3495 39.2641C49.0264 38.8854 48.5702 38.6451 48.0751 38.5928C47.58 38.5405 47.0837 38.6801 46.6886 38.983C46.2934 39.2858 46.0295 39.7287 45.9513 40.2204C45.873 40.7121 45.9865 41.215 46.2681 41.6255C46.5498 42.036 46.9783 42.3228 47.4652 42.4267ZM47.8067 40.5205C47.8084 40.5126 47.8116 40.5052 47.8161 40.4986C47.8206 40.492 47.8264 40.4863 47.8331 40.482C47.8398 40.4776 47.8473 40.4746 47.8552 40.4731C47.8631 40.4716 47.8712 40.4717 47.879 40.4734C47.8868 40.475 47.8943 40.4782 47.9009 40.4827C47.9075 40.4873 47.9131 40.493 47.9175 40.4997C47.9219 40.5065 47.9249 40.514 47.9264 40.5218C47.9278 40.5297 47.9278 40.5378 47.9261 40.5456C47.9246 40.5535 47.9215 40.5609 47.9169 40.5675C47.9124 40.5741 47.9065 40.5797 47.8997 40.5839C47.8931 40.5885 47.8856 40.5917 47.8777 40.5931C47.8697 40.5946 47.8616 40.5944 47.8538 40.5925C47.838 40.5891 47.8242 40.5796 47.8154 40.566C47.8066 40.5525 47.8035 40.536 47.8069 40.5202L47.8067 40.5205Z" fill="#968B82"/>
<path d="M74.0049 46.1354C73.7562 46.0842 73.4998 46.0825 73.2504 46.1304C73.001 46.1783 72.7635 46.2748 72.5514 46.4145C72.3393 46.5542 72.1568 46.7343 72.0143 46.9445C71.8719 47.1547 71.7722 47.3909 71.721 47.6396C71.6698 47.8884 71.6681 48.1447 71.716 48.3941C71.7639 48.6435 71.8604 48.881 72.0001 49.0931C72.1398 49.3052 72.3198 49.4877 72.53 49.6302C72.7403 49.7726 72.9765 49.8723 73.2252 49.9235C73.3482 49.9514 73.474 49.9656 73.6002 49.9657C74.0423 49.97 74.4719 49.8185 74.8135 49.5378C75.1552 49.2571 75.3872 48.8651 75.4688 48.4306C75.7813 47.3859 75.0493 46.3565 74.0049 46.1354ZM73.6932 48.0417C73.6894 48.0573 73.6798 48.0708 73.6664 48.0796C73.6529 48.0883 73.6366 48.0915 73.6208 48.0885C73.6061 48.0853 73.5931 48.0768 73.5843 48.0646C73.5755 48.0524 73.5715 48.0374 73.5731 48.0225C73.5747 48.0075 73.5817 47.9937 73.5928 47.9836C73.604 47.9735 73.6184 47.9678 73.6335 47.9677C73.6377 47.9678 73.642 47.9682 73.6461 47.9692C73.654 47.9708 73.6615 47.9741 73.6682 47.9787C73.6748 47.9833 73.6805 47.9891 73.6849 47.9959C73.6892 48.0027 73.6922 48.0103 73.6937 48.0183C73.6951 48.0262 73.6949 48.0344 73.6932 48.0423V48.0417Z" fill="#968B82"/>
<path d="M47.5742 54.5854C47.2532 54.7942 47.0013 55.0934 46.8504 55.4454C46.6995 55.7973 46.6563 56.186 46.7264 56.5625C46.7964 56.9389 46.9765 57.2862 47.2439 57.5603C47.5113 57.8343 47.854 58.023 48.2286 58.1023C48.3618 58.1306 48.4976 58.1449 48.6338 58.145C48.9349 58.1443 49.2318 58.0735 49.5007 57.938C49.7697 57.8025 50.0033 57.6062 50.1831 57.3646C50.3629 57.1229 50.4838 56.8427 50.5363 56.5462C50.5888 56.2496 50.5714 55.945 50.4855 55.6563C50.3996 55.3677 50.2475 55.1031 50.0414 54.8835C49.8353 54.6639 49.5808 54.4955 49.2982 54.3915C49.0155 54.2875 48.7125 54.2509 48.4133 54.2846C48.114 54.3183 47.8267 54.4213 47.5742 54.5854V54.5854ZM48.6894 56.2207C48.686 56.2365 48.6765 56.2503 48.6629 56.2591C48.6493 56.2679 48.6329 56.271 48.617 56.2676C48.6092 56.2661 48.6017 56.2629 48.5951 56.2583C48.5885 56.2538 48.5829 56.2479 48.5786 56.241C48.5699 56.2275 48.5669 56.211 48.5702 56.1952C48.5736 56.1794 48.5831 56.1655 48.5966 56.1567C48.6062 56.1501 48.6176 56.1466 48.6292 56.1465C48.6337 56.1466 48.6382 56.1471 48.6425 56.1481C48.6504 56.1496 48.6579 56.1527 48.6645 56.1573C48.6711 56.1618 48.6767 56.1677 48.681 56.1745C48.6856 56.1812 48.6887 56.1887 48.6901 56.1967C48.6916 56.2047 48.6913 56.2129 48.6894 56.2207Z" fill="#968B82"/>
<path d="M72.0416 65.1867C72.1748 65.215 72.3105 65.2293 72.4466 65.2294C72.9432 65.2292 73.4208 65.0386 73.781 64.6967C74.1411 64.3548 74.3564 63.8878 74.3824 63.3919C74.4083 62.896 74.2431 62.409 73.9206 62.0314C73.5981 61.6538 73.1431 61.4142 72.6492 61.3622C72.1554 61.3102 71.6604 61.4497 71.2663 61.7518C70.8722 62.054 70.6091 62.4958 70.5312 62.9863C70.4533 63.4767 70.5665 63.9783 70.8476 64.3877C71.1286 64.7972 71.556 65.0831 72.0416 65.1867V65.1867ZM72.3831 63.2805C72.386 63.2668 72.3935 63.2545 72.4043 63.2457C72.4152 63.2369 72.4288 63.2321 72.4427 63.232C72.447 63.2321 72.4512 63.2325 72.4554 63.2333C72.4712 63.2367 72.485 63.2462 72.4938 63.2598C72.5026 63.2733 72.5056 63.2898 72.5023 63.3056C72.4997 63.3174 72.4938 63.3282 72.4851 63.3366C72.4765 63.345 72.4655 63.3506 72.4537 63.3528C72.4418 63.355 72.4296 63.3536 72.4185 63.3488C72.4074 63.344 72.398 63.3361 72.3915 63.3259C72.3869 63.3193 72.3838 63.3118 72.3824 63.304C72.3809 63.2961 72.3811 63.288 72.3831 63.2802V63.2805Z" fill="#968B82"/>
<path d="M10.1778 17.9953L20.5328 20.1881C20.597 20.2017 20.6624 20.2085 20.7279 20.2086C20.9598 20.2086 21.1834 20.1227 21.3556 19.9676C21.5278 19.8124 21.6364 19.5989 21.6605 19.3683C21.6845 19.1378 21.6223 18.9065 21.4858 18.7191C21.3493 18.5317 21.1482 18.4016 20.9214 18.3537L10.5662 16.1611C10.4452 16.1341 10.3201 16.1315 10.1981 16.1532C10.0761 16.1749 9.95959 16.2206 9.85535 16.2876C9.7511 16.3547 9.66119 16.4417 9.5908 16.5437C9.52041 16.6457 9.47094 16.7607 9.44527 16.8819C9.41959 17.0032 9.41821 17.1283 9.4412 17.2501C9.4642 17.3719 9.51111 17.4879 9.57923 17.5915C9.64736 17.695 9.73533 17.784 9.83807 17.8533C9.94081 17.9226 10.0563 17.9709 10.1778 17.9953V17.9953Z" fill="#968B82"/>
<path d="M51.677 42.2916L69.2382 48.0516C69.4729 48.1237 69.7266 48.1008 69.9446 47.9879C70.1626 47.8749 70.3276 47.681 70.4042 47.4476C70.4807 47.2143 70.4627 46.9603 70.3539 46.7402C70.2452 46.52 70.0544 46.3513 69.8226 46.2704L52.2615 40.51C52.1439 40.4691 52.0193 40.4521 51.8951 40.4598C51.7708 40.4676 51.6493 40.5 51.5377 40.5552C51.4261 40.6105 51.3267 40.6874 51.2451 40.7814C51.1635 40.8755 51.1015 40.9849 51.0627 41.1032C51.0239 41.2215 51.009 41.3463 51.019 41.4705C51.0289 41.5946 51.0635 41.7154 51.1207 41.826C51.1779 41.9367 51.2565 42.0348 51.352 42.1146C51.4475 42.1945 51.558 42.2546 51.677 42.2913V42.2916Z" fill="#968B82"/>
<path d="M68.6437 61.5365L53.0365 56.1902C52.9201 56.1503 52.7969 56.1338 52.674 56.1415C52.5511 56.1492 52.431 56.181 52.3204 56.2352C52.2098 56.2893 52.111 56.3647 52.0295 56.4571C51.9481 56.5494 51.8857 56.6569 51.8458 56.7734C51.8059 56.8898 51.7893 57.013 51.797 57.1359C51.8047 57.2588 51.8366 57.379 51.8907 57.4895C51.9449 57.6001 52.0203 57.6989 52.1126 57.7804C52.2049 57.8618 52.3124 57.9243 52.4289 57.9641L68.0362 63.3104C68.2715 63.391 68.5291 63.3748 68.7524 63.2654C68.9757 63.156 69.1464 62.9624 69.2269 62.7272C69.3075 62.492 69.2913 62.2344 69.1819 62.0111C69.0726 61.7878 68.879 61.6171 68.6437 61.5365V61.5365Z" fill="#968B82"/>
<path d="M31.7879 28.1218C31.9606 28.2992 32.1966 28.401 32.4441 28.4051C32.6917 28.4091 32.9309 28.3151 33.1093 28.1434C33.2878 27.9718 33.3911 27.7365 33.3967 27.4889C33.4024 27.2414 33.3098 27.0016 33.1393 26.8221L28.4546 21.9515C28.3697 21.8609 28.2677 21.7882 28.1544 21.7374C28.0412 21.6866 27.919 21.6588 27.7949 21.6556C27.6708 21.6524 27.5474 21.6739 27.4317 21.7187C27.3159 21.7636 27.2103 21.8311 27.1209 21.9171C27.0314 22.0031 26.9599 22.1061 26.9106 22.2199C26.8612 22.3338 26.835 22.4564 26.8333 22.5805C26.8317 22.7046 26.8547 22.8278 26.9011 22.9429C26.9474 23.058 27.0162 23.1628 27.1033 23.2512L31.7879 28.1218Z" fill="#968B82"/>
<path d="M37.2391 34.0587L43.4198 38.8892C43.5167 38.9654 43.6278 39.0218 43.7466 39.0551C43.8654 39.0883 43.9896 39.0978 44.1121 39.083C44.2346 39.0681 44.3529 39.0293 44.4603 38.9686C44.5678 38.908 44.6621 38.8267 44.7381 38.7295C44.8141 38.6323 44.8701 38.521 44.903 38.4021C44.9358 38.2832 44.9449 38.159 44.9297 38.0365C44.9144 37.9141 44.8752 37.7959 44.8142 37.6887C44.7532 37.5814 44.6716 37.4873 44.5741 37.4117L38.3937 32.5814C38.2967 32.5046 38.1856 32.4478 38.0667 32.4142C37.9477 32.3806 37.8233 32.3709 37.7006 32.3855C37.5778 32.4002 37.4592 32.439 37.3515 32.4997C37.2438 32.5604 37.1492 32.6417 37.0731 32.7391C36.997 32.8365 36.9409 32.948 36.908 33.0672C36.8751 33.1863 36.8662 33.3108 36.8816 33.4335C36.897 33.5561 36.9366 33.6745 36.9979 33.7818C37.0593 33.8891 37.1413 33.9832 37.2391 34.0587V34.0587Z" fill="#968B82"/>
<path d="M48.4792 53.0313C48.4989 53.0313 48.5185 53.0306 48.5382 53.0294C48.6611 53.0217 48.7813 52.99 48.8919 52.9359C49.0025 52.8818 49.1014 52.8064 49.1829 52.7141C49.2644 52.6218 49.3269 52.5144 49.3668 52.3979C49.4068 52.2814 49.4234 52.1582 49.4157 52.0353L48.9514 44.5882C48.9359 44.34 48.8224 44.1081 48.636 43.9436C48.4496 43.7791 48.2055 43.6953 47.9573 43.7108C47.7091 43.7263 47.4773 43.8397 47.3127 44.0261C47.1482 44.2126 47.0645 44.4567 47.0799 44.7049L47.5443 52.152C47.5591 52.39 47.6641 52.6134 47.8377 52.7767C48.0114 52.94 48.2408 53.0311 48.4792 53.0313V53.0313Z" fill="#968B82"/>
<path d="M73.3107 60.1273C73.3326 60.1273 73.3548 60.1273 73.377 60.1249C73.6249 60.1076 73.8558 59.9926 74.019 59.805C74.1821 59.6175 74.2641 59.3729 74.247 59.1249L73.741 51.8731C73.7339 51.7492 73.7023 51.6279 73.648 51.5164C73.5936 51.4048 73.5177 51.3051 73.4246 51.2231C73.3315 51.1411 73.223 51.0784 73.1054 51.0387C72.9879 50.9989 72.8636 50.9829 72.7398 50.9915C72.616 51.0002 72.4952 51.0333 72.3843 51.089C72.2734 51.1447 72.1747 51.2218 72.0938 51.316C72.013 51.4101 71.9516 51.5193 71.9133 51.6374C71.875 51.7554 71.8605 51.8799 71.8707 52.0035L72.3765 59.2554C72.3931 59.4919 72.4987 59.7134 72.672 59.8752C72.8454 60.0369 73.0736 60.127 73.3107 60.1273V60.1273Z" fill="#968B82"/>
</svg>
