<svg viewBox="0 0 144 144" fill="none" xmlns="http://www.w3.org/2000/svg">
<path d="M72 3.09384C54.8349 3.08512 38.2852 9.48635 25.5936 21.0433C12.902 32.6002 4.9833 48.4798 3.38907 65.5707C3.195 67.6885 3.09657 69.8316 3.09375 72.0001C3.08962 84.2524 6.35366 96.2841 12.5493 106.854C18.745 117.425 27.648 126.151 38.3403 132.134C30.8047 125.672 24.7578 117.655 20.6154 108.634C16.4731 99.613 14.3335 89.8018 14.3438 79.8751C14.3438 77.7067 14.4422 75.5635 14.6391 73.4457L15.2876 68.8028C15.1906 68.6971 15.0882 68.5972 14.9875 68.4954C15.0719 68.5798 15.1563 68.6617 15.2384 68.7486C16.9578 58.2642 21.076 48.3187 27.2718 39.6879C33.4676 31.0571 41.5734 23.9742 50.9572 18.9918C50.9448 18.9845 50.9327 18.976 50.92 18.9687C50.9363 18.9783 50.9518 18.989 50.9681 18.9985L51.2775 18.8208C61.2076 13.6293 72.2525 10.9343 83.4577 10.9686C94.6629 11.0029 105.691 13.7655 115.589 19.0177L115.763 18.7758C103.445 8.61376 87.9682 3.06772 72 3.09384Z" fill="#3E61EE" fill-opacity="0.2"/>
<path d="M71.8544 84.9092C71.6052 84.6161 71.365 84.3087 71.1403 83.9954L67.5538 78.9962C65.1395 75.6307 61.4096 73.6805 57.5764 73.7818C57.5553 73.7822 57.5344 73.7766 57.5163 73.7658L50.1852 69.367C48.8801 68.589 47.3963 68.1609 45.8773 68.124C44.3583 68.0872 42.8556 68.4428 41.5143 69.1566L37.6521 71.2258C36.3365 71.9246 34.806 72.1022 33.3654 71.7233C31.9247 71.3444 30.6796 70.4367 29.8781 69.1811L26.1262 63.2569C25.452 62.1926 25.1033 60.9547 25.1228 59.6951C25.1422 58.4354 25.5291 57.2089 26.2359 56.166C27.0143 55.0084 28.1001 54.0908 29.3712 53.5161C30.6423 52.9415 32.0484 52.7327 33.4317 52.913L39.0598 53.6277C40.3707 53.8072 41.7054 53.5961 42.8968 53.0208C44.0883 52.4455 45.0837 51.5315 45.7583 50.3933C46.4696 49.1675 47.5269 48.1789 48.7978 47.5516C50.0686 46.9242 51.4964 46.6861 52.9021 46.867L55.3624 47.1817C56.5176 47.3259 57.6904 47.1669 58.7654 46.7203C59.8405 46.2738 60.7807 45.555 61.4937 44.6347L63.6618 41.8222C64.8376 40.3051 65.4979 38.452 65.5463 36.5332C65.5947 34.6144 65.0287 32.7303 63.931 31.1558L59.2558 24.4123C57.3181 21.6273 54.7996 19.2956 51.8738 17.5779C51.2162 17.1926 50.5811 16.77 49.9717 16.3123L41.0429 9.59717L39.0131 12.2935L47.945 19.0103C48.6577 19.5452 49.4002 20.0389 50.1692 20.4891C52.6715 21.9583 54.8254 23.9528 56.4824 26.3349L61.1573 33.0765C61.8451 34.063 62.1997 35.2435 62.1693 36.4457C62.139 37.6479 61.7253 38.809 60.9886 39.7595L58.8204 42.572C58.4679 43.0272 58.0029 43.3827 57.4712 43.6035C56.9395 43.8244 56.3595 43.9029 55.7882 43.8315L53.3279 43.5168C51.2643 43.2513 49.1683 43.6009 47.3027 44.522C45.4371 45.443 43.8849 46.8943 42.8409 48.694C42.4993 49.2588 41.9987 49.7102 41.4018 49.9919C40.8049 50.2736 40.1382 50.373 39.485 50.2777L33.8578 49.5631C31.8555 49.3021 29.8201 49.6044 27.9801 50.436C26.1401 51.2677 24.5684 52.5958 23.4414 54.2712C22.3662 55.8582 21.7777 57.7245 21.7481 59.6412C21.7186 61.5579 22.2493 63.4415 23.2752 65.0608L27.0271 70.9851C28.2868 72.9586 30.2438 74.3853 32.5082 74.9809C34.7726 75.5765 37.1782 75.2973 39.246 74.1989L43.1084 72.1295C43.9345 71.6899 44.8601 71.4708 45.7957 71.4935C46.7313 71.5163 47.6452 71.7799 48.449 72.2591L55.7798 76.6579C56.3479 76.9993 57.0016 77.1713 57.6642 77.1537C60.3797 77.0781 63.0498 78.506 64.8113 80.9616L68.3975 85.9608C68.6762 86.3489 68.9741 86.7297 69.2826 87.0931L73.9747 92.6129C74.0437 92.6926 74.094 92.7867 74.122 92.8884C74.1501 92.99 74.1551 93.0966 74.1367 93.2004C74.091 93.4035 73.9712 93.5822 73.8006 93.7016L66.7531 99.1134C64.5883 100.769 62.9953 103.061 62.1968 105.667L59.8281 113.352C59.7063 113.749 59.5067 114.118 59.2409 114.436L56.9346 117.209C54.9929 119.506 53.7973 122.34 53.5073 125.334C53.4752 125.691 53.3462 126.033 53.134 126.323C52.9219 126.612 52.6348 126.839 52.3036 126.977C52.2764 126.989 52.2463 126.993 52.2171 126.988C52.1878 126.983 52.1607 126.969 52.139 126.949C52.1081 126.906 52.0887 126.857 52.0828 126.804L49.9225 113.829C49.6063 111.943 48.8356 110.161 47.677 108.639L39.7196 98.205C39.1329 97.4376 38.6992 96.5645 38.4422 95.6332L35.8158 86.1579C35.2734 84.2209 34.2393 82.4571 32.8139 81.0378C31.3885 79.6185 29.6203 78.592 27.681 78.0579L27.1089 77.9016C26.2158 77.6574 25.396 77.1983 24.7211 76.5645L19.8214 71.9534C19.1636 71.3345 18.5983 70.6241 18.1429 69.844C16.8263 67.58 14.8373 65.7823 12.4522 64.7004C10.0671 63.6185 7.40431 63.3063 4.83362 63.807L3.89453 63.9923L4.54787 67.3029L5.48697 67.1176C7.36939 66.7524 9.31883 66.9824 11.0645 67.7758C12.8102 68.5691 14.2655 69.8865 15.2283 71.5447C15.8468 72.6045 16.6146 73.5697 17.5082 74.4107L22.407 79.0212C23.4845 80.0334 24.7933 80.7667 26.2193 81.157L26.7914 81.3131C28.1672 81.6919 29.4217 82.4202 30.4329 83.4271C31.4441 84.434 32.1777 85.6854 32.5623 87.0596L35.1887 96.5349C35.5603 97.8808 36.187 99.1428 37.0348 100.252L44.9925 110.687C45.818 111.771 46.3671 113.04 46.5925 114.384L48.7553 127.361C48.8805 128.197 49.3023 128.961 49.9438 129.512C50.5853 130.064 51.4037 130.366 52.2496 130.364C52.7169 130.364 53.1796 130.271 53.6105 130.09C54.5072 129.716 55.2846 129.103 55.8588 128.319C56.4331 127.535 56.7825 126.609 56.8694 125.641C57.0985 123.329 58.0268 121.141 59.5306 119.369L61.8368 116.596C62.3874 115.935 62.8011 115.171 63.0538 114.348L65.4227 106.663C66.0161 104.726 67.2001 103.023 68.809 101.792L75.8566 96.3802C76.7138 95.738 77.2915 94.7909 77.4701 93.7348C77.5644 93.1498 77.5306 92.5513 77.3713 91.9806C77.2119 91.4099 76.9307 90.8805 76.547 90.429L71.8544 84.9092Z" fill="#3E61EE"/>
<path d="M136.171 89.299C136.04 89.3123 135.908 89.3215 135.78 89.3272L134.11 89.4028C131.624 89.5063 129.216 90.3078 127.164 91.7157C125.111 93.1236 123.497 95.0809 122.505 97.3636L122.078 98.269C121.493 99.5857 120.535 100.703 119.324 101.482C118.112 102.262 116.698 102.67 115.257 102.656H108.151C107.758 102.672 107.373 102.538 107.075 102.281C106.777 102.023 106.588 101.662 106.546 101.271L106.262 98.4639C106.08 96.4832 105.45 94.57 104.419 92.8692C103.388 91.1683 101.983 89.7244 100.311 88.6468C99.984 88.4313 99.7174 88.1354 99.537 87.7874C99.3565 87.4394 99.2684 87.051 99.2809 86.6592V83.8127C99.2696 83.2663 99.3754 82.7237 99.5913 82.2216C99.8071 81.7194 100.128 81.2693 100.532 80.9015L112.64 70.1797C114.591 68.4486 116.004 66.195 116.714 63.6855C117.423 61.1761 117.399 58.5159 116.644 56.0199C115.862 53.4491 114.351 51.1603 112.294 49.4308C110.237 47.7013 107.723 46.6053 105.056 46.2757L103.827 46.1249C102.775 45.996 101.808 45.4838 101.11 44.6863C100.882 44.4268 100.738 44.1037 100.698 43.7602C100.657 43.4166 100.723 43.069 100.885 42.7637L103.427 38.417C106.507 33.1537 110.141 28.2344 114.266 23.743C114.312 23.6927 114.355 23.6396 114.395 23.5841L117.138 19.7574L114.394 17.7915L111.711 21.5355C107.452 26.1836 103.698 31.2713 100.514 36.7129L97.9621 41.0751C97.4447 41.99 97.2251 43.0433 97.3339 44.0888C97.4426 45.1342 97.8742 46.1199 98.5687 46.9088C99.812 48.3309 101.536 49.2445 103.411 49.4746L104.636 49.6254C106.654 49.8747 108.556 50.704 110.111 52.0128C111.667 53.3217 112.809 55.0537 113.4 56.9989C113.966 58.8777 113.982 60.8792 113.446 62.7668C112.91 64.6544 111.845 66.3491 110.376 67.6504L98.2965 78.3728C97.5342 79.0574 96.9266 79.8968 96.5144 80.8348C96.1021 81.7729 95.8947 82.7881 95.9059 83.8127V86.6587C95.8919 87.6173 96.1208 88.5639 96.5712 89.4103C97.0216 90.2567 97.6789 90.9753 98.4818 91.4993C99.7309 92.3047 100.781 93.3833 101.552 94.6537C102.323 95.9241 102.796 97.3531 102.935 98.8329L103.203 101.606C103.322 102.83 103.897 103.964 104.813 104.784C105.73 105.604 106.922 106.049 108.151 106.031H115.257C117.354 106.045 119.408 105.446 121.169 104.308C122.93 103.17 124.32 101.543 125.169 99.626L125.595 98.6872C126.337 96.9842 127.544 95.5247 129.077 94.476C130.61 93.4273 132.407 92.8318 134.263 92.7579L135.935 92.6906C136.124 92.6819 136.314 92.6724 136.507 92.6532L138.738 92.4308L138.401 89.0738L136.171 89.299Z" fill="#3E61EE"/>
<path d="M72.0001 1.40651C58.038 1.40649 44.3894 5.54673 32.7803 13.3037C21.1712 21.0606 12.123 32.0859 6.77992 44.9852C1.43683 57.8845 0.0388424 72.0786 2.76273 85.7724C5.48661 99.4663 12.21 112.045 22.0828 121.918C35.3217 135.157 53.2775 142.594 72.0001 142.594C90.7228 142.594 108.679 135.157 121.918 121.918C135.156 108.679 142.594 90.7229 142.594 72.0003C142.594 53.2776 135.156 35.3218 121.918 22.0829C115.378 15.5071 107.598 10.2938 99.0299 6.74467C90.4616 3.19556 81.2744 1.38117 72.0001 1.40651ZM119.531 119.532C106.925 132.138 89.8278 139.22 72.0001 139.22C54.1725 139.22 37.075 132.138 24.4689 119.532C11.8628 106.925 4.78081 89.8279 4.78081 72.0003C4.78081 54.1726 11.8628 37.0751 24.4689 24.469C37.075 11.8629 54.1725 4.78092 72.0001 4.78092C89.8278 4.78092 106.925 11.8629 119.531 24.469C132.137 37.0751 139.219 54.1726 139.219 72.0003C139.219 89.8279 132.137 106.925 119.531 119.532Z" fill="#968B82"/>
</svg>
