<svg viewBox="0 0 144 144" fill="none" xmlns="http://www.w3.org/2000/svg">
<path d="M67.4214 16.9737C58.5966 16.9589 49.8996 19.0829 42.0752 23.164C26.0945 31.5031 14.777 47.4837 13.0361 66.2206C12.8786 67.8893 12.7999 69.5787 12.7999 71.2887C12.79 78.7089 14.3134 86.0512 17.2745 92.855C20.9354 101.237 26.6455 108.565 33.8795 114.162L33.8823 114.16C35.2299 113.492 36.5424 112.755 37.8148 111.953C32.6512 106.919 28.5488 100.901 25.7498 94.2548C22.9509 87.6086 21.5121 80.4689 21.5186 73.2575C21.5186 71.5475 21.5974 69.8581 21.7549 68.1893L21.8929 68.2023C21.7473 68.0712 21.5965 67.9472 21.4429 67.8268C24.3075 50.9091 35.0374 36.6457 49.7676 28.8877C49.562 28.7471 49.3562 28.6065 49.1568 28.4572L49.9499 28.789C58.1968 24.5039 67.3957 22.3803 76.6865 22.6167C85.9772 22.8531 95.0563 25.4418 103.075 30.1407C93.151 21.6228 80.4993 16.9504 67.4214 16.9737Z" fill="#3E61EE" fill-opacity="0.2"/>
<path d="M49.9998 103.06C49.6664 101.935 49.129 100.881 48.4144 99.9505L42.1062 91.7268C41.6696 91.1588 41.3465 90.5121 41.1545 89.8219L39.0732 82.353C38.624 80.7641 37.7716 79.3184 36.5987 78.1561C35.4258 76.9939 33.9724 76.1547 32.3795 75.72L31.9255 75.5968C31.273 75.4196 30.6736 75.0858 30.1792 74.6245L26.2946 70.9902C25.7984 70.526 25.3717 69.9927 25.0276 69.4068C24.014 67.6816 22.5229 66.2866 20.7341 65.3899C18.9454 64.4932 16.9355 64.1332 14.9467 64.3533C17.1939 47.4631 27.5285 33.0755 41.9439 25.1726L48.1463 29.8107C48.722 30.2402 49.3215 30.6366 49.9421 30.9982C51.8797 32.1284 53.5493 33.6651 54.8359 35.5027L58.5416 40.8169C59.042 41.53 59.3001 42.385 59.278 43.2559C59.2559 44.1268 58.9547 44.9676 58.4187 45.6544L56.7 47.8718C56.4562 48.1832 56.136 48.4261 55.7704 48.5768C55.4048 48.7276 55.0063 48.781 54.614 48.7318L52.6632 48.4838C50.9623 48.2645 49.2344 48.5508 47.6951 49.3069C46.1558 50.063 44.8731 51.2555 44.0069 52.7357C43.7657 53.1196 43.4186 53.4256 43.0075 53.6167C42.5963 53.8078 42.1386 53.8758 41.6897 53.8126L37.2293 53.2501C35.5807 53.0352 33.9048 53.2824 32.3885 53.9642C30.8722 54.6461 29.5751 55.7357 28.6419 57.1117C27.7497 58.4192 27.261 59.9599 27.2365 61.5427C27.2119 63.1255 27.6526 64.6806 28.5038 66.0152L31.478 70.6839C32.5295 72.3153 34.1544 73.4931 36.0319 73.9847C37.9095 74.4763 39.9031 74.246 41.6191 73.3392L44.6808 71.708C45.2839 71.3892 45.9587 71.2304 46.6407 71.2469C47.3227 71.2633 47.989 71.4544 48.5761 71.8019L54.3875 75.2694C54.8946 75.5716 55.4768 75.7239 56.0669 75.7088C58.1026 75.6593 60.1132 76.7232 61.4416 78.5651L64.285 82.506C64.51 82.8193 64.753 83.1267 65.0045 83.4209L66.452 85.1146L69.0176 82.9208L67.57 81.2277C67.3785 81.0027 67.1937 80.7684 67.0219 80.5299L64.1787 76.5896C62.2459 73.9102 59.2824 72.3309 56.212 72.3309C56.1594 72.3309 56.1063 72.3309 56.0534 72.3309L50.3044 68.9053C49.2177 68.2617 47.984 67.9078 46.7215 67.8773C45.4589 67.8468 44.2096 68.1408 43.0931 68.7312L40.0311 70.3625C39.0658 70.8732 37.9441 71.0035 36.8874 70.7275C35.8308 70.4516 34.916 69.7894 34.3237 68.8718L31.3495 64.2031C30.8533 63.4251 30.5964 62.5185 30.6108 61.5958C30.6252 60.6732 30.9102 59.775 31.4305 59.0129C32.015 58.1525 32.827 57.4713 33.7758 57.0452C34.7247 56.6191 35.7732 56.4648 36.8046 56.5995L41.2658 57.162C42.3711 57.3126 43.4963 57.1349 44.5015 56.6511C45.5066 56.1672 46.3473 55.3985 46.919 54.4406C47.4516 53.5319 48.24 52.8001 49.1857 52.3364C50.1315 51.8726 51.1928 51.6975 52.2374 51.8329L54.1884 52.0807C55.1629 52.2026 56.1524 52.0695 57.06 51.6943C57.9676 51.3191 58.7623 50.7148 59.3662 49.9403L61.0852 47.7227C62.0649 46.4684 62.6156 44.9324 62.6561 43.3414C62.6966 41.7503 62.2248 40.1884 61.3102 38.8858L57.6045 33.5719C56.0371 31.3321 54.0029 29.4588 51.642 28.0807C51.1324 27.784 50.6401 27.4585 50.1674 27.1059L45.3164 23.4778C54.5416 19.2592 64.7811 17.7678 74.8264 19.1798C84.8717 20.5917 94.3034 24.848 102.008 31.4462L104.207 28.8868C93.9634 20.1054 80.9142 15.2814 67.4215 15.2881C36.3715 15.2881 11.1113 40.4108 11.1113 71.2903C11.1113 88.6831 19.0336 104.796 32.8469 115.496L34.9141 112.828C21.9316 102.771 14.4863 87.6315 14.4863 71.2903C14.4863 70.1254 14.5285 68.9703 14.6042 67.8242L14.7611 67.7933C16.1804 67.5178 17.6502 67.6894 18.9678 68.2845C20.2854 68.8797 21.3859 69.8689 22.1175 71.1159C22.6256 71.9814 23.2558 72.769 23.9886 73.4545L27.8719 77.0888C28.7686 77.9262 29.856 78.5321 31.0399 78.854L31.4941 78.9772C32.5235 79.2571 33.463 79.7985 34.2213 80.5488C34.9797 81.2991 35.5311 82.2328 35.822 83.2592L37.9032 90.7281C38.2106 91.8341 38.7281 92.8705 39.4276 93.7808L45.7357 102.005C46.1991 102.608 46.5476 103.291 46.7637 104.02L49.9998 103.06Z" fill="#3E61EE"/>
<path d="M120.244 74.7378C119.38 88.0516 113.459 100.531 103.692 109.621C96.2554 116.553 86.9894 121.211 76.9894 123.044C66.9895 124.878 56.6738 123.81 47.2614 119.967L45.9814 123.089C55.9919 127.177 66.9634 128.313 77.599 126.363C88.2346 124.412 98.0894 119.458 105.998 112.084C116.392 102.409 122.693 89.1258 123.612 74.9555L120.244 74.7378Z" fill="#3E61EE"/>
<path d="M27.5234 23.8913C27.9087 23.8917 28.2825 23.7597 28.582 23.5173C29.646 22.6589 30.7502 21.827 31.8639 21.0442C32.0453 20.9168 32.1997 20.7549 32.3184 20.5678C32.4372 20.3807 32.5179 20.1721 32.556 19.9537C32.5941 19.7354 32.5889 19.5118 32.5405 19.2955C32.4922 19.0792 32.4017 18.8746 32.2743 18.6933C32.1469 18.512 31.985 18.3575 31.7979 18.2388C31.6108 18.12 31.4021 18.0393 31.1838 18.0012C30.9655 17.9631 30.7418 17.9684 30.5255 18.0167C30.3093 18.065 30.1046 18.1555 29.9233 18.2829C28.7488 19.1081 27.5844 19.9856 26.4639 20.8904C26.1922 21.1096 25.9951 21.4078 25.8999 21.7438C25.8047 22.0797 25.816 22.4369 25.9324 22.7662C26.0487 23.0954 26.2644 23.3804 26.5495 23.5819C26.8347 23.7835 27.1753 23.8916 27.5245 23.8913H27.5234Z" fill="#3E61EE"/>
<path d="M23.7407 25.4756C23.4251 25.1583 22.9964 24.9793 22.5489 24.978C22.1013 24.9768 21.6716 25.1533 21.3543 25.4689C14.8088 31.9375 9.72818 39.7359 6.45588 48.337C6.37712 48.5442 6.33993 48.7648 6.34643 48.9863C6.35293 49.2079 6.40301 49.4259 6.49379 49.6281C6.58457 49.8303 6.71428 50.0126 6.87552 50.1646C7.03675 50.3166 7.22636 50.4354 7.4335 50.5142C7.64065 50.593 7.86128 50.6301 8.0828 50.6236C8.30432 50.6171 8.52239 50.5671 8.72455 50.4763C8.92672 50.3855 9.10903 50.2558 9.26107 50.0946C9.41311 49.9333 9.5319 49.7437 9.61066 49.5366C12.713 41.3841 17.5292 33.9927 23.7339 27.8618C24.0512 27.5462 24.2301 27.1176 24.2314 26.6701C24.2326 26.2226 24.0561 25.793 23.7407 25.4756Z" fill="#3E61EE"/>
<path d="M122.912 102.025C122.722 101.911 122.511 101.836 122.292 101.804C122.073 101.771 121.849 101.783 121.634 101.837C121.419 101.891 121.217 101.986 121.039 102.119C120.861 102.251 120.711 102.417 120.597 102.607C119.652 104.187 118.62 105.746 117.53 107.242C117.396 107.421 117.299 107.624 117.244 107.841C117.19 108.058 117.179 108.283 117.212 108.504C117.245 108.725 117.322 108.937 117.438 109.128C117.554 109.319 117.706 109.485 117.887 109.617C118.067 109.748 118.272 109.843 118.489 109.895C118.706 109.946 118.932 109.955 119.152 109.919C119.373 109.883 119.584 109.803 119.773 109.685C119.963 109.567 120.127 109.413 120.257 109.23C121.407 107.653 122.496 106.007 123.494 104.339C123.724 103.955 123.791 103.496 123.682 103.062C123.573 102.628 123.296 102.255 122.912 102.025Z" fill="#3E61EE"/>
<path d="M129.989 89.469C130.948 86.1827 131.644 82.8253 132.07 79.4284C132.407 76.729 132.576 74.0113 132.576 71.291C132.576 70.8435 132.398 70.4142 132.082 70.0978C131.765 69.7813 131.336 69.6035 130.889 69.6035C130.441 69.6035 130.012 69.7813 129.695 70.0978C129.379 70.4142 129.201 70.8435 129.201 71.291C129.202 73.8711 129.042 76.4488 128.723 79.0091C128.32 82.2278 127.661 85.4093 126.752 88.5235C126.201 90.4078 125.551 92.2872 124.819 94.1071C124.369 95.2254 123.881 96.3419 123.368 97.4259C123.176 97.8304 123.153 98.2944 123.303 98.716C123.454 99.1375 123.766 99.4819 124.17 99.6735C124.575 99.8651 125.039 99.8881 125.46 99.7376C125.882 99.587 126.226 99.2752 126.418 98.8707C126.96 97.7254 127.476 96.5461 127.951 95.3654C128.721 93.4431 129.407 91.4594 129.989 89.469Z" fill="#3E61EE"/>
<path d="M37.2484 17.8851C38.3241 17.8851 39.1961 17.0139 39.1961 15.9391C39.1961 14.8644 38.3241 13.9932 37.2484 13.9932C36.1728 13.9932 35.3008 14.8644 35.3008 15.9391C35.3008 17.0139 36.1728 17.8851 37.2484 17.8851Z" fill="#3E61EE"/>
<path d="M114.241 111.503C113.856 111.503 113.48 111.618 113.16 111.832C112.84 112.046 112.591 112.35 112.444 112.705C112.297 113.061 112.258 113.452 112.333 113.83C112.409 114.207 112.594 114.554 112.866 114.826C113.139 115.098 113.485 115.283 113.863 115.358C114.24 115.433 114.632 115.394 114.987 115.247C115.343 115.1 115.647 114.85 115.861 114.53C116.074 114.21 116.188 113.834 116.188 113.449C116.188 112.933 115.982 112.438 115.617 112.073C115.252 111.708 114.757 111.503 114.241 111.503Z" fill="#3E61EE"/>
<path d="M96.8979 134.963C96.4522 134.963 96.0165 135.096 95.646 135.343C95.2754 135.591 94.9866 135.943 94.816 136.354C94.6455 136.766 94.6009 137.219 94.6879 137.656C94.7748 138.094 94.9895 138.495 95.3046 138.81C95.6198 139.125 96.0213 139.34 96.4585 139.427C96.8956 139.514 97.3487 139.469 97.7604 139.299C98.1722 139.128 98.5241 138.839 98.7716 138.468C99.0192 138.098 99.1513 137.662 99.1513 137.216C99.1505 136.619 98.9129 136.046 98.4904 135.624C98.068 135.202 97.4953 134.964 96.8979 134.963Z" fill="#3E61EE"/>
<path d="M100.294 132.962C102.007 132.962 103.396 131.573 103.396 129.86C103.396 128.147 102.007 126.758 100.294 126.758C98.5803 126.758 97.1914 128.147 97.1914 129.86C97.1914 131.573 98.5803 132.962 100.294 132.962Z" fill="#3E61EE"/>
<path d="M11.4526 15.5453C11.8983 15.5453 12.3339 15.4132 12.7045 15.1656C13.0751 14.918 13.3639 14.566 13.5344 14.1543C13.705 13.7425 13.7496 13.2895 13.6627 12.8523C13.5757 12.4152 13.3611 12.0137 13.046 11.6986C12.7308 11.3834 12.3293 11.1688 11.8922 11.0819C11.4551 10.9949 11.002 11.0396 10.5903 11.2101C10.1785 11.3807 9.82659 11.6695 9.57898 12.04C9.33138 12.4106 9.19922 12.8463 9.19922 13.2919C9.19989 13.8894 9.43751 14.4621 9.85996 14.8846C10.2824 15.307 10.8552 15.5447 11.4526 15.5453Z" fill="#3E61EE"/>
<path d="M17.9495 5.93373C17.9495 5.32016 17.7675 4.72038 17.4267 4.21022C17.0858 3.70006 16.6013 3.30245 16.0344 3.06766C15.4675 2.83287 14.8438 2.77145 14.242 2.89117C13.6402 3.01089 13.0875 3.30638 12.6536 3.74025C12.2198 4.17413 11.9244 4.72691 11.8047 5.3287C11.685 5.93048 11.7465 6.55424 11.9813 7.12108C12.2162 7.68793 12.6138 8.1724 13.124 8.51324C13.6342 8.85408 14.234 9.03597 14.8476 9.03592C15.67 9.03503 16.4585 8.70789 17.0401 8.12631C17.6216 7.54472 17.9487 6.75618 17.9495 5.93373Z" fill="#3E61EE"/>
<path d="M43.4806 8.95123C44.2206 9.20113 44.8926 9.61904 45.444 10.1722C45.9954 10.7253 46.4112 11.3987 46.6588 12.1395C46.7706 12.4758 46.9854 12.7683 47.2729 12.9756C47.5603 13.183 47.9057 13.2945 48.2601 13.2945C48.6145 13.2945 48.9598 13.183 49.2473 12.9756C49.5347 12.7683 49.7495 12.4758 49.8614 12.1395C50.109 11.3987 50.5247 10.7254 51.0761 10.1722C51.6275 9.61909 52.2995 9.20117 53.0395 8.95123C53.3752 8.83902 53.6671 8.62411 53.8739 8.33689C54.0807 8.04968 54.192 7.70471 54.192 7.35077C54.192 6.99684 54.0807 6.65186 53.8739 6.36465C53.6671 6.07744 53.3752 5.86253 53.0395 5.75032C52.2995 5.50029 51.6275 5.0823 51.0761 4.52911C50.5248 3.97592 50.109 3.30255 49.8614 2.56179C49.7495 2.2255 49.5347 1.93295 49.2473 1.72563C48.9598 1.51831 48.6145 1.40674 48.2601 1.40674C47.9057 1.40674 47.5603 1.51831 47.2729 1.72563C46.9854 1.93295 46.7706 2.2255 46.6588 2.56179C46.4112 3.30259 45.9954 3.97598 45.4441 4.52918C44.8927 5.08238 44.2206 5.50035 43.4806 5.75032C43.145 5.86253 42.8531 6.07744 42.6462 6.36465C42.4394 6.65186 42.3281 6.99684 42.3281 7.35077C42.3281 7.70471 42.4394 8.04968 42.6462 8.33689C42.8531 8.62411 43.145 8.83902 43.4806 8.95123ZM48.2596 6.4481C48.5367 6.77071 48.8376 7.07212 49.1596 7.34979C48.8376 7.62746 48.5367 7.92886 48.2596 8.25148C47.9824 7.92899 47.6816 7.6276 47.3596 7.34979C47.6814 7.07223 47.982 6.77112 48.2591 6.44894L48.2596 6.4481Z" fill="#3E61EE"/>
<path d="M66.9018 135.049C66.1618 134.799 65.4898 134.381 64.9384 133.828C64.387 133.275 63.9712 132.602 63.7237 131.861C63.6118 131.525 63.397 131.232 63.1096 131.025C62.8221 130.818 62.4767 130.706 62.1224 130.706C61.768 130.706 61.4226 130.818 61.1352 131.025C60.8477 131.232 60.6329 131.525 60.5211 131.861C60.2735 132.602 59.8577 133.275 59.3063 133.828C58.755 134.382 58.0829 134.799 57.3429 135.049C57.0073 135.162 56.7154 135.376 56.5085 135.664C56.3017 135.951 56.1904 136.296 56.1904 136.65C56.1904 137.004 56.3017 137.349 56.5085 137.636C56.7154 137.923 57.0073 138.138 57.3429 138.25C58.0829 138.5 58.755 138.918 59.3064 139.471C59.8577 140.025 60.2735 140.698 60.5211 141.439C60.6329 141.775 60.8477 142.068 61.1352 142.275C61.4226 142.482 61.768 142.594 62.1224 142.594C62.4767 142.594 62.8221 142.482 63.1096 142.275C63.397 142.068 63.6118 141.775 63.7237 141.439C63.9712 140.698 64.387 140.025 64.9384 139.471C65.4898 138.918 66.1618 138.5 66.9018 138.25C67.2375 138.138 67.5293 137.923 67.7362 137.636C67.943 137.349 68.0543 137.004 68.0543 136.65C68.0543 136.296 67.943 135.951 67.7362 135.664C67.5293 135.376 67.2375 135.162 66.9018 135.049ZM62.1228 137.552C61.8456 137.23 61.5448 136.929 61.2228 136.651C61.5447 136.373 61.8456 136.072 62.1228 135.749C62.3998 136.072 62.7007 136.373 63.0228 136.651C62.7006 136.928 62.3998 137.229 62.1228 137.552V137.552Z" fill="#3E61EE"/>
<path d="M137.917 120.336C137.177 120.086 136.505 119.668 135.954 119.115C135.403 118.562 134.987 117.888 134.739 117.148C134.627 116.811 134.413 116.519 134.125 116.312C133.838 116.104 133.492 115.993 133.138 115.993C132.784 115.993 132.438 116.104 132.151 116.312C131.863 116.519 131.649 116.811 131.537 117.148C131.289 117.888 130.873 118.562 130.322 119.115C129.771 119.668 129.099 120.086 128.359 120.336C128.023 120.448 127.731 120.663 127.524 120.95C127.317 121.238 127.206 121.583 127.206 121.936C127.206 122.29 127.317 122.635 127.524 122.923C127.731 123.21 128.023 123.425 128.359 123.537C129.099 123.787 129.771 124.205 130.322 124.758C130.873 125.311 131.289 125.985 131.537 126.725C131.649 127.062 131.863 127.354 132.151 127.562C132.438 127.769 132.784 127.88 133.138 127.88C133.492 127.88 133.838 127.769 134.125 127.562C134.413 127.354 134.627 127.062 134.739 126.725C134.987 125.985 135.403 125.311 135.954 124.758C136.505 124.205 137.177 123.787 137.917 123.537C138.253 123.425 138.545 123.21 138.752 122.923C138.959 122.635 139.07 122.29 139.07 121.936C139.07 121.583 138.959 121.238 138.752 120.95C138.545 120.663 138.253 120.448 137.917 120.336ZM133.138 122.839C132.861 122.517 132.56 122.215 132.238 121.937C132.56 121.66 132.861 121.358 133.138 121.036C133.415 121.358 133.716 121.66 134.038 121.937C133.716 122.215 133.415 122.516 133.138 122.838V122.839Z" fill="#3E61EE"/>
<path d="M141.528 13.3756C141.518 13.1541 141.465 12.9367 141.371 12.7359C141.276 12.5352 141.144 12.355 140.98 12.2057C140.816 12.0564 140.624 11.941 140.415 11.8661C140.206 11.7911 139.985 11.7582 139.764 11.7691C127.281 12.3257 115.349 17.0649 105.886 25.2244C102.258 28.3341 99.037 31.889 96.2989 35.805C95.4248 36.3708 94.3885 36.6323 93.3507 36.5489C92.3129 36.4656 91.3316 36.0421 90.5591 35.3441C88.9749 33.9018 86.8831 33.1472 84.743 33.246C82.6029 33.3447 80.5895 34.2888 79.1449 35.8708L69.0187 46.8323C68.8671 46.9965 68.7497 47.1893 68.6732 47.3993C68.5967 47.6093 68.5627 47.8325 68.5732 48.0558C68.5836 48.279 68.6384 48.498 68.7342 48.7C68.83 48.9019 68.9649 49.0828 69.1312 49.2322L75.5578 55.0122C77.6025 56.8509 80.2566 57.8656 83.0064 57.8601C84.5656 57.8601 86.1076 57.5356 87.5345 56.9072C87.6286 57.1293 87.7693 57.3287 87.9471 57.4916L90.3476 59.677L83.9531 61.3481C83.6591 61.425 83.3914 61.5797 83.1781 61.7961C82.9647 62.0125 82.8138 62.2825 82.7412 62.5775V62.5834C79.5501 66.8907 71.9724 76.8537 62.8883 86.9664C51.0758 100.115 41.0675 108.754 33.1473 112.641C30.3843 113.95 18.387 118.374 14.5285 114.385C11.7978 111.562 13.2879 104.198 18.7239 93.6503L17.2243 92.8774L15.8462 91.9023C3.41969 109.457 -0.347094 121.14 4.33009 127.621C7.05625 131.398 12.2096 132.501 17.3019 132.501C24.2024 132.501 30.9906 130.476 31.4769 130.327C31.5112 130.317 31.5453 130.305 31.5787 130.292C69.719 115.959 89.6062 87.0772 96.6544 74.7207C96.8415 74.5978 97.0022 74.4388 97.1273 74.2531C97.2523 74.0674 97.3392 73.8587 97.3828 73.6391L98.6512 67.2361L100.758 69.1537C100.965 69.3399 101.215 69.4715 101.486 69.5367C100.791 71.5823 100.704 73.7853 101.235 75.8794C101.765 77.9736 102.891 79.8692 104.476 81.3371L110.832 87.1959C111.144 87.4832 111.552 87.6427 111.976 87.6428C112.002 87.6428 112.029 87.6428 112.056 87.6408C112.279 87.6302 112.498 87.5753 112.7 87.4794C112.902 87.3835 113.083 87.2484 113.232 87.082L123.187 75.9827C124.629 74.3958 125.382 72.302 125.281 70.1606C125.181 68.0192 124.235 66.005 122.652 64.56C121.89 63.8615 121.378 62.9327 121.194 61.9157C121.011 60.8987 121.165 59.8494 121.634 58.9286C128.223 53.3708 133.444 46.3714 136.894 38.4722C140.343 30.573 141.929 21.9859 141.528 13.3756ZM137.694 23.3997C134.653 21.7443 132.052 19.3854 130.108 16.5197C132.771 15.8868 135.479 15.4614 138.208 15.2474C138.248 17.974 138.076 20.6996 137.694 23.3997ZM77.8145 52.5017L72.6581 47.8662L81.6322 38.1521C82.0487 37.6946 82.5512 37.3236 83.111 37.0603C83.6708 36.797 84.2771 36.6466 84.895 36.6176C85.513 36.5886 86.1306 36.6816 86.7127 36.8913C87.2947 37.1011 87.8297 37.4234 88.2872 37.8399C89.7616 39.1748 91.6766 39.919 93.6655 39.9301C91.3891 43.854 89.5964 48.0392 88.3265 52.3943C86.9035 53.7202 85.0363 54.4664 83.0914 54.4863C81.1465 54.5061 79.2644 53.7983 77.8145 52.5017ZM30.4411 127.112C25.2942 128.666 11.2112 131.391 7.06469 125.642C5.22672 123.094 4.70219 117.972 9.9925 107.688C9.42606 111.724 10.1421 114.732 12.1359 116.766C14.0332 118.701 16.8117 119.378 19.7752 119.378C26.6498 119.378 34.5127 115.73 34.6252 115.675C42.9443 111.593 53.298 102.693 65.399 89.2217C73.9431 79.7107 81.1651 70.3346 84.7226 65.5739L86.5983 67.2814C86.5322 67.2814 86.4669 67.278 86.4014 67.2814C85.0386 67.3452 83.7462 67.905 82.7675 68.8555C81.7888 69.806 81.1914 71.0814 81.0877 72.4418L80.7055 77.4368C80.6859 77.6927 80.725 77.9498 80.8197 78.1884C80.9145 78.4269 81.0624 78.6408 81.2522 78.8136C81.4421 78.9863 81.6688 79.1135 81.9153 79.1855C82.1617 79.2574 82.4213 79.2721 82.6743 79.2286L87.6124 78.3806C88.9571 78.1501 90.171 77.4357 91.0252 76.3719C91.8795 75.3082 92.3151 73.9687 92.25 72.606C92.2469 72.5399 92.2365 72.4752 92.2311 72.4091L93.452 73.5206C86.3668 85.7868 67.0553 113.336 30.4411 127.112ZM88.8781 72.7644C88.9042 73.3049 88.7315 73.8364 88.3925 74.2583C88.0535 74.6801 87.5717 74.9632 87.0381 75.054L84.2338 75.5358L84.4509 72.6997C84.4869 72.2557 84.6547 71.8326 84.9328 71.4846C85.2109 71.1367 85.5867 70.8798 86.0119 70.747C86.1893 70.6925 86.3729 70.6608 86.5583 70.6525C86.5938 70.6508 86.6292 70.6499 86.6646 70.6499C87.2345 70.6508 87.7822 70.8708 88.1942 71.2645C88.6063 71.6581 88.8511 72.1951 88.8781 72.7644ZM94.653 70.0509L87.8158 63.8265L93.3238 62.3865L95.7364 64.5825L94.653 70.0509ZM90.9486 55.659C93.5995 44.8035 99.592 35.0544 108.081 27.7872C113.517 23.1104 119.852 19.5948 126.697 17.4566C129.193 21.521 132.796 24.7895 137.083 26.8784C135.19 35.861 130.986 44.1943 124.887 51.0549C118.787 57.9155 111.003 63.066 102.304 65.9975L90.9486 55.659ZM120.38 67.055C121.304 67.8988 121.855 69.0749 121.912 70.3249C121.969 71.5748 121.528 72.7962 120.684 73.7206L111.861 83.5556L106.762 78.8554C105.314 77.5135 104.429 75.672 104.285 73.7028C104.142 71.7336 104.751 69.7832 105.989 68.2455C110.165 66.6102 114.129 64.4771 117.794 61.8926C117.991 63.8736 118.912 65.7121 120.38 67.0558V67.055Z" fill="#968B82"/>
<path d="M110.163 46.0581C111.716 47.4796 113.745 48.2664 115.85 48.2628C115.985 48.2628 116.12 48.2597 116.256 48.2533C118.212 48.1611 120.075 47.3938 121.528 46.0821C122.981 44.7703 123.934 42.9953 124.225 41.0594C124.516 39.1236 124.127 37.1467 123.124 35.4656C122.121 33.7846 120.566 32.5033 118.724 31.8401C116.882 31.177 114.868 31.173 113.023 31.8288C111.179 32.4847 109.619 33.7598 108.609 35.4369C107.599 37.114 107.202 39.0893 107.486 41.0263C107.769 42.9633 108.715 44.742 110.163 46.0595V46.0581ZM112.098 36.3769C112.89 35.5066 113.96 34.9378 115.124 34.7676C116.289 34.5973 117.476 34.8361 118.484 35.4433C119.493 36.0505 120.259 36.9885 120.653 38.0974C121.047 39.2064 121.045 40.4177 120.646 41.525C120.247 42.6322 119.477 43.567 118.466 44.1698C117.455 44.7727 116.267 45.0065 115.103 44.8313C113.939 44.6561 112.872 44.0828 112.083 43.2091C111.295 42.3354 110.834 41.2153 110.779 40.0397C110.747 39.3723 110.847 38.7053 111.073 38.0767C111.299 37.4482 111.648 36.8705 112.098 36.3769Z" fill="#968B82"/>
<path d="M55.4423 107.015C55.181 107.224 54.9179 107.432 54.6532 107.639C54.3104 107.918 54.0908 108.321 54.0417 108.76C53.9926 109.2 54.1178 109.641 54.3905 109.989C54.6631 110.336 55.0614 110.564 55.4997 110.621C55.938 110.678 56.3814 110.561 56.7344 110.295C57.0065 110.082 57.2768 109.868 57.5455 109.654C57.8954 109.375 58.1202 108.968 58.1703 108.523C58.2204 108.079 58.0918 107.632 57.8127 107.282C57.5337 106.932 57.127 106.708 56.6823 106.658C56.2376 106.607 55.7911 106.736 55.4412 107.015H55.4423Z" fill="#968B82"/>
<path d="M63.2176 100.261C61.8651 101.54 60.4675 102.802 59.0635 104.014C58.8958 104.158 58.7581 104.335 58.6586 104.533C58.559 104.731 58.4993 104.946 58.4831 105.167C58.4502 105.614 58.5961 106.055 58.8885 106.394C59.1809 106.733 59.5959 106.941 60.0422 106.974C60.4886 107.007 60.9297 106.861 61.2685 106.569C62.7111 105.324 64.1469 104.027 65.5365 102.713C65.8617 102.406 66.0515 101.982 66.064 101.534C66.0765 101.087 65.9108 100.653 65.6033 100.327C65.2958 100.002 64.8717 99.8125 64.4243 99.8C63.9769 99.7875 63.5428 99.9532 63.2176 100.261Z" fill="#968B82"/>
<path d="M76.842 87.8829C76.6701 87.743 76.4723 87.6384 76.26 87.575C76.0476 87.5116 75.8249 87.4906 75.6044 87.5132C75.384 87.5359 75.1702 87.6018 74.9752 87.7071C74.7802 87.8124 74.6078 87.9551 74.468 88.127C72.0211 91.135 69.4184 94.0532 66.7336 96.801C66.4208 97.1211 66.2479 97.5524 66.253 97.9999C66.2582 98.4474 66.4408 98.8746 66.7609 99.1874C67.081 99.5003 67.5122 99.6732 67.9598 99.668C68.4073 99.6629 68.8345 99.4802 69.1473 99.1602C71.9036 96.3395 74.5754 93.3439 77.087 90.2566C77.3693 89.9094 77.502 89.4642 77.4561 89.019C77.4101 88.5739 77.1893 88.1652 76.842 87.8829Z" fill="#968B82"/>
</svg>
