<svg viewBox="0 0 80 80" fill="none" xmlns="http://www.w3.org/2000/svg">
<path d="M50.1376 69.8492C48.1213 70.4369 46.0312 70.7326 43.931 70.7273C43.6824 70.7273 43.4439 70.8261 43.2681 71.0019C43.0923 71.1777 42.9935 71.4161 42.9935 71.6648C42.9935 71.9134 43.0923 72.1519 43.2681 72.3277C43.4439 72.5035 43.6824 72.6023 43.931 72.6023C46.2104 72.6076 48.4787 72.2862 50.6668 71.6478C50.9023 71.5751 51.0998 71.4125 51.2163 71.1953C51.3329 70.9782 51.3593 70.7238 51.2897 70.4873C51.2201 70.2509 51.0602 70.0513 50.8446 69.9319C50.629 69.8124 50.375 69.7827 50.1376 69.8492Z" fill="#3E61EE"/>
<path d="M20.4289 21.1573C21.0032 20.2839 21.6749 19.4787 22.4313 18.7572C22.6075 18.5843 22.7085 18.3489 22.7122 18.102C22.7159 17.8552 22.6221 17.6168 22.4512 17.4387C22.2802 17.2606 22.0459 17.1571 21.7991 17.1507C21.5523 17.1443 21.3129 17.2355 21.133 17.4045C20.274 18.2247 19.5112 19.14 18.8594 20.1328C18.7902 20.2359 18.7423 20.3517 18.7182 20.4734C18.6942 20.5952 18.6945 20.7205 18.7193 20.8422C18.7441 20.9638 18.7927 21.0793 18.8625 21.1819C18.9322 21.2846 19.0217 21.3724 19.1256 21.4402C19.2296 21.508 19.346 21.5546 19.468 21.5771C19.5901 21.5995 19.7154 21.5976 19.8367 21.5713C19.958 21.545 20.0729 21.4948 20.1746 21.4238C20.2764 21.3527 20.363 21.2622 20.4295 21.1573H20.4289Z" fill="#3E61EE"/>
<path d="M36.6596 11.8282C34.0254 11.7561 31.3976 12.123 28.884 12.914C27.2641 13.4235 25.7115 14.1265 24.2599 15.0078C24.1541 15.0716 24.0619 15.1557 23.9887 15.2552C23.9155 15.3548 23.8627 15.4678 23.8334 15.5879C23.804 15.7079 23.7987 15.8326 23.8177 15.9547C23.8366 16.0768 23.8796 16.1939 23.944 16.2994C24.0084 16.4048 24.0931 16.4965 24.193 16.5691C24.293 16.6417 24.4064 16.6939 24.5266 16.7225C24.6468 16.7512 24.7715 16.7558 24.8935 16.7361C25.0154 16.7164 25.1323 16.6728 25.2374 16.6078C26.5603 15.8054 27.975 15.1653 29.451 14.7015C31.767 13.9739 34.1878 13.6365 36.6144 13.7032H36.6374C36.8861 13.7062 37.1257 13.6102 37.3036 13.4365C37.4815 13.2628 37.5831 13.0255 37.586 12.7768C37.589 12.5282 37.493 12.2886 37.3193 12.1107C37.1455 11.9328 36.9082 11.8312 36.6596 11.8282Z" fill="#3E61EE"/>
<path d="M3.4375 45.2988C3.4375 45.0502 3.33873 44.8117 3.16291 44.6359C2.9871 44.4601 2.74864 44.3613 2.5 44.3613C2.25136 44.3613 2.0129 44.4601 1.83709 44.6359C1.66127 44.8117 1.5625 45.0502 1.5625 45.2988C1.56789 47.6613 2.22771 49.9761 3.46875 51.9863C3.59948 52.1944 3.80667 52.3428 4.04575 52.3997C4.28482 52.4565 4.53666 52.4172 4.74704 52.2902C4.95743 52.1632 5.10954 51.9587 5.17065 51.7207C5.23175 51.4827 5.19695 51.2302 5.07375 51.0176C4.01043 49.2991 3.44406 47.3196 3.4375 45.2988Z" fill="#3E61EE"/>
<path d="M11.1739 56.5396C9.84781 55.8535 8.61838 54.9949 7.51767 53.986C7.4275 53.9012 7.32144 53.8351 7.20559 53.7915C7.08974 53.7479 6.96641 53.7277 6.8427 53.732C6.71899 53.7363 6.59737 53.7651 6.48484 53.8167C6.37231 53.8682 6.2711 53.9416 6.18706 54.0324C6.10302 54.1233 6.03781 54.2299 5.99519 54.3462C5.95257 54.4624 5.93339 54.5859 5.93875 54.7095C5.9441 54.8332 5.9739 54.9546 6.02641 55.0667C6.07892 55.1788 6.15311 55.2793 6.2447 55.3626C7.46692 56.4839 8.83222 57.4385 10.305 58.2014C10.5254 58.3166 10.7825 58.3396 11.0198 58.2652C11.2571 58.1909 11.4551 58.0253 11.5703 57.805C11.6855 57.5846 11.7085 57.3275 11.6342 57.0902C11.5598 56.8529 11.3943 56.6549 11.1739 56.5396Z" fill="#3E61EE"/>
<path d="M16.4727 58.4038C16.2291 58.354 15.9757 58.4029 15.7681 58.5399C15.5606 58.6769 15.4161 58.8907 15.3662 59.1344C15.3164 59.378 15.3653 59.6314 15.5023 59.8389C15.6393 60.0464 15.8531 60.191 16.0968 60.2408C17.6937 60.5654 19.3192 60.7283 20.9488 60.7269C21.1974 60.7269 21.4359 60.6282 21.6117 60.4523C21.7875 60.2765 21.8863 60.0381 21.8863 59.7894C21.8863 59.5408 21.7875 59.3023 21.6117 59.1265C21.4359 58.9507 21.1974 58.8519 20.9488 58.8519C19.4455 58.8533 17.9459 58.7032 16.4727 58.4038Z" fill="#3E61EE"/>
<path d="M70.9515 28.9895C71.153 28.9897 71.3492 28.925 71.511 28.805C71.6729 28.685 71.7918 28.516 71.8501 28.3232C71.9083 28.1303 71.9029 27.9237 71.8346 27.7342C71.7663 27.5446 71.6388 27.3821 71.4709 27.2707C70.2567 26.469 68.9606 25.799 67.6043 25.2723C67.4896 25.2275 67.3672 25.2057 67.2441 25.2082C67.121 25.2107 66.9996 25.2374 66.8869 25.2868C66.7741 25.3362 66.6722 25.4074 66.5869 25.4962C66.5016 25.585 66.4346 25.6897 66.3898 25.8044C66.345 25.9191 66.3233 26.0415 66.3258 26.1646C66.3282 26.2877 66.355 26.4091 66.4044 26.5218C66.5042 26.7496 66.6903 26.9284 66.9219 27.0188C68.1538 27.4968 69.3311 28.1049 70.4338 28.8328C70.5871 28.935 70.7672 28.9895 70.9515 28.9895Z" fill="#3E61EE"/>
<path d="M75.1847 32.0375C75.0798 32.102 74.9886 32.1865 74.9164 32.2861C74.8441 32.3858 74.7922 32.4987 74.7636 32.6185C74.735 32.7382 74.7302 32.8624 74.7496 32.984C74.769 33.1056 74.8122 33.2222 74.8766 33.3271C76.0485 35.1796 76.6333 37.3431 76.5544 39.5338C76.5496 39.6568 76.569 39.7796 76.6116 39.8951C76.6543 40.0106 76.7192 40.1166 76.8028 40.207C76.8864 40.2975 76.987 40.3705 77.0988 40.422C77.2106 40.4736 77.3315 40.5026 77.4546 40.5074H77.4917C77.7339 40.5072 77.9666 40.4133 78.1411 40.2454C78.3156 40.0775 78.4184 39.8486 78.4278 39.6066C78.5128 37.0457 77.8328 34.5176 76.4747 32.3449C76.4102 32.24 76.3257 32.1488 76.2259 32.0766C76.1262 32.0044 76.0132 31.9525 75.8934 31.924C75.7736 31.8954 75.6494 31.8908 75.5278 31.9103C75.4062 31.9297 75.2896 31.973 75.1847 32.0375Z" fill="#3E61EE"/>
<path d="M19.6702 66.2876C18.672 65.7783 17.7249 65.1744 16.842 64.4842C16.7454 64.4062 16.6343 64.3483 16.5151 64.3136C16.3959 64.279 16.271 64.2683 16.1476 64.2824C16.0243 64.2964 15.905 64.3347 15.7966 64.3952C15.6882 64.4557 15.5929 64.5371 15.5162 64.6348C15.4395 64.7324 15.383 64.8443 15.3499 64.9639C15.3168 65.0835 15.3078 65.2086 15.3234 65.3317C15.339 65.4549 15.3789 65.5737 15.4408 65.6813C15.5027 65.7889 15.5853 65.8831 15.6839 65.9586C16.6611 66.7232 17.7094 67.3921 18.8145 67.9562C19.0356 68.0678 19.2919 68.0875 19.5274 68.0108C19.7629 67.9341 19.9584 67.7673 20.0714 67.5469C20.1843 67.3265 20.2055 67.0704 20.1302 66.8344C20.055 66.5985 19.8894 66.4019 19.6697 66.2876H19.6702Z" fill="#3E61EE"/>
<path d="M29.257 68.528C28.5769 68.5265 27.8898 68.494 27.2156 68.4313C26.3771 68.3535 25.5436 68.2279 24.7194 68.0554C24.4764 68.0054 24.2236 68.0537 24.0163 68.1897C23.8089 68.3257 23.6638 68.5383 23.6129 68.7811C23.5619 69.0238 23.6092 69.2768 23.7444 69.4847C23.8796 69.6926 24.0917 69.8385 24.3342 69.8904C25.2277 70.0886 26.1317 70.2357 27.0419 70.3312C27.7723 70.3991 28.5162 70.469 29.2528 70.469H29.2548C29.5062 70.4602 29.7444 70.3543 29.9192 70.1735C30.094 69.9927 30.1919 69.7511 30.1922 69.4996C30.1925 69.248 30.0952 69.0062 29.9207 68.825C29.7463 68.6438 29.5084 68.5373 29.257 68.528Z" fill="#3E61EE"/>
<path d="M32.8298 35.4648C32.847 35.4969 32.8661 35.5279 32.8869 35.5577C32.8881 35.5598 32.89 35.5615 32.8912 35.5635C32.9019 35.5784 32.9137 35.5917 32.925 35.6057C32.9395 35.6237 32.9539 35.642 32.9694 35.6587C32.9823 35.6726 32.9961 35.6851 33.0097 35.6981C33.0253 35.7137 33.0409 35.7282 33.0583 35.7421C33.0725 35.7537 33.0872 35.7645 33.102 35.7752C33.1198 35.7882 33.1378 35.8009 33.1564 35.8124C33.172 35.822 33.1876 35.831 33.2033 35.8396C33.2225 35.8501 33.2419 35.8598 33.2616 35.8688C33.2781 35.8765 33.2945 35.8845 33.3114 35.8906C33.3309 35.8984 33.3508 35.9048 33.3708 35.9112C33.3908 35.9176 33.4066 35.9229 33.425 35.9268C33.4434 35.9307 33.4633 35.9349 33.4825 35.9385C33.5017 35.9421 33.5217 35.9467 33.5417 35.949C33.5589 35.9512 33.5762 35.9513 33.5936 35.9526C33.6144 35.954 33.635 35.9566 33.6561 35.9566C33.7002 35.9563 33.7443 35.9529 33.788 35.9463C33.7959 35.9452 33.8036 35.9434 33.8117 35.942C33.8469 35.936 33.8818 35.9281 33.9161 35.9181C33.9272 35.9148 33.9381 35.9113 33.9494 35.9077C33.9824 35.8966 34.0148 35.8837 34.0464 35.8692C34.0558 35.8648 34.0655 35.861 34.0748 35.8562C34.0811 35.8531 34.0876 35.8509 34.0939 35.8476C34.1276 35.8295 34.1602 35.8094 34.1914 35.7873L34.1936 35.786C34.7008 35.4316 35.2389 35.1233 35.8012 34.8651C36.0271 34.761 36.2023 34.5714 36.2884 34.3381C36.3745 34.1048 36.3643 33.8468 36.2602 33.6209C36.1561 33.3951 35.9665 33.2199 35.7332 33.1338C35.4999 33.0477 35.2419 33.0578 35.0161 33.162C34.6841 33.3151 34.3612 33.4813 34.0473 33.6607C32.6156 30.2793 32.957 26.5835 35.0347 23.3781C35.1699 23.1694 35.2167 22.9155 35.1647 22.6724C35.1128 22.4292 34.9664 22.2166 34.7577 22.0814C34.5491 21.9462 34.2952 21.8994 34.0521 21.9513C33.8089 22.0033 33.5963 22.1497 33.4611 22.3584C30.8128 26.4442 30.5816 31.2187 32.8262 35.4574C32.8272 35.4607 32.8283 35.4626 32.8298 35.4648Z" fill="#3E61EE"/>
<path d="M45.6497 16.4688C45.7696 16.4409 45.8828 16.3897 45.9829 16.318C46.083 16.2463 46.168 16.1556 46.2331 16.0511C46.2982 15.9466 46.342 15.8303 46.3621 15.7088C46.3822 15.5873 46.3782 15.4631 46.3503 15.3432C46.3224 15.2233 46.2711 15.11 46.1995 15.0099C46.1278 14.9098 46.0371 14.8248 45.9326 14.7598C45.8281 14.6947 45.7117 14.6509 45.5903 14.6308C45.4688 14.6106 45.3446 14.6147 45.2247 14.6426C43.8409 14.9629 42.491 15.415 41.1934 15.9927C40.1075 16.4769 39.0664 17.0562 38.0825 17.7237C37.98 17.7926 37.8921 17.8812 37.824 17.9842C37.7558 18.0872 37.7087 18.2027 37.6853 18.324C37.6619 18.4453 37.6627 18.57 37.6877 18.691C37.7127 18.812 37.7613 18.9269 37.8308 19.029C37.9003 19.1311 37.9893 19.2185 38.0927 19.2861C38.1961 19.3537 38.3119 19.4002 38.4333 19.423C38.5547 19.4457 38.6794 19.4442 38.8003 19.4186C38.9211 19.393 39.0357 19.3437 39.1375 19.2737C40.0299 18.6685 40.9739 18.1434 41.9587 17.7043C43.1468 17.1757 44.3828 16.762 45.6497 16.4688Z" fill="#3E61EE"/>
<path d="M64.7335 18.8027C63.1878 17.5233 61.4548 16.489 59.595 15.7358C59.3659 15.6458 59.1105 15.6495 58.8841 15.7462C58.6577 15.8428 58.4784 16.0247 58.3849 16.2524C58.2914 16.4802 58.2913 16.7355 58.3845 16.9634C58.4777 17.1913 58.6568 17.3733 58.8832 17.4702C60.5653 18.1507 62.1329 19.0854 63.5313 20.2418C63.7221 20.4012 63.9685 20.4782 64.2161 20.456C64.4638 20.4338 64.6924 20.3141 64.8518 20.1233C65.0112 19.9324 65.0883 19.6861 65.0661 19.4384C65.0438 19.1908 64.9241 18.9621 64.7333 18.8027H64.7335Z" fill="#3E61EE"/>
<path d="M7.71607 28.3644C8.01669 27.8374 8.35453 27.3325 8.72701 26.8536C9.47182 25.9036 10.3301 25.0483 11.2826 24.3067C11.4782 24.1532 11.6047 23.9282 11.6344 23.6813C11.6641 23.4344 11.5945 23.1859 11.4409 22.9903C11.2873 22.7948 11.0624 22.6682 10.8155 22.6385C10.5686 22.6089 10.3201 22.6785 10.1245 22.832C9.05145 23.6682 8.08474 24.6325 7.24592 25.7034C6.81854 26.2532 6.43094 26.8328 6.08607 27.4378C5.51623 28.4354 5.0777 29.5025 4.78139 30.6125C4.74846 30.732 4.73954 30.8568 4.75515 30.9797C4.77076 31.1027 4.81058 31.2213 4.87233 31.3287C4.93407 31.4362 5.0165 31.5303 5.11485 31.6057C5.2132 31.6811 5.32553 31.7362 5.44532 31.7679C5.56512 31.7996 5.69002 31.8073 5.81279 31.7904C5.93555 31.7735 6.05376 31.7325 6.16057 31.6697C6.26738 31.6068 6.36067 31.5234 6.43504 31.4243C6.50942 31.3252 6.56341 31.2123 6.59389 31.0922C6.84883 30.1384 7.22602 29.2215 7.71607 28.3644Z" fill="#3E61EE"/>
<path d="M6.90755 39.8081C7.13136 39.6999 7.30304 39.5072 7.38482 39.2724C7.4666 39.0377 7.45179 38.78 7.34364 38.5562C7.07648 38.004 6.8544 37.4311 6.67958 36.8431C6.60894 36.6047 6.4465 36.4041 6.22797 36.2855C6.00945 36.1668 5.75275 36.1399 5.51434 36.2105C5.27594 36.2811 5.07536 36.4436 4.95673 36.6621C4.8381 36.8806 4.81113 37.1373 4.88177 37.3757C5.08559 38.0609 5.34457 38.7285 5.65614 39.3718C5.70959 39.4828 5.7844 39.5821 5.8763 39.6641C5.96819 39.7461 6.07535 39.8092 6.19165 39.8497C6.30795 39.8902 6.43111 39.9074 6.55406 39.9003C6.67701 39.8931 6.79734 39.8618 6.90817 39.8081H6.90755Z" fill="#3E61EE"/>
<path d="M15.8136 48.2436C21.4611 50.4664 27.7412 50.4664 33.3888 48.2436C33.395 48.2411 33.4006 48.2378 33.4069 48.2352C33.4236 48.2282 33.44 48.2205 33.4563 48.2124C33.4702 48.2053 33.4838 48.1982 33.4972 48.1905C33.5106 48.1828 33.5261 48.1741 33.5402 48.165C33.5542 48.156 33.5703 48.145 33.585 48.1338C33.5964 48.1255 33.608 48.1182 33.6191 48.1088C33.6374 48.0942 33.6549 48.0788 33.6719 48.063C33.6788 48.0566 33.686 48.0508 33.6928 48.0442C33.7174 48.0202 33.7345 47.9688 33.7563 47.9688H33.75C33.75 47.9452 33.7938 47.9205 33.8108 47.895C33.8191 47.8827 33.8292 47.8697 33.837 47.8569C33.8449 47.8441 33.8547 47.8311 33.8619 47.8177C33.871 47.8008 33.8795 47.7833 33.8875 47.766C33.8922 47.756 33.8977 47.7463 33.9019 47.7361C33.9094 47.7182 33.9158 47.7 33.922 47.6817C33.9258 47.6713 33.93 47.661 33.9333 47.6505C33.9383 47.6338 33.9424 47.6169 33.9466 47.6C33.9499 47.5871 33.9535 47.5741 33.9561 47.561C33.9588 47.5478 33.961 47.5327 33.963 47.5185C33.965 47.5042 33.9683 47.4858 33.97 47.4694C33.9711 47.4582 33.9714 47.4471 33.9722 47.436C33.9736 47.4164 33.9747 47.3969 33.9749 47.3772C33.9749 47.3685 33.9749 47.3597 33.9749 47.351C33.9749 47.3294 33.9736 47.3078 33.9716 47.2863C33.9706 47.2777 33.9691 47.2694 33.9681 47.261C33.9655 47.2396 33.9628 47.2183 33.9588 47.1969C33.9564 47.1852 33.9531 47.1736 33.9503 47.1619C33.9463 47.1444 33.9427 47.1267 33.9375 47.1094C33.9303 47.0852 33.9219 47.0614 33.9127 47.0378C33.9108 47.033 33.9097 47.0282 33.9077 47.0233C33.8958 46.994 33.8825 46.9652 33.8677 46.9372C33.8658 46.9338 33.8638 46.9307 33.8617 46.9272C33.8491 46.9038 33.8356 46.8803 33.8208 46.858C33.8088 46.8397 33.7955 46.8225 33.7822 46.8053C33.7769 46.7985 33.7722 46.7911 33.7666 46.7842C33.7266 46.7351 33.6818 46.69 33.6328 46.6499C33.1708 46.273 32.7505 45.8479 32.3789 45.3816C31.44 44.2646 30.9295 42.8499 30.9387 41.3907C30.948 39.9316 31.4764 38.5234 32.4294 37.4185C32.5834 37.2249 32.6547 36.9783 32.6277 36.7325C32.6008 36.4866 32.4777 36.2613 32.2854 36.1058C32.093 35.9502 31.847 35.877 31.601 35.902C31.3549 35.927 31.1286 36.0483 30.9716 36.2394C30.136 37.2547 29.5474 38.45 29.2519 39.7313C26.07 38.6844 23.3083 36.9017 21.3997 34.6411C20.4172 33.4952 19.6549 32.1777 19.1511 30.7549C18.6519 29.3268 18.4648 27.8083 18.6027 26.3017C18.6138 26.1791 18.6007 26.0555 18.5641 25.938C18.5275 25.8204 18.4681 25.7113 18.3893 25.6167C18.2301 25.4256 18.0015 25.3057 17.7539 25.2832C17.6313 25.272 17.5077 25.2851 17.3902 25.3217C17.2726 25.3583 17.1634 25.4178 17.0688 25.4966C16.8778 25.6557 16.7578 25.8843 16.7353 26.1319C16.5731 27.9034 16.7928 29.6891 17.3795 31.3685C17.9587 33.0089 18.8359 34.5282 19.9669 35.85C22.1786 38.4694 25.3903 40.5086 29.0683 41.6422C29.1315 43.433 29.7777 45.1543 30.9086 46.5442C31.0336 46.7014 31.1645 46.8549 31.3003 47.0061C26.5464 48.5332 21.1249 48.3666 16.5169 46.5053C16.2863 46.4122 16.0282 46.4145 15.7994 46.5117C15.5705 46.6089 15.3896 46.793 15.2965 47.0235C15.2034 47.2541 15.2057 47.5122 15.3028 47.7411C15.4 47.9699 15.5841 48.1508 15.8147 48.2439L15.8136 48.2436Z" fill="#3E61EE"/>
<path d="M63.9868 36.4551C59.661 34.9876 55.0072 34.7801 50.568 35.8568C49.0134 34.1237 46.7429 32.8112 44.0462 32.2277C44.0276 32.2237 44.0088 32.2204 43.9902 32.2165C45.4615 30.2988 47.5157 28.6907 50.0093 27.5215C53.1146 26.0654 56.6768 25.4029 60.313 25.6074C60.5605 25.62 60.8029 25.5341 60.9872 25.3685C61.1715 25.2028 61.2827 24.971 61.2966 24.7236C61.3105 24.4762 61.2259 24.2334 61.0612 24.0482C60.8966 23.863 60.6654 23.7506 60.418 23.7354C56.4732 23.514 52.5991 24.2362 49.2132 25.8238C46.0882 27.2891 43.5684 29.393 41.8901 31.9304C41.5738 31.9102 41.2562 31.8991 40.9369 31.8991C40.6883 31.8991 40.4499 31.9979 40.274 32.1737C40.0982 32.3495 39.9994 32.588 39.9994 32.8366C39.9994 33.0853 40.0982 33.3237 40.274 33.4995C40.4499 33.6754 40.6883 33.7741 40.9369 33.7741C41.8486 33.7731 42.7577 33.8691 43.649 34.0605C47.9405 34.9887 50.9376 38.0193 50.9376 41.4301C50.9376 44.0271 49.2385 46.3248 46.6484 47.7098C46.6441 47.7119 46.6401 47.7135 46.636 47.7157C46.6319 47.7179 46.6299 47.7198 46.6266 47.7215C44.8697 48.6328 42.9168 49.1013 40.9376 49.0863C40.5313 49.0863 40.1285 49.0677 39.7291 49.0305C39.7235 49.0305 39.718 49.0298 39.7126 49.0291C39.0408 48.9666 38.3752 48.8499 37.7223 48.6801C37.6026 48.6473 37.4776 48.6386 37.3546 48.6544C37.2315 48.6703 37.1129 48.7105 37.0054 48.7725C36.898 48.8346 36.804 48.9174 36.7288 49.0161C36.6536 49.1148 36.5988 49.2274 36.5674 49.3474C36.5361 49.4675 36.5289 49.5925 36.5462 49.7154C36.5636 49.8382 36.6052 49.9564 36.6685 50.0631C36.7319 50.1697 36.8158 50.2628 36.9154 50.3368C37.015 50.4108 37.1283 50.4642 37.2487 50.4941C37.5642 50.5764 37.8834 50.6477 38.2062 50.708C35.7569 55.0385 30.4809 58.1426 24.378 58.7429C24.1383 58.7661 23.9168 58.8807 23.7593 59.0629C23.6018 59.245 23.5205 59.4808 23.5321 59.7214C23.5438 59.9619 23.6475 60.1887 23.8219 60.3548C23.9963 60.5209 24.2279 60.6136 24.4687 60.6135C24.4996 60.6135 24.5305 60.6119 24.5613 60.6088C31.576 59.9188 37.6307 56.153 40.2037 50.9416C40.4476 50.9537 40.6921 50.9613 40.938 50.9613C42.9083 50.9699 44.8586 50.5665 46.6638 49.7769C48.9087 54.653 47.3809 60.0812 42.6271 63.8149L41.7752 64.4838C39.6338 66.1657 36.9627 67.3901 34.0491 68.0227C33.9283 68.0484 33.8138 68.0976 33.712 68.1677C33.6103 68.2377 33.5234 68.3272 33.4564 68.4309C33.3894 68.5346 33.3435 68.6506 33.3214 68.7721C33.2993 68.8936 33.3014 69.0183 33.3276 69.1389C33.3539 69.2596 33.4037 69.3739 33.4742 69.4753C33.5448 69.5767 33.6347 69.6631 33.7387 69.7297C33.8428 69.7962 33.959 69.8415 34.0806 69.863C34.2022 69.8845 34.3269 69.8817 34.4474 69.8549C37.636 69.1618 40.5704 67.8143 42.9335 65.9584L43.7852 65.2894C46.624 63.0599 48.5051 60.2341 49.2252 57.1176C49.8669 54.3512 49.5469 51.4487 48.318 48.8885C50.1444 47.7219 51.5174 46.1346 52.2399 44.3093C57.8499 46.6682 61.4063 51.2627 61.4063 56.2284V57.1744C61.4063 60.5876 59.7723 63.8512 56.7726 66.3641C56.6264 66.4895 56.5221 66.6568 56.4739 66.8433C56.4257 67.0298 56.4359 67.2266 56.5031 67.4071C56.5702 67.5876 56.6911 67.7432 56.8495 67.8529C57.0079 67.9626 57.196 68.021 57.3887 68.0204C57.604 68.0204 57.812 67.9428 57.9746 67.8016C61.4063 64.926 63.2813 61.1519 63.2813 57.1744V56.2284C63.2813 50.4234 59.1732 45.0982 52.721 42.4794C52.7723 42.1319 52.7999 41.7813 52.8035 41.4301C52.7986 40.0549 52.4373 38.7045 51.7548 37.5107C55.6224 36.7116 59.6332 36.9592 63.3732 38.2277C63.4896 38.268 63.6128 38.285 63.7357 38.2777C63.8587 38.2703 63.979 38.2389 64.0898 38.1851C64.2006 38.1312 64.2997 38.0561 64.3815 37.964C64.4632 37.8719 64.526 37.7646 64.5663 37.6482C64.6066 37.5318 64.6236 37.4086 64.6163 37.2857C64.6089 37.1627 64.5775 37.0424 64.5237 36.9316C64.4698 36.8208 64.3947 36.7217 64.3026 36.6399C64.2105 36.5582 64.1032 36.4954 63.9868 36.4551Z" fill="#3E61EE"/>
<path d="M73.9323 44.2677C73.4343 43.392 72.8489 42.569 72.185 41.8113C72.104 41.7185 72.0056 41.6426 71.8953 41.5879C71.785 41.5332 71.665 41.5007 71.5422 41.4924C71.4194 41.484 71.2961 41.5 71.1794 41.5393C71.0627 41.5786 70.9549 41.6405 70.8622 41.7214C70.7694 41.8024 70.6935 41.9008 70.6388 42.0111C70.5841 42.1214 70.5516 42.2414 70.5433 42.3642C70.535 42.4871 70.5509 42.6103 70.5902 42.727C70.6295 42.8437 70.6914 42.9515 70.7723 43.0442C71.3529 43.7062 71.8648 44.4254 72.3003 45.1906C73.1489 46.6657 73.6436 48.3176 73.7453 50.0163C73.7587 50.2553 73.8631 50.4801 74.037 50.6446C74.2109 50.8091 74.4411 50.9009 74.6805 50.9011C74.698 50.9011 74.7159 50.9011 74.7337 50.8997C74.982 50.8858 75.2145 50.7738 75.3802 50.5884C75.5459 50.403 75.6311 50.1594 75.6172 49.9111C75.5 47.9249 74.9233 45.993 73.9323 44.2677Z" fill="#3E61EE"/>
<path d="M74.3715 53.4828C74.255 53.4431 74.1318 53.4267 74.0089 53.4345C73.886 53.4424 73.7659 53.4744 73.6554 53.5287C73.5449 53.583 73.4462 53.6585 73.3649 53.751C73.2835 53.8434 73.2212 53.951 73.1815 54.0675C72.3581 56.4824 70.6815 58.6759 68.3312 60.4113C68.2307 60.4838 68.1456 60.5756 68.0808 60.6813C68.0161 60.787 67.9729 60.9045 67.9538 61.0269C67.9347 61.1494 67.9401 61.2744 67.9697 61.3948C67.9992 61.5152 68.0524 61.6285 68.126 61.7282C68.1997 61.8279 68.2924 61.912 68.3987 61.9757C68.5051 62.0393 68.623 62.0813 68.7457 62.099C68.8683 62.1168 68.9933 62.1101 69.1134 62.0793C69.2334 62.0484 69.3462 61.9941 69.4451 61.9194C72.1032 59.9564 74.0088 57.4506 74.9562 54.6727C75.0364 54.4374 75.0199 54.1798 74.9102 53.9567C74.8006 53.7335 74.6068 53.5631 74.3715 53.4828Z" fill="#3E61EE"/>
<path d="M37.8125 34.3994C38.5029 34.3994 39.0625 33.8398 39.0625 33.1494C39.0625 32.4591 38.5029 31.8994 37.8125 31.8994C37.1221 31.8994 36.5625 32.4591 36.5625 33.1494C36.5625 33.8398 37.1221 34.3994 37.8125 34.3994Z" fill="#3E61EE"/>
<path d="M34.8438 50.1807C35.5341 50.1807 36.0938 49.621 36.0938 48.9307C36.0938 48.2403 35.5341 47.6807 34.8438 47.6807C34.1534 47.6807 33.5938 48.2403 33.5938 48.9307C33.5938 49.621 34.1534 50.1807 34.8438 50.1807Z" fill="#3E61EE"/>
<path d="M36.0938 21.5869C36.7841 21.5869 37.3438 21.0273 37.3438 20.3369C37.3438 19.6466 36.7841 19.0869 36.0938 19.0869C35.4034 19.0869 34.8438 19.6466 34.8438 20.3369C34.8438 21.0273 35.4034 21.5869 36.0938 21.5869Z" fill="#3E61EE"/>
<path d="M5.15625 35.1807C5.84661 35.1807 6.40625 34.621 6.40625 33.9307C6.40625 33.2403 5.84661 32.6807 5.15625 32.6807C4.46589 32.6807 3.90625 33.2403 3.90625 33.9307C3.90625 34.621 4.46589 35.1807 5.15625 35.1807Z" fill="#3E61EE"/>
<path d="M13.5938 60.0244C14.2841 60.0244 14.8438 59.4648 14.8438 58.7744C14.8438 58.0841 14.2841 57.5244 13.5938 57.5244C12.9034 57.5244 12.3438 58.0841 12.3438 58.7744C12.3438 59.4648 12.9034 60.0244 13.5938 60.0244Z" fill="#3E61EE"/>
<path d="M18.125 24.5557C18.8154 24.5557 19.375 23.996 19.375 23.3057C19.375 22.6153 18.8154 22.0557 18.125 22.0557C17.4346 22.0557 16.875 22.6153 16.875 23.3057C16.875 23.996 17.4346 24.5557 18.125 24.5557Z" fill="#3E61EE"/>
<path d="M21.7188 69.3994C22.4091 69.3994 22.9688 68.8398 22.9688 68.1494C22.9688 67.4591 22.4091 66.8994 21.7188 66.8994C21.0284 66.8994 20.4688 67.4591 20.4688 68.1494C20.4688 68.8398 21.0284 69.3994 21.7188 69.3994Z" fill="#3E61EE"/>
<path d="M40.9375 73.1494C41.6279 73.1494 42.1875 72.5898 42.1875 71.8994C42.1875 71.2091 41.6279 70.6494 40.9375 70.6494C40.2471 70.6494 39.6875 71.2091 39.6875 71.8994C39.6875 72.5898 40.2471 73.1494 40.9375 73.1494Z" fill="#3E61EE"/>
<path d="M55.9441 68.4076C55.7185 68.3318 55.5135 68.2047 55.3453 68.0363C55.1771 67.868 55.0501 67.6629 54.9744 67.4373C54.9122 67.2506 54.7929 67.0882 54.6333 66.9731C54.4737 66.8579 54.2819 66.796 54.0852 66.7959C53.8884 66.7958 53.6967 66.8577 53.537 66.9726C53.3774 67.0876 53.2579 67.2499 53.1956 67.4365C53.1199 67.6622 52.9929 67.8672 52.8247 68.0356C52.6565 68.204 52.4515 68.3311 52.2259 68.407C52.0393 68.4692 51.8769 68.5886 51.7619 68.7482C51.6469 68.9078 51.585 69.0996 51.585 69.2964C51.585 69.4931 51.6469 69.6849 51.7619 69.8445C51.8769 70.0041 52.0393 70.1235 52.2259 70.1857C52.4515 70.2617 52.6565 70.3888 52.8247 70.5571C52.9929 70.7255 53.1199 70.9306 53.1956 71.1562C53.2578 71.3429 53.3772 71.5053 53.5368 71.6204C53.6965 71.7355 53.8883 71.7974 54.0851 71.7974C54.2819 71.7974 54.4737 71.7355 54.6333 71.6204C54.793 71.5053 54.9124 71.3429 54.9745 71.1562C55.0503 70.9306 55.1772 70.7255 55.3454 70.5572C55.5137 70.3888 55.7186 70.2617 55.9442 70.1859C56.1309 70.1237 56.2932 70.0043 56.4083 69.8447C56.5233 69.685 56.5852 69.4933 56.5852 69.2965C56.5852 69.0998 56.5233 68.908 56.4083 68.7484C56.2932 68.5888 56.1309 68.4694 55.9442 68.4071L55.9441 68.4076Z" fill="#3E61EE"/>
<path d="M13.4602 23.8293C13.6569 23.8293 13.8487 23.7673 14.0083 23.6522C14.1679 23.5371 14.2872 23.3746 14.3494 23.1879C14.4251 22.9623 14.552 22.7573 14.7203 22.5889C14.8885 22.4206 15.0935 22.2935 15.3191 22.2176C15.5057 22.1554 15.6681 22.036 15.7831 21.8764C15.8982 21.7168 15.9601 21.525 15.9601 21.3282C15.9601 21.1315 15.8982 20.9397 15.7831 20.7801C15.6681 20.6205 15.5057 20.5011 15.3191 20.4389C15.0935 20.363 14.8885 20.2359 14.7203 20.0676C14.552 19.8992 14.4251 19.6942 14.3494 19.4686C14.2872 19.2818 14.1679 19.1194 14.0083 19.0043C13.8487 18.8892 13.6569 18.8272 13.4602 18.8271C13.2634 18.8271 13.0717 18.8889 12.912 19.0039C12.7524 19.1189 12.6329 19.2812 12.5706 19.4678C12.4949 19.6934 12.3679 19.8985 12.1997 20.0668C12.0315 20.2352 11.8265 20.3623 11.601 20.4382C11.4143 20.5005 11.2519 20.6199 11.1369 20.7795C11.0219 20.9391 10.96 21.1309 10.96 21.3276C10.96 21.5244 11.0219 21.7161 11.1369 21.8758C11.2519 22.0354 11.4143 22.1548 11.601 22.217C11.8265 22.2929 12.0315 22.42 12.1997 22.5884C12.3679 22.7568 12.4949 22.9618 12.5706 23.1875C12.6327 23.3743 12.7521 23.5369 12.9117 23.6521C13.0714 23.7673 13.2633 23.8293 13.4602 23.8293Z" fill="#3E61EE"/>
<path d="M39.457 36.0944C37.7851 36.3998 36.3356 37.2067 35.3762 38.3659C35.2177 38.5575 35.1418 38.8042 35.1652 39.0518C35.1886 39.2993 35.3093 39.5274 35.5009 39.6859C35.6925 39.8444 35.9392 39.9204 36.1867 39.897C36.4343 39.8736 36.6624 39.7528 36.8209 39.5612C37.4895 38.7533 38.5731 38.1619 39.794 37.9389C40.0386 37.8942 40.2554 37.7542 40.3968 37.5496C40.5382 37.3451 40.5925 37.0927 40.5478 36.8481C40.5031 36.6035 40.3631 36.3867 40.1585 36.2453C39.9539 36.104 39.7016 36.0497 39.457 36.0944Z" fill="#3E61EE"/>
<path d="M41.8751 45.9619C41.8751 45.7133 41.7763 45.4748 41.6005 45.299C41.4247 45.1232 41.1862 45.0244 40.9376 45.0244C39.3668 45.0244 37.8855 44.445 36.9755 43.4744C36.4336 42.9306 36.1228 42.1983 36.108 41.4307C36.108 41.182 36.0093 40.9436 35.8334 40.7678C35.6576 40.5919 35.4192 40.4932 35.1705 40.4932C34.9219 40.4932 34.6834 40.5919 34.5076 40.7678C34.3318 40.9436 34.233 41.182 34.233 41.4307C34.2443 42.6755 34.7371 43.8676 35.608 44.7571C36.8849 46.1186 38.8268 46.8994 40.9379 46.8994C41.1865 46.8993 41.4248 46.8005 41.6006 46.6247C41.7763 46.4489 41.8751 46.2105 41.8751 45.9619Z" fill="#3E61EE"/>
<path d="M44.053 44.1675C43.949 44.2334 43.8589 44.3191 43.7881 44.4197C43.7172 44.5204 43.6669 44.6341 43.6399 44.7542C43.613 44.8743 43.6099 44.9986 43.631 45.1199C43.6521 45.2412 43.6968 45.3571 43.7627 45.4611C43.8286 45.5651 43.9143 45.6551 44.015 45.726C44.1157 45.7969 44.2293 45.8472 44.3494 45.8742C44.4696 45.9011 44.5938 45.9042 44.7151 45.8831C44.8364 45.862 44.9524 45.8173 45.0564 45.7514C46.6997 44.7103 47.6422 43.1353 47.6422 41.43C47.6422 39.1939 46.0076 37.2059 43.478 36.3653C43.3607 36.3246 43.2364 36.3076 43.1125 36.3153C42.9886 36.323 42.8675 36.3552 42.7561 36.4101C42.6447 36.465 42.5454 36.5415 42.4638 36.6351C42.3823 36.7287 42.3201 36.8376 42.281 36.9554C42.2418 37.0732 42.2265 37.1977 42.2358 37.3215C42.2451 37.4453 42.279 37.566 42.3353 37.6766C42.3917 37.7872 42.4695 37.8856 42.5642 37.9659C42.6588 38.0462 42.7685 38.1069 42.8869 38.1445C44.6369 38.7261 45.7672 40.0157 45.7672 41.43C45.7672 42.4797 45.1423 43.4773 44.053 44.1675Z" fill="#3E61EE"/>
<path d="M71.0119 68.5637C70.3343 68.3358 69.7187 67.9541 69.2133 67.4484C68.708 66.9427 68.3267 66.3268 68.0992 65.649C68.037 65.4623 67.9177 65.2999 67.758 65.1848C67.5984 65.0697 67.4066 65.0078 67.2098 65.0078C67.013 65.0078 66.8212 65.0697 66.6615 65.1848C66.5019 65.2999 66.3825 65.4623 66.3203 65.649C66.0929 66.3268 65.7116 66.9426 65.2063 67.4484C64.701 67.9541 64.0854 68.3359 63.4078 68.5639C63.2212 68.6261 63.0588 68.7455 62.9438 68.9051C62.8287 69.0647 62.7668 69.2565 62.7668 69.4533C62.7668 69.65 62.8287 69.8418 62.9438 70.0014C63.0588 70.161 63.2212 70.2804 63.4078 70.3426C64.0854 70.5706 64.701 70.9524 65.2063 71.4582C65.7116 71.9639 66.0929 72.5797 66.3203 73.2575C66.3825 73.4442 66.5019 73.6066 66.6615 73.7217C66.8212 73.8368 67.013 73.8987 67.2098 73.8987C67.4066 73.8987 67.5984 73.8368 67.758 73.7217C67.9177 73.6066 68.037 73.4442 68.0992 73.2575C68.3267 72.5797 68.708 71.9638 69.2133 71.4582C69.7187 70.9525 70.3343 70.5707 71.0119 70.3428C71.1985 70.2806 71.3609 70.1612 71.4759 70.0016C71.591 69.8419 71.6529 69.6502 71.6529 69.4534C71.6529 69.2567 71.591 69.0649 71.4759 68.9053C71.3609 68.7456 71.1985 68.6263 71.0119 68.564V68.5637ZM67.2099 70.9301C66.8001 70.3621 66.3019 69.8634 65.7342 69.4531C66.3022 69.0429 66.8006 68.5442 67.2106 67.9761C67.6205 68.5442 68.1189 69.0429 68.6869 69.4531C68.1187 69.8632 67.62 70.3619 67.2099 70.9301Z" fill="#968B82"/>
<path d="M14.6056 9.65747C13.928 9.42957 13.3124 9.0478 12.8071 8.54211C12.3018 8.03642 11.9204 7.42055 11.693 6.74279C11.6308 6.55607 11.5114 6.39367 11.3518 6.27858C11.1921 6.16349 11.0003 6.10156 10.8035 6.10156C10.6067 6.10156 10.4149 6.16349 10.2553 6.27858C10.0957 6.39367 9.97628 6.55607 9.91408 6.74279C9.68663 7.42053 9.30531 8.0364 8.80001 8.54211C8.2947 9.04782 7.67915 9.42963 7.00159 9.65763C6.81493 9.71986 6.65258 9.83924 6.53754 9.99886C6.4225 10.1585 6.3606 10.3502 6.3606 10.547C6.3606 10.7438 6.4225 10.9355 6.53754 11.0951C6.65258 11.2548 6.81493 11.3741 7.00159 11.4364C7.67915 11.6644 8.2947 12.0462 8.80001 12.5519C9.30531 13.0576 9.68663 13.6735 9.91408 14.3512C9.97628 14.5379 10.0957 14.7003 10.2553 14.8154C10.4149 14.9305 10.6067 14.9924 10.8035 14.9924C11.0003 14.9924 11.1921 14.9305 11.3518 14.8154C11.5114 14.7003 11.6308 14.5379 11.693 14.3512C11.9204 13.6734 12.3017 13.0575 12.807 12.5517C13.3124 12.046 13.928 11.6642 14.6056 11.4362C14.7923 11.374 14.9546 11.2546 15.0697 11.095C15.1847 10.9354 15.2466 10.7436 15.2466 10.5468C15.2466 10.3501 15.1847 10.1583 15.0697 9.9987C14.9546 9.83908 14.7923 9.7197 14.6056 9.65747ZM10.8036 12.0239C10.3938 11.4558 9.89565 10.9572 9.32799 10.5468C9.89592 10.1366 10.3944 9.63792 10.8044 9.06982C11.214 9.63793 11.7122 10.1366 12.2799 10.5468C11.7119 10.957 11.2135 11.4557 10.8036 12.0239Z" fill="#968B82"/>
<path d="M67.8125 42.5244C68.4615 42.5244 69.0959 42.332 69.6355 41.9714C70.1751 41.6109 70.5956 41.0984 70.844 40.4988C71.0923 39.8993 71.1573 39.2395 71.0307 38.603C70.9041 37.9665 70.5916 37.3819 70.1327 36.923C69.6738 36.4641 69.0891 36.1516 68.4526 36.025C67.8161 35.8984 67.1564 35.9633 66.5568 36.2117C65.9573 36.46 65.4448 36.8806 65.0842 37.4202C64.7237 37.9598 64.5312 38.5942 64.5312 39.2432C64.5322 40.1131 64.8783 40.9471 65.4934 41.5623C66.1085 42.1774 66.9426 42.5234 67.8125 42.5244ZM67.8125 37.8369C68.0906 37.8369 68.3625 37.9194 68.5938 38.0739C68.825 38.2284 69.0053 38.4481 69.1117 38.705C69.2181 38.962 69.246 39.2447 69.1917 39.5175C69.1375 39.7903 69.0035 40.0409 68.8069 40.2375C68.6102 40.4342 68.3596 40.5681 68.0868 40.6224C67.8141 40.6767 67.5313 40.6488 67.2744 40.5424C67.0174 40.4359 66.7978 40.2557 66.6432 40.0244C66.4887 39.7932 66.4063 39.5213 66.4063 39.2432C66.4067 38.8703 66.555 38.5129 66.8186 38.2493C67.0822 37.9856 67.4397 37.8373 67.8125 37.8369Z" fill="#968B82"/>
<path d="M10.4688 39.3994C9.60346 39.3994 8.7576 39.656 8.03813 40.1367C7.31867 40.6175 6.75791 41.3007 6.42678 42.1002C6.09565 42.8996 6.00901 43.7793 6.17782 44.6279C6.34663 45.4766 6.76331 46.2562 7.37516 46.868C7.98701 47.4799 8.76656 47.8965 9.61523 48.0654C10.4639 48.2342 11.3436 48.1475 12.143 47.8164C12.9424 47.4853 13.6257 46.9245 14.1064 46.205C14.5872 45.4856 14.8438 44.6397 14.8438 43.7744C14.8424 42.6145 14.3811 41.5025 13.5609 40.6823C12.7407 39.8621 11.6287 39.4007 10.4688 39.3994ZM10.4688 46.2744C9.9743 46.2744 9.49095 46.1278 9.07983 45.8531C8.6687 45.5784 8.34827 45.1879 8.15905 44.7311C7.96983 44.2743 7.92032 43.7716 8.01679 43.2867C8.11325 42.8017 8.35135 42.3563 8.70098 42.0066C9.05062 41.657 9.49607 41.4189 9.98103 41.3224C10.466 41.226 10.9686 41.2755 11.4255 41.4647C11.8823 41.6539 12.2727 41.9744 12.5474 42.3855C12.8221 42.7966 12.9688 43.28 12.9688 43.7744C12.968 44.4372 12.7044 45.0727 12.2357 45.5414C11.767 46.01 11.1316 46.2737 10.4688 46.2744Z" fill="#968B82"/>
<path d="M56.8846 16.2579C57.2066 15.4101 57.2993 14.4923 57.1535 13.5971C57.0076 12.702 56.6283 11.8611 56.0538 11.1594C55.4792 10.4576 54.7298 9.91972 53.8811 9.59999C53.0323 9.28026 52.1143 9.18998 51.2196 9.33825C49.3289 7.73357 47.9247 7.28263 47.0457 7.99919C46.763 8.2295 45.9028 8.9306 47.0882 11.51C47.1883 11.7287 47.3008 11.9533 47.4227 12.1834C47.3585 12.317 47.2985 12.4534 47.2452 12.5936C46.9027 13.4846 46.8149 14.4533 46.9916 15.3914C47.1684 16.3295 47.6027 17.1998 48.246 17.9051C48.8893 18.6104 49.7161 19.1227 50.634 19.3847C51.5519 19.6468 52.5246 19.6482 53.4433 19.3889C54.3541 20.082 55.2989 20.5951 56.1032 20.5951C56.4304 20.6012 56.7508 20.5007 57.016 20.3089C58.0369 19.5628 57.5285 17.8523 56.8221 16.4051C56.8425 16.3558 56.8655 16.3083 56.8846 16.2579ZM53.231 11.359C53.8053 11.5762 54.307 11.9504 54.6788 12.4389C55.0507 12.9275 55.2778 13.5107 55.3341 14.1221C55.3905 14.7335 55.2739 15.3484 54.9976 15.8967C54.7213 16.445 54.2965 16.9046 53.7716 17.2231C52.9077 16.4427 52.1068 15.5951 51.3766 14.6884C50.7384 13.9114 50.1512 13.0938 49.6186 12.2409C50.0598 11.7443 50.6418 11.3938 51.2872 11.2363C51.9325 11.0787 52.6106 11.1215 53.231 11.359ZM49.1997 10.1403C49.0255 10.256 48.8585 10.3823 48.6997 10.5184C48.5753 10.2421 48.4745 9.95578 48.3983 9.66247C48.6788 9.7975 48.9469 9.95708 49.1993 10.1393L49.1997 10.1403ZM49.0722 15.7711C48.8758 15.3332 48.7782 14.8573 48.7866 14.3775C49.1374 14.8742 49.5183 15.3764 49.9238 15.8737C50.181 16.1895 50.7716 16.8928 51.5235 17.6623C50.9907 17.5738 50.488 17.3548 50.0603 17.0249C49.6327 16.6951 49.2932 16.2645 49.0722 15.7717V15.7711ZM55.3327 18.4117C55.4039 18.3534 55.4746 18.2945 55.5428 18.2323C55.586 18.3587 55.6233 18.4787 55.6522 18.5864C55.5564 18.5389 55.4491 18.4801 55.3322 18.4103L55.3327 18.4117Z" fill="#968B82"/>
</svg>
