<svg viewBox="0 0 144 144" fill="none" xmlns="http://www.w3.org/2000/svg">
<path d="M90.248 125.728C86.6187 126.786 82.8565 127.318 79.0762 127.309C78.6286 127.309 78.1994 127.486 77.8829 127.803C77.5665 128.119 77.3887 128.549 77.3887 128.996C77.3887 129.444 77.5665 129.873 77.8829 130.189C78.1994 130.506 78.6286 130.684 79.0762 130.684C83.179 130.693 87.262 130.115 91.2006 128.965C91.6245 128.835 91.9799 128.542 92.1897 128.151C92.3996 127.76 92.447 127.302 92.3218 126.877C92.1965 126.451 91.9087 126.092 91.5206 125.877C91.1324 125.662 90.6752 125.608 90.248 125.728Z" fill="#3E61EE"/>
<path d="M36.7724 38.0826C37.806 36.5105 39.0152 35.0611 40.3766 33.7624C40.6939 33.4512 40.8756 33.0274 40.8823 32.5831C40.889 32.1388 40.7202 31.7097 40.4124 31.3891C40.1047 31.0685 39.683 30.8822 39.2387 30.8707C38.7945 30.8592 38.3636 31.0233 38.0397 31.3276C36.4936 32.8039 35.1206 34.4515 33.9472 36.2385C33.8228 36.424 33.7364 36.6324 33.6931 36.8516C33.6498 37.0708 33.6505 37.2964 33.6951 37.5153C33.7397 37.7342 33.8273 37.9421 33.9528 38.1269C34.0784 38.3117 34.2394 38.4697 34.4265 38.5918C34.6136 38.7139 34.8231 38.7976 35.0428 38.8381C35.2625 38.8786 35.4881 38.8751 35.7064 38.8277C35.9247 38.7803 36.1315 38.6901 36.3147 38.5622C36.4979 38.4343 36.6538 38.2713 36.7735 38.0826H36.7724Z" fill="#3E61EE"/>
<path d="M65.9871 21.2904C61.2456 21.1606 56.5156 21.8211 51.991 23.2448C49.0751 24.1619 46.2805 25.4273 43.6677 27.0136C43.4772 27.1284 43.3113 27.2798 43.1795 27.459C43.0478 27.6382 42.9527 27.8417 42.8999 28.0578C42.847 28.2738 42.8374 28.4982 42.8716 28.718C42.9058 28.9378 42.9831 29.1486 43.099 29.3385C43.215 29.5283 43.3673 29.6933 43.5473 29.824C43.7273 29.9547 43.9313 30.0486 44.1477 30.1002C44.364 30.1518 44.5885 30.1601 44.8081 30.1246C45.0276 30.0892 45.238 30.0106 45.4272 29.8936C47.8083 28.4492 50.3548 27.2972 53.0116 26.4623C57.1804 25.1526 61.5379 24.5454 65.9058 24.6654H65.9472C66.3947 24.6707 66.8261 24.498 67.1463 24.1853C67.4665 23.8726 67.6493 23.4454 67.6546 22.9979C67.6599 22.5503 67.4872 22.119 67.1745 21.7988C66.8618 21.4786 66.4347 21.2957 65.9871 21.2904Z" fill="#3E61EE"/>
<path d="M6.1875 81.5386C6.1875 81.091 6.00971 80.6618 5.69324 80.3453C5.37678 80.0289 4.94755 79.8511 4.5 79.8511C4.05245 79.8511 3.62322 80.0289 3.30676 80.3453C2.99029 80.6618 2.8125 81.091 2.8125 81.5386C2.82219 85.791 4.00987 89.9576 6.24375 93.5761C6.47906 93.9506 6.85201 94.2178 7.28235 94.3201C7.71268 94.4224 8.16598 94.3517 8.54468 94.1231C8.92337 93.8945 9.19718 93.5264 9.30716 93.098C9.41715 92.6695 9.35452 92.215 9.13275 91.8323C7.21878 88.7391 6.19931 85.176 6.1875 81.5386Z" fill="#3E61EE"/>
<path d="M20.1134 101.771C17.7264 100.536 15.5134 98.99 13.5321 97.1741C13.3698 97.0214 13.1789 96.9025 12.9704 96.824C12.7619 96.7455 12.5398 96.7091 12.3172 96.7168C12.0945 96.7246 11.8756 96.7764 11.673 96.8692C11.4705 96.962 11.2883 97.094 11.137 97.2576C10.9858 97.4212 10.8684 97.6131 10.7917 97.8223C10.7149 98.0315 10.6804 98.2538 10.6901 98.4764C10.6997 98.699 10.7533 98.9175 10.8479 99.1192C10.9424 99.321 11.0759 99.502 11.2408 99.6519C13.4408 101.67 15.8983 103.388 18.5493 104.762C18.946 104.969 19.4088 105.01 19.8359 104.877C20.263 104.743 20.6195 104.445 20.8269 104.048C21.0343 103.651 21.0756 103.189 20.9418 102.762C20.808 102.334 20.51 101.978 20.1134 101.771Z" fill="#3E61EE"/>
<path d="M29.6509 105.126C29.2125 105.036 28.7563 105.124 28.3828 105.371C28.0093 105.618 27.749 106.003 27.6593 106.441C27.5695 106.88 27.6577 107.336 27.9043 107.709C28.1509 108.083 28.5358 108.343 28.9743 108.433C31.8487 109.017 34.7747 109.31 37.7079 109.308C38.1555 109.308 38.5847 109.13 38.9012 108.813C39.2176 108.497 39.3954 108.068 39.3954 107.62C39.3954 107.173 39.2176 106.743 38.9012 106.427C38.5847 106.11 38.1555 105.933 37.7079 105.933C35.002 105.935 32.3027 105.665 29.6509 105.126Z" fill="#3E61EE"/>
<path d="M127.712 52.1812C128.075 52.1816 128.428 52.0652 128.72 51.8491C129.011 51.6331 129.225 51.329 129.33 50.9818C129.435 50.6346 129.425 50.2628 129.302 49.9216C129.179 49.5804 128.95 49.2879 128.647 49.0874C126.462 47.6442 124.129 46.4383 121.687 45.4902C121.481 45.4096 121.261 45.3704 121.039 45.3749C120.818 45.3793 120.599 45.4274 120.396 45.5164C120.193 45.6053 120.01 45.7334 119.856 45.8932C119.703 46.0531 119.582 46.2416 119.501 46.448C119.421 46.6544 119.382 46.8747 119.386 47.0963C119.391 47.3179 119.439 47.5364 119.528 47.7394C119.707 48.1493 120.042 48.4712 120.459 48.634C122.677 49.4944 124.796 50.5889 126.781 51.8991C127.057 52.083 127.381 52.1812 127.712 52.1812Z" fill="#3E61EE"/>
<path d="M135.333 57.6674C135.144 57.7834 134.98 57.9354 134.85 58.1148C134.719 58.2943 134.626 58.4976 134.575 58.7131C134.523 58.9286 134.514 59.1522 134.549 59.371C134.584 59.5899 134.662 59.7997 134.778 59.9885C136.887 63.3232 137.94 67.2174 137.798 71.1606C137.789 71.3821 137.824 71.6031 137.901 71.811C137.978 72.019 138.095 72.2097 138.245 72.3725C138.396 72.5352 138.577 72.6667 138.778 72.7595C138.979 72.8522 139.197 72.9044 139.418 72.9131H139.485C139.921 72.9128 140.34 72.7438 140.654 72.4416C140.968 72.1393 141.153 71.7273 141.17 71.2917C141.323 66.6821 140.099 62.1315 137.655 58.2206C137.538 58.0318 137.386 57.8677 137.207 57.7377C137.027 57.6077 136.824 57.5143 136.608 57.4629C136.393 57.4116 136.169 57.4032 135.95 57.4383C135.731 57.4733 135.521 57.5512 135.333 57.6674Z" fill="#3E61EE"/>
<path d="M35.406 119.318C33.6092 118.401 31.9046 117.314 30.3154 116.071C30.1414 115.931 29.9414 115.827 29.7268 115.764C29.5123 115.702 29.2875 115.683 29.0654 115.708C28.8434 115.733 28.6286 115.802 28.4335 115.911C28.2384 116.02 28.0668 116.167 27.9288 116.342C27.7908 116.518 27.689 116.719 27.6295 116.935C27.5699 117.15 27.5537 117.375 27.5817 117.597C27.6098 117.819 27.6817 118.032 27.7931 118.226C27.9045 118.42 28.0532 118.589 28.2307 118.725C29.9896 120.101 31.8767 121.306 33.8659 122.321C34.2638 122.522 34.7251 122.557 35.149 122.419C35.5728 122.281 35.9249 121.981 36.1282 121.584C36.3315 121.188 36.3696 120.726 36.2341 120.302C36.0987 119.877 35.8006 119.523 35.4051 119.318H35.406Z" fill="#3E61EE"/>
<path d="M52.6632 123.35C51.4389 123.347 50.2022 123.288 48.9887 123.176C47.4793 123.036 45.9791 122.81 44.4954 122.499C44.0582 122.409 43.6031 122.496 43.2298 122.741C42.8565 122.986 42.5955 123.368 42.5038 123.805C42.4121 124.242 42.4972 124.698 42.7406 125.072C42.9839 125.446 43.3656 125.709 43.8021 125.802C45.4103 126.159 47.0376 126.424 48.6759 126.595C49.9907 126.718 51.3298 126.843 52.6556 126.843H52.6592C53.1117 126.828 53.5404 126.637 53.8551 126.312C54.1698 125.986 54.346 125.551 54.3465 125.099C54.347 124.646 54.1719 124.211 53.8579 123.884C53.5439 123.558 53.1156 123.367 52.6632 123.35Z" fill="#3E61EE"/>
<path d="M59.0938 63.8365C59.1247 63.8942 59.159 63.9501 59.1965 64.0038C59.1987 64.0075 59.2021 64.0106 59.2043 64.0142C59.2235 64.041 59.2448 64.0649 59.2651 64.0902C59.2912 64.1225 59.3171 64.1554 59.345 64.1855C59.3683 64.2106 59.3931 64.2331 59.4175 64.2564C59.4456 64.2845 59.4738 64.3107 59.505 64.3357C59.5306 64.3565 59.557 64.3759 59.5837 64.3953C59.6158 64.4187 59.6481 64.4415 59.6816 64.4623C59.7097 64.4794 59.7379 64.4957 59.766 64.5112C59.8006 64.5301 59.8355 64.5475 59.8709 64.5638C59.9007 64.5776 59.9302 64.5919 59.9606 64.6029C59.9958 64.617 60.0315 64.6285 60.0675 64.64C60.1035 64.6516 60.1319 64.6611 60.1651 64.6682C60.1983 64.6752 60.234 64.6828 60.2686 64.6892C60.3032 64.6957 60.3392 64.7039 60.3752 64.7081C60.4061 64.712 60.4373 64.7123 60.4686 64.7146C60.506 64.7171 60.5431 64.7219 60.5811 64.7219C60.6605 64.7213 60.7398 64.7151 60.8184 64.7033C60.8328 64.7013 60.8466 64.698 60.8612 64.6954C60.9246 64.6848 60.9873 64.6704 61.0491 64.6524C61.069 64.6465 61.0887 64.6403 61.109 64.6338C61.1684 64.6138 61.2267 64.5906 61.2836 64.5644C61.3005 64.5565 61.3179 64.5497 61.3348 64.541C61.3461 64.5354 61.3579 64.5315 61.3691 64.5256C61.4298 64.493 61.4884 64.4568 61.5446 64.417L61.5486 64.4147C62.4616 63.7767 63.4301 63.2219 64.4423 62.7571C64.8489 62.5696 65.1643 62.2284 65.3192 61.8084C65.4742 61.3885 65.4559 60.9241 65.2685 60.5176C65.0811 60.1111 64.7399 59.7957 64.3199 59.6407C63.8999 59.4858 63.4356 59.504 63.0291 59.6914C62.4315 59.9671 61.8502 60.2663 61.2853 60.5892C58.7082 54.5027 59.3227 47.8502 63.0625 42.0804C63.3059 41.7048 63.3901 41.2479 63.2966 40.8102C63.2032 40.3725 62.9396 39.9898 62.564 39.7465C62.1884 39.5031 61.7315 39.4188 61.2938 39.5123C60.8561 39.6058 60.4734 39.8694 60.2301 40.245C55.4631 47.5994 55.0469 56.1935 59.0873 63.8233C59.089 63.8292 59.091 63.8326 59.0938 63.8365Z" fill="#3E61EE"/>
<path d="M82.1691 29.6437C82.385 29.5934 82.5888 29.5012 82.769 29.3722C82.9492 29.2432 83.1022 29.0799 83.2193 28.8918C83.3364 28.7037 83.4153 28.4943 83.4515 28.2757C83.4877 28.057 83.4805 27.8334 83.4302 27.6175C83.38 27.4017 83.2878 27.1979 83.1588 27.0177C83.0297 26.8375 82.8665 26.6845 82.6784 26.5674C82.4902 26.4503 82.2809 26.3714 82.0622 26.3352C81.8436 26.299 81.62 26.3062 81.4041 26.3564C78.9133 26.933 76.4835 27.7468 74.1479 28.7867C72.1932 29.6583 70.3193 30.7009 68.5482 31.9024C68.3637 32.0265 68.2056 32.1859 68.0829 32.3714C67.9602 32.5568 67.8753 32.7647 67.8332 32.983C67.7912 33.2014 67.7926 33.4259 67.8376 33.6436C67.8825 33.8614 67.9701 34.0681 68.0952 34.252C68.2203 34.4358 68.3805 34.5931 68.5667 34.7148C68.7528 34.8365 68.9611 34.9202 69.1796 34.9611C69.3982 35.0021 69.6227 34.9994 69.8402 34.9533C70.0578 34.9071 70.264 34.8185 70.4472 34.6924C72.0535 33.6031 73.7528 32.6578 75.5254 31.8675C77.664 30.9161 79.8887 30.1714 82.1691 29.6437Z" fill="#3E61EE"/>
<path d="M116.521 33.8453C113.738 31.5424 110.619 29.6806 107.271 28.3249C106.859 28.1628 106.399 28.1695 105.992 28.3435C105.584 28.5175 105.261 28.8448 105.093 29.2547C104.925 29.6647 104.925 30.1244 105.092 30.5345C105.26 30.9447 105.583 31.2723 105.99 31.4468C109.018 32.6716 111.84 34.3541 114.357 36.4356C114.7 36.7225 115.144 36.8612 115.589 36.8212C116.035 36.7812 116.447 36.5657 116.734 36.2222C117.021 35.8787 117.159 35.4353 117.119 34.9896C117.079 34.5438 116.864 34.1322 116.52 33.8453H116.521Z" fill="#3E61EE"/>
<path d="M13.889 51.0549C14.4301 50.1063 15.0382 49.1975 15.7087 48.3355C17.0493 46.6255 18.5942 45.0859 20.3088 43.7511C20.6608 43.4747 20.8886 43.0697 20.942 42.6254C20.9954 42.181 20.8702 41.7336 20.5937 41.3816C20.3173 41.0296 19.9123 40.8018 19.468 40.7484C19.0236 40.695 18.5762 40.8203 18.2242 41.0967C16.2927 42.6018 14.5526 44.3375 13.0427 46.2652C12.2734 47.2549 11.5758 48.2981 10.955 49.3871C9.92929 51.1828 9.13994 53.1035 8.60657 55.1015C8.5473 55.3166 8.53124 55.5412 8.55934 55.7625C8.58744 55.9838 8.65912 56.1973 8.77026 56.3907C8.88139 56.5841 9.02977 56.7536 9.2068 56.8893C9.38384 57.025 9.58602 57.1242 9.80166 57.1813C10.0173 57.2384 10.2421 57.2521 10.4631 57.2218C10.6841 57.1914 10.8968 57.1175 11.0891 57.0044C11.2814 56.8913 11.4493 56.7412 11.5832 56.5628C11.717 56.3844 11.8142 56.1812 11.8691 55.965C12.328 54.2481 13.0069 52.5977 13.889 51.0549Z" fill="#3E61EE"/>
<path d="M12.4337 71.6541C12.8366 71.4593 13.1456 71.1125 13.2928 70.6899C13.44 70.2673 13.4133 69.8036 13.2187 69.4007C12.7378 68.4067 12.3381 67.3755 12.0234 66.3171C11.8962 65.8879 11.6038 65.5269 11.2105 65.3133C10.8171 65.0998 10.3551 65.0513 9.92594 65.1784C9.49681 65.3056 9.13577 65.598 8.92223 65.9913C8.70869 66.3846 8.66016 66.8467 8.7873 67.2758C9.15419 68.5091 9.62034 69.7107 10.1812 70.8688C10.2774 71.0685 10.4121 71.2473 10.5775 71.3949C10.7429 71.5425 10.9358 71.656 11.1451 71.729C11.3544 71.8019 11.5761 71.8328 11.7974 71.82C12.0187 71.8071 12.2353 71.7507 12.4348 71.6541H12.4337Z" fill="#3E61EE"/>
<path d="M28.4647 86.8382C38.6303 90.8393 49.9345 90.8393 60.1 86.8382C60.1113 86.8337 60.1214 86.8278 60.1326 86.823C60.1627 86.8104 60.1923 86.7966 60.2215 86.782C60.2466 86.7693 60.271 86.7564 60.2952 86.7426C60.3194 86.7288 60.3472 86.7131 60.3726 86.6968C60.3979 86.6805 60.4268 86.6608 60.4533 86.6405C60.4738 86.6256 60.4946 86.6124 60.5146 86.5955C60.5475 86.5694 60.579 86.5415 60.6096 86.5131C60.622 86.5016 60.635 86.4912 60.6473 86.4794C60.6915 86.436 60.7224 86.3435 60.7615 86.3435H60.7503C60.7503 86.301 60.829 86.2566 60.8597 86.2108C60.8746 86.1885 60.8929 86.1652 60.9069 86.1421C60.921 86.1191 60.9387 86.0957 60.9516 86.0715C60.968 86.0412 60.9834 86.0097 60.9978 85.9784C61.0062 85.9604 61.0161 85.943 61.0236 85.9247C61.0371 85.8924 61.0487 85.8598 61.0599 85.8269C61.0667 85.808 61.0743 85.7895 61.0802 85.7706C61.0892 85.7405 61.0965 85.7101 61.1041 85.6798C61.11 85.6564 61.1165 85.6331 61.1212 85.6095C61.126 85.5858 61.13 85.5585 61.1336 85.533C61.1373 85.5074 61.1432 85.4742 61.1463 85.4446C61.1482 85.4244 61.1488 85.4044 61.1502 85.3844C61.1527 85.3493 61.1547 85.3141 61.155 85.2787C61.155 85.263 61.155 85.2472 61.155 85.2315C61.155 85.1926 61.1527 85.1538 61.1491 85.115C61.1474 85.0995 61.1446 85.0846 61.1429 85.0695C61.1381 85.0309 61.1333 84.9927 61.126 84.9541C61.1218 84.933 61.1159 84.9122 61.1108 84.8911C61.1035 84.8596 61.097 84.8279 61.0878 84.7966C61.0748 84.753 61.0596 84.7103 61.0431 84.6678C61.0397 84.6591 61.0377 84.6504 61.0341 84.6417C61.0127 84.5888 60.9887 84.5371 60.9621 84.4867C60.9587 84.4805 60.955 84.4749 60.9514 84.4687C60.9286 84.4265 60.9044 84.3843 60.8777 84.3441C60.856 84.3112 60.8321 84.2803 60.8082 84.2493C60.7986 84.237 60.7902 84.2237 60.7801 84.2114C60.7082 84.1228 60.6276 84.0418 60.5393 83.9695C59.7077 83.2912 58.9511 82.5258 58.2823 81.6866C56.5923 79.676 55.6733 77.1295 55.6899 74.503C55.7066 71.8766 56.6578 69.3419 58.3731 67.3529C58.6504 67.0046 58.7787 66.5607 58.7302 66.1181C58.6816 65.6755 58.4601 65.2701 58.1139 64.9901C57.7677 64.7101 57.3249 64.5783 56.882 64.6233C56.439 64.6684 56.0318 64.8867 55.7491 65.2306C54.2451 67.0582 53.1855 69.2097 52.6536 71.516C46.9263 69.6316 41.9552 66.4228 38.5197 62.3537C36.7513 60.2911 35.3791 57.9196 34.4722 55.3585C33.5736 52.788 33.237 50.0546 33.485 47.3428C33.5051 47.1221 33.4815 46.8997 33.4156 46.6881C33.3497 46.4765 33.2428 46.28 33.1009 46.1097C32.8144 45.7659 32.403 45.5499 31.9573 45.5094C31.7366 45.4893 31.5141 45.5129 31.3025 45.5788C31.0909 45.6447 30.8944 45.7517 30.7242 45.8935C30.3803 46.18 30.1644 46.5914 30.1238 47.0371C29.8318 50.2258 30.2273 53.4401 31.2834 56.4629C32.3259 59.4157 33.9048 62.1505 35.9406 64.5298C39.9217 69.2446 45.7028 72.9152 52.3232 74.9557C52.4369 78.1792 53.6 81.2774 55.6357 83.7794C55.8607 84.0623 56.0964 84.3385 56.3408 84.6107C47.7838 87.3594 38.025 87.0596 29.7306 83.7093C29.3156 83.5417 28.8511 83.5458 28.4391 83.7208C28.0271 83.8957 27.7015 84.2271 27.5339 84.6421C27.3663 85.0571 27.3704 85.5217 27.5454 85.9336C27.7203 86.3456 28.0517 86.6712 28.4667 86.8388L28.4647 86.8382Z" fill="#3E61EE"/>
<path d="M115.176 65.6196C107.39 62.9781 99.0127 62.6047 91.0221 64.5427C88.2237 61.4231 84.1368 59.0606 79.2828 58.0104C79.2493 58.0031 79.2155 57.9972 79.1821 57.9901C81.8303 54.5384 85.5279 51.6437 90.0164 49.5391C95.6059 46.9182 102.018 45.7257 108.563 46.0938C109.009 46.1164 109.445 45.9618 109.777 45.6637C110.108 45.3656 110.309 44.9483 110.334 44.503C110.359 44.0577 110.206 43.6206 109.91 43.2873C109.614 42.954 109.197 42.7515 108.752 42.7242C101.651 42.3256 94.6781 43.6256 88.5834 46.4834C82.9584 49.1209 78.4227 52.908 75.4018 57.4752C74.8325 57.4389 74.2608 57.4189 73.6862 57.4189C73.2386 57.4189 72.8094 57.5967 72.4929 57.9132C72.1765 58.2296 71.9987 58.6589 71.9987 59.1064C71.9987 59.554 72.1765 59.9832 72.4929 60.2997C72.8094 60.6161 73.2386 60.7939 73.6862 60.7939C75.3271 60.7921 76.9635 60.9649 78.5678 61.3095C86.2926 62.9801 91.6873 68.4352 91.6873 74.5746C91.6873 79.2493 88.629 83.385 83.9667 85.878C83.9591 85.882 83.9518 85.8848 83.9445 85.8887C83.9372 85.8927 83.9335 85.896 83.9276 85.8991C80.7651 87.5396 77.2498 88.3829 73.6873 88.3559C72.956 88.3559 72.231 88.3224 71.5121 88.2555C71.502 88.2555 71.4921 88.254 71.4823 88.2529C70.2731 88.1404 69.075 87.9303 67.8997 87.6246C67.6843 87.5656 67.4594 87.5499 67.2379 87.5785C67.0164 87.6071 66.8028 87.6793 66.6095 87.791C66.4161 87.9028 66.2469 88.0518 66.1115 88.2294C65.9762 88.4071 65.8774 88.6098 65.821 88.8259C65.7646 89.0419 65.7517 89.2671 65.7829 89.4882C65.8141 89.7093 65.889 89.922 66.003 90.114C66.1171 90.306 66.2681 90.4735 66.4474 90.6066C66.6266 90.7398 66.8305 90.8361 67.0473 90.8899C67.6152 91.038 68.1897 91.1664 68.7708 91.2749C64.3622 99.0698 54.8652 104.657 43.8801 105.738C43.4487 105.779 43.0499 105.986 42.7664 106.314C42.4829 106.642 42.3365 107.066 42.3574 107.499C42.3784 107.932 42.5652 108.34 42.8791 108.639C43.1929 108.938 43.6098 109.105 44.0433 109.105C44.099 109.105 44.1546 109.102 44.21 109.096C56.8365 107.854 67.7349 101.076 72.3663 91.6954C72.8053 91.7171 73.2454 91.7309 73.6881 91.7309C77.2346 91.7463 80.7452 91.0202 83.9945 89.599C88.0353 98.376 85.2852 108.147 76.7284 114.867L75.1951 116.071C71.3405 119.099 66.5326 121.303 61.2881 122.441C61.0706 122.488 60.8644 122.576 60.6813 122.702C60.4982 122.828 60.3419 122.989 60.2212 123.176C60.1005 123.363 60.0179 123.571 59.9781 123.79C59.9384 124.009 59.9422 124.233 59.9894 124.451C60.0366 124.668 60.1263 124.874 60.2533 125.056C60.3803 125.239 60.5421 125.394 60.7294 125.514C60.9167 125.634 61.1258 125.715 61.3447 125.754C61.5636 125.793 61.788 125.788 62.005 125.739C67.7445 124.492 73.0263 122.066 77.28 118.726L78.8131 117.521C83.9228 113.508 87.3088 108.422 88.6051 102.812C89.76 97.8326 89.184 92.6082 86.9721 87.9998C90.2597 85.9 92.731 83.0428 94.0315 79.7572C104.13 84.0032 110.531 92.2734 110.531 101.212V102.914C110.531 109.058 107.59 114.933 102.19 119.456C101.927 119.682 101.739 119.983 101.653 120.318C101.566 120.654 101.584 121.008 101.705 121.333C101.826 121.658 102.044 121.938 102.329 122.136C102.614 122.333 102.953 122.438 103.299 122.437C103.687 122.437 104.061 122.297 104.354 122.043C110.531 116.867 113.906 110.074 113.906 102.914V101.212C113.906 90.7625 106.511 81.1772 94.8975 76.4635C94.9898 75.838 95.0394 75.2069 95.046 74.5746C95.0371 72.0993 94.3867 69.6686 93.1582 67.5197C100.12 66.0814 107.339 66.527 114.071 68.8104C114.281 68.8829 114.503 68.9135 114.724 68.9003C114.945 68.8871 115.162 68.8305 115.361 68.7336C115.561 68.6367 115.739 68.5015 115.886 68.3357C116.033 68.1699 116.147 67.9767 116.219 67.7672C116.292 67.5577 116.322 67.336 116.309 67.1147C116.296 66.8934 116.239 66.6768 116.142 66.4774C116.045 66.278 115.91 66.0996 115.744 65.9524C115.579 65.8052 115.385 65.6921 115.176 65.6196Z" fill="#3E61EE"/>
<path d="M133.078 79.6815C132.181 78.1053 131.128 76.6239 129.933 75.26C129.787 75.093 129.61 74.9564 129.411 74.8579C129.213 74.7594 128.997 74.701 128.776 74.686C128.554 74.671 128.333 74.6997 128.123 74.7704C127.912 74.8411 127.718 74.9526 127.552 75.0983C127.385 75.244 127.248 75.4212 127.149 75.6197C127.051 75.8182 126.993 76.0342 126.978 76.2553C126.962 76.4764 126.991 76.6983 127.062 76.9083C127.133 77.1184 127.244 77.3124 127.39 77.4793C128.435 78.6709 129.356 79.9654 130.14 81.3429C131.668 83.9979 132.558 86.9713 132.741 90.029C132.765 90.4592 132.953 90.8638 133.266 91.16C133.579 91.4561 133.994 91.6213 134.424 91.6217C134.456 91.6217 134.488 91.6217 134.52 91.6192C134.967 91.5941 135.386 91.3925 135.684 91.0588C135.982 90.7251 136.136 90.2866 136.111 89.8397C135.9 86.2645 134.861 82.7871 133.078 79.6815Z" fill="#3E61EE"/>
<path d="M133.869 96.2696C133.659 96.198 133.437 96.1685 133.216 96.1827C132.995 96.1968 132.779 96.2544 132.58 96.3521C132.381 96.4499 132.203 96.5858 132.057 96.7522C131.911 96.9186 131.798 97.1123 131.727 97.322C130.245 101.669 127.227 105.617 122.996 108.741C122.815 108.871 122.662 109.037 122.546 109.227C122.429 109.417 122.351 109.629 122.317 109.849C122.283 110.069 122.292 110.294 122.346 110.511C122.399 110.728 122.494 110.932 122.627 111.111C122.76 111.291 122.926 111.442 123.118 111.557C123.309 111.671 123.522 111.747 123.742 111.779C123.963 111.811 124.188 111.799 124.404 111.743C124.62 111.688 124.823 111.59 125.001 111.455C129.786 107.922 133.216 103.412 134.921 98.4113C135.066 97.9877 135.036 97.5241 134.839 97.1225C134.641 96.7208 134.292 96.414 133.869 96.2696Z" fill="#3E61EE"/>
<path d="M68.0625 61.9185C69.3051 61.9185 70.3125 60.9111 70.3125 59.6685C70.3125 58.4258 69.3051 57.4185 68.0625 57.4185C66.8199 57.4185 65.8125 58.4258 65.8125 59.6685C65.8125 60.9111 66.8199 61.9185 68.0625 61.9185Z" fill="#3E61EE"/>
<path d="M62.7188 90.3247C63.9614 90.3247 64.9688 89.3173 64.9688 88.0747C64.9688 86.8321 63.9614 85.8247 62.7188 85.8247C61.4761 85.8247 60.4688 86.8321 60.4688 88.0747C60.4688 89.3173 61.4761 90.3247 62.7188 90.3247Z" fill="#3E61EE"/>
<path d="M64.9688 38.856C66.2114 38.856 67.2188 37.8486 67.2188 36.606C67.2188 35.3633 66.2114 34.356 64.9688 34.356C63.7261 34.356 62.7188 35.3633 62.7188 36.606C62.7188 37.8486 63.7261 38.856 64.9688 38.856Z" fill="#3E61EE"/>
<path d="M9.28125 63.3247C10.5239 63.3247 11.5312 62.3173 11.5312 61.0747C11.5312 59.8321 10.5239 58.8247 9.28125 58.8247C8.03861 58.8247 7.03125 59.8321 7.03125 61.0747C7.03125 62.3173 8.03861 63.3247 9.28125 63.3247Z" fill="#3E61EE"/>
<path d="M24.4688 108.043C25.7114 108.043 26.7188 107.036 26.7188 105.793C26.7188 104.551 25.7114 103.543 24.4688 103.543C23.2261 103.543 22.2188 104.551 22.2188 105.793C22.2188 107.036 23.2261 108.043 24.4688 108.043Z" fill="#3E61EE"/>
<path d="M32.625 44.1997C33.8676 44.1997 34.875 43.1923 34.875 41.9497C34.875 40.7071 33.8676 39.6997 32.625 39.6997C31.3824 39.6997 30.375 40.7071 30.375 41.9497C30.375 43.1923 31.3824 44.1997 32.625 44.1997Z" fill="#3E61EE"/>
<path d="M39.0938 124.918C40.3364 124.918 41.3438 123.911 41.3438 122.668C41.3438 121.426 40.3364 120.418 39.0938 120.418C37.8511 120.418 36.8438 121.426 36.8438 122.668C36.8438 123.911 37.8511 124.918 39.0938 124.918Z" fill="#3E61EE"/>
<path d="M73.6875 131.668C74.9301 131.668 75.9375 130.661 75.9375 129.418C75.9375 128.176 74.9301 127.168 73.6875 127.168C72.4449 127.168 71.4375 128.176 71.4375 129.418C71.4375 130.661 72.4449 131.668 73.6875 131.668Z" fill="#3E61EE"/>
<path d="M100.699 123.133C100.293 122.996 99.924 122.768 99.6211 122.465C99.3183 122.162 99.0898 121.793 98.9535 121.386C98.8416 121.05 98.6268 120.758 98.3396 120.551C98.0523 120.344 97.7071 120.232 97.3529 120.232C96.9988 120.232 96.6536 120.343 96.3662 120.55C96.0789 120.757 95.8639 121.049 95.7518 121.385C95.6154 121.791 95.3869 122.16 95.0841 122.463C94.7813 122.766 94.4124 122.995 94.0063 123.132C93.6703 123.244 93.3781 123.459 93.171 123.746C92.964 124.033 92.8525 124.379 92.8525 124.733C92.8525 125.087 92.964 125.432 93.171 125.719C93.3781 126.007 93.6703 126.222 94.0063 126.334C94.4124 126.47 94.7813 126.699 95.0841 127.002C95.3869 127.305 95.6154 127.674 95.7518 128.08C95.8637 128.417 96.0786 128.709 96.3659 128.916C96.6533 129.123 96.9985 129.235 97.3528 129.235C97.707 129.235 98.0523 129.123 98.3396 128.916C98.627 128.709 98.8418 128.417 98.9538 128.08C99.0901 127.674 99.3186 127.305 99.6214 127.002C99.9242 126.699 100.293 126.47 100.699 126.334C101.035 126.222 101.327 126.007 101.535 125.72C101.742 125.432 101.853 125.087 101.853 124.733C101.853 124.379 101.742 124.034 101.535 123.746C101.327 123.459 101.035 123.244 100.699 123.132L100.699 123.133Z" fill="#3E61EE"/>
<path d="M24.2279 42.8921C24.5821 42.892 24.9273 42.7804 25.2146 42.5732C25.5019 42.366 25.7166 42.0737 25.8285 41.7376C25.9648 41.3314 26.1933 40.9624 26.4961 40.6593C26.799 40.3563 27.1679 40.1276 27.5739 39.991C27.9099 39.879 28.2021 39.6641 28.4092 39.3768C28.6163 39.0895 28.7277 38.7443 28.7277 38.3902C28.7277 38.036 28.6163 37.6908 28.4092 37.4035C28.2021 37.1162 27.9099 36.9013 27.5739 36.7893C27.1679 36.6527 26.799 36.424 26.4961 36.121C26.1933 35.8179 25.9648 35.4489 25.8285 35.0427C25.7166 34.7066 25.5019 34.4143 25.2146 34.2071C24.9273 33.9999 24.5821 33.8883 24.2279 33.8882C23.8738 33.8881 23.5286 33.9994 23.2412 34.2063C22.9539 34.4133 22.7389 34.7054 22.6268 35.0413C22.4904 35.4475 22.2619 35.8166 21.9591 36.1196C21.6563 36.4227 21.2874 36.6515 20.8813 36.7882C20.5453 36.9002 20.2531 37.1151 20.046 37.4024C19.839 37.6897 19.7275 38.0349 19.7275 38.389C19.7275 38.7432 19.839 39.0884 20.046 39.3757C20.2531 39.663 20.5453 39.8779 20.8813 39.9899C21.2874 40.1265 21.6563 40.3554 21.9591 40.6584C22.2619 40.9615 22.4904 41.3306 22.6268 41.7367C22.7385 42.0731 22.9533 42.3657 23.2407 42.5731C23.5281 42.7804 23.8735 42.8921 24.2279 42.8921Z" fill="#3E61EE"/>
<path d="M71.0228 64.9704C68.0134 65.5202 65.4043 66.9726 63.6774 69.0592C63.3921 69.404 63.2554 69.8481 63.2975 70.2937C63.3396 70.7392 63.557 71.1499 63.9018 71.4352C64.2467 71.7205 64.6907 71.8571 65.1363 71.815C65.5819 71.773 65.9925 71.5556 66.2778 71.2107C67.4813 69.7564 69.4318 68.6919 71.6295 68.2905C72.0697 68.2101 72.46 67.958 72.7145 67.5898C72.9689 67.2216 73.0667 66.7674 72.9862 66.3271C72.9058 65.8868 72.6537 65.4965 72.2855 65.2421C71.9173 64.9877 71.4631 64.8899 71.0228 64.9704Z" fill="#3E61EE"/>
<path d="M75.3748 82.731C75.3748 82.2834 75.197 81.8542 74.8805 81.5377C74.5641 81.2212 74.1348 81.0435 73.6873 81.0435C70.8599 81.0435 68.1936 80.0006 66.5556 78.2535C65.5801 77.2745 65.0207 75.9565 64.9941 74.5747C64.9941 74.1272 64.8163 73.6979 64.4999 73.3815C64.1834 73.065 63.7542 72.8872 63.3066 72.8872C62.8591 72.8872 62.4299 73.065 62.1134 73.3815C61.7969 73.6979 61.6191 74.1272 61.6191 74.5747C61.6394 76.8154 62.5264 78.9612 64.0941 80.5622C66.3925 83.0131 69.8879 84.4185 73.6879 84.4185C74.1353 84.4183 74.5644 84.2405 74.8807 83.924C75.1971 83.6076 75.3748 83.1784 75.3748 82.731Z" fill="#3E61EE"/>
<path d="M79.2952 79.5019C79.108 79.6205 78.946 79.7748 78.8184 79.956C78.6908 80.1372 78.6002 80.3418 78.5517 80.558C78.5032 80.7743 78.4977 80.9979 78.5357 81.2163C78.5736 81.4346 78.6542 81.6433 78.7727 81.8305C78.8913 82.0177 79.0456 82.1797 79.2269 82.3073C79.4081 82.4349 79.6126 82.5255 79.8289 82.574C80.0451 82.6225 80.2688 82.628 80.4871 82.59C80.7054 82.5521 80.9141 82.4715 81.1013 82.353C84.0593 80.479 85.7558 77.644 85.7558 74.5744C85.7558 70.5494 82.8136 66.9711 78.2602 65.458C78.049 65.3847 77.8254 65.3541 77.6024 65.368C77.3793 65.3818 77.1613 65.4399 76.9608 65.5387C76.7604 65.6375 76.5816 65.7752 76.4347 65.9437C76.2879 66.1122 76.176 66.3081 76.1056 66.5202C76.0351 66.7323 76.0075 66.9563 76.0243 67.1791C76.0411 67.402 76.102 67.6193 76.2035 67.8184C76.3049 68.0175 76.4449 68.1945 76.6154 68.3391C76.7858 68.4836 76.9832 68.5929 77.1962 68.6606C80.3462 69.7074 82.3808 72.0288 82.3808 74.5744C82.3808 76.4639 81.256 78.2596 79.2952 79.5019Z" fill="#3E61EE"/>
<path d="M127.822 123.415C126.602 123.005 125.494 122.317 124.584 121.407C123.675 120.497 122.988 119.388 122.579 118.168C122.467 117.832 122.252 117.54 121.965 117.333C121.677 117.126 121.332 117.014 120.978 117.014C120.624 117.014 120.278 117.126 119.991 117.333C119.704 117.54 119.489 117.832 119.377 118.168C118.967 119.388 118.281 120.497 117.371 121.407C116.462 122.317 115.354 123.005 114.134 123.415C113.798 123.527 113.506 123.742 113.299 124.029C113.092 124.317 112.98 124.662 112.98 125.016C112.98 125.37 113.092 125.715 113.299 126.003C113.506 126.29 113.798 126.505 114.134 126.617C115.354 127.027 116.462 127.714 117.371 128.625C118.281 129.535 118.967 130.644 119.377 131.864C119.489 132.2 119.704 132.492 119.991 132.699C120.278 132.906 120.624 133.018 120.978 133.018C121.332 133.018 121.677 132.906 121.965 132.699C122.252 132.492 122.467 132.2 122.579 131.864C122.988 130.644 123.675 129.535 124.584 128.625C125.494 127.715 126.602 127.027 127.822 126.617C128.158 126.505 128.45 126.29 128.657 126.003C128.864 125.716 128.975 125.37 128.975 125.016C128.975 124.662 128.864 124.317 128.657 124.03C128.45 123.742 128.158 123.527 127.822 123.415V123.415ZM120.978 127.674C120.24 126.652 119.344 125.754 118.322 125.016C119.344 124.277 120.241 123.38 120.979 122.357C121.717 123.38 122.614 124.277 123.637 125.016C122.614 125.754 121.716 126.652 120.978 127.674Z" fill="#968B82"/>
<path d="M26.2903 17.3835C25.0706 16.9733 23.9625 16.2861 23.0529 15.3759C22.1433 14.4657 21.4569 13.3571 21.0475 12.1371C20.9356 11.801 20.7207 11.5087 20.4334 11.3015C20.146 11.0944 19.8008 10.9829 19.4465 10.9829C19.0923 10.9829 18.747 11.0944 18.4597 11.3015C18.1723 11.5087 17.9574 11.801 17.8455 12.1371C17.4361 13.3571 16.7497 14.4656 15.8402 15.3759C14.9306 16.2862 13.8226 16.9734 12.603 17.3838C12.267 17.4958 11.9748 17.7107 11.7677 17.998C11.5606 18.2854 11.4492 18.6305 11.4492 18.9847C11.4492 19.3389 11.5606 19.6841 11.7677 19.9714C11.9748 20.2587 12.267 20.4736 12.603 20.5856C13.8226 20.996 14.9306 21.6832 15.8402 22.5935C16.7497 23.5038 17.4361 24.6124 17.8455 25.8323C17.9574 26.1684 18.1723 26.4607 18.4597 26.6679C18.747 26.875 19.0923 26.9865 19.4465 26.9865C19.8008 26.9865 20.146 26.875 20.4334 26.6679C20.7207 26.4607 20.9356 26.1684 21.0475 25.8323C21.4568 24.6122 22.1432 23.5035 23.0528 22.5932C23.9624 21.6829 25.0706 20.9956 26.2903 20.5853C26.6263 20.4733 26.9185 20.2584 27.1256 19.9711C27.3327 19.6838 27.4441 19.3386 27.4441 18.9844C27.4441 18.6303 27.3327 18.2851 27.1256 17.9978C26.9185 17.7104 26.6263 17.4956 26.2903 17.3835ZM19.4467 21.6431C18.7091 20.6206 17.8123 19.723 16.7905 18.9844C17.8128 18.246 18.71 17.3484 19.4481 16.3258C20.1854 17.3484 21.0821 18.246 22.1039 18.9844C21.0816 19.7227 20.1844 20.6204 19.4467 21.6431Z" fill="#968B82"/>
<path d="M122.063 76.5435C123.231 76.5435 124.373 76.1971 125.344 75.5481C126.315 74.8991 127.072 73.9767 127.519 72.8974C127.966 71.8182 128.083 70.6307 127.855 69.485C127.627 68.3393 127.065 67.2869 126.239 66.4609C125.413 65.6349 124.36 65.0723 123.215 64.8444C122.069 64.6166 120.882 64.7335 119.802 65.1805C118.723 65.6276 117.801 66.3846 117.152 67.3559C116.503 68.3272 116.156 69.4691 116.156 70.6372C116.158 72.2031 116.781 73.7043 117.888 74.8116C118.995 75.9188 120.497 76.5417 122.063 76.5435ZM122.063 68.106C122.563 68.106 123.053 68.2544 123.469 68.5326C123.885 68.8107 124.209 69.206 124.401 69.6685C124.593 70.1311 124.643 70.64 124.545 71.131C124.447 71.622 124.206 72.0731 123.852 72.4271C123.498 72.7811 123.047 73.0222 122.556 73.1198C122.065 73.2175 121.556 73.1674 121.094 72.9758C120.631 72.7842 120.236 72.4598 119.958 72.0435C119.68 71.6272 119.531 71.1378 119.531 70.6372C119.532 69.9661 119.799 69.3227 120.273 68.8482C120.748 68.3736 121.391 68.1067 122.063 68.106Z" fill="#968B82"/>
<path d="M18.8438 70.9185C17.2862 70.9185 15.7637 71.3803 14.4686 72.2456C13.1736 73.111 12.1642 74.3409 11.5682 75.7798C10.9722 77.2188 10.8162 78.8022 11.1201 80.3298C11.4239 81.8574 12.1739 83.2606 13.2753 84.3619C14.3766 85.4633 15.7798 86.2133 17.3074 86.5171C18.835 86.821 20.4184 86.665 21.8574 86.069C23.2964 85.473 24.5263 84.4636 25.3916 83.1686C26.2569 81.8735 26.7188 80.351 26.7188 78.7935C26.7164 76.7056 25.8859 74.7039 24.4096 73.2276C22.9333 71.7513 20.9316 70.9208 18.8438 70.9185ZM18.8438 83.2935C17.9537 83.2935 17.0837 83.0295 16.3437 82.5351C15.6037 82.0406 15.0269 81.3378 14.6863 80.5155C14.3457 79.6933 14.2566 78.7885 14.4302 77.9156C14.6039 77.0426 15.0324 76.2408 15.6618 75.6115C16.2911 74.9821 17.0929 74.5536 17.9658 74.3799C18.8388 74.2063 19.7436 74.2954 20.5658 74.636C21.3881 74.9766 22.0909 75.5534 22.5854 76.2934C23.0798 77.0334 23.3438 77.9034 23.3438 78.7935C23.3424 79.9865 22.8679 81.1303 22.0243 81.974C21.1806 82.8176 20.0368 83.2921 18.8438 83.2935Z" fill="#968B82"/>
<path d="M102.392 29.2649C102.972 27.7387 103.139 26.0867 102.876 24.4754C102.614 22.8642 101.931 21.3506 100.897 20.0874C99.8625 18.8242 98.5136 17.8561 96.9858 17.2806C95.4581 16.7051 93.8057 16.5425 92.1951 16.8094C88.792 13.921 86.2644 13.1093 84.6821 14.3991C84.1733 14.8137 82.625 16.0757 84.7586 20.7185C84.9389 21.1123 85.1414 21.5164 85.3607 21.9307C85.2452 22.1712 85.1371 22.4167 85.0412 22.669C84.4247 24.2728 84.2667 26.0166 84.5848 27.7051C84.903 29.3936 85.6848 30.9603 86.8427 32.2297C88.0006 33.4992 89.4889 34.4214 91.1412 34.8931C92.7934 35.3648 94.5443 35.3674 96.1979 34.9006C97.8373 36.1482 99.538 37.0718 100.986 37.0718C101.575 37.0827 102.151 36.9019 102.629 36.5566C104.466 35.2136 103.551 32.1348 102.28 29.5298C102.316 29.4409 102.358 29.3554 102.392 29.2649ZM95.8156 20.4468C96.8494 20.8377 97.7524 21.5113 98.4218 22.3907C99.0912 23.27 99.4999 24.3199 99.6013 25.4203C99.7028 26.5208 99.4929 27.6277 98.9956 28.6146C98.4983 29.6016 97.7336 30.4289 96.7888 31.0022C95.2337 29.5974 93.7922 28.0718 92.4778 26.4397C91.329 25.0411 90.272 23.5695 89.3134 22.0342C90.1076 21.1403 91.1552 20.5095 92.3168 20.2259C93.4785 19.9423 94.6989 20.0194 95.8156 20.4468ZM88.5594 18.2531C88.2458 18.4614 87.9452 18.6887 87.6594 18.9337C87.4354 18.4364 87.2539 17.921 87.1169 17.393C87.6218 17.6361 88.1043 17.9233 88.5586 18.2514L88.5594 18.2531ZM88.3299 28.3885C87.9763 27.6003 87.8007 26.7438 87.8158 25.88C88.4472 26.7741 89.1329 27.6781 89.8627 28.5733C90.3257 29.1417 91.3888 30.4076 92.7422 31.7928C91.7831 31.6334 90.8783 31.2392 90.1085 30.6455C89.3387 30.0517 88.7277 29.2768 88.3299 28.3896V28.3885ZM99.5988 33.1416C99.727 33.0367 99.8541 32.9307 99.977 32.8188C100.055 33.0463 100.122 33.2623 100.174 33.4561C100.001 33.3706 99.8083 33.2648 99.5979 33.1391L99.5988 33.1416Z" fill="#968B82"/>
</svg>
