<svg viewBox="0 0 144 144" fill="none" xmlns="http://www.w3.org/2000/svg">
<path d="M45.8219 10.6428C38.6363 13.3773 32.3442 18.0408 27.6378 24.1204C22.9315 30.2 19.9934 37.46 19.1468 45.1015C18.3001 52.7431 19.5778 60.4702 22.8391 67.4325C26.1005 74.3949 31.2191 80.3227 37.6319 84.5638L37.8372 84.2066L39.4488 85.1375C36.7602 81.2211 34.8666 76.815 33.8753 72.1691C31.3507 68.1995 29.5117 63.8336 28.435 59.2541C28.2663 58.5397 28.1198 57.8197 27.9893 57.0974C26.5584 49.2109 27.4374 41.0789 30.5205 33.6803C31.0236 32.472 31.588 31.2776 32.2136 30.0969C35.4395 24.0256 40.1132 18.8437 45.8204 15.0103C51.5277 11.177 58.0924 8.81063 64.9329 8.12085C58.4531 7.46381 51.9094 8.32735 45.8219 10.6428Z" fill="#3E61EE" fill-opacity="0.2"/>
<path d="M86.6008 1.609C86.3954 1.49802 86.1691 1.43089 85.9364 1.41186C85.7036 1.39283 85.4694 1.42232 85.2487 1.49845C85.0279 1.57459 84.8254 1.69572 84.6538 1.85417C84.4823 2.01263 84.3455 2.20496 84.2521 2.419L82.9094 5.49672L81.5876 4.73313C81.3955 4.6222 81.1835 4.55021 80.9637 4.52128C80.7438 4.49234 80.5204 4.50702 80.3062 4.56449C80.092 4.62195 79.8912 4.72107 79.7154 4.85618C79.5395 4.99129 79.392 5.15973 79.2813 5.35188L76.495 10.1776C76.384 10.3696 76.312 10.5816 76.2831 10.8015C76.2542 11.0213 76.2688 11.2448 76.3263 11.4589C76.3838 11.6731 76.4829 11.8739 76.618 12.0497C76.7531 12.2256 76.9216 12.3731 77.1137 12.4838L84.3522 16.6629C84.5443 16.7738 84.7563 16.8458 84.9761 16.8748C85.196 16.9037 85.4194 16.889 85.6336 16.8316C85.8478 16.7741 86.0486 16.675 86.2244 16.5399C86.4003 16.4048 86.5478 16.2363 86.6585 16.0442L89.4448 11.2185C89.5558 11.0264 89.6278 10.8144 89.6567 10.5946C89.6856 10.3747 89.6709 10.1513 89.6135 9.9371C89.556 9.72291 89.4569 9.52215 89.3218 9.34629C89.1867 9.17044 89.0182 9.02294 88.8261 8.91222L85.8519 7.19491L86.5994 5.47929C94.3132 9.99909 100.71 16.4589 105.154 24.2168C109.597 31.9746 111.933 40.7604 111.93 49.7008C111.93 77.9591 88.94 100.949 60.6814 100.949C52.7225 100.948 44.8727 99.0985 37.7511 95.5451L38.9953 93.2546L41.4467 94.6699C41.6387 94.7808 41.8507 94.8528 42.0706 94.8817C42.2905 94.9106 42.5139 94.896 42.7281 94.8385C42.9423 94.781 43.143 94.6819 43.3189 94.5468C43.4947 94.4117 43.6422 94.2432 43.753 94.0511L46.539 89.2254C46.6499 89.0334 46.7219 88.8214 46.7509 88.6015C46.7798 88.3816 46.7651 88.1582 46.7077 87.944C46.6502 87.7299 46.5511 87.5291 46.416 87.3532C46.2809 87.1774 46.1124 87.0299 45.9203 86.9192L38.6809 82.7437C38.4889 82.6328 38.2769 82.5608 38.057 82.5319C37.8371 82.5029 37.6137 82.5176 37.3995 82.5751C37.1853 82.6326 36.9846 82.7317 36.8087 82.8668C36.6329 83.0019 36.4854 83.1703 36.3746 83.3625L33.5886 88.1879C33.4777 88.3799 33.4057 88.5919 33.3767 88.8118C33.3478 89.0317 33.3625 89.2551 33.4199 89.4693C33.4774 89.6834 33.5765 89.8842 33.7116 90.0601C33.8467 90.2359 34.0152 90.3834 34.2073 90.4941L36.0709 91.5699L33.9655 95.4453C33.7519 95.8385 33.7032 96.3005 33.8302 96.7296C33.9572 97.1588 34.2495 97.5199 34.6427 97.7335C42.6618 102.062 51.6315 104.328 60.7441 104.327C62.0488 104.327 63.2816 104.278 64.6878 104.187V117.844H63.4627C62.5306 117.844 61.8753 118.671 61.8753 119.603V131.173L53.2854 139.713C53.046 139.947 52.8812 140.246 52.8116 140.573C52.742 140.901 52.7709 141.241 52.8944 141.552C53.0168 141.859 53.2284 142.122 53.5017 142.307C53.7751 142.493 54.0977 142.592 54.4281 142.593H78.0688C78.4025 142.593 78.7286 142.494 79.0061 142.309C79.2836 142.123 79.4999 141.86 79.6278 141.552C79.7447 141.237 79.7663 140.895 79.6899 140.568C79.6134 140.241 79.4424 139.943 79.1981 139.713L70.5941 131.173V119.603C70.5941 118.671 69.9666 117.844 69.0345 117.844H68.0628V103.843C94.5003 100.283 115.367 77.3617 115.367 49.7019C115.358 39.8359 112.68 30.1561 107.615 21.689C102.551 13.222 95.2893 6.28341 86.6008 1.609ZM84.5778 12.8942L80.262 10.4023L81.3606 8.49963L85.6764 10.9912L84.5778 12.8942ZM38.4551 86.5102L42.7706 89.0018L41.672 90.9045L37.3562 88.4129L38.4551 86.5102ZM73.9949 139.219H58.5023L64.7058 133.065C65.0361 132.754 65.2315 132.326 65.2503 131.872V121.219H67.2191V131.872C67.2431 132.327 67.4433 132.755 67.7773 133.065L73.9949 139.219Z" fill="#3E61EE"/>
<path d="M124.667 53.8978C124.447 53.9204 124.233 53.9862 124.038 54.0914C123.843 54.1966 123.67 54.3393 123.53 54.5112C123.39 54.683 123.286 54.8808 123.222 55.0931C123.159 55.3054 123.138 55.5282 123.16 55.7487C124.266 66.3535 122.02 77.0381 116.74 86.3009C116.63 86.4934 116.559 86.7057 116.532 86.9256C116.504 87.1455 116.52 87.3687 116.579 87.5824C116.637 87.7961 116.737 87.9962 116.873 88.1712C117.009 88.3463 117.178 88.4928 117.371 88.6025C117.564 88.7121 117.776 88.7828 117.996 88.8104C118.216 88.8381 118.439 88.8221 118.653 88.7635C118.866 88.7049 119.066 88.6048 119.241 88.4688C119.416 88.3329 119.563 88.1638 119.673 87.9712C125.302 78.0976 127.695 66.7084 126.518 55.4041C126.496 55.1836 126.43 54.9695 126.325 54.7744C126.22 54.5792 126.077 54.4067 125.905 54.2667C125.733 54.1268 125.535 54.0221 125.323 53.9588C125.11 53.8955 124.888 53.8748 124.667 53.8978Z" fill="#3E61EE"/>
<path d="M103.87 105.08C104.234 105.08 104.589 104.961 104.88 104.742C105.899 103.979 106.905 103.17 107.868 102.337C109.462 100.959 110.976 99.4896 112.402 97.9375C112.555 97.7749 112.674 97.5835 112.753 97.3744C112.831 97.1653 112.867 96.9427 112.859 96.7195C112.851 96.4963 112.799 96.2769 112.705 96.0741C112.612 95.8713 112.479 95.6891 112.314 95.538C112.15 95.3869 111.957 95.2699 111.747 95.1939C111.537 95.118 111.314 95.0844 111.091 95.0953C110.868 95.1061 110.649 95.1611 110.447 95.2571C110.246 95.3532 110.065 95.4882 109.916 95.6546C108.578 97.1111 107.157 98.4898 105.661 99.7839C104.757 100.565 103.814 101.324 102.858 102.04C102.574 102.253 102.365 102.549 102.259 102.887C102.154 103.225 102.157 103.588 102.269 103.924C102.381 104.26 102.596 104.552 102.883 104.759C103.171 104.966 103.516 105.078 103.87 105.078V105.08Z" fill="#3E61EE"/>
<path d="M101.355 105.194C101.239 105.006 101.087 104.842 100.907 104.712C100.728 104.582 100.524 104.489 100.309 104.438C100.093 104.387 99.8695 104.378 99.6507 104.414C99.4319 104.449 99.2221 104.527 99.0335 104.643C98.2879 105.102 97.5203 105.548 96.7528 105.968C96.5566 106.073 96.3831 106.217 96.2425 106.389C96.1018 106.562 95.9967 106.761 95.9333 106.974C95.8698 107.188 95.8492 107.412 95.8727 107.633C95.8962 107.855 95.9633 108.069 96.0701 108.265C96.1769 108.46 96.3214 108.632 96.4951 108.772C96.6689 108.911 96.8685 109.014 97.0824 109.076C97.2964 109.138 97.5205 109.157 97.7417 109.132C97.963 109.107 98.1771 109.038 98.3717 108.929C99.1904 108.482 100.009 108.006 100.804 107.516C100.993 107.4 101.157 107.248 101.286 107.068C101.416 106.889 101.509 106.685 101.561 106.47C101.612 106.254 101.62 106.03 101.585 105.812C101.55 105.593 101.472 105.383 101.355 105.194Z" fill="#3E61EE"/>
<path d="M99.0772 70.101C110.325 48.9288 102.251 22.5531 81.0788 11.3065C59.9063 0.058208 33.5313 8.13205 22.2832 29.304C11.0352 50.4759 19.1096 76.8515 40.2818 88.0993C50.4662 93.5046 62.3801 94.6451 73.405 91.2702C84.4299 87.8953 93.6638 80.2811 99.0772 70.101ZM96.8553 67.0092L84.005 60.1824C86.5077 55.2387 88.294 49.9639 89.3102 44.5168C92.9811 44.2757 96.6058 43.5639 100.095 42.399C101.659 50.7383 100.524 59.359 96.8547 67.0092H96.8553ZM70.5508 73.4234C66.9313 68.232 62.2078 63.9059 56.7192 60.7553L61.3787 51.9843L79.4406 61.5797C77.0218 65.9084 74.0318 69.892 70.5508 73.4234ZM34.9634 58.219C40.9142 58.2394 46.7857 59.586 52.1506 62.161L40.6219 83.8623C35.7169 76.5602 33.83 67.6443 34.9634 58.219ZM50.8425 25.949C54.4622 31.1368 59.1733 35.4699 64.6451 38.644L59.9817 47.4218L41.9198 37.8264C44.3461 33.4838 47.3474 29.4886 50.8425 25.949ZM86.3925 41.231C80.4378 41.2138 74.5637 39.8528 69.2081 37.2496L80.7394 15.5444C85.6506 22.8575 87.5363 31.7894 86.3914 41.2315L86.3925 41.231ZM66.2294 35.66C61.092 32.6566 56.6891 28.5453 53.3414 23.6253C60.5158 17.4096 68.9592 13.9835 77.7573 13.9612L66.2294 35.66ZM58.3983 50.4003L53.7352 59.1781C48.0421 56.4216 41.8151 54.9433 35.4905 54.8468C36.4665 49.9692 38.0965 45.2457 40.3364 40.8043L58.3983 50.4003ZM55.1358 63.7371C60.2914 66.7175 64.7074 70.8237 68.0542 75.7493C60.8716 81.9835 52.4138 85.4212 43.6023 85.4457L55.1358 63.7371ZM62.9632 49.003L67.6233 40.232C73.3069 43.0147 79.5356 44.5059 85.8632 44.5989C84.8859 49.4613 83.2588 54.17 81.0257 58.5984L62.9632 49.003ZM99.3342 39.0881C96.2535 40.145 93.0541 40.8175 89.8086 41.0903C90.6729 33.2505 89.5872 25.7223 86.5522 19.0561C92.7387 24.289 97.1947 31.2734 99.3331 39.089L99.3342 39.0881ZM60.7473 9.60411C64.4153 9.60383 68.0658 10.1105 71.5951 11.1096C64.3844 12.3241 57.5489 15.6296 51.542 20.72C49.9492 17.885 48.7078 14.8665 47.8452 11.7312C52.0016 10.3253 56.3595 9.60684 60.7473 9.60411ZM44.6817 12.951C45.6834 16.4842 47.1293 19.8761 48.9848 23.0453C45.0257 26.9436 41.6435 31.3872 38.9406 36.2416L26.09 29.4154C30.3779 22.0892 36.8908 16.3217 44.6817 12.9513V12.951ZM24.506 32.3955L37.356 39.2223C34.8462 44.1795 33.0571 49.4696 32.0429 54.9326C28.3776 55.1693 24.7572 55.8703 21.2685 57.0189C19.7008 48.6757 20.8349 40.0499 24.506 32.3955ZM22.0296 60.3236C25.1106 59.2827 28.3071 58.6216 31.5482 58.3549C30.6923 66.179 31.7785 73.6917 34.807 80.3458C28.6234 75.1152 24.1688 68.1346 22.0296 60.3231V60.3236ZM49.7678 88.2953C56.9909 87.0778 63.8388 83.7672 69.8519 78.662C71.4416 81.5033 72.6745 84.5299 73.5228 87.6732C65.8492 90.2758 57.5671 90.4925 49.7678 88.2948V88.2953ZM76.688 86.4531C75.7005 82.9098 74.2622 79.5079 72.4082 76.331C76.3536 72.4393 79.7249 68.0059 82.4207 63.164L95.2702 69.9905C90.9842 77.3142 84.4749 83.0807 76.688 86.4526V86.4531Z" fill="#968B82"/>
</svg>
