<svg viewBox="0 0 144 144" fill="none" xmlns="http://www.w3.org/2000/svg">
<path d="M81.5648 13.396C58.2098 16.3182 40.342 36.1969 39.1157 58.9023C38.9685 61.5671 39.0542 64.2398 39.3717 66.8898C39.4139 67.2498 39.4617 67.6069 39.5151 67.9613C40.1617 72.5311 41.4682 76.9828 43.3935 81.1773C45.2743 85.3183 46.2375 89.817 46.2173 94.3651V111.434H45.8573C45.1976 111.434 44.5444 111.564 43.9349 111.816C43.3255 112.069 42.7717 112.439 42.3052 112.905C41.8388 113.372 41.4688 113.925 41.2164 114.535C40.964 115.144 40.8341 115.798 40.8342 116.457V126.014C40.8339 126.674 40.9636 127.327 41.2159 127.937C41.4683 128.546 41.8382 129.1 42.3047 129.567C42.7712 130.033 43.3251 130.403 43.9347 130.655C44.5442 130.908 45.1976 131.038 45.8573 131.037H54.2948C53.6351 131.038 52.9817 130.908 52.3722 130.655C51.7626 130.403 51.2087 130.033 50.7422 129.567C50.2757 129.1 49.9058 128.546 49.6534 127.937C49.4011 127.327 49.2714 126.674 49.2717 126.014V116.457C49.2716 115.798 49.4015 115.144 49.6539 114.535C49.9063 113.925 50.2763 113.372 50.7427 112.905C51.2092 112.439 51.763 112.069 52.3724 111.816C52.9819 111.564 53.6351 111.434 54.2948 111.434H54.6548V94.3651C54.675 89.817 53.7118 85.3183 51.831 81.1773C49.9057 76.9828 48.5992 72.5311 47.9526 67.9613C47.8992 67.6069 47.8514 67.2498 47.8092 66.8898C47.4917 64.2398 47.406 61.5671 47.5532 58.9023C48.7795 36.1969 66.6473 16.3182 90.0023 13.396C90.6355 13.3169 91.2671 13.2504 91.8971 13.1966C88.4555 12.8995 84.9923 12.9664 81.5648 13.396V13.396Z" fill="#3E61EE" fill-opacity="0.2"/>
<path d="M35.3723 20.2705C36.4513 20.633 37.4317 21.2405 38.2365 22.0454C39.0414 22.8503 39.6488 23.8307 40.0112 24.9097C40.1232 25.2458 40.338 25.5381 40.6254 25.7453C40.9127 25.9525 41.258 26.0639 41.6122 26.0639C41.9665 26.0639 42.3117 25.9525 42.5991 25.7453C42.8864 25.5381 43.1013 25.2458 43.2132 24.9097C43.5758 23.8305 44.1835 22.85 44.9887 22.0451C45.7938 21.2401 46.7745 20.6327 47.8539 20.2705C48.1898 20.1585 48.4821 19.9436 48.6891 19.6563C48.8962 19.369 49.0076 19.0238 49.0076 18.6696C49.0076 18.3155 48.8962 17.9703 48.6891 17.683C48.4821 17.3957 48.1898 17.1808 47.8539 17.0688C46.7744 16.7063 45.7937 16.0986 44.9885 15.2935C44.1834 14.4883 43.5757 13.5075 43.2132 12.4281C43.1013 12.092 42.8864 11.7997 42.5991 11.5926C42.3117 11.3854 41.9665 11.2739 41.6122 11.2739C41.258 11.2739 40.9127 11.3854 40.6254 11.5926C40.338 11.7997 40.1232 12.092 40.0112 12.4281C39.6487 13.5075 39.0411 14.4883 38.2359 15.2935C37.4308 16.0986 36.45 16.7063 35.3706 17.0688C35.0346 17.1808 34.7424 17.3957 34.5353 17.683C34.3282 17.9703 34.2168 18.3155 34.2168 18.6696C34.2168 19.0238 34.3282 19.369 34.5353 19.6563C34.7424 19.9436 35.0346 20.1585 35.3706 20.2705H35.3723ZM41.6124 16.5392C42.2197 17.3451 42.9367 18.0621 43.7425 18.6696C42.9366 19.2769 42.2196 19.9939 41.6124 20.7998C41.0049 19.9939 40.2878 19.2769 39.4819 18.6696C40.2877 18.0621 41.0048 17.345 41.6124 16.5392V16.5392Z" fill="#3E61EE"/>
<path d="M141.441 25.6284C140.362 25.266 139.381 24.6584 138.576 23.8532C137.77 23.0481 137.163 22.0672 136.8 20.9878C136.688 20.6518 136.474 20.3596 136.186 20.1525C135.899 19.9454 135.554 19.834 135.2 19.834C134.845 19.834 134.5 19.9454 134.213 20.1525C133.926 20.3596 133.711 20.6518 133.599 20.9878C133.236 22.0671 132.629 23.0478 131.824 23.853C131.019 24.6581 130.039 25.2658 128.959 25.6284C128.623 25.7404 128.331 25.9553 128.124 26.2426C127.917 26.5299 127.806 26.8751 127.806 27.2293C127.806 27.5834 127.917 27.9286 128.124 28.2159C128.331 28.5032 128.623 28.7181 128.959 28.8301C130.038 29.1926 131.019 29.8001 131.824 30.6049C132.629 31.4098 133.237 32.3901 133.599 33.4691C133.711 33.8051 133.926 34.0973 134.213 34.3044C134.501 34.5114 134.846 34.6229 135.2 34.6229C135.554 34.6229 135.899 34.5114 136.187 34.3044C136.474 34.0973 136.689 33.8051 136.801 33.4691C137.164 32.3897 137.771 31.409 138.576 30.6038C139.381 29.7987 140.362 29.191 141.442 28.8285C141.778 28.7164 142.07 28.5016 142.277 28.2142C142.484 27.9269 142.595 27.5817 142.595 27.2276C142.595 26.8734 142.484 26.5282 142.277 26.2409C142.07 25.9536 141.778 25.7387 141.442 25.6267L141.441 25.6284ZM135.2 29.36C134.593 28.5539 133.876 27.8367 133.07 27.2293C133.876 26.6221 134.593 25.9051 135.2 25.0991C135.807 25.905 136.525 26.622 137.331 27.2293C136.525 27.8367 135.807 28.5539 135.2 29.36V29.36Z" fill="#3E61EE"/>
<path d="M123.515 49.879C124.947 54.4504 125.49 59.2544 125.111 64.0301C125.076 64.4762 125.219 64.9182 125.509 65.2589C125.799 65.5996 126.212 65.8111 126.658 65.847C126.704 65.8507 126.75 65.8526 126.795 65.8526C127.219 65.8522 127.627 65.6921 127.938 65.4044C128.25 65.1167 128.441 64.7224 128.475 64.2999C128.888 59.0917 128.297 53.8526 126.734 48.8674C126.668 48.656 126.56 48.4597 126.418 48.2898C126.275 48.12 126.101 47.9798 125.904 47.8773C125.708 47.7748 125.493 47.7121 125.272 47.6926C125.052 47.6731 124.829 47.6973 124.618 47.7638C124.406 47.8302 124.21 47.9377 124.04 48.08C123.87 48.2224 123.73 48.3968 123.628 48.5933C123.525 48.7898 123.463 49.0045 123.443 49.2253C123.424 49.446 123.448 49.6685 123.514 49.8799L123.515 49.879Z" fill="#3E61EE"/>
<path d="M120.533 42.9604C120.64 43.1555 120.785 43.3275 120.959 43.4665C121.133 43.6055 121.333 43.7086 121.547 43.7701C121.761 43.8315 121.985 43.85 122.206 43.8245C122.427 43.7989 122.641 43.7299 122.835 43.6213C123.03 43.5127 123.201 43.3668 123.338 43.1919C123.476 43.0169 123.578 42.8165 123.638 42.602C123.698 42.3876 123.714 42.1635 123.687 41.9425C123.66 41.7215 123.59 41.5081 123.48 41.3145C122.662 39.8521 121.755 38.4418 120.764 37.0915C120.497 36.7351 120.1 36.4983 119.66 36.4329C119.22 36.3675 118.772 36.4786 118.413 36.7422C118.054 37.0057 117.814 37.4003 117.745 37.84C117.676 38.2797 117.783 38.7289 118.044 39.0898C118.953 40.3274 119.784 41.62 120.533 42.9604V42.9604Z" fill="#3E61EE"/>
<path d="M27.9068 47.5332C28.1259 47.5667 28.3495 47.5567 28.5647 47.5037C28.7799 47.4508 28.9826 47.3559 29.1611 47.2245C29.3397 47.0932 29.4905 46.9279 29.6051 46.7382C29.7197 46.5484 29.7957 46.338 29.8289 46.1188C30.3086 42.9831 31.1122 39.9055 32.2266 36.9354C33.3679 33.8962 34.818 30.9821 36.5542 28.2389C36.6758 28.0516 36.759 27.8421 36.7991 27.6224C36.8391 27.4027 36.8351 27.1772 36.7874 26.9591C36.7396 26.7409 36.6491 26.5344 36.521 26.3515C36.3928 26.1686 36.2297 26.013 36.0409 25.8936C35.8522 25.7743 35.6417 25.6936 35.4215 25.6562C35.2013 25.6188 34.976 25.6254 34.7584 25.6758C34.5408 25.7261 34.3354 25.8192 34.1541 25.9495C33.9728 26.0798 33.8191 26.2448 33.702 26.435C31.8421 29.3736 30.2887 32.4953 29.0662 35.7511C27.8704 38.9401 27.0084 42.2444 26.4938 45.6112C26.4265 46.0534 26.5375 46.5042 26.8025 46.8647C27.0674 47.2251 27.4647 47.4655 27.9068 47.5332V47.5332Z" fill="#3E61EE"/>
<path d="M83.2187 127.143C84.3869 127.143 85.5288 126.796 86.5001 126.147C87.4714 125.498 88.2284 124.576 88.6754 123.497C89.1224 122.417 89.2394 121.23 89.0115 120.084C88.7836 118.938 88.2211 117.886 87.3951 117.06C86.5691 116.234 85.5167 115.671 84.371 115.444C83.2253 115.216 82.0377 115.333 80.9585 115.78C79.8793 116.227 78.9569 116.984 78.3079 117.955C77.6589 118.926 77.3125 120.068 77.3125 121.236C77.3143 122.802 77.9371 124.303 79.0444 125.411C80.1516 126.518 81.6529 127.141 83.2187 127.143ZM83.2187 118.705C83.7194 118.705 84.2088 118.854 84.625 119.132C85.0413 119.41 85.3657 119.805 85.5573 120.268C85.7489 120.73 85.799 121.239 85.7014 121.73C85.6037 122.221 85.3626 122.672 85.0086 123.026C84.6546 123.38 84.2036 123.621 83.7126 123.719C83.2215 123.817 82.7126 123.766 82.2501 123.575C81.7876 123.383 81.3922 123.059 81.1141 122.643C80.8359 122.226 80.6875 121.737 80.6875 121.236C80.6882 120.565 80.9552 119.922 81.4297 119.447C81.9042 118.973 82.5476 118.706 83.2187 118.705Z" fill="#3E61EE"/>
<path d="M100.094 127.143C101.262 127.143 102.404 126.796 103.375 126.147C104.346 125.498 105.103 124.576 105.55 123.497C105.997 122.417 106.114 121.23 105.886 120.084C105.659 118.938 105.096 117.886 104.27 117.06C103.444 116.234 102.392 115.671 101.246 115.444C100.1 115.216 98.9127 115.333 97.8335 115.78C96.7543 116.227 95.8319 116.984 95.1829 117.955C94.5339 118.926 94.1875 120.068 94.1875 121.236C94.1893 122.802 94.8121 124.303 95.9194 125.411C97.0266 126.518 98.5279 127.141 100.094 127.143V127.143ZM100.094 118.705C100.594 118.705 101.084 118.854 101.5 119.132C101.916 119.41 102.241 119.805 102.432 120.268C102.624 120.73 102.674 121.239 102.576 121.73C102.479 122.221 102.238 122.672 101.884 123.026C101.53 123.38 101.079 123.621 100.588 123.719C100.097 123.817 99.5876 123.766 99.1251 123.575C98.6626 123.383 98.2672 123.059 97.9891 122.643C97.7109 122.226 97.5625 121.737 97.5625 121.236C97.5632 120.565 97.8302 119.922 98.3047 119.447C98.7792 118.973 99.4226 118.706 100.094 118.705V118.705Z" fill="#3E61EE"/>
<path d="M66.3437 127.143C67.5119 127.143 68.6538 126.796 69.6251 126.147C70.5964 125.498 71.3534 124.576 71.8004 123.497C72.2474 122.417 72.3644 121.23 72.1365 120.084C71.9086 118.938 71.3461 117.886 70.5201 117.06C69.6941 116.234 68.6417 115.671 67.496 115.444C66.3503 115.216 65.1628 115.333 64.0835 115.78C63.0043 116.227 62.0819 116.984 61.4329 117.955C60.7839 118.926 60.4375 120.068 60.4375 121.236C60.4393 122.802 61.0621 124.303 62.1694 125.411C63.2766 126.518 64.7779 127.141 66.3437 127.143V127.143ZM66.3437 118.705C66.8444 118.705 67.3338 118.854 67.75 119.132C68.1663 119.41 68.4907 119.805 68.6823 120.268C68.8739 120.73 68.924 121.239 68.8264 121.73C68.7287 122.221 68.4876 122.672 68.1336 123.026C67.7796 123.38 67.3286 123.621 66.8376 123.719C66.3466 123.817 65.8376 123.766 65.3751 123.575C64.9126 123.383 64.5172 123.059 64.2391 122.643C63.961 122.226 63.8125 121.737 63.8125 121.236C63.8132 120.565 64.0802 119.922 64.5547 119.447C65.0292 118.973 65.6726 118.706 66.3437 118.705V118.705Z" fill="#3E61EE"/>
<path d="M81.6601 69.9164C82.0033 69.9164 82.3462 69.8948 82.6867 69.8518C83.7406 69.7223 84.7586 69.3863 85.6826 68.8629C86.6065 68.3396 87.4182 67.6392 88.0712 66.8019C88.7275 65.9697 89.2111 65.0149 89.4937 63.9934C89.7763 62.9719 89.8522 61.9043 89.7171 60.8532C89.5044 59.2712 88.8298 57.787 87.7777 56.5866C86.7257 55.3861 85.343 54.5226 83.8026 54.1041C82.2622 53.6856 80.6326 53.7308 79.1177 54.234C77.6028 54.7371 76.27 55.6759 75.2861 56.9328C74.6299 57.765 74.1463 58.7198 73.8636 59.7413C73.581 60.7628 73.5051 61.8303 73.6403 62.8815C73.8941 64.8283 74.8482 66.6161 76.3241 67.9107C77.8 69.2054 79.6968 69.9184 81.6601 69.9164V69.9164ZM77.9439 59.0129C78.326 58.5234 78.8009 58.114 79.3415 57.8083C79.882 57.5026 80.4775 57.3065 81.0939 57.2312C81.2935 57.2059 81.4944 57.1933 81.6955 57.1932C82.8377 57.1896 83.9421 57.6021 84.8023 58.3535C85.6625 59.1049 86.2197 60.1439 86.3696 61.2762C86.4475 61.8852 86.403 62.5037 86.2388 63.0953C86.0746 63.687 85.794 64.2399 85.4134 64.7217C84.84 65.4539 84.064 66.0013 83.1818 66.2956C82.2997 66.5899 81.3504 66.6182 80.4523 66.3769C79.5542 66.1357 78.7469 65.6355 78.131 64.9388C77.5151 64.242 77.1178 63.3795 76.9885 62.4585C76.9106 61.8495 76.955 61.2311 77.1191 60.6395C77.2831 60.0478 77.5636 59.4949 77.9439 59.0129V59.0129Z" fill="#17E5C3"/>
<path d="M81.6393 77.6395C82.3129 77.6394 82.9859 77.5969 83.6542 77.5124C84.1899 77.4449 84.7177 77.3511 85.2376 77.2311L119.106 98.2591L120.887 95.3903L89.2263 75.7341C91.1641 74.6941 92.8643 73.2622 94.2188 71.5296C95.5043 69.8997 96.4515 68.0296 97.0051 66.0289C97.5587 64.0283 97.7075 61.9372 97.4428 59.8783C97.0418 56.7811 95.7317 53.8722 93.678 51.5194C91.6243 49.1665 88.9191 47.4753 85.9045 46.6596L114.654 21.7408L112.443 19.1904L81.396 46.101C80.83 46.1119 80.2649 46.1528 79.7032 46.2233C77.6355 46.4771 75.6381 47.1362 73.8253 48.1628C72.0126 49.1894 70.42 50.5633 69.1389 52.2061C67.8534 53.836 66.9061 55.706 66.3524 57.7067C65.7987 59.7073 65.6498 61.7983 65.9143 63.8571C66.919 71.8109 73.7638 77.6395 81.6393 77.6395V77.6395ZM71.7956 54.2854C72.8058 52.9906 74.0613 51.9078 75.4905 51.0988C76.9196 50.2898 78.4942 49.7706 80.1242 49.5708C80.6516 49.5043 81.1826 49.471 81.7141 49.4709C84.7412 49.464 87.6672 50.5596 89.9455 52.5528C92.2237 54.5461 93.6981 57.3007 94.0933 60.3019C94.3007 61.9185 94.1834 63.5603 93.7483 65.131C93.3132 66.7018 92.5691 68.1699 91.5596 69.4495C90.5493 70.7443 89.2937 71.8271 87.8645 72.6361C86.4353 73.4451 84.8607 73.9643 83.2306 74.1641C76.3844 75.0267 70.1179 70.2137 69.2615 63.4333C69.0544 61.8165 69.1719 60.1746 69.6072 58.6038C70.0425 57.033 70.7869 55.5649 71.7967 54.2854H71.7956Z" fill="#17E5C3"/>
<path d="M16.2859 127.406H39.3121C39.6256 128.912 40.4467 130.264 41.6381 131.237C42.8294 132.21 44.3187 132.744 45.8568 132.75H120.581C124.281 132.75 127.406 129.714 127.406 126.015V116.457C127.385 114.872 126.811 113.344 125.785 112.136C124.758 110.928 123.342 110.116 121.781 109.839V97.5718C130.598 89.4662 136.18 78.441 137.494 66.5368C138.808 54.6325 135.766 42.6552 128.929 32.8215C123.678 25.3019 116.47 19.3614 108.086 15.6425C99.7022 11.9236 90.4609 10.5679 81.362 11.7222C68.3137 13.3534 56.5386 20.0671 48.2117 30.6222C41.9927 38.5062 38.344 47.7222 37.5354 57.2774C32.7533 57.6643 28.2917 59.8362 25.0371 63.3613C21.7825 66.8865 19.9732 71.507 19.9685 76.3048V94.0626C19.9656 95.0355 19.5772 95.9675 18.8885 96.6546C18.1998 97.3417 17.2669 97.7279 16.294 97.7287C14.34 97.7197 12.4034 98.0967 10.5954 98.8381C8.78744 99.5795 7.14372 100.671 5.7586 102.049C4.37348 103.427 3.27424 105.066 2.52399 106.87C1.77374 108.674 1.38726 110.609 1.38672 112.563C1.38618 114.517 1.77161 116.452 2.52086 118.257C3.27012 120.062 4.36846 121.701 5.75282 123.08C7.13718 124.459 8.7803 125.551 10.5879 126.293C12.3954 127.036 14.3318 127.414 16.2859 127.406V127.406ZM6.55461 118.736L11.4765 115.755C11.6513 116.019 11.8473 116.268 12.0626 116.5L9.40902 121.829C8.27722 120.981 7.3102 119.933 6.55574 118.736H6.55461ZM4.78105 112.609C4.78123 112.003 4.82919 111.398 4.92449 110.8L10.5582 112.183C10.5534 112.245 10.5512 112.308 10.5486 112.371L5.1838 115.622C4.91655 114.64 4.78111 113.626 4.78105 112.609ZM18.4431 106.674C17.7305 106.797 17.0089 106.859 16.2859 106.86C16.1121 106.86 15.9405 106.871 15.7703 106.886L10.8336 102.48C12.0014 101.849 13.2703 101.426 14.5835 101.231L18.4431 106.674ZM29.292 63.993C29.893 63.516 30.5282 63.0836 31.1924 62.6993L33.2613 66.7746L29.292 63.993ZM29.2284 74.5309H23.4192C23.5278 73.4842 23.7501 72.4524 24.0821 71.4538L29.7524 72.6558C29.527 73.2656 29.3518 73.8927 29.2284 74.5309V74.5309ZM28.9685 77.9059V80.4372H23.3435V77.9059H28.9685ZM28.9685 83.8122V86.0622H23.3435V83.8122H28.9685ZM28.9685 89.4372V92.334L23.3435 91.7516V89.4372H28.9685ZM28.9725 95.7149C28.7502 97.436 28.1775 99.0933 27.2898 100.585L22.5648 97.241C22.9018 96.5797 23.1313 95.8689 23.2446 95.1353L28.9725 95.7149ZM32.3435 94.0626V76.3048C32.358 74.7172 32.9403 73.1873 33.9849 71.9918C35.0296 70.7964 36.4676 70.0143 38.0389 69.7871C38.7625 73.9627 40.0218 78.0275 41.7857 81.8808C43.5653 85.7999 44.4701 90.0595 44.4373 94.3635V109.88C41.9061 110.401 39.8901 112.5 39.3121 115.031H16.2859C15.6539 115.025 15.0499 114.769 14.6052 114.32C14.1606 113.871 13.9113 113.264 13.9116 112.632C13.9053 112.323 13.9604 112.016 14.0738 111.728C14.1872 111.44 14.3565 111.177 14.572 110.956C14.7876 110.734 15.045 110.557 15.3293 110.435C15.6137 110.313 15.9194 110.249 16.2288 110.246C20.5116 110.236 24.6152 108.526 27.6372 105.491C30.6592 102.456 32.3521 98.3454 32.3435 94.0626V94.0626ZM47.8123 104.625H118.406V109.687H47.8123V104.625ZM110.25 113.062V129.375H56.2498V113.062H110.25ZM21.9373 118.406V124.031H19.6873V118.406H21.9373ZM25.3123 118.406H27.8435V124.031H25.3123V118.406ZM31.2185 118.406H33.4685V124.031H31.2185V118.406ZM36.8435 118.406H39.0936V124.031H36.8435V118.406ZM12.3903 108.393C12.1804 108.586 11.985 108.793 11.8058 109.015L5.94318 107.576C6.48971 106.459 7.21281 105.438 8.08461 104.552L12.3903 108.393ZM12.3835 123.391L14.9862 118.209C15.4105 118.324 15.8466 118.39 16.2859 118.406H16.3123V124.031H16.2859C14.9577 124.046 13.6372 123.829 12.3835 123.39V123.391ZM42.4686 126.015V116.457C42.4793 115.561 42.8395 114.705 43.4725 114.071C44.1054 113.436 44.9609 113.075 45.8568 113.062H52.8748V129.375H45.8568C44.9644 129.37 44.1096 129.015 43.476 128.387C42.8424 127.759 42.4806 126.907 42.4686 126.015ZM124.031 116.457V126.015C124.031 127.853 122.42 129.375 120.581 129.375H113.625V113.062H120.581C121.483 113.072 122.347 113.431 122.99 114.064C123.633 114.697 124.006 115.555 124.031 116.457ZM50.8585 32.7135C58.6326 22.858 69.6123 16.5934 81.7752 15.071C90.2607 13.9918 98.8797 15.2548 106.699 18.723C114.518 22.1913 121.239 27.7328 126.135 34.7473C130.391 40.8435 133.091 47.8885 134 55.2678C134.934 62.7042 134.049 70.256 131.422 77.2754C128.796 84.2947 124.505 90.5719 118.919 95.5684C118.749 95.7294 118.615 95.9248 118.526 96.1417C118.438 96.3586 118.397 96.5918 118.406 96.8259V101.25H47.8123V94.3635C47.8557 89.5743 46.8552 84.8332 44.8806 80.4698C42.8845 76.1052 41.5835 71.4553 41.0249 66.6885C39.5801 54.6311 43.0873 42.5652 50.8585 32.7135V32.7135ZM37.628 66.4455C37.3968 66.4784 37.1681 66.5192 36.942 66.5682L34.2814 61.3274C35.2832 61.0079 36.3149 60.7906 37.3605 60.6788C37.3346 62.6047 37.4239 64.5303 37.628 66.4455V66.4455ZM26.8499 66.4028L31.4683 69.6372L25.4974 68.3485C25.8988 67.6669 26.3509 67.0165 26.8499 66.4028V66.4028ZM20.3496 99.8074L25.1947 103.236C24.2041 104.2 23.0645 104.998 21.8197 105.599L18.4006 100.779C19.0968 100.558 19.7544 100.231 20.3496 99.8074V99.8074Z" fill="#3E61EE"/>
</svg>
