<svg viewBox="0 0 144 144" fill="none" xmlns="http://www.w3.org/2000/svg">
<path d="M107.173 12.7604C91.709 3.55395 73.2532 0.772696 55.7625 5.01288C38.2719 9.25305 23.1386 20.1771 13.6071 35.4432C13.3174 35.8988 13.0352 36.3601 12.7605 36.827C-4.71385 66.2578 2.25327 103.416 27.6431 124.723C11.4817 105.458 6.86521 78.3695 16.6094 54.4872C17.9085 51.3036 19.4422 48.2208 21.198 45.2645C21.4736 44.7976 21.7558 44.3363 22.0446 43.8807C23.0458 42.2776 24.1095 40.7374 25.2187 39.246C31.69 30.5292 40.1447 23.4795 49.8827 18.6807C61.376 13.0008 74.2254 10.638 86.9874 11.8577C99.7495 13.0775 111.919 17.8315 122.128 25.5857C123.04 26.277 123.93 26.9883 124.797 27.7195C119.808 21.7751 113.849 16.7173 107.173 12.7604Z" fill="#3E61EE" fill-opacity="0.2"/>
<path d="M93.4693 4.86701C93.2787 4.75394 93.0677 4.67952 92.8483 4.64801C92.6289 4.61649 92.4055 4.6285 92.1908 4.68335C91.9761 4.73819 91.7742 4.8348 91.5968 4.96765C91.4194 5.10051 91.2699 5.267 91.1569 5.45763C89.5046 8.23592 88.6555 11.4182 88.7041 14.6503C88.711 15.0935 88.8917 15.5162 89.2074 15.8273C89.5231 16.1384 89.9484 16.3129 90.3916 16.3133H90.4197C90.6418 16.3108 90.8611 16.2644 91.0651 16.1766C91.2691 16.0888 91.4536 15.9615 91.6081 15.802C91.7626 15.6424 91.8839 15.4539 91.965 15.2471C92.0461 15.0404 92.0855 14.8197 92.0808 14.5977C92.042 11.9899 92.7274 9.42256 94.0608 7.18113C94.1741 6.9904 94.2487 6.7792 94.2803 6.55961C94.3119 6.34003 94.2999 6.11637 94.2449 5.90143C94.19 5.68649 94.0932 5.48449 93.9601 5.307C93.827 5.1295 93.6603 4.97999 93.4693 4.86701Z" fill="#3E61EE"/>
<path d="M120.662 21.0111C120.471 20.898 120.26 20.8236 120.041 20.792C119.821 20.7605 119.598 20.7725 119.383 20.8274C119.169 20.8822 118.967 20.9788 118.789 21.1117C118.612 21.2446 118.462 21.411 118.349 21.6017C117.103 23.6991 115.335 25.4381 113.217 26.6493C111.099 27.8605 108.703 28.5026 106.263 28.5132C103.824 28.5237 101.423 27.9023 99.2943 26.7094C97.1659 25.5166 95.3827 23.7929 94.1183 21.7063C94.0059 21.5124 93.856 21.3428 93.6774 21.2074C93.4987 21.072 93.2949 20.9736 93.0778 20.9179C92.8607 20.8621 92.6347 20.8502 92.4129 20.8828C92.1911 20.9154 91.9781 20.9918 91.7862 21.1076C91.5943 21.2234 91.4274 21.3763 91.2952 21.5574C91.1631 21.7384 91.0683 21.944 91.0165 22.162C90.9646 22.3801 90.9567 22.6063 90.9933 22.8275C91.0298 23.0486 91.11 23.2603 91.2293 23.4501C92.7948 26.0366 95.0037 28.1735 97.6406 29.6525C100.278 31.1315 103.253 31.9022 106.276 31.8895C109.299 31.8768 112.268 31.0811 114.892 29.5799C117.517 28.0788 119.708 25.9234 121.251 23.3238C121.364 23.1332 121.439 22.9222 121.471 22.7029C121.502 22.4835 121.49 22.2601 121.436 22.0453C121.381 21.8305 121.284 21.6287 121.152 21.4512C121.019 21.2738 120.852 21.1242 120.662 21.0111Z" fill="#3E61EE"/>
<path d="M77.6129 1.663C77.184 1.53524 76.7219 1.58309 76.3282 1.79602C75.9346 2.00894 75.6417 2.36951 75.5139 2.7984C74.142 7.40752 73.7852 12.2592 74.4682 17.0194C75.1512 21.7796 76.8577 26.3353 79.4702 30.3727C79.5904 30.5589 79.7461 30.7196 79.9284 30.8457C80.1106 30.9717 80.3159 31.0606 80.5326 31.1073C80.7492 31.154 80.9729 31.1576 81.1909 31.1178C81.409 31.0781 81.617 30.9958 81.8032 30.8756C81.9894 30.7554 82.1501 30.5998 82.2762 30.4175C82.4022 30.2352 82.4911 30.0299 82.5378 29.8133C82.5845 29.5966 82.5881 29.3729 82.5483 29.1549C82.5086 28.9369 82.4262 28.7288 82.3061 28.5426C79.9578 24.9144 78.4238 20.8204 77.8096 16.5424C77.1955 12.2645 77.5158 7.90424 78.7486 3.76197C78.8118 3.54958 78.8326 3.32681 78.8098 3.10638C78.7869 2.88595 78.7209 2.67218 78.6154 2.47727C78.51 2.28236 78.3672 2.11013 78.1951 1.97042C78.0231 1.83071 77.8253 1.72625 77.6129 1.663Z" fill="#3E61EE"/>
<path d="M132.088 34.7189L129.59 32.4492C126.798 35.5098 123.402 37.9589 119.616 39.6422C119.434 39.5168 119.251 39.3953 119.058 39.2813C116.945 38.0304 114.434 37.6361 112.039 38.1794C109.645 38.7226 107.549 40.1622 106.183 42.2024C101.239 41.9906 96.4244 40.5566 92.1701 38.0287C91.7855 37.8048 91.328 37.742 90.8973 37.8538C90.4666 37.9656 90.0975 38.243 89.8703 38.6257C89.6431 39.0083 89.5762 39.4652 89.6843 39.8969C89.7923 40.3285 90.0665 40.7001 90.4471 40.9306C94.8156 43.5249 99.7193 45.0864 104.784 45.4956C104.384 47.3288 104.533 49.2392 105.212 50.9884C105.373 51.4061 105.693 51.7427 106.102 51.9242C106.512 52.1056 106.976 52.1171 107.394 51.956C107.812 51.7949 108.148 51.4745 108.33 51.0652C108.511 50.656 108.523 50.1914 108.362 49.7737C108.049 48.9702 107.908 48.1103 107.947 47.249C107.986 46.3878 108.206 45.5443 108.59 44.7727C108.628 44.7107 108.661 44.6464 108.69 44.5801C108.73 44.505 108.771 44.4299 108.815 44.3551C109.443 43.2976 110.37 42.45 111.48 41.9196C112.589 41.3891 113.831 41.1996 115.048 41.375C116.266 41.5504 117.404 42.0828 118.318 42.9049C119.233 43.727 119.884 44.8019 120.187 45.9937C120.242 46.2084 120.339 46.4102 120.471 46.5877C120.604 46.7651 120.771 46.9147 120.961 47.0278C121.152 47.1409 121.363 47.2154 121.582 47.247C121.801 47.2786 122.025 47.2666 122.24 47.2119C122.454 47.1571 122.656 47.0606 122.834 46.9279C123.011 46.7951 123.161 46.6287 123.274 46.4381C123.387 46.2476 123.461 46.0366 123.493 45.8172C123.524 45.5979 123.512 45.3745 123.458 45.1598C123.189 44.1008 122.742 43.0955 122.136 42.1869C125.892 40.3432 129.268 37.8098 132.088 34.7189Z" fill="#3E61EE"/>
<path d="M118.848 51.6179C117.893 52.7159 116.583 53.4435 115.145 53.6738C113.708 53.904 112.236 53.6222 110.986 52.8776C110.601 52.6491 110.141 52.5829 109.707 52.6935C109.273 52.8041 108.901 53.0824 108.673 53.4673C108.445 53.8521 108.378 54.312 108.489 54.7457C108.599 55.1794 108.878 55.5514 109.263 55.7798C111.193 56.9281 113.465 57.3621 115.682 57.0061C117.9 56.6501 119.922 55.5267 121.396 53.8319C121.542 53.6648 121.654 53.4704 121.725 53.2599C121.796 53.0494 121.825 52.827 121.81 52.6053C121.795 52.3836 121.736 52.1671 121.637 51.9682C121.539 51.7693 121.401 51.5918 121.234 51.4461C121.066 51.3003 120.871 51.1891 120.66 51.1189C120.45 51.0486 120.227 51.0206 120.005 51.0366C119.784 51.0526 119.567 51.1121 119.369 51.2119C119.17 51.3116 118.994 51.4496 118.848 51.6179Z" fill="#3E61EE"/>
<path d="M81.3034 61.3686C78.0746 59.4516 73.8966 55.4424 70.9604 52.4167C70.1379 51.5535 69.5193 50.5168 69.1503 49.383C68.7813 48.2491 68.6711 47.047 68.828 45.865C69.1937 42.802 68.6626 39.6987 67.2992 36.9317C65.9357 34.1647 63.7984 31.8528 61.1467 30.2767L61.122 30.2621C60.678 30.0097 60.3072 29.6463 60.0459 29.2075C59.7846 28.7687 59.6418 28.2696 59.6314 27.759C59.5777 22.9158 59.7326 10.9709 62.328 4.66833L59.2061 3.3833C56.478 10.0129 56.1861 21.5239 56.2558 27.7972C56.2697 28.8859 56.5658 29.9523 57.1154 30.8922C57.6649 31.832 58.449 32.6132 59.3909 33.1592L59.4238 33.1789C61.5135 34.4211 63.1978 36.243 64.2723 38.4237C65.3467 40.6044 65.7652 43.0501 65.4769 45.4639C65.2593 47.1448 65.4213 48.8531 65.9512 50.4632C66.481 52.0732 67.365 53.5439 68.5383 54.7671C71.6174 57.9399 76.0325 62.164 79.5804 64.2706C87.1849 68.775 95.8604 71.1524 104.699 71.1541C106.966 71.1544 109.23 70.9964 111.474 70.6811C122.323 69.1478 132.353 64.047 139.983 56.1832L137.554 53.8393C130.449 61.1623 121.108 65.912 111.004 67.3393C100.712 68.8207 90.2236 66.7123 81.3034 61.3686Z" fill="#3E61EE"/>
<path d="M107.122 84.6425C96.9033 84.991 86.7539 82.8452 77.551 78.3908C68.3481 73.9363 60.3688 67.3073 54.3029 59.0769C53.1763 57.5533 51.5761 56.4465 49.7531 55.9297C48.6662 55.6562 47.6141 55.2599 46.6169 54.7484C43.7565 53.0501 41.6879 50.2851 40.8661 47.0617C40.0442 43.8383 40.5364 40.4204 42.2344 37.5598C42.2761 37.4901 42.3267 37.4105 42.3821 37.3256C43.1458 36.1545 43.4261 34.7332 43.1643 33.3599C41.7466 25.8226 41.727 18.0888 43.1063 10.5444L39.7862 9.93799C38.3326 17.888 38.3531 26.0375 39.8466 33.9801C39.9476 34.499 39.8436 35.0369 39.5564 35.4808C39.472 35.6088 39.3963 35.73 39.3331 35.8369C37.1779 39.4671 36.5531 43.8047 37.5959 47.8955C38.6388 51.9864 41.2639 55.4955 44.8939 57.6509C45.7717 58.1721 47.0973 58.6856 48.8337 59.1773C49.9349 59.4888 50.9017 60.1568 51.5826 61.0766C57.737 69.4278 65.7642 76.2192 75.0194 80.9053C84.2747 85.5915 94.4999 88.0417 104.874 88.0591C105.661 88.0591 106.453 88.0448 107.243 88.0166C119.559 87.5816 131.512 83.725 141.76 76.8791L139.885 74.0731C130.157 80.5702 118.812 84.23 107.122 84.6425Z" fill="#3E61EE"/>
<path d="M48.4949 38.578C48.3042 38.4649 48.0932 38.3905 47.8739 38.359C47.6545 38.3275 47.431 38.3395 47.2163 38.3943C47.0016 38.4492 46.7997 38.5458 46.6223 38.6786C46.445 38.8115 46.2955 38.978 46.1824 39.1686C45.3734 40.5312 44.9866 42.1031 45.0709 43.6856C45.1553 45.268 45.707 46.7899 46.6563 48.0588C47.6055 49.3277 48.9098 50.2866 50.404 50.8142C51.8983 51.3419 53.5155 51.4145 55.051 51.0231C56.5866 50.6316 57.9716 49.7936 59.0309 48.615C60.0902 47.4364 60.7762 45.9702 61.0022 44.4017C61.2282 42.8332 60.9839 41.2329 60.3004 39.8032C59.6169 38.3735 58.5248 37.1786 57.1621 36.3696C56.7775 36.1458 56.3201 36.083 55.8894 36.1948C55.4586 36.3066 55.0895 36.584 54.8623 36.9666C54.6352 37.3493 54.5683 37.8062 54.6763 38.2378C54.7844 38.6695 55.0586 39.0411 55.4392 39.2716C56.2275 39.74 56.8593 40.4316 57.2546 41.259C57.6499 42.0864 57.791 43.0125 57.6601 43.9201C57.5292 44.8277 57.1321 45.6761 56.519 46.358C55.9059 47.04 55.1044 47.5248 54.2158 47.7513C53.3272 47.9778 52.3915 47.9357 51.5268 47.6304C50.6621 47.3251 49.9074 46.7702 49.358 46.036C48.8086 45.3018 48.4892 44.4212 48.4403 43.5055C48.3913 42.5898 48.615 41.6802 49.083 40.8916C49.1963 40.7011 49.271 40.4901 49.3028 40.2707C49.3346 40.0513 49.3229 39.8278 49.2682 39.6129C49.2136 39.3981 49.1172 39.1961 48.9845 39.0185C48.8518 38.841 48.6854 38.6913 48.4949 38.578Z" fill="#3E61EE"/>
<path d="M112.149 102.282C109.643 102.712 107.067 102.176 104.941 100.782C104.858 100.73 104.778 100.681 104.699 100.633C102.553 99.367 100.115 98.6788 97.6241 98.6358C95.1328 98.5929 92.673 99.1967 90.4848 100.388C89.3293 101.032 88.0578 101.441 86.7435 101.591C85.4293 101.742 84.0984 101.63 82.8273 101.264C77.3991 99.687 67.4752 96.5541 61.9821 93.2925C61.6446 93.0916 61.2244 92.827 60.7359 92.505C59.7727 91.8856 58.9696 91.0474 58.3921 90.0586C57.8146 89.0698 57.479 87.9585 57.4127 86.8153C57.2998 84.1736 56.5294 81.6019 55.1712 79.3334C53.8129 77.0649 51.9099 75.1713 49.6347 73.8243C48.2597 73.0087 46.2476 72.4487 43.6539 72.1616C42.13 71.9905 40.6672 71.4654 39.3823 70.6284C38.0974 69.7913 37.026 68.6655 36.2537 67.3407C28.246 53.4842 25.0007 37.3851 27.0146 21.5085L23.6677 21.0762C21.5601 37.6889 24.9555 54.5346 33.334 69.0338C34.3722 70.8151 35.8125 72.329 37.54 73.4547C39.2674 74.5803 41.234 75.2865 43.2829 75.5169C45.9146 75.8083 47.2528 76.3356 47.912 76.7263C49.7052 77.7881 51.2049 79.2807 52.2752 81.0687C53.3455 82.8568 53.9526 84.8837 54.0413 86.9657C54.132 88.6421 54.6179 90.2733 55.4592 91.7261C56.3005 93.1789 57.4734 94.4122 58.8822 95.3253C59.4135 95.6744 59.8767 95.9666 60.2603 96.1936C65.7838 99.4729 75.0698 102.522 81.8884 104.504C83.584 104.995 85.3599 105.146 87.1139 104.947C88.8678 104.749 90.5652 104.205 92.1082 103.348C93.7813 102.437 95.662 101.975 97.5668 102.007C99.4717 102.04 101.336 102.566 102.977 103.533C103.026 103.561 103.076 103.594 103.13 103.628C105.314 105.038 107.855 105.795 110.455 105.81C111.229 105.81 112 105.74 112.761 105.601C121.683 103.97 130.241 100.756 138.031 96.1103L136.304 93.2112C128.858 97.6514 120.677 100.723 112.149 102.282Z" fill="#3E61EE"/>
<path d="M112.069 117.351C109.308 117.987 106.751 119.305 104.631 121.186C102.894 122.724 100.713 123.669 98.4028 123.885C96.0929 124.101 93.7742 123.576 91.7821 122.387C91.4934 122.206 91.2191 122.004 90.9617 121.781C88.6547 119.849 85.8735 118.569 82.9058 118.072C72.9901 116.433 63.4692 112.951 54.8354 107.807C52.6959 106.537 49.5389 104.271 47.2672 102.595C45.229 101.116 42.8269 100.221 40.3184 100.004C37.2396 99.7079 34.3782 98.2862 32.2828 96.0111C30.1874 93.7361 29.0054 90.7677 28.9635 87.6749C28.9498 84.8536 28.3857 82.062 27.3027 79.4568C23.5427 70.6087 14.8456 48.6099 15.2947 35.4524L11.9217 35.3374C11.7164 41.3525 13.2315 49.5968 16.4254 59.8391C18.9918 68.0693 22.0678 75.7677 24.1966 80.7764C25.1078 82.979 25.5807 85.3381 25.5888 87.7216C25.6425 91.6462 27.143 95.4129 29.8026 98.2994C32.4622 101.186 36.0938 102.989 40.0009 103.363C41.899 103.522 43.7181 104.195 45.263 105.31C47.5974 107.032 50.8529 109.367 53.1125 110.71C62.1069 116.069 72.0256 119.696 82.3554 121.404C84.7294 121.802 86.9539 122.827 88.7989 124.374C89.1943 124.712 89.6157 125.018 90.0594 125.29C92.665 126.845 95.6975 127.531 98.7185 127.248C101.74 126.966 104.592 125.729 106.864 123.718C108.558 122.212 110.603 121.155 112.812 120.644C116.958 119.709 122.63 118.316 126.106 116.994L124.907 113.839C121.614 115.09 116.108 116.439 112.069 117.351Z" fill="#3E61EE"/>
<path d="M45.681 86.9212C45.7348 87.1365 45.8305 87.3391 45.9627 87.5174C46.095 87.6956 46.2611 87.8461 46.4515 87.96C46.6419 88.074 46.853 88.1493 47.0726 88.1816C47.2921 88.2139 47.5159 88.2026 47.7311 88.1482C47.9463 88.0939 48.1487 87.9977 48.3266 87.865C48.5046 87.7324 48.6546 87.566 48.7681 87.3752C48.8817 87.1845 48.9565 86.9733 48.9882 86.7537C49.02 86.534 49.0081 86.3102 48.9533 86.0952C48.4904 84.2631 47.3949 82.6535 45.8603 81.5508C44.3257 80.4481 42.4508 79.9232 40.5667 80.0688C38.6826 80.2144 36.9106 81.0211 35.5637 82.3465C34.2167 83.6719 33.3815 85.4307 33.2056 87.3121C33.1849 87.5328 33.208 87.7554 33.2734 87.9671C33.3388 88.1789 33.4453 88.3757 33.5868 88.5463C33.7283 88.7169 33.902 88.8579 34.098 88.9614C34.294 89.0649 34.5084 89.1287 34.7291 89.1493C34.7822 89.154 34.8351 89.1566 34.8877 89.1566C35.3078 89.1561 35.7126 88.9989 36.023 88.7158C36.3333 88.4327 36.5269 88.044 36.5659 87.6257C36.6681 86.5369 37.1518 85.5192 37.9315 84.7523C38.7112 83.9854 39.7369 83.5187 40.8273 83.4346C41.9177 83.3505 43.0027 83.6544 43.8908 84.2926C44.7789 84.9308 45.413 85.8623 45.681 86.9226V86.9212Z" fill="#3E61EE"/>
<path d="M42.3198 92.5529C41.4669 92.7656 40.5713 92.7328 39.7362 92.4582C38.9012 92.1837 38.1608 91.6786 37.6005 91.0013C37.4601 90.8289 37.287 90.6859 37.0911 90.5806C36.8953 90.4753 36.6806 90.4098 36.4593 90.3877C36.2381 90.3657 36.0147 90.3875 35.8019 90.4521C35.5891 90.5167 35.3912 90.6227 35.2196 90.764C35.0479 90.9053 34.9058 91.0791 34.8016 91.2755C34.6973 91.4719 34.6329 91.6869 34.612 91.9083C34.5911 92.1296 34.6141 92.353 34.6798 92.5654C34.7455 92.7778 34.8525 92.9752 34.9947 93.1461C35.7508 94.0598 36.6993 94.7954 37.7726 95.3001C38.8458 95.8049 40.0173 96.0666 41.2033 96.0663C41.8589 96.0665 42.5119 95.9855 43.1476 95.825C43.5771 95.7114 43.9444 95.433 44.1699 95.0502C44.3955 94.6674 44.4609 94.2112 44.3521 93.7804C44.2434 93.3497 43.9691 92.9792 43.5889 92.7494C43.2087 92.5196 42.7532 92.449 42.3212 92.5529H42.3198Z" fill="#3E61EE"/>
<path d="M98.796 117.616C98.2061 117.769 97.592 117.802 96.9891 117.715C96.3861 117.628 95.8064 117.423 95.2835 117.11C95.093 116.997 94.882 116.923 94.6626 116.891C94.4433 116.859 94.2199 116.871 94.0051 116.926C93.7904 116.981 93.5885 117.077 93.4111 117.21C93.2336 117.343 93.0841 117.509 92.9709 117.7C92.8578 117.89 92.7833 118.101 92.7516 118.32C92.72 118.54 92.7319 118.763 92.7866 118.978C92.8414 119.193 92.9379 119.395 93.0706 119.572C93.2033 119.749 93.3697 119.899 93.5603 120.012C94.7929 120.748 96.2013 121.136 97.6367 121.137C98.309 121.137 98.9786 121.052 99.6299 120.885C101.682 120.362 103.443 119.048 104.529 117.231C105.615 115.413 105.937 113.239 105.425 111.185C105.312 110.756 105.034 110.389 104.653 110.164C104.271 109.938 103.816 109.872 103.386 109.979C102.956 110.086 102.585 110.358 102.354 110.736C102.123 111.114 102.05 111.569 102.15 112C102.447 113.189 102.26 114.447 101.632 115.5C101.003 116.552 99.9836 117.312 98.796 117.615V117.616Z" fill="#3E61EE"/>
<path d="M101.741 106.233C99.9136 105.151 97.7311 104.838 95.6727 105.362C93.6143 105.887 91.8481 107.207 90.7616 109.032C90.6462 109.223 90.5697 109.435 90.5364 109.655C90.5032 109.875 90.514 110.1 90.5681 110.316C90.6222 110.532 90.7186 110.736 90.8517 110.914C90.9848 111.093 91.152 111.244 91.3436 111.358C91.5352 111.471 91.7474 111.546 91.9681 111.577C92.1887 111.609 92.4134 111.596 92.6291 111.54C92.8448 111.484 93.0472 111.386 93.2248 111.251C93.4024 111.116 93.5515 110.948 93.6636 110.755C94.2924 109.698 95.3149 108.934 96.5066 108.631C97.6983 108.327 98.9618 108.508 100.02 109.135C100.405 109.364 100.865 109.43 101.298 109.319C101.732 109.209 102.104 108.931 102.332 108.546C102.561 108.161 102.627 107.701 102.517 107.267C102.406 106.834 102.128 106.462 101.743 106.233H101.741Z" fill="#3E61EE"/>
<path d="M85.1087 138.042C72.8279 135.845 61.3524 131.744 51.0007 125.854C50.8081 125.744 50.5958 125.673 50.3759 125.646C50.156 125.618 49.9328 125.634 49.7191 125.693C49.5054 125.752 49.3054 125.852 49.1304 125.988C48.9554 126.124 48.809 126.293 48.6994 126.486C48.5897 126.678 48.5192 126.891 48.4916 127.111C48.4641 127.33 48.4801 127.554 48.5388 127.767C48.5975 127.981 48.6977 128.181 48.8337 128.356C48.9697 128.531 49.1388 128.677 49.3315 128.787C60.0176 134.868 71.8548 139.1 84.5144 141.364C84.7335 141.405 84.9585 141.403 85.1766 141.356C85.3946 141.31 85.6014 141.221 85.7848 141.095C85.9683 140.968 86.1249 140.807 86.2456 140.619C86.3662 140.432 86.4485 140.222 86.4878 140.003C86.527 139.783 86.5224 139.558 86.4742 139.341C86.426 139.123 86.3352 138.917 86.207 138.735C86.0788 138.553 85.9157 138.397 85.7272 138.279C85.5387 138.16 85.3285 138.079 85.1087 138.042Z" fill="#3E61EE"/>
<path d="M39.182 117.995C31.1335 111.772 24.0016 104.447 17.9965 96.2351C17.7279 95.8847 17.3327 95.6535 16.8957 95.5912C16.4586 95.5288 16.0145 95.6402 15.6586 95.9014C15.3027 96.1627 15.0634 96.5531 14.992 96.9888C14.9205 97.4244 15.0227 97.8708 15.2766 98.232C21.4691 106.7 28.8237 114.252 37.1235 120.668C37.2989 120.805 37.4998 120.907 37.7146 120.966C37.9294 121.026 38.1538 121.042 38.3749 121.014C38.596 120.986 38.8095 120.915 39.0029 120.804C39.1963 120.694 39.3658 120.546 39.5018 120.369C39.6377 120.192 39.7373 119.991 39.7948 119.775C39.8524 119.56 39.8667 119.335 39.8369 119.115C39.8072 118.894 39.734 118.681 39.6216 118.489C39.5092 118.296 39.3598 118.128 39.182 117.993V117.995Z" fill="#3E61EE"/>
<path d="M4.90993 72.7307C4.76511 72.3071 4.45795 71.9584 4.05604 71.7613C3.65412 71.5642 3.19037 71.5348 2.7668 71.6796C2.34323 71.8245 1.99454 72.1316 1.79743 72.5335C1.60032 72.9354 1.57095 73.3992 1.71577 73.8228C1.83305 74.1662 4.66889 82.3562 11.7387 93.139C11.9849 93.5113 12.3687 93.7708 12.8059 93.8608C13.2431 93.9508 13.6981 93.8639 14.0714 93.6192C14.4447 93.3744 14.7058 92.9917 14.7975 92.5549C14.8893 92.1181 14.8043 91.6627 14.561 91.2884C7.75702 80.9103 4.94818 72.8432 4.90993 72.7307Z" fill="#3E61EE"/>
<path d="M108.034 11.308C96.0305 4.18164 82.1832 0.77475 68.2433 1.51815C54.3033 2.26155 40.8969 7.12185 29.7191 15.4845C18.5414 23.8471 10.0945 35.3364 5.4464 48.4996C0.798336 61.6628 0.157924 75.9087 3.60614 89.4359C7.48289 104.613 16.2923 118.071 28.6501 127.697C41.0079 137.322 56.2136 142.569 71.8776 142.612C77.7999 142.608 83.6985 141.863 89.4361 140.396C102.963 136.947 115.164 129.565 124.496 119.182C133.828 108.799 139.871 95.8826 141.862 82.0653C143.853 68.2479 141.701 54.1506 135.68 41.5559C129.659 28.9612 120.038 18.4349 108.034 11.308ZM129.79 106.313C123.004 117.742 112.981 126.903 100.989 132.636C88.9959 138.37 75.5726 140.418 62.4159 138.522C49.2592 136.627 36.9601 130.872 27.0739 121.986C17.1877 113.101 10.1585 101.483 6.87511 88.6023C4.69481 80.0499 4.22039 71.1519 5.47894 62.4161C6.73748 53.6804 9.70434 45.2782 14.2101 37.6891C18.7159 30.1 24.6724 23.4727 31.7394 18.1856C38.8064 12.8985 46.8457 9.05512 55.398 6.87495C60.8614 5.47744 66.478 4.76881 72.1172 4.76558C83.9755 4.79074 95.6161 7.95182 105.858 13.9282C116.101 19.9045 124.58 28.4835 130.436 38.7948C136.292 49.1061 139.317 60.7829 139.204 72.6406C139.09 84.4984 135.843 96.1152 129.79 106.313Z" fill="#968B82"/>
</svg>
