<svg viewBox="0 0 144 144" fill="none" xmlns="http://www.w3.org/2000/svg">
<path d="M66.6787 56.6325C43.8581 54.3882 27.3037 47.7057 27.3037 39.8138C27.3037 35.5503 32.1364 31.641 40.1754 28.5919C39.0139 32.2192 38.4241 36.0051 38.4271 39.8138L38.835 40.1344C46.6931 43.7822 60.0075 46.1785 75.105 46.1785C76.5271 46.1785 77.9324 46.1575 79.3206 46.1155C65.9818 45.7153 54.3895 43.4383 47.2725 40.1344L46.8646 39.8138C46.8562 30.8097 50.159 22.1169 56.1444 15.3902C62.1298 8.66348 70.3797 4.37255 79.3237 3.33426C71.3995 2.42279 63.3941 4.11704 56.5186 8.16068C49.6431 12.2043 44.2717 18.3773 41.2171 25.7457C27.6384 28.9632 18.8662 34.0679 18.8662 39.8138C18.8662 47.7057 35.4206 54.3882 58.2412 56.6325C63.5653 57.1585 69.2296 57.4397 75.105 57.4397C76.5243 57.4397 77.9306 57.4232 79.3237 57.3902C74.9508 57.2887 70.7166 57.0314 66.6787 56.6325V56.6325Z" fill="#3E61EE" fill-opacity="0.2"/>
<path d="M44.2623 51.5844C44.7044 51.6534 45.1557 51.544 45.5172 51.2803C45.8786 51.0166 46.1205 50.6202 46.1897 50.1782C46.2042 50.0769 46.2387 49.9795 46.2912 49.8917C46.3436 49.8038 46.413 49.7273 46.4953 49.6665C46.5775 49.6057 46.6711 49.5619 46.7704 49.5375C46.8698 49.5132 46.973 49.5088 47.0741 49.5247C47.1751 49.5405 47.272 49.5763 47.3592 49.63C47.4463 49.6836 47.5219 49.754 47.5815 49.8371C47.6412 49.9202 47.6838 50.0143 47.7068 50.114C47.7298 50.2137 47.7328 50.3169 47.7155 50.4178C47.6814 50.6368 47.6907 50.8603 47.743 51.0757C47.7953 51.2911 47.8895 51.494 48.0202 51.673C48.1509 51.852 48.3156 52.0035 48.5048 52.1188C48.6941 52.2341 48.9042 52.3111 49.1232 52.3452C49.3422 52.3793 49.5657 52.37 49.7811 52.3177C49.9965 52.2654 50.1994 52.1713 50.3784 52.0405C50.5574 51.9098 50.7089 51.7451 50.8242 51.5559C50.9395 51.3666 51.0164 51.1565 51.0506 50.9375C51.1346 50.3994 51.1118 49.85 50.9834 49.3207C50.8551 48.7914 50.6238 48.2925 50.3027 47.8526C49.9816 47.4127 49.577 47.0403 49.1119 46.7568C48.6469 46.4732 48.1306 46.284 47.5925 46.2C47.0543 46.116 46.5049 46.1388 45.9756 46.2671C45.4463 46.3955 44.9474 46.6268 44.5075 46.9479C44.0676 47.269 43.6952 47.6736 43.4117 48.1387C43.1281 48.6037 42.939 49.12 42.855 49.6581C42.7863 50.1002 42.896 50.5514 43.1599 50.9126C43.4238 51.2738 43.8203 51.5155 44.2623 51.5844Z" fill="#3E61EE"/>
<path d="M55.5103 53.0529C55.9524 53.122 56.4039 53.0126 56.7654 52.7489C57.1269 52.4852 57.3688 52.0887 57.438 51.6466C57.4538 51.5465 57.4891 51.4504 57.5419 51.3639C57.5948 51.2773 57.6642 51.2021 57.7461 51.1424C57.8281 51.0827 57.921 51.0397 58.0196 51.0159C58.1181 50.9921 58.2204 50.988 58.3206 51.0037C58.4208 51.0194 58.5168 51.0547 58.6034 51.1076C58.6899 51.1605 58.7651 51.2299 58.8248 51.3118C58.8845 51.3938 58.9275 51.4867 58.9513 51.5853C58.9751 51.6838 58.9793 51.7861 58.9635 51.8863C58.8946 52.3285 59.0041 52.7801 59.2681 53.1415C59.532 53.503 59.9288 53.7448 60.371 53.8138C60.8133 53.8828 61.2648 53.7732 61.6263 53.5093C61.9878 53.2453 62.2296 52.8486 62.2986 52.4063C62.3826 51.8682 62.3598 51.3188 62.2315 50.7894C62.1031 50.2601 61.8718 49.7613 61.5507 49.3213C61.2296 48.8814 60.825 48.5091 60.3599 48.2255C59.8949 47.942 59.3786 47.7528 58.8405 47.6688C58.3023 47.5848 57.7529 47.6076 57.2236 47.7359C56.6943 47.8642 56.1954 48.0955 55.7555 48.4167C55.3156 48.7378 54.9432 49.1424 54.6597 49.6074C54.3761 50.0724 54.187 50.5888 54.103 51.1269C54.0344 51.5689 54.1441 52.02 54.408 52.3812C54.6719 52.7423 55.0684 52.9839 55.5103 53.0529V53.0529Z" fill="#3E61EE"/>
<path d="M53.8901 19.1462C54.0557 19.2934 54.2488 19.4066 54.4582 19.4792C54.6675 19.5518 54.8892 19.5824 55.1104 19.5694C55.3317 19.5563 55.5482 19.4998 55.7476 19.4031C55.9469 19.3063 56.1253 19.1713 56.2725 19.0056C59.0114 15.9134 62.2757 13.3303 65.9146 11.3756C66.1105 11.271 66.2839 11.1289 66.4247 10.9572C66.5656 10.7856 66.6712 10.5879 66.7355 10.3753C66.7998 10.1628 66.8215 9.93968 66.7994 9.71874C66.7773 9.49781 66.7118 9.2834 66.6067 9.08782C66.5016 8.89224 66.3589 8.71933 66.1868 8.579C66.0147 8.43866 65.8167 8.33367 65.6039 8.27002C65.3912 8.20638 65.168 8.18534 64.9472 8.20812C64.7263 8.2309 64.5121 8.29704 64.3168 8.40275C60.3281 10.5451 56.7499 13.3763 53.7477 16.7654C53.4512 17.1001 53.2996 17.5389 53.3263 17.9853C53.3529 18.4317 53.5557 18.8492 53.8901 19.1462V19.1462Z" fill="#3E61EE"/>
<path d="M48.6169 27.9336C49.0205 28.1266 49.4842 28.1515 49.9062 28.0027C50.3281 27.8539 50.6737 27.5437 50.8669 27.1402C51.331 26.1707 51.8462 25.2114 52.3983 24.2883C52.6281 23.9042 52.6958 23.4445 52.5866 23.0104C52.4774 22.5763 52.2003 22.2034 51.8161 21.9737C51.432 21.7439 50.9723 21.6762 50.5382 21.7854C50.1041 21.8945 49.7312 22.1717 49.5014 22.5558C48.8959 23.5683 48.3314 24.6202 47.8224 25.6831C47.7268 25.883 47.6715 26.0998 47.6596 26.3211C47.6478 26.5424 47.6797 26.7639 47.7535 26.9729C47.8273 27.1819 47.9415 27.3743 48.0896 27.5391C48.2378 27.704 48.417 27.838 48.6169 27.9336V27.9336Z" fill="#3E61EE"/>
<path d="M109.438 12.5694C110.498 12.9255 111.46 13.5222 112.251 14.3127C113.041 15.1032 113.638 16.066 113.994 17.1257C114.106 17.4618 114.321 17.7541 114.608 17.9613C114.896 18.1684 115.241 18.2799 115.595 18.2799C115.949 18.2799 116.295 18.1684 116.582 17.9613C116.869 17.7541 117.084 17.4618 117.196 17.1257C117.552 16.066 118.149 15.1033 118.94 14.3128C119.73 13.5223 120.693 12.9256 121.752 12.5694C122.088 12.4574 122.381 12.2425 122.588 11.9552C122.795 11.6679 122.906 11.3227 122.906 10.9686C122.906 10.6144 122.795 10.2692 122.588 9.98189C122.381 9.69458 122.088 9.47969 121.752 9.36768C120.693 9.0115 119.73 8.4148 118.94 7.62432C118.149 6.83385 117.552 5.87107 117.196 4.81143C117.084 4.47535 116.869 4.18302 116.582 3.97586C116.295 3.7687 115.949 3.65723 115.595 3.65723C115.241 3.65723 114.896 3.7687 114.608 3.97586C114.321 4.18302 114.106 4.47535 113.994 4.81143C113.638 5.8711 113.041 6.83391 112.251 7.62439C111.46 8.41488 110.498 9.01156 109.438 9.36768C109.102 9.47969 108.81 9.69458 108.603 9.98189C108.396 10.2692 108.284 10.6144 108.284 10.9686C108.284 11.3227 108.396 11.6679 108.603 11.9552C108.81 12.2425 109.102 12.4574 109.438 12.5694V12.5694ZM115.596 8.90896C116.185 9.68627 116.878 10.3792 117.655 10.9686C116.878 11.5579 116.185 12.2508 115.596 13.0281C115.006 12.2508 114.313 11.5579 113.536 10.9686C114.313 10.3792 115.006 9.68628 115.596 8.90896V8.90896Z" fill="#3E61EE"/>
<path d="M12.7058 76.2641C13.4785 76.2429 14.2457 76.401 14.947 76.7261C15.6484 77.0511 16.2649 77.5342 16.7482 78.1375C16.9691 78.4145 17.2716 78.6149 17.6127 78.7104C17.9539 78.8058 18.3164 78.7915 18.649 78.6695C18.9815 78.5474 19.2672 78.3238 19.4656 78.0303C19.664 77.7368 19.765 77.3883 19.7542 77.0342C19.7332 76.2615 19.8913 75.4945 20.2163 74.7931C20.5413 74.0918 21.0242 73.4752 21.6273 72.9918C21.9043 72.771 22.1048 72.4686 22.2004 72.1275C22.2959 71.7864 22.2817 71.4239 22.1598 71.0914C22.0379 70.7588 21.8144 70.473 21.521 70.2745C21.2276 70.0761 20.8792 69.9749 20.5251 69.9855C19.7522 70.0075 18.9848 69.8497 18.2833 69.5246C17.5818 69.1995 16.9653 68.716 16.4824 68.1121C16.2615 67.8354 15.9591 67.6352 15.618 67.5398C15.277 67.4445 14.9146 67.4589 14.5822 67.5809C14.2498 67.7029 13.9642 67.9265 13.7658 68.2198C13.5675 68.5132 13.4664 68.8615 13.477 69.2154C13.498 69.9884 13.3398 70.7558 13.0147 71.4574C12.6896 72.159 12.2064 72.7759 11.603 73.2595C11.3261 73.4804 11.1257 73.7828 11.0302 74.1239C10.9348 74.465 10.949 74.8274 11.071 75.16C11.193 75.4925 11.4165 75.7782 11.71 75.9767C12.0034 76.1751 12.3518 76.2761 12.7058 76.2655V76.2641ZM16.3148 72.3036C16.6756 72.504 17.0506 72.6778 17.4367 72.8236C17.2362 73.1846 17.0623 73.5597 16.9164 73.9461C16.5556 73.7456 16.1806 73.5718 15.7945 73.426C15.995 73.065 16.1689 72.6899 16.3148 72.3036V72.3036Z" fill="#3E61EE"/>
<path d="M124.595 20.8125C126.148 20.8125 127.407 19.5533 127.407 18C127.407 16.4467 126.148 15.1875 124.595 15.1875C123.041 15.1875 121.782 16.4467 121.782 18C121.782 19.5533 123.041 20.8125 124.595 20.8125Z" fill="#3E61EE"/>
<path d="M26.7383 78.75C28.2916 78.75 29.5508 77.4908 29.5508 75.9375C29.5508 74.3842 28.2916 73.125 26.7383 73.125C25.185 73.125 23.9258 74.3842 23.9258 75.9375C23.9258 77.4908 25.185 78.75 26.7383 78.75Z" fill="#3E61EE"/>
<path d="M129.937 23.625C131.024 23.625 131.905 22.7436 131.905 21.6562C131.905 20.5689 131.024 19.6875 129.937 19.6875C128.849 19.6875 127.968 20.5689 127.968 21.6562C127.968 22.7436 128.849 23.625 129.937 23.625Z" fill="#3E61EE"/>
<path d="M31.2383 71.1562C32.3256 71.1562 33.207 70.2748 33.207 69.1875C33.207 68.1002 32.3256 67.2188 31.2383 67.2188C30.151 67.2188 29.2695 68.1002 29.2695 69.1875C29.2695 70.2748 30.151 71.1562 31.2383 71.1562Z" fill="#3E61EE"/>
<path d="M107.876 128.989L93.6325 56.4058L90.3208 57.0555L103.434 123.879C97.3408 120.096 86.0627 118.105 75.2455 118.105C64.4283 118.105 53.1429 120.098 47.0507 123.883L59.8904 57.049L56.5758 56.4122L42.5398 129.474L42.558 129.478C42.511 129.766 42.487 130.058 42.4863 130.35C42.4863 138.303 59.3644 142.595 75.2455 142.595C91.1266 142.595 108.005 138.303 108.005 130.35C108.005 129.894 107.947 129.44 107.835 128.998L107.876 128.989ZM75.2455 139.219C57.0402 139.219 45.8613 134.053 45.8613 130.349C45.8613 126.645 57.0402 121.48 75.2455 121.48C93.4508 121.48 104.63 126.647 104.63 130.349C104.63 134.051 93.4514 139.219 75.2455 139.219Z" fill="#17E5C3"/>
<path d="M59.593 93.5631C59.8106 93.6052 60.0344 93.6039 60.2515 93.5593C60.4687 93.5148 60.6749 93.4279 60.8584 93.3035C61.0419 93.1791 61.1991 93.0198 61.3209 92.8346C61.4428 92.6495 61.5269 92.4421 61.5685 92.2243L66.2102 68.0624C66.2946 67.6229 66.2009 67.1678 65.9498 66.7974C65.6987 66.4269 65.3107 66.1713 64.8712 66.0869C64.4316 66.0025 63.9766 66.0962 63.6061 66.3473C63.2356 66.5984 62.9801 66.9864 62.8957 67.426L58.255 91.587C58.1704 92.0265 58.2639 92.4815 58.5148 92.8521C58.7657 93.2227 59.1535 93.4784 59.593 93.5631V93.5631Z" fill="#17E5C3"/>
<path d="M58.9327 96.9985C58.7151 96.9567 58.4913 96.9582 58.2742 97.0029C58.0572 97.0476 57.851 97.1346 57.6676 97.2589C57.4842 97.3832 57.327 97.5425 57.2051 97.7276C57.0832 97.9127 56.999 98.1199 56.9572 98.3376L56.292 101.799C56.2076 102.239 56.3012 102.694 56.5523 103.065C56.8035 103.435 57.1915 103.691 57.6311 103.775C58.0706 103.86 58.5257 103.766 58.8963 103.515C59.2668 103.264 59.5224 102.876 59.6068 102.436L60.2717 98.974C60.3135 98.7564 60.312 98.5327 60.2674 98.3156C60.2227 98.0985 60.1357 97.8924 60.0114 97.709C59.887 97.5255 59.7278 97.3684 59.5427 97.2465C59.3576 97.1246 59.1503 97.0403 58.9327 96.9985V96.9985Z" fill="#17E5C3"/>
<path d="M91.5326 106.223L92.5732 111.532C92.6594 111.972 92.9165 112.359 93.288 112.608C93.6595 112.858 94.115 112.95 94.5542 112.863C94.9934 112.777 95.3803 112.52 95.6299 112.149C95.8795 111.777 95.9714 111.322 95.8852 110.883L94.8446 105.573C94.8019 105.356 94.7168 105.149 94.5941 104.964C94.4715 104.779 94.3137 104.621 94.1297 104.497C93.9458 104.374 93.7393 104.288 93.522 104.244C93.3048 104.2 93.081 104.199 92.8636 104.242C92.6461 104.285 92.4392 104.37 92.2546 104.492C92.07 104.615 91.9114 104.773 91.7878 104.957C91.6642 105.141 91.578 105.347 91.5342 105.565C91.4905 105.782 91.4899 106.006 91.5326 106.223V106.223Z" fill="#17E5C3"/>
<path d="M89.839 97.5955C89.9282 98.0318 90.1861 98.4152 90.5567 98.6621C90.9273 98.9089 91.3804 98.9994 91.8174 98.9136C92.2543 98.8279 92.6397 98.5729 92.8894 98.2042C93.1392 97.8356 93.2331 97.3832 93.1508 96.9456L88.9646 75.6124C88.9238 75.3932 88.84 75.1843 88.7179 74.9977C88.5959 74.8111 88.4381 74.6505 88.2536 74.5253C88.0691 74.4 87.8617 74.3126 87.6432 74.268C87.4247 74.2234 87.1996 74.2225 86.9808 74.2654C86.762 74.3084 86.5539 74.3942 86.3685 74.5181C86.183 74.6419 86.024 74.8012 85.9005 74.9869C85.7771 75.1726 85.6916 75.3809 85.6491 75.5997C85.6066 75.8186 85.6079 76.0438 85.6529 76.2621L89.839 97.5955Z" fill="#17E5C3"/>
<path d="M34.8346 53.8873C45.6158 57.2662 59.9176 59.1269 75.106 59.1269C90.2943 59.1269 104.598 57.2668 115.378 53.8873C126.928 50.2679 133.032 45.4014 133.032 39.8141C133.032 33.4156 124.93 27.9223 110.2 24.3037C107.203 17.4935 102.289 11.7024 96.0576 7.63651C89.8262 3.57067 82.5465 1.40576 75.106 1.40576C67.6654 1.40576 60.3857 3.57067 54.1543 7.63651C47.9229 11.7024 43.0091 17.4935 40.0121 24.3037C25.2819 27.922 17.1797 33.4162 17.1797 39.8138C17.1797 45.4014 23.2845 50.2679 34.8346 53.8873V53.8873ZM75.106 4.78101C94.083 4.78101 109.579 19.9854 110.082 38.8663C102.082 42.3985 89.142 44.4913 75.1057 44.4913C61.1275 44.4913 48.1338 42.3937 40.1288 38.8663C40.6328 19.9854 56.1289 4.78101 75.106 4.78101V4.78101ZM38.5454 28.1689C37.3469 31.9343 36.7382 35.8625 36.7409 39.8141C36.7409 40.1128 36.8203 40.4061 36.9709 40.664C37.1215 40.9219 37.338 41.1352 37.5982 41.2819C37.7469 41.4432 37.9259 41.5736 38.1249 41.6658C46.4947 45.5485 60.3192 47.8665 75.106 47.8665C90.2355 47.8665 104.24 45.4633 112.568 41.4377C112.92 41.268 113.202 40.9814 113.366 40.6269C113.531 40.2723 113.567 39.8719 113.468 39.4937C113.44 35.6499 112.833 31.8321 111.668 28.1689C124.859 31.7689 129.659 36.4658 129.659 39.8141C129.659 43.6095 123.944 47.6669 114.37 50.6672C103.908 53.9466 89.9633 55.7525 75.1079 55.7525C60.2526 55.7525 46.3079 53.9466 35.8454 50.6672C26.27 47.6669 20.5547 43.6095 20.5547 39.8141C20.5547 36.4666 25.3542 31.7698 38.5454 28.1689V28.1689Z" fill="#3E61EE"/>
</svg>
