<svg viewBox="0 0 144 144" fill="none" xmlns="http://www.w3.org/2000/svg">
<path d="M105.62 27.5713L101.964 22.2275L92.292 27.0116L94.2295 29.8047L85.6598 34.0038L83.1457 32.0516L23.0032 70.0822C21.0012 71.3539 19.3149 73.0645 18.072 75.0845C16.8291 77.1045 16.0622 79.3808 15.8294 81.7411C15.5966 84.1014 15.904 86.4837 16.7283 88.7076C17.5527 90.9315 18.8723 92.9386 20.5873 94.5769C19.1855 91.1803 19.0259 87.3984 20.1364 83.8958C21.247 80.3932 23.5567 77.3942 26.6595 75.426L86.8453 37.3866L88.4867 39.7539L97.886 35.1482L96.0188 32.42L105.62 27.5713Z" fill="#3E61EE" fill-opacity="0.2"/>
<path d="M29.8586 90.6085C30.2571 90.6751 30.6604 90.7087 31.0644 90.7089C32.5934 90.7089 34.082 90.2181 35.3112 89.3088L54.2433 75.4035C54.5976 75.1433 54.8363 74.755 54.9087 74.3214C54.9811 73.8878 54.8814 73.443 54.6309 73.0818L49.07 65.0634C48.8194 64.7022 48.4377 64.4531 48.0062 64.369C47.5747 64.285 47.1274 64.3726 46.7595 64.6134L27.1001 77.4721C25.8867 78.2659 24.9409 79.4072 24.3865 80.747C23.832 82.0868 23.6947 83.5628 23.9924 84.9819C24.2901 86.401 25.0091 87.6972 26.0553 88.7012C27.1015 89.7052 28.4262 90.3702 29.8564 90.6093L29.8586 90.6085ZM27.2858 82.7681C27.3821 82.2652 27.5791 81.7869 27.8649 81.362C28.1506 80.9372 28.5193 80.5744 28.9488 80.2956L47.2326 68.336L50.9217 73.655L33.313 86.5886C32.6916 87.0448 31.9471 87.303 31.1767 87.3294C30.4063 87.3558 29.6459 87.1491 28.9948 86.7364C28.3437 86.3237 27.8323 85.7242 27.5274 85.0162C27.2225 84.3082 27.1383 83.5247 27.2858 82.7681Z" fill="#3E61EE"/>
<path d="M58.9474 69.7706C59.3394 69.8427 59.7371 69.879 60.1357 69.8791C61.8229 69.8791 63.4452 69.2287 64.665 68.0631C65.8849 66.8976 66.6085 65.3066 66.6853 63.6212C66.7621 61.9357 66.1863 60.2855 65.0775 59.0138C63.9687 57.7421 62.4123 56.9468 60.7321 56.7933C59.052 56.6398 57.3772 57.1399 56.0564 58.1897C54.7355 59.2394 53.8701 60.7579 53.6403 62.4293C53.4104 64.1008 53.8337 65.7965 54.8222 67.1639C55.8107 68.5312 57.2882 69.4648 58.9474 69.7706ZM57.0054 62.7753C57.1336 62.0532 57.5115 61.3992 58.0731 60.9275C58.6346 60.4559 59.3441 60.1966 60.0775 60.1951C60.2696 60.1953 60.4614 60.2128 60.6504 60.2474C61.4747 60.3996 62.2055 60.8715 62.6832 61.5603C63.1609 62.2491 63.3469 63.0989 63.2005 63.9242C63.1285 64.3302 62.9769 64.7179 62.7544 65.0651C62.5319 65.4122 62.243 65.7119 61.9042 65.9469C61.5654 66.1819 61.1834 66.3476 60.7803 66.4343C60.3772 66.5211 59.961 66.5272 59.5555 66.4524C58.7311 66.3003 58.0003 65.8283 57.5226 65.1394C57.0448 64.4506 56.8589 63.6007 57.0054 62.7753Z" fill="#3E61EE"/>
<path d="M129.637 14.9926C129.382 14.6249 128.991 14.3735 128.551 14.2938C128.11 14.2141 127.656 14.3126 127.289 14.5676L125.32 15.9319L123.685 13.5748C123.559 13.3908 123.399 13.2335 123.212 13.112C123.026 12.9904 122.817 12.907 122.598 12.8665C122.379 12.826 122.154 12.8293 121.936 12.8761C121.719 12.9229 121.512 13.0124 121.329 13.1393C121.146 13.2662 120.99 13.4281 120.87 13.6156C120.75 13.8031 120.668 14.0126 120.629 14.2318C120.591 14.4511 120.595 14.6759 120.644 14.8933C120.692 15.1106 120.783 15.3162 120.912 15.4983L122.547 17.8551L119.648 19.8655L117.037 16.1013C116.782 15.7335 116.392 15.4821 115.951 15.4024C115.511 15.3227 115.057 15.4212 114.689 15.6763C114.321 15.9314 114.07 16.3221 113.99 16.7625C113.91 17.2029 114.009 17.6569 114.264 18.0247L116.875 21.789L113.976 23.7993L110.391 18.6277C110.134 18.2638 109.744 18.016 109.306 17.9384C108.867 17.8608 108.416 17.9597 108.05 18.2135C107.684 18.4673 107.433 18.8554 107.352 19.2933C107.271 19.7312 107.367 20.1833 107.618 20.5512L111.204 25.7228L106.604 28.9128L108.527 31.6859L113.128 28.4951L116.837 33.8439C117.092 34.2117 117.483 34.4631 117.923 34.5428C118.364 34.6225 118.818 34.5239 119.186 34.2689C119.553 34.0138 119.805 33.6231 119.884 33.1827C119.964 32.7423 119.866 32.2882 119.61 31.9204L115.901 26.5716L118.8 24.5621L121.534 28.5038C121.659 28.6878 121.82 28.8451 122.007 28.9666C122.193 29.0882 122.402 29.1716 122.621 29.2121C122.84 29.2526 123.065 29.2493 123.283 29.2025C123.5 29.1557 123.707 29.0662 123.89 28.9393C124.073 28.8124 124.229 28.6505 124.349 28.463C124.469 28.2755 124.551 28.066 124.59 27.8468C124.628 27.6275 124.623 27.4027 124.575 27.1853C124.526 26.968 124.435 26.7624 124.307 26.5803L121.573 22.6389L124.472 20.6285L126.23 23.1629C126.486 23.5286 126.876 23.7781 127.315 23.8567C127.755 23.9353 128.207 23.8366 128.574 23.5823C128.941 23.3279 129.192 22.9386 129.272 22.4996C129.353 22.0605 129.256 21.6075 129.003 21.2397L127.245 18.7051L129.212 17.3407C129.58 17.0856 129.831 16.6949 129.911 16.2545C129.99 15.8142 129.892 15.3602 129.637 14.9926Z" fill="#3E61EE"/>
<path d="M72.8907 57.3687C73.2341 57.3689 73.5692 57.2639 73.8511 57.0678L91.3885 44.9049C91.751 44.6478 91.9975 44.258 92.0744 43.8203C92.1513 43.3825 92.0524 42.9321 91.7991 42.5668C91.5459 42.2016 91.1588 41.951 90.7219 41.8695C90.2849 41.7879 89.8335 41.8821 89.4656 42.1315L71.9282 54.2944C71.6326 54.4993 71.4102 54.7933 71.2935 55.1336C71.1768 55.4738 71.1718 55.8424 71.2793 56.1857C71.3868 56.5289 71.6012 56.8288 71.8912 57.0416C72.1811 57.2545 72.5315 57.3691 72.8912 57.3687H72.8907Z" fill="#3E61EE"/>
<path d="M75.2372 48.7486C75.5805 48.7487 75.9156 48.6437 76.1974 48.4477L88.1137 40.1832C88.2988 40.0582 88.4573 39.8976 88.5799 39.7109C88.7025 39.5242 88.7868 39.315 88.8279 39.0955C88.8691 38.8759 88.8662 38.6504 88.8195 38.432C88.7729 38.2135 88.6833 38.0065 88.556 37.823C88.4287 37.6395 88.2662 37.483 88.078 37.3627C87.8898 37.2424 87.6796 37.1607 87.4595 37.1223C87.2395 37.0839 87.014 37.0895 86.7962 37.1389C86.5783 37.1883 86.3725 37.2805 86.1905 37.41L74.2739 45.6751C73.9783 45.8801 73.7559 46.1741 73.6392 46.5144C73.5224 46.8546 73.5175 47.2233 73.625 47.5665C73.7326 47.9098 73.947 48.2097 74.2371 48.4225C74.5271 48.6353 74.8775 48.7499 75.2372 48.7495V48.7486Z" fill="#3E61EE"/>
<path d="M80.3976 57.4661C80.5239 57.6482 80.6848 57.8036 80.8712 57.9235C81.0576 58.0434 81.2658 58.1254 81.4838 58.1648C81.7019 58.2043 81.9256 58.2004 82.1422 58.1533C82.3587 58.1063 82.5639 58.0171 82.746 57.8908L94.6626 49.6265C95.0303 49.3715 95.2817 48.9807 95.3614 48.5403C95.4411 48.0999 95.3426 47.6459 95.0875 47.2781C94.8325 46.9103 94.4418 46.6589 94.0013 46.5792C93.5609 46.4995 93.1069 46.598 92.7391 46.8531L80.8225 55.1177C80.6404 55.2439 80.485 55.4049 80.3651 55.5912C80.2451 55.7776 80.1631 55.9858 80.1236 56.2038C80.0842 56.4219 80.0881 56.6456 80.1351 56.8622C80.1821 57.0788 80.2713 57.284 80.3976 57.4661Z" fill="#3E61EE"/>
<path d="M51.0027 88.8049L47.7461 89.6908L55.9305 119.761C56.0014 120.021 56.1338 120.261 56.3166 120.46C56.4995 120.659 56.7273 120.811 56.9811 120.903C57.2349 120.996 57.5072 121.026 57.775 120.991C58.0429 120.957 58.2986 120.858 58.5205 120.704L73.3089 110.447C73.5955 110.248 73.8134 109.966 73.9328 109.638C74.0521 109.31 74.067 108.954 73.9755 108.617L65.583 77.7827L62.3264 78.6689L65.0691 88.7467L53.2229 96.9626L51.0027 88.8049ZM58.5593 116.57L56.6789 109.661L68.5254 101.445L70.4056 108.354L58.5593 116.57ZM66.0096 92.2018L67.5846 97.9902L55.7384 106.206L54.1634 100.418L66.0096 92.2018Z" fill="#3E61EE"/>
<path d="M82.7257 68.1539L80.8874 65.5034L78.1143 67.4269L79.9517 70.0763C81.0659 71.6871 81.4957 73.674 81.147 75.6013C80.7982 77.5286 79.6993 79.2389 78.0912 80.3571L73.666 83.4261L71.6675 76.2202L77.2343 77.2276C77.6747 77.3073 78.1287 77.2087 78.4965 76.9536C78.8642 76.6985 79.1156 76.3078 79.1953 75.8673C79.2749 75.4269 79.1764 74.9729 78.9213 74.6051C78.6662 74.2373 78.2754 73.986 77.835 73.9063L69.8492 72.4613L67.7362 74.6733L77.7937 110.93L55.0208 126.723L45.6271 92.8606L42.375 93.7626L52.4027 129.916C52.4747 130.176 52.6078 130.414 52.7908 130.612C52.9739 130.809 53.2016 130.96 53.4549 131.052C53.7082 131.144 53.9797 131.173 54.2468 131.138C54.5139 131.104 54.7688 131.005 54.9902 130.852L80.7004 113.021C80.9881 112.821 81.2066 112.537 81.3256 112.208C81.4446 111.878 81.4583 111.52 81.3647 111.183L74.6217 86.8725L80.015 83.1319C82.358 81.5031 83.9592 79.0113 84.4674 76.2034C84.9756 73.3955 84.3492 70.5006 82.7257 68.1539Z" fill="#3E61EE"/>
<path d="M40.5729 105.056C40.5179 104.838 40.4199 104.633 40.2845 104.454C40.1492 104.274 39.9793 104.123 39.7848 104.01C39.5903 103.897 39.3751 103.824 39.152 103.795C38.9288 103.766 38.7022 103.783 38.4854 103.843C38.2686 103.903 38.066 104.006 37.8896 104.145C37.7131 104.285 37.5664 104.458 37.4579 104.655C37.3495 104.853 37.2816 105.069 37.2582 105.293C37.2348 105.517 37.2563 105.743 37.3216 105.958L41.1523 119.769C41.2719 120.2 41.5579 120.567 41.9474 120.787C42.337 121.007 42.7981 121.064 43.2294 120.944C43.6607 120.825 44.0268 120.539 44.2472 120.149C44.4676 119.76 44.5242 119.299 44.4046 118.867L40.5729 105.056Z" fill="#3E61EE"/>
<path d="M42.612 125.035L43.9654 129.915C44.023 130.13 44.1227 130.332 44.2587 130.509C44.3947 130.685 44.5644 130.833 44.7579 130.944C44.9514 131.054 45.1649 131.126 45.3861 131.153C45.6073 131.181 45.8318 131.164 46.0466 131.105C46.2614 131.045 46.4623 130.944 46.6376 130.806C46.8129 130.669 46.9593 130.497 47.0681 130.303C47.177 130.108 47.2462 129.894 47.2719 129.673C47.2975 129.451 47.279 129.227 47.2175 129.013L45.8641 124.133C45.7413 123.706 45.4546 123.344 45.0664 123.127C44.6782 122.909 44.2199 122.854 43.7912 122.973C43.3625 123.092 42.9981 123.375 42.7773 123.761C42.5565 124.148 42.497 124.605 42.612 125.035Z" fill="#3E61EE"/>
<path d="M28.6411 100.365C29.5612 100.513 30.4916 100.587 31.4235 100.588C35.1778 100.587 38.8282 99.3549 41.8143 97.0794L98.5092 54.0791C98.8557 53.816 99.0872 53.4291 99.1553 52.9994C99.2234 52.5697 99.123 52.1302 98.8748 51.7728L98.0544 50.5916L103.21 45.7164L104.029 46.8977C104.168 47.097 104.347 47.2642 104.556 47.3879C104.765 47.5116 104.997 47.5888 105.239 47.6143C105.298 47.6205 105.357 47.6236 105.416 47.6236C105.845 47.6232 106.257 47.4599 106.57 47.1668L114.441 39.7834C114.736 39.5065 114.922 39.1325 114.965 38.7297C115.008 38.327 114.904 37.9223 114.673 37.5897L103.35 21.2654C103.119 20.9328 102.777 20.6942 102.385 20.5931C101.993 20.492 101.578 20.535 101.215 20.7144L91.5441 25.4976C91.3266 25.6051 91.1348 25.7583 90.9819 25.9466C90.829 26.1349 90.7185 26.354 90.6579 26.5889C90.5973 26.8238 90.588 27.069 90.6308 27.3078C90.6735 27.5466 90.7673 27.7733 90.9056 27.9726L91.7249 29.1539L85.3523 32.2735L84.5319 31.0906C84.284 30.733 83.9074 30.485 83.481 30.3985C83.0546 30.3119 82.6112 30.3934 82.2434 30.6259L52.7318 49.2877L47.8803 42.2919C47.754 42.1098 47.5931 41.9543 47.4067 41.8344C47.2203 41.7145 47.0121 41.6325 46.7941 41.593C46.576 41.5536 46.3523 41.5574 46.1357 41.6044C45.9191 41.6514 45.7139 41.7406 45.5318 41.8669L27.4368 54.4166C25.3249 55.8838 23.7612 58.0119 22.992 60.4658C22.2228 62.9196 22.292 65.5595 23.1885 67.9697L22.0998 68.6582C19.1326 70.541 16.8089 73.2822 15.4373 76.5175C14.0658 79.7529 13.7114 83.329 14.4215 86.7706C15.1315 90.2121 16.8722 93.3561 19.4122 95.7844C21.9522 98.2128 25.1711 99.8105 28.6411 100.365ZM101.407 24.3844L111.07 38.3173L105.689 43.3649L94.7933 27.6551L101.407 24.3844ZM93.6703 31.9585L101.266 42.9098L96.1101 47.7844L87.2977 35.0784L93.6703 31.9585ZM29.3602 57.19L46.0687 45.6025L49.8769 51.0936L26.1315 66.1087C25.6804 64.4708 25.7488 62.7332 26.3271 61.1357C26.9054 59.5383 27.9652 58.1596 29.3602 57.19ZM17.7165 80.5121C18.0819 78.6694 18.8193 76.9207 19.8836 75.3727C20.948 73.8248 22.3168 72.5102 23.9065 71.5093L82.6802 34.3429L95.1809 52.3688L39.7769 94.3876C37.5203 96.0935 34.798 97.0722 31.9717 97.1936C29.1455 97.3149 26.3493 96.5732 23.9547 95.0671C21.5602 93.5609 19.6808 91.3616 18.5664 88.7615C17.452 86.1614 17.1554 83.2837 17.7159 80.511L17.7165 80.5121Z" fill="#968B82"/>
</svg>
