<svg viewBox="0 0 144 144" fill="none" xmlns="http://www.w3.org/2000/svg">
<path d="M59.5047 74.4045C59.505 66.7009 62.3013 59.2593 67.3742 53.4618C72.4471 47.6644 79.4518 43.9052 87.0872 42.8825C82.5958 42.2836 78.0282 42.6515 73.6905 43.9614C69.3529 45.2713 65.3452 47.4931 61.936 50.4778C58.5268 53.4626 55.7948 57.1415 53.9231 61.268C52.0513 65.3945 51.083 69.8733 51.083 74.4045C51.083 78.9356 52.0513 83.4145 53.9231 87.541C55.7948 91.6674 58.5268 95.3463 61.936 98.3311C65.3452 101.316 69.3529 103.538 73.6905 104.848C78.0282 106.157 82.5958 106.525 87.0872 105.926C79.4518 104.904 72.4471 101.145 67.3742 95.3471C62.3013 89.5497 59.505 82.108 59.5047 74.4045Z" fill="#3E61EE" fill-opacity="0.2"/>
<path d="M58.2187 117.445C49.171 119.633 39.6588 118.845 31.0943 115.198C22.5299 111.551 15.37 105.24 10.6777 97.2001C12.3118 96.9547 13.8762 96.3687 15.2694 95.48C16.6625 94.5913 17.8533 93.4197 18.7646 92.0412C19.6759 90.6627 20.2874 89.1081 20.5593 87.4781C20.8312 85.8482 20.7575 84.1793 20.343 82.5796C19.9285 80.98 19.1825 79.4853 18.1533 78.1924C17.124 76.8996 15.8346 75.8375 14.3685 75.075C12.9025 74.3125 11.2926 73.8667 9.64312 73.7663C7.99369 73.666 6.34158 73.9134 4.7939 74.4925C4.91278 68.7127 6.19261 63.0159 8.55731 57.7407C9.55216 58.5366 10.6967 59.1245 11.9231 59.4697C13.1495 59.8148 14.4328 59.9101 15.6967 59.7499C16.9606 59.5897 18.1795 59.1772 19.281 58.537C20.3825 57.8968 21.3442 57.0419 22.109 56.023C22.8738 55.004 23.4262 53.8418 23.7334 52.6054C24.0405 51.3689 24.0962 50.0834 23.8971 48.825C23.6979 47.5666 23.2481 46.361 22.5742 45.2798C21.9003 44.1986 21.0161 43.2637 19.9741 42.5307C26.9754 36.5435 35.7146 32.9634 44.9041 32.3179C45.1271 32.3049 45.3453 32.2477 45.546 32.1497C45.7467 32.0517 45.926 31.9148 46.0734 31.747C46.2208 31.5792 46.3335 31.3838 46.4048 31.1721C46.4761 30.9604 46.5047 30.7367 46.4889 30.5139C46.4731 30.2911 46.4132 30.0736 46.3127 29.8741C46.2122 29.6747 46.0731 29.4971 45.9035 29.3518C45.7339 29.2065 45.5371 29.0962 45.3245 29.0276C45.112 28.9589 44.8879 28.9331 44.6653 28.9516C33.8993 29.7084 23.7343 34.1963 15.9216 41.6422C15.901 41.6605 15.8816 41.6799 15.8616 41.6985C15.2161 42.3146 14.5855 42.95 13.97 43.6048C11.0491 46.7254 8.57097 50.2327 6.60515 54.0282C6.59474 54.0479 6.58406 54.0673 6.57449 54.087C3.17149 60.6876 1.39983 68.0076 1.40793 75.4338C1.40793 75.9516 1.41946 76.4666 1.43606 76.9807C1.38972 77.2281 1.39933 77.4828 1.46418 77.726C2.66343 102.361 23.0802 122.034 48.0068 122.034C51.714 122.035 55.4083 121.596 59.0119 120.726C59.447 120.621 59.8226 120.347 60.056 119.965C60.2893 119.583 60.3613 119.124 60.2561 118.689C60.1509 118.254 59.8772 117.878 59.4951 117.645C59.113 117.412 58.6539 117.34 58.2187 117.445ZM17.3531 85.538C17.3505 87.7655 16.4661 89.9014 14.8932 91.4786C13.3204 93.0559 11.187 93.9462 8.95949 93.955C6.60085 89.0029 5.21379 83.6444 4.87349 78.1698C6.15457 77.4617 7.59827 77.1002 9.06187 77.121C10.5255 77.1418 11.9583 77.5442 13.2188 78.2884C14.4792 79.0327 15.5236 80.093 16.2487 81.3645C16.9738 82.6361 17.3545 84.0748 17.3531 85.5386V85.538ZM16.4365 45.9099C16.7572 45.5668 17.0834 45.2318 17.415 44.9005C18.1932 45.3201 18.8716 45.9027 19.404 46.6085C19.9363 47.3143 20.31 48.1268 20.4995 48.9903C20.6891 49.8538 20.69 50.7481 20.5022 51.612C20.3144 52.4759 19.9423 53.2891 19.4114 53.996C18.8805 54.7029 18.2032 55.2868 17.4259 55.708C16.6486 56.1291 15.7895 56.3775 14.9074 56.4362C14.0253 56.4948 13.1409 56.3623 12.3146 56.0478C11.4884 55.7333 10.7398 55.2441 10.1199 54.6137C11.8552 51.4616 13.9767 48.5381 16.4351 45.9107L16.4365 45.9099Z" fill="#3E61EE"/>
<path d="M24.9668 98.2427C24.0563 98.2427 23.1662 98.5128 22.4091 99.0187C21.6521 99.5246 21.0621 100.244 20.7136 101.085C20.3652 101.926 20.2741 102.852 20.4518 103.745C20.6294 104.638 21.0679 105.458 21.7118 106.102C22.3557 106.746 23.176 107.184 24.069 107.362C24.9621 107.539 25.8877 107.448 26.7289 107.1C27.5701 106.751 28.2891 106.161 28.795 105.404C29.3008 104.647 29.5709 103.757 29.5709 102.846C29.5694 101.626 29.0839 100.456 28.2208 99.5926C27.3576 98.7295 26.1874 98.244 24.9668 98.2427ZM24.9668 104.075C24.7238 104.075 24.4862 104.003 24.2842 103.868C24.0822 103.733 23.9247 103.541 23.8317 103.316C23.7388 103.092 23.7145 102.845 23.7619 102.607C23.8094 102.368 23.9264 102.149 24.0983 101.977C24.2701 101.806 24.4891 101.689 24.7274 101.641C24.9658 101.594 25.2129 101.618 25.4374 101.711C25.6619 101.804 25.8538 101.962 25.9888 102.164C26.1238 102.366 26.1958 102.603 26.1958 102.846C26.1955 103.172 26.0659 103.485 25.8354 103.715C25.605 103.945 25.2926 104.075 24.9668 104.075Z" fill="#3E61EE"/>
<path d="M33.7783 42.7691C33.7784 43.6796 34.0484 44.5697 34.5543 45.3268C35.0602 46.0838 35.7793 46.6738 36.6205 47.0222C37.4617 47.3706 38.3874 47.4618 39.2804 47.2841C40.1735 47.1064 40.9937 46.6679 41.6376 46.0241C42.2814 45.3802 42.7198 44.5599 42.8974 43.6669C43.0751 42.7738 42.9839 41.8482 42.6354 41.007C42.287 40.1657 41.6969 39.4468 40.9398 38.9409C40.1827 38.435 39.2926 38.165 38.3821 38.165C37.1615 38.1664 35.9912 38.6519 35.1281 39.515C34.265 40.3782 33.7796 41.5485 33.7783 42.7691ZM39.6109 42.7691C39.6108 43.0121 39.5387 43.2497 39.4037 43.4517C39.2686 43.6537 39.0767 43.8112 38.8521 43.9041C38.6276 43.9971 38.3805 44.0214 38.1422 43.974C37.9039 43.9265 37.6849 43.8095 37.5131 43.6376C37.3413 43.4657 37.2243 43.2468 37.1769 43.0084C37.1295 42.7701 37.1539 42.523 37.2469 42.2985C37.3399 42.074 37.4974 41.8821 37.6995 41.7471C37.9015 41.6121 38.1391 41.54 38.3821 41.54C38.7079 41.5404 39.0203 41.67 39.2507 41.9005C39.481 42.1309 39.6106 42.4433 39.6109 42.7691Z" fill="#3E61EE"/>
<path d="M30.7369 52.3937C30.737 51.9445 30.6039 51.5055 30.3544 51.132C30.1049 50.7585 29.7503 50.4674 29.3353 50.2955C28.9204 50.1236 28.4638 50.0786 28.0233 50.1662C27.5828 50.2537 27.1781 50.47 26.8605 50.7876C26.5429 51.1051 26.3266 51.5098 26.239 51.9503C26.1513 52.3908 26.1963 52.8474 26.3681 53.2623C26.54 53.6773 26.8311 54.0319 27.2045 54.2815C27.5779 54.531 28.017 54.6642 28.4661 54.6642C29.0681 54.6635 29.6453 54.4241 30.071 53.9984C30.4967 53.5728 30.7362 52.9957 30.7369 52.3937Z" fill="#3E61EE"/>
<path d="M136.452 78.5222L131.799 76.815C130.037 76.1572 128.49 75.0274 127.327 73.5492C126.164 72.0711 125.43 70.3016 125.205 68.4343C124.981 66.5671 125.274 64.674 126.053 62.9622C126.833 61.2505 128.068 59.7861 129.623 58.7292L133.735 55.9496C134.051 55.7364 134.285 55.4227 134.399 55.0597C134.514 54.6967 134.502 54.3055 134.367 53.9499C134.231 53.5942 133.979 53.2949 133.651 53.1006C133.324 52.9062 132.941 52.8283 132.563 52.8795L127.655 53.5458C125.808 53.8134 123.923 53.5549 122.215 52.7998C120.508 52.0447 119.049 50.8236 118.004 49.2767C116.905 47.7265 116.266 45.8979 116.159 44.0007C116.052 42.1036 116.483 40.2148 117.401 38.5512L119.564 34.5293C119.567 34.5265 119.57 34.5248 119.573 34.522L125.419 28.6765C125.735 28.3601 125.913 27.9308 125.913 27.4833C125.913 27.0357 125.735 26.6065 125.419 26.29C125.102 25.9735 124.673 25.7956 124.226 25.7956C123.778 25.7956 123.349 25.9734 123.032 26.2898L117.382 31.9401C117.354 31.9587 117.321 31.973 117.292 31.9936L113.254 34.8806C111.749 35.9827 109.963 36.6367 108.102 36.7672C106.241 36.8977 104.381 36.4993 102.737 35.618C101.05 34.7555 99.6415 33.4336 98.6738 31.8048C97.706 30.176 97.2185 28.3067 97.2676 26.4127L97.3329 21.4242C97.3378 21.0428 97.2134 20.6709 96.9798 20.3693C96.7463 20.0676 96.4174 19.854 96.0469 19.7633C95.6764 19.6725 95.2861 19.71 94.9396 19.8696C94.5931 20.0292 94.3109 20.3015 94.139 20.642L91.8955 25.0897C91.0581 26.7672 89.7699 28.1782 88.1754 29.1643C86.5808 30.1505 84.7431 30.6729 82.8682 30.6729C80.9934 30.6729 79.1556 30.1505 77.561 29.1643C75.9665 28.1782 74.6783 26.7672 73.8409 25.0897L71.5974 20.642C71.4255 20.3015 71.1433 20.0292 70.7968 19.8696C70.4503 19.71 70.06 19.6725 69.6895 19.7633C69.319 19.854 68.9901 20.0676 68.7566 20.3693C68.523 20.6709 68.3986 21.0428 68.4035 21.4242L68.4688 26.4127C68.5179 28.3067 68.0306 30.1759 67.0629 31.8047C66.0952 33.4335 64.6867 34.7555 62.9999 35.618C61.3558 36.4993 59.496 36.8977 57.6352 36.7672C55.7744 36.6367 53.9884 35.9827 52.4834 34.8806L48.4449 31.9927C48.4286 31.9812 48.4109 31.9736 48.3943 31.9626L44.7588 28.0071C44.4551 27.6812 44.0348 27.4885 43.5896 27.4713C43.1445 27.454 42.7105 27.6135 42.3824 27.9149C42.0544 28.2163 41.8588 28.6353 41.8385 29.0803C41.8181 29.5254 41.9746 29.9605 42.2737 30.2906L46.1136 34.4697C46.1313 34.4891 46.1513 34.506 46.1699 34.5259L48.3355 38.5526C49.2536 40.2162 49.684 42.1049 49.5774 44.002C49.4707 45.8991 48.8313 47.7276 47.7325 49.2778C46.6878 50.8248 45.2281 52.046 43.5209 52.8012C41.8138 53.5563 39.9283 53.8149 38.0808 53.5472L33.173 52.8809C32.7958 52.8297 32.4123 52.9076 32.0849 53.102C31.7576 53.2963 31.5055 53.5956 31.3697 53.9513C31.234 54.3069 31.2225 54.6981 31.3371 55.0611C31.4517 55.4241 31.6857 55.7378 32.001 55.951L36.1132 58.7306C37.6689 59.7875 38.9039 61.2519 39.6831 62.9636C40.4622 64.6754 40.7556 66.5685 40.531 68.4357C40.3064 70.303 39.5725 72.0725 38.4096 73.5506C37.2467 75.0288 35.6997 76.1586 33.9377 76.8164L29.2845 78.5236C28.9267 78.6544 28.6238 78.9025 28.425 79.2274C28.2261 79.5523 28.143 79.9349 28.1892 80.313C28.2354 80.691 28.4081 81.0424 28.6794 81.3099C28.9506 81.5773 29.3043 81.7452 29.683 81.7861L34.6065 82.3221C36.4701 82.5091 38.2433 83.217 39.7233 84.3647C41.2032 85.5125 42.3301 87.0539 42.9749 88.8123C43.6702 90.5769 43.8545 92.5017 43.5068 94.3663C43.159 96.2308 42.2933 97.9598 41.0086 99.3552L37.6758 103.045C37.4201 103.328 37.2676 103.689 37.2432 104.069C37.2188 104.45 37.3238 104.827 37.5413 105.14C37.7587 105.453 38.0757 105.684 38.4407 105.793C38.8056 105.903 39.1971 105.886 39.5512 105.745L44.1561 103.915C45.8813 103.209 47.7706 103.005 49.6066 103.326C51.4427 103.647 53.1507 104.48 54.5342 105.729C55.9705 106.971 57.0266 108.595 57.5811 110.411C58.1355 112.228 58.1657 114.164 57.6682 115.997L56.4217 120.825C56.3266 121.194 56.3593 121.585 56.5145 121.933C56.6697 122.281 56.9382 122.566 57.2763 122.743C57.6144 122.919 58.0022 122.975 58.3764 122.903C58.7507 122.83 59.0894 122.633 59.3374 122.344L62.5718 118.566C63.7907 117.141 65.3823 116.084 67.1682 115.512C68.9541 114.941 70.8638 114.878 72.6835 115.33C74.5032 115.783 76.161 116.733 77.4712 118.075C78.7814 119.416 79.6923 121.096 80.1018 122.926L81.2235 127.785C81.3092 128.157 81.5185 128.488 81.8172 128.726C82.1158 128.964 82.4862 129.093 82.8678 129.093C83.2494 129.093 83.6198 128.964 83.9184 128.726C84.2171 128.488 84.4263 128.157 84.5121 127.785L85.634 122.926C86.0435 121.096 86.9543 119.416 88.2645 118.075C89.5747 116.733 91.2324 115.783 93.0521 115.33C94.8718 114.878 96.7816 114.941 98.5675 115.512C100.353 116.084 101.945 117.141 103.164 118.566L106.399 122.344C106.647 122.633 106.986 122.83 107.361 122.902C107.735 122.975 108.123 122.918 108.461 122.742C108.799 122.566 109.067 122.28 109.222 121.932C109.377 121.583 109.41 121.193 109.314 120.824L108.066 115.996C107.568 114.163 107.598 112.227 108.153 110.41C108.707 108.593 109.764 106.97 111.2 105.727C112.583 104.479 114.292 103.646 116.128 103.325C117.964 103.004 119.853 103.208 121.578 103.913L126.185 105.744C126.539 105.884 126.931 105.901 127.296 105.791C127.661 105.682 127.978 105.451 128.195 105.138C128.413 104.825 128.518 104.448 128.493 104.067C128.469 103.687 128.316 103.326 128.061 103.044L124.728 99.3532C123.443 97.9579 122.577 96.2289 122.229 94.3644C121.882 92.4998 122.066 90.575 122.761 88.8103C123.406 87.0516 124.532 85.51 126.012 84.3618C127.492 83.2137 129.265 82.5054 131.129 82.3182L136.053 81.7821C136.431 81.7412 136.785 81.5734 137.056 81.3059C137.327 81.0385 137.5 80.6871 137.546 80.309C137.593 79.9309 137.509 79.5483 137.311 79.2234C137.112 78.8986 136.809 78.6505 136.451 78.5196L136.452 78.5222ZM119.608 87.611C118.813 89.6781 118.535 91.9083 118.799 94.1072C119.063 96.3062 119.861 98.4073 121.122 100.228C119.008 99.6946 116.795 99.6865 114.676 100.204C112.558 100.722 110.598 101.749 108.967 103.198C107.303 104.659 106.022 106.506 105.237 108.577C104.451 110.648 104.185 112.88 104.461 115.077C102.826 113.618 100.859 112.579 98.731 112.052C96.6032 111.526 94.379 111.526 92.2513 112.053C90.1237 112.581 88.1569 113.62 86.5218 115.08C84.8866 116.54 83.6325 118.377 82.8682 120.431C82.106 118.375 80.8529 116.536 79.2179 115.074C77.5829 113.613 75.6155 112.573 73.4869 112.045C71.3583 111.517 69.1329 111.518 67.0045 112.046C64.876 112.574 62.909 113.615 61.2744 115.077C61.551 112.88 61.285 110.648 60.4996 108.577C59.7142 106.506 58.4333 104.659 56.769 103.198C55.1385 101.749 53.1786 100.722 51.0601 100.204C48.9416 99.6865 46.7287 99.6945 44.614 100.228C45.8657 98.4162 46.6597 96.3284 46.9278 94.1429C47.196 91.9575 46.9304 89.7396 46.1537 87.6793C45.377 85.619 44.1125 83.7777 42.4684 82.3131C40.8243 80.8486 38.8497 79.8044 36.7137 79.27C38.6622 78.2587 40.3337 76.786 41.5824 74.9804C42.8311 73.1748 43.619 71.0911 43.8774 68.911C44.4281 64.3941 42.7333 59.9062 39.3999 57.0937H39.4561C41.6344 57.0853 43.778 56.548 45.7029 55.5282C47.6277 54.5084 49.2761 53.0365 50.5065 51.2389C51.7746 49.4168 52.5782 47.3123 52.8474 45.1086C53.1166 42.905 52.8431 40.6689 52.0508 38.5951C53.976 39.6198 56.1228 40.1578 58.3038 40.162C60.4847 40.1662 62.6336 39.6365 64.5628 38.6193C66.5229 37.599 68.203 36.1137 69.456 34.2936C70.709 32.4734 71.4967 30.3739 71.7501 28.1787C72.9856 29.9885 74.6443 31.4693 76.5821 32.4925C78.5199 33.5157 80.6782 34.0503 82.8696 34.05C85.0609 34.0496 87.2191 33.5143 89.1565 32.4904C91.094 31.4666 92.7522 29.9853 93.9871 28.175C94.2409 30.3693 95.0287 32.4679 96.2818 34.287C97.5348 36.1061 99.2147 37.5903 101.174 38.6094C103.104 39.625 105.254 40.1528 107.435 40.1467C109.616 40.1407 111.762 39.601 113.686 38.5748C112.894 40.6521 112.62 42.8913 112.89 45.0981C113.159 47.3049 113.962 49.4128 115.231 51.2387C116.461 53.0363 118.109 54.5083 120.034 55.5281C121.959 56.548 124.103 57.0853 126.281 57.0937H126.337C123.004 59.9062 121.309 64.3941 121.86 68.911C122.118 71.0936 122.906 73.18 124.154 74.9887C125.403 76.7975 127.074 78.2738 129.024 79.2891C126.895 79.8042 124.924 80.8316 123.283 82.282C121.642 83.7324 120.381 85.5618 119.608 87.611Z" fill="#968B82"/>
<path d="M82.8675 40.9155C76.2439 40.9155 69.7691 42.8795 64.2618 46.5594C58.7544 50.2392 54.462 55.4695 51.9272 61.5889C49.3925 67.7083 48.7292 74.4419 50.0214 80.9382C51.3136 87.4345 54.5032 93.4017 59.1867 98.0853C63.8703 102.769 69.8376 105.958 76.3339 107.251C82.8302 108.543 89.5638 107.88 95.6831 105.345C101.803 102.81 107.033 98.5176 110.713 93.0103C114.392 87.503 116.357 81.0281 116.357 74.4045C116.346 65.5258 112.815 57.0136 106.537 50.7354C100.258 44.4572 91.7462 40.9257 82.8675 40.9155ZM82.8675 104.519C76.9115 104.519 71.0891 102.753 66.1368 99.4438C61.1845 96.1348 57.3247 91.4316 55.0453 85.929C52.766 80.4263 52.1696 74.3713 53.3315 68.5297C54.4935 62.6881 57.3616 57.3222 61.5731 53.1106C65.7847 48.899 71.1505 46.0309 76.9921 44.8689C82.8337 43.7069 88.8887 44.3033 94.3914 46.5825C99.8941 48.8618 104.597 52.7216 107.906 57.6739C111.215 62.6262 112.982 68.4485 112.982 74.4045C112.972 82.3885 109.797 90.0429 104.151 95.6884C98.5058 101.334 90.8515 104.51 82.8675 104.519Z" fill="#968B82"/>
<path d="M131.031 22.3632C131.253 22.3635 131.473 22.32 131.677 22.2352C131.882 22.1504 132.068 22.0259 132.225 21.8691L133.221 20.8726C133.537 20.5561 133.715 20.1269 133.715 19.6793C133.715 19.2318 133.538 18.8025 133.221 18.486C132.905 18.1695 132.475 17.9917 132.028 17.9917C131.58 17.9917 131.151 18.1694 130.835 18.4859L129.838 19.4824C129.602 19.7184 129.441 20.0191 129.376 20.3464C129.311 20.6738 129.344 21.0131 129.472 21.3215C129.6 21.6299 129.816 21.8935 130.094 22.0789C130.371 22.2643 130.698 22.3632 131.031 22.3632Z" fill="#968B82"/>
<path d="M82.9688 131.885C82.5212 131.885 82.092 132.063 81.7755 132.379C81.459 132.695 81.2812 133.125 81.2812 133.572V134.258C81.2812 134.706 81.459 135.135 81.7755 135.451C82.092 135.768 82.5212 135.945 82.9688 135.945C83.4163 135.945 83.8455 135.768 84.162 135.451C84.4785 135.135 84.6562 134.706 84.6562 134.258V133.572C84.6562 133.125 84.4785 132.695 84.162 132.379C83.8455 132.063 83.4163 131.885 82.9688 131.885Z" fill="#968B82"/>
<path d="M111.879 125.188C111.77 124.995 111.625 124.824 111.451 124.687C111.277 124.55 111.078 124.448 110.865 124.388C110.652 124.327 110.429 124.309 110.209 124.335C109.988 124.361 109.776 124.43 109.582 124.538C109.389 124.646 109.218 124.791 109.081 124.965C108.944 125.139 108.842 125.338 108.782 125.552C108.721 125.765 108.703 125.988 108.729 126.208C108.755 126.428 108.824 126.641 108.932 126.835L109.593 128.018C109.812 128.409 110.176 128.697 110.607 128.819C111.038 128.941 111.499 128.886 111.89 128.668C112.28 128.45 112.568 128.085 112.69 127.655C112.812 127.224 112.758 126.763 112.54 126.372L111.879 125.188Z" fill="#968B82"/>
<path d="M96.5991 10.1364L95.5022 14.6364C95.4497 14.8517 95.4401 15.0753 95.4739 15.2943C95.5078 15.5133 95.5845 15.7235 95.6996 15.9129C95.8147 16.1023 95.966 16.2671 96.1448 16.3981C96.3236 16.529 96.5265 16.6234 96.7418 16.6759C96.9571 16.7284 97.1806 16.738 97.3997 16.7042C97.6187 16.6703 97.8289 16.5936 98.0183 16.4785C98.2076 16.3634 98.3725 16.2121 98.5034 16.0333C98.6343 15.8545 98.7288 15.6516 98.7813 15.4363L99.8781 10.9363C99.982 10.5023 99.9098 10.0448 99.6772 9.6639C99.4445 9.28303 99.0705 9.00981 98.6369 8.90404C98.2034 8.79827 97.7456 8.86856 97.3637 9.09952C96.9818 9.33048 96.707 9.70332 96.5993 10.1364H96.5991Z" fill="#968B82"/>
<path d="M55.2399 125.48C55.0528 125.362 54.8442 125.281 54.6259 125.243C54.4075 125.205 54.1839 125.21 53.9676 125.258C53.7513 125.307 53.5467 125.397 53.3654 125.525C53.1841 125.652 53.0296 125.814 52.9109 126.001L51.4521 128.3C51.3333 128.487 51.2526 128.696 51.2145 128.914C51.1765 129.132 51.1818 129.356 51.2301 129.572C51.2785 129.789 51.369 129.993 51.4964 130.175C51.6239 130.356 51.7858 130.51 51.9729 130.629C52.1601 130.748 52.3687 130.828 52.5871 130.867C52.8054 130.905 53.0291 130.899 53.2453 130.851C53.4616 130.803 53.6662 130.712 53.8475 130.585C54.0288 130.457 54.1832 130.295 54.302 130.108L55.7608 127.81C55.8795 127.622 55.9603 127.414 55.9983 127.195C56.0364 126.977 56.0311 126.753 55.9828 126.537C55.9344 126.321 55.8439 126.116 55.7164 125.935C55.589 125.754 55.4271 125.599 55.2399 125.48Z" fill="#968B82"/>
<path d="M134.072 106.341L131.925 105.088C131.734 104.974 131.522 104.899 131.301 104.868C131.08 104.836 130.856 104.848 130.64 104.904C130.424 104.96 130.221 105.058 130.043 105.192C129.866 105.327 129.716 105.495 129.604 105.688C129.492 105.88 129.418 106.093 129.389 106.314C129.359 106.535 129.374 106.76 129.432 106.975C129.489 107.191 129.589 107.392 129.725 107.569C129.862 107.745 130.031 107.893 130.225 108.004L132.371 109.256C132.758 109.48 133.217 109.542 133.65 109.428C134.082 109.314 134.451 109.033 134.676 108.647C134.901 108.261 134.964 107.801 134.851 107.369C134.738 106.936 134.458 106.567 134.072 106.341Z" fill="#968B82"/>
<path d="M140.905 78.4688H139.928C139.48 78.4688 139.051 78.6465 138.734 78.963C138.418 79.2795 138.24 79.7087 138.24 80.1562C138.24 80.6038 138.418 81.033 138.734 81.3495C139.051 81.666 139.48 81.8438 139.928 81.8438H140.905C141.353 81.8438 141.782 81.666 142.099 81.3495C142.415 81.033 142.593 80.6038 142.593 80.1562C142.593 79.7087 142.415 79.2795 142.099 78.963C141.782 78.6465 141.353 78.4688 140.905 78.4688Z" fill="#968B82"/>
<path d="M37.2039 22.2795C37.0407 22.4294 36.9087 22.6101 36.8153 22.811C36.7219 23.012 36.6691 23.2294 36.6597 23.4509C36.6504 23.6723 36.6847 23.8934 36.7608 24.1015C36.8369 24.3096 36.9533 24.5008 37.1032 24.6639L38.7207 26.424C38.8706 26.5872 39.0513 26.7192 39.2522 26.8126C39.4532 26.9059 39.6706 26.9588 39.8921 26.9682C40.1135 26.9775 40.3346 26.9432 40.5427 26.8671C40.7508 26.791 40.9419 26.6746 41.1051 26.5247C41.2683 26.3747 41.4003 26.1941 41.4937 25.9931C41.5871 25.7921 41.64 25.5747 41.6493 25.3533C41.6587 25.1319 41.6243 24.9108 41.5482 24.7027C41.4721 24.4945 41.3558 24.3034 41.2058 24.1402L39.5883 22.3802C39.4384 22.217 39.2578 22.0849 39.0568 21.9916C38.8558 21.8982 38.6384 21.8453 38.417 21.836C38.1956 21.8266 37.9745 21.861 37.7663 21.9371C37.5582 22.0132 37.3671 22.1295 37.2039 22.2795Z" fill="#968B82"/>
<path d="M140.364 51.4176C140.196 51.0029 139.87 50.672 139.458 50.4976C139.045 50.3233 138.581 50.3197 138.166 50.4878L136.296 51.2472C136.09 51.33 135.902 51.4526 135.743 51.6081C135.585 51.7635 135.459 51.9487 135.372 52.1531C135.285 52.3574 135.239 52.5769 135.237 52.7989C135.236 53.021 135.277 53.2412 135.361 53.4469C135.444 53.6527 135.568 53.84 135.723 53.9981C135.879 54.1561 136.065 54.2819 136.27 54.3681C136.474 54.4543 136.694 54.4993 136.916 54.5005C137.138 54.5017 137.358 54.459 137.563 54.375L139.434 53.6156C139.639 53.5323 139.826 53.4094 139.984 53.2539C140.142 53.0984 140.268 52.9133 140.354 52.7092C140.441 52.5051 140.486 52.286 140.487 52.0644C140.489 51.8428 140.447 51.623 140.364 51.4176Z" fill="#968B82"/>
<path d="M67.1228 8.09608C66.6864 8.19533 66.3074 8.46383 66.069 8.84252C65.8306 9.22122 65.7524 9.67909 65.8515 10.1155L67.1765 15.9466C67.2818 16.3766 67.5518 16.748 67.9283 16.9808C68.3049 17.2135 68.7579 17.289 69.1896 17.1909C69.6213 17.0928 69.9971 16.829 70.2361 16.4563C70.4751 16.0837 70.558 15.632 70.4671 15.1988L69.1421 9.36873C69.0932 9.15255 69.0021 8.94814 68.874 8.76718C68.746 8.58622 68.5836 8.43225 68.3961 8.31406C68.2086 8.19588 67.9996 8.1158 67.7811 8.0784C67.5626 8.04099 67.3389 8.047 67.1228 8.09608Z" fill="#968B82"/>
</svg>
