<svg viewBox="0 0 144 144" fill="none" xmlns="http://www.w3.org/2000/svg">
<path d="M22.407 63.1772C22.407 31.4182 46.9776 5.41575 78.0945 3.24422C76.7007 3.14691 75.2944 3.09375 73.8758 3.09375C40.7895 3.09375 13.9695 29.9953 13.9695 63.1772C13.9582 72.3208 16.0352 81.3462 20.0423 89.565C24.0493 97.7839 29.8805 104.979 37.0911 110.602H37.1895V102.693C27.637 91.7473 22.3839 77.7052 22.407 63.1772Z" fill="#3E61EE" fill-opacity="0.2"/>
<path d="M37.1897 113.282V110.677C37.1559 110.652 37.1222 110.627 37.0912 110.602C33.1003 110.68 29.2998 112.323 26.5074 115.175C23.7149 118.027 22.1537 121.862 22.1597 125.854V140.906H30.5972V125.854C30.5943 123.381 31.1929 120.944 32.3414 118.754C33.4899 116.564 35.1538 114.686 37.1897 113.282Z" fill="#3E61EE" fill-opacity="0.2"/>
<path d="M63.2719 66.5361C62.8244 66.5361 62.3951 66.7139 62.0787 67.0304C61.7622 67.3469 61.5844 67.7761 61.5844 68.2236C61.5844 68.771 61.367 69.2959 60.9799 69.683C60.5929 70.07 60.068 70.2874 59.5206 70.2874C58.9732 70.2874 58.4483 70.07 58.0613 69.683C57.6742 69.2959 57.4568 68.771 57.4568 68.2236C57.4568 67.7761 57.279 67.3469 56.9625 67.0304C56.6461 66.7139 56.2168 66.5361 55.7693 66.5361C55.3217 66.5361 54.8925 66.7139 54.576 67.0304C54.2596 67.3469 54.0818 67.7761 54.0818 68.2236C54.0818 69.6661 54.6548 71.0495 55.6748 72.0694C56.6948 73.0894 58.0781 73.6624 59.5206 73.6624C60.9631 73.6624 62.3464 73.0894 63.3664 72.0694C64.3864 71.0495 64.9594 69.6661 64.9594 68.2236C64.9594 67.7761 64.7816 67.3469 64.4652 67.0304C64.1487 66.7139 63.7195 66.5361 63.2719 66.5361Z" fill="#3E61EE"/>
<path d="M88.2304 66.5361C87.7829 66.5361 87.3536 66.7139 87.0372 67.0304C86.7207 67.3469 86.5429 67.7761 86.5429 68.2236C86.5429 68.771 86.3255 69.2959 85.9384 69.683C85.5514 70.07 85.0265 70.2874 84.4791 70.2874C83.9317 70.2874 83.4068 70.07 83.0198 69.683C82.6327 69.2959 82.4153 68.771 82.4153 68.2236C82.4153 67.7761 82.2375 67.3469 81.921 67.0304C81.6046 66.7139 81.1753 66.5361 80.7278 66.5361C80.2802 66.5361 79.851 66.7139 79.5345 67.0304C79.2181 67.3469 79.0403 67.7761 79.0403 68.2236C79.0403 69.6661 79.6133 71.0495 80.6333 72.0694C81.6533 73.0894 83.0366 73.6624 84.4791 73.6624C85.9216 73.6624 87.305 73.0894 88.3249 72.0694C89.3449 71.0495 89.9179 69.6661 89.9179 68.2236C89.9179 67.7761 89.7401 67.3469 89.4237 67.0304C89.1072 66.7139 88.678 66.5361 88.2304 66.5361Z" fill="#3E61EE"/>
<path d="M28.9611 43.1229C28.7556 43.0399 28.5358 42.9981 28.3142 43.0001C28.0925 43.002 27.8735 43.0476 27.6695 43.1342C27.4655 43.2208 27.2805 43.3467 27.1252 43.5048C26.9699 43.6629 26.8472 43.85 26.7642 44.0555C24.3101 50.1311 23.0542 56.624 23.0655 63.1766C23.0655 63.6241 23.2433 64.0533 23.5598 64.3698C23.8762 64.6863 24.3055 64.8641 24.753 64.8641C25.2006 64.8641 25.6298 64.6863 25.9462 64.3698C26.2627 64.0533 26.4405 63.6241 26.4405 63.1766C26.4295 57.0572 27.6021 50.9935 29.8937 45.3194C30.0613 44.9045 30.0572 44.44 29.8823 44.028C29.7074 43.6161 29.376 43.2905 28.9611 43.1229Z" fill="#3E61EE"/>
<path d="M25.3244 70.9063C25.1068 70.9482 24.8996 71.0326 24.7145 71.1545C24.5295 71.2765 24.3703 71.4337 24.2461 71.6172C24.1218 71.8007 24.0349 72.0069 23.9903 72.224C23.9457 72.441 23.9443 72.6648 23.9862 72.8824C24.3478 74.7607 24.8149 76.617 25.3854 78.4427C25.5191 78.8699 25.8169 79.2264 26.2135 79.434C26.61 79.6415 27.0727 79.6831 27.4999 79.5494C27.927 79.4158 28.2836 79.118 28.4912 78.7214C28.6987 78.3249 28.7402 77.8621 28.6066 77.435C28.074 75.7308 27.6378 73.998 27.3002 72.2448C27.2157 71.8053 26.96 71.4174 26.5895 71.1664C26.219 70.9154 25.7639 70.8218 25.3244 70.9063Z" fill="#3E61EE"/>
<path d="M43.8751 81.1861V89.3483C43.8751 92.442 46.372 95.0621 49.4585 95.0621H52.3554C53.1493 95.9059 53.9995 97.0208 54.8433 97.9475V111.937H58.2183V100.687C62.3569 103.46 67.2213 104.95 72.2026 104.971C76.9083 104.969 81.5176 103.638 85.5001 101.131V112.781H88.8751V98.5859C92.8267 95.0751 95.5625 90.4012 96.6888 85.2367L98.3951 77.4407C99.7487 77.4176 101.059 76.9605 102.133 76.1368C103.207 75.3131 103.989 74.1662 104.362 72.865C104.736 71.5638 104.682 70.1771 104.208 68.909C103.734 67.641 102.865 66.5585 101.73 65.8211C104.147 58.9405 104.838 51.5717 103.742 44.3617C102.944 39.1378 97.5899 31.062 96.6379 29.793C96.3128 29.3596 96.1347 29.1211 91.2787 27.446C91.2688 27.4426 91.2596 27.4392 91.2506 27.4361C90.9611 27.3429 90.7088 27.1601 90.5301 26.9141C90.3513 26.6681 90.2553 26.3716 90.2561 26.0676C90.2576 25.3219 90.0852 24.5862 89.7525 23.9188C89.4199 23.2514 88.9362 22.6708 88.3399 22.2232C83.2586 18.4053 77.0775 16.3358 70.7218 16.3242C53.4376 16.3259 39.3751 31.645 39.3751 50.4747C39.365 54.6875 40.0819 58.8704 41.4943 62.8393C39.6239 63.7081 38.079 65.1504 37.084 66.9569C36.089 68.7634 35.6956 70.84 35.961 72.8852C36.2264 74.9304 37.1368 76.8378 38.5599 78.3305C39.983 79.8232 41.8449 80.8235 43.8751 81.1861ZM49.4585 91.6871C48.2331 91.6871 47.2501 90.5798 47.2501 89.3483V82.0076L47.9352 85.2893C48.4051 87.5167 49.1777 89.6693 50.2314 91.6871H49.4585ZM98.3023 73.9684H97.0648C96.6741 73.9789 96.2985 74.1213 95.999 74.3724C95.6994 74.6234 95.4936 74.9684 95.415 75.3513L93.4595 84.5046C92.682 88.11 90.9963 91.457 88.5624 94.2281C86.1285 96.9993 83.027 99.1028 79.552 100.339C76.0771 101.575 72.344 101.903 68.7067 101.292C65.0694 100.681 61.6486 99.1503 58.7687 96.8461C58.0614 96.2746 57.3939 95.6246 56.7684 95.0621H63.8424C64.1647 95.6493 64.6381 96.1397 65.2135 96.4826C65.7889 96.8255 66.4455 97.0083 67.1154 97.0123C68.0958 97.0049 69.0334 96.6099 69.7237 95.9137C70.414 95.2174 70.8008 94.2763 70.7997 93.2959C70.799 92.8138 70.703 92.3366 70.5172 91.8918C70.3314 91.447 70.0595 91.0433 69.717 90.704C69.3746 90.3647 68.9684 90.0964 68.5219 89.9147C68.0754 89.7329 67.5974 89.6413 67.1154 89.645C65.6908 89.645 64.4556 90.2809 63.8424 91.6871H54.1258C52.7706 89.4985 51.7962 87.0959 51.2439 84.5816L50.0626 78.9465V63.6285C50.0659 63.342 49.9885 63.0604 49.8393 62.8158C49.6901 62.5712 49.4751 62.3735 49.2189 62.2453V56.9733C49.2397 53.9664 50.2175 51.0442 52.0105 48.6303L51.7501 52.7197C51.7344 52.9861 51.7815 53.2526 51.8877 53.4975C51.9939 53.7424 52.1562 53.9589 52.3616 54.1295C52.5669 54.3001 52.8094 54.4201 53.0696 54.4797C53.3298 54.5393 53.6004 54.5369 53.8595 54.4727C55.5982 54.0382 60.2233 52.0747 66.2187 43.2508C68.155 44.7262 70.4366 45.6814 72.8465 46.0256C75.2563 46.3697 77.7141 46.0914 79.9859 45.217C85.3193 43.1695 91.3375 45.5624 93.7064 50.6657C94.7967 53.0222 95.3557 55.5896 95.3439 58.186V66.4829C95.3439 67.4147 96.1342 68.0613 97.066 68.0613H98.3035C99.0867 68.0613 99.8378 68.3724 100.392 68.9262C100.945 69.48 101.257 70.2312 101.257 71.0144C101.257 71.7976 100.945 72.5488 100.392 73.1026C99.8378 73.6564 99.0867 73.9675 98.3035 73.9675L98.3023 73.9684ZM42.7501 50.4747C42.7501 33.5061 55.2975 19.7009 70.7207 19.7009C76.3528 19.7138 81.8292 21.5505 86.3301 24.9361C86.5038 25.0691 86.644 25.2408 86.7397 25.4375C86.8354 25.6342 86.8839 25.8505 86.8813 26.0693C86.8794 27.0839 87.1989 28.073 87.7941 28.8947C88.3893 29.7164 89.2295 30.3285 90.1942 30.6429C91.6949 31.1607 93.4795 31.8129 94.1508 32.1054C95.8841 34.5183 99.8211 41.1212 100.395 44.8719C101.379 51.3263 100.69 57.9338 98.7211 64.1111V58.186C98.7345 55.0986 98.069 52.046 96.7718 49.2442C93.6586 42.5381 85.7569 39.3853 78.7718 42.0659C76.9303 42.7749 74.9308 42.97 72.987 42.6303C71.0433 42.2906 69.2285 41.4289 67.7366 40.1374C67.4586 39.8968 67.1323 39.7184 66.7798 39.614C66.4272 39.5096 66.0564 39.4817 65.6922 39.5322C65.328 39.5826 64.9788 39.7102 64.6678 39.9064C64.3569 40.1026 64.0914 40.363 63.8891 40.6701C61.5331 44.24 58.2889 48.1932 55.3363 50.1263L55.7315 44.3938C55.7537 44.0727 55.6836 43.752 55.5295 43.4695C55.3755 43.1869 55.1438 42.9543 54.8619 42.7991C54.572 42.6443 54.2448 42.5734 53.9168 42.5944C53.5889 42.6153 53.2734 42.7274 53.0056 42.9178C50.7976 44.5391 48.9999 46.6547 47.7563 49.0954C46.5127 51.5361 45.8577 54.2341 45.8439 56.9733V61.8746H45.5604C45.2946 61.8746 45.0319 61.9216 44.7729 61.9427C43.425 58.2699 42.7402 54.387 42.7501 50.4747ZM45.5604 65.2496H46.6876V77.9059H45.5604C43.882 77.9059 42.2724 77.2392 41.0857 76.0524C39.8989 74.8657 39.2322 73.2561 39.2322 71.5778C39.2322 69.8994 39.8989 68.2898 41.0857 67.1031C42.2724 65.9163 43.882 65.2496 45.5604 65.2496Z" fill="#3E61EE"/>
<path d="M110.25 108.91V112.285C117.843 112.285 124.031 118.372 124.031 125.854V139.219H105.75V131.854C105.75 131.407 105.572 130.977 105.255 130.661C104.939 130.345 104.51 130.167 104.062 130.167C103.614 130.167 103.185 130.345 102.869 130.661C102.552 130.977 102.375 131.407 102.375 131.854V139.219H45.562V131.854C45.562 131.407 45.3843 130.977 45.0678 130.661C44.7513 130.345 44.3221 130.167 43.8745 130.167C43.427 130.167 42.9978 130.345 42.6813 130.661C42.3648 130.977 42.187 131.407 42.187 131.854V139.219H23.9058V125.854C23.8907 124.073 24.2291 122.308 24.9013 120.659C25.5736 119.011 26.5663 117.512 27.822 116.25C29.0777 114.988 30.5714 113.987 32.2165 113.307C33.8617 112.626 35.6255 112.279 37.4058 112.285V108.91C32.924 108.928 28.632 110.721 25.4693 113.897C22.3066 117.072 20.5308 121.372 20.5308 125.854V140.906C20.5241 141.125 20.5612 141.342 20.6398 141.546C20.7185 141.75 20.8372 141.936 20.9888 142.093C21.1404 142.25 21.322 142.376 21.5228 142.462C21.7237 142.548 21.9397 142.593 22.1581 142.594H125.593C126.525 142.594 127.406 141.838 127.406 140.906V125.854C127.406 116.511 119.812 108.91 110.25 108.91Z" fill="#3E61EE"/>
<path d="M128.838 5.34375C128.484 5.34372 128.138 5.45529 127.851 5.66262C127.563 5.86995 127.349 6.16253 127.237 6.49884C126.774 7.88419 125.996 9.14344 124.965 10.1779C123.933 11.2124 122.676 11.9939 121.292 12.4613C120.957 12.5736 120.665 12.7885 120.458 13.0757C120.252 13.3629 120.14 13.7078 120.14 14.0617C120.14 14.4155 120.252 14.7604 120.458 15.0476C120.665 15.3348 120.957 15.5497 121.292 15.662C122.676 16.1294 123.933 16.9109 124.965 17.9454C125.996 18.9799 126.774 20.2391 127.237 21.6245C127.349 21.9608 127.563 22.2533 127.851 22.4606C128.138 22.6679 128.484 22.7795 128.838 22.7795C129.192 22.7795 129.538 22.6679 129.825 22.4606C130.113 22.2533 130.327 21.9608 130.439 21.6245C130.902 20.2391 131.68 18.9799 132.711 17.9454C133.743 16.9109 135 16.1294 136.384 15.662C136.719 15.5497 137.011 15.3348 137.218 15.0476C137.424 14.7604 137.536 14.4155 137.536 14.0617C137.536 13.7078 137.424 13.3629 137.218 13.0757C137.011 12.7885 136.719 12.5736 136.384 12.4613C135 11.9939 133.743 11.2124 132.711 10.1779C131.68 9.14344 130.902 7.88419 130.439 6.49884C130.327 6.16257 130.113 5.87003 129.825 5.6627C129.538 5.45537 129.193 5.34378 128.838 5.34375ZM128.838 17.3509C127.952 16.0655 126.84 14.9513 125.556 14.0625C126.84 13.1737 127.952 12.0595 128.838 10.7741C129.724 12.0596 130.836 13.1737 132.12 14.0625C130.836 14.9513 129.724 16.0654 128.838 17.3509Z" fill="#3E61EE"/>
<path d="M21.7867 104.307C21.8653 103.962 21.8333 103.601 21.6954 103.275C21.5574 102.949 21.3205 102.675 21.0181 102.491C19.7713 101.727 18.7181 100.686 17.9407 99.4474C17.1634 98.2092 16.683 96.808 16.5372 95.3532C16.5025 95.0005 16.3576 94.6677 16.1231 94.402C15.8886 94.1362 15.5763 93.9511 15.2307 93.8728C14.885 93.7945 14.5235 93.827 14.1973 93.9657C13.8712 94.1044 13.597 94.3423 13.4137 94.6456C12.6564 95.8934 11.62 96.9485 10.3861 97.7281C9.15218 98.5077 7.75428 98.9905 6.30225 99.1386C5.94981 99.1733 5.61721 99.318 5.35156 99.5522C5.08591 99.7864 4.90068 100.098 4.8221 100.444C4.74352 100.789 4.77556 101.15 4.91371 101.476C5.05185 101.802 5.28908 102.077 5.59181 102.26C6.83864 103.024 7.89194 104.066 8.66933 105.304C9.44672 106.542 9.92713 107.943 10.073 109.398C10.1077 109.751 10.2526 110.084 10.4871 110.349C10.7216 110.615 11.0338 110.8 11.3795 110.879C11.7252 110.957 12.0867 110.924 12.4129 110.786C12.739 110.647 13.0132 110.409 13.1965 110.106C13.9539 108.858 14.9902 107.803 16.2241 107.023C17.458 106.244 18.8559 105.761 20.3079 105.613C20.6602 105.578 20.9926 105.433 21.258 105.198C21.5234 104.964 21.7084 104.652 21.7867 104.307ZM12.5797 105.581C11.9994 104.13 11.1608 102.796 10.1047 101.644C11.552 101.063 12.8819 100.225 14.0299 99.169C14.6103 100.62 15.4488 101.954 16.5049 103.106C15.0576 103.687 13.7277 104.526 12.5797 105.581Z" fill="#3E61EE"/>
<path d="M136.688 125.227C136.24 125.227 135.811 125.404 135.494 125.721C135.178 126.037 135 126.467 135 126.914V126.961C135 127.409 135.178 127.838 135.494 128.155C135.811 128.471 136.24 128.649 136.688 128.649C137.135 128.649 137.564 128.471 137.881 128.155C138.197 127.838 138.375 127.409 138.375 126.961V126.914C138.375 126.467 138.197 126.037 137.881 125.721C137.564 125.404 137.135 125.227 136.688 125.227Z" fill="#3E61EE"/>
<path d="M136.81 121.916C137.257 121.916 137.687 121.738 138.003 121.422C138.32 121.105 138.497 120.676 138.497 120.229C138.499 117.019 137.589 113.876 135.875 111.163C134.16 108.45 131.711 106.279 128.812 104.903C128.612 104.808 128.395 104.753 128.174 104.742C127.952 104.731 127.731 104.764 127.522 104.838C127.314 104.913 127.122 105.028 126.957 105.177C126.793 105.325 126.66 105.505 126.565 105.705C126.47 105.905 126.415 106.122 126.404 106.344C126.393 106.565 126.426 106.786 126.5 106.995C126.575 107.204 126.69 107.396 126.838 107.56C126.987 107.724 127.167 107.858 127.367 107.953C129.69 109.054 131.652 110.793 133.025 112.966C134.398 115.139 135.125 117.658 135.122 120.229C135.122 120.676 135.3 121.105 135.617 121.422C135.933 121.738 136.362 121.916 136.81 121.916Z" fill="#3E61EE"/>
<path d="M133.885 32.0625C135.591 32.0625 136.975 30.6774 136.975 28.9688C136.975 27.2601 135.591 25.875 133.885 25.875C132.179 25.875 130.796 27.2601 130.796 28.9688C130.796 30.6774 132.179 32.0625 133.885 32.0625Z" fill="#3E61EE"/>
<path d="M136.97 135.844C138.212 135.844 139.218 134.836 139.218 133.594C139.218 132.351 138.212 131.344 136.97 131.344C135.728 131.344 134.722 132.351 134.722 133.594C134.722 134.836 135.728 135.844 136.97 135.844Z" fill="#3E61EE"/>
<path d="M11.9025 24.1875C13.6088 24.1875 14.992 22.8024 14.992 21.0938C14.992 19.3851 13.6088 18 11.9025 18C10.1962 18 8.81299 19.3851 8.81299 21.0938C8.81299 22.8024 10.1962 24.1875 11.9025 24.1875Z" fill="#3E61EE"/>
<path d="M11.9025 124.594C13.6088 124.594 14.992 123.209 14.992 121.5C14.992 119.791 13.6088 118.406 11.9025 118.406C10.1962 118.406 8.81299 119.791 8.81299 121.5C8.81299 123.209 10.1962 124.594 11.9025 124.594Z" fill="#3E61EE"/>
<path d="M121.664 52.2746C121.224 52.3581 120.836 52.6129 120.584 52.9829C120.332 53.3528 120.238 53.8076 120.321 54.2473C120.57 55.5604 120.767 56.9034 120.904 58.2385C120.927 58.4589 120.993 58.6727 121.098 58.8677C121.204 59.0627 121.347 59.235 121.518 59.3748C121.69 59.5146 121.888 59.6192 122.101 59.6826C122.313 59.7459 122.536 59.7669 122.756 59.7441C122.977 59.7214 123.19 59.6555 123.385 59.5502C123.58 59.4448 123.753 59.3021 123.892 59.1302C124.032 58.9582 124.137 58.7604 124.2 58.5481C124.264 58.3357 124.284 58.113 124.262 57.8925C124.114 56.4624 123.904 55.0238 123.637 53.6175C123.553 53.178 123.298 52.7897 122.928 52.5379C122.558 52.2861 122.104 52.1914 121.664 52.2746Z" fill="#3E61EE"/>
<path d="M106.991 26.9561C106.677 27.2749 106.502 27.7054 106.506 28.1529C106.509 28.6005 106.69 29.0284 107.009 29.3425C110.532 32.8142 113.493 36.814 115.785 41.1978C116.458 42.487 117.08 43.8255 117.633 45.1761C117.713 45.3874 117.834 45.5807 117.989 45.7444C118.145 45.9082 118.331 46.039 118.538 46.1293C118.745 46.2196 118.968 46.2674 119.194 46.27C119.42 46.2725 119.644 46.2298 119.853 46.1442C120.062 46.0586 120.251 45.932 120.41 45.7718C120.569 45.6117 120.695 45.4212 120.779 45.2117C120.863 45.0022 120.904 44.7779 120.9 44.5522C120.896 44.3265 120.847 44.1038 120.755 43.8975C120.163 42.4505 119.497 41.0161 118.775 39.6352C116.322 34.9401 113.151 30.6564 109.378 26.9387C109.059 26.6245 108.628 26.4499 108.181 26.4532C107.733 26.4564 107.305 26.6374 106.991 26.9561Z" fill="#3E61EE"/>
<path d="M73.8757 1.40644C65.7754 1.41803 57.7568 3.02497 50.2776 6.13551C42.7984 9.24606 36.0051 13.7993 30.2856 19.5352C24.5661 25.2712 20.0324 32.0775 16.9433 39.5656C13.8542 47.0537 12.2703 55.0769 12.2819 63.1771C12.2517 71.2856 13.8273 79.3199 16.9177 86.8165C20.0081 94.3131 24.5522 101.124 30.2878 106.855C31.9396 108.512 33.7495 110.059 35.437 111.501V119.076C35.437 119.718 35.5641 120.414 36.1328 120.821C46.9337 128.542 59.8413 132.767 73.117 132.927C86.3926 133.088 99.3985 129.175 110.383 121.718C110.992 121.303 111.093 120.56 111.093 119.886V112.437C113.341 110.727 115.466 108.861 117.452 106.854C129.001 95.2507 135.483 79.545 135.48 63.1739C135.477 46.8028 128.989 31.0995 117.436 19.5004C111.736 13.7491 104.95 9.18782 97.4717 6.08164C89.9938 2.97547 81.9731 1.38629 73.8757 1.40644ZM107.718 119.46C97.4516 126.191 85.4099 129.704 73.1345 129.552C60.8592 129.399 48.9086 125.587 38.8122 118.603V114.023C49.2185 121.123 61.1767 124.948 73.8647 124.948C85.8943 124.953 97.6625 121.438 107.718 114.836V119.46ZM107.718 110.697C97.6403 117.918 85.5171 121.727 73.1201 121.568C60.723 121.409 48.7017 117.29 38.8122 109.813V105.732C49.0728 112.299 60.9704 115.855 73.1519 115.995C85.3333 116.135 97.3096 112.854 107.718 106.524V110.697ZM111.093 108.082V103.729C111.086 103.609 111.066 103.49 111.034 103.374L110.967 103.112C110.907 102.842 110.783 102.591 110.604 102.38C110.425 102.169 110.197 102.005 109.94 101.902C109.683 101.8 109.405 101.761 109.13 101.791C108.855 101.82 108.592 101.917 108.363 102.072C98.029 109.059 85.8152 112.739 73.3417 112.623C60.8682 112.508 48.7246 108.602 38.5223 101.425C38.361 101.217 38.1535 101.051 37.9164 100.938C37.6793 100.825 37.419 100.768 37.1564 100.774C36.8938 100.779 36.636 100.846 36.4036 100.968C36.1712 101.09 35.9706 101.265 35.8178 101.479L35.7438 101.537C35.5005 101.944 35.3932 102.419 35.4372 102.891V107.055C29.2129 101.564 24.2274 94.8122 20.8115 87.2473C17.3957 79.6823 15.6276 71.4775 15.6246 63.1771C15.6246 30.9776 41.7575 4.78144 73.8594 4.78144C105.961 4.78144 132.106 30.9776 132.106 63.1771C132.136 71.7492 130.267 80.2216 126.634 87.9858C123.001 95.7499 117.694 102.613 111.093 108.083V108.082Z" fill="#968B82"/>
</svg>
