<svg viewBox="0 0 144 144" fill="none" xmlns="http://www.w3.org/2000/svg">
<path d="M14.3438 72C14.3378 54.6992 20.8423 38.0296 32.5642 25.3051C44.2862 12.5805 60.3672 4.73286 77.6104 3.32213C75.7597 3.17307 73.8896 3.09694 72 3.09375C62.9502 3.09058 53.9885 4.87072 45.627 8.33246C37.2654 11.7942 29.668 16.8697 23.2688 23.2688C16.8697 29.668 11.7942 37.2654 8.33246 45.627C4.87072 53.9885 3.09058 62.9502 3.09375 72C3.09375 110.056 33.9441 140.906 72 140.906C73.8938 140.906 75.7688 140.83 77.625 140.677C42.2004 137.814 14.3438 108.162 14.3438 72Z" fill="#3E61EE" fill-opacity="0.2"/>
<path d="M83.7491 26.5218C83.749 27.8006 83.8667 29.0767 84.1007 30.3339C84.1728 30.7208 84.378 31.0703 84.6806 31.3219C84.9832 31.5736 85.3642 31.7116 85.7578 31.712C85.8623 31.7122 85.9666 31.7027 86.0694 31.6839C86.2874 31.6433 86.4952 31.5602 86.681 31.4393C86.8668 31.3183 87.027 31.162 87.1523 30.9792C87.2777 30.7964 87.3658 30.5906 87.4117 30.3737C87.4575 30.1568 87.4601 29.933 87.4194 29.7151C87.2231 28.662 87.1243 27.593 87.1241 26.5218C87.1124 22.8492 88.2769 19.2693 90.4472 16.3065C92.6174 13.3437 95.6793 11.1537 99.1844 10.0571C99.6112 9.92242 99.967 9.62368 100.174 9.22661C100.38 8.82955 100.42 8.3667 100.286 7.93989C100.151 7.51307 99.8523 7.15725 99.4552 6.9507C99.0582 6.74415 98.5953 6.7038 98.1685 6.83851C93.978 8.14926 90.3173 10.7674 87.7225 14.3093C85.1278 17.8513 83.7353 22.1311 83.7491 26.5218V26.5218Z" fill="#3E61EE"/>
<path d="M118.262 41.7976C118.426 41.6485 118.559 41.4687 118.653 41.2682C118.748 41.0677 118.802 40.8506 118.812 40.6292C118.823 40.4079 118.79 40.1866 118.715 39.978C118.64 39.7695 118.525 39.5777 118.376 39.4137C118.226 39.2497 118.047 39.1167 117.846 39.0222C117.646 38.9277 117.429 38.8736 117.207 38.863C116.986 38.8525 116.765 38.8856 116.556 38.9605C116.347 39.0355 116.156 39.1508 115.992 39.2998C114.091 41.0256 111.83 42.3059 109.372 43.0474C106.914 43.7889 104.322 43.9731 101.784 43.5864C99.2463 43.1997 96.8266 42.252 94.7012 40.8122C92.5758 39.3724 90.7982 37.4768 89.4979 35.2633C89.2697 34.88 88.8991 34.6026 88.467 34.4918C88.0349 34.3811 87.5765 34.4459 87.192 34.6721C86.8075 34.8983 86.5283 35.2676 86.4154 35.6992C86.3024 36.1307 86.3649 36.5894 86.5892 36.975C88.144 39.621 90.2692 41.8869 92.8102 43.6079C95.3512 45.3289 98.244 46.4617 101.278 46.9236C104.312 47.3856 107.411 47.1652 110.349 46.2784C113.287 45.3917 115.99 43.8609 118.262 41.7976H118.262Z" fill="#3E61EE"/>
<path d="M123.285 24.3399C123.063 24.3455 122.845 24.3947 122.642 24.4848C122.439 24.5749 122.256 24.7041 122.103 24.8649C121.951 25.0258 121.831 25.2152 121.752 25.4223C121.672 25.6294 121.634 25.8501 121.64 26.0719C121.644 26.222 121.646 26.3722 121.646 26.5233C121.651 28.8311 121.19 31.1162 120.291 33.2418C120.201 33.4464 120.153 33.6667 120.15 33.8899C120.146 34.1131 120.187 34.3349 120.269 34.5423C120.352 34.7497 120.475 34.9386 120.631 35.0981C120.788 35.2576 120.974 35.3846 121.179 35.4716C121.385 35.5585 121.606 35.6039 121.829 35.6049C122.052 35.6059 122.274 35.5626 122.48 35.4775C122.687 35.3924 122.874 35.2672 123.032 35.1091C123.189 34.951 123.314 34.7632 123.399 34.5566C124.475 32.0149 125.027 29.2821 125.022 26.5219C125.022 26.3419 125.02 26.1623 125.015 25.9833C125.01 25.7617 124.96 25.5435 124.87 25.341C124.78 25.1385 124.651 24.9558 124.49 24.8032C124.33 24.6506 124.141 24.5311 123.934 24.4516C123.727 24.3722 123.506 24.3342 123.285 24.3399V24.3399Z" fill="#3E61EE"/>
<path d="M96.8408 26.8662C96.8427 28.6838 97.5655 30.4265 98.8508 31.7117C100.136 32.997 101.879 33.7198 103.696 33.7217C104.144 33.7217 104.573 33.5439 104.89 33.2274C105.206 32.911 105.384 32.4817 105.384 32.0342C105.384 31.5866 105.206 31.1574 104.89 30.8409C104.573 30.5245 104.144 30.3467 103.696 30.3467C102.773 30.3467 101.888 29.98 101.235 29.3273C100.583 28.6746 100.216 27.7893 100.216 26.8662C100.216 25.9431 100.583 25.0579 101.235 24.4051C101.888 23.7524 102.773 23.3857 103.696 23.3857C104.144 23.3857 104.573 23.208 104.89 22.8915C105.206 22.575 105.384 22.1458 105.384 21.6982C105.384 21.2507 105.206 20.8215 104.89 20.505C104.573 20.1885 104.144 20.0107 103.696 20.0107C101.879 20.0126 100.136 20.7355 98.8508 22.0207C97.5655 23.306 96.8427 25.0486 96.8408 26.8662Z" fill="#3E61EE"/>
<path d="M80.957 65.0742C81.8798 65.0752 82.7645 65.4422 83.417 66.0947C84.0695 66.7472 84.4365 67.6319 84.4375 68.5547C84.4375 69.0023 84.6153 69.4315 84.9318 69.7479C85.2482 70.0644 85.6775 70.2422 86.125 70.2422C86.5726 70.2422 87.0018 70.0644 87.3183 69.7479C87.6347 69.4315 87.8125 69.0023 87.8125 68.5547C87.8125 67.1988 87.4104 65.8734 86.6572 64.746C85.9039 63.6186 84.8332 62.7399 83.5805 62.2211C82.3278 61.7022 80.9494 61.5664 79.6196 61.8309C78.2898 62.0955 77.0682 62.7484 76.1095 63.7071C75.1507 64.6659 74.4978 65.8874 74.2333 67.2173C73.9688 68.5471 74.1045 69.9255 74.6234 71.1782C75.1423 72.4308 76.021 73.5015 77.1483 74.2548C78.2757 75.0081 79.6012 75.4102 80.957 75.4102C81.4046 75.4102 81.8338 75.2324 82.1503 74.9159C82.4668 74.5994 82.6445 74.1702 82.6445 73.7227C82.6445 73.2751 82.4668 72.8459 82.1503 72.5294C81.8338 72.213 81.4046 72.0352 80.957 72.0352C80.034 72.0352 79.1487 71.6685 78.496 71.0158C77.8433 70.363 77.4766 69.4778 77.4766 68.5547C77.4766 67.6316 77.8433 66.7463 78.496 66.0936C79.1487 65.4409 80.034 65.0742 80.957 65.0742Z" fill="#3E61EE"/>
<path d="M96.4258 68.5545C96.4315 66.2548 95.9199 63.9834 94.9287 61.9083C94.8346 61.7063 94.7014 61.525 94.5368 61.3748C94.3722 61.2246 94.1796 61.1085 93.9699 61.0332C93.7602 60.9578 93.5377 60.9247 93.3152 60.9358C93.0927 60.9469 92.8745 61.002 92.6734 61.0978C92.4723 61.1936 92.2921 61.3283 92.1433 61.4941C91.9945 61.66 91.88 61.8536 91.8064 62.0639C91.7328 62.2742 91.7016 62.497 91.7146 62.7194C91.7275 62.9418 91.7844 63.1595 91.8819 63.3598C92.6562 64.9818 93.0557 66.7572 93.0508 68.5545C93.0507 70.5054 92.5787 72.4273 91.675 74.1563C90.7713 75.8853 89.4628 77.37 87.861 78.4837C86.2592 79.5974 84.4118 80.3071 82.4764 80.5522C80.5409 80.7973 78.5749 80.5705 76.7461 79.8912C74.9172 79.2119 73.2799 78.1003 71.9737 76.6511C70.6676 75.202 69.7314 73.4584 69.2451 71.5691C68.7587 69.6797 68.7367 67.7008 69.1808 65.8011C69.6249 63.9014 70.5221 62.1374 71.7956 60.6595C72.088 60.3207 72.2337 59.8795 72.2008 59.4332C72.168 58.9868 71.9591 58.5718 71.6202 58.2794C71.2814 57.9871 70.8402 57.8413 70.3939 57.8742C69.9475 57.9071 69.5325 58.1159 69.2402 58.4548C67.6109 60.345 66.4632 62.6012 65.8948 65.0311C65.3265 67.4609 65.3544 69.9922 65.9763 72.4089C66.5981 74.8256 67.7954 77.056 69.466 78.9097C71.1365 80.7635 73.2308 82.1855 75.57 83.0546C77.9092 83.9236 80.4239 84.2138 82.8996 83.9005C85.3753 83.5871 87.7384 82.6794 89.7873 81.2549C91.8362 79.8304 93.51 77.9314 94.666 75.7198C95.822 73.5083 96.4257 71.0499 96.4258 68.5545V68.5545Z" fill="#3E61EE"/>
<path d="M89.8139 59.6841C90.1602 59.6843 90.4983 59.5779 90.7821 59.3794C91.0659 59.1809 91.2818 58.8999 91.4004 58.5745C91.519 58.2491 91.5346 57.895 91.4451 57.5605C91.3556 57.2259 91.1653 56.9269 90.9001 56.7042C88.1134 54.368 84.5934 53.087 80.957 53.0859C80.5095 53.0859 80.0803 53.2637 79.7638 53.5802C79.4473 53.8967 79.2695 54.3259 79.2695 54.7734C79.2695 55.221 79.4473 55.6502 79.7638 55.9667C80.0803 56.2831 80.5095 56.4609 80.957 56.4609C83.7995 56.4616 86.5511 57.4627 88.7294 59.2889C89.0329 59.5444 89.4171 59.6844 89.8139 59.6841V59.6841Z" fill="#3E61EE"/>
<path d="M40.7984 122.231C38.0909 124.32 34.7646 125.448 31.3447 125.437C30.8972 125.437 30.468 125.615 30.1515 125.932C29.835 126.248 29.6572 126.677 29.6572 127.125C29.6572 127.572 29.835 128.002 30.1515 128.318C30.468 128.634 30.8972 128.812 31.3447 128.812C35.5082 128.826 39.5576 127.452 42.8538 124.909C43.2075 124.636 43.4386 124.234 43.4963 123.791C43.5539 123.347 43.4335 122.9 43.1614 122.545C42.8892 122.191 42.4876 121.959 42.0446 121.9C41.6016 121.841 41.1535 121.961 40.7984 122.232V122.231Z" fill="#3E61EE"/>
<path d="M46.6646 101.834C46.4594 101.918 46.2726 102.041 46.1151 102.197C45.9575 102.353 45.8322 102.538 45.7463 102.742C45.6603 102.947 45.6155 103.166 45.6143 103.387C45.6131 103.609 45.6555 103.829 45.7393 104.034C47.1653 107.55 47.2618 111.466 46.0107 115.049C45.9343 115.258 45.9003 115.481 45.9106 115.704C45.921 115.927 45.9755 116.146 46.071 116.348C46.1665 116.55 46.3011 116.73 46.4669 116.88C46.6328 117.029 46.8267 117.144 47.0374 117.218C47.2481 117.292 47.4713 117.324 47.6942 117.311C47.9171 117.298 48.1352 117.241 48.3359 117.143C48.5365 117.045 48.7158 116.908 48.8633 116.741C49.0108 116.573 49.1235 116.378 49.195 116.166C50.7194 111.806 50.6019 107.039 48.8645 102.759C48.7808 102.554 48.6575 102.367 48.5017 102.21C48.3458 102.052 48.1605 101.927 47.9562 101.841C47.7519 101.755 47.5327 101.71 47.3111 101.709C47.0895 101.708 46.8698 101.75 46.6646 101.834V101.834Z" fill="#3E61EE"/>
<path d="M38.4573 92.3676C38.0426 92.1993 37.578 92.2025 37.1657 92.3767C36.7534 92.5508 36.4272 92.8816 36.2588 93.2963C36.0904 93.711 36.0936 94.1756 36.2678 94.5879C36.4419 95.0002 36.7728 95.3265 37.1874 95.4949C39.2011 96.3106 41.0202 97.5416 42.5261 99.1075C42.837 99.4295 43.263 99.6149 43.7105 99.6228C44.1579 99.6307 44.5902 99.4605 44.9123 99.1497C45.2343 98.8389 45.4196 98.4129 45.4275 97.9654C45.4354 97.5179 45.2653 97.0856 44.9544 96.7636C43.1216 94.8582 40.9078 93.3603 38.4573 92.3676V92.3676Z" fill="#3E61EE"/>
<path d="M26.306 93.3338C26.1346 92.9205 25.8059 92.5921 25.3923 92.4211C24.9787 92.25 24.5142 92.2503 24.1008 92.4218C20.7328 93.8217 17.8407 96.1642 15.7719 99.168C13.703 102.172 12.5454 105.709 12.4382 109.355C12.4255 109.802 12.5911 110.236 12.8985 110.561C13.2059 110.887 13.6299 111.077 14.0773 111.089H14.126C14.5651 111.089 14.9868 110.917 15.3016 110.611C15.6164 110.305 15.7994 109.888 15.8118 109.449C15.9001 106.454 16.8513 103.548 18.5511 101.08C20.2509 98.6128 22.627 96.6883 25.394 95.5383C25.8071 95.3668 26.1353 95.0382 26.3063 94.6249C26.4774 94.2115 26.4773 93.7471 26.306 93.3338V93.3338Z" fill="#3E61EE"/>
<path d="M41.6494 109.898C41.6494 109.451 41.4716 109.022 41.1552 108.705C40.8387 108.389 40.4095 108.211 39.9619 108.211C39.5144 108.211 39.0851 108.389 38.7687 108.705C38.4522 109.022 38.2744 109.451 38.2744 109.898C38.2744 111.268 37.8682 112.607 37.1072 113.746C36.3462 114.885 35.2645 115.773 33.999 116.297C32.7335 116.821 31.341 116.958 29.9975 116.691C28.654 116.424 27.42 115.764 26.4514 114.796C25.4828 113.827 24.8232 112.593 24.5559 111.25C24.2887 109.906 24.4259 108.514 24.95 107.248C25.4742 105.983 26.3619 104.901 27.5009 104.14C28.6398 103.379 29.9788 102.973 31.3486 102.973C31.7962 102.973 32.2254 102.795 32.5419 102.478C32.8583 102.162 33.0361 101.733 33.0361 101.285C33.0361 100.838 32.8583 100.408 32.5419 100.092C32.2254 99.7754 31.7962 99.5977 31.3486 99.5977C29.3113 99.5977 27.3198 100.202 25.6258 101.334C23.9319 102.466 22.6116 104.074 21.832 105.956C21.0523 107.839 20.8483 109.91 21.2458 111.908C21.6432 113.906 22.6243 115.742 24.0649 117.182C25.5055 118.623 27.3409 119.604 29.3391 120.001C31.3372 120.399 33.4084 120.195 35.2906 119.415C37.1728 118.635 38.7816 117.315 39.9134 115.621C41.0453 113.927 41.6494 111.936 41.6494 109.898V109.898Z" fill="#3E61EE"/>
<path d="M17.0627 57.0329C17.1977 57.2087 17.3659 57.3562 17.5578 57.467C17.7498 57.5778 17.9616 57.6497 18.1813 57.6786C18.4011 57.7075 18.6243 57.6928 18.8384 57.6355C19.0524 57.5781 19.2531 57.4791 19.4289 57.3442C19.6047 57.2093 19.7522 57.0411 19.863 56.8491C19.9738 56.6572 20.0457 56.4453 20.0746 56.2256C20.1035 56.0059 20.0889 55.7826 20.0315 55.5686C19.9741 55.3545 19.8752 55.1539 19.7402 54.978C17.2783 51.7855 15.7333 47.9822 15.2715 43.9772C16.7225 45.623 18.5064 46.9419 20.5052 47.8467C22.5041 48.7515 24.6722 49.2216 26.8663 49.2259C26.9962 49.2259 27.1273 49.2242 27.2578 49.2209C29.722 49.1569 32.1353 48.5053 34.2969 47.3203C36.4584 46.1353 38.3057 44.4513 39.685 42.4082C41.0643 40.3652 41.9357 38.0222 42.2267 35.5744C42.5177 33.1266 42.2198 30.6447 41.358 28.3352C41.2832 28.1239 41.1672 27.9297 41.0165 27.7637C40.8659 27.5978 40.6837 27.4635 40.4806 27.3687C40.2775 27.274 40.0576 27.2206 39.8337 27.2118C39.6097 27.2029 39.3863 27.2388 39.1763 27.3172C38.9664 27.3957 38.7742 27.5152 38.6109 27.6687C38.4477 27.8222 38.3167 28.0068 38.2255 28.2115C38.1343 28.4162 38.0848 28.6371 38.08 28.8611C38.0751 29.0852 38.1149 29.308 38.197 29.5165C38.7879 31.0982 39.0411 32.7861 38.9403 34.4716C38.8395 36.1571 38.387 37.8028 37.6119 39.3028C36.8367 40.8029 35.7561 42.124 34.4395 43.1813C33.123 44.2385 31.5997 45.0084 29.9677 45.4414C28.3357 45.8744 26.6311 45.9609 24.9636 45.6954C23.2961 45.4299 21.7026 44.8183 20.2858 43.8998C18.869 42.9814 17.6601 41.7765 16.737 40.3626C15.8139 38.9488 15.197 37.3574 14.9261 35.6908C14.8552 35.2488 14.6117 34.8532 14.2491 34.5908C13.8865 34.3284 13.4346 34.2208 12.9926 34.2917C12.5507 34.3625 12.155 34.6061 11.8927 34.9687C11.6303 35.3312 11.5227 35.7832 11.5936 36.2251C11.6866 36.7983 11.8122 37.3656 11.9699 37.9244C11.8194 39.056 11.7432 40.1962 11.7418 41.3377C11.7235 47.0151 13.5956 52.5371 17.0627 57.0329V57.0329Z" fill="#3E61EE"/>
<path d="M61.6638 39.6489C61.2162 39.6489 60.787 39.8267 60.4706 40.1432C60.1541 40.4596 59.9763 40.8889 59.9763 41.3364C59.975 45.2233 58.9641 49.0431 57.0425 52.4217C55.1209 55.8003 52.3545 58.6218 49.0145 60.6097C45.6745 62.5976 41.8753 63.6837 37.9892 63.7616C34.1032 63.8396 30.2635 62.9067 26.8465 61.0543C26.6518 60.9484 26.4381 60.8819 26.2178 60.8586C25.9974 60.8352 25.7746 60.8555 25.562 60.9183C25.3495 60.9811 25.1514 61.0851 24.9791 61.2245C24.8067 61.3638 24.6635 61.5357 24.5576 61.7304C24.4518 61.9251 24.3852 62.1387 24.3619 62.3591C24.3386 62.5795 24.3589 62.8023 24.4217 63.0149C24.4845 63.2274 24.5885 63.4255 24.7278 63.5978C24.8672 63.7701 25.0391 63.9133 25.2338 64.0192C29.1649 66.1511 33.5825 67.2251 38.0536 67.136C42.5247 67.0468 46.8959 65.7976 50.7389 63.5107C54.5819 61.2238 57.7649 57.9777 59.9759 54.0905C62.1868 50.2033 63.35 45.8084 63.3513 41.3364C63.3513 40.8889 63.1735 40.4596 62.857 40.1432C62.5406 39.8267 62.1114 39.6489 61.6638 39.6489V39.6489Z" fill="#3E61EE"/>
<path d="M56.3943 29.1721C56.5147 29.3581 56.6705 29.5187 56.853 29.6445C57.0354 29.7704 57.2408 29.8591 57.4575 29.9055C57.6742 29.952 57.8979 29.9553 58.1159 29.9153C58.3338 29.8753 58.5418 29.7928 58.7279 29.6724C58.9139 29.552 59.0745 29.3962 59.2003 29.2138C59.3262 29.0314 59.4149 28.826 59.4613 28.6093C59.5078 28.3926 59.5111 28.1689 59.4711 27.9509C59.4311 27.7329 59.3486 27.525 59.2282 27.3389C55.9322 22.2404 50.9457 18.4658 45.1439 16.6776C39.3421 14.8894 33.0958 15.202 27.5015 17.5604C27.279 17.6544 27.0793 17.7952 26.9161 17.9732C26.7529 18.1513 26.63 18.3624 26.5557 18.5923C26.1317 18.6561 25.7478 18.8788 25.4822 19.2154C25.2165 19.5519 25.0889 19.977 25.1252 20.4042C25.1616 20.8314 25.3593 21.2288 25.678 21.5156C25.9968 21.8023 26.4127 21.957 26.8414 21.9482C30.1807 21.8658 32.8883 22.8349 35.1192 24.9168C35.4471 25.2176 35.8805 25.3768 36.3252 25.3597C36.7698 25.3425 37.1897 25.1504 37.4934 24.8252C37.7972 24.4999 37.9601 24.0679 37.9469 23.6231C37.9336 23.1783 37.7452 22.7567 37.4226 22.4502C36.0287 21.1355 34.3811 20.1193 32.5806 19.4639C37.0665 18.445 41.7571 18.8299 46.0169 20.5665C50.2766 22.3031 53.8994 25.3073 56.3943 29.1721V29.1721Z" fill="#3E61EE"/>
<path d="M88.1573 104.386C88.1568 101.981 88.7535 99.6128 89.8941 97.4952C90.0017 97.3001 90.0697 97.0856 90.0941 96.8641C90.1184 96.6426 90.0987 96.4185 90.036 96.2047C89.9732 95.9909 89.8688 95.7916 89.7286 95.6183C89.5885 95.4451 89.4154 95.3013 89.2194 95.1953C89.0234 95.0893 88.8083 95.0232 88.5866 95.0008C88.3649 94.9783 88.141 95 87.9277 95.0646C87.7145 95.1291 87.5161 95.2353 87.3441 95.3769C87.172 95.5186 87.0298 95.6929 86.9255 95.8898C85.099 99.2772 84.4135 103.163 84.9708 106.971C85.5282 110.779 87.2986 114.306 90.0192 117.028C90.3366 117.34 90.7644 117.514 91.2096 117.512C91.6547 117.51 92.0812 117.333 92.396 117.018C92.7107 116.703 92.8884 116.277 92.8902 115.832C92.892 115.386 92.7178 114.959 92.4056 114.641C91.0547 113.298 89.9836 111.699 89.2544 109.939C88.5252 108.179 88.1523 106.291 88.1573 104.386Z" fill="#3E61EE"/>
<path d="M117.454 111.199C117.264 111.085 117.053 111.011 116.834 110.979C116.614 110.947 116.391 110.959 116.176 111.013C115.961 111.068 115.759 111.164 115.582 111.297C115.404 111.43 115.255 111.596 115.141 111.786C113.851 113.946 112.023 115.736 109.837 116.981C107.65 118.226 105.179 118.884 102.663 118.891C100.85 118.894 99.0526 118.556 97.3649 117.894C97.1584 117.812 96.9377 117.771 96.7155 117.775C96.4932 117.778 96.2739 117.825 96.07 117.914C95.8661 118.002 95.6816 118.13 95.5273 118.29C95.3729 118.45 95.2516 118.638 95.1704 118.845C95.0892 119.052 95.0497 119.273 95.054 119.495C95.0584 119.718 95.1067 119.937 95.196 120.14C95.2853 120.344 95.4139 120.528 95.5745 120.681C95.735 120.835 95.9244 120.955 96.1316 121.036C100.083 122.582 104.455 122.674 108.468 121.296C112.481 119.918 115.874 117.16 118.042 113.512C118.156 113.322 118.231 113.111 118.262 112.891C118.294 112.672 118.282 112.448 118.228 112.234C118.173 112.019 118.077 111.817 117.944 111.639C117.811 111.462 117.645 111.312 117.454 111.199V111.199Z" fill="#3E61EE"/>
<path d="M102.663 86.5054C102.216 86.5054 101.786 86.6832 101.47 86.9996C101.153 87.3161 100.976 87.7453 100.976 88.1929C100.976 88.6404 101.153 89.0696 101.47 89.3861C101.786 89.7026 102.216 89.8804 102.663 89.8804C106.509 89.8847 110.196 91.4143 112.915 94.1337C115.635 96.8531 117.164 100.54 117.169 104.386C117.169 104.833 117.346 105.263 117.663 105.579C117.979 105.896 118.408 106.073 118.856 106.073C119.304 106.073 119.733 105.896 120.049 105.579C120.366 105.263 120.544 104.833 120.544 104.386C120.538 99.6453 118.653 95.1004 115.301 91.7484C111.948 88.3963 107.404 86.5107 102.663 86.5054Z" fill="#3E61EE"/>
<path d="M101.974 103.662C102.421 103.662 102.85 103.484 103.167 103.167C103.483 102.851 103.661 102.422 103.661 101.974C103.661 101.527 103.483 101.097 103.167 100.781C102.85 100.464 102.421 100.287 101.974 100.287C100.612 100.287 99.3068 100.827 98.3442 101.79C97.3816 102.753 96.8408 104.058 96.8408 105.419C96.8408 106.781 97.3816 108.086 98.3442 109.049C99.3068 110.011 100.612 110.552 101.974 110.552C102.421 110.552 102.85 110.374 103.167 110.058C103.483 109.742 103.661 109.312 103.661 108.865C103.661 108.417 103.483 107.988 103.167 107.672C102.85 107.355 102.421 107.177 101.974 107.177C101.507 107.177 101.06 106.992 100.731 106.662C100.401 106.333 100.216 105.886 100.216 105.419C100.216 104.953 100.401 104.506 100.731 104.176C101.06 103.847 101.507 103.662 101.974 103.662Z" fill="#3E61EE"/>
<path d="M72.0001 1.40651C58.038 1.40649 44.3894 5.54673 32.7803 13.3037C21.1712 21.0606 12.123 32.0859 6.77992 44.9852C1.43683 57.8845 0.0388424 72.0786 2.76273 85.7724C5.48661 99.4663 12.21 112.045 22.0828 121.918C35.3217 135.157 53.2775 142.594 72.0001 142.594C90.7228 142.594 108.679 135.157 121.918 121.918C135.156 108.679 142.594 90.7229 142.594 72.0003C142.594 53.2776 135.156 35.3218 121.918 22.0829C115.378 15.5071 107.598 10.2938 99.0299 6.74467C90.4616 3.19556 81.2744 1.38117 72.0001 1.40651V1.40651ZM119.531 119.532C106.925 132.138 89.8278 139.22 72.0001 139.22C54.1725 139.22 37.075 132.138 24.4689 119.532C11.8628 106.925 4.78081 89.8279 4.78081 72.0003C4.78081 54.1726 11.8628 37.0751 24.4689 24.469C37.075 11.8629 54.1725 4.78092 72.0001 4.78092C89.8278 4.78092 106.925 11.8629 119.531 24.469C132.137 37.0751 139.219 54.1726 139.219 72.0003C139.219 89.8279 132.137 106.925 119.531 119.532V119.532Z" fill="#17E5C3"/>
</svg>
