<svg viewBox="0 0 144 144" fill="none" xmlns="http://www.w3.org/2000/svg">
<path d="M18.8579 102.949L18.2561 101.714C14.2254 93.2923 11.9572 84.1363 11.5904 74.8072L11.5342 72.0104V72.0003C11.5342 39.1756 34.4887 11.7161 65.2183 4.7855C65.2673 4.37066 65.3308 3.95947 65.4132 3.55531L65.3992 3.40625C30.4426 6.73062 3.09668 36.1719 3.09668 72.0003C3.09668 72.9397 3.11543 73.8753 3.15293 74.8072C3.86577 92.5852 11.4325 109.397 24.2671 121.72C37.1017 134.042 54.2078 140.918 72.0001 140.907C73.41 140.907 74.8087 140.859 76.1975 140.775C64.1668 140.035 52.5407 136.152 42.4793 129.515C32.418 122.878 24.2733 113.718 18.8579 102.949Z" fill="#3E61EE" fill-opacity="0.2"/>
<path d="M75.5135 2.79883C74.6946 5.54977 74.2366 8.39548 74.1511 11.2645C74.1445 11.486 74.1816 11.7066 74.2602 11.9138C74.3389 12.121 74.4575 12.3107 74.6095 12.472C74.7614 12.6333 74.9437 12.7631 75.1458 12.854C75.3479 12.9449 75.5659 12.9951 75.7875 13.0017C75.8045 13.0017 75.8217 13.0017 75.8389 13.0017C76.2776 13.0015 76.6989 12.8304 77.0136 12.5248C77.3283 12.2192 77.5117 11.8031 77.5247 11.3646C77.6015 8.78842 78.0127 6.23316 78.7479 3.76295L75.5135 2.79883Z" fill="#3E61EE"/>
<path d="M94.0586 7.17955L91.1567 5.45605C89.7946 7.75021 88.1622 13.5217 89.5817 19.2424C89.9209 20.5445 89.7659 21.9262 89.1464 23.1208C88.527 24.3154 87.487 25.2382 86.2272 25.7111C85.5603 25.9547 84.8519 26.0642 84.1426 26.0334C83.4333 26.0026 82.737 25.832 82.0937 25.5315C81.4505 25.231 80.8729 24.8065 80.394 24.2823C79.9152 23.7581 79.5446 23.1445 79.3034 22.4767C78.5562 20.4087 78.0375 18.2651 77.7565 16.0842C77.732 15.8613 77.6634 15.6455 77.5546 15.4495C77.4457 15.2534 77.2989 15.081 77.1227 14.9424C76.9465 14.8037 76.7444 14.7015 76.5283 14.6418C76.3122 14.5822 76.0863 14.5661 75.8639 14.5947C75.6415 14.6233 75.427 14.696 75.233 14.8084C75.039 14.9208 74.8694 15.0708 74.734 15.2495C74.5986 15.4282 74.5002 15.6322 74.4445 15.8494C74.3888 16.0666 74.3769 16.2927 74.4096 16.5145C74.7218 18.9398 75.2983 21.3236 76.1289 23.6234C76.5191 24.7102 77.1206 25.7091 77.8986 26.5624C78.6767 27.4157 79.6159 28.1065 80.6621 28.5952C81.7084 29.0839 82.841 29.3606 83.9947 29.4095C85.1484 29.4585 86.3004 29.2786 87.3843 28.8802C89.4264 28.1227 91.1157 26.6356 92.1261 24.706C93.1366 22.7764 93.3966 20.541 92.856 18.431C91.6491 13.5614 93.178 8.6654 94.0586 7.17955Z" fill="#3E61EE"/>
<path d="M118.35 21.6016C117.121 23.6736 115.382 25.3969 113.3 26.6078C113.108 26.7189 112.94 26.8667 112.805 27.0427C112.671 27.2187 112.572 27.4196 112.515 27.6337C112.458 27.8479 112.444 28.0712 112.473 28.2908C112.502 28.5105 112.574 28.7223 112.685 28.9141C112.796 29.1058 112.944 29.2738 113.12 29.4085C113.296 29.5431 113.497 29.6418 113.711 29.6988C113.925 29.7559 114.149 29.7702 114.368 29.7409C114.588 29.7116 114.8 29.6394 114.992 29.5283C117.573 28.0281 119.728 25.8927 121.252 23.3251L118.35 21.6016Z" fill="#3E61EE"/>
<path d="M98.2457 34.5508C98.6863 33.5551 99.4451 32.7338 100.403 32.216C101.361 31.6982 102.464 31.5132 103.538 31.6899C105.449 31.984 107.395 31.9585 109.298 31.6146C109.516 31.5753 109.724 31.4934 109.911 31.3737C110.097 31.2539 110.258 31.0986 110.385 30.9166C110.511 30.7346 110.6 30.5295 110.648 30.313C110.695 30.0965 110.699 29.8728 110.66 29.6547C110.62 29.4366 110.538 29.2283 110.419 29.0419C110.299 28.8554 110.144 28.6944 109.962 28.5679C109.78 28.4415 109.575 28.3521 109.358 28.305C109.142 28.2578 108.918 28.2537 108.7 28.293C107.164 28.5709 105.593 28.5916 104.051 28.3543C102.237 28.0639 100.379 28.384 98.7666 29.2643C97.1546 30.1447 95.8806 31.5354 95.1446 33.2182L94.9609 33.6455C94.4778 34.7744 94.2533 35.9972 94.3039 37.2241C94.3544 38.4511 94.6787 39.6512 95.253 40.7367C95.8273 41.8221 96.6372 42.7653 97.6232 43.4973C98.6092 44.2293 99.7464 44.7315 100.952 44.9672C102.217 45.2187 103.497 45.3961 104.783 45.4985C104.384 47.3308 104.533 49.2402 105.212 50.9885C105.289 51.1981 105.408 51.3903 105.56 51.5537C105.713 51.7172 105.896 51.8488 106.1 51.9407C106.304 52.0327 106.524 52.0833 106.747 52.0896C106.97 52.0958 107.193 52.0576 107.402 51.9772C107.61 51.8967 107.801 51.7757 107.962 51.621C108.123 51.4663 108.252 51.2811 108.342 51.0761C108.431 50.8711 108.478 50.6504 108.482 50.4269C108.485 50.2034 108.444 49.9815 108.36 49.774C108.048 48.9706 107.907 48.1108 107.946 47.2497C107.985 46.3886 108.204 45.5452 108.589 44.7737C108.626 44.7114 108.66 44.6468 108.689 44.5802C108.73 44.5051 108.77 44.43 108.814 44.3552C109.442 43.2977 110.369 42.4501 111.479 41.9197C112.588 41.3892 113.83 41.1997 115.047 41.3751C116.265 41.5505 117.403 42.0829 118.317 42.905C119.232 43.7271 119.882 44.802 120.186 45.9937C120.299 46.4253 120.578 46.7947 120.962 47.0213C121.346 47.248 121.804 47.3133 122.236 47.2032C122.668 47.093 123.039 46.8163 123.268 46.4335C123.497 46.0507 123.564 45.5928 123.457 45.1601C123.188 44.1011 122.741 43.0957 122.135 42.187C125.794 40.4397 129.079 37.9987 131.808 34.9994L129.591 32.4485C126.799 35.5097 123.402 37.9592 119.616 39.6426C119.434 39.5171 119.25 39.3956 119.058 39.2817C116.946 38.028 114.434 37.6319 112.039 38.1751C109.644 38.7183 107.548 40.1593 106.184 42.2014C104.647 42.138 103.118 41.956 101.61 41.6569C100.893 41.5168 100.216 41.2175 99.6301 40.781C99.0441 40.3446 98.5636 39.7821 98.224 39.1352C97.8876 38.4986 97.6984 37.7946 97.6704 37.0751C97.6425 36.3557 97.7764 35.6391 98.0623 34.9783L98.2457 34.5508Z" fill="#3E61EE"/>
<path d="M114.162 57.1278C115.533 57.1289 116.889 56.8353 118.137 56.2667C119.385 55.6981 120.497 54.8679 121.396 53.8324C121.542 53.6653 121.654 53.4709 121.725 53.2604C121.796 53.0499 121.825 52.8275 121.81 52.6058C121.795 52.3841 121.736 52.1676 121.637 51.9687C121.539 51.7698 121.401 51.5923 121.234 51.4466C121.066 51.3008 120.871 51.1896 120.66 51.1193C120.45 51.0491 120.227 51.0211 120.005 51.0371C119.784 51.053 119.567 51.1126 119.369 51.2124C119.17 51.3121 118.994 51.4501 118.848 51.6184C117.893 52.7163 116.583 53.4439 115.145 53.6741C113.708 53.9043 112.236 53.6226 110.986 52.8781C110.795 52.765 110.584 52.6905 110.365 52.6589C110.145 52.6273 109.922 52.6392 109.707 52.694C109.492 52.7487 109.291 52.8452 109.113 52.978C108.936 53.1108 108.786 53.2772 108.673 53.4677C108.56 53.6583 108.485 53.8693 108.454 54.0886C108.422 54.308 108.434 54.5314 108.489 54.7461C108.544 54.9609 108.64 55.1627 108.773 55.3402C108.906 55.5176 109.072 55.6672 109.263 55.7803C110.745 56.6623 112.437 57.1278 114.162 57.1278Z" fill="#3E61EE"/>
<path d="M59.2063 3.38184C58.4604 5.29093 57.9059 7.26939 57.5511 9.28809C57.4676 9.72781 57.5622 10.1827 57.8141 10.5527C58.066 10.9226 58.4545 11.1774 58.8942 11.2609C59.334 11.3444 59.7888 11.2498 60.1588 10.9979C60.5288 10.7461 60.7836 10.3575 60.8671 9.91781C61.1794 8.12356 61.6685 6.36459 62.327 4.66659L59.2063 3.38184Z" fill="#3E61EE"/>
<path d="M58.5101 14.2666C58.2894 14.2466 58.0669 14.2703 57.8553 14.3365C57.6438 14.4026 57.4473 14.5099 57.2773 14.652C57.1072 14.7942 56.9669 14.9685 56.8643 15.165C56.7617 15.3615 56.6989 15.5763 56.6795 15.7971C56.5107 17.6762 56.3915 19.7006 56.3212 21.8145C56.2621 23.6884 55.4661 25.4634 54.1059 26.7539C52.7458 28.0443 50.9314 28.7459 49.0569 28.7064C47.1824 28.6668 45.3993 27.8892 44.0948 26.5426C42.7903 25.1959 42.0698 23.3889 42.0899 21.5141C42.106 17.8351 42.4458 14.1647 43.1055 10.5453L39.7854 9.93896C39.0901 13.754 38.7319 17.6228 38.7149 21.5006C38.7086 23.1885 39.1089 24.8532 39.8817 26.3538C40.6546 27.8545 41.7774 29.147 43.1553 30.122C44.9113 31.3781 47.0151 32.0557 49.174 32.0604C50.3931 32.0579 51.6026 31.845 52.7493 31.431C54.73 30.7313 56.4529 29.4493 57.6921 27.7531C58.9313 26.0569 59.6289 24.0258 59.6934 21.9261C59.7614 19.8747 59.8781 17.9132 60.0401 16.0967C60.0797 15.6511 59.9408 15.2081 59.6539 14.8649C59.367 14.5218 58.9556 14.3066 58.5101 14.2666Z" fill="#3E61EE"/>
<path d="M137.555 53.8384C135.385 56.0854 132.99 58.103 130.406 59.8594C130.22 59.9827 130.061 60.1418 129.936 60.3273C129.812 60.5128 129.726 60.7211 129.683 60.9402C129.64 61.1592 129.641 61.3847 129.685 61.6034C129.73 61.8221 129.818 62.0298 129.943 62.2145C130.069 62.3991 130.23 62.557 130.417 62.679C130.603 62.801 130.813 62.8848 131.032 62.9253C131.252 62.9659 131.477 62.9625 131.695 62.9153C131.914 62.8681 132.12 62.7781 132.303 62.6505C135.079 60.7637 137.652 58.596 139.984 56.1818L137.555 53.8384Z" fill="#3E61EE"/>
<path d="M96.2854 67.0188C95.8453 66.937 95.3907 67.0333 95.0217 67.2866C94.6526 67.54 94.3993 67.9295 94.3175 68.3696C94.2357 68.8097 94.332 69.2643 94.5854 69.6334C94.8387 70.0024 95.2283 70.2557 95.6683 70.3375C105.119 72.0983 114.878 71.0432 123.733 67.3034C123.938 67.2175 124.123 67.0922 124.279 66.9347C124.435 66.7772 124.558 66.5905 124.642 66.3853C124.726 66.1801 124.768 65.9604 124.767 65.7388C124.766 65.5172 124.721 65.2979 124.635 65.0936C124.549 64.8893 124.424 64.704 124.266 64.5481C124.109 64.3922 123.922 64.2689 123.717 64.1851C123.512 64.1014 123.292 64.0589 123.07 64.0601C122.849 64.0613 122.63 64.1061 122.425 64.192C114.177 67.6745 105.088 68.6574 96.2854 67.0188Z" fill="#3E61EE"/>
<path d="M63.9674 54.014C62.3282 54.6458 60.8787 55.6882 59.7581 57.0411C58.6374 58.394 57.883 60.0121 57.5673 61.7403C57.2516 63.4685 57.3852 65.2488 57.9552 66.9106C58.5252 68.5724 59.5125 70.0598 60.8225 71.2304C64.0102 74.0676 67.4627 76.5925 71.1325 78.7704C71.5174 78.9989 71.9772 79.0651 72.4109 78.9546C72.8446 78.844 73.2166 78.5657 73.4451 78.1808C73.6736 77.7959 73.7398 77.3361 73.6292 76.9024C73.5187 76.4687 73.2403 76.0967 72.8555 75.8682C69.3716 73.8008 66.0941 71.404 63.068 68.7107C62.3898 68.1007 61.8394 67.3621 61.4488 66.5377C61.0582 65.7134 60.8351 64.8197 60.7925 63.9086C60.7498 62.9974 60.8885 62.0868 61.2004 61.2296C61.5123 60.3724 61.9913 59.5856 62.6096 58.9149C63.2279 58.2442 63.9731 57.7029 64.8021 57.3224C65.6312 56.9419 66.5275 56.7297 67.4392 56.6982C68.3508 56.6667 69.2596 56.8165 70.113 57.1388C70.9663 57.4612 71.7471 57.9497 72.4102 58.5761C75.2115 61.1918 77.6241 63.1079 79.5821 64.2698C82.0352 65.7264 84.6095 66.9685 87.2763 67.9823C87.4837 68.0622 87.7049 68.1003 87.9271 68.0944C88.1494 68.0886 88.3682 68.0389 88.5712 67.9482C88.7742 67.8575 88.9572 67.7276 89.1098 67.566C89.2624 67.4044 89.3816 67.2142 89.4605 67.0063C89.5394 66.7985 89.5764 66.5771 89.5695 66.3549C89.5626 66.1327 89.5118 65.9141 89.4201 65.7116C89.3284 65.509 89.1976 65.3266 89.0352 65.1748C88.8729 65.023 88.6821 64.9048 88.4738 64.8269C85.9892 63.8822 83.5907 62.7248 81.3051 61.3675C79.5563 60.3292 77.3394 58.5601 74.7148 56.1082C73.2978 54.7901 71.5399 53.8954 69.6404 53.5252C67.7409 53.1551 65.7756 53.3244 63.9674 54.014Z" fill="#3E61EE"/>
<path d="M109.571 86.221C109.561 85.9996 109.507 85.7824 109.412 85.5819C109.318 85.3813 109.185 85.2013 109.021 85.0521C108.858 84.9029 108.666 84.7874 108.457 84.7123C108.249 84.6371 108.028 84.6038 107.806 84.6142C98.5404 85.0656 89.2913 83.4333 80.7397 79.8374C80.3268 79.6646 79.8622 79.6629 79.448 79.8326C79.0339 80.0023 78.7041 80.3296 78.5313 80.7425C78.3585 81.1554 78.3567 81.62 78.5264 82.0341C78.6962 82.4483 79.0235 82.778 79.4363 82.9509C87.4692 86.3292 96.0969 88.0661 104.811 88.0592C105.859 88.0592 106.91 88.0345 107.964 87.9852C108.411 87.9643 108.832 87.7667 109.133 87.4358C109.434 87.105 109.592 86.668 109.571 86.221Z" fill="#3E61EE"/>
<path d="M139.885 74.0713C133.337 78.4506 126.023 81.5574 118.324 83.2291C118.108 83.2764 117.903 83.3659 117.721 83.4924C117.539 83.619 117.384 83.7801 117.264 83.9667C117.145 84.1532 117.063 84.3615 117.024 84.5796C116.984 84.7977 116.989 85.0214 117.036 85.2379C117.083 85.4544 117.173 85.6595 117.299 85.8414C117.426 86.0234 117.587 86.1786 117.773 86.2982C117.96 86.4179 118.168 86.4996 118.386 86.5388C118.605 86.578 118.828 86.5738 119.045 86.5265C127.155 84.7648 134.861 81.4913 141.76 76.8774C141.947 76.7552 142.107 76.5973 142.232 76.4128C142.357 76.2283 142.444 76.0209 142.488 75.8025C142.533 75.5842 142.533 75.3592 142.49 75.1406C142.447 74.9219 142.362 74.714 142.238 74.5287C142.114 74.3435 141.955 74.1845 141.769 74.0612C141.584 73.9378 141.375 73.8524 141.157 73.8098C140.938 73.7673 140.713 73.7685 140.495 73.8134C140.277 73.8583 140.069 73.9459 139.885 74.0713Z" fill="#3E61EE"/>
<path d="M49.2236 49.7399C48.3724 49.2346 47.629 48.5666 47.036 47.774C46.443 46.9814 46.0119 46.0797 45.7674 45.1205C45.5229 44.1613 45.4697 43.1633 45.6108 42.1835C45.752 41.2037 46.0848 40.2613 46.5902 39.4102C46.8103 39.0258 46.8704 38.5702 46.7575 38.1419C46.6447 37.7135 46.3679 37.3467 45.987 37.1206C45.6061 36.8945 45.1515 36.8273 44.7215 36.9334C44.2914 37.0395 43.9203 37.3105 43.6883 37.6878C42.2108 40.1764 41.7825 43.15 42.4974 45.9544C43.2124 48.7588 45.0121 51.1644 47.5006 52.6419C47.6912 52.7573 47.9028 52.8339 48.1232 52.8671C48.3435 52.9003 48.5683 52.8895 48.7845 52.8354C49.0007 52.7813 49.204 52.685 49.3827 52.5518C49.5614 52.4187 49.712 52.2516 49.8258 52.0599C49.9396 51.8683 50.0142 51.6561 50.0455 51.4354C50.0768 51.2148 50.0641 50.9901 50.0081 50.7744C49.9521 50.5587 49.854 50.3563 49.7193 50.1787C49.5847 50.0012 49.4162 49.852 49.2236 49.7399Z" fill="#3E61EE"/>
<path d="M58.6427 33.8745C58.2581 33.6507 57.8007 33.5878 57.37 33.6996C56.9392 33.8115 56.5701 34.0889 56.3429 34.4715C56.1157 34.8542 56.0489 35.311 56.1569 35.7427C56.265 36.1744 56.5392 36.5459 56.9198 36.7765C57.9594 37.395 58.8351 38.2545 59.4729 39.2824C60.1107 40.3103 60.492 41.4766 60.5846 42.6827C60.6772 43.8889 60.4784 45.0997 60.0049 46.2129C59.5315 47.3261 58.7973 48.3092 57.8642 49.0792C57.5213 49.3644 57.3053 49.7738 57.2634 50.2179C57.2215 50.6619 57.3571 51.1045 57.6405 51.4489C57.924 51.7933 58.3322 52.0114 58.7761 52.0557C59.2199 52.0999 59.6632 51.9666 60.0091 51.685C61.3613 50.5712 62.4255 49.1483 63.1119 47.5366C63.7983 45.9248 64.0867 44.1715 63.9527 42.4248C63.8187 40.6781 63.2663 38.9893 62.3421 37.5011C61.4178 36.0129 60.149 34.769 58.6427 33.8745Z" fill="#3E61EE"/>
<path d="M28.7132 48.9035C28.2663 47.1634 27.8793 45.3851 27.5626 43.6174C27.197 41.5758 26.9158 39.4938 26.7254 37.4299C26.2382 32.1284 26.3352 26.7893 27.0145 21.5089L23.6676 21.0767C22.9566 26.6026 22.8551 32.19 23.365 37.7382C23.5635 39.8982 23.858 42.0765 24.2408 44.2128C24.5721 46.0618 24.9771 47.9225 25.4445 49.7431C25.5559 50.1766 25.8348 50.5481 26.2201 50.7759C26.6053 51.0037 27.0653 51.0691 27.4988 50.9578C27.9323 50.8465 28.3038 50.5675 28.5316 50.1822C28.7594 49.797 28.8248 49.337 28.7135 48.9035H28.7132Z" fill="#3E61EE"/>
<path d="M14.8659 47.3581C14.4291 47.4558 14.0491 47.723 13.8094 48.1009C13.5697 48.4789 13.4899 48.9365 13.5876 49.3732C14.9542 55.4826 17.1296 62.554 20.0535 70.3919C20.5373 71.7199 21.3737 72.891 22.4729 73.7795C23.5721 74.6679 24.8926 75.2402 26.2925 75.4347C26.6859 75.4926 27.0831 75.5217 27.4808 75.5219C28.6923 75.5239 29.8875 75.2423 30.9708 74.6998C32.0541 74.1573 32.9954 73.3688 33.7195 72.3975C34.6109 71.219 35.1536 69.8139 35.2857 68.3421C35.4179 66.8703 35.1342 65.391 34.467 64.0725C33.6098 62.4019 32.8076 60.6758 32.0812 58.9419C31.9014 58.5398 31.5715 58.224 31.162 58.0618C30.7524 57.8996 30.2957 57.904 29.8894 58.074C29.483 58.244 29.1593 58.5661 28.9872 58.9716C28.8152 59.3771 28.8085 59.8338 28.9686 60.2441C29.728 62.0585 30.5678 63.8647 31.465 65.6126C31.8441 66.3651 32.0044 67.2089 31.9276 68.0479C31.8508 68.887 31.5399 69.6876 31.0304 70.3587C30.5431 71.0019 29.8919 71.5024 29.145 71.808C28.3982 72.1135 27.5829 72.213 26.7845 72.0958C25.9861 71.9787 25.2337 71.6493 24.6061 71.1421C23.9785 70.6349 23.4985 69.9684 23.2165 69.2123C20.3455 61.5182 18.2141 54.5958 16.881 48.6364C16.7833 48.1996 16.5161 47.8196 16.1382 47.5799C15.7603 47.3402 15.3026 47.2604 14.8659 47.3581Z" fill="#3E61EE"/>
<path d="M15.7638 42.6166C15.4019 40.2466 15.2451 37.8499 15.295 35.4529L11.9219 35.3379C11.8651 37.932 12.0325 40.5261 12.4223 43.0914C12.4793 43.4935 12.6795 43.8615 12.986 44.1279C13.2925 44.3943 13.6848 44.5413 14.0909 44.5418C14.171 44.5417 14.251 44.5361 14.3303 44.5249C14.5497 44.4938 14.7609 44.4197 14.9517 44.3069C15.1425 44.1942 15.3092 44.0449 15.4423 43.8677C15.5754 43.6905 15.6723 43.4888 15.7275 43.2742C15.7827 43.0595 15.795 42.8361 15.7638 42.6166Z" fill="#3E61EE"/>
<path d="M136.276 93.2275C129.273 97.5627 120.427 100.196 109.985 101.054C109.551 101.089 109.148 101.291 108.859 101.618C108.571 101.944 108.419 102.369 108.437 102.804C108.455 103.239 108.64 103.651 108.954 103.952C109.268 104.254 109.686 104.423 110.122 104.423C110.168 104.423 110.215 104.421 110.262 104.418C121.24 103.515 130.591 100.716 138.053 96.0971L136.276 93.2275Z" fill="#3E61EE"/>
<path d="M99.9176 104.713H99.9539C100.401 104.718 100.832 104.544 101.152 104.231C101.472 103.918 101.654 103.491 101.659 103.043C101.663 102.596 101.49 102.165 101.177 101.845C100.864 101.525 100.436 101.343 99.9887 101.338C98.1103 101.299 96.1727 101.208 94.2301 101.069C93.7837 101.037 93.3428 101.183 93.0045 101.476C92.6662 101.77 92.4582 102.185 92.4262 102.631C92.3942 103.078 92.5409 103.519 92.8339 103.857C93.127 104.195 93.5424 104.403 93.9888 104.435C95.988 104.579 97.9829 104.672 99.9176 104.713Z" fill="#3E61EE"/>
<path d="M67.4179 99.615C68.7041 100.135 75.0153 101.979 83.9661 103.321C84.1859 103.355 84.4104 103.346 84.6266 103.293C84.8428 103.24 85.0464 103.145 85.2258 103.014C85.4051 102.882 85.5567 102.716 85.6717 102.526C85.7867 102.335 85.8629 102.124 85.8959 101.904C85.9289 101.684 85.9181 101.459 85.864 101.244C85.81 101.028 85.7138 100.825 85.5809 100.646C85.4481 100.468 85.2813 100.317 85.09 100.203C84.8988 100.09 84.687 100.015 84.4667 99.9831C75.845 98.6894 69.6634 96.8823 68.6827 96.4858C66.3504 95.5504 63.7515 95.5273 61.4029 96.4209C59.0543 97.3146 57.1282 99.0595 56.0076 101.309C55.4217 102.499 55.0797 103.794 55.0016 105.119C54.9235 106.443 55.111 107.77 55.5529 109.021C55.9948 110.271 56.6822 111.421 57.5749 112.403C58.4675 113.384 59.5473 114.177 60.7509 114.736C62.4322 115.516 65.2587 116.407 68.7102 117.244C68.9256 117.296 69.1492 117.305 69.3681 117.271C69.5871 117.237 69.7972 117.16 69.9864 117.045C70.1756 116.929 70.3403 116.778 70.471 116.599C70.6016 116.42 70.6958 116.217 70.748 116.002C70.8003 115.786 70.8096 115.563 70.7754 115.344C70.7413 115.125 70.6644 114.915 70.549 114.725C70.4337 114.536 70.2822 114.372 70.1032 114.241C69.9242 114.11 69.7213 114.016 69.5059 113.964C66.3103 113.189 63.6371 112.354 62.1717 111.674C61.3763 111.305 60.6626 110.781 60.0726 110.132C59.4825 109.484 59.0281 108.724 58.7359 107.897C58.4437 107.07 58.3197 106.193 58.3711 105.318C58.4225 104.443 58.6483 103.586 59.0352 102.8C59.7771 101.313 61.0513 100.16 62.6045 99.5698C64.1577 98.9798 65.8761 98.9959 67.4179 99.615Z" fill="#3E61EE"/>
<path d="M103.896 117.305C95.7429 117.607 87.5796 117.137 79.515 115.903C79.0724 115.836 78.6214 115.947 78.261 116.213C77.9006 116.478 77.6604 116.876 77.5933 117.318C77.5262 117.761 77.6376 118.212 77.903 118.572C78.1685 118.933 78.5662 119.173 79.0087 119.24C85.6491 120.247 92.3548 120.763 99.0711 120.783C100.696 120.783 102.357 120.75 104.041 120.677C104.264 120.669 104.483 120.618 104.686 120.525C104.889 120.433 105.072 120.301 105.224 120.137C105.375 119.974 105.493 119.781 105.57 119.572C105.647 119.362 105.682 119.14 105.672 118.917C105.662 118.694 105.609 118.475 105.514 118.273C105.419 118.071 105.285 117.89 105.12 117.74C104.954 117.59 104.761 117.474 104.551 117.4C104.34 117.325 104.117 117.293 103.895 117.305H103.896Z" fill="#3E61EE"/>
<path d="M124.991 113.809C120.644 115.175 116.18 116.132 111.655 116.667C111.229 116.719 110.838 116.932 110.564 117.263C110.289 117.593 110.151 118.016 110.177 118.444C110.203 118.873 110.392 119.276 110.705 119.57C111.018 119.865 111.431 120.029 111.861 120.029C111.931 120.029 112.001 120.025 112.07 120.016C116.805 119.455 121.476 118.453 126.024 117.022L124.991 113.809Z" fill="#3E61EE"/>
<path d="M39.2233 80.2885C37.618 80.6954 36.1779 81.5888 35.1004 82.8464C34.0228 84.1039 33.3606 85.664 33.2046 87.3127C33.184 87.5333 33.207 87.7559 33.2724 87.9677C33.3379 88.1794 33.4443 88.3762 33.5858 88.5468C33.7273 88.7174 33.901 88.8585 34.097 88.9619C34.293 89.0654 34.5074 89.1292 34.7281 89.1498C34.7813 89.1546 34.8341 89.1571 34.8867 89.1571C35.3068 89.1566 35.7116 88.9994 36.022 88.7163C36.3323 88.4332 36.526 88.0445 36.565 87.6263C36.6672 86.5374 37.1508 85.5197 37.9305 84.7528C38.7103 83.9859 39.7359 83.5192 40.8263 83.4351C41.9167 83.351 43.0017 83.6549 43.8898 84.2931C44.778 84.9313 45.412 85.8628 45.68 86.9231C45.7338 87.1385 45.8295 87.3411 45.9618 87.5193C46.094 87.6976 46.2601 87.848 46.4505 87.962C46.6409 88.076 46.852 88.1512 47.0716 88.1835C47.2912 88.2158 47.515 88.2045 47.7301 88.1502C47.9453 88.0959 48.1477 87.9996 48.3256 87.867C48.5036 87.7343 48.6536 87.5679 48.7671 87.3772C48.8807 87.1865 48.9555 86.9752 48.9872 86.7556C49.019 86.5359 49.0072 86.3122 48.9523 86.0971C48.4303 84.038 47.1129 82.27 45.2889 81.181C43.465 80.0921 41.2836 79.7711 39.2233 80.2885Z" fill="#3E61EE"/>
<path d="M42.3194 92.553C41.4665 92.7658 40.5708 92.733 39.7358 92.4584C38.9007 92.1838 38.1603 91.6787 37.6 91.0014C37.3148 90.6585 36.9054 90.4425 36.4613 90.4005C36.0173 90.3586 35.5747 90.4942 35.2303 90.7777C34.8859 91.0611 34.6678 91.4694 34.6236 91.9132C34.5793 92.3571 34.7126 92.8004 34.9943 93.1462C35.7504 94.0599 36.6989 94.7955 37.7722 95.3003C38.8454 95.8051 40.0168 96.0667 41.2029 96.0664C41.8584 96.0666 42.5115 95.9856 43.1471 95.8251C43.5766 95.7115 43.944 95.4331 44.1695 95.0503C44.395 94.6676 44.4605 94.2113 44.3517 93.7805C44.2429 93.3498 43.9687 92.9793 43.5885 92.7495C43.2083 92.5197 42.7528 92.4491 42.3208 92.553H42.3194Z" fill="#3E61EE"/>
<path d="M22.6861 93.2432C21.4512 93.1784 20.2237 93.4711 19.1509 94.0862C18.0781 94.7012 17.2054 95.6126 16.6374 96.7111C16.0694 97.8095 15.8302 99.0485 15.9484 100.279C16.0667 101.51 16.5374 102.681 17.3041 103.651C19.1418 105.968 21.0858 108.233 23.0818 110.383C23.3863 110.711 23.8087 110.904 24.2559 110.921C24.7032 110.938 25.1387 110.776 25.4667 110.471C25.7946 110.167 25.9882 109.744 26.0048 109.297C26.0214 108.85 25.8596 108.414 25.5551 108.086C23.6184 106 21.7321 103.803 19.9484 101.554C19.4502 100.92 19.2229 100.115 19.3162 99.3136C19.4094 98.5126 19.8157 97.781 20.4462 97.2783C21.0768 96.7757 21.8806 96.5427 22.6822 96.6303C23.4838 96.718 24.2183 97.119 24.7254 97.746C25.0101 98.0832 25.4155 98.2955 25.8548 98.3374C26.2942 98.3793 26.7324 98.2474 27.0756 97.97C27.4189 97.6926 27.6398 97.2918 27.691 96.8535C27.7423 96.4151 27.6198 95.9742 27.3498 95.6251C26.7824 94.9238 26.0742 94.3494 25.2708 93.9391C24.4674 93.5287 23.5869 93.2917 22.6861 93.2432Z" fill="#3E61EE"/>
<path d="M41.4135 110.069C38.9711 107.993 36.5836 105.766 34.3173 103.453C33.4488 102.567 32.5817 101.651 31.7399 100.73C31.4378 100.4 31.0169 100.203 30.5697 100.183C30.1225 100.163 29.6858 100.322 29.3555 100.624C29.0252 100.926 28.8284 101.347 28.8085 101.794C28.7886 102.241 28.9471 102.678 29.2492 103.008C30.1171 103.957 31.0112 104.902 31.9067 105.816C34.2444 108.202 36.7074 110.498 39.2273 112.641C39.5484 112.916 39.8091 113.254 39.9931 113.634C40.1771 114.014 40.2804 114.428 40.2965 114.85C40.3127 115.272 40.2413 115.693 40.0869 116.086C39.9324 116.48 39.6983 116.837 39.3992 117.135C38.8595 117.68 38.134 118.002 37.3674 118.037C36.6007 118.071 35.8494 117.815 35.2631 117.32C33.9084 116.186 32.5612 114.998 31.259 113.79C30.9308 113.486 30.4951 113.325 30.0478 113.341C29.6006 113.358 29.1783 113.552 28.874 113.88C28.5696 114.209 28.4082 114.644 28.425 115.092C28.4419 115.539 28.6358 115.961 28.964 116.265C30.3078 117.511 31.698 118.737 33.0961 119.908C34.4007 121.011 36.09 121.55 37.7924 121.408C39.4947 121.265 41.0708 120.452 42.1737 119.147C43.2767 117.843 43.8162 116.154 43.6737 114.451C43.5311 112.749 42.7181 111.173 41.4135 110.07V110.069Z" fill="#3E61EE"/>
<path d="M18.077 78.5319C12.2574 69.2037 7.51041 52.4372 7.46316 52.269L4.21388 53.1814C4.41216 53.8871 9.13576 70.5779 15.2136 80.3181C15.4876 80.754 15.6488 81.2514 15.6825 81.7652C15.7162 82.279 15.6215 82.7931 15.4068 83.2611C15.1667 83.7834 14.7861 84.2287 14.3075 84.5472C13.829 84.8656 13.2712 85.0446 12.6967 85.0643C12.1222 85.0839 11.5535 84.9434 11.0543 84.6584C10.5551 84.3734 10.145 83.9551 9.86982 83.4504C6.43857 77.1315 4.93838 72.8152 4.91026 72.7328L1.71582 73.8235C1.7791 74.0091 3.30713 78.4388 6.90319 85.0611C7.45532 86.0857 8.27519 86.9413 9.27538 87.5366C10.2756 88.1318 11.4186 88.4445 12.5825 88.4412C12.6559 88.4412 12.7301 88.4412 12.8044 88.4375C13.9417 88.4 15.0489 88.0633 16.0146 87.4614C16.9803 86.8595 17.7703 86.0137 18.3049 85.0092C18.8395 84.0048 19.0998 82.8771 19.0597 81.7399C19.0196 80.6027 18.6805 79.4962 18.0764 78.5319H18.077Z" fill="#3E61EE"/>
<path d="M82.1255 129.11C81.691 129.014 81.2361 129.093 80.8598 129.33C80.4835 129.568 80.2163 129.945 80.1164 130.378C80.0164 130.812 80.0918 131.268 80.3262 131.646C80.5605 132.024 80.9348 132.295 81.3676 132.398C91.6309 134.764 100.966 136.028 101.06 136.041C101.136 136.051 100.368 135.212 100.443 135.212L101.509 132.696C101.419 132.684 92.2382 131.44 82.1255 129.11Z" fill="#3E61EE"/>
<path d="M55.8447 128.441C55.5089 128.272 55.218 128.026 54.9959 127.723C54.7738 127.419 54.6268 127.068 54.5672 126.697C54.5075 126.326 54.5369 125.946 54.6528 125.588C54.7687 125.231 54.9678 124.906 55.2338 124.64C55.9912 123.883 57.1463 123.678 57.9192 124.162C61.0563 126.131 65.6297 128.029 71.512 129.807C71.9405 129.937 72.4028 129.891 72.7973 129.679C73.1918 129.468 73.4862 129.108 73.6156 128.68C73.7451 128.251 73.699 127.789 73.4876 127.394C73.2762 127 72.9167 126.706 72.4882 126.576C66.8936 124.886 62.5953 123.111 59.7127 121.303C57.6065 119.981 54.7194 120.381 52.8474 122.253C52.2033 122.897 51.7212 123.684 51.441 124.551C51.1608 125.417 51.0905 126.338 51.2358 127.237C51.3811 128.136 51.7379 128.987 52.2768 129.721C52.8157 130.455 53.5214 131.051 54.3355 131.459C63.65 136.116 73.5227 139.167 84.2324 141.083L85.1079 138.042C74.9444 136.258 65.0895 133.025 55.8447 128.441Z" fill="#3E61EE"/>
<path d="M108.034 11.308C96.0305 4.18164 82.1832 0.77475 68.2433 1.51815C54.3033 2.26155 40.8969 7.12185 29.7191 15.4845C18.5414 23.8471 10.0945 35.3364 5.4464 48.4996C0.798336 61.6628 0.157924 75.9087 3.60614 89.4359C7.48289 104.613 16.2923 118.071 28.6501 127.697C41.0079 137.322 56.2136 142.569 71.8776 142.612C77.7999 142.608 83.6985 141.864 89.4361 140.396C102.963 136.947 115.164 129.565 124.496 119.182C133.828 108.799 139.871 95.8826 141.862 82.0653C143.853 68.2479 141.701 54.1506 135.68 41.5559C129.659 28.9612 120.038 18.4349 108.034 11.308ZM129.79 106.313C125.303 113.917 119.352 120.555 112.283 125.844C105.213 131.133 97.164 134.968 88.6024 137.125C83.1392 138.523 77.5227 139.231 71.8835 139.235C60.0254 139.209 48.385 136.048 38.1429 130.072C27.9009 124.096 19.4217 115.517 13.5655 105.206C7.70925 94.8948 4.68434 83.2182 4.7976 71.3606C4.91086 59.503 8.15827 47.8864 14.2104 37.689C18.6973 30.0846 24.6479 23.4457 31.7177 18.1564C38.7876 12.8672 46.8363 9.03272 55.398 6.87495C60.8613 5.47746 66.4778 4.76883 72.117 4.76558C83.9753 4.79065 95.616 7.95168 105.858 13.928C116.1 19.9043 124.58 28.4833 130.436 38.7946C136.292 49.106 139.317 60.7828 139.204 72.6406C139.09 84.4983 135.843 96.1152 129.79 106.313Z" fill="#968B82"/>
</svg>
