<svg viewBox="0 0 144 144" fill="none" xmlns="http://www.w3.org/2000/svg">
<path d="M29.7022 130.629C26.2764 127.263 23.5508 123.251 21.6826 118.826C19.8143 114.402 18.8404 109.651 18.8168 104.848C18.7933 100.045 19.7207 95.2845 21.5455 90.8415C23.3703 86.3986 26.0565 82.3607 29.4491 78.9608L67.1169 41.293L81.3932 27.0167L96.0488 12.3611C95.8061 11.4619 95.3312 10.6424 94.6716 9.98482C94.0121 9.32726 93.1911 8.85477 92.2912 8.6148C91.3913 8.37483 90.4441 8.37582 89.5447 8.61767C88.6454 8.85952 87.8254 9.33372 87.1672 9.99266L70.1432 27.0167L55.8669 41.293L18.1991 78.9608C14.8064 82.3607 12.1203 86.3986 10.2955 90.8415C8.47068 95.2845 7.54331 100.045 7.56684 104.848C7.59037 109.651 8.56434 114.402 10.4326 118.826C12.3008 123.251 15.0264 127.263 18.4522 130.629C26.9114 138.926 38.4381 142.155 49.3723 140.473C41.9448 139.338 35.0629 135.894 29.7022 130.629V130.629Z" fill="#3E61EE" fill-opacity="0.2"/>
<path d="M126.375 56.5414L90.1077 92.8086C89.4707 93.4365 88.6113 93.787 87.7168 93.7838C86.8224 93.7806 85.9655 93.4238 85.3331 92.7914C84.7006 92.1589 84.3438 91.302 84.3406 90.4076C84.3374 89.5131 84.6879 88.6537 85.3158 88.0167L110.231 63.1019C110.886 62.4532 111.408 61.6813 111.764 60.8306C112.121 59.9798 112.305 59.067 112.308 58.1446C112.311 57.2222 112.131 56.3083 111.779 55.4556C111.427 54.6029 110.91 53.8282 110.258 53.1759C109.606 52.5237 108.831 52.0068 107.978 51.655C107.126 51.3032 106.212 51.1233 105.289 51.1259C104.367 51.1284 103.454 51.3133 102.603 51.6698C101.753 52.0263 100.981 52.5474 100.332 53.2033L87.6451 65.8904C87.0081 66.5183 86.1487 66.8689 85.2542 66.8656C84.3598 66.8624 83.5029 66.5057 82.8704 65.8732C82.238 65.2407 81.8812 64.3838 81.878 63.4894C81.8748 62.595 82.2253 61.7355 82.8532 61.0985L130.597 13.3549C131.909 12.0421 132.647 10.2616 132.647 8.40512C132.647 6.54865 131.909 4.76826 130.596 3.45562C129.946 2.80567 129.174 2.29012 128.325 1.9384C127.476 1.58669 126.566 1.4057 125.646 1.40576C123.79 1.40589 122.009 2.1435 120.697 3.45632L90.4829 33.6719C90.1683 33.9865 89.7948 34.2361 89.3837 34.4064C88.9726 34.5767 88.532 34.6643 88.0871 34.6643C87.6421 34.6644 87.2015 34.5767 86.7904 34.4065C86.3793 34.2362 86.0058 33.9866 85.6911 33.672C85.3765 33.3574 85.1269 32.9839 84.9566 32.5728C84.7863 32.1617 84.6987 31.7211 84.6986 31.2761C84.6986 30.8312 84.7863 30.3906 84.9565 29.9795C85.1268 29.5684 85.3764 29.1948 85.691 28.8802L95.8745 18.697C97.1871 17.3842 97.9245 15.6037 97.9244 13.7472C97.9242 11.8907 97.1866 10.1103 95.8738 8.79768C94.561 7.48505 92.7805 6.74769 90.924 6.74782C89.0675 6.74796 87.2871 7.48557 85.9745 8.79839L68.9589 25.814L68.9493 25.8236L54.6747 40.0987L54.6708 40.1029L17.005 77.769C11.6719 83.0616 8.03231 89.8198 6.54836 97.1853C5.06441 104.551 5.8031 112.191 8.6706 119.136C11.5381 126.081 16.405 132.016 22.6532 136.189C28.9014 140.362 36.2488 142.584 43.7622 142.572C48.8458 142.577 53.8804 141.579 58.5776 139.635C63.2748 137.691 67.5423 134.839 71.1355 131.243L136.105 66.2718C136.744 65.6329 137.251 64.8743 137.597 64.0395C137.942 63.2046 138.12 62.3098 138.12 61.4062C138.12 60.5026 137.942 59.6078 137.597 58.7729C137.251 57.9381 136.744 57.1795 136.105 56.5406C135.466 55.9016 134.708 55.3948 133.873 55.049C133.038 54.7032 132.143 54.5252 131.239 54.5252C130.336 54.5252 129.441 54.7032 128.606 55.049C127.771 55.3948 127.013 55.9016 126.374 56.5406L126.375 56.5414ZM133.719 63.8851L68.7479 128.856C55.181 142.425 33.1479 142.68 19.6344 129.425C16.3679 126.215 13.769 122.39 11.9876 118.17C10.2062 113.951 9.2774 109.421 9.25479 104.841C9.23217 100.261 10.1162 95.7223 11.8559 91.4857C13.5955 87.2491 16.1565 83.3986 19.3911 80.1563L64.8717 34.6751L88.362 11.1848C89.0441 10.5167 89.9623 10.1447 90.9171 10.1497C91.8719 10.1547 92.7861 10.5362 93.4612 11.2114C94.1363 11.8866 94.5177 12.8008 94.5226 13.7556C94.5275 14.7104 94.1554 15.6285 93.4872 16.3106L83.306 26.4938C82.6619 27.1181 82.1484 27.8642 81.7955 28.6889C81.4425 29.5135 81.2571 30.4001 81.25 31.2971C81.243 32.194 81.4144 33.0834 81.7544 33.9135C82.0943 34.7436 82.596 35.4977 83.2302 36.132C83.8644 36.7664 84.6185 37.2682 85.4485 37.6083C86.2785 37.9485 87.1678 38.1201 88.0648 38.1132C88.9618 38.1064 89.8484 37.9211 90.6731 37.5684C91.4978 37.2156 92.2441 36.7022 92.8685 36.0583L123.085 5.84273C123.421 5.50617 123.821 5.23919 124.261 5.05705C124.7 4.87491 125.172 4.78117 125.648 4.78119C126.124 4.7812 126.595 4.87497 127.035 5.05713C127.474 5.23929 127.874 5.50629 128.211 5.84287C128.547 6.17945 128.814 6.57903 128.996 7.01879C129.178 7.45855 129.272 7.92988 129.272 8.40586C129.272 8.88185 129.178 9.35317 128.996 9.79292C128.814 10.2327 128.547 10.6322 128.21 10.9688L80.4654 58.7121C79.197 59.9805 78.4844 61.7007 78.4844 63.4945C78.4844 65.2882 79.197 67.0085 80.4654 68.2769C81.7337 69.5452 83.454 70.2578 85.2477 70.2578C87.0415 70.2578 88.7618 69.5452 90.0301 68.2769L102.717 55.5897C103.054 55.2531 103.453 54.9861 103.893 54.804C104.333 54.6218 104.804 54.5281 105.28 54.5281C105.756 54.5281 106.227 54.6218 106.667 54.804C107.107 54.9861 107.507 55.2531 107.843 55.5897C108.18 55.9262 108.447 56.3258 108.629 56.7655C108.811 57.2053 108.905 57.6766 108.905 58.1526C108.905 58.6285 108.811 59.0998 108.629 59.5396C108.447 59.9793 108.18 60.3789 107.843 60.7154L82.9283 85.6303C81.6648 86.8996 80.9564 88.6183 80.9585 90.4093C80.9606 92.2002 81.6729 93.9172 82.9393 95.1837C84.2057 96.4501 85.9227 97.1625 87.7137 97.1646C89.5047 97.1668 91.2234 96.4584 92.4927 95.195L128.76 58.9278C129.085 58.6023 129.472 58.344 129.897 58.1679C130.322 57.9917 130.778 57.901 131.238 57.9009C131.699 57.9009 132.155 57.9916 132.58 58.1677C133.005 58.3438 133.392 58.602 133.717 58.9275C134.043 59.253 134.301 59.6395 134.477 60.0648C134.653 60.4901 134.744 60.9459 134.744 61.4063C134.744 61.8666 134.654 62.3225 134.477 62.7478C134.301 63.1731 134.043 63.5596 133.718 63.8851H133.719Z" fill="#3E61EE"/>
<path d="M64.8163 45.6916C65.038 45.6918 65.2574 45.6482 65.4621 45.5632C65.6668 45.4783 65.8527 45.3537 66.0091 45.1966L68.6855 42.5205C69.002 42.2041 69.1798 41.7749 69.1798 41.3273C69.1798 40.8797 69.0021 40.4505 68.6856 40.134C68.3692 39.8175 67.9399 39.6397 67.4924 39.6396C67.0448 39.6396 66.6156 39.8174 66.2991 40.1338L63.623 42.8102C63.3871 43.0462 63.2264 43.3469 63.1613 43.6742C63.0962 44.0015 63.1296 44.3407 63.2573 44.649C63.385 44.9573 63.6013 45.2208 63.8787 45.4063C64.1562 45.5917 64.4823 45.6907 64.816 45.6908L64.8163 45.6916Z" fill="#3E61EE"/>
<path d="M60.2043 48.6157C59.8879 48.2993 59.4588 48.1216 59.0113 48.1216C58.5638 48.1216 58.1347 48.2993 57.8182 48.6157L41.8694 64.5645C41.7106 64.7207 41.5843 64.9068 41.4977 65.1121C41.4112 65.3174 41.3662 65.5377 41.3652 65.7605C41.3643 65.9833 41.4075 66.204 41.4923 66.41C41.5771 66.616 41.7019 66.8031 41.8594 66.9607C42.0168 67.1182 42.204 67.243 42.4099 67.3278C42.6159 67.4127 42.8366 67.4559 43.0594 67.455C43.2822 67.4542 43.5025 67.4092 43.7078 67.3227C43.9131 67.2362 44.0993 67.11 44.2555 66.9512L60.2043 51.0023C60.3611 50.8456 60.4854 50.6596 60.5702 50.4549C60.655 50.2501 60.6987 50.0306 60.6987 49.809C60.6987 49.5874 60.655 49.3679 60.5702 49.1632C60.4854 48.9584 60.3611 48.7724 60.2043 48.6157Z" fill="#3E61EE"/>
<path d="M37.2795 69.854C36.8884 69.8534 36.5092 69.9885 36.2065 70.2362C35.9039 70.4839 35.6965 70.829 35.6198 71.2125C35.543 71.596 35.6017 71.9942 35.7857 72.3393C35.9698 72.6844 36.2678 72.955 36.629 73.1049C36.9903 73.2549 37.3923 73.2749 37.7666 73.1616C38.141 73.0483 38.4644 72.8086 38.6818 72.4835C38.8992 72.1584 38.9971 71.7679 38.9589 71.3787C38.9206 70.9895 38.7485 70.6256 38.472 70.349C38.1553 70.0332 37.7267 69.8553 37.2795 69.854V69.854Z" fill="#3E61EE"/>
<path d="M75.5761 69.2882C75.2597 68.9717 74.8305 68.7939 74.3829 68.7939C73.9354 68.7939 73.5062 68.9717 73.1897 69.2882L68.9493 73.5286C68.7905 73.6848 68.6642 73.8709 68.5777 74.0762C68.4912 74.2815 68.4462 74.5019 68.4453 74.7246C68.4444 74.9474 68.4876 75.1681 68.5725 75.3741C68.6573 75.5801 68.7821 75.7672 68.9396 75.9247C69.0971 76.0823 69.2842 76.207 69.4902 76.2919C69.6962 76.3767 69.9169 76.4199 70.1397 76.419C70.3624 76.4181 70.5828 76.3731 70.7881 76.2866C70.9934 76.2001 71.1795 76.0738 71.3357 75.915L75.5761 71.6746C75.8926 71.3581 76.0704 70.9289 76.0704 70.4814C76.0704 70.0338 75.8926 69.6046 75.5761 69.2882V69.2882Z" fill="#3E61EE"/>
<path d="M64.7122 77.7657L64.6436 77.8341C64.3335 78.1514 64.1609 78.578 64.1631 79.0216C64.1653 79.4653 64.3421 79.8902 64.6552 80.2044C64.9683 80.5187 65.3926 80.697 65.8362 80.7008C66.2798 80.7046 66.707 80.5336 67.0255 80.2247L67.0941 80.1564C67.4041 79.839 67.5767 79.4124 67.5745 78.9688C67.5724 78.5252 67.3956 78.1003 67.0825 77.786C66.7694 77.4717 66.3451 77.2934 65.9015 77.2896C65.4579 77.2858 65.0306 77.4569 64.7122 77.7657V77.7657Z" fill="#3E61EE"/>
<path d="M80.9609 47.0386C81.182 47.039 81.4011 46.9958 81.6055 46.9114C81.8099 46.8271 81.9957 46.7032 82.1522 46.547L82.1998 46.4998C82.5168 46.1837 82.6953 45.7547 82.696 45.3071C82.6967 44.8595 82.5196 44.4299 82.2036 44.1129C81.8876 43.7959 81.4586 43.6174 81.0109 43.6167C80.5633 43.616 80.1337 43.7931 79.8167 44.1091L79.7692 44.1567C79.5328 44.3925 79.3717 44.6931 79.3062 45.0205C79.2407 45.348 79.2739 45.6875 79.4014 45.996C79.529 46.3046 79.7452 46.5684 80.0227 46.7541C80.3003 46.9397 80.6267 47.0388 80.9606 47.0389L80.9609 47.0386Z" fill="#3E61EE"/>
<path d="M76.7322 49.581C76.4157 49.2646 75.9866 49.0869 75.5391 49.0869C75.0917 49.0869 74.6625 49.2646 74.3461 49.581L55.4348 68.4928C55.276 68.649 55.1497 68.8351 55.0632 69.0404C54.9766 69.2457 54.9316 69.466 54.9307 69.6888C54.9297 69.9116 54.9729 70.1323 55.0577 70.3383C55.1425 70.5443 55.2673 70.7314 55.4248 70.889C55.5823 71.0465 55.7694 71.1713 55.9754 71.2561C56.1813 71.341 56.4021 71.3842 56.6248 71.3833C56.8476 71.3825 57.068 71.3375 57.2733 71.251C57.4786 71.1645 57.6647 71.0383 57.8209 70.8795L76.7328 51.9674C77.0491 51.6509 77.2268 51.2216 77.2267 50.7741C77.2266 50.3265 77.0487 49.8974 76.7322 49.581V49.581Z" fill="#3E61EE"/>
<path d="M82.9958 101.886L80.5051 104.377C80.1886 104.693 80.0108 105.123 80.0107 105.57C80.0107 106.018 80.1885 106.447 80.5049 106.763C80.8214 107.08 81.2506 107.258 81.6982 107.258C82.1457 107.258 82.575 107.08 82.8915 106.764L85.382 104.273C85.5422 104.117 85.6698 103.931 85.7574 103.725C85.8451 103.52 85.891 103.299 85.8925 103.075C85.8941 102.852 85.8512 102.63 85.7663 102.423C85.6815 102.216 85.5564 102.028 85.3984 101.87C85.2403 101.712 85.0525 101.587 84.8457 101.502C84.6389 101.417 84.4173 101.375 84.1937 101.376C83.9702 101.378 83.7492 101.423 83.5436 101.511C83.3379 101.599 83.1517 101.726 82.9958 101.886V101.886Z" fill="#3E61EE"/>
<path d="M76.5186 108.364L76.3709 108.511C76.212 108.668 76.0856 108.854 75.999 109.059C75.9124 109.264 75.8673 109.484 75.8662 109.707C75.8652 109.93 75.9083 110.151 75.993 110.357C76.0777 110.563 76.2023 110.75 76.3598 110.908C76.5172 111.065 76.7043 111.19 76.9102 111.275C77.1161 111.36 77.3368 111.403 77.5596 111.403C77.7823 111.402 78.0027 111.357 78.2081 111.27C78.4134 111.184 78.5996 111.058 78.7559 110.899L78.9038 110.752C79.0606 110.595 79.185 110.409 79.27 110.204C79.3549 110 79.3986 109.78 79.3988 109.559C79.3989 109.337 79.3553 109.117 79.2706 108.913C79.1859 108.708 79.0617 108.522 78.9051 108.365C78.7485 108.208 78.5625 108.084 78.3578 107.999C78.1531 107.914 77.9337 107.87 77.7121 107.87C77.4905 107.87 77.271 107.914 77.0662 107.998C76.8615 108.083 76.6753 108.207 76.5186 108.364V108.364Z" fill="#3E61EE"/>
<path d="M78.4037 132.45L75.8399 135.015C75.5234 135.331 75.3457 135.76 75.3457 136.208C75.3458 136.656 75.5236 137.085 75.8401 137.401C76.1567 137.718 76.586 137.896 77.0335 137.895C77.4811 137.895 77.9104 137.718 78.2268 137.401L80.7907 134.837C81.1072 134.52 81.2849 134.091 81.2849 133.643C81.2848 133.196 81.107 132.767 80.7904 132.45C80.4739 132.134 80.0446 131.956 79.597 131.956C79.1494 131.956 78.7202 132.134 78.4037 132.45V132.45Z" fill="#3E61EE"/>
<path d="M108.969 101.886L86.4032 124.453C86.243 124.609 86.1154 124.795 86.0277 125.001C85.9401 125.207 85.8941 125.428 85.8926 125.651C85.8911 125.875 85.934 126.096 86.0188 126.303C86.1036 126.51 86.2287 126.698 86.3868 126.856C86.5448 127.014 86.7327 127.139 86.9395 127.224C87.1463 127.309 87.3679 127.352 87.5914 127.35C87.815 127.349 88.036 127.303 88.2416 127.215C88.4472 127.127 88.6334 127 88.7893 126.84L111.355 104.274C111.668 103.956 111.842 103.529 111.84 103.083C111.838 102.638 111.661 102.212 111.346 101.897C111.031 101.582 110.605 101.405 110.159 101.403C109.714 101.401 109.286 101.575 108.969 101.887V101.886Z" fill="#3E61EE"/>
<path d="M121.954 88.8997L117.649 93.2045C117.333 93.521 117.155 93.9503 117.155 94.3979C117.155 94.8455 117.333 95.2747 117.65 95.5912C117.966 95.9076 118.396 96.0854 118.843 96.0853C119.291 96.0853 119.72 95.9074 120.036 95.5909L124.34 91.2864C124.656 90.9698 124.834 90.5405 124.834 90.0929C124.834 89.6453 124.656 89.216 124.34 88.8995C124.183 88.7428 123.997 88.6185 123.792 88.5337C123.587 88.4489 123.368 88.4053 123.146 88.4053C122.699 88.4053 122.269 88.5831 121.953 88.8997H121.954Z" fill="#3E61EE"/>
<path d="M60.9995 17.8732L55.4347 23.4389C55.1182 23.7554 54.9404 24.1847 54.9404 24.6322C54.9404 25.0798 55.1182 25.5091 55.4347 25.8256C55.7512 26.1421 56.1805 26.3199 56.6281 26.3199C57.0757 26.3199 57.5049 26.1421 57.8214 25.8256L63.3871 20.2597C63.5438 20.1029 63.6681 19.9169 63.7529 19.7122C63.8376 19.5074 63.8813 19.288 63.8813 19.0664C63.8813 18.8447 63.8376 18.6253 63.7528 18.4206C63.668 18.2158 63.5436 18.0298 63.3869 17.8731C63.2302 17.7164 63.0442 17.5921 62.8394 17.5073C62.6347 17.4225 62.4152 17.3789 62.1936 17.3789C61.972 17.3789 61.7526 17.4226 61.5478 17.5074C61.3431 17.5922 61.1571 17.7165 61.0004 17.8732H60.9995Z" fill="#3E61EE"/>
<path d="M20.2481 61.0109C20.5646 61.3273 20.9938 61.5051 21.4413 61.5051C21.8889 61.5051 22.3181 61.3273 22.6345 61.0109L49.234 34.4116C49.5505 34.0952 49.7284 33.666 49.7284 33.2184C49.7284 32.7708 49.5506 32.3416 49.2342 32.0251C48.9177 31.7086 48.4885 31.5308 48.0409 31.5308C47.5934 31.5307 47.1641 31.7085 46.8476 32.025L20.2481 58.6245C19.9317 58.9409 19.7539 59.3701 19.7539 59.8177C19.7539 60.2652 19.9317 60.6944 20.2481 61.0109V61.0109Z" fill="#3E61EE"/>
<path d="M10.2473 72.6989C10.4689 72.6991 10.6884 72.6556 10.8932 72.5708C11.098 72.486 11.284 72.3616 11.4406 72.2048L14.1491 69.4963C14.3058 69.3396 14.4301 69.1535 14.5149 68.9488C14.5997 68.744 14.6433 68.5245 14.6433 68.3029C14.6433 68.0812 14.5996 67.8618 14.5148 67.657C14.43 67.4523 14.3056 67.2662 14.1489 67.1095C13.9922 66.9528 13.8061 66.8285 13.6014 66.7437C13.3966 66.6589 13.1771 66.6152 12.9555 66.6152C12.7338 66.6152 12.5144 66.6589 12.3096 66.7437C12.1048 66.8286 11.9188 66.9529 11.7621 67.1096L9.05365 69.8183C8.81769 70.0544 8.65701 70.3551 8.59195 70.6824C8.52688 71.0098 8.56035 71.3491 8.68811 71.6574C8.81587 71.9657 9.0322 72.2292 9.30973 72.4146C9.58725 72.6 9.91352 72.6989 10.2473 72.6989Z" fill="#3E61EE"/>
<path d="M124.383 26.0459L119.023 31.4062C118.71 31.7235 118.536 32.1514 118.538 32.5966C118.54 33.0417 118.718 33.4682 119.032 33.7829C119.347 34.0977 119.774 34.2754 120.219 34.2772C120.664 34.279 121.092 34.1048 121.409 33.7926L126.769 28.4326C126.928 28.2763 127.054 28.0902 127.141 27.885C127.227 27.6797 127.272 27.4593 127.273 27.2366C127.274 27.0138 127.231 26.7931 127.146 26.5871C127.061 26.3811 126.937 26.1939 126.779 26.0364C126.622 25.8789 126.435 25.7541 126.229 25.6692C126.023 25.5844 125.802 25.5411 125.579 25.542C125.356 25.5429 125.136 25.5879 124.931 25.6743C124.725 25.7608 124.539 25.8871 124.383 26.0459V26.0459Z" fill="#3E61EE"/>
<path d="M135.24 15.189L132.556 17.873C132.395 18.0289 132.268 18.2151 132.18 18.4207C132.092 18.6263 132.046 18.8473 132.045 19.0709C132.043 19.2944 132.086 19.516 132.171 19.7228C132.256 19.9296 132.381 20.1175 132.539 20.2756C132.697 20.4337 132.885 20.5587 133.092 20.6436C133.299 20.7285 133.52 20.7714 133.744 20.7699C133.967 20.7684 134.188 20.7225 134.394 20.6348C134.6 20.5472 134.786 20.4196 134.942 20.2594L137.626 17.5754C137.935 17.2576 138.107 16.8307 138.104 16.3871C138.101 15.9435 137.923 15.5189 137.61 15.2053C137.296 14.8916 136.872 14.714 136.428 14.711C135.984 14.7079 135.557 14.8797 135.24 15.189V15.189Z" fill="#3E61EE"/>
<path d="M64.4468 84.1297C61.7495 81.4323 58.5472 79.2926 55.023 77.8328C51.4987 76.3729 47.7214 75.6216 43.9067 75.6216C40.0921 75.6216 36.3147 76.3729 32.7905 77.8328C29.2662 79.2926 26.064 81.4323 23.3666 84.1297C23.1531 84.3432 22.9447 84.5603 22.7386 84.7794C22.5793 84.8997 22.4426 85.0473 22.335 85.2153C17.2974 90.804 14.6248 98.1294 14.88 105.649C15.1352 113.169 18.2981 120.296 23.703 125.53C29.1078 130.765 36.3328 133.698 43.8568 133.712C51.3808 133.726 58.6168 130.82 64.0413 125.606C64.064 125.585 64.086 125.563 64.1079 125.541C64.2204 125.431 64.3352 125.322 64.4477 125.21C66.9338 122.728 68.9466 119.813 70.3874 116.609C70.4341 116.525 70.4736 116.437 70.5055 116.346C72.8498 110.989 73.5256 105.05 72.4449 99.3033C71.3641 93.5567 68.577 88.269 64.4468 84.1297V84.1297ZM66.3799 92.2677C65.5158 92.6999 64.5289 92.8203 63.5863 92.6084C62.6437 92.3966 61.8032 91.8656 61.2071 91.1052C60.6111 90.3449 60.296 89.4019 60.3154 88.436C60.3347 87.4701 60.6872 86.5405 61.3131 85.8046C61.5663 86.0374 61.816 86.272 62.0601 86.5161C63.7637 88.2204 65.2179 90.1567 66.3799 92.2677V92.2677ZM24.3591 88.0346C24.9607 88.2714 25.5037 88.6359 25.9507 89.103C26.3977 89.57 26.738 90.1286 26.9481 90.74C27.1582 91.3514 27.2332 92.0011 27.1677 92.6443C27.1023 93.2874 26.8981 93.9088 26.5691 94.4653C26.2402 95.0219 25.7944 95.5004 25.2625 95.8679C24.7306 96.2354 24.1253 96.4831 23.4884 96.5939C22.8514 96.7047 22.198 96.6759 21.5733 96.5096C20.9486 96.3433 20.3674 96.0434 19.8698 95.6306C20.9134 92.8569 22.4326 90.2864 24.3591 88.0346V88.0346ZM25.7527 122.824C23.3614 120.445 21.4655 117.616 20.1748 114.5C18.8842 111.384 18.2243 108.043 18.2335 104.67C18.2347 102.769 18.4453 100.875 18.8615 99.0205C20.5128 99.9531 22.4461 100.256 24.3034 99.8728C26.1608 99.4898 27.8165 98.4469 28.9641 96.9371C30.1117 95.4273 30.6735 93.5529 30.5455 91.6608C30.4175 89.7687 29.6084 87.987 28.2679 86.6455C27.8336 86.2111 27.3501 85.8289 26.8271 85.5067C31.1517 81.6504 36.654 79.3711 42.4388 79.0395C48.2235 78.7079 53.9502 80.3437 58.6871 83.6806C57.5838 85.0112 56.9691 86.6793 56.9452 88.4077C56.9213 90.136 57.4896 91.8205 58.5556 93.1812C59.6216 94.5418 61.1212 95.4967 62.8051 95.887C64.489 96.2774 66.2557 96.0797 67.8117 95.3268C69.9193 100.757 70.1298 106.74 68.4088 112.304C67.5796 111.581 66.6073 111.04 65.5552 110.716C64.5031 110.393 63.3947 110.295 62.3022 110.428C61.2096 110.561 60.1573 110.923 59.2137 111.489C58.2701 112.056 57.4564 112.815 56.8254 113.717C56.1945 114.619 55.7604 115.643 55.5514 116.724C55.3424 117.805 55.3633 118.917 55.6126 119.989C55.8619 121.061 56.334 122.069 56.9984 122.946C57.6627 123.824 58.5043 124.552 59.4684 125.083C54.524 128.843 48.3852 130.686 42.1872 130.271C35.9892 129.856 30.1512 127.21 25.7527 122.824V122.824ZM62.2972 122.575C61.5763 122.419 60.905 122.088 60.3432 121.61C59.7814 121.132 59.3465 120.522 59.0773 119.836C58.8081 119.149 58.7129 118.406 58.8002 117.674C58.8874 116.942 59.1545 116.242 59.5776 115.638C60.0007 115.034 60.5667 114.544 61.225 114.211C61.8834 113.879 62.6138 113.715 63.3511 113.733C64.0885 113.751 64.8099 113.951 65.451 114.316C66.0922 114.681 66.6332 115.198 67.0259 115.822C65.8256 118.314 64.2287 120.595 62.2975 122.575H62.2972Z" fill="#17E5C3"/>
<path d="M41.7454 101.735C40.9545 102.526 40.4159 103.534 40.1976 104.631C39.9793 105.728 40.0913 106.865 40.5192 107.898C40.9472 108.931 41.672 109.815 42.6019 110.436C43.5319 111.057 44.6252 111.389 45.7437 111.389C46.8621 111.389 47.9555 111.057 48.8854 110.436C49.8154 109.815 50.5402 108.931 50.9681 107.898C51.3961 106.865 51.508 105.728 51.2898 104.631C51.0715 103.534 50.5329 102.526 49.7419 101.735C49.2194 101.206 48.5969 100.785 47.9105 100.498C47.2242 100.211 46.4876 100.063 45.7437 100.063C44.9997 100.063 44.2632 100.211 43.5768 100.498C42.8905 100.785 42.2679 101.206 41.7454 101.735V101.735ZM47.3558 107.346C46.9828 107.719 46.492 107.951 45.9671 108.003C45.4421 108.055 44.9154 107.923 44.4768 107.63C44.0381 107.337 43.7147 106.901 43.5615 106.396C43.4084 105.891 43.435 105.349 43.6368 104.861C43.8387 104.374 44.2033 103.972 44.6685 103.723C45.1337 103.474 45.6708 103.395 46.1882 103.498C46.7056 103.6 47.1713 103.88 47.5059 104.287C47.8406 104.695 48.0235 105.206 48.0235 105.734C48.0232 106.338 47.783 106.918 47.3558 107.346V107.346Z" fill="#17E5C3"/>
<path d="M40.5303 120.564C39.9326 121.162 39.5967 121.973 39.5967 122.818C39.5966 123.663 39.9324 124.474 40.53 125.072C41.1277 125.669 41.9383 126.005 42.7836 126.005C43.6289 126.005 44.4396 125.669 45.0373 125.072C45.3369 124.777 45.5751 124.425 45.7382 124.038C45.9013 123.65 45.9861 123.234 45.9876 122.813C45.9892 122.393 45.9075 121.976 45.7473 121.587C45.587 121.199 45.3515 120.845 45.0541 120.548C44.7567 120.251 44.4034 120.015 44.0146 119.855C43.6258 119.695 43.2091 119.613 42.7886 119.615C42.3681 119.616 41.952 119.701 41.5645 119.864C41.1769 120.027 40.8254 120.266 40.5303 120.565V120.564Z" fill="#17E5C3"/>
<path d="M28.1214 108.654C27.7806 108.313 27.3463 108.081 26.8734 107.987C26.4006 107.893 25.9104 107.941 25.465 108.125C25.0195 108.31 24.6387 108.622 24.3708 109.023C24.103 109.424 23.96 109.895 23.96 110.377C23.96 110.859 24.103 111.331 24.3708 111.732C24.6387 112.132 25.0195 112.445 25.465 112.629C25.9104 112.814 26.4006 112.862 26.8734 112.768C27.3463 112.673 27.7806 112.441 28.1214 112.1C28.5781 111.643 28.8347 111.023 28.8347 110.377C28.8347 109.731 28.5781 109.111 28.1214 108.654V108.654Z" fill="#17E5C3"/>
<path d="M45.0672 89.8875C45.3872 89.8881 45.7041 89.8254 45.9998 89.7031C46.2955 89.5808 46.5641 89.4013 46.7902 89.1748C47.1896 88.7761 47.4383 88.2512 47.494 87.6896C47.5497 87.1279 47.409 86.5644 47.0957 86.095C46.7825 85.6255 46.3161 85.2792 45.7761 85.1151C45.2361 84.951 44.656 84.9793 44.1345 85.195C43.613 85.4108 43.1825 85.8007 42.9163 86.2984C42.6501 86.796 42.5647 87.3706 42.6747 87.9241C42.7847 88.4777 43.0832 88.9759 43.5195 89.334C43.9557 89.6921 44.5026 89.8878 45.0669 89.8878L45.0672 89.8875Z" fill="#17E5C3"/>
</svg>
