<svg viewBox="0 0 144 144" fill="none" xmlns="http://www.w3.org/2000/svg">
<path d="M20.7949 115.712V47.9697C20.7949 45.8871 21.6222 43.8898 23.0949 42.4171C24.5675 40.9445 26.5648 40.1172 28.6474 40.1172H20.2099C18.1273 40.1172 16.13 40.9445 14.6574 42.4171C13.1847 43.8898 12.3574 45.8871 12.3574 47.9697V115.712C12.3574 117.794 13.1847 119.791 14.6574 121.264C16.13 122.737 18.1273 123.564 20.2099 123.564H28.6474C26.5648 123.564 24.5675 122.737 23.0949 121.264C21.6222 119.791 20.7949 117.794 20.7949 115.712Z" fill="#3E61EE" fill-opacity="0.2"/>
<path d="M74.1256 1.86791C72.4359 1.84507 70.7836 2.36614 69.4127 3.35419C68.0418 4.34223 67.0249 5.7449 66.5122 7.35509C63.5844 16.1357 62.0938 18.1101 62.0938 27.3632V60.6323H70.5313V27.3632C70.5313 18.1101 72.0219 16.1357 74.9497 7.35509C75.5236 5.55282 76.7291 4.01843 78.3444 3.03425C77.0707 2.26836 75.6119 1.86505 74.1256 1.86791Z" fill="#3E61EE" fill-opacity="0.2"/>
<path d="M123.79 38.531H86.0625V41.906H123.79C124.593 41.896 125.39 42.0453 126.135 42.3454C126.88 42.6455 127.558 43.0904 128.129 43.6543C128.701 44.2181 129.155 44.8898 129.466 45.6305C129.776 46.3711 129.936 47.1659 129.938 47.9689V106.875H120.047C120.549 105.661 120.804 104.36 120.797 103.046C120.797 101.448 120.419 99.8714 119.693 98.4468C118.967 97.0222 117.914 95.7897 116.621 94.8501C115.327 93.9106 113.83 93.2906 112.25 93.041C110.671 92.7914 109.055 92.9193 107.535 93.4142C107.224 92.294 106.664 91.2587 105.897 90.3859C105.129 89.5131 104.174 88.8255 103.102 88.3746C102.031 87.9237 100.872 87.7212 99.7109 87.7824C98.5502 87.8437 97.4184 88.1669 96.4004 88.728C95.7007 87.7406 94.7046 87.002 93.5566 86.6191C92.4087 86.2363 91.1686 86.2292 90.0163 86.5989C88.864 86.9686 87.8595 87.6958 87.1486 88.6751C86.4376 89.6543 86.0572 90.8346 86.0625 92.0448V95.2333C86.0625 96.0538 85.7365 96.8407 85.1564 97.4209C84.5762 98.0011 83.7893 98.327 82.9688 98.327C82.1482 98.327 81.3613 98.0011 80.7811 97.4209C80.201 96.8407 79.875 96.0538 79.875 95.2333V60.7498H76.5V95.2333C76.5 96.9489 77.1815 98.5943 78.3947 99.8074C79.6078 101.021 81.2531 101.702 82.9688 101.702C84.6844 101.702 86.3297 101.021 87.5428 99.8074C88.756 98.5943 89.4375 96.9489 89.4375 95.2333V92.0448C89.4347 91.5182 89.6104 91.0062 89.9361 90.5925C90.2618 90.1787 90.7181 89.8875 91.2306 89.7666C91.743 89.6456 92.2814 89.702 92.7577 89.9264C93.234 90.1509 93.6202 90.5302 93.8531 91.0024C92.9165 92.3054 92.4127 93.8696 92.4128 95.4743C92.4036 95.7015 92.4403 95.9283 92.5208 96.1409C92.6014 96.3536 92.7241 96.5478 92.8816 96.7118C93.0391 96.8759 93.2281 97.0064 93.4373 97.0956C93.6465 97.1847 93.8715 97.2307 94.0989 97.2307C94.3263 97.2307 94.5514 97.1847 94.7606 97.0956C94.9698 97.0064 95.1588 96.8759 95.3163 96.7118C95.4738 96.5478 95.5965 96.3536 95.677 96.1409C95.7576 95.9283 95.7943 95.7015 95.785 95.4743C95.7885 94.3636 96.219 93.2968 96.9873 92.4947C97.7556 91.6926 98.803 91.2166 99.9125 91.1654C101.022 91.1142 102.109 91.4916 102.948 92.2195C103.787 92.9475 104.314 93.9701 104.419 95.0758C103.89 95.4903 103.403 95.9564 102.966 96.4671C102.819 96.6353 102.707 96.8308 102.637 97.0425C102.566 97.2541 102.538 97.4777 102.555 97.7002C102.571 97.9227 102.631 98.1398 102.732 98.3389C102.833 98.5379 102.972 98.715 103.142 98.8599C103.312 99.0047 103.508 99.1145 103.721 99.1829C103.933 99.2512 104.157 99.2767 104.379 99.258C104.602 99.2393 104.818 99.1766 105.016 99.0737C105.214 98.9707 105.39 98.8296 105.533 98.6584C106.655 97.3379 108.242 96.4995 109.966 96.3167C111.689 96.1339 113.417 96.6206 114.791 97.6761C116.166 98.7317 117.082 100.275 117.35 101.987C117.619 103.7 117.218 105.449 116.232 106.875H27.2708C26.8063 105.949 26.5689 104.926 26.5781 103.89C26.5772 102.42 27.0565 100.989 27.9432 99.8154C28.8298 98.6421 30.0753 97.7904 31.4903 97.3897C32.9054 96.989 34.4125 97.0614 35.7827 97.5956C37.1529 98.1299 38.3111 99.097 39.0814 100.35C39.1977 100.538 39.3501 100.702 39.5298 100.832C39.7095 100.962 39.913 101.055 40.1287 101.106C40.3444 101.158 40.5681 101.166 40.787 101.131C41.0059 101.095 41.2156 101.017 41.4044 100.901C41.5931 100.785 41.757 100.632 41.8869 100.452C42.0167 100.273 42.1098 100.069 42.161 99.8535C42.2122 99.6378 42.2204 99.4142 42.1851 99.1953C42.1498 98.9764 42.0718 98.7666 41.9555 98.5779C41.658 98.0973 41.3214 97.642 40.9492 97.2167C41.0882 95.8711 41.7129 94.6223 42.7062 93.704C43.6995 92.7858 44.9934 92.261 46.3458 92.2278C47.0691 92.2168 47.7873 92.3511 48.4578 92.6228C49.1283 92.8945 49.7374 93.2981 50.249 93.8096C50.7954 94.3463 51.2302 94.986 51.5281 95.6916C51.826 96.3973 51.9811 97.155 51.9846 97.9209C51.9865 99.5753 52.6446 101.161 53.8144 102.331C54.9842 103.501 56.5703 104.159 58.2247 104.161C58.6722 104.161 59.1014 103.983 59.4179 103.666C59.7344 103.35 59.9122 102.921 59.9122 102.473C59.9122 102.026 59.7344 101.596 59.4179 101.28C59.1014 100.964 58.6722 100.786 58.2247 100.786C57.4651 100.785 56.7369 100.483 56.1998 99.9455C55.6627 99.4084 55.3605 98.6802 55.3596 97.9206C55.3562 96.5399 55.0397 95.178 54.434 93.9373C54.524 93.392 54.817 92.9009 55.2541 92.5628C55.6912 92.2246 56.2401 92.0643 56.7906 92.1142C57.341 92.164 57.8522 92.4203 58.2214 92.8315C58.5907 93.2427 58.7907 93.7784 58.7812 94.331V95.2336C58.7812 96.9492 59.4628 98.5945 60.6759 99.8077C61.889 101.021 63.5344 101.702 65.25 101.702C66.9656 101.702 68.611 101.021 69.8241 99.8077C71.0372 98.5945 71.7188 96.9492 71.7188 95.2336V60.7498H68.3438V95.2333C68.3438 96.0538 68.0178 96.8407 67.4376 97.4209C66.8574 98.0011 66.0705 98.327 65.25 98.327C64.4295 98.327 63.6426 98.0011 63.0624 97.4209C62.4822 96.8407 62.1562 96.0538 62.1562 95.2333V94.331C62.1642 93.1586 61.8012 92.0136 61.1193 91.0598C60.4374 90.106 59.4714 89.3921 58.3594 89.0203C57.2474 88.6485 56.0464 88.6378 54.9279 88.9897C53.8094 89.3415 52.8308 90.0379 52.1319 90.9794C50.5071 89.5749 48.4215 88.8187 46.2741 88.8554C44.4448 88.8999 42.6732 89.5038 41.1975 90.5857C39.7219 91.6676 38.6131 93.1756 38.0205 94.9068C36.4763 94.1007 34.7503 93.7064 33.0092 93.7621C31.2681 93.8177 29.5708 94.3214 28.0813 95.2245C26.5917 96.1276 25.3602 97.3996 24.5057 98.9176C23.6511 100.436 23.2025 102.148 23.2031 103.89C23.1944 104.902 23.3451 105.909 23.6495 106.875H14.0625V47.9689C14.0636 47.1659 14.2239 46.3711 14.5342 45.6305C14.8446 44.8898 15.2988 44.2181 15.8705 43.6543C16.4422 43.0904 17.1202 42.6455 17.865 42.3454C18.6098 42.0453 19.4068 41.896 20.2098 41.906H62.1562V38.531H20.2098C18.9637 38.5215 17.7281 38.7585 16.574 39.2284C15.4199 39.6983 14.3702 40.3918 13.4851 41.2689C12.6001 42.1461 11.8973 43.1897 11.4172 44.3395C10.937 45.4894 10.6891 46.7229 10.6875 47.9689V115.712C10.6889 116.959 10.9367 118.192 11.4167 119.343C11.8967 120.493 12.5994 121.537 13.4844 122.415C14.3694 123.292 15.4191 123.986 16.5734 124.457C17.7276 124.927 18.9634 125.165 20.2098 125.156H54.8438V140.344H47.8687C47.4212 140.344 46.992 140.521 46.6755 140.838C46.359 141.154 46.1812 141.583 46.1812 142.031C46.1812 142.479 46.359 142.908 46.6755 143.224C46.992 143.541 47.4212 143.719 47.8687 143.719H97.5443C97.9918 143.719 98.421 143.541 98.7375 143.224C99.054 142.908 99.2318 142.479 99.2318 142.031C99.2318 141.583 99.054 141.154 98.7375 140.838C98.421 140.521 97.9918 140.344 97.5443 140.344H89.1562V125.156H123.79C125.037 125.165 126.272 124.927 127.427 124.457C128.581 123.986 129.631 123.292 130.516 122.415C131.401 121.537 132.103 120.493 132.583 119.343C133.063 118.192 133.311 116.959 133.312 115.712V47.9689C133.311 46.7229 133.063 45.4894 132.583 44.3395C132.103 43.1897 131.4 42.1461 130.515 41.2689C129.63 40.3918 128.58 39.6983 127.426 39.2284C126.272 38.7585 125.036 38.5215 123.79 38.531ZM85.7812 140.344H58.2188V125.156H85.7812V140.344ZM129.938 115.712C129.937 116.516 129.777 117.311 129.466 118.052C129.156 118.793 128.702 119.465 128.131 120.03C127.559 120.594 126.881 121.039 126.136 121.34C125.391 121.641 124.594 121.791 123.79 121.781H20.2098C19.4065 121.791 18.6092 121.641 17.8642 121.34C17.1192 121.039 16.4412 120.594 15.8695 120.03C15.2978 119.465 14.8437 118.793 14.5335 118.052C14.2234 117.311 14.0633 116.516 14.0625 115.712V110.25H117.046H117.063C117.063 110.25 117.082 110.25 117.091 110.25H129.938V115.712Z" fill="#3E61EE"/>
<path d="M41.3438 72.8438V78.6299C41.3513 79.0956 41.5351 79.541 41.8581 79.8765C42.1811 80.212 42.6194 80.4124 43.0844 80.4375H48.8596C49.3273 80.4135 49.7687 80.2141 50.0959 79.8791C50.4231 79.544 50.612 79.098 50.625 78.6299V72.8438H47.25V77.0625H44.7188V72.8438H41.3438Z" fill="#3E61EE"/>
<path d="M112.781 85.3188C113.791 85.3188 114.609 84.5004 114.609 83.4907C114.609 82.4811 113.791 81.6626 112.781 81.6626C111.772 81.6626 110.953 82.4811 110.953 83.4907C110.953 84.5004 111.772 85.3188 112.781 85.3188Z" fill="#3E61EE"/>
<path d="M114.188 78.5688V67.0376C114.188 66.59 114.01 66.1608 113.693 65.8444C113.377 65.5279 112.948 65.3501 112.5 65.3501C112.052 65.3501 111.623 65.5279 111.307 65.8444C110.99 66.1608 110.812 66.59 110.812 67.0376V78.5688C110.812 79.0164 110.99 79.4456 111.307 79.7621C111.623 80.0785 112.052 80.2563 112.5 80.2563C112.948 80.2563 113.377 80.0785 113.693 79.7621C114.01 79.4456 114.188 79.0164 114.188 78.5688Z" fill="#3E61EE"/>
<path d="M118.406 76.8813C119.416 76.8813 120.234 76.0629 120.234 75.0532C120.234 74.0436 119.416 73.2251 118.406 73.2251C117.397 73.2251 116.578 74.0436 116.578 75.0532C116.578 76.0629 117.397 76.8813 118.406 76.8813Z" fill="#3E61EE"/>
<path d="M118.125 53.1911C118.573 53.1911 119.002 53.0133 119.318 52.6968C119.635 52.3804 119.812 51.9511 119.812 51.5036V48.4751C119.812 48.0275 119.635 47.5983 119.318 47.2819C119.002 46.9654 118.573 46.7876 118.125 46.7876C117.677 46.7876 117.248 46.9654 116.932 47.2819C116.615 47.5983 116.438 48.0275 116.438 48.4751V51.5036C116.438 51.9511 116.615 52.3804 116.932 52.6968C117.248 53.0133 117.677 53.1911 118.125 53.1911Z" fill="#3E61EE"/>
<path d="M116.438 70.131C116.438 70.5786 116.615 71.0078 116.932 71.3242C117.248 71.6407 117.677 71.8185 118.125 71.8185C118.573 71.8185 119.002 71.6407 119.318 71.3242C119.635 71.0078 119.812 70.5786 119.812 70.131V57.8179C119.812 57.3703 119.635 56.9411 119.318 56.6246C119.002 56.3082 118.573 56.1304 118.125 56.1304C117.677 56.1304 117.248 56.3082 116.932 56.6246C116.615 56.9411 116.438 57.3703 116.438 57.8179V70.131Z" fill="#3E61EE"/>
<path d="M29.8125 86.4438C30.8221 86.4438 31.6406 85.6254 31.6406 84.6157C31.6406 83.6061 30.8221 82.7876 29.8125 82.7876C28.8029 82.7876 27.9844 83.6061 27.9844 84.6157C27.9844 85.6254 28.8029 86.4438 29.8125 86.4438Z" fill="#3E61EE"/>
<path d="M31.2188 79.6938V68.1626C31.2188 67.715 31.041 67.2858 30.7245 66.9694C30.408 66.6529 29.9788 66.4751 29.5312 66.4751C29.0837 66.4751 28.6545 66.6529 28.338 66.9694C28.0215 67.2858 27.8438 67.715 27.8438 68.1626V79.6938C27.8438 80.1414 28.0215 80.5706 28.338 80.8871C28.6545 81.2035 29.0837 81.3813 29.5312 81.3813C29.9788 81.3813 30.408 81.2035 30.7245 80.8871C31.041 80.5706 31.2188 80.1414 31.2188 79.6938Z" fill="#3E61EE"/>
<path d="M35.4375 78.0063C36.4471 78.0063 37.2656 77.1879 37.2656 76.1782C37.2656 75.1686 36.4471 74.3501 35.4375 74.3501C34.4279 74.3501 33.6094 75.1686 33.6094 76.1782C33.6094 77.1879 34.4279 78.0063 35.4375 78.0063Z" fill="#3E61EE"/>
<path d="M35.1562 54.3161C35.6038 54.3161 36.033 54.1383 36.3495 53.8218C36.666 53.5054 36.8438 53.0761 36.8438 52.6286V49.6001C36.8438 49.1525 36.666 48.7233 36.3495 48.4069C36.033 48.0904 35.6038 47.9126 35.1562 47.9126C34.7087 47.9126 34.2795 48.0904 33.963 48.4069C33.6465 48.7233 33.4688 49.1525 33.4688 49.6001V52.6286C33.4688 53.0761 33.6465 53.5054 33.963 53.8218C34.2795 54.1383 34.7087 54.3161 35.1562 54.3161Z" fill="#3E61EE"/>
<path d="M33.4688 71.256C33.4688 71.7036 33.6465 72.1328 33.963 72.4492C34.2795 72.7657 34.7087 72.9435 35.1562 72.9435C35.6038 72.9435 36.033 72.7657 36.3495 72.4492C36.666 72.1328 36.8438 71.7036 36.8438 71.256V58.9429C36.8438 58.4953 36.666 58.0661 36.3495 57.7496C36.033 57.4332 35.6038 57.2554 35.1562 57.2554C34.7087 57.2554 34.2795 57.4332 33.963 57.7496C33.6465 58.0661 33.4688 58.4953 33.4688 58.9429V71.256Z" fill="#3E61EE"/>
<path d="M97.875 103.6C98.9623 103.6 99.8438 102.719 99.8438 101.631C99.8438 100.544 98.9623 99.6626 97.875 99.6626C96.7877 99.6626 95.9062 100.544 95.9062 101.631C95.9062 102.719 96.7877 103.6 97.875 103.6Z" fill="#3E61EE"/>
<path d="M64.125 89.5376C65.2123 89.5376 66.0938 88.6562 66.0938 87.5688C66.0938 86.4815 65.2123 85.6001 64.125 85.6001C63.0377 85.6001 62.1562 86.4815 62.1562 87.5688C62.1562 88.6562 63.0377 89.5376 64.125 89.5376Z" fill="#3E61EE"/>
<path d="M47.25 100.788C48.3373 100.788 49.2188 99.9062 49.2188 98.8188C49.2188 97.7315 48.3373 96.8501 47.25 96.8501C46.1627 96.8501 45.2812 97.7315 45.2812 98.8188C45.2812 99.9062 46.1627 100.788 47.25 100.788Z" fill="#3E61EE"/>
<path d="M65.9795 23.3945C66.4041 23.536 66.8674 23.503 67.2677 23.3029C67.6679 23.1028 67.9723 22.7519 68.1139 22.3274C69.179 19.1321 71.9181 17.9939 74.1265 17.9939C76.3349 17.9939 79.0737 19.1321 80.1388 22.3274C80.2805 22.752 80.5851 23.1029 80.9855 23.3029C81.3859 23.5029 81.8494 23.5356 82.274 23.3939C82.6986 23.2522 83.0495 22.9476 83.2495 22.5472C83.4495 22.1467 83.4822 21.6832 83.3405 21.2587C82.6958 19.3248 81.459 17.6428 79.8053 16.4509C78.1516 15.259 76.1648 14.6177 74.1263 14.6177C72.0879 14.6177 70.1011 15.259 68.4473 16.4509C66.7936 17.6428 65.5568 19.3248 64.9122 21.2587C64.8419 21.469 64.8138 21.6911 64.8294 21.9123C64.845 22.1335 64.9041 22.3494 65.0032 22.5478C65.1023 22.7461 65.2396 22.923 65.4071 23.0683C65.5746 23.2136 65.7691 23.3244 65.9795 23.3945Z" fill="#968B82"/>
<path d="M93.2186 48.5212C91.778 48.5217 90.3954 47.9536 89.3714 46.9403C88.3474 45.927 87.7647 44.5505 87.75 43.11V27.3639C87.75 19.6149 86.7409 16.639 84.823 11.2365C84.3694 9.95874 83.8789 8.51058 83.3161 6.82252C82.6736 4.88902 81.4387 3.20691 79.7864 2.01481C78.1341 0.822708 76.1484 0.181152 74.1109 0.181152C72.0735 0.181152 70.0878 0.822708 68.4355 2.01481C66.7832 3.20691 65.5482 4.88902 64.9058 6.82252C64.3433 8.51002 63.8629 9.95874 63.4095 11.2365C61.4914 16.639 60.4688 19.6149 60.4688 27.3639V43.11C60.4541 44.5505 59.8714 45.9271 58.8473 46.9404C57.8232 47.9537 56.4405 48.5218 54.9998 48.5212C51.3885 48.5231 47.9248 49.9546 45.3659 52.5028C42.8069 55.051 41.3608 58.5087 41.3438 62.1199V73.5499C41.3438 74.4817 42.1526 75.3752 43.0844 75.3752H54.5625V78.6301C54.5736 79.0974 54.7607 79.5432 55.0864 79.8784C55.4121 80.2136 55.8525 80.4133 56.3192 80.4377H62.0944C62.5603 80.413 62.9997 80.2129 63.3242 79.8776C63.6487 79.5423 63.8343 79.0967 63.8438 78.6301V70.3127H84.375V78.6301C84.3918 79.0999 84.5842 79.5462 84.9142 79.8809C85.2443 80.2156 85.6878 80.4143 86.1573 80.4377H91.9325C92.3957 80.412 92.8318 80.2108 93.152 79.875C93.4722 79.5392 93.6525 79.0941 93.6562 78.6301V75.3752H97.5938V78.6301C97.6141 79.1014 97.8098 79.5481 98.1425 79.8825C98.4752 80.2169 98.9209 80.415 99.3921 80.4377H105.167C106.099 80.4377 106.875 79.5622 106.875 78.6301V62.1208C106.858 58.5093 105.412 55.0514 102.853 52.503C100.294 49.9546 96.8301 48.523 93.2186 48.5212ZM60.4688 77.0627H57.9375V75.3752H60.4688V77.0627ZM60.4688 72.0002H44.7188V70.3127H60.4688V72.0002ZM60.4688 66.9377H44.7188V62.1199C44.7348 59.4034 45.825 56.8036 47.7512 54.8881C49.6774 52.9726 52.2833 51.897 54.9998 51.8962C57.04 51.8962 58.7812 51.1953 60.4688 50.0245V66.9377ZM84.375 66.9377H63.8438V62.4377H84.375V66.9377ZM84.375 40.7815V59.0627H63.8438V27.3639C63.8438 20.1962 64.6841 17.7423 66.593 12.3657C67.0517 11.0736 67.556 9.60943 68.1289 7.88986C69.194 4.69486 71.9257 3.55636 74.1336 3.55636C76.3414 3.55636 79.0771 4.69486 80.1422 7.88986C80.7151 9.60886 81.1856 11.0736 81.6443 12.3657C83.5532 17.7423 84.375 20.1962 84.375 27.3639V40.7815ZM90.2812 77.0627H87.75V75.3752H90.2812V77.0627ZM103.5 77.0627H100.969V75.3752H103.5V77.0627ZM103.5 72.0002H87.75V70.3127H103.5V72.0002ZM103.5 66.9377H87.75V50.0245C89.4375 51.1953 91.1787 51.8962 93.2186 51.8962C95.9352 51.897 98.5411 52.9726 100.467 54.8881C102.394 56.8036 103.484 59.4034 103.5 62.1199V66.9377Z" fill="#968B82"/>
</svg>
