<svg viewBox="0 0 144 144" fill="none" xmlns="http://www.w3.org/2000/svg">
<path d="M18.8579 102.949L18.2561 101.714C14.2254 93.2923 11.9572 84.1363 11.5904 74.8072L11.5342 72.0104V72.0003C11.5342 39.1756 34.4887 11.7161 65.2183 4.7855C65.2673 4.37066 65.3308 3.95947 65.4132 3.55531L65.3992 3.40625C30.4426 6.73062 3.09668 36.1719 3.09668 72.0003C3.09668 72.9397 3.11543 73.8753 3.15293 74.8072C3.86577 92.5852 11.4325 109.397 24.2671 121.72C37.1017 134.042 54.2078 140.918 72.0001 140.907C73.41 140.907 74.8087 140.859 76.1975 140.776C64.1668 140.035 52.5407 136.152 42.4793 129.515C32.418 122.878 24.2733 113.718 18.8579 102.949V102.949Z" fill="#3E61EE" fill-opacity="0.2"/>
<path d="M139.771 71.9719C137.934 73.6084 135.694 74.7246 133.282 75.2053C130.869 75.6859 128.372 75.5135 126.048 74.7058C123.725 73.8982 121.659 72.4846 120.065 70.6112C118.47 68.7378 117.405 66.4726 116.98 64.0498C116.554 61.627 116.783 59.1344 117.644 56.8298C118.504 54.5252 119.964 52.4923 121.873 50.941C123.783 49.3898 126.072 48.3766 128.503 48.0062C130.935 47.6359 133.422 47.9217 135.706 48.8343C135.913 48.9202 136.134 48.9643 136.358 48.964C136.581 48.9637 136.802 48.919 137.009 48.8324C137.215 48.7459 137.402 48.6193 137.558 48.4599C137.715 48.3006 137.839 48.1117 137.922 47.9042C138.005 47.6967 138.046 47.4747 138.043 47.2512C138.039 47.0277 137.992 46.8071 137.902 46.6022C137.813 46.3973 137.684 46.2121 137.522 46.0576C137.361 45.903 137.17 45.782 136.962 45.7017C134.118 44.5627 131.021 44.2043 127.992 44.6635C124.963 45.1228 122.112 46.3831 119.733 48.314C117.354 50.2449 115.535 52.7763 114.463 55.6462C113.391 58.5161 113.105 61.6204 113.635 64.6378C114.165 67.6552 115.492 70.4762 117.478 72.8089C119.464 75.1415 122.038 76.9011 124.932 77.9056C127.826 78.9101 130.936 79.123 133.941 78.5222C136.945 77.9215 139.734 76.529 142.019 74.4888C142.349 74.1894 142.546 73.7721 142.569 73.3278C142.592 72.8834 142.439 72.4479 142.143 72.1161C141.846 71.7843 141.431 71.5829 140.986 71.5559C140.542 71.5289 140.105 71.6784 139.771 71.9719V71.9719Z" fill="#3E61EE"/>
<path d="M12.0541 70.3125C8.49329 70.3047 5.01906 71.41 2.11728 73.4738C1.93654 73.602 1.78283 73.7646 1.66492 73.9522C1.54702 74.1399 1.46722 74.3489 1.4301 74.5674C1.39297 74.7859 1.39924 75.0095 1.44855 75.2256C1.49786 75.4416 1.58924 75.6458 1.71748 75.8266C1.84572 76.0073 2.00829 76.161 2.19593 76.2789C2.38357 76.3968 2.5926 76.4766 2.81108 76.5138C3.02955 76.5509 3.25321 76.5446 3.46926 76.4953C3.68531 76.446 3.88954 76.3546 4.07028 76.2264C5.844 74.9707 7.88894 74.151 10.0389 73.8341C12.189 73.5172 14.3834 73.7119 16.444 74.4025C18.5046 75.093 20.3733 76.2599 21.8982 77.8083C23.4231 79.3568 24.5612 81.2431 25.2201 83.314C25.879 85.385 26.0401 87.5821 25.6903 89.7271C25.3405 91.872 24.4897 93.9041 23.2069 95.6584C21.9242 97.4127 20.2457 98.8396 18.3078 99.8233C16.3699 100.807 14.2274 101.32 12.0541 101.32C11.5816 101.32 11.1093 101.296 10.6392 101.248C10.1939 101.203 9.74889 101.337 9.4021 101.62C9.0553 101.903 8.8351 102.312 8.78993 102.757C8.74477 103.202 8.87834 103.647 9.16126 103.994C9.44418 104.341 9.85328 104.561 10.2986 104.606C10.8819 104.665 11.4678 104.695 12.0541 104.695C16.6135 104.695 20.9861 102.884 24.2101 99.6596C27.434 96.4357 29.2452 92.063 29.2452 87.5037C29.2452 82.9443 27.434 78.5717 24.2101 75.3477C20.9861 72.1237 16.6135 70.3125 12.0541 70.3125V70.3125Z" fill="#3E61EE"/>
<path d="M77.1693 58.9434C74.8594 58.9431 72.6012 59.6279 70.6805 60.9111C68.7598 62.1943 67.2627 64.0182 66.3786 66.1522C65.4944 68.2863 65.263 70.6345 65.7136 72.9001C66.1641 75.1657 67.2763 77.2468 68.9096 78.8802C70.5429 80.5136 72.624 81.626 74.8895 82.0767C77.155 82.5274 79.5033 82.2961 81.6374 81.4122C83.7715 80.5282 85.5956 79.0313 86.8789 77.1106C88.1622 75.19 88.8471 72.9319 88.8471 70.622C88.8435 67.5259 87.6121 64.5576 85.4228 62.3682C83.2336 60.1788 80.2654 58.9472 77.1693 58.9434V58.9434ZM77.1693 78.9259C75.5269 78.9261 73.9213 78.4393 72.5556 77.527C71.1899 76.6147 70.1254 75.3178 69.4967 73.8005C68.868 72.2832 68.7034 70.6135 69.0237 69.0027C69.344 67.3918 70.1347 65.9121 71.296 64.7506C72.4573 63.5892 73.9369 62.7982 75.5477 62.4777C77.1586 62.1572 78.8283 62.3216 80.3457 62.9501C81.8631 63.5785 83.16 64.6429 84.0725 66.0085C84.985 67.3741 85.4721 68.9796 85.4721 70.622C85.4696 72.8234 84.5941 74.9339 83.0376 76.4906C81.4811 78.0473 79.3707 78.9231 77.1693 78.9259Z" fill="#3E61EE"/>
<path d="M93.0523 6.46879C93.0589 8.30619 92.6797 10.1245 91.9392 11.8061C91.1988 13.4877 90.1135 14.9951 88.7537 16.2309C87.3939 17.4666 85.7898 18.4031 84.0453 18.9797C82.3007 19.5564 80.4545 19.7604 78.6261 19.5786C76.7977 19.3967 75.0279 18.8331 73.4311 17.9241C71.8343 17.0151 70.4461 15.781 69.3563 14.3016C68.2666 12.8223 67.4995 11.1306 67.1048 9.3361C66.71 7.54159 66.6964 5.6842 67.0648 3.8841L63.7593 3.21191C63.2682 5.60905 63.3169 8.08544 63.9018 10.4614C64.4867 12.8374 65.5932 15.0534 67.141 16.9486C68.6888 18.8438 70.6391 20.3706 72.8503 21.4184C75.0616 22.4662 77.4783 23.0086 79.9252 23.0063C82.0978 23.0153 84.2506 22.5934 86.2591 21.765C88.2676 20.9367 90.0919 19.7183 91.6265 18.1804C93.1611 16.6425 94.3756 14.8156 95.1996 12.8053C96.0236 10.795 96.4409 8.64134 96.4273 6.46879H93.0523Z" fill="#3E61EE"/>
<path d="M102.319 107.177C100.623 107.177 98.9643 107.68 97.5536 108.622C96.1429 109.565 95.0434 110.905 94.3942 112.472C93.7449 114.04 93.5751 115.764 93.906 117.428C94.237 119.092 95.054 120.621 96.2537 121.821C97.4534 123.02 98.9818 123.837 100.646 124.168C102.31 124.499 104.035 124.329 105.602 123.68C107.169 123.031 108.509 121.931 109.452 120.521C110.394 119.11 110.897 117.451 110.897 115.755C110.895 113.481 109.99 111.3 108.382 109.692C106.774 108.084 104.594 107.179 102.319 107.177V107.177ZM102.319 120.958C101.29 120.958 100.284 120.653 99.4286 120.081C98.573 119.509 97.9061 118.697 97.5123 117.746C97.1185 116.795 97.0154 115.749 97.2162 114.74C97.417 113.731 97.9125 112.803 98.6402 112.076C99.3678 111.348 100.295 110.852 101.304 110.652C102.314 110.451 103.36 110.554 104.31 110.948C105.261 111.342 106.074 112.009 106.646 112.864C107.217 113.72 107.522 114.726 107.522 115.755C107.521 117.134 106.972 118.457 105.997 119.432C105.021 120.408 103.699 120.956 102.319 120.958V120.958Z" fill="#3E61EE"/>
<path d="M50.9854 108.21C49.9702 108.21 48.9778 108.511 48.1338 109.075C47.2897 109.639 46.6318 110.441 46.2433 111.379C45.8548 112.317 45.7531 113.349 45.9511 114.344C46.1491 115.34 46.6379 116.255 47.3557 116.973C48.0735 117.69 48.988 118.179 49.9836 118.377C50.9793 118.576 52.0113 118.474 52.9492 118.086C53.8871 117.697 54.6888 117.039 55.2529 116.195C55.8169 115.351 56.1181 114.359 56.1182 113.344C56.1168 111.983 55.5756 110.678 54.6134 109.716C53.6511 108.753 52.3463 108.212 50.9854 108.21V108.21ZM50.9854 115.101C50.6377 115.101 50.2978 114.998 50.0088 114.805C49.7197 114.612 49.4944 114.337 49.3614 114.016C49.2283 113.695 49.1935 113.341 49.2613 113C49.3291 112.659 49.4966 112.346 49.7424 112.1C49.9882 111.854 50.3014 111.687 50.6424 111.619C50.9834 111.551 51.3368 111.586 51.658 111.719C51.9792 111.852 52.2538 112.078 52.4469 112.367C52.6401 112.656 52.7432 112.996 52.7432 113.343C52.7426 113.809 52.5572 114.256 52.2276 114.585C51.8981 114.915 51.4513 115.1 50.9854 115.101V115.101Z" fill="#3E61EE"/>
<path d="M51.9834 39.27C51.9834 37.5734 51.4803 35.9149 50.5377 34.5043C49.5952 33.0936 48.2554 31.9941 46.688 31.3449C45.1205 30.6956 43.3958 30.5257 41.7318 30.8567C40.0678 31.1877 38.5393 32.0047 37.3396 33.2044C36.14 34.404 35.323 35.9325 34.992 37.5965C34.661 39.2605 34.8309 40.9853 35.4801 42.5527C36.1294 44.1202 37.2289 45.4599 38.6395 46.4025C40.0502 47.345 41.7087 47.8481 43.4053 47.8481C45.6795 47.8455 47.8599 46.9409 49.468 45.3328C51.0762 43.7246 51.9808 41.5443 51.9834 39.27V39.27ZM43.4053 44.4731C42.3762 44.4731 41.3702 44.168 40.5146 43.5963C39.6589 43.0245 38.992 42.2119 38.5982 41.2612C38.2044 40.3104 38.1014 39.2642 38.3021 38.2549C38.5029 37.2456 38.9984 36.3185 39.7261 35.5909C40.4538 34.8632 41.3809 34.3676 42.3902 34.1669C43.3995 33.9661 44.4457 34.0691 45.3964 34.463C46.3472 34.8568 47.1598 35.5237 47.7315 36.3793C48.3032 37.235 48.6084 38.2409 48.6084 39.27C48.6068 40.6494 48.0582 41.9719 47.0828 42.9474C46.1074 43.9228 44.785 44.4715 43.4056 44.4731H43.4053Z" fill="#3E61EE"/>
<path d="M72.0011 1.40651C58.0393 1.40688 44.3911 5.54732 32.7823 13.3043C21.1736 21.0612 12.1257 32.0863 6.78277 44.9854C1.43984 57.8844 0.0418303 72.0782 2.76552 85.7718C5.48921 99.4653 12.2123 112.044 22.0846 121.917C28.6387 128.476 36.4209 133.68 44.9868 137.232C53.5527 140.783 62.7343 142.612 72.0072 142.614C81.2801 142.616 90.4625 140.791 99.0299 137.244C107.597 133.696 115.382 128.495 121.939 121.938C128.496 115.381 133.697 107.597 137.244 99.0294C140.792 90.462 142.617 81.2796 142.615 72.0067C142.613 62.7338 140.784 53.5521 137.233 44.9863C133.681 36.4204 128.477 28.6381 121.917 22.084C115.378 15.508 107.599 10.2945 99.0305 6.74521C90.4623 3.1959 81.2753 1.38132 72.0011 1.40651V1.40651ZM119.531 119.532C113.3 125.823 105.888 130.822 97.7193 134.241C89.5508 137.659 80.7874 139.43 71.9325 139.452C63.0776 139.474 54.3056 137.745 46.1206 134.367C37.9356 130.988 30.4988 126.025 24.2374 119.764C17.9761 113.503 13.0135 106.066 9.63495 97.8806C6.25636 89.6955 4.52828 80.9236 4.54998 72.0686C4.57168 63.2137 6.34274 54.4503 9.76142 46.2819C13.1801 38.1135 18.179 30.7011 24.471 24.4704C30.7017 18.1785 38.1142 13.1797 46.2827 9.76111C54.4511 6.34253 63.2145 4.57158 72.0694 4.54998C80.9244 4.52838 89.6963 6.25656 97.8813 9.63525C106.066 13.0139 113.503 17.9765 119.765 24.238C126.026 30.4994 130.988 37.9363 134.367 46.1213C137.746 54.3064 139.474 63.0784 139.452 71.9333C139.43 80.7882 137.659 89.5516 134.241 97.72C130.822 105.888 125.823 113.301 119.531 119.532V119.532Z" fill="#17E5C3"/>
</svg>
