<svg viewBox="0 0 144 144" fill="none" xmlns="http://www.w3.org/2000/svg">
<path d="M16.1269 92.5622C14.006 85.9145 12.93 78.9778 12.9375 72C12.9369 68.9523 13.1408 65.9079 13.5478 62.8875V62.8847C17.8141 31.2722 43.9667 6.60656 76.2522 4.63191C74.846 4.54397 73.4286 4.5 72 4.5C37.8113 4.5 9.55973 29.9166 5.11035 62.8847V62.8875C4.70328 65.9079 4.49939 68.9523 4.50004 72C4.49255 78.9778 5.56849 85.9145 7.68941 92.5622C16.3857 119.787 41.8894 139.5 72 139.5C73.417 139.5 74.8232 139.457 76.2188 139.37C47.9641 137.628 24.4139 118.506 16.1269 92.5622Z" fill="#3E61EE" fill-opacity="0.2"/>
<path d="M35.9323 23.3355C39.3559 25.4301 42.9553 27.2227 46.6898 28.6931C48.2966 29.3248 49.9481 29.9025 51.5982 30.4115C52.0259 30.5435 52.4885 30.5002 52.8843 30.2911C53.2801 30.082 53.5766 29.7242 53.7086 29.2965C53.8406 28.8688 53.7972 28.4062 53.5881 28.0104C53.379 27.6146 53.0213 27.3181 52.5935 27.1861C51.0242 26.7024 49.454 26.1528 47.9262 25.5521C44.3745 24.1538 40.9512 22.449 37.6952 20.457C37.5062 20.3412 37.2962 20.2638 37.0773 20.2292C36.8584 20.1946 36.6348 20.2034 36.4193 20.2552C36.2038 20.307 36.0006 20.4008 35.8213 20.5311C35.642 20.6614 35.4902 20.8258 35.3744 21.0148C35.1407 21.3965 35.0681 21.8555 35.1727 22.2907C35.2773 22.7259 35.5506 23.1018 35.9323 23.3355Z" fill="#3E61EE"/>
<path d="M80.3576 29.5687C74.2778 30.3324 68.122 30.2585 62.0623 29.3491C61.8425 29.3143 61.6181 29.3234 61.4018 29.3757C61.1856 29.4281 60.9818 29.5227 60.8023 29.654C60.6227 29.7854 60.4709 29.951 60.3556 30.1413C60.2403 30.3316 60.1638 30.5428 60.1304 30.7627C60.097 30.9827 60.1075 31.2071 60.1612 31.423C60.2149 31.6389 60.3107 31.8421 60.4432 32.0208C60.5757 32.1995 60.7422 32.3503 60.9332 32.4644C61.1242 32.5786 61.3358 32.6538 61.556 32.6858C65.013 33.2075 68.5041 33.4693 72.0002 33.4691C74.9362 33.469 77.8692 33.2846 80.782 32.917C86.3984 32.2056 91.9055 30.8042 97.1789 28.7446C97.3853 28.664 97.5738 28.5435 97.7336 28.3899C97.8934 28.2364 98.0214 28.0529 98.1104 27.8499C98.1993 27.647 98.2473 27.4284 98.2518 27.2069C98.2563 26.9853 98.217 26.765 98.1364 26.5586C98.0557 26.3522 97.9352 26.1637 97.7817 26.0039C97.6282 25.8441 97.4447 25.716 97.2417 25.6271C97.0387 25.5382 96.8202 25.4902 96.5986 25.4857C96.377 25.4812 96.1568 25.5205 95.9504 25.6011C90.9356 27.5597 85.6985 28.8923 80.3576 29.5687Z" fill="#3E61EE"/>
<path d="M111.674 16.7949C109.578 18.3811 107.389 19.8408 105.118 21.1661C104.924 21.2762 104.753 21.4238 104.616 21.6003C104.479 21.7768 104.378 21.9788 104.32 22.1946C104.262 22.4103 104.247 22.6355 104.276 22.857C104.306 23.0785 104.379 23.292 104.492 23.485C104.604 23.678 104.754 23.8468 104.932 23.9815C105.111 24.1162 105.314 24.2141 105.53 24.2695C105.747 24.325 105.972 24.3369 106.193 24.3046C106.414 24.2723 106.627 24.1964 106.818 24.0813C109.204 22.6878 111.505 21.1535 113.709 19.4865C114.066 19.2165 114.301 18.8157 114.362 18.3723C114.424 17.929 114.307 17.4794 114.037 17.1225C113.766 16.7655 113.366 16.5305 112.922 16.4691C112.479 16.4077 112.029 16.5249 111.672 16.7949H111.674Z" fill="#3E61EE"/>
<path d="M19.6447 48.1948C19.9984 48.4691 20.4466 48.5917 20.8906 48.5355C21.3346 48.4794 21.7382 48.2491 22.0124 47.8954C22.2867 47.5418 22.4092 47.0936 22.3531 46.6496C22.297 46.2056 22.0667 45.802 21.713 45.5277C18.9774 43.4051 16.3775 41.1131 13.9286 38.6652C13.6113 38.353 13.1834 38.1789 12.7382 38.1807C12.2931 38.1825 11.8667 38.3601 11.5519 38.6749C11.2371 38.9897 11.0594 39.4161 11.0576 39.8613C11.0558 40.3065 11.23 40.7343 11.5422 41.0517C14.0911 43.5998 16.7972 45.9855 19.6447 48.1948Z" fill="#3E61EE"/>
<path d="M73.6874 64.4062C73.6874 63.9586 73.5096 63.5294 73.1931 63.2129C72.8766 62.8965 72.4474 62.7187 71.9999 62.7187C58.3842 62.7193 44.9815 59.3396 32.9942 52.8828C32.6005 52.6699 32.1383 52.6222 31.7094 52.75C31.2805 52.8779 30.9199 53.1709 30.707 53.5646C30.4941 53.9583 30.4464 54.4204 30.5742 54.8493C30.7021 55.2782 30.9951 55.6388 31.3888 55.8517C43.8693 62.5746 57.8238 66.0939 71.9999 66.0937C72.4474 66.0937 72.8766 65.9159 73.1931 65.5994C73.5096 65.283 73.6874 64.8537 73.6874 64.4062Z" fill="#3E61EE"/>
<path d="M132.525 38.5945C132.368 38.438 132.182 38.3139 131.977 38.2293C131.772 38.1447 131.553 38.1013 131.331 38.1016C131.109 38.1018 130.89 38.1457 130.685 38.2308C130.481 38.3159 130.295 38.4404 130.138 38.5973C121.518 47.224 111.096 53.8363 99.6188 57.96C97.2625 58.8012 94.8375 59.542 92.4148 60.1619C92.2001 60.2168 91.9984 60.3135 91.821 60.4464C91.6437 60.5793 91.4943 60.7458 91.3813 60.9365C91.2683 61.1271 91.194 61.3382 91.1626 61.5575C91.1311 61.7769 91.1432 62.0003 91.1982 62.215C91.2531 62.4297 91.3497 62.6315 91.4827 62.8088C91.6156 62.9862 91.7821 63.1356 91.9727 63.2486C92.1634 63.3616 92.3744 63.4359 92.5938 63.4673C92.8132 63.4987 93.0366 63.4866 93.2513 63.4317C95.7755 62.7848 98.2997 62.0145 100.753 61.1387C112.702 56.8458 123.553 49.962 132.528 40.9809C132.844 40.6641 133.021 40.2347 133.021 39.7871C133.02 39.3396 132.842 38.9106 132.525 38.5945Z" fill="#3E61EE"/>
<path d="M28.0644 81.7723C19.7255 76.4874 12.4061 69.7444 6.45657 61.866C6.18659 61.509 5.78584 61.2738 5.3425 61.2123C4.89915 61.1508 4.44953 61.2679 4.09253 61.5379C3.73553 61.8079 3.50041 62.2086 3.43888 62.652C3.37735 63.0953 3.49446 63.5449 3.76445 63.9019C9.95756 72.1024 17.5763 79.121 26.2563 84.6219C26.4434 84.7429 26.6526 84.8256 26.8719 84.8653C27.0911 84.905 27.3161 84.9009 27.5337 84.8532C27.7514 84.8055 27.9575 84.7152 28.14 84.5875C28.3226 84.4597 28.478 84.2971 28.5974 84.1089C28.7168 83.9208 28.7977 83.7109 28.8356 83.4913C28.8734 83.2717 28.8674 83.0468 28.8178 82.8296C28.7683 82.6123 28.6762 82.407 28.5469 82.2256C28.4176 82.0441 28.2536 81.89 28.0644 81.7723Z" fill="#3E61EE"/>
<path d="M37.273 90.528C45.7314 94.2928 54.7486 96.6489 63.9675 97.503C66.6203 97.7502 69.3225 97.8753 71.9997 97.8753C72.4473 97.8753 72.8765 97.6975 73.193 97.3811C73.5094 97.0646 73.6872 96.6354 73.6872 96.1878C73.6872 95.7403 73.5094 95.3111 73.193 94.9946C72.8765 94.6781 72.4473 94.5003 71.9997 94.5003C69.4266 94.5003 66.8295 94.38 64.2808 94.1426C55.4276 93.3226 46.768 91.0601 38.6452 87.4446C38.2363 87.2626 37.7718 87.2506 37.354 87.411C36.9362 87.5715 36.5992 87.8914 36.4173 88.3003C36.2353 88.7092 36.2232 89.1737 36.3837 89.5915C36.5442 90.0093 36.864 90.3463 37.273 90.5282V90.528Z" fill="#3E61EE"/>
<path d="M116.331 81.5193C108.03 86.8637 98.8253 90.6535 89.1672 92.7035C88.7591 92.7898 88.3975 93.0243 88.1521 93.3616C87.9066 93.6989 87.7949 94.1151 87.8383 94.53C87.8817 94.9449 88.0772 95.329 88.3871 95.6082C88.6971 95.8874 89.0994 96.0419 89.5165 96.0419C89.6351 96.0417 89.7533 96.0292 89.8692 96.0045C99.9262 93.87 109.511 89.9239 118.156 84.3588C118.532 84.1169 118.798 83.7352 118.893 83.2978C118.988 82.8604 118.906 82.403 118.664 82.0264C118.422 81.6497 118.04 81.3845 117.603 81.2892C117.166 81.1939 116.708 81.2762 116.331 81.5181V81.5193Z" fill="#3E61EE"/>
<path d="M139.907 61.5377C139.55 61.2682 139.101 61.1513 138.658 61.2128C138.215 61.2743 137.814 61.5091 137.544 61.8657C133.427 67.309 128.651 72.2214 123.326 76.4907C122.989 76.7743 122.776 77.1785 122.733 77.6168C122.69 78.0552 122.82 78.493 123.095 78.8368C123.37 79.1806 123.769 79.4031 124.207 79.4568C124.644 79.5104 125.085 79.391 125.435 79.124C130.978 74.6803 135.949 69.5673 140.235 63.9016C140.369 63.7249 140.466 63.5235 140.522 63.3091C140.578 63.0946 140.591 62.8712 140.561 62.6517C140.53 62.4322 140.457 62.2208 140.345 62.0297C140.232 61.8386 140.084 61.6714 139.907 61.5377Z" fill="#3E61EE"/>
<path d="M27.2004 107.654C20.3605 103.194 14.2209 97.7425 8.98267 91.4784C8.84226 91.303 8.66822 91.1573 8.47075 91.05C8.27329 90.9427 8.05638 90.8759 7.83275 90.8536C7.60913 90.8312 7.3833 90.8538 7.16851 90.9199C6.95372 90.986 6.7543 91.0944 6.58196 91.2386C6.40962 91.3829 6.26783 91.5601 6.16491 91.7599C6.06198 91.9597 6 92.178 5.9826 92.4021C5.9652 92.6261 5.99274 92.8514 6.06358 93.0647C6.13443 93.278 6.24716 93.4749 6.39517 93.6441C11.8478 100.164 18.2384 105.838 25.3579 110.481C25.7328 110.726 26.1894 110.811 26.6274 110.719C27.0654 110.627 27.4488 110.364 27.6932 109.989C27.9377 109.614 28.0233 109.158 27.931 108.72C27.8388 108.282 27.5764 107.898 27.2015 107.654H27.2004Z" fill="#3E61EE"/>
<path d="M47.8049 117.316C46.2048 116.823 44.5986 116.273 43.0295 115.682C41.5594 115.128 40.0848 114.522 38.6468 113.882C38.4441 113.79 38.2251 113.739 38.0026 113.732C37.78 113.725 37.5583 113.762 37.3501 113.841C37.1419 113.92 36.9515 114.039 36.7897 114.192C36.6279 114.345 36.498 114.529 36.4075 114.732C36.317 114.936 36.2676 115.155 36.2622 115.378C36.2568 115.6 36.2956 115.822 36.3762 116.029C36.4568 116.237 36.5776 116.426 36.7318 116.587C36.886 116.748 37.0705 116.876 37.2746 116.965C38.772 117.632 40.3076 118.262 41.839 118.839C43.4725 119.455 45.1457 120.028 46.8118 120.541C47.0243 120.609 47.2482 120.634 47.4706 120.615C47.6929 120.596 47.9092 120.533 48.107 120.429C48.3048 120.326 48.4802 120.184 48.6229 120.013C48.7657 119.841 48.873 119.643 48.9386 119.43C49.0043 119.217 49.027 118.993 49.0055 118.771C48.9839 118.548 48.9185 118.333 48.8131 118.136C48.7076 117.939 48.5642 117.766 48.3912 117.625C48.2181 117.484 48.0188 117.379 47.8049 117.315V117.316Z" fill="#3E61EE"/>
<path d="M137.467 91.1046C137.121 90.8198 136.677 90.6838 136.232 90.7264C135.786 90.7691 135.376 90.987 135.091 91.3321C132.043 95.0442 128.66 98.4683 124.985 101.561C123.11 103.146 121.141 104.665 119.133 106.074C109.522 112.832 98.5646 117.435 87.0106 119.569C82.059 120.48 77.0347 120.938 72 120.937C68.6037 120.937 65.2105 120.73 61.8396 120.315C61.3954 120.26 60.9476 120.384 60.5947 120.66C60.2419 120.935 60.0129 121.339 59.958 121.783C59.9032 122.228 60.0271 122.675 60.3024 123.028C60.5777 123.381 60.982 123.61 61.4262 123.665C64.9343 124.096 68.4655 124.312 72 124.312C77.2404 124.313 82.4699 123.836 87.6237 122.888C99.6539 120.664 111.063 115.871 121.072 108.836C123.163 107.369 125.212 105.789 127.164 104.139C130.993 100.916 134.518 97.3482 137.694 93.48C137.979 93.1348 138.115 92.6907 138.072 92.2452C138.03 91.7997 137.812 91.3894 137.467 91.1046Z" fill="#3E61EE"/>
<path d="M71.9999 2.81276C58.3159 2.81279 44.9392 6.87058 33.5614 14.473C22.1836 22.0754 13.3157 32.881 8.07911 45.5234C2.84248 58.1657 1.47234 72.077 4.14194 85.498C6.81154 98.9191 13.401 111.247 23.077 120.923C36.0523 133.898 53.6506 141.188 72.0004 141.188C90.3503 141.188 107.949 133.898 120.924 120.923C133.899 107.948 141.189 90.3495 141.189 71.9997C141.189 53.6499 133.899 36.0516 120.924 23.0763C114.514 16.6315 106.889 11.5221 98.4917 8.04385C90.0938 4.56561 81.0895 2.78761 71.9999 2.81276ZM118.536 118.537C106.194 130.879 89.4544 137.813 71.9999 137.813C54.5453 137.813 37.8056 130.879 25.4634 118.537C13.1212 106.195 6.18737 89.4548 6.18737 72.0003C6.18737 54.5457 13.1212 37.806 25.4634 25.4638C37.8056 13.1216 54.5453 6.18776 71.9999 6.18776C89.4544 6.18776 106.194 13.1216 118.536 25.4638C130.879 37.806 137.812 54.5457 137.812 72.0003C137.812 89.4548 130.879 106.195 118.536 118.537Z" fill="#968B82"/>
</svg>
