<svg viewBox="0 0 144 144" fill="none" xmlns="http://www.w3.org/2000/svg">
<path d="M14.9912 120.187V78.8189C9.83168 76.777 6.77449 74.3805 6.56777 71.8115H6.55371V120.187C6.55371 127.595 30.2293 133.639 59.9912 133.999V133.968L63.5389 133.886C36.1156 132.963 14.9912 127.184 14.9912 120.187Z" fill="#3E61EE" fill-opacity="0.2"/>
<path d="M100.414 59.5234L99.7031 62.8211C112.737 65.6569 117.363 69.2856 117.363 71.5311C117.363 76.6007 96.6068 83.6718 62.8006 83.6718C28.9943 83.6718 8.23809 76.6007 8.23809 71.5311C8.23809 70.3431 9.50991 68.9498 11.819 67.6077C14.4751 66.0639 18.4897 64.6062 23.429 63.392L22.6232 60.1146C10.8408 63.0118 4.86562 66.8531 4.86562 71.5311C4.86562 71.5837 4.82822 71.6357 4.82963 71.6881C4.82681 71.7291 4.78125 71.7705 4.78125 71.8124V120.187C4.78125 124.866 10.8 128.707 22.5844 131.604C33.3366 134.248 47.6474 135.703 62.8031 135.703C77.9588 135.703 92.1862 134.248 102.938 131.604C114.722 128.707 120.656 124.866 120.656 120.187V71.8124C120.656 71.7705 120.695 71.728 120.692 71.6881C120.694 71.6357 120.72 71.5837 120.72 71.5311C120.72 65.2598 109.682 61.5397 100.414 59.5234ZM75.0938 131.996C71.1562 132.211 67.0655 132.328 62.7188 132.328C62.3416 132.328 62.1562 132.326 61.5938 132.324V107.437H75.0938V131.996ZM117.281 120.187C117.281 124.414 102.938 130.031 78.4688 131.782V105.844C78.4688 104.912 77.7977 104.062 76.8656 104.062H59.9906C59.5248 104.08 59.0831 104.274 58.7543 104.604C58.4256 104.935 58.2342 105.378 58.2188 105.844V132.285C27.2812 131.693 8.15625 125.029 8.15625 120.187V77.1488C11.25 79.3707 15.9213 81.3113 22.5844 82.9479C33.3366 85.5917 47.6263 87.0468 62.7832 87.0468C77.94 87.0468 92.1769 85.5914 102.929 82.9479C109.59 81.3093 114.469 79.3707 117.281 77.1488V120.187Z" fill="#3E61EE"/>
<path d="M72.6475 122.156C73.8901 122.156 74.8974 121.149 74.8974 119.906C74.8974 118.664 73.8901 117.656 72.6475 117.656C71.4048 117.656 70.3975 118.664 70.3975 119.906C70.3975 121.149 71.4048 122.156 72.6475 122.156Z" fill="#3E61EE"/>
<path d="M108.516 28.7067C108.365 28.2856 108.052 27.942 107.647 27.7515C107.242 27.5609 106.778 27.539 106.357 27.6905L96.9705 31.0695C96.762 31.1445 96.5703 31.2599 96.4064 31.409C96.2425 31.5582 96.1095 31.7381 96.0152 31.9386C95.9208 32.1391 95.8668 32.3563 95.8564 32.5776C95.8459 32.799 95.8792 33.0202 95.9542 33.2288C96.0293 33.4373 96.1447 33.629 96.2938 33.7929C96.4429 33.9568 96.6229 34.0897 96.8234 34.1841C97.0239 34.2785 97.241 34.3324 97.4624 34.3429C97.6837 34.3533 97.905 34.3201 98.1135 34.245L107.5 30.8661C107.709 30.791 107.9 30.6756 108.064 30.5265C108.228 30.3774 108.361 30.1974 108.456 29.9969C108.55 29.7963 108.604 29.5792 108.614 29.3578C108.625 29.1364 108.591 28.9152 108.516 28.7067Z" fill="#968B82"/>
<path d="M90.8389 33.2338L87.3101 34.4128C87.0982 34.4816 86.902 34.5916 86.7328 34.7366C86.5637 34.8816 86.4249 35.0587 86.3245 35.2576C86.2241 35.4565 86.1641 35.6733 86.148 35.8955C86.1318 36.1177 86.1598 36.3409 86.2304 36.5522C86.301 36.7636 86.4127 36.9588 86.5591 37.1268C86.7055 37.2947 86.8837 37.432 87.0834 37.5307C87.2832 37.6294 87.5005 37.6876 87.7228 37.7019C87.9451 37.7162 88.1681 37.6863 88.3788 37.614L91.9077 36.4347C92.1209 36.367 92.3186 36.2577 92.4892 36.1129C92.6599 35.9681 92.8 35.7909 92.9014 35.5915C93.0029 35.392 93.0637 35.1744 93.0803 34.9513C93.0969 34.7282 93.069 34.504 92.9981 34.2917C92.9272 34.0795 92.8149 33.8835 92.6675 33.7151C92.5202 33.5467 92.3409 33.4092 92.14 33.3108C91.939 33.2123 91.7205 33.1548 91.4972 33.1416C91.2738 33.1284 91.05 33.1597 90.8389 33.2338Z" fill="#968B82"/>
<path d="M126.609 12.0821L125.67 9.42202C125.596 9.21302 125.482 9.02059 125.334 8.85572C125.186 8.69084 125.007 8.55676 124.807 8.46112C124.607 8.36548 124.39 8.31016 124.169 8.29831C123.948 8.28647 123.726 8.31833 123.517 8.39208L111.182 12.7464C110.973 12.8202 110.781 12.9343 110.616 13.0825C110.451 13.2306 110.317 13.4097 110.221 13.6096C110.126 13.8096 110.07 14.0263 110.059 14.2476C110.047 14.4689 110.079 14.6904 110.152 14.8994L111.174 17.7934L92.5414 24.3693C88.6842 20.0283 83.9502 16.5547 78.6518 14.1777C73.3535 11.8007 67.6112 10.5745 61.8041 10.5799C39.1247 10.5799 20.6738 29.0159 20.6738 51.677C20.6693 59.0924 22.675 66.3703 26.4774 72.7365H26.4791C26.6016 72.9424 26.7667 73.1197 26.9633 73.2566C27.1599 73.3936 27.3834 73.4869 27.619 73.5304C39.4729 75.7194 53.5843 76.8773 68.4284 76.8773C77.1522 76.8935 85.8712 76.4665 94.5517 75.5979C94.7958 75.5731 95.0314 75.4952 95.2422 75.3697C95.4529 75.2442 95.6337 75.0742 95.7718 74.8714C95.7755 74.8664 95.7783 74.8613 95.7819 74.8563L95.7859 74.8503C99.8909 68.8081 102.321 61.7857 102.829 54.4985L121.768 47.8127L122.79 50.7067C122.863 50.9157 122.977 51.1082 123.126 51.273C123.274 51.4379 123.453 51.572 123.653 51.6676C123.853 51.7633 124.069 51.8186 124.291 51.8304C124.512 51.8423 124.734 51.8104 124.942 51.7367L137.278 47.3835C137.487 47.3097 137.68 47.1956 137.845 47.0475C138.01 46.8994 138.144 46.7202 138.239 46.5203C138.335 46.3204 138.39 46.1036 138.402 45.8823C138.414 45.661 138.382 45.4395 138.308 45.2305L137.71 43.5346C139.649 37.806 139.609 31.5924 137.596 25.8895C135.583 20.1865 131.714 15.3243 126.609 12.0821ZM135.76 34.8752C135.758 35.7749 135.706 36.6737 135.603 37.5676L128.704 18.0184C130.949 20.2124 132.73 22.8351 133.942 25.7307C135.154 28.6264 135.772 31.7361 135.76 34.8752ZM89.0741 25.5939L84.2155 27.3095C78.0149 20.2718 69.5907 15.5702 60.3456 13.9876C60.8296 13.9693 61.3153 13.9569 61.8041 13.9569C66.9002 13.9523 71.9443 14.9812 76.6314 16.9814C81.3186 18.9815 85.5514 21.9114 89.0741 25.5939ZM74.871 29.631C70.8352 24.3493 65.5908 20.1134 59.5783 17.279C67.6749 18.6214 75.1114 22.5717 80.7564 28.529L75.4447 30.4033C75.2563 30.1438 75.0651 29.886 74.871 29.6298V29.631ZM28.9946 70.3453C25.7511 64.6583 24.0464 58.2239 24.0488 51.677C24.0488 34.6369 35.417 20.2023 50.9726 15.5392C50.9614 15.6194 50.9529 15.7004 50.9493 15.7828C50.924 16.3394 51.0865 16.8884 51.4108 17.3415C51.735 17.7947 52.2022 18.1257 52.7372 18.2814C60.4768 20.5699 67.2879 25.2608 72.1856 31.6757C77.1951 38.2242 79.8975 46.2461 79.8716 54.4909C79.87 56.0396 79.7733 57.5866 79.5822 59.1234L79.56 59.1313L79.576 59.1766C78.9519 64.2023 77.3177 69.0499 74.7717 73.4278C72.6738 73.4758 70.5593 73.5004 68.4284 73.5015C54.1024 73.5001 40.4924 72.4085 28.9946 70.3453ZM82.6234 61.6265L90.8834 58.7114C90.3221 63.6976 88.7715 68.5216 86.3224 72.901C83.8114 73.072 81.266 73.2071 78.6861 73.3063C80.5807 69.6346 81.9081 65.6972 82.6234 61.6279V61.6265ZM93.4149 72.3126C92.3807 72.4146 91.3389 72.5102 90.2897 72.5992C92.6118 67.8672 94.0031 62.7331 94.3878 57.4761L99.3299 55.7324C98.687 61.6472 96.6606 67.3276 93.4149 72.314V72.3126ZM83.1018 57.8814C83.1943 56.7564 83.2466 55.6263 83.2466 54.4909C83.2691 47.0231 81.2354 39.6931 77.3685 33.3044L112.297 20.9761L120.645 44.6292L83.1018 57.8814ZM125.41 47.9927L113.896 15.3676L123.048 12.1375L134.562 44.7625L125.41 47.9927Z" fill="#968B82"/>
<path d="M41.1798 24.9786C41.0105 24.8356 40.8147 24.7273 40.6036 24.6599C40.3924 24.5926 40.1701 24.5674 39.9493 24.586C39.7284 24.6046 39.5134 24.6665 39.3165 24.7681C39.1195 24.8698 38.9446 25.0093 38.8016 25.1786C34.3687 30.4125 31.3238 36.6775 29.9472 43.3968C29.8994 43.6152 29.8955 43.8409 29.9356 44.0608C29.9758 44.2807 30.0592 44.4904 30.1811 44.6778C30.303 44.8651 30.4609 45.0264 30.6456 45.1523C30.8303 45.2781 31.0382 45.366 31.2572 45.4109C31.4762 45.4557 31.7019 45.4566 31.9212 45.4135C32.1405 45.3704 32.3491 45.2841 32.5348 45.1597C32.7205 45.0353 32.8797 44.8753 33.003 44.6889C33.1264 44.5024 33.2115 44.2934 33.2533 44.0738C34.5173 37.9085 37.3118 32.1601 41.3795 27.3577C41.5227 27.1884 41.6311 26.9926 41.6986 26.7814C41.766 26.5702 41.7912 26.3477 41.7727 26.1268C41.7541 25.9058 41.6922 25.6907 41.5905 25.4937C41.4888 25.2967 41.3492 25.1217 41.1798 24.9786Z" fill="#968B82"/>
<path d="M32.4863 51.6768C32.4863 51.2292 32.3085 50.8 31.9921 50.4835C31.6756 50.167 31.2464 49.9893 30.7988 49.9893C30.3513 49.9893 29.9221 50.167 29.6056 50.4835C29.2891 50.8 29.1113 51.2292 29.1113 51.6768C29.1114 53.2668 29.2026 54.8556 29.3844 56.4352C29.4318 56.8462 29.6285 57.2255 29.9372 57.501C30.2459 57.7765 30.645 57.929 31.0587 57.9295C31.124 57.9294 31.1893 57.9256 31.2542 57.9183C31.4743 57.8928 31.6873 57.8243 31.881 57.7166C32.0746 57.6088 32.2452 57.464 32.3829 57.2903C32.5205 57.1167 32.6227 56.9176 32.6834 56.7045C32.7442 56.4914 32.7624 56.2684 32.7369 56.0482C32.5701 54.597 32.4864 53.1375 32.4863 51.6768Z" fill="#968B82"/>
</svg>
