<svg viewBox="0 0 80 80" fill="none" xmlns="http://www.w3.org/2000/svg">
<path d="M39.1795 2.83789C32.1876 3.00813 25.4515 5.5018 20.0342 9.92539L19.8842 10.0473C15.5462 13.63 12.2405 18.3033 10.3067 23.5867C8.37293 28.8701 7.88085 34.5732 8.88105 40.1098H11.7271C11.5771 38.8539 11.5017 37.5902 11.5014 36.3254C11.4974 32.1381 12.3067 27.9899 13.8843 24.1112C13.9012 24.1213 13.9179 24.1318 13.935 24.1424C15.9266 19.4385 19.0074 15.2752 22.9237 11.9955L22.9429 12.008C22.9371 12.0034 22.9306 11.9993 22.9246 11.9946C26.1143 9.39492 30.0557 7.21336 34.1014 6.01023C35.6716 4.76828 37.3747 3.70432 39.1795 2.83789Z" fill="#3E61EE" fill-opacity="0.2"/>
<path d="M59.7971 44.2188H59.7424C59.4938 44.2188 59.2553 44.3175 59.0795 44.4933C58.9037 44.6692 58.8049 44.9076 58.8049 45.1562C58.8049 45.4049 58.9037 45.6433 59.0795 45.8192C59.2553 45.995 59.4938 46.0938 59.7424 46.0938H59.7971C60.0458 46.0938 60.2842 45.995 60.46 45.8192C60.6358 45.6433 60.7346 45.4049 60.7346 45.1562C60.7346 44.9076 60.6358 44.6692 60.46 44.4933C60.2842 44.3175 60.0458 44.2188 59.7971 44.2188Z" fill="#3E61EE"/>
<path d="M56.192 44.2188H34.1615C33.9129 44.2188 33.6744 44.3175 33.4986 44.4933C33.3228 44.6692 33.224 44.9076 33.224 45.1562C33.224 45.4049 33.3228 45.6433 33.4986 45.8192C33.6744 45.995 33.9129 46.0938 34.1615 46.0938H56.192C56.4406 46.0938 56.6791 45.995 56.8549 45.8192C57.0307 45.6433 57.1295 45.4049 57.1295 45.1562C57.1295 44.9076 57.0307 44.6692 56.8549 44.4933C56.6791 44.3175 56.4406 44.2188 56.192 44.2188Z" fill="#3E61EE"/>
<path d="M30.5843 44.2188H20.2032C19.9546 44.2188 19.7161 44.3175 19.5403 44.4933C19.3645 44.6692 19.2657 44.9076 19.2657 45.1562C19.2657 45.4049 19.3645 45.6433 19.5403 45.8192C19.7161 45.995 19.9546 46.0938 20.2032 46.0938H30.5839C30.8325 46.0938 31.071 45.995 31.2468 45.8192C31.4226 45.6433 31.5214 45.4049 31.5214 45.1562C31.5214 44.9076 31.4226 44.6692 31.2468 44.4933C31.071 44.3175 30.8325 44.2188 30.5839 44.2188H30.5843Z" fill="#3E61EE"/>
<path d="M39.9998 1.88867C35.2315 1.89276 30.5222 2.94317 26.2042 4.96579C21.8861 6.9884 18.0645 9.93394 15.0089 13.5946C11.9534 17.2552 9.73841 21.5418 8.52021 26.1519C7.30201 30.7619 7.11029 35.5832 7.95858 40.2754L9.80358 39.9421C8.81451 34.4556 9.32923 28.8036 11.2931 23.586C14.4405 25.6878 17.8109 27.4347 21.3426 28.7949C20.8993 32.5916 20.9052 36.4273 21.3605 40.2226L23.2217 39.9952C22.9991 38.1551 22.8882 36.3033 22.8895 34.4498C22.8882 32.7809 22.9768 31.1132 23.1551 29.4538C28.2804 31.2034 33.6475 32.1415 39.0623 32.2343V40.1562H40.9373V32.2355C46.3531 32.1524 51.7215 31.2129 56.8436 29.4518C57.022 31.1118 57.1106 32.7802 57.1092 34.4498C57.1106 36.3033 56.9996 38.1551 56.777 39.9952L58.6383 40.2226C58.87 38.307 58.9855 36.3793 58.9842 34.4498C58.9859 32.5576 58.8761 30.6671 58.6551 28.7879C62.1819 27.4179 65.5439 25.6565 68.678 23.537C70.0078 27.0214 70.6881 30.7201 70.685 34.4498C70.6853 36.2915 70.5213 38.1295 70.195 39.9421L72.0401 40.2755C72.3863 38.3529 72.5603 36.4033 72.56 34.4498C72.5609 16.4955 57.954 1.88867 39.9998 1.88867ZM39.0623 3.94039V15.9782C35.4065 15.8681 31.7986 15.1147 28.4042 13.7526C31.0936 9.51976 34.6972 6.15477 39.0623 3.94039ZM26.6637 12.9909C24.866 12.1374 23.1565 11.1094 21.5597 9.9218C25.5133 6.95416 30.1242 4.98372 35.0015 4.17758C31.6435 6.50804 28.8046 9.50884 26.6637 12.9909ZM40.9373 3.94039C45.3005 6.15367 48.9028 9.51664 51.5917 13.7466C48.2036 15.1261 44.5942 15.8823 40.9373 15.9787V3.94039ZM44.9905 4.17164C49.8422 4.96991 54.4295 6.92777 58.3625 9.87883C56.7882 11.0722 55.1008 12.1084 53.3244 12.9726C51.1834 9.49541 48.3459 6.49897 44.9905 4.1718V4.17164ZM12.0267 21.8196C13.8844 17.7104 16.6252 14.0613 20.054 11.1321C21.8163 12.4846 23.7136 13.6513 25.7158 14.6135C23.7344 18.2385 22.3408 22.3751 21.6097 26.8859C18.2393 25.5535 15.0257 23.8545 12.0267 21.8196ZM23.4034 27.5552C24.093 23.0584 25.4644 18.952 27.4383 15.382C31.1315 16.9025 35.07 17.7401 39.0623 17.854V30.3593C33.7267 30.2646 28.4404 29.318 23.4034 27.5552ZM40.9373 30.3605V17.8538C44.9272 17.7385 48.8619 16.8911 52.5456 15.3538C54.5275 18.9296 55.905 23.0448 56.5958 27.5524C51.562 29.3274 46.2742 30.2757 40.9373 30.3605ZM58.3886 26.8779C57.6542 22.3551 56.2545 18.209 54.2636 14.5768C56.2477 13.6097 58.1263 12.4397 59.8692 11.0854C63.3098 14.0132 66.0655 17.6608 67.9417 21.7705C64.9569 23.8226 61.7528 25.5356 58.3886 26.8779Z" fill="#968B82"/>
<path d="M20.0939 1.75758C18.9764 2.27496 17.889 2.85521 16.8372 3.49555C16.732 3.5596 16.6405 3.64373 16.5679 3.74315C16.4952 3.84256 16.4429 3.95531 16.4138 4.07495C16.3848 4.19459 16.3795 4.31879 16.3985 4.44045C16.4174 4.5621 16.4601 4.67884 16.5242 4.78399C16.5882 4.88914 16.6724 4.98064 16.7718 5.05328C16.8712 5.12591 16.9839 5.17825 17.1036 5.20732C17.2232 5.23638 17.3474 5.24159 17.4691 5.22265C17.5907 5.20372 17.7075 5.16101 17.8126 5.09696C18.8038 4.49362 19.8284 3.94691 20.8814 3.45946C21.1071 3.35503 21.282 3.16522 21.3677 2.9318C21.4535 2.69838 21.443 2.44045 21.3386 2.21477C21.2341 1.98909 21.0443 1.81413 20.8109 1.72839C20.5775 1.64265 20.3196 1.65315 20.0939 1.75758Z" fill="#968B82"/>
<path d="M14.2313 7.64593C14.3262 7.56756 14.4048 7.47125 14.4625 7.36251C14.5203 7.25376 14.556 7.13471 14.5677 7.01215C14.5795 6.8896 14.5669 6.76593 14.5309 6.64821C14.4948 6.5305 14.4359 6.42104 14.3575 6.32609C14.2791 6.23113 14.1828 6.15255 14.0741 6.09482C13.9654 6.03708 13.8463 6.00133 13.7237 5.98961C13.6012 5.97789 13.4775 5.99042 13.3598 6.02649C13.2421 6.06256 13.1326 6.12146 13.0377 6.19983C9.78637 8.87678 7.08577 12.1596 5.0858 15.8659C5.02432 15.9744 4.98511 16.0941 4.97047 16.218C4.95583 16.3419 4.96605 16.4674 5.00054 16.5873C5.03502 16.7071 5.09307 16.8189 5.1713 16.916C5.24952 17.0132 5.34634 17.0937 5.45608 17.153C5.56583 17.2122 5.6863 17.249 5.81043 17.2611C5.93456 17.2732 6.05986 17.2605 6.17899 17.2235C6.29813 17.1866 6.40869 17.1263 6.50422 17.0461C6.59975 16.9659 6.67832 16.8675 6.73533 16.7566C8.62072 13.2631 11.1665 10.169 14.2313 7.64593Z" fill="#968B82"/>
<path d="M78.2812 76.4061H76.7188V50.1506C76.7188 50.1413 76.7177 50.1322 76.7173 50.123C76.717 50.1138 76.7188 50.1045 76.7188 50.0952V40.1092C76.7182 39.9887 76.6934 39.8696 76.6457 39.7589C76.598 39.6482 76.5285 39.5483 76.4413 39.4651C76.3541 39.382 76.2509 39.3173 76.1381 39.2749C76.0253 39.2325 75.9051 39.2134 75.7847 39.2186H4.21531C4.09491 39.2134 3.9747 39.2325 3.86187 39.2749C3.74905 39.3173 3.64594 39.382 3.55872 39.4651C3.4715 39.5483 3.40197 39.6482 3.35429 39.7589C3.30661 39.8696 3.28177 39.9887 3.28125 40.1092V50.0952C3.28125 50.1045 3.28234 50.1136 3.28266 50.123C3.28297 50.1324 3.28125 50.1413 3.28125 50.1506V76.4061H1.71875C1.47011 76.4061 1.23165 76.5049 1.05584 76.6807C0.880022 76.8565 0.78125 77.095 0.78125 77.3436C0.78125 77.5923 0.880022 77.8307 1.05584 78.0065C1.23165 78.1823 1.47011 78.2811 1.71875 78.2811H39.6848C39.7834 78.2811 39.8892 78.3366 40 78.3366C40.1108 78.3366 40.2166 78.2811 40.3152 78.2811H78.2812C78.5299 78.2811 78.7683 78.1823 78.9442 78.0065C79.12 77.8307 79.2188 77.5923 79.2188 77.3436C79.2188 77.095 79.12 76.8565 78.9442 76.6807C78.7683 76.5049 78.5299 76.4061 78.2812 76.4061ZM23.9062 51.0936V76.4061H11.875V51.0936H23.9062ZM25.7812 51.0936H28.75V76.4061H25.7812V51.0936ZM49.375 54.2186H30.625V51.0936H49.375V54.2186ZM30.625 56.0936H39.0625V65.7811H36.945C36.6964 65.7811 36.4579 65.8799 36.2821 66.0557C36.1063 66.2315 36.0075 66.47 36.0075 66.7186C36.0075 66.9673 36.1063 67.2057 36.2821 67.3815C36.4579 67.5573 36.6964 67.6561 36.945 67.6561H39.0625V76.4061H30.625V56.0936ZM40.9375 67.6561H43.055C43.3036 67.6561 43.5421 67.5573 43.7179 67.3815C43.8937 67.2057 43.9925 66.9673 43.9925 66.7186C43.9925 66.47 43.8937 66.2315 43.7179 66.0557C43.5421 65.8799 43.3036 65.7811 43.055 65.7811H40.9375V56.0936H49.375V76.4061H40.9375V67.6561ZM51.25 51.0936H54.2188V76.4061H51.25V51.0936ZM56.0938 51.0936H68.125V76.4061H56.0938V51.0936ZM70 51.0936H74.8438V76.4061H70V51.0936ZM5.15625 41.0936H74.8438V49.2186H5.15625V41.0936ZM5.15625 51.0936H10V76.4061H5.15625V51.0936Z" fill="#3E61EE"/>
</svg>
