<svg viewBox="0 0 144 144" fill="none" xmlns="http://www.w3.org/2000/svg">
<path d="M12.9375 72C12.9375 36.1378 40.905 6.81328 76.2188 4.635C74.8232 4.54894 73.4175 4.5 72 4.5C34.7203 4.5 4.5 34.7203 4.5 72C4.5 109.28 34.7203 139.5 72 139.5C73.4175 139.5 74.8232 139.451 76.2188 139.365C40.905 137.187 12.9375 107.862 12.9375 72Z" fill="#3E61EE" fill-opacity="0.2"/>
<path d="M71.9999 2.81276C58.3159 2.81279 44.9392 6.87058 33.5614 14.473C22.1836 22.0754 13.3157 32.881 8.07911 45.5234C2.84248 58.1657 1.47234 72.077 4.14194 85.498C6.81154 98.9191 13.401 111.247 23.077 120.923C36.0523 133.898 53.6506 141.188 72.0004 141.188C90.3503 141.188 107.949 133.898 120.924 120.923C133.899 107.948 141.189 90.3495 141.189 71.9997C141.189 53.6499 133.899 36.0516 120.924 23.0763C114.514 16.6315 106.889 11.5221 98.4917 8.04385C90.0938 4.56561 81.0895 2.78761 71.9999 2.81276ZM118.536 118.537C106.194 130.879 89.4544 137.813 71.9999 137.813C54.5453 137.813 37.8056 130.879 25.4634 118.537C13.1212 106.195 6.18737 89.4548 6.18737 72.0003C6.18737 54.5457 13.1212 37.806 25.4634 25.4638C37.8056 13.1216 54.5453 6.18776 71.9999 6.18776C89.4544 6.18776 106.194 13.1216 118.536 25.4638C130.879 37.806 137.812 54.5457 137.812 72.0003C137.812 89.4548 130.879 106.195 118.536 118.537Z" fill="#3E61EE"/>
<path d="M108.99 35.0095C108.834 34.8493 108.648 34.7217 108.443 34.6341C108.237 34.5465 108.016 34.5006 107.792 34.4991C107.569 34.4976 107.347 34.5405 107.14 34.6253C106.934 34.7102 106.746 34.8353 106.588 34.9934C106.43 35.1514 106.305 35.3393 106.22 35.5461C106.135 35.7529 106.092 35.9745 106.094 36.1981C106.095 36.4216 106.141 36.6426 106.229 36.8482C106.316 37.0539 106.444 37.24 106.604 37.3959C111.163 41.9297 114.777 47.3225 117.237 53.2623C119.697 59.2021 120.955 65.5709 120.938 72.0001C120.938 98.9843 98.9843 120.938 72 120.938C45.0158 120.938 23.0625 98.9843 23.0625 72.0001C23.0548 59.9811 27.4775 48.3811 35.485 39.4181L32.9676 37.1704C24.4073 46.7515 19.6793 59.1519 19.6875 72.0001C19.6875 100.845 43.1547 124.313 72 124.313C100.845 124.313 124.313 100.845 124.313 72.0001C124.331 65.1275 122.987 58.3195 120.357 51.97C117.727 45.6206 113.863 39.8559 108.99 35.0095Z" fill="#3E61EE"/>
<path d="M108.493 80.8593C107.922 80.2884 107.284 79.788 106.594 79.3687C107.653 73.7168 107.315 67.8917 105.608 62.4005C103.902 56.9092 100.88 51.9181 96.8046 47.8614C96.4866 47.552 96.0597 47.3803 95.6161 47.3833C95.1726 47.3864 94.748 47.5639 94.4344 47.8776C94.1207 48.1913 93.9432 48.6159 93.9402 49.0595C93.9372 49.503 94.109 49.9299 94.4184 50.2478C98.027 53.8399 100.724 58.243 102.284 63.0897C103.845 67.9364 104.223 73.0861 103.387 78.1087C101.254 77.6657 99.0347 77.923 97.0592 78.8423C95.0838 79.7615 93.4577 81.2938 92.4227 83.2111C91.3877 85.1285 90.9991 87.3287 91.3147 89.4846C91.6302 91.6406 92.633 93.6371 94.174 95.1775C94.2837 95.2872 94.3962 95.3929 94.5098 95.4967C94.4789 95.5277 94.4491 95.5603 94.4181 95.5909C88.5268 101.482 80.5734 104.849 72.2426 104.978C63.9119 105.107 55.8581 101.988 49.7871 96.282C43.7162 90.5757 40.1049 82.7303 39.7183 74.4075C39.3316 66.0847 42.2 57.9383 47.7157 51.6937L45.1881 49.4569C32.8084 63.4441 33.4687 84.7572 46.6875 97.9785C53.3333 104.624 62.3468 108.358 71.7453 108.358C81.1438 108.358 90.1573 104.624 96.8031 97.9785C97.0082 97.7737 97.2104 97.5628 97.4115 97.3516C99.266 98.1283 101.31 98.3364 103.283 97.9495C105.256 97.5625 107.069 96.5978 108.493 95.1781C109.433 94.2379 110.179 93.1217 110.688 91.8933C111.196 90.6648 111.458 89.3482 111.458 88.0186C111.458 86.6889 111.196 85.3723 110.688 84.1439C110.179 82.9154 109.433 81.7993 108.493 80.8591V80.8593ZM106.107 92.7917C105.053 93.841 103.683 94.5137 102.209 94.7054C100.735 94.8972 99.2384 94.5973 97.9518 93.8522C97.9118 93.8264 97.8711 93.8023 97.8294 93.78C96.6319 93.0501 95.6918 91.9651 95.1398 90.6759C94.5878 89.3867 94.4514 87.9575 94.7496 86.5872C95.0478 85.2169 95.7657 83.9736 96.8035 83.0304C97.8413 82.0872 99.1473 81.491 100.54 81.3247C101.932 81.1585 103.342 81.4304 104.573 82.1028C105.803 82.7751 106.794 83.8144 107.406 85.076C108.019 86.3376 108.223 87.7587 107.99 89.1416C107.757 90.5245 107.099 91.8004 106.107 92.7917Z" fill="#3E61EE"/>
<path d="M72 52.875C73.5533 52.875 74.8125 51.6158 74.8125 50.0625C74.8125 48.5092 73.5533 47.25 72 47.25C70.4467 47.25 69.1875 48.5092 69.1875 50.0625C69.1875 51.6158 70.4467 52.875 72 52.875Z" fill="#3E61EE"/>
<path d="M72 16.3125C73.5533 16.3125 74.8125 15.0533 74.8125 13.5C74.8125 11.9467 73.5533 10.6875 72 10.6875C70.4467 10.6875 69.1875 11.9467 69.1875 13.5C69.1875 15.0533 70.4467 16.3125 72 16.3125Z" fill="#3E61EE"/>
<path d="M72 33.1875C73.5533 33.1875 74.8125 31.9283 74.8125 30.375C74.8125 28.8217 73.5533 27.5625 72 27.5625C70.4467 27.5625 69.1875 28.8217 69.1875 30.375C69.1875 31.9283 70.4467 33.1875 72 33.1875Z" fill="#3E61EE"/>
<path d="M72 134.1C73.5533 134.1 74.8125 132.84 74.8125 131.287C74.8125 129.734 73.5533 128.475 72 128.475C70.4467 128.475 69.1875 129.734 69.1875 131.287C69.1875 132.84 70.4467 134.1 72 134.1Z" fill="#3E61EE"/>
<path d="M72 116.381C73.5533 116.381 74.8125 115.122 74.8125 113.568C74.8125 112.015 73.5533 110.756 72 110.756C70.4467 110.756 69.1875 112.015 69.1875 113.568C69.1875 115.122 70.4467 116.381 72 116.381Z" fill="#3E61EE"/>
<path d="M72 97.5371C73.5533 97.5371 74.8125 96.2779 74.8125 94.7246C74.8125 93.1713 73.5533 91.9121 72 91.9121C70.4467 91.9121 69.1875 93.1713 69.1875 94.7246C69.1875 96.2779 70.4467 97.5371 72 97.5371Z" fill="#3E61EE"/>
<path d="M94.3311 75.2061C95.8844 75.2061 97.1436 73.9469 97.1436 72.3936C97.1436 70.8403 95.8844 69.5811 94.3311 69.5811C92.7778 69.5811 91.5186 70.8403 91.5186 72.3936C91.5186 73.9469 92.7778 75.2061 94.3311 75.2061Z" fill="#3E61EE"/>
<path d="M130.894 75.2061C132.447 75.2061 133.706 73.9469 133.706 72.3936C133.706 70.8403 132.447 69.5811 130.894 69.5811C129.34 69.5811 128.081 70.8403 128.081 72.3936C128.081 73.9469 129.34 75.2061 130.894 75.2061Z" fill="#3E61EE"/>
<path d="M114.019 75.2061C115.572 75.2061 116.831 73.9469 116.831 72.3936C116.831 70.8403 115.572 69.5811 114.019 69.5811C112.465 69.5811 111.206 70.8403 111.206 72.3936C111.206 73.9469 112.465 75.2061 114.019 75.2061Z" fill="#3E61EE"/>
<path d="M13.1064 75.2061C14.6597 75.2061 15.9189 73.9469 15.9189 72.3936C15.9189 70.8403 14.6597 69.5811 13.1064 69.5811C11.5531 69.5811 10.2939 70.8403 10.2939 72.3936C10.2939 73.9469 11.5531 75.2061 13.1064 75.2061Z" fill="#3E61EE"/>
<path d="M30.8252 75.2061C32.3785 75.2061 33.6377 73.9469 33.6377 72.3936C33.6377 70.8403 32.3785 69.5811 30.8252 69.5811C29.2719 69.5811 28.0127 70.8403 28.0127 72.3936C28.0127 73.9469 29.2719 75.2061 30.8252 75.2061Z" fill="#3E61EE"/>
<path d="M49.6689 75.2061C51.2222 75.2061 52.4814 73.9469 52.4814 72.3936C52.4814 70.8403 51.2222 69.5811 49.6689 69.5811C48.1156 69.5811 46.8564 70.8403 46.8564 72.3936C46.8564 73.9469 48.1156 75.2061 49.6689 75.2061Z" fill="#3E61EE"/>
<path d="M101.333 90.269C102.576 90.269 103.583 89.2617 103.583 88.019C103.583 86.7764 102.576 85.769 101.333 85.769C100.09 85.769 99.083 86.7764 99.083 88.019C99.083 89.2617 100.09 90.269 101.333 90.269Z" fill="#3E61EE"/>
<path d="M73.8988 70.4942C73.4231 70.0594 72.8124 69.8015 72.1691 69.7636C71.5258 69.7258 70.889 69.9104 70.3657 70.2865C69.8424 70.6625 69.4643 71.2071 69.295 71.8289C69.1256 72.4507 69.1753 73.1118 69.4357 73.7013C69.696 74.2907 70.1512 74.7727 70.7249 75.0664C71.2985 75.36 71.9557 75.4474 72.5861 75.3138C73.2166 75.1803 73.7819 74.834 74.1872 74.333C74.5926 73.8321 74.8133 73.2069 74.8123 72.5625C74.8121 72.1732 74.7307 71.7882 74.5734 71.4321C74.4161 71.076 74.1864 70.7565 73.8988 70.4942Z" fill="#968B82"/>
<path d="M71.9997 56.2499C69.3729 56.2463 66.7873 56.9023 64.48 58.1579C60.6775 54.3829 45.7931 39.5062 37.539 31.2518C36.694 30.4157 35.5524 29.948 34.3636 29.9507C33.1749 29.9534 32.0355 30.4265 31.1943 31.2665C30.3531 32.1064 29.8785 33.2452 29.8741 34.4339C29.8696 35.6227 30.3358 36.7649 31.1707 37.6112L58.0475 64.6874C56.4501 67.7341 55.894 71.2199 56.4641 74.6124C57.0342 78.0049 58.6992 81.1174 61.2047 83.4746C63.7102 85.8318 66.9185 87.304 70.3395 87.6662C73.7604 88.0285 77.2059 87.2609 80.1495 85.4808C83.0931 83.7006 85.3731 81.0058 86.6411 77.808C87.9091 74.6101 88.0954 71.0851 87.1715 67.7714C86.2476 64.4578 84.2644 61.5376 81.5248 59.4571C78.7852 57.3767 75.4398 56.2502 71.9997 56.2499ZM71.9997 84.3749C69.7794 84.3744 67.6001 83.7767 65.6901 82.6444C63.7802 81.5121 62.21 79.8869 61.1442 77.9392C60.0783 75.9914 59.556 73.7928 59.632 71.5737C59.7079 69.3547 60.3794 67.197 61.5761 65.3267C61.7834 65.0035 61.8744 64.6193 61.8339 64.2375C61.7935 63.8557 61.6241 63.4991 61.3536 63.2266L33.5616 35.2293C33.3506 35.0183 33.2321 34.7321 33.2321 34.4337C33.2321 34.1354 33.3506 33.8492 33.5616 33.6382C33.7726 33.4272 34.0587 33.3087 34.3571 33.3087C34.6555 33.3087 34.9416 33.4272 35.1526 33.6382C35.1526 33.6382 42.1158 40.6017 49.0832 47.5626C52.5668 51.0434 56.0517 54.5236 58.6674 57.1324C59.976 58.4374 61.0673 59.5231 61.8326 60.2847C62.2165 60.6663 62.5188 60.9209 62.7255 61.1248C63.1446 61.5385 64.0176 62.4374 65.162 61.5936C67.1895 60.4686 69.554 59.5799 71.9995 59.5799C75.2875 59.5798 78.4409 60.886 80.7659 63.2109C83.0909 65.5359 84.3971 68.6892 84.3971 71.9772C84.3971 75.2653 83.091 78.4186 80.7661 80.7436C78.4411 83.0686 75.2878 84.3748 71.9997 84.3749Z" fill="#968B82"/>
</svg>
