<svg viewBox="0 0 80 80" fill="none" xmlns="http://www.w3.org/2000/svg">
<path d="M9.06421 62.3254C9.09374 62.376 9.1253 62.4255 9.15796 62.474C9.12515 62.4255 9.0939 62.376 9.06421 62.3254ZM9.23843 62.584C9.2453 62.593 9.25171 62.6026 9.25874 62.6115C9.25171 62.6026 9.2453 62.593 9.23843 62.584ZM16.5595 50.0098C16.6262 50.0601 16.6945 50.1079 16.7636 50.1546C16.6942 50.1083 16.6262 50.06 16.5595 50.0098Z" fill="#3E61EE" fill-opacity="0.2"/>
<path d="M24.5657 13.6689C24.165 13.669 23.7807 13.8282 23.4974 14.1115C23.2141 14.3949 23.0549 14.7792 23.0548 15.1799V46.3205H27.7423V15.1799C27.7424 14.7792 27.9016 14.3949 28.1849 14.1115C28.4682 13.8282 28.8525 13.669 29.2532 13.6689H24.5657Z" fill="#3E61EE" fill-opacity="0.2"/>
<path d="M71.0489 4.37469H50.8111C50.2922 3.28891 49.4766 2.37215 48.4586 1.73038C47.4406 1.08861 46.2618 0.748047 45.0584 0.748047C43.855 0.748047 42.6761 1.08861 41.6581 1.73038C40.6401 2.37215 39.8245 3.28891 39.3056 4.37469H19.0678C16.8844 4.37469 15.1562 6.18391 15.1562 8.36719V47.6559H17.0312V8.36719C17.0256 8.09434 17.0738 7.82306 17.1732 7.56887C17.2725 7.31469 17.421 7.08261 17.6102 6.88591C17.7994 6.68921 18.0255 6.53177 18.2756 6.4226C18.5258 6.31342 18.795 6.25467 19.0678 6.24969H38.7427C38.7252 6.55239 38.7276 6.85591 38.75 7.15828V8.90594H29.6453C29.5226 8.9108 29.4021 8.93983 29.2906 8.99137C29.1792 9.04291 29.079 9.11593 28.9958 9.20626C28.9126 9.2966 28.8481 9.40245 28.8059 9.51777C28.7638 9.63309 28.7447 9.7556 28.75 9.87828V12.6559H24.5656C23.2155 12.6559 22.1875 13.8291 22.1875 15.1792V46.2497H24.0625V15.1792C24.0625 14.863 24.25 14.5309 24.5656 14.5309H28.75V17.1316C28.75 17.6494 29.1277 18.1247 29.6453 18.1247H60.4714C60.7253 18.1119 60.9644 18.0014 61.1387 17.8163C61.313 17.6311 61.4088 17.3858 61.4062 17.1316V14.5309H65.5509C65.8672 14.5309 66.0938 14.863 66.0938 15.1792V56.2497H61.2722C59.0887 56.2497 57.3438 58.0823 57.3438 60.2653V64.9997H37.5V66.8747L58.25 66.8672C58.3833 66.8669 58.5149 66.8382 58.6362 66.7829C58.7575 66.7276 58.8655 66.647 58.9531 66.5466L67.178 58.4755C67.4322 58.2198 67.633 57.9162 67.7688 57.5822C67.9045 57.2482 67.9725 56.8905 67.9688 56.53V15.1792C67.9688 13.8291 66.9011 12.6559 65.5509 12.6559H61.4062V9.87828C61.4081 9.62628 61.3114 9.38354 61.1367 9.20187C60.962 9.0202 60.7233 8.91401 60.4714 8.90594H51.4062V7.15828C51.415 6.85504 51.4043 6.55155 51.3741 6.24969H71.0489C71.6041 6.25808 72.1335 6.48517 72.5223 6.88165C72.911 7.27812 73.1276 7.81195 73.125 8.36719V71.2281C73.125 71.4997 73.0712 71.7685 72.9666 72.0191C72.862 72.2697 72.7087 72.4971 72.5156 72.688C72.3225 72.879 72.0934 73.0297 71.8417 73.1315C71.5899 73.2332 71.3204 73.284 71.0489 73.2809H32.8125V75.1559H71.0489C71.5666 75.1588 72.0798 75.0593 72.5589 74.8632C73.038 74.667 73.4736 74.3782 73.8408 74.0132C74.208 73.6482 74.4994 73.2143 74.6983 72.7363C74.8972 72.2584 74.9998 71.7458 75 71.2281V8.36719C75.0022 7.3148 74.5879 6.30429 73.8477 5.55627C73.1074 4.80825 72.1013 4.38348 71.0489 4.37469ZM59.2188 63.8298V60.2653C59.2188 59.1159 60.1227 58.1247 61.2722 58.1247H64.8363L59.2188 63.8298ZM59.5312 10.7809V16.2497H30.625V10.7809H39.6184C40.1362 10.7809 40.625 10.3961 40.625 9.87828V7.15828C40.625 5.97724 41.0942 4.84457 41.9293 4.00945C42.7644 3.17432 43.8971 2.70516 45.0781 2.70516C46.2592 2.70516 47.3918 3.17432 48.227 4.00945C49.0621 4.84457 49.5312 5.97724 49.5312 7.15828V9.87828C49.5353 10.0011 49.5635 10.1219 49.6144 10.2338C49.6652 10.3456 49.7376 10.4464 49.8274 10.5302C49.9172 10.6141 50.0227 10.6794 50.1378 10.7224C50.2529 10.7654 50.3753 10.7853 50.4981 10.7809H59.5312Z" fill="#3E61EE"/>
<path d="M61.7188 35.3125C61.7188 35.0639 61.62 34.8254 61.4442 34.6496C61.2683 34.4738 61.0299 34.375 60.7812 34.375H56.4062C56.1576 34.375 55.9192 34.4738 55.7433 34.6496C55.5675 34.8254 55.4688 35.0639 55.4688 35.3125V53.9062C55.4688 54.1549 55.5675 54.3933 55.7433 54.5692C55.9192 54.745 56.1576 54.8438 56.4062 54.8438H60.7812C61.0299 54.8438 61.2683 54.745 61.4442 54.5692C61.62 54.3933 61.7188 54.1549 61.7188 53.9062V35.3125ZM57.3438 36.25H59.8438V52.9688H57.3438V36.25Z" fill="#3E61EE"/>
<path d="M52.6562 40.9375C52.6562 40.6889 52.5575 40.4504 52.3817 40.2746C52.2058 40.0988 51.9674 40 51.7188 40H47.3438C47.0951 40 46.8567 40.0988 46.6808 40.2746C46.505 40.4504 46.4062 40.6889 46.4062 40.9375V53.9062C46.4062 54.1549 46.505 54.3933 46.6808 54.5692C46.8567 54.745 47.0951 54.8438 47.3438 54.8438H51.7188C51.9674 54.8438 52.2058 54.745 52.3817 54.5692C52.5575 54.3933 52.6562 54.1549 52.6562 53.9062V40.9375ZM48.2812 41.875H50.7812V52.9688H48.2812V41.875Z" fill="#3E61EE"/>
<path d="M43.5938 46.7188C43.5938 46.4701 43.495 46.2317 43.3192 46.0558C43.1433 45.88 42.9049 45.7812 42.6562 45.7812H38.2812C38.0326 45.7812 37.7942 45.88 37.6183 46.0558C37.4425 46.2317 37.3438 46.4701 37.3438 46.7188V53.9062C37.3438 54.1549 37.4425 54.3933 37.6183 54.5692C37.7942 54.745 38.0326 54.8438 38.2812 54.8438H42.6562C42.9049 54.8438 43.1433 54.745 43.3192 54.5692C43.495 54.3933 43.5938 54.1549 43.5938 53.9062V46.7188ZM39.2188 47.6562H41.875V52.9688H39.2188V47.6562Z" fill="#3E61EE"/>
<path d="M34.6874 51.5628V41.6566C34.6874 41.1389 34.2606 40.7816 33.7428 40.7816H29.3423C29.2243 40.7751 29.1062 40.793 28.9955 40.8343C28.8848 40.8756 28.7838 40.9393 28.6988 41.0215C28.6139 41.1036 28.5468 41.2024 28.5018 41.3117C28.4568 41.421 28.4349 41.5384 28.4375 41.6566V48.1253H30.3125V42.6566H32.8125V51.5628H34.6874Z" fill="#3E61EE"/>
<path d="M33.3173 36.7499L36.5986 39.035C36.6996 39.1054 36.8135 39.1551 36.9338 39.1814C37.0541 39.2078 37.1783 39.2102 37.2995 39.1885C37.4207 39.1668 37.5364 39.1214 37.6401 39.055C37.7438 38.9886 37.8333 38.9024 37.9037 38.8013C37.974 38.7003 38.0238 38.5864 38.0501 38.4661C38.0764 38.3459 38.0788 38.2216 38.0571 38.1004C38.0354 37.9792 37.9901 37.8635 37.9236 37.7598C37.8572 37.6562 37.771 37.5666 37.67 37.4963L34.3887 35.2111C34.1847 35.069 33.9326 35.0138 33.6878 35.0576C33.4431 35.1015 33.2257 35.2407 33.0837 35.4448C32.9416 35.6488 32.8864 35.901 32.9302 36.1457C32.974 36.3905 33.1133 36.6078 33.3173 36.7499Z" fill="#968B82"/>
<path d="M43.2128 37.9918C43.0228 38.1521 42.9042 38.3813 42.8831 38.6291C42.8621 38.8768 42.9403 39.1228 43.1006 39.3129C43.261 39.5029 43.4902 39.6215 43.738 39.6426C43.9857 39.6636 44.2317 39.5854 44.4217 39.425L48.0438 36.3702C48.1391 36.2912 48.2178 36.1941 48.2754 36.0845C48.3329 35.975 48.3683 35.8551 48.3793 35.7318C48.3903 35.6085 48.3767 35.4842 48.3395 35.3662C48.3022 35.2482 48.2419 35.1387 48.1621 35.044C48.0823 34.9494 47.9846 34.8715 47.8745 34.8149C47.7645 34.7582 47.6443 34.7239 47.5209 34.714C47.3975 34.704 47.2734 34.7186 47.1557 34.7569C47.0379 34.7951 46.929 34.8563 46.835 34.9369L43.2128 37.9918Z" fill="#968B82"/>
<path d="M52.8623 32.3402C53.0968 32.3405 53.3229 32.2525 53.4956 32.0938L57.0971 28.7927C57.189 28.7098 57.2635 28.6095 57.3165 28.4977C57.3694 28.3859 57.3996 28.2647 57.4055 28.1411C57.4114 28.0175 57.3927 27.894 57.3506 27.7776C57.3085 27.6613 57.2438 27.5544 57.1602 27.4632C57.0766 27.372 56.9757 27.2983 56.8635 27.2462C56.7513 27.1941 56.6298 27.1648 56.5062 27.1599C56.3826 27.155 56.2592 27.1746 56.1432 27.2176C56.0272 27.2606 55.9208 27.3262 55.8303 27.4105L52.2287 30.7116C52.0895 30.8392 51.992 31.006 51.9491 31.1899C51.9063 31.3739 51.92 31.5665 51.9885 31.7426C52.057 31.9186 52.177 32.0699 52.333 32.1765C52.4889 32.2832 52.6734 32.3402 52.8623 32.3402Z" fill="#968B82"/>
<path d="M29.0575 22.9688H39.553C39.8016 22.9688 40.0401 22.87 40.2159 22.6942C40.3917 22.5183 40.4905 22.2799 40.4905 22.0312C40.4905 21.7826 40.3917 21.5442 40.2159 21.3683C40.0401 21.1925 39.8016 21.0938 39.553 21.0938H29.0575C28.8089 21.0938 28.5704 21.1925 28.3946 21.3683C28.2188 21.5442 28.12 21.7826 28.12 22.0312C28.12 22.2799 28.2188 22.5183 28.3946 22.6942C28.5704 22.87 28.8089 22.9688 29.0575 22.9688Z" fill="#968B82"/>
<path d="M33.2155 26.875C33.2155 27.1236 33.3142 27.3621 33.49 27.5379C33.6659 27.7137 33.9043 27.8125 34.153 27.8125H45.9531C46.2018 27.8125 46.4402 27.7137 46.616 27.5379C46.7918 27.3621 46.8906 27.1236 46.8906 26.875C46.8906 26.6264 46.7918 26.3879 46.616 26.2121C46.4402 26.0363 46.2018 25.9375 45.9531 25.9375H34.153C33.9043 25.9375 33.6659 26.0363 33.49 26.2121C33.3142 26.3879 33.2155 26.6264 33.2155 26.875Z" fill="#968B82"/>
<path d="M29.0575 27.8125H30.7475C30.9961 27.8125 31.2346 27.7137 31.4104 27.5379C31.5862 27.3621 31.685 27.1236 31.685 26.875C31.685 26.6264 31.5862 26.3879 31.4104 26.2121C31.2346 26.0363 30.9961 25.9375 30.7475 25.9375H29.0575C28.8089 25.9375 28.5704 26.0363 28.3946 26.2121C28.2188 26.3879 28.12 26.6264 28.12 26.875C28.12 27.1236 28.2188 27.3621 28.3946 27.5379C28.5704 27.7137 28.8089 27.8125 29.0575 27.8125Z" fill="#968B82"/>
<path d="M21.9294 79.2188C25.2794 79.2188 28.5541 78.2254 31.3394 76.3643C34.1248 74.5032 36.2957 71.8579 37.5777 68.763C38.8596 65.668 39.195 62.2625 38.5415 58.9769C37.888 55.6914 36.2748 52.6734 33.9061 50.3046C31.5373 47.9359 28.5193 46.3227 25.2338 45.6692C21.9482 45.0157 18.5427 45.3511 15.4477 46.633C12.3528 47.915 9.70754 50.0859 7.84643 52.8713C5.98531 55.6566 4.99194 58.9313 4.99194 62.2813C4.99711 66.7718 6.78325 71.0769 9.95853 74.2522C13.1338 77.4275 17.4389 79.2136 21.9294 79.2188ZM16.6951 70.8072L14.8465 68.3842C14.7526 68.2611 14.6831 68.1211 14.6418 67.9719L14.0324 65.7714C13.8027 64.9504 13.2602 64.2521 12.5215 63.8264C13.2019 64.0291 13.9349 63.9552 14.5612 63.6206L15.4577 63.1406C15.5663 63.0828 15.6879 63.054 15.8108 63.057C15.9338 63.06 16.0538 63.0946 16.1594 63.1577L17.8626 64.1794C18.0834 64.3121 18.3375 64.379 18.5951 64.372C18.8334 64.3772 19.067 64.4394 19.2762 64.5536C19.4854 64.6678 19.6642 64.8306 19.7974 65.0283L20.6302 66.1891C20.7035 66.2914 20.7821 66.3922 20.8633 66.4875L21.6959 67.4669L20.3593 68.493C19.7668 68.9465 19.3308 69.5738 19.1121 70.2872L18.5624 72.0719C18.5553 72.0952 18.5436 72.1169 18.5279 72.1356L17.9924 72.7797C17.8133 72.9943 17.6563 73.2264 17.5237 73.4725L17.3205 72.2538C17.2325 71.7279 17.0176 71.2314 16.6944 70.8072H16.6951ZM36.9924 62.2813C36.993 63.576 36.8264 64.8655 36.4966 66.1175L36.3091 66.1259C35.6299 66.1542 34.9724 66.3732 34.4118 66.7578C33.8512 67.1423 33.4102 67.677 33.1393 68.3005L33.0401 68.5192C32.9471 68.7289 32.795 68.9069 32.6024 69.0313C32.4098 69.1557 32.185 69.2212 31.9557 69.2197H30.4601L30.4032 68.7216C30.3482 68.1778 30.1709 67.6535 29.8846 67.1879C29.5983 66.7223 29.2104 66.3275 28.7499 66.0331V65.3724C28.7511 65.3214 28.763 65.2713 28.7849 65.2253C28.8068 65.1792 28.8381 65.1383 28.8768 65.1052L31.6988 62.615C32.2307 62.1441 32.6165 61.5307 32.8107 60.8474C33.0049 60.1641 32.9993 59.4395 32.7946 58.7592C32.5828 58.0612 32.173 57.4396 31.6149 56.9699C31.0568 56.5002 30.3743 56.2026 29.6504 56.1131L29.3665 56.0781C29.291 56.0689 29.219 56.0408 29.1573 55.9964L29.6788 55.1058C30.3745 53.917 31.1952 52.806 32.1269 51.7916C32.1526 51.7637 32.1765 51.7342 32.1987 51.7034L32.3824 51.4469C33.841 52.8492 35.0012 54.5317 35.7934 56.3935C36.5856 58.2553 36.9934 60.2579 36.9924 62.2813ZM30.9505 50.2258L30.7074 50.5652C29.7012 51.6667 28.814 52.8712 28.0605 54.1589L27.4649 55.177C27.2887 55.4881 27.2136 55.8462 27.2502 56.2018C27.2868 56.5574 27.4332 56.8928 27.6691 57.1614C28.0463 57.5926 28.5693 57.8696 29.1379 57.9394L29.4224 57.9744C29.7861 58.0193 30.1289 58.1688 30.4094 58.4047C30.6898 58.6406 30.8957 58.9528 31.0023 59.3034C31.1035 59.6397 31.1063 59.9979 31.0104 60.3357C30.9144 60.6735 30.7238 60.9768 30.461 61.2097L27.6357 63.6999C27.3979 63.9089 27.2072 64.166 27.0761 64.4542C26.9451 64.7424 26.8766 65.0551 26.8752 65.3717V66.0325C26.8757 66.348 26.9556 66.6583 27.1074 66.9348C27.2592 67.2114 27.4781 67.4454 27.744 67.6152C27.9663 67.7575 28.1534 67.9483 28.2915 68.1733C28.4295 68.3983 28.5147 68.6516 28.5408 68.9142L28.6085 69.5661C28.6499 69.9865 28.8469 70.3763 29.1609 70.659C29.4749 70.9416 29.8832 71.0967 30.3057 71.0938H31.956C32.5495 71.0953 33.1305 70.9238 33.628 70.6002C34.1256 70.2767 34.518 69.8151 34.7573 69.272L34.8565 69.0499C35.0412 68.6293 35.3838 68.2981 35.8105 68.128C34.3663 71.555 31.7056 74.3267 28.3406 75.9098C24.9755 77.4929 21.1438 77.7755 17.5829 76.7031C17.6745 76.6856 17.764 76.6587 17.8501 76.6227C18.1497 76.4974 18.4095 76.2928 18.6014 76.0308C18.7933 75.7688 18.9101 75.4594 18.9391 75.136C18.9825 74.7089 19.155 74.3052 19.4335 73.9786L19.969 73.3345C20.1429 73.1256 20.2736 72.8842 20.3533 72.6244L20.9035 70.8397C21.0082 70.498 21.217 70.1975 21.5009 69.9803L23.1379 68.7233C23.4475 68.4894 23.6554 68.1455 23.7187 67.7627C23.7531 67.549 23.7408 67.3305 23.6825 67.122C23.6243 66.9136 23.5215 66.7203 23.3813 66.5555L22.2915 65.2731C22.2432 65.2166 22.1977 65.157 22.1533 65.0964L21.3205 63.9355C21.025 63.5098 20.6348 63.1584 20.1807 62.9088C19.7266 62.6593 19.2208 62.5182 18.703 62.4969L17.1235 61.5492C16.7395 61.3201 16.3028 61.194 15.8558 61.1831C15.4087 61.1721 14.9664 61.2767 14.5716 61.4867L13.6751 61.9688C13.4912 62.0665 13.2772 62.0913 13.0758 62.0383C12.8744 61.9853 12.7004 61.8584 12.5884 61.6828L11.7169 60.3069C11.6172 60.1495 11.5655 59.9665 11.5683 59.7802C11.571 59.5939 11.6281 59.4124 11.7326 59.2581C11.857 59.073 12.0307 58.9262 12.2339 58.8343C12.4372 58.7424 12.6621 58.709 12.8834 58.7378L14.1904 58.9039C14.6012 58.9594 15.0192 58.8923 15.392 58.7112C15.7649 58.5301 16.076 58.243 16.2863 57.8858C16.3977 57.694 16.5631 57.5393 16.762 57.4411C16.9609 57.3429 17.1843 57.3056 17.4043 57.3338L17.976 57.4067C18.3387 57.4521 18.707 57.4022 19.0445 57.262C19.3821 57.1218 19.6773 56.8962 19.9012 56.6072L20.4062 55.9531C20.7501 55.5091 20.9431 54.9669 20.9572 54.4054C20.9713 53.844 20.8056 53.2927 20.4843 52.832L19.3983 51.2656C18.903 50.5535 18.259 49.9573 17.511 49.518C17.3763 49.4392 17.2463 49.3527 17.1215 49.2591L16.0155 48.4274C18.4436 47.3895 21.1021 47.0091 23.7238 47.3246C26.3455 47.64 28.8379 48.6401 30.9505 50.2242V50.2258ZM14.1615 49.3797L15.9955 50.7588C16.1777 50.8957 16.3675 51.022 16.5641 51.137C17.0768 51.438 17.5181 51.8466 17.8576 52.3345L18.9432 53.9003C19.0367 54.0343 19.0848 54.1947 19.0807 54.358C19.0766 54.5214 19.0205 54.6791 18.9204 54.8083L18.4168 55.4617C18.3929 55.492 18.3618 55.5156 18.3262 55.5303C18.2906 55.5451 18.2519 55.5505 18.2137 55.5461L17.6421 55.473C17.0566 55.3978 16.4618 55.4971 15.9325 55.7583C15.4031 56.0196 14.9625 56.4313 14.666 56.9417C14.6398 56.9794 14.6034 57.0089 14.5611 57.0268C14.5188 57.0447 14.4723 57.0502 14.4269 57.0427L13.1205 56.8767C12.5555 56.803 11.9811 56.8882 11.4618 57.1228C10.9425 57.3574 10.4988 57.7321 10.1807 58.2049C9.87135 58.6613 9.70204 59.1982 9.69354 59.7495C9.68505 60.3009 9.83774 60.8427 10.1329 61.3084L11.0041 62.6842C11.2262 63.0354 11.5272 63.33 11.883 63.5445C11.8426 63.5317 11.8016 63.5197 11.7605 63.5085L11.6271 63.472C11.5059 63.4389 11.3947 63.3766 11.3032 63.2906L10.1655 62.2197C10.0509 62.1118 9.95239 61.988 9.87304 61.852C9.57976 61.349 9.16497 60.9276 8.66666 60.6263C8.16834 60.3251 7.60241 60.1537 7.02069 60.1278C7.3425 57.9199 8.14984 55.8107 9.38459 53.9522C10.6193 52.0937 12.2508 50.532 14.1615 49.3797ZM6.86991 62.0017C7.15016 62.0019 7.42547 62.0755 7.66834 62.2154C7.91121 62.3552 8.11314 62.5563 8.25397 62.7986C8.42402 63.0899 8.63509 63.3551 8.88069 63.5863L10.0185 64.6572C10.3337 64.9534 10.7166 65.168 11.1338 65.2822L11.2669 65.3186C11.4953 65.3815 11.7036 65.5024 11.8714 65.6695C12.0393 65.8367 12.1611 66.0444 12.2249 66.2725L12.8343 68.473C12.9391 68.8527 13.1159 69.2087 13.3551 69.5216L15.203 71.9442C15.3409 72.1253 15.4326 72.3373 15.4702 72.5617L15.9726 75.575C16.0126 75.8208 16.1179 76.0513 16.2774 76.2425C13.4987 75.1143 11.1194 73.1836 9.44307 70.6969C7.76679 68.2101 6.86969 65.2802 6.86632 62.2813C6.86632 62.1875 6.86819 62.0945 6.86991 62.0017Z" fill="#968B82"/>
<path d="M31.3597 35.6576C32.3193 35.6576 33.0972 34.8797 33.0972 33.9201C33.0972 32.9605 32.3193 32.1826 31.3597 32.1826C30.4001 32.1826 29.6222 32.9605 29.6222 33.9201C29.6222 34.8797 30.4001 35.6576 31.3597 35.6576Z" fill="#968B82"/>
<path d="M38.9022 39.6799C38.9022 40.0235 39.0041 40.3595 39.195 40.6452C39.386 40.9309 39.6573 41.1536 39.9748 41.2851C40.2923 41.4166 40.6417 41.451 40.9787 41.384C41.3157 41.317 41.6253 41.1515 41.8683 40.9085C42.1113 40.6655 42.2768 40.3559 42.3438 40.0188C42.4109 39.6818 42.3765 39.3325 42.245 39.015C42.1135 38.6975 41.8908 38.4261 41.605 38.2352C41.3193 38.0443 40.9834 37.9424 40.6397 37.9424C40.1791 37.9429 39.7374 38.1261 39.4117 38.4518C39.0859 38.7776 38.9027 39.2192 38.9022 39.6799Z" fill="#968B82"/>
<path d="M50.0802 35.3373C51.0397 35.3373 51.8176 34.5594 51.8176 33.5998C51.8176 32.6402 51.0397 31.8623 50.0802 31.8623C49.1206 31.8623 48.3427 32.6402 48.3427 33.5998C48.3427 34.5594 49.1206 35.3373 50.0802 35.3373Z" fill="#968B82"/>
<path d="M59.0405 27.4965C60.0001 27.4965 60.778 26.7186 60.778 25.759C60.778 24.7994 60.0001 24.0215 59.0405 24.0215C58.0809 24.0215 57.303 24.7994 57.303 25.759C57.303 26.7186 58.0809 27.4965 59.0405 27.4965Z" fill="#968B82"/>
</svg>
