<svg viewBox="0 0 144 144" fill="none" xmlns="http://www.w3.org/2000/svg">
<path d="M16.3154 112.185C16.3686 112.276 16.4254 112.365 16.4842 112.452C16.4251 112.365 16.3689 112.276 16.3154 112.185ZM16.629 112.65C16.6414 112.667 16.6529 112.684 16.6656 112.7C16.6529 112.684 16.6414 112.667 16.629 112.65ZM29.807 90.0166C29.9271 90.1072 30.05 90.1932 30.1743 90.2773C30.0494 90.1939 29.927 90.107 29.807 90.0166Z" fill="#3E61EE" fill-opacity="0.2"/>
<path d="M44.2187 24.604C43.4974 24.6041 42.8057 24.8906 42.2957 25.4007C41.7857 25.9107 41.4991 26.6024 41.499 27.3237V83.3768H49.9365V27.3237C49.9366 26.6024 50.2232 25.9107 50.7332 25.4007C51.2432 24.8906 51.9349 24.6041 52.6562 24.604H44.2187Z" fill="#3E61EE" fill-opacity="0.2"/>
<path d="M127.888 7.87512H91.46C90.5259 5.92072 89.0579 4.27055 87.2255 3.11537C85.3931 1.96019 83.2712 1.34717 81.105 1.34717C78.9389 1.34717 76.817 1.96019 74.9846 3.11537C73.1522 4.27055 71.6842 5.92072 70.7501 7.87512H34.3221C30.3919 7.87512 27.2812 11.1317 27.2812 15.0616V85.7814H30.6562V15.0616C30.6461 14.5705 30.7329 14.0822 30.9117 13.6247C31.0905 13.1671 31.3579 12.7494 31.6984 12.3953C32.0389 12.0413 32.4459 11.7579 32.8961 11.5614C33.3464 11.3648 33.8309 11.2591 34.3221 11.2501H69.7368C69.7053 11.795 69.7098 12.3413 69.75 12.8856V16.0314H53.3616C53.1407 16.0401 52.9238 16.0924 52.7231 16.1852C52.5225 16.2779 52.3422 16.4094 52.1925 16.572C52.0428 16.7346 51.9266 16.9251 51.8507 17.1327C51.7747 17.3403 51.7405 17.5608 51.75 17.7816V22.7814H44.2181C41.7878 22.7814 39.9375 24.893 39.9375 27.3233V83.2501H43.3125V27.3233C43.3125 26.754 43.65 26.1564 44.2181 26.1564H51.75V30.8375C51.75 31.7696 52.4298 32.6251 53.3616 32.6251H108.849C109.306 32.6021 109.736 32.4032 110.05 32.07C110.363 31.7367 110.536 31.2951 110.531 30.8375V26.1564H117.992C118.561 26.1564 118.969 26.754 118.969 27.3233V101.25H110.29C106.36 101.25 103.219 104.549 103.219 108.478V117H67.5V120.375L104.85 120.362C105.09 120.361 105.327 120.309 105.545 120.21C105.763 120.11 105.958 119.965 106.116 119.785L120.92 105.257C121.378 104.796 121.739 104.25 121.984 103.649C122.228 103.047 122.351 102.404 122.344 101.755V27.3233C122.344 24.893 120.422 22.7814 117.992 22.7814H110.531V17.7816C110.535 17.328 110.36 16.8911 110.046 16.5641C109.732 16.2371 109.302 16.0459 108.849 16.0314H92.5312V12.8856C92.547 12.3398 92.5277 11.7935 92.4733 11.2501H127.888C128.887 11.2652 129.84 11.674 130.54 12.3876C131.24 13.1013 131.63 14.0622 131.625 15.0616V128.211C131.625 128.7 131.528 129.184 131.34 129.635C131.152 130.086 130.876 130.495 130.528 130.839C130.18 131.183 129.768 131.454 129.315 131.637C128.862 131.82 128.377 131.912 127.888 131.906H59.0625V135.281H127.888C128.82 135.286 129.744 135.107 130.606 134.754C131.468 134.401 132.253 133.881 132.913 133.224C133.574 132.568 134.099 131.786 134.457 130.926C134.815 130.066 135 129.143 135 128.211V15.0616C135.004 13.1673 134.258 11.3484 132.926 10.002C131.593 8.65553 129.782 7.89094 127.888 7.87512ZM106.594 114.894V108.478C106.594 106.409 108.221 104.625 110.29 104.625H116.705L106.594 114.894ZM107.156 19.4064V29.2501H55.125V19.4064H71.3132C72.2453 19.4064 73.125 18.7137 73.125 17.7816V12.8856C73.125 10.7597 73.9695 8.72091 75.4727 7.21769C76.9759 5.71447 79.0147 4.86997 81.1406 4.86997C83.2665 4.86997 85.3053 5.71447 86.8085 7.21769C88.3118 8.72091 89.1562 10.7597 89.1562 12.8856V17.7816C89.1635 18.0026 89.2144 18.2201 89.3059 18.4215C89.3973 18.6228 89.5276 18.8042 89.6893 18.9551C89.851 19.106 90.0408 19.2236 90.248 19.301C90.4552 19.3785 90.6756 19.4143 90.8966 19.4064H107.156Z" fill="#3E61EE"/>
<path d="M111.094 63.5625C111.094 63.1149 110.916 62.6857 110.599 62.3693C110.283 62.0528 109.854 61.875 109.406 61.875H101.531C101.084 61.875 100.654 62.0528 100.338 62.3693C100.022 62.6857 99.8438 63.1149 99.8438 63.5625V97.0312C99.8438 97.4788 100.022 97.908 100.338 98.2245C100.654 98.541 101.084 98.7188 101.531 98.7188H109.406C109.854 98.7188 110.283 98.541 110.599 98.2245C110.916 97.908 111.094 97.4788 111.094 97.0312V63.5625ZM103.219 65.25H107.719V95.3438H103.219V65.25Z" fill="#3E61EE"/>
<path d="M94.7812 73.6875C94.7812 73.2399 94.6035 72.8107 94.287 72.4943C93.9705 72.1778 93.5413 72 93.0938 72H85.2188C84.7712 72 84.342 72.1778 84.0255 72.4943C83.709 72.8107 83.5312 73.2399 83.5312 73.6875V97.0312C83.5312 97.4788 83.709 97.908 84.0255 98.2245C84.342 98.541 84.7712 98.7188 85.2188 98.7188H93.0938C93.5413 98.7188 93.9705 98.541 94.287 98.2245C94.6035 97.908 94.7812 97.4788 94.7812 97.0312V73.6875ZM86.9062 75.375H91.4062V95.3438H86.9062V75.375Z" fill="#3E61EE"/>
<path d="M78.4688 84.0938C78.4688 83.6462 78.291 83.217 77.9745 82.9005C77.658 82.584 77.2288 82.4062 76.7812 82.4062H68.9062C68.4587 82.4062 68.0295 82.584 67.713 82.9005C67.3965 83.217 67.2188 83.6462 67.2188 84.0938V97.0312C67.2188 97.4788 67.3965 97.908 67.713 98.2245C68.0295 98.541 68.4587 98.7188 68.9062 98.7188H76.7812C77.2288 98.7188 77.658 98.541 77.9745 98.2245C78.291 97.908 78.4688 97.4788 78.4688 97.0312V84.0938ZM70.5938 85.7812H75.375V95.3438H70.5938V85.7812Z" fill="#3E61EE"/>
<path d="M62.4369 92.8124V74.9811C62.4369 74.0494 61.6685 73.4061 60.7364 73.4061H52.8156C52.6032 73.3945 52.3907 73.4268 52.1914 73.5011C51.992 73.5754 51.8102 73.6901 51.6573 73.838C51.5044 73.9859 51.3837 74.1637 51.3027 74.3604C51.2218 74.5571 51.1823 74.7685 51.1869 74.9811V86.6249H54.5619V76.7811H59.0619V92.8124H62.4369Z" fill="#3E61EE"/>
<path d="M59.9713 66.15L65.8776 70.2633C66.0594 70.3899 66.2644 70.4795 66.4809 70.5269C66.6974 70.5743 66.9211 70.5786 67.1392 70.5395C67.3574 70.5005 67.5657 70.4188 67.7523 70.2993C67.9389 70.1797 68.1001 70.0246 68.2267 69.8427C68.3533 69.6608 68.4429 69.4558 68.4903 69.2393C68.5377 69.0228 68.542 68.7992 68.5029 68.581C68.4639 68.3629 68.3822 68.1546 68.2626 67.968C68.1431 67.7814 67.9879 67.6202 67.8061 67.4936L61.8998 63.3803C61.5325 63.1245 61.0787 63.0252 60.6381 63.1041C60.1976 63.1829 59.8064 63.4336 59.5507 63.8009C59.295 64.1682 59.1956 64.622 59.2745 65.0626C59.3533 65.5031 59.604 65.8943 59.9713 66.15Z" fill="#968B82"/>
<path d="M77.7831 68.386C77.441 68.6745 77.2275 69.0872 77.1897 69.5331C77.1518 69.9791 77.2926 70.4218 77.5812 70.7639C77.8697 71.106 78.2824 71.3195 78.7283 71.3574C79.1743 71.3953 79.617 71.2544 79.9591 70.9659L86.4788 65.4672C86.6503 65.325 86.792 65.1502 86.8957 64.953C86.9993 64.7557 87.0629 64.5399 87.0827 64.318C87.1025 64.0961 87.0782 63.8724 87.0111 63.6599C86.944 63.4475 86.8355 63.2504 86.6919 63.0801C86.5482 62.9097 86.3723 62.7695 86.1742 62.6676C85.9761 62.5656 85.7597 62.5039 85.5376 62.4859C85.3156 62.468 85.0921 62.4942 84.8802 62.5631C84.6683 62.632 84.4722 62.7422 84.3031 62.8872L77.7831 68.386Z" fill="#968B82"/>
<path d="M95.1516 58.2125C95.5738 58.2131 95.9807 58.0547 96.2915 57.769L102.774 51.827C102.94 51.6778 103.074 51.4974 103.169 51.2961C103.264 51.0947 103.319 50.8766 103.329 50.6541C103.34 50.4317 103.306 50.2093 103.23 49.9999C103.155 49.7905 103.038 49.5982 102.888 49.434C102.737 49.2698 102.556 49.1371 102.354 49.0434C102.152 48.9497 101.933 48.8969 101.711 48.888C101.488 48.8792 101.266 48.9145 101.057 48.9919C100.848 49.0693 100.657 49.1873 100.494 49.3391L94.0111 55.281C93.7605 55.5108 93.5851 55.8109 93.5079 56.1421C93.4307 56.4732 93.4554 56.82 93.5787 57.1369C93.702 57.4537 93.9181 57.726 94.1988 57.9179C94.4794 58.1099 94.8116 58.2126 95.1516 58.2125Z" fill="#968B82"/>
<path d="M52.3037 41.3438H71.1956C71.6431 41.3438 72.0723 41.166 72.3888 40.8495C72.7053 40.533 72.883 40.1038 72.883 39.6562C72.883 39.2087 72.7053 38.7795 72.3888 38.463C72.0723 38.1465 71.6431 37.9688 71.1956 37.9688H52.3037C51.8562 37.9688 51.4269 38.1465 51.1105 38.463C50.794 38.7795 50.6162 39.2087 50.6162 39.6562C50.6162 40.1038 50.794 40.533 51.1105 40.8495C51.4269 41.166 51.8562 41.3438 52.3037 41.3438Z" fill="#968B82"/>
<path d="M59.7881 48.375C59.7881 48.8226 59.9659 49.2518 60.2823 49.5682C60.5988 49.8847 61.028 50.0625 61.4756 50.0625H82.7159C83.1634 50.0625 83.5927 49.8847 83.9091 49.5682C84.2256 49.2518 84.4034 48.8226 84.4034 48.375C84.4034 47.9274 84.2256 47.4982 83.9091 47.1818C83.5927 46.8653 83.1634 46.6875 82.7159 46.6875H61.4756C61.028 46.6875 60.5988 46.8653 60.2823 47.1818C59.9659 47.4982 59.7881 47.9274 59.7881 48.375Z" fill="#968B82"/>
<path d="M52.3037 50.0625H55.3457C55.7933 50.0625 56.2225 49.8847 56.539 49.5682C56.8554 49.2518 57.0332 48.8226 57.0332 48.375C57.0332 47.9274 56.8554 47.4982 56.539 47.1818C56.2225 46.8653 55.7933 46.6875 55.3457 46.6875H52.3037C51.8562 46.6875 51.4269 46.8653 51.1105 47.1818C50.794 47.4982 50.6162 47.9274 50.6162 48.375C50.6162 48.8226 50.794 49.2518 51.1105 49.5682C51.4269 49.8847 51.8562 50.0625 52.3037 50.0625Z" fill="#968B82"/>
<path d="M39.4729 142.594C45.5027 142.594 51.3972 140.806 56.4108 137.456C61.4244 134.106 65.3321 129.344 67.6396 123.773C69.9472 118.202 70.5509 112.072 69.3745 106.158C68.1982 100.244 65.2945 94.812 61.0308 90.5482C56.767 86.2845 51.3347 83.3808 45.4207 82.2045C39.5067 81.0281 33.3767 81.6319 27.8058 83.9394C22.2349 86.2469 17.4734 90.1546 14.1234 95.1682C10.7734 100.182 8.98535 106.076 8.98535 112.106C8.99466 120.189 12.2097 127.938 17.9252 133.654C23.6407 139.369 31.3899 142.584 39.4729 142.594ZM30.051 127.453L26.7235 123.092C26.5544 122.87 26.4294 122.618 26.3551 122.349L25.2582 118.388C24.8446 116.911 23.8682 115.654 22.5385 114.887C23.7633 115.252 25.0827 115.119 26.2099 114.517L27.8238 113.653C28.0191 113.549 28.238 113.497 28.4593 113.502C28.6806 113.508 28.8968 113.57 29.0869 113.684L32.1525 115.523C32.5499 115.762 33.0074 115.882 33.471 115.87C33.8999 115.879 34.3204 115.991 34.697 116.196C35.0737 116.402 35.3954 116.695 35.6352 117.051L37.1343 119.14C37.2662 119.324 37.4076 119.506 37.5539 119.677L39.0524 121.44L36.6466 123.287C35.5801 124.104 34.7952 125.233 34.4016 126.517L33.4122 129.729C33.3994 129.771 33.3782 129.81 33.35 129.844L32.3862 131.003C32.0638 131.39 31.7811 131.807 31.5424 132.25L31.1768 130.057C31.0183 129.11 30.6315 128.216 30.0499 127.453H30.051ZM66.5862 112.106C66.5873 114.437 66.2874 116.758 65.6938 119.011L65.3563 119.027C64.1337 119.078 62.9501 119.472 61.941 120.164C60.932 120.856 60.1382 121.818 59.6506 122.941L59.472 123.335C59.3047 123.712 59.0309 124.032 58.6842 124.256C58.3375 124.48 57.9329 124.598 57.5201 124.595H54.828L54.7256 123.699C54.6267 122.72 54.3076 121.776 53.7922 120.938C53.2768 120.1 52.5786 119.389 51.7497 118.86V117.67C51.7519 117.578 51.7733 117.488 51.8127 117.405C51.852 117.322 51.9084 117.249 51.9781 117.189L57.0577 112.707C58.015 111.859 58.7096 110.755 59.0591 109.525C59.4086 108.295 59.3986 106.991 59.0301 105.767C58.6489 104.51 57.9112 103.391 56.9066 102.546C55.902 101.7 54.6737 101.165 53.3705 101.004L52.8595 100.941C52.7236 100.924 52.5941 100.873 52.4829 100.793L53.4217 99.1903C54.674 97.0506 56.1513 95.0507 57.8284 93.2247C57.8745 93.1745 57.9176 93.1215 57.9574 93.0661L58.2882 92.6043C60.9136 95.1284 63.002 98.157 64.4279 101.508C65.8539 104.859 66.588 108.464 66.5862 112.106ZM55.7108 90.4063L55.2732 91.0172C53.462 92.9999 51.865 95.1681 50.5088 97.486L49.4367 99.3186C49.1195 99.8784 48.9844 100.523 49.0503 101.163C49.1162 101.803 49.3797 102.407 49.8043 102.89C50.4832 103.667 51.4245 104.165 52.448 104.291L52.9602 104.354C53.6148 104.435 54.232 104.704 54.7367 105.128C55.2415 105.553 55.6122 106.115 55.8039 106.746C55.9861 107.351 55.9911 107.996 55.8185 108.604C55.6459 109.212 55.3027 109.758 54.8297 110.177L49.7441 114.66C49.3161 115.036 48.9729 115.499 48.7369 116.018C48.5009 116.536 48.3777 117.099 48.3753 117.669V118.858C48.3762 119.426 48.5199 119.985 48.7931 120.483C49.0664 120.98 49.4604 121.402 49.939 121.707C50.3391 121.963 50.6761 122.307 50.9245 122.712C51.1729 123.117 51.3264 123.573 51.3734 124.046L51.4952 125.219C51.5697 125.976 51.9243 126.677 52.4895 127.186C53.0547 127.695 53.7897 127.974 54.5501 127.969H57.5207C58.5889 127.971 59.6348 127.663 60.5303 127.08C61.4258 126.498 62.1322 125.667 62.5629 124.69L62.7415 124.29C63.074 123.533 63.6908 122.937 64.4588 122.63C61.8592 128.799 57.07 133.788 51.0129 136.638C44.9557 139.487 38.0587 139.996 31.649 138.066C31.8139 138.034 31.9751 137.985 32.13 137.921C32.6693 137.695 33.1369 137.327 33.4824 136.855C33.8278 136.384 34.038 135.827 34.0903 135.245C34.1684 134.476 34.4788 133.749 34.9802 133.161L35.944 132.002C36.2571 131.626 36.4923 131.192 36.6359 130.724L37.6262 127.511C37.8146 126.896 38.1905 126.355 38.7014 125.964L41.648 123.702C42.2054 123.281 42.5797 122.662 42.6934 121.973C42.7554 121.588 42.7332 121.195 42.6284 120.82C42.5236 120.444 42.3386 120.096 42.0862 119.8L40.1245 117.492C40.0376 117.39 39.9558 117.283 39.8759 117.173L38.3768 115.084C37.8448 114.318 37.1426 113.685 36.3251 113.236C35.5077 112.787 34.5973 112.533 33.6653 112.494L30.8222 110.789C30.1309 110.376 29.3449 110.149 28.5402 110.129C27.7356 110.11 26.9394 110.298 26.2288 110.676L24.615 111.544C24.2839 111.72 23.8988 111.764 23.5363 111.669C23.1738 111.573 22.8605 111.345 22.6589 111.029L21.0904 108.552C20.9107 108.269 20.8177 107.94 20.8227 107.604C20.8277 107.269 20.9305 106.942 21.1185 106.665C21.3425 106.331 21.655 106.067 22.021 105.902C22.3869 105.736 22.7917 105.676 23.1899 105.728L25.5425 106.027C26.2819 106.127 27.0344 106.006 27.7055 105.68C28.3766 105.354 28.9366 104.837 29.3152 104.194C29.5157 103.849 29.8135 103.571 30.1715 103.394C30.5294 103.217 30.9316 103.15 31.3276 103.201L32.3567 103.332C33.0095 103.414 33.6724 103.324 34.28 103.072C34.8876 102.819 35.419 102.413 35.8219 101.893L36.7309 100.716C37.35 99.9163 37.6975 98.9402 37.7228 97.9296C37.7481 96.919 37.4499 95.9268 36.8716 95.0976L34.9169 92.278C34.0252 90.9962 32.8661 89.923 31.5197 89.1323C31.2773 88.9904 31.0432 88.8348 30.8185 88.6662L28.8278 87.1691C33.1983 85.301 37.9837 84.6164 42.7027 85.1841C47.4217 85.7519 51.9081 87.552 55.7108 90.4035V90.4063ZM25.4905 88.8834L28.7918 91.3657C29.1196 91.6121 29.4613 91.8394 29.8153 92.0466C30.7381 92.5883 31.5324 93.3237 32.1435 94.2021L34.0976 97.0205C34.2658 97.2617 34.3526 97.5504 34.3452 97.8444C34.3378 98.1384 34.2367 98.4223 34.0565 98.6548L33.1501 99.831C33.1071 99.8854 33.051 99.9279 32.987 99.9545C32.923 99.9811 32.8533 99.9909 32.7844 99.9829L31.7556 99.8513C30.7017 99.716 29.6312 99.8946 28.6783 100.365C27.7254 100.835 26.9324 101.576 26.3987 102.495C26.3515 102.563 26.286 102.616 26.2098 102.648C26.1336 102.68 26.0499 102.69 25.9684 102.677L23.6168 102.378C22.5997 102.245 21.5658 102.399 20.631 102.821C19.6963 103.243 18.8977 103.918 18.3251 104.769C17.7683 105.59 17.4635 106.557 17.4482 107.549C17.4329 108.541 17.7078 109.517 18.239 110.355L19.8073 112.832C20.2071 113.464 20.7488 113.994 21.3893 114.38C21.3165 114.357 21.2428 114.335 21.1688 114.315L20.9286 114.25C20.7106 114.19 20.5104 114.078 20.3456 113.923L18.2978 111.995C18.0915 111.801 17.9142 111.578 17.7713 111.334C17.2434 110.428 16.4968 109.67 15.5998 109.127C14.7029 108.585 13.6842 108.277 12.6371 108.23C13.2164 104.256 14.6696 100.459 16.8921 97.1139C19.1147 93.7685 22.0513 90.9576 25.4905 88.8834ZM12.3657 111.603C12.8701 111.603 13.3657 111.736 13.8029 111.988C14.24 112.239 14.6035 112.601 14.857 113.037C15.1631 113.562 15.543 114.039 15.9851 114.455L18.0332 116.383C18.6005 116.916 19.2897 117.302 20.0407 117.508L20.2804 117.573C20.6915 117.687 21.0663 117.904 21.3684 118.205C21.6706 118.506 21.8898 118.88 22.0047 119.29L23.1016 123.251C23.2902 123.935 23.6084 124.575 24.039 125.139L27.3653 129.5C27.6134 129.826 27.7785 130.207 27.8463 130.611L28.7505 136.035C28.8225 136.477 29.012 136.892 29.2992 137.236C24.2976 135.206 20.0147 131.73 16.9974 127.254C13.9801 122.778 12.3653 117.504 12.3592 112.106C12.3592 111.937 12.3626 111.77 12.3657 111.603Z" fill="#968B82"/>
<path d="M56.4468 64.1832C58.1741 64.1832 59.5743 62.783 59.5743 61.0557C59.5743 59.3285 58.1741 57.9282 56.4468 57.9282C54.7196 57.9282 53.3193 59.3285 53.3193 61.0557C53.3193 62.783 54.7196 64.1832 56.4468 64.1832Z" fill="#968B82"/>
<path d="M70.0244 71.4239C70.0244 72.0424 70.2078 72.6471 70.5515 73.1614C70.8951 73.6757 71.3836 74.0766 71.9551 74.3133C72.5266 74.55 73.1554 74.612 73.7621 74.4913C74.3687 74.3706 74.926 74.0727 75.3634 73.6354C75.8008 73.198 76.0986 72.6407 76.2193 72.034C76.34 71.4274 76.2781 70.7985 76.0414 70.227C75.8046 69.6556 75.4038 69.1671 74.8895 68.8235C74.3751 68.4798 73.7705 68.2964 73.1519 68.2964C72.3227 68.2973 71.5278 68.6271 70.9414 69.2134C70.3551 69.7997 70.0253 70.5947 70.0244 71.4239Z" fill="#968B82"/>
<path d="M90.1441 63.607C91.8714 63.607 93.2716 62.2068 93.2716 60.4795C93.2716 58.7523 91.8714 57.3521 90.1441 57.3521C88.4168 57.3521 87.0166 58.7523 87.0166 60.4795C87.0166 62.2068 88.4168 63.607 90.1441 63.607Z" fill="#968B82"/>
<path d="M106.273 49.4943C108 49.4943 109.401 48.094 109.401 46.3668C109.401 44.6395 108 43.2393 106.273 43.2393C104.546 43.2393 103.146 44.6395 103.146 46.3668C103.146 48.094 104.546 49.4943 106.273 49.4943Z" fill="#968B82"/>
</svg>
