<svg viewBox="0 0 144 144" fill="none" xmlns="http://www.w3.org/2000/svg">
<path d="M114.823 5.43973L114.781 5.35254C95.3519 9.95541 78.1205 21.1535 66.0232 37.0382H66.0204C60.2706 44.563 55.8102 52.9904 52.8214 61.9766C52.3179 63.4869 51.8576 65.0141 51.4404 66.5582L57.0654 72.1832C57.4817 70.6391 57.942 69.1119 58.4464 67.6016C61.4352 58.6154 65.8956 50.188 71.6454 42.6632H71.6482C83.3374 27.3189 99.8282 16.3308 118.49 11.4517C117.077 9.57029 115.849 7.55697 114.823 5.43973V5.43973Z" fill="#3E61EE" fill-opacity="0.2"/>
<path d="M46.3117 34.459C47.4117 34.456 48.5014 34.6712 49.5177 35.0922C50.5339 35.5131 51.4566 36.1315 52.2323 36.9115C54.1411 38.8078 56.6409 39.9946 59.317 40.275C61.9931 40.5554 64.6846 39.9125 66.945 38.453L65.1029 35.6253C63.4919 36.6651 61.5738 37.1229 59.6668 36.9227C57.7599 36.7225 55.9787 35.8764 54.6187 34.5248C52.417 32.3231 49.4313 31.0856 46.3177 31.084C43.204 31.0824 40.2171 32.3169 38.0131 34.5163L21.3001 50.9861C21.141 51.143 21.0147 51.3301 20.9285 51.5363C20.8423 51.7425 20.7979 51.9638 20.7979 52.1873C20.7979 52.4108 20.8423 52.6321 20.9285 52.8383C21.0147 53.0445 21.141 53.2315 21.3001 53.3885L30.9706 62.9397C34.0894 66.0051 38.2913 67.7168 42.6643 67.7032C47.0373 67.6896 51.2285 65.9519 54.3282 62.8672L51.9415 60.4808C49.4732 62.937 46.1358 64.3207 42.6537 64.3315C39.1715 64.3423 35.8256 62.9793 33.3421 60.5384L24.8875 52.1892L40.3908 36.9115C41.1666 36.1315 42.0893 35.5132 43.1056 35.0922C44.1219 34.6712 45.2117 34.456 46.3117 34.459V34.459Z" fill="#3E61EE"/>
<path d="M101.771 72.2934L98.9435 70.4512C97.484 72.7117 96.8411 75.4032 97.1215 78.0793C97.4019 80.7554 98.5887 83.2553 100.485 85.1642C102.054 86.7374 102.934 88.869 102.932 91.0908C102.931 93.3125 102.048 95.4428 100.477 97.0138L85.2072 112.508L76.858 104.055C74.4172 101.571 73.0542 98.2254 73.0651 94.7432C73.0759 91.261 74.4597 87.9236 76.916 85.4553L74.5296 83.0689C71.4448 86.1685 69.707 90.3597 69.6934 94.7327C69.6799 99.1058 71.3916 103.308 74.457 106.426L84.008 116.156C84.3189 116.494 84.7501 116.696 85.2086 116.719C85.6673 116.696 86.0987 116.494 86.4096 116.156L102.871 99.4219C105.071 97.214 106.306 94.2242 106.306 91.1073C106.306 87.9904 105.071 85.0006 102.871 82.7927C101.519 81.4296 100.673 79.6458 100.474 77.7366C100.274 75.8273 100.731 73.907 101.771 72.2934V72.2934Z" fill="#3E61EE"/>
<path d="M43.3717 108.247C42.4769 108.459 41.5603 108.565 40.6408 108.563H37.9824C37.5349 108.563 37.1056 108.74 36.7892 109.057C36.4727 109.373 36.2949 109.803 36.2949 110.25C36.2949 110.698 36.4727 111.127 36.7892 111.443C37.1056 111.76 37.5349 111.938 37.9824 111.938H40.6408C41.8246 111.94 43.0046 111.803 44.1564 111.529C44.5917 111.425 44.9677 111.152 45.2017 110.771C45.4358 110.389 45.5087 109.93 45.4045 109.495C45.3002 109.06 45.0274 108.684 44.6459 108.45C44.2644 108.216 43.8056 108.143 43.3703 108.247H43.3717Z" fill="#3E61EE"/>
<path d="M55.3288 93.6116C54.9805 92.0514 54.3849 90.557 53.5645 89.185L59.4277 95.0476C59.6391 95.259 59.9028 95.4104 60.1919 95.4863C60.481 95.5623 60.7851 95.5601 61.073 95.48C61.361 95.3999 61.6226 95.2448 61.8309 95.0304C62.0392 94.8161 62.1869 94.5503 62.2588 94.2601L65.8588 79.7077L62.5828 78.8974L59.7017 90.5479L46.9529 77.7994L58.8874 75.2699L58.1877 71.9683L43.2106 75.1427C42.9134 75.2057 42.6386 75.3477 42.4154 75.5538C42.1922 75.7599 42.0288 76.0224 41.9424 76.3136C41.856 76.6049 41.8498 76.9141 41.9245 77.2086C41.9992 77.503 42.152 77.7719 42.3668 77.9867L48.3574 83.9774C47.0054 83.1684 45.5342 82.5779 43.9981 82.2277C43.5092 82.1172 43.0193 82.0308 42.546 81.9718C41.9537 81.8965 41.3574 81.8566 40.7603 81.8522C38.785 81.8351 36.8263 82.2131 34.9992 82.9641C33.1722 83.715 31.5137 84.8238 30.1215 86.2251C28.684 87.6388 27.5429 89.325 26.7648 91.1849C25.9868 93.0449 25.5874 95.0413 25.59 97.0574C25.5898 97.4977 25.7617 97.9206 26.069 98.2358C26.3763 98.5511 26.7946 98.7338 27.2347 98.7449L28.5074 98.7773C26.0445 102.187 25.01 106.423 25.6243 110.584C25.7007 110.967 25.9077 111.311 26.2099 111.558C26.5121 111.804 26.8906 111.939 27.2808 111.937H31.8911C32.3386 111.937 32.7679 111.759 33.0843 111.443C33.4008 111.127 33.5786 110.697 33.5786 110.25C33.5786 109.802 33.4008 109.373 33.0843 109.057C32.7679 108.74 32.3386 108.562 31.8911 108.562H28.817C28.7692 106.312 29.2631 102.049 33.3494 98.4432C33.6035 98.2191 33.7842 97.9236 33.8678 97.5953C33.9515 97.267 33.9342 96.9211 33.8183 96.6028C33.7024 96.2844 33.4932 96.0084 33.2181 95.8108C32.9429 95.6131 32.6145 95.503 32.2758 95.4948L29.0808 95.4144C29.442 92.8356 30.6438 90.4479 32.5 88.6216C33.5675 87.5474 34.8366 86.6945 36.2345 86.1119C37.6325 85.5293 39.1317 85.2284 40.6461 85.2267H40.7342C41.0028 85.2283 41.2722 85.2427 41.5413 85.2632C40.5108 85.8706 39.6341 86.7075 38.9794 87.7087C38.3247 88.7099 37.9096 89.8485 37.7664 91.0362L36.7986 98.8549C36.7693 99.0922 36.7906 99.333 36.8614 99.5614C36.9321 99.7898 37.0506 100.001 37.2089 100.18C37.3672 100.359 37.5618 100.502 37.7798 100.601C37.9977 100.699 38.2341 100.75 38.4732 100.75C38.5425 100.75 38.6117 100.745 38.6805 100.737L46.4992 99.769C47.6877 99.6226 48.8265 99.2049 49.8278 98.5482C50.8291 97.8915 51.666 97.0134 52.2738 95.9817C52.298 96.2857 52.3146 96.5923 52.3152 96.9011C52.3192 98.4347 52.0191 99.954 51.4322 101.371C50.8453 102.788 49.9833 104.074 48.896 105.156C48.7358 105.312 48.6082 105.498 48.5205 105.704C48.4329 105.909 48.387 106.13 48.3854 106.354C48.3839 106.577 48.4268 106.799 48.5116 107.006C48.5965 107.213 48.7215 107.401 48.8796 107.559C49.0376 107.717 49.2255 107.842 49.4323 107.927C49.6391 108.011 49.8607 108.054 50.0843 108.053C50.3078 108.051 50.5288 108.005 50.7344 107.918C50.9401 107.83 51.1262 107.703 51.2822 107.542C52.9035 105.923 54.133 103.953 54.8766 101.785C55.6201 99.6174 55.8581 97.3082 55.5723 95.0341C55.5161 94.5636 55.434 94.0852 55.3288 93.6116ZM49.8216 93.2128C49.5838 94.0561 49.102 94.8103 48.4369 95.3808C47.7718 95.9512 46.953 96.3124 46.0832 96.419L40.4138 97.1221L41.1169 91.4541C41.2308 90.5673 41.607 89.7347 42.1973 89.0632C42.7876 88.3917 43.5651 87.9119 44.4301 87.6853C45.1887 87.4917 45.9849 87.5013 46.7386 87.7131C47.4924 87.925 48.177 88.3316 48.7237 88.8921C49.2704 89.4525 49.6598 90.1471 49.8528 90.9059C50.0458 91.6647 50.0355 92.4609 49.823 93.2144L49.8216 93.2128Z" fill="#3E61EE"/>
<path d="M111.279 73.3819C111.672 73.3823 112.053 73.2451 112.355 72.9941C113.557 71.9985 114.75 70.9556 115.899 69.8947C116.064 69.7451 116.198 69.5642 116.293 69.3625C116.388 69.1607 116.442 68.9421 116.452 68.7193C116.463 68.4965 116.428 68.2739 116.352 68.0644C116.275 67.8549 116.158 67.6627 116.007 67.4987C115.856 67.3348 115.673 67.2025 115.471 67.1095C115.268 67.0164 115.049 66.9645 114.826 66.9566C114.603 66.9488 114.381 66.9852 114.172 67.0637C113.963 67.1423 113.772 67.2615 113.61 67.4144C112.504 68.4345 111.357 69.4371 110.201 70.3956C109.934 70.6171 109.741 70.9158 109.649 71.2509C109.558 71.5859 109.572 71.941 109.69 72.2677C109.808 72.5944 110.023 72.8768 110.308 73.0764C110.592 73.276 110.931 73.3829 111.278 73.3828L111.279 73.3819Z" fill="#3E61EE"/>
<path d="M139.15 28.935C138.938 28.8709 138.716 28.8491 138.495 28.8711C138.274 28.893 138.06 28.9581 137.865 29.0628C137.67 29.1674 137.497 29.3095 137.356 29.481C137.216 29.6524 137.111 29.8499 137.047 30.062C135.626 34.7576 133.794 39.3189 131.573 43.6931C130.764 45.2858 129.891 46.8748 128.979 48.4158C127.859 50.3089 126.648 52.1823 125.379 53.9846C123.367 56.8412 121.18 59.5704 118.83 62.1563C118.529 62.4875 118.372 62.9247 118.394 63.3718C118.415 63.8189 118.613 64.2391 118.944 64.5402C119.275 64.8412 119.713 64.9983 120.16 64.9769C120.607 64.9556 121.027 64.7575 121.328 64.4263C123.772 61.7363 126.046 58.8976 128.138 55.9263C129.457 54.0526 130.717 52.1041 131.883 50.1345C132.831 48.5314 133.739 46.8785 134.581 45.2214C136.892 40.6701 138.798 35.9241 140.276 31.0385C140.406 30.6103 140.36 30.1481 140.149 29.7537C139.938 29.3592 139.578 29.0648 139.15 28.935V28.935Z" fill="#3E61EE"/>
<path d="M8.38973 66.2827C8.07327 65.9663 7.64413 65.7886 7.19666 65.7886C6.7492 65.7886 6.32005 65.9663 6.0036 66.2827L4.70985 67.575C4.54965 67.7309 4.42202 67.9171 4.33436 68.1227C4.24671 68.3283 4.20079 68.5493 4.19926 68.7728C4.19773 68.9964 4.24062 69.218 4.32545 69.4248C4.41028 69.6316 4.53535 69.8195 4.69341 69.9776C4.85146 70.1356 5.03934 70.2607 5.24614 70.3456C5.45294 70.4304 5.67454 70.4734 5.89807 70.4719C6.1216 70.4704 6.3426 70.4245 6.54824 70.3368C6.75388 70.2492 6.94006 70.1216 7.09598 69.9614L8.38832 68.6691C8.70495 68.3528 8.88298 67.9237 8.88324 67.4761C8.8835 67.0286 8.70598 66.5993 8.38973 66.2827V66.2827Z" fill="#3E61EE"/>
<path d="M12.0553 65.0036L17.8297 59.2295C17.9864 59.0728 18.1107 58.8868 18.1955 58.6821C18.2803 58.4773 18.324 58.2579 18.324 58.0363C18.324 57.8147 18.2804 57.5952 18.1956 57.3905C18.1108 57.1857 17.9865 56.9997 17.8298 56.843C17.6731 56.6863 17.4871 56.5619 17.2823 56.4771C17.0776 56.3923 16.8582 56.3486 16.6366 56.3486C16.4149 56.3486 16.1955 56.3923 15.9908 56.4771C15.786 56.5618 15.6 56.6861 15.4433 56.8428L9.66919 62.6169C9.51038 62.7731 9.38407 62.9592 9.29754 63.1645C9.21102 63.3698 9.16599 63.5901 9.16505 63.8129C9.16412 64.0356 9.2073 64.2564 9.2921 64.4624C9.37691 64.6684 9.50166 64.8555 9.65916 65.0131C9.81665 65.1706 10.0038 65.2954 10.2098 65.3802C10.4157 65.4651 10.6364 65.5083 10.8592 65.5074C11.082 65.5066 11.3024 65.4616 11.5076 65.3751C11.7129 65.2886 11.8991 65.1624 12.0553 65.0036V65.0036Z" fill="#3E61EE"/>
<path d="M8.44649 76.7637C8.66814 76.7639 8.88767 76.7204 9.09246 76.6356C9.29724 76.5508 9.48326 76.4264 9.63984 76.2695L16.4272 69.4818C16.5839 69.3251 16.7082 69.1391 16.793 68.9343C16.8778 68.7296 16.9215 68.5101 16.9214 68.2885C16.9214 68.0669 16.8778 67.8475 16.7929 67.6427C16.7081 67.438 16.5838 67.252 16.4271 67.0953C16.2704 66.9386 16.0843 66.8143 15.8796 66.7295C15.6749 66.6447 15.4554 66.6011 15.2338 66.6011C15.0122 66.6011 14.7927 66.6447 14.588 66.7296C14.3833 66.8144 14.1972 66.9387 14.0406 67.0954L7.25315 73.8828C7.01711 74.1188 6.85635 74.4195 6.79123 74.7469C6.7261 75.0743 6.75952 75.4136 6.88725 75.722C7.01499 76.0303 7.23132 76.2939 7.50886 76.4793C7.78641 76.6648 8.11271 76.7637 8.44649 76.7637V76.7637Z" fill="#3E61EE"/>
<path d="M18.5514 66.6564C18.773 66.6567 18.9925 66.6132 19.1972 66.5284C19.402 66.4436 19.5879 66.3192 19.7445 66.1623L22.2538 63.6533C22.4126 63.497 22.5389 63.3109 22.6254 63.1057C22.712 62.9004 22.757 62.68 22.7579 62.4573C22.7588 62.2345 22.7157 62.0138 22.6309 61.8078C22.5461 61.6018 22.4213 61.4146 22.2638 61.2571C22.1063 61.0996 21.9192 60.9748 21.7132 60.8899C21.5072 60.8051 21.2865 60.7618 21.0638 60.7627C20.841 60.7636 20.6206 60.8086 20.4153 60.895C20.21 60.9815 20.0239 61.1078 19.8676 61.2666L17.3583 63.7759C17.1224 64.0119 16.9617 64.3125 16.8967 64.6398C16.8316 64.9671 16.865 65.3064 16.9927 65.6147C17.1204 65.923 17.3366 66.1865 17.6141 66.3719C17.8915 66.5574 18.2177 66.6564 18.5514 66.6564V66.6564Z" fill="#3E61EE"/>
<path d="M11.6438 78.3414L4.14571 85.839C3.8335 86.1563 3.65933 86.5842 3.66115 87.0293C3.66296 87.4745 3.84061 87.9009 4.15539 88.2157C4.47017 88.5305 4.89659 88.7081 5.34176 88.71C5.78693 88.7118 6.21478 88.5376 6.53212 88.2254L14.0297 80.7278C14.1885 80.5716 14.3148 80.3855 14.4013 80.1802C14.4878 79.9749 14.5328 79.7545 14.5337 79.5318C14.5346 79.309 14.4914 79.0883 14.4066 78.8823C14.3217 78.6763 14.197 78.4892 14.0394 78.3317C13.8819 78.1741 13.6948 78.0494 13.4888 77.9645C13.2828 77.8797 13.0621 77.8365 12.8393 77.8374C12.6166 77.8383 12.3962 77.8833 12.1909 77.9698C11.9856 78.0563 11.7995 78.1826 11.6433 78.3414H11.6438Z" fill="#3E61EE"/>
<path d="M26.6789 65.6923C26.3624 65.376 25.9333 65.1982 25.4858 65.1982C25.0384 65.1982 24.6092 65.376 24.2928 65.6923L15.509 74.4749C15.3502 74.6311 15.2239 74.8172 15.1374 75.0225C15.0509 75.2278 15.0058 75.4481 15.0049 75.6709C15.004 75.8937 15.0471 76.1144 15.1319 76.3204C15.2168 76.5264 15.3415 76.7135 15.499 76.8711C15.6565 77.0286 15.8436 77.1534 16.0496 77.2383C16.2556 77.3231 16.4763 77.3663 16.6991 77.3655C16.9218 77.3646 17.1422 77.3196 17.3475 77.2331C17.5528 77.1467 17.7389 77.0204 17.8952 76.8616L26.6789 68.0776C26.995 67.7612 27.1725 67.3322 27.1725 66.885C27.1725 66.4377 26.995 66.0087 26.6789 65.6923V65.6923Z" fill="#3E61EE"/>
<path d="M62.2638 120.157C61.9473 119.841 61.5181 119.663 61.0706 119.663C60.623 119.663 60.1938 119.841 59.8774 120.157L58.585 121.449C58.2686 121.766 58.0908 122.195 58.0908 122.643C58.0908 123.09 58.2687 123.519 58.5852 123.836C58.9017 124.152 59.3309 124.33 59.7785 124.33C60.226 124.33 60.6552 124.152 60.9717 123.836L62.2638 122.542C62.5797 122.226 62.7571 121.797 62.7571 121.35C62.7571 120.903 62.5797 120.474 62.2638 120.157V120.157Z" fill="#3E61EE"/>
<path d="M69.3169 110.717L63.5429 116.491C63.3827 116.647 63.255 116.833 63.1674 117.039C63.0797 117.245 63.0338 117.466 63.0323 117.689C63.0307 117.913 63.0736 118.134 63.1585 118.341C63.2433 118.548 63.3684 118.736 63.5264 118.894C63.6845 119.052 63.8723 119.177 64.0792 119.262C64.286 119.347 64.5075 119.39 64.7311 119.388C64.9546 119.387 65.1756 119.341 65.3812 119.253C65.5869 119.166 65.7731 119.038 65.929 118.878L71.703 113.104C72.0124 112.786 72.1842 112.359 72.1812 111.915C72.1783 111.472 72.0007 111.047 71.6871 110.734C71.3734 110.42 70.9489 110.242 70.5053 110.239C70.0618 110.236 69.6348 110.408 69.3169 110.717V110.717Z" fill="#3E61EE"/>
<path d="M62.32 130.638C62.5416 130.638 62.761 130.594 62.9658 130.51C63.1705 130.425 63.3565 130.3 63.513 130.143L70.3007 123.356C70.4609 123.2 70.5885 123.014 70.6762 122.809C70.7638 122.603 70.8098 122.382 70.8113 122.159C70.8128 121.935 70.7699 121.713 70.6851 121.507C70.6003 121.3 70.4752 121.112 70.3171 120.954C70.1591 120.796 69.9712 120.671 69.7644 120.586C69.5576 120.501 69.336 120.458 69.1125 120.46C68.889 120.461 68.668 120.507 68.4623 120.595C68.2567 120.682 68.0705 120.81 67.9146 120.97L61.1269 127.757C60.891 127.993 60.7303 128.294 60.6652 128.621C60.6001 128.949 60.6336 129.288 60.7612 129.596C60.8889 129.904 61.1052 130.168 61.3826 130.353C61.6601 130.539 61.9862 130.638 62.32 130.638V130.638Z" fill="#3E61EE"/>
<path d="M72.426 120.532C72.6476 120.532 72.8671 120.488 73.0719 120.404C73.2767 120.319 73.4627 120.194 73.6193 120.038L76.1284 117.528C76.4448 117.212 76.6226 116.783 76.6225 116.335C76.6225 115.887 76.4446 115.458 76.1281 115.142C75.8115 114.825 75.3823 114.647 74.9347 114.647C74.4871 114.648 74.0578 114.825 73.7414 115.142L71.2326 117.651C70.9966 117.887 70.8358 118.188 70.7707 118.515C70.7056 118.842 70.739 119.182 70.8667 119.49C70.9945 119.798 71.2108 120.062 71.4884 120.247C71.7659 120.433 72.0922 120.532 72.426 120.532V120.532Z" fill="#3E61EE"/>
<path d="M65.5173 132.215L58.0198 139.713C57.861 139.869 57.7347 140.055 57.6481 140.26C57.5616 140.466 57.5166 140.686 57.5156 140.909C57.5147 141.131 57.5579 141.352 57.6427 141.558C57.7275 141.764 57.8522 141.951 58.0097 142.109C58.1672 142.266 58.3544 142.391 58.5603 142.476C58.7663 142.561 58.987 142.604 59.2098 142.603C59.4326 142.602 59.6529 142.557 59.8582 142.471C60.0635 142.384 60.2497 142.258 60.4059 142.099L67.9037 134.602C68.0625 134.446 68.1888 134.259 68.2753 134.054C68.3618 133.849 68.4068 133.629 68.4077 133.406C68.4086 133.183 68.3654 132.962 68.2806 132.756C68.1958 132.55 68.071 132.363 67.9135 132.206C67.756 132.048 67.5688 131.923 67.3629 131.839C67.1569 131.754 66.9361 131.711 66.7134 131.711C66.4906 131.712 66.2702 131.757 66.065 131.844C65.8597 131.93 65.6736 132.057 65.5173 132.215V132.215Z" fill="#3E61EE"/>
<path d="M78.1669 119.566L69.3829 128.35C69.2241 128.507 69.0978 128.693 69.0113 128.898C68.9248 129.103 68.8798 129.324 68.8789 129.546C68.878 129.769 68.9212 129.99 69.006 130.196C69.0909 130.402 69.2156 130.589 69.3732 130.747C69.5307 130.904 69.7178 131.029 69.9238 131.114C70.1298 131.198 70.3505 131.242 70.5733 131.241C70.796 131.24 71.0164 131.195 71.2217 131.108C71.427 131.022 71.6131 130.896 71.7693 130.737L80.553 121.953C80.7119 121.797 80.8382 121.611 80.9247 121.405C81.0112 121.2 81.0563 120.98 81.0572 120.757C81.0581 120.534 81.0149 120.314 80.9301 120.108C80.8453 119.902 80.7206 119.714 80.5631 119.557C80.4056 119.399 80.2185 119.275 80.0125 119.19C79.8065 119.105 79.5858 119.062 79.363 119.063C79.1403 119.063 78.9199 119.108 78.7146 119.195C78.5093 119.281 78.3232 119.408 78.1669 119.566V119.566Z" fill="#3E61EE"/>
<path d="M125.952 99.0869C124.568 98.6194 123.311 97.8379 122.28 96.8034C121.248 95.769 120.471 94.5097 120.008 93.1243C119.896 92.7882 119.681 92.4957 119.393 92.2885C119.106 92.0812 118.761 91.9697 118.406 91.9697C118.052 91.9697 117.707 92.0812 117.419 92.2885C117.132 92.4957 116.917 92.7882 116.805 93.1243C116.342 94.5097 115.564 95.769 114.533 96.8034C113.502 97.8379 112.245 98.6194 110.861 99.0869C110.526 99.1991 110.234 99.414 110.027 99.7012C109.82 99.9884 109.709 100.333 109.709 100.687C109.709 101.041 109.82 101.386 110.027 101.673C110.234 101.96 110.526 102.175 110.861 102.287C112.245 102.755 113.502 103.536 114.533 104.571C115.564 105.605 116.342 106.865 116.805 108.25C116.917 108.586 117.132 108.879 117.419 109.086C117.707 109.293 118.052 109.405 118.406 109.405C118.761 109.405 119.106 109.293 119.393 109.086C119.681 108.879 119.896 108.586 120.008 108.25C120.471 106.865 121.248 105.605 122.28 104.571C123.311 103.536 124.568 102.755 125.952 102.287C126.287 102.175 126.579 101.96 126.786 101.673C126.993 101.386 127.104 101.041 127.104 100.687C127.104 100.333 126.993 99.9884 126.786 99.7012C126.579 99.414 126.287 99.1991 125.952 99.0869V99.0869ZM118.406 103.975C117.52 102.69 116.408 101.576 115.125 100.687C116.408 99.7984 117.52 98.6844 118.406 97.3991C119.293 98.6844 120.405 99.7984 121.688 100.687C120.405 101.576 119.293 102.69 118.406 103.975V103.975Z" fill="#3E61EE"/>
<path d="M6.23608 31.3056C5.90051 31.4179 5.60871 31.6328 5.40197 31.92C5.19522 32.2072 5.08398 32.5521 5.08398 32.9059C5.08398 33.2598 5.19522 33.6047 5.40197 33.8919C5.60871 34.179 5.90051 34.394 6.23608 34.5062C7.62 34.9736 8.87686 35.7552 9.90815 36.7897C10.9394 37.8241 11.7171 39.0834 12.1803 40.4687C12.2922 40.8049 12.507 41.0974 12.7944 41.3046C13.0818 41.5118 13.4271 41.6234 13.7815 41.6234C14.1358 41.6234 14.4811 41.5118 14.7685 41.3046C15.0559 41.0974 15.2707 40.8049 15.3826 40.4687C15.8458 39.0834 16.6235 37.8241 17.6548 36.7897C18.6861 35.7552 19.9429 34.9736 21.3268 34.5062C21.6624 34.394 21.9542 34.179 22.1609 33.8919C22.3677 33.6047 22.4789 33.2598 22.4789 32.9059C22.4789 32.5521 22.3677 32.2072 22.1609 31.92C21.9542 31.6328 21.6624 31.4179 21.3268 31.3056C19.9429 30.8382 18.6861 30.0566 17.6548 29.0222C16.6235 27.9877 15.8458 26.7284 15.3826 25.3431C15.2707 25.0069 15.0559 24.7145 14.7685 24.5072C14.4811 24.3 14.1358 24.1885 13.7815 24.1885C13.4271 24.1885 13.0818 24.3 12.7944 24.5072C12.507 24.7145 12.2922 25.0069 12.1803 25.3431C11.7171 26.7284 10.9394 27.9877 9.90815 29.0222C8.87686 30.0566 7.62 30.8382 6.23608 31.3056V31.3056ZM13.7815 29.6181C14.6677 30.9033 15.7795 32.0173 17.0631 32.9059C15.7795 33.7946 14.6677 34.9087 13.7815 36.194C12.8953 34.9087 11.7834 33.7946 10.4998 32.9059C11.7834 32.0172 12.8953 30.9031 13.7815 29.6178V29.6181Z" fill="#3E61EE"/>
<path d="M35.7292 18.2812C37.4355 18.2812 38.8187 16.8961 38.8187 15.1875C38.8187 13.4789 37.4355 12.0938 35.7292 12.0938C34.0229 12.0938 32.6396 13.4789 32.6396 15.1875C32.6396 16.8961 34.0229 18.2812 35.7292 18.2812Z" fill="#3E61EE"/>
<path d="M113.073 128.25C114.779 128.25 116.162 126.865 116.162 125.156C116.162 123.448 114.779 122.062 113.073 122.062C111.367 122.062 109.983 123.448 109.983 125.156C109.983 126.865 111.367 128.25 113.073 128.25Z" fill="#3E61EE"/>
<path d="M134.321 1.40625C114.896 1.4022 96.028 7.89048 80.7143 19.8399C65.693 31.5205 54.7195 47.9557 49.8142 66.1177C49.7368 66.4042 49.7364 66.706 49.8129 66.9928C49.8895 67.2795 50.0403 67.541 50.2501 67.7509L69.5116 87.0126C69.7205 87.2213 69.9805 87.3716 70.2656 87.4485C70.5508 87.5254 70.8511 87.5261 71.1366 87.4508C109.331 77.3438 136.008 42.6535 136.008 3.09375C136.008 2.6462 135.83 2.21698 135.514 1.90051C135.197 1.58404 134.768 1.40625 134.321 1.40625ZM130.902 20.0694C125.196 16.9076 120.486 12.217 117.299 6.525C122.341 5.47933 127.468 4.90144 132.616 4.79869C132.513 9.93067 131.939 15.0424 130.902 20.0694ZM71.2067 83.9351L53.3312 66.0597C58.1668 48.9738 68.5975 33.5363 82.7857 22.5042C89.9794 16.9002 98.0359 12.5022 106.64 9.48235C109.026 8.64553 111.441 7.92103 113.884 7.30885C117.526 14.2254 123.19 19.8673 130.121 23.4824C122.902 52.2875 100.707 75.7645 71.2067 83.9351V83.9351Z" fill="#17E5C3"/>
<path d="M94.7096 30.3662C92.6815 30.3673 90.6851 30.8685 88.8969 31.8252C87.1088 32.782 85.5841 34.1649 84.4579 35.8514C83.3316 37.538 82.6386 39.4762 82.4401 41.4945C82.2416 43.5128 82.5438 45.5488 83.3199 47.4225C84.096 49.2961 85.322 50.9495 86.8895 52.2363C88.457 53.5231 90.3176 54.4036 92.3066 54.7998C94.2955 55.196 96.3514 55.0957 98.2924 54.5078C100.233 53.9199 101.999 52.8625 103.434 51.4293C105.16 49.7037 106.335 47.5052 106.811 45.1117C107.287 42.7183 107.043 40.2374 106.109 37.9828C105.175 35.7282 103.593 33.8012 101.564 32.4455C99.5352 31.0897 97.1496 30.3661 94.7093 30.3662H94.7096ZM101.048 49.0429C99.7942 50.2965 98.1971 51.1503 96.4582 51.4962C94.7194 51.8421 92.9171 51.6647 91.2792 50.9862C89.6412 50.3078 88.2413 49.1589 87.2563 47.6848C86.2713 46.2107 85.7456 44.4777 85.7456 42.7048C85.7456 40.9319 86.2713 39.1988 87.2563 37.7248C88.2413 36.2507 89.6412 35.1018 91.2792 34.4233C92.9171 33.7449 94.7194 33.5674 96.4582 33.9133C98.1971 34.2593 99.7942 35.113 101.048 36.3667C102.726 38.049 103.669 40.3284 103.669 42.7048C103.669 45.0812 102.726 47.3606 101.048 49.0429V49.0429Z" fill="#17E5C3"/>
</svg>
