<svg viewBox="0 0 144 144" fill="none" xmlns="http://www.w3.org/2000/svg">
<path d="M60.0918 29.2105C52.385 29.2063 44.9545 32.0804 39.2565 37.2696C33.5586 42.4588 30.0039 49.5888 29.2893 57.2624C29.1993 58.213 29.1543 59.1749 29.1543 60.148C29.1533 65.9354 30.7757 71.6071 33.8371 76.5185C36.8984 81.4299 41.2761 85.3841 46.4725 87.9318C43.1495 85.0314 40.4867 81.4523 38.6637 77.4359C36.8407 73.4194 35.8997 69.0588 35.9043 64.648C35.9043 63.6749 35.9493 62.713 36.0393 61.7624L36.1462 60.6767L36.1583 60.6883C36.7867 55.821 38.5638 51.173 41.3428 47.128C44.1219 43.0829 47.8232 39.7569 52.1411 37.4244C52.1454 37.4283 52.1501 37.4317 52.1544 37.4356L52.4896 37.2346C56.6532 35.0585 61.2571 33.8577 65.9532 33.7232C70.6492 33.5887 75.3143 34.5239 79.5956 36.458L79.7427 36.253C74.2123 31.6889 67.2623 29.1981 60.0918 29.2105ZM51.7989 37.1392C51.8458 37.1766 51.8908 37.216 51.937 37.2542C51.8905 37.216 51.8458 37.1766 51.7989 37.1392ZM51.0611 36.6048C51.1042 36.633 51.1455 36.6631 51.188 36.692C51.1455 36.6642 51.103 36.6338 51.0611 36.606V36.6048ZM51.4366 36.863C51.4855 36.8985 51.5328 36.9361 51.5806 36.9724C51.5328 36.9373 51.4855 36.8999 51.4366 36.8642V36.863Z" fill="#3E61EE" fill-opacity="0.2"/>
<path d="M141.179 82.7159L130.136 72.7408C129.804 72.4409 129.367 72.2851 128.92 72.3078C128.473 72.3306 128.053 72.5299 127.753 72.862L114.453 87.586C114.153 87.9182 113.997 88.3558 114.02 88.8028C114.043 89.2497 114.242 89.6694 114.574 89.9693L118.844 93.8256L113.662 99.5628L105.128 91.8548C104.796 91.5548 104.359 91.3991 103.912 91.4217C103.465 91.4444 103.045 91.6437 102.745 91.9758L101.669 93.1672L100.509 87.3695C100.448 87.0628 100.303 86.7792 100.09 86.5503C99.8764 86.3214 99.6039 86.1563 99.3024 86.0733C99.0009 85.9902 98.6823 85.9926 98.382 86.0802C98.0818 86.1677 97.8118 86.337 97.6022 86.569L93.746 90.8384L92.6123 89.8144C92.9438 88.987 93.0012 88.0751 92.7761 87.2127C92.5509 86.3503 92.055 85.5829 91.3613 85.0233C90.6676 84.4636 89.8126 84.1413 88.9221 84.1037C88.0316 84.066 87.1525 84.315 86.414 84.8141C85.6755 85.3132 85.1166 86.036 84.8194 86.8763C84.5223 87.7166 84.5025 88.6301 84.763 89.4825C85.0236 90.3349 85.5507 91.0812 86.2669 91.6118C86.9831 92.1423 87.8507 92.4291 88.742 92.43C88.814 92.43 88.8862 92.4282 88.9585 92.4247C89.3791 92.4032 89.794 92.3185 90.1893 92.1732L91.483 93.3424L87.6268 97.6115C87.4167 97.8435 87.2753 98.1294 87.2184 98.4371C87.1615 98.7449 87.1912 99.0624 87.3044 99.3542C87.4176 99.646 87.6097 99.9006 87.8592 100.09C88.1088 100.278 88.4059 100.394 88.7175 100.424L94.6029 100.99L93.5269 102.181C93.3783 102.346 93.2636 102.538 93.1893 102.747C93.115 102.955 93.0825 103.177 93.0938 103.398C93.105 103.619 93.1598 103.836 93.2549 104.037C93.35 104.237 93.4836 104.416 93.6481 104.565L102.181 112.272L96.9992 118.01L92.7298 114.154C92.3977 113.854 91.9601 113.698 91.5131 113.721C91.0662 113.743 90.6465 113.943 90.3465 114.275L77.0465 128.999C76.7465 129.331 76.5908 129.768 76.6135 130.215C76.6362 130.662 76.8356 131.082 77.1677 131.382L88.2113 141.357C88.5433 141.656 88.9809 141.812 89.4278 141.789C89.8747 141.767 90.2943 141.568 90.5943 141.236L103.894 126.51C104.042 126.346 104.157 126.154 104.231 125.945C104.306 125.736 104.338 125.515 104.327 125.294C104.316 125.072 104.261 124.855 104.166 124.655C104.071 124.455 103.937 124.275 103.773 124.127L99.5034 120.271L104.685 114.533L106.695 116.349C107.027 116.649 107.465 116.804 107.912 116.782C108.359 116.759 108.778 116.56 109.078 116.227L109.61 115.639L112.038 117.833C112.349 118.113 112.752 118.268 113.17 118.268C113.198 118.268 113.226 118.268 113.255 118.266C113.702 118.243 114.122 118.044 114.422 117.712L120.314 111.188C120.614 110.856 120.77 110.418 120.747 109.971C120.724 109.524 120.525 109.105 120.193 108.805L117.765 106.611L118.296 106.023C118.444 105.858 118.559 105.666 118.633 105.457C118.708 105.249 118.74 105.027 118.729 104.806C118.718 104.585 118.663 104.368 118.568 104.167C118.473 103.967 118.339 103.788 118.175 103.639L116.165 101.824L121.347 96.0865L125.617 99.9428C125.949 100.243 126.386 100.398 126.833 100.376C127.28 100.353 127.7 100.154 128 99.8218L141.3 85.0995C141.6 84.7674 141.756 84.3298 141.733 83.8828C141.71 83.4358 141.511 83.0162 141.179 82.7162L141.179 82.7159ZM88.7873 89.0544C88.5793 89.0618 88.3767 88.987 88.2233 88.8464C88.07 88.7057 87.9781 88.5103 87.9675 88.3025C87.9569 88.0946 88.0284 87.8909 88.1667 87.7353C88.305 87.5798 88.4989 87.4848 88.7065 87.471H88.7459C88.9534 87.4696 89.1532 87.5497 89.3023 87.6941C89.4514 87.8384 89.5379 88.0354 89.5434 88.2429C89.5488 88.4503 89.4726 88.6516 89.3312 88.8035C89.1899 88.9554 88.9945 89.0458 88.7873 89.0553V89.0544ZM91.7204 117.788L94.7374 120.513L89.066 126.792L86.0487 124.067L91.7204 117.788ZM83.7866 126.571L86.8036 129.296L83.7 132.732L80.683 130.007L83.7866 126.571ZM89.2209 137.72L86.2043 134.995L89.3081 131.559L92.3251 134.284L89.2209 137.72ZM94.5875 131.779L91.5702 129.054L97.2419 122.775L100.259 125.501L94.5875 131.779ZM92.3808 97.3851L97.8579 91.3222L98.8512 96.2876L97.4216 97.8705L92.3808 97.3851ZM104.118 95.4908L108.137 99.1212L101.182 106.821L97.1632 103.191L104.118 95.4908ZM107.706 112.714L103.687 109.083L110.642 101.383L114.661 105.013L107.706 112.714ZM116.679 110.179L113.049 114.198L111.873 113.135L115.503 109.117L116.679 110.179ZM129.126 76.3771L132.143 79.1024L129.039 82.5384L126.023 79.8134L129.126 76.3771ZM123.76 82.3179L126.777 85.043L121.106 91.3222L118.089 88.5971L123.76 82.3179ZM126.627 96.3093L123.61 93.584L129.282 87.3053L132.299 90.0304L126.627 96.3093ZM134.561 87.5253L131.544 84.8L134.648 81.3637L137.665 84.089L134.561 87.5253Z" fill="#3E61EE"/>
<path d="M37.3081 6.86248L37.0429 6.97695C36.8381 7.06416 36.6526 7.19104 36.497 7.35027C36.3415 7.5095 36.219 7.69793 36.1365 7.90471C36.0541 8.11149 36.0134 8.33254 36.0168 8.55512C36.0202 8.77769 36.0675 8.99741 36.1562 9.20159C36.2449 9.40578 36.373 9.59041 36.5334 9.74485C36.6937 9.89929 36.883 10.0205 37.0903 10.1014C37.2977 10.1824 37.519 10.2216 37.7415 10.2166C37.9641 10.2117 38.1835 10.1628 38.387 10.0727L38.6359 9.96523C38.8412 9.87909 39.0274 9.7532 39.1838 9.59479C39.3402 9.43638 39.4637 9.2486 39.5472 9.04225C39.6307 8.8359 39.6726 8.61507 39.6704 8.39248C39.6682 8.16989 39.622 7.94993 39.5344 7.74527C39.4468 7.54062 39.3196 7.35532 39.1601 7.20004C39.0006 7.04476 38.8119 6.92257 38.605 6.84051C38.3981 6.75846 38.177 6.71815 37.9544 6.72192C37.7318 6.72569 37.5122 6.77346 37.3081 6.86248Z" fill="#3E61EE"/>
<path d="M56.3522 114.584L56.08 114.565C55.6367 114.538 55.2008 114.687 54.8667 114.98C54.5326 115.273 54.3274 115.685 54.2954 116.128C54.2634 116.571 54.4073 117.009 54.6959 117.346C54.9845 117.684 55.3944 117.894 55.837 117.931L56.1255 117.951C56.1638 117.954 56.2023 117.955 56.2405 117.955C56.6786 117.956 57.0997 117.786 57.4147 117.481C57.7297 117.177 57.914 116.762 57.9286 116.324C57.9432 115.886 57.787 115.46 57.493 115.135C57.1989 114.81 56.7902 114.613 56.353 114.584H56.3522Z" fill="#3E61EE"/>
<path d="M89.0751 110.055C89.3818 110.055 89.6826 109.971 89.945 109.812L90.1902 109.664C90.3795 109.549 90.5443 109.397 90.6752 109.219C90.806 109.04 90.9003 108.837 90.9528 108.621C91.0052 108.406 91.0147 108.183 90.9807 107.964C90.9468 107.745 90.87 107.534 90.7548 107.345C90.6397 107.156 90.4883 106.991 90.3094 106.86C90.1306 106.729 89.9277 106.635 89.7124 106.583C89.4971 106.53 89.2735 106.521 89.0545 106.555C88.8355 106.589 88.6254 106.665 88.4361 106.78L88.2018 106.921C87.886 107.112 87.6413 107.4 87.5051 107.743C87.3689 108.086 87.3487 108.463 87.4475 108.819C87.5464 109.174 87.7589 109.487 88.0526 109.71C88.3463 109.933 88.7049 110.054 89.0737 110.054L89.0751 110.055Z" fill="#3E61EE"/>
<path d="M48.6322 3.34402L48.3451 3.40224C48.1278 3.44686 47.9215 3.53385 47.7379 3.65825C47.5544 3.78265 47.3971 3.94201 47.2752 4.12722C47.1532 4.31244 47.069 4.51987 47.0272 4.73767C46.9855 4.95547 46.9871 5.17935 47.0319 5.39653C47.0768 5.6137 47.164 5.81991 47.2886 6.00336C47.4132 6.1868 47.5727 6.34389 47.7581 6.46565C47.9434 6.5874 48.151 6.67143 48.3688 6.71292C48.5866 6.75442 48.8105 6.75257 49.0276 6.70749L49.2923 6.65377C49.7288 6.56383 50.1121 6.30485 50.3583 5.93335C50.6046 5.56186 50.6939 5.10802 50.6067 4.67093C50.5195 4.23384 50.263 3.84898 49.893 3.60037C49.5231 3.35177 49.0698 3.25961 48.6322 3.34402Z" fill="#3E61EE"/>
<path d="M4.1362 54.1304C4.21217 54.1407 4.28875 54.1458 4.36542 54.1458C4.77325 54.1453 5.1671 53.9972 5.47412 53.7287C5.78114 53.4603 5.98056 53.0897 6.03548 52.6856L6.07289 52.4173C6.13588 51.9742 6.02027 51.5242 5.75148 51.1663C5.48269 50.8084 5.08275 50.572 4.63964 50.509C4.19652 50.446 3.74653 50.5616 3.38866 50.8304C3.03079 51.0992 2.79435 51.4991 2.73136 51.9422L2.69114 52.2311C2.66131 52.4507 2.67503 52.674 2.73151 52.8883C2.78798 53.1026 2.88612 53.3036 3.02031 53.48C3.15449 53.6564 3.3221 53.8046 3.51357 53.9162C3.70504 54.0278 3.91661 54.1005 4.1362 54.1304Z" fill="#3E61EE"/>
<path d="M45.3526 112.697L45.0899 112.623C44.8761 112.56 44.652 112.54 44.4305 112.564C44.209 112.588 43.9944 112.656 43.7992 112.764C43.604 112.871 43.432 113.016 43.2932 113.19C43.1544 113.365 43.0515 113.565 42.9904 113.779C42.9293 113.993 42.9113 114.218 42.9374 114.439C42.9634 114.66 43.0331 114.874 43.1423 115.069C43.2514 115.263 43.398 115.434 43.5736 115.571C43.7491 115.708 43.95 115.809 44.1649 115.869L44.4436 115.947C44.873 116.063 45.3308 116.004 45.7174 115.784C46.1039 115.564 46.388 115.201 46.5078 114.772C46.6276 114.344 46.5734 113.886 46.3571 113.497C46.1408 113.109 45.7798 112.821 45.3526 112.697Z" fill="#3E61EE"/>
<path d="M13.0747 29.2119C12.8861 29.0956 12.6763 29.0176 12.4575 28.9824C12.2387 28.9472 12.0152 28.9554 11.7995 29.0066C11.5839 29.0578 11.3805 29.1509 11.2009 29.2807C11.0213 29.4105 10.869 29.5744 10.7527 29.7631L10.6014 30.0101C10.4842 30.1993 10.4056 30.4099 10.3702 30.6296C10.3347 30.8494 10.3431 31.074 10.3948 31.2905C10.4465 31.507 10.5406 31.7111 10.6715 31.8911C10.8024 32.0711 10.9677 32.2234 11.1578 32.3393C11.3478 32.4552 11.5589 32.5323 11.7789 32.5662C11.9989 32.6001 12.2235 32.5902 12.4396 32.537C12.6557 32.4838 12.8592 32.3883 13.0383 32.2561C13.2174 32.1239 13.3685 31.9576 13.4831 31.7667L13.6262 31.5336C13.861 31.1526 13.9347 30.6939 13.8313 30.2585C13.7278 29.8231 13.4557 29.4466 13.0747 29.2119Z" fill="#3E61EE"/>
<path d="M8.7691 41.5827C8.91559 41.1628 8.8904 40.702 8.69901 40.3006C8.50761 39.8992 8.16549 39.5895 7.74702 39.439C7.32855 39.2884 6.86757 39.3092 6.46431 39.4967C6.06104 39.6842 5.74809 40.0233 5.59351 40.4403L5.49619 40.7114C5.42186 40.9202 5.38938 41.1415 5.4006 41.3629C5.41182 41.5842 5.46653 41.8011 5.56159 42.0013C5.75358 42.4056 6.09831 42.7171 6.51994 42.8672C6.94158 43.0173 7.40557 42.9938 7.80986 42.8018C8.21415 42.6098 8.52561 42.2651 8.67572 41.8434L8.7691 41.5827Z" fill="#3E61EE"/>
<path d="M11.5 84.9893C11.2959 84.5909 10.9419 84.29 10.5159 84.1527C10.0899 84.0154 9.62682 84.0529 9.2285 84.257C8.83018 84.4611 8.52926 84.8151 8.39194 85.2411C8.25462 85.6671 8.29215 86.1302 8.49627 86.5285L8.62958 86.7864C8.73045 86.9854 8.86976 87.1624 9.03946 87.3072C9.20917 87.452 9.40589 87.5617 9.61826 87.6299C9.83063 87.6982 10.0544 87.7237 10.2767 87.7049C10.499 87.6862 10.7153 87.6235 10.9133 87.5206C11.1112 87.4177 11.2867 87.2765 11.4297 87.1054C11.5728 86.9342 11.6804 86.7363 11.7465 86.5232C11.8126 86.3102 11.8357 86.0861 11.8147 85.864C11.7936 85.642 11.7287 85.4263 11.6238 85.2294L11.5 84.9893Z" fill="#3E61EE"/>
<path d="M17.5801 94.3521C17.2997 94.0033 16.8923 93.78 16.4473 93.7316C16.0024 93.6832 15.5565 93.8134 15.2076 94.0938C14.8587 94.3742 14.6355 94.7816 14.5871 95.2265C14.5386 95.6715 14.6689 96.1174 14.9493 96.4663L15.1318 96.6913C15.4141 97.0386 15.8228 97.2595 16.268 97.3055C16.7132 97.3515 17.1584 97.2187 17.5057 96.9364C17.853 96.6541 18.0739 96.2454 18.1199 95.8002C18.1659 95.355 18.0331 94.9098 17.7508 94.5625L17.5801 94.3521Z" fill="#3E61EE"/>
<path d="M25.6433 102.462L25.4335 102.29C25.263 102.145 25.0655 102.037 24.8526 101.969C24.6397 101.902 24.4155 101.877 24.193 101.897C23.9706 101.917 23.7543 101.981 23.5568 102.085C23.3592 102.19 23.1843 102.332 23.0422 102.504C22.9 102.676 22.7935 102.875 22.7287 103.089C22.664 103.303 22.6423 103.527 22.6649 103.749C22.6876 103.971 22.7541 104.187 22.8606 104.383C22.9672 104.579 23.1116 104.753 23.2856 104.893L23.5106 105.078C23.8581 105.354 24.3004 105.482 24.7417 105.434C25.183 105.386 25.5876 105.167 25.8681 104.823C26.1486 104.479 26.2822 104.038 26.2401 103.596C26.1979 103.154 25.9834 102.747 25.643 102.462L25.6433 102.462Z" fill="#3E61EE"/>
<path d="M34.9725 108.596L34.7287 108.469C34.3324 108.261 33.8697 108.219 33.4424 108.352C33.0151 108.485 32.6581 108.782 32.4501 109.179C32.2421 109.575 32.2001 110.038 32.3332 110.465C32.4664 110.892 32.7639 111.249 33.1602 111.457L33.4164 111.591C33.6133 111.697 33.8293 111.762 34.0518 111.784C34.2743 111.806 34.4989 111.783 34.7126 111.717C34.9262 111.651 35.1246 111.543 35.2962 111.4C35.4679 111.257 35.6094 111.081 35.7125 110.882C35.8155 110.684 35.8782 110.467 35.8967 110.244C35.9153 110.022 35.8894 109.797 35.8206 109.585C35.7517 109.372 35.6413 109.175 35.4957 109.005C35.3502 108.836 35.1723 108.697 34.9725 108.596Z" fill="#3E61EE"/>
<path d="M17.9756 20.3628L17.7767 20.574C17.6253 20.7358 17.5072 20.9258 17.4292 21.1333C17.3512 21.3407 17.3149 21.5615 17.3222 21.783C17.3296 22.0045 17.3804 22.2224 17.472 22.4242C17.5635 22.626 17.6939 22.8078 17.8557 22.9593C18.0175 23.1107 18.2076 23.2288 18.415 23.3067C18.6225 23.3847 18.8433 23.4211 19.0647 23.4137C19.2862 23.4064 19.5041 23.3555 19.7059 23.264C19.9078 23.1724 20.0896 23.042 20.241 22.8802L20.4278 22.6833C20.7355 22.3582 20.9014 21.924 20.8891 21.4765C20.8768 21.029 20.6871 20.6047 20.362 20.2969C20.0368 19.9892 19.6027 19.8233 19.1551 19.8356C18.7076 19.8479 18.2833 20.0376 17.9756 20.3628Z" fill="#3E61EE"/>
<path d="M5.65342 63.8459L5.6357 63.5751C5.60524 63.1306 5.40023 62.7161 5.06539 62.4222C4.73055 62.1283 4.29306 61.9787 3.84837 62.0061C3.40367 62.0335 2.98786 62.2357 2.69164 62.5685C2.39542 62.9013 2.24283 63.3377 2.26717 63.7826L2.28601 64.0731C2.31453 64.4999 2.50407 64.9 2.81629 65.1924C3.12852 65.4848 3.54013 65.6477 3.96789 65.6481C4.00614 65.6481 4.04467 65.6481 4.08348 65.6442C4.30467 65.6293 4.52074 65.5709 4.71936 65.4724C4.91798 65.374 5.09525 65.2373 5.24105 65.0703C5.38684 64.9033 5.4983 64.7092 5.56906 64.4991C5.63981 64.2891 5.66848 64.0671 5.65342 63.8459Z" fill="#3E61EE"/>
<path d="M60.4259 2.21094H60.1348C59.6872 2.21094 59.258 2.38873 58.9415 2.70519C58.6251 3.02166 58.4473 3.45088 58.4473 3.89844C58.4465 4.34804 58.6234 4.77974 58.9395 5.0995C59.2556 5.41926 59.6852 5.60117 60.1348 5.60562L60.4059 5.62616H60.4163C60.8638 5.61938 61.2907 5.43719 61.6052 5.11878C61.9198 4.80037 62.0967 4.37121 62.0979 3.92366C62.0992 3.47612 61.9247 3.04598 61.612 2.72581C61.2992 2.40565 60.8733 2.22106 60.4259 2.21178V2.21094Z" fill="#3E61EE"/>
<path d="M67.5123 114.21L67.2414 114.246C67.0217 114.275 66.8098 114.347 66.6178 114.457C66.4258 114.568 66.2575 114.716 66.1225 114.891C65.9875 115.067 65.8885 115.268 65.8311 115.482C65.7737 115.696 65.7589 115.919 65.7878 116.139C65.8167 116.359 65.8885 116.571 65.9993 116.763C66.1101 116.955 66.2576 117.123 66.4334 117.258C66.6092 117.393 66.8098 117.492 67.0239 117.549C67.238 117.607 67.4613 117.622 67.681 117.593L67.9676 117.554C68.1884 117.526 68.4013 117.454 68.5941 117.343C68.787 117.232 68.9559 117.084 69.0912 116.907C69.2265 116.73 69.3256 116.528 69.3826 116.313C69.4396 116.098 69.4535 115.874 69.4235 115.653C69.3934 115.433 69.3201 115.22 69.2076 115.028C69.0951 114.836 68.9458 114.668 68.7681 114.534C68.5905 114.4 68.3881 114.302 68.1726 114.247C67.957 114.191 67.7326 114.179 67.5123 114.21V114.21Z" fill="#3E61EE"/>
<path d="M7.46089 74.5861C7.4025 74.3723 7.30257 74.1722 7.16682 73.997C7.03106 73.8218 6.86213 73.6751 6.66968 73.5653C6.47723 73.4554 6.26502 73.3845 6.04517 73.3567C5.82532 73.3288 5.60214 73.3445 5.38836 73.4029C5.17459 73.4613 4.97441 73.5612 4.79925 73.697C4.62409 73.8327 4.47739 74.0017 4.36752 74.1941C4.25765 74.3866 4.18676 74.5988 4.1589 74.8186C4.13104 75.0385 4.14675 75.2616 4.20514 75.4754L4.28333 75.7567C4.34039 75.973 4.43992 76.1759 4.57612 76.3534C4.71231 76.531 4.88246 76.6797 5.07666 76.7908C5.27085 76.902 5.48522 76.9735 5.70729 77.001C5.92935 77.0286 6.15468 77.0117 6.37016 76.9513C6.58563 76.891 6.78696 76.7884 6.96241 76.6495C7.13786 76.5106 7.28394 76.3382 7.39214 76.1423C7.50034 75.9465 7.56851 75.731 7.59267 75.5086C7.61684 75.2861 7.59652 75.0611 7.53289 74.8465L7.46089 74.5861Z" fill="#3E61EE"/>
<path d="M83.2221 7.01146C82.8118 6.83244 82.3473 6.82373 81.9306 6.98724C81.5139 7.15075 81.1793 7.47308 81.0002 7.88334C80.8212 8.2936 80.8125 8.75817 80.976 9.17485C81.1395 9.59153 81.4619 9.92619 81.8721 10.1052L82.1227 10.2152C82.532 10.3963 82.9965 10.4074 83.4139 10.246C83.8314 10.0847 84.1677 9.76413 84.3488 9.35484C84.5299 8.94555 84.541 8.48108 84.3797 8.06361C84.2183 7.64614 83.8977 7.30986 83.4884 7.12875L83.2221 7.01146Z" fill="#3E61EE"/>
<path d="M72.2068 3.47871L71.9255 3.41937C71.4887 3.3315 71.0348 3.41999 70.663 3.66551C70.2911 3.91103 70.0315 4.29366 69.9407 4.7299C69.8499 5.16615 69.9353 5.6206 70.1784 5.99408C70.4214 6.36757 70.8023 6.62978 71.2379 6.7235L71.5059 6.77974C71.7227 6.82591 71.9464 6.82894 72.1643 6.78864C72.3822 6.74835 72.5901 6.66553 72.776 6.54491C72.9619 6.42429 73.1222 6.26824 73.2478 6.08566C73.3734 5.90307 73.4618 5.69754 73.508 5.48079C73.5542 5.26404 73.5572 5.04032 73.5169 4.82241C73.4766 4.60449 73.3938 4.39664 73.2732 4.21073C73.1525 4.02482 72.9965 3.86449 72.8139 3.73889C72.6313 3.61329 72.4258 3.52488 72.209 3.47871H72.2068Z" fill="#3E61EE"/>
<path d="M78.36 111.578L78.1013 111.669C77.8897 111.74 77.6944 111.853 77.5266 112C77.3588 112.147 77.2219 112.326 77.1238 112.527C77.0258 112.727 76.9684 112.945 76.9551 113.168C76.9419 113.391 76.9729 113.614 77.0466 113.825C77.1202 114.035 77.2348 114.229 77.384 114.396C77.5331 114.562 77.7137 114.696 77.9153 114.792C78.1169 114.888 78.3355 114.943 78.5585 114.954C78.7814 114.964 79.0043 114.931 79.2142 114.855L79.4862 114.759C79.6993 114.688 79.8963 114.576 80.0656 114.429C80.2348 114.281 80.3729 114.101 80.4717 113.9C80.5705 113.698 80.6281 113.479 80.6411 113.254C80.6541 113.03 80.6223 112.806 80.5474 112.594C80.4726 112.382 80.3562 112.188 80.2052 112.022C80.0541 111.856 79.8715 111.721 79.6679 111.627C79.4643 111.532 79.2438 111.479 79.0194 111.47C78.7951 111.462 78.5713 111.499 78.3612 111.578H78.36Z" fill="#3E61EE"/>
<path d="M26.9508 12.6197L26.7115 12.7885C26.5292 12.9158 26.3738 13.0779 26.2544 13.2655C26.1349 13.4531 26.0537 13.6624 26.0154 13.8815C25.9771 14.1006 25.9825 14.3251 26.0313 14.542C26.0801 14.759 26.1712 14.9642 26.2996 15.1458C26.4279 15.3274 26.5909 15.4819 26.7791 15.6003C26.9674 15.7188 27.1772 15.7988 27.3964 15.8359C27.6157 15.8729 27.8402 15.8663 28.0569 15.8163C28.2736 15.7664 28.4782 15.6741 28.6592 15.5447L28.8797 15.3903C29.0615 15.2637 29.2167 15.1025 29.3362 14.9159C29.4558 14.7293 29.5374 14.5209 29.5764 14.3028C29.6155 14.0846 29.6112 13.8609 29.5638 13.6444C29.5164 13.4279 29.4268 13.2229 29.3001 13.0411C29.1735 12.8592 29.0122 12.7041 28.8256 12.5845C28.639 12.4649 28.4307 12.3833 28.2126 12.3443C27.9944 12.3052 27.7707 12.3095 27.5542 12.3569C27.3377 12.4044 27.1327 12.4939 26.9508 12.6206V12.6197Z" fill="#3E61EE"/>
<path d="M60.0928 27.5225C53.6402 27.5225 47.3325 29.4359 41.9673 33.0208C36.6022 36.6056 32.4205 41.701 29.9512 47.6624C27.4819 53.6238 26.8358 60.1836 28.0947 66.5123C29.3535 72.8409 32.4607 78.6541 37.0234 83.2168C41.5861 87.7795 47.3993 90.8867 53.728 92.1456C60.0566 93.4044 66.6164 92.7583 72.5778 90.289C78.5393 87.8197 83.6346 83.6381 87.2195 78.2729C90.8044 72.9078 92.7178 66.6001 92.7178 60.1475C92.7079 51.4978 89.2675 43.2052 83.1513 37.089C77.035 30.9727 68.7425 27.5323 60.0928 27.5225ZM45.6036 34.7455L48.7342 37.0999C49.0825 37.3613 49.4456 37.6026 49.8215 37.8224C50.8281 38.4138 51.6947 39.2162 52.3615 40.1745L54.4602 43.2013C54.6561 43.4822 54.7571 43.8184 54.7484 44.1608C54.7398 44.5032 54.6219 44.8338 54.4121 45.1045L53.4393 46.3673C53.3799 46.4432 53.302 46.5024 53.2131 46.5394C53.1242 46.5763 53.0272 46.5897 52.9316 46.5783L51.8266 46.4376C50.7188 46.2952 49.5937 46.4829 48.5922 46.9773C47.5907 47.4718 46.7575 48.2509 46.1971 49.217C46.1344 49.3115 46.0458 49.386 45.9419 49.4314C45.838 49.4768 45.7231 49.4912 45.6112 49.4729L43.085 49.1523C42.0155 49.0123 40.9281 49.1735 39.9452 49.6177C38.9622 50.062 38.1227 50.7716 37.5211 51.6669C36.9367 52.5292 36.6168 53.5434 36.6007 54.585C36.5846 55.6266 36.873 56.6502 37.4305 57.5301L39.1149 60.1899C39.8069 61.2739 40.8817 62.0574 42.1254 62.3845C43.3691 62.7116 44.6904 62.5583 45.8261 61.955L47.56 61.0269C47.789 60.905 48.0455 60.8443 48.3048 60.8506C48.5641 60.8569 48.8174 60.9301 49.0402 61.0629L52.3308 63.0376C52.738 63.2817 53.2063 63.4048 53.6808 63.3925C54.1622 63.4011 54.6344 63.5258 55.0573 63.7559C55.4802 63.9861 55.8413 64.3149 56.11 64.7144L57.7199 66.9582C57.8605 67.1551 58.0101 67.3458 58.1648 67.5275L59.8588 69.5207L57.1712 71.5845C56.046 72.4453 55.2181 73.6364 54.8033 74.991L53.7391 78.4408C53.7204 78.5015 53.6899 78.5578 53.6493 78.6067L52.6138 79.8521C52.1926 80.3571 51.8364 80.9128 51.5535 81.5064L51.0978 78.7741C50.9309 77.7776 50.5239 76.8367 49.9118 76.0327L46.3399 71.3482C46.1484 71.0979 46.0069 70.8129 45.9231 70.509L44.7438 66.2551C44.457 65.2303 43.9101 64.297 43.1561 63.5461C42.4021 62.7951 41.4667 62.2518 40.4407 61.9691L40.1837 61.8988C39.9296 61.8293 39.6964 61.6987 39.5044 61.5183L37.3053 59.4485C37.0748 59.2317 36.8768 58.9828 36.7173 58.7094C36.1541 57.7436 35.3547 56.9366 34.3943 56.3643C33.4338 55.7919 32.3436 55.473 31.2261 55.4374C31.9342 51.1366 33.592 47.0478 36.0791 43.4685C38.5662 39.8891 41.82 36.9092 45.6036 34.7455ZM60.0928 89.3974C52.3379 89.3887 44.9032 86.3042 39.4196 80.8206C33.9361 75.3371 30.8516 67.9023 30.8428 60.1475C30.8428 59.7 30.8546 59.2553 30.8746 58.8126C31.4615 58.7875 32.0442 58.9231 32.5597 59.205C33.0752 59.4868 33.5039 59.9041 33.7996 60.4118C34.1221 60.9648 34.5226 61.4685 34.9887 61.9072L37.1883 63.9772C37.783 64.5359 38.5054 64.9406 39.2924 65.1559L39.5494 65.2263C40.0121 65.3534 40.4339 65.5981 40.7739 65.9365C41.114 66.2749 41.3607 66.6956 41.4901 67.1576L42.6693 71.4112C42.8673 72.1299 43.2015 72.8038 43.6537 73.3963L47.2256 78.0805C47.5044 78.447 47.6899 78.8757 47.7662 79.3298L48.7373 85.1559C48.8296 85.7487 49.131 86.2888 49.587 86.6787C50.0429 87.0685 50.6234 87.2823 51.2233 87.2813C51.5566 87.2814 51.8865 87.2151 52.1939 87.0861C52.7523 86.8528 53.2365 86.4714 53.5942 85.9832C53.9519 85.495 54.1695 84.9184 54.2237 84.3155C54.3097 83.4646 54.6531 82.6601 55.208 82.0093L56.2436 80.7639C56.5694 80.373 56.8141 79.921 56.9633 79.4345L58.0267 75.9841C58.2368 75.2986 58.6558 74.696 59.2251 74.2603L62.3897 71.8303C62.963 71.3973 63.3481 70.7607 63.4655 70.052C63.5291 69.6568 63.5062 69.2525 63.3984 68.867C63.2906 68.4815 63.1005 68.124 62.8412 67.8191L60.7337 65.3393C60.6387 65.2268 60.5473 65.111 60.4612 64.9906L58.8508 62.7462C58.288 61.9344 57.5436 61.2649 56.6768 60.7911C55.81 60.3172 54.8447 60.052 53.8575 60.0164L50.7755 58.1675C50.0517 57.7359 49.2287 57.4984 48.3862 57.4779C47.5437 57.4574 46.7102 57.6546 45.9662 58.0505L44.2323 58.9786C43.8488 59.1821 43.4027 59.2338 42.9828 59.1233C42.563 59.0128 42.2001 58.7482 41.9665 58.3823L40.2818 55.7225C40.0758 55.3975 39.9693 55.0194 39.9753 54.6347C39.9813 54.25 40.0996 53.8754 40.3156 53.5569C40.5689 53.1797 40.9225 52.8808 41.3366 52.6936C41.7506 52.5065 42.2087 52.4387 42.6592 52.4977L45.186 52.8186C45.9558 52.9222 46.739 52.7964 47.4378 52.4572C48.1365 52.1179 48.7197 51.5802 49.1145 50.9112C49.3424 50.5194 49.6807 50.2034 50.0872 50.0028C50.4937 49.8021 50.9503 49.7257 51.3999 49.7831L52.5047 49.9237C53.1843 50.0089 53.8744 49.9155 54.507 49.6528C55.1396 49.39 55.6929 48.9671 56.1123 48.4255L57.0854 47.1627C57.7342 46.3254 58.0985 45.3027 58.1252 44.2438C58.1519 43.1849 57.8396 42.1451 57.2339 41.2761L55.1349 38.2502C54.1873 36.8888 52.9558 35.7491 51.5253 34.9095C51.261 34.7545 51.0056 34.5848 50.7603 34.401L49.0062 33.0816C53.6454 31.1791 58.6963 30.5031 63.6725 31.1189C68.6487 31.7346 73.3825 33.6213 77.4181 36.5973L77.1978 36.9038C75.2565 39.0284 73.5448 41.3519 72.0912 43.8358L70.9406 45.8029C70.6125 46.3816 70.4729 47.0482 70.5411 47.7099C70.6093 48.3716 70.8819 48.9957 71.3211 49.4954C72.0298 50.3059 73.0124 50.8267 74.081 50.9579L74.6312 51.0254C75.3583 51.1153 76.0437 51.4143 76.6043 51.886C77.1649 52.3577 77.5767 52.9819 77.7896 53.6829C77.9924 54.356 77.9982 55.0731 77.8062 55.7493C77.6142 56.4255 77.2325 57.0326 76.7062 57.4986L71.2128 62.3117C70.7616 62.7024 70.3981 63.1841 70.1461 63.7252C69.894 64.2662 69.7592 64.8544 69.7503 65.4513V66.729C69.758 67.3205 69.9134 67.9007 70.2026 68.4167C70.4917 68.9328 70.9053 69.3684 71.4058 69.6838C71.8537 69.9681 72.2315 70.3499 72.511 70.8007C72.7906 71.2516 72.9646 71.7598 73.0202 72.2873L73.1591 73.6044C73.2358 74.3928 73.6016 75.1249 74.186 75.6596C74.7705 76.1943 75.5322 76.4937 76.3243 76.5002H79.5148C80.6427 76.4916 81.7438 76.156 82.6848 75.5341C83.6258 74.9122 84.3661 74.0306 84.8161 72.9964L85.0079 72.5388C85.2275 72.0318 85.563 71.5835 85.9874 71.2298C86.4119 70.8761 86.9134 70.627 87.4516 70.5025C85.3444 76.0541 81.5994 80.8341 76.7133 84.2086C71.8273 87.583 66.0309 89.3927 60.0928 89.3974ZM88.5288 67.0055L87.9382 67.0322C86.6485 67.086 85.4 67.5018 84.3355 68.2321C83.2711 68.9623 82.4338 69.9775 81.9195 71.1615L81.7277 71.6396C81.5411 72.0741 81.2331 72.4455 80.8405 72.709C80.4479 72.9726 79.9875 73.1171 79.5148 73.1252H76.5102L76.4013 71.9934C76.2921 70.9564 75.9509 69.9573 75.4029 69.0702C74.8549 68.183 74.1143 67.4306 73.2359 66.8688C73.1931 66.8406 73.1253 66.7793 73.1253 66.7281V65.4504C73.1341 65.3321 73.1671 65.2169 73.2223 65.1119C73.2775 65.0069 73.3537 64.9144 73.4462 64.8401L78.9191 60.0271C79.9304 59.1332 80.6647 57.9685 81.0351 56.6705C81.4055 55.3726 81.3966 53.9958 81.0093 52.7028C80.6077 51.3765 79.8296 50.1953 78.7696 49.3027C77.7095 48.4102 76.4132 47.8445 75.0378 47.6746L74.4908 47.6071C74.2857 47.5815 74.0935 47.4931 73.9407 47.354L75.0035 45.5382C76.3531 43.2323 77.9452 41.0771 79.7527 39.1094C79.7989 39.0591 79.8421 39.0061 79.8821 38.9508L80.0207 38.7573C83.8171 42.2878 86.6059 46.7646 88.101 51.7286C89.5961 56.6926 89.7436 61.965 88.5286 67.0049L88.5288 67.0055Z" fill="#968B82"/>
</svg>
