<svg viewBox="0 0 80 80" fill="none" xmlns="http://www.w3.org/2000/svg">
<g clip-path="url(#clip0_6873_11179)">
<path d="M49.3539 20.0127L45.9298 16.5596C43.7844 18.9699 42.6383 22.1073 42.7248 25.333C42.8113 28.5587 44.1239 31.6302 46.3955 33.9221C46.9811 34.5127 47.6239 35.0438 48.3144 35.5075C48.0553 35.1222 47.8179 34.7228 47.6033 34.3111C46.4151 32.0303 45.9464 29.4428 46.2589 26.8902C46.5715 24.3375 47.6506 21.9395 49.3539 20.0127Z" fill="#3E61EE" fill-opacity="0.2"/>
<path d="M37.333 30.2871L17.0017 50.8715L18.4923 52.3762L20.4392 54.309L40.7558 33.7395L37.333 30.2871Z" fill="#968B82"/>
<path d="M31.6545 42.6646C31.7402 42.5763 31.8077 42.4719 31.8531 42.3575C31.8985 42.243 31.9209 42.1208 31.9191 41.9977C31.9172 41.8746 31.8911 41.753 31.8423 41.64C31.7935 41.527 31.7229 41.4247 31.6345 41.3389C31.5462 41.2532 31.4418 41.1857 31.3274 41.1403C31.2129 41.0949 31.0907 41.0725 30.9676 41.0743C30.8445 41.0762 30.7229 41.1023 30.6099 41.1511C30.4969 41.1999 30.3946 41.2705 30.3088 41.3588L25.7595 46.0479C25.6725 46.136 25.6038 46.2405 25.5574 46.3552C25.5111 46.47 25.4879 46.5928 25.4892 46.7166C25.4905 46.8404 25.5164 46.9627 25.5652 47.0765C25.6141 47.1902 25.685 47.2932 25.7738 47.3794C25.8626 47.4656 25.9677 47.5333 26.0829 47.5787C26.198 47.6241 26.3211 47.6463 26.4448 47.6439C26.5686 47.6415 26.6907 47.6146 26.804 47.5647C26.9173 47.5149 27.0196 47.4431 27.1051 47.3535L31.6545 42.6646Z" fill="#3E61EE"/>
<path d="M23.9407 47.9163L22.429 49.4916C22.3438 49.5804 22.2768 49.6852 22.2321 49.7999C22.1873 49.9146 22.1656 50.037 22.1682 50.1601C22.1707 50.2831 22.1975 50.4045 22.2469 50.5173C22.2964 50.63 22.3676 50.7319 22.4564 50.8172C22.6358 50.9893 22.8763 51.0831 23.1249 51.078C23.248 51.0754 23.3693 51.0487 23.4821 50.9992C23.5948 50.9497 23.6967 50.8786 23.782 50.7897L25.2935 49.2146C25.3788 49.1257 25.4457 49.021 25.4904 48.9063C25.5352 48.7916 25.557 48.6692 25.5544 48.5462C25.5519 48.4231 25.5251 48.3017 25.4757 48.1889C25.4262 48.0762 25.3551 47.9743 25.2663 47.889C25.1774 47.8038 25.0727 47.7369 24.958 47.6921C24.8433 47.6473 24.7209 47.6256 24.5978 47.6281C24.4747 47.6307 24.3534 47.6574 24.2406 47.7069C24.1279 47.7563 24.026 47.8275 23.9407 47.9163Z" fill="#3E61EE"/>
<path d="M62.2653 0.870919C62.0193 0.899145 61.7945 1.02354 61.6399 1.21695C61.4853 1.41036 61.4135 1.65708 61.4401 1.90325C61.4668 2.14941 61.5898 2.37504 61.7822 2.53087C61.9746 2.6867 62.2209 2.76007 62.4672 2.73498C64.464 2.51492 66.4847 2.74635 68.3801 3.41215C70.2754 4.07796 71.9969 5.16112 73.4174 6.58162C74.8379 8.00212 75.9211 9.72364 76.5869 11.619C77.2527 13.5143 77.4841 15.5351 77.2641 17.5319C77.2373 17.7791 77.3098 18.0268 77.4657 18.2205C77.6216 18.4143 77.848 18.5381 78.0952 18.5649C78.3425 18.5917 78.5902 18.5191 78.7839 18.3633C78.9776 18.2074 79.1015 17.9809 79.1283 17.7337C79.3786 15.4582 79.1145 13.1556 78.3555 10.9958C77.5965 8.83609 76.3621 6.87442 74.7434 5.25571C73.1247 3.637 71.163 2.40259 69.0032 1.64365C66.8435 0.884713 64.5408 0.620635 62.2653 0.870919Z" fill="#3E61EE"/>
<path d="M74.113 18.5605C74.1591 18.5673 74.2056 18.5708 74.2522 18.5708C74.4767 18.5706 74.6937 18.4897 74.8637 18.343C75.0337 18.1963 75.1454 17.9935 75.1784 17.7714C75.4445 16.0095 75.2931 14.2098 74.7364 12.5171C74.1797 10.8244 73.2333 9.2861 71.9733 8.02612C70.7133 6.76614 69.175 5.81967 67.4823 5.26296C65.7896 4.70625 63.9899 4.55486 62.228 4.82097C61.982 4.85762 61.7607 4.99047 61.6127 5.1903C61.4647 5.39013 61.4022 5.64057 61.4388 5.88651C61.4755 6.13246 61.6083 6.35377 61.8082 6.50177C62.008 6.64976 62.2584 6.71231 62.5044 6.67565C63.9765 6.45267 65.4804 6.57869 66.8948 7.04355C68.3093 7.50842 69.5947 8.29912 70.6475 9.35192C71.7003 10.4047 72.491 11.6902 72.9559 13.1046C73.4207 14.5191 73.5467 16.0229 73.3237 17.495C73.3056 17.6168 73.3116 17.741 73.3415 17.8604C73.3713 17.9799 73.4244 18.0923 73.4977 18.1912C73.571 18.2902 73.663 18.3737 73.7686 18.4371C73.8742 18.5004 73.9912 18.5424 74.113 18.5605Z" fill="#3E61EE"/>
<path d="M61.4555 9.95732C61.5145 10.1988 61.6671 10.4071 61.8796 10.5361C62.0921 10.6652 62.3471 10.7046 62.5887 10.6456C63.5228 10.4164 64.5002 10.4319 65.4266 10.6907C66.353 10.9494 67.197 11.4427 67.8771 12.1228C68.5572 12.8029 69.0505 13.6469 69.3092 14.5733C69.568 15.4997 69.5835 16.4771 69.3543 17.4112C69.324 17.5312 69.3177 17.656 69.3359 17.7784C69.354 17.9008 69.3963 18.0184 69.4601 18.1244C69.5239 18.2304 69.6081 18.3227 69.7077 18.396C69.8074 18.4693 69.9206 18.5222 70.0408 18.5516C70.161 18.5809 70.2858 18.5862 70.4081 18.5671C70.5303 18.5479 70.6476 18.5048 70.7531 18.4402C70.8586 18.3755 70.9503 18.2906 71.0228 18.1904C71.0953 18.0901 71.1473 17.9765 71.1757 17.8561C71.4811 16.6092 71.46 15.3047 71.1144 14.0683C70.7688 12.832 70.1104 11.7056 69.2026 10.7979C68.2949 9.89017 67.1685 9.23173 65.9322 8.88612C64.6959 8.54051 63.3913 8.51939 62.1445 8.82482C61.9029 8.88369 61.6947 9.03606 61.5655 9.24843C61.4363 9.4608 61.3968 9.71579 61.4555 9.95732Z" fill="#3E61EE"/>
<path d="M66.0434 69.2936L47.1248 50.2135C47.0377 50.1256 46.934 50.0558 46.8197 50.0082C46.7055 49.9606 46.5829 49.9361 46.4591 49.9361C46.3354 49.9361 46.2128 49.9606 46.0986 50.0082C45.9843 50.0558 45.8806 50.1256 45.7934 50.2135L45.1713 50.8408L43.3517 49.0166L42.0236 50.3408L43.8506 52.1724L40.3377 55.7155L39.7067 56.3518L37.8878 54.5283L36.5597 55.8525L38.3859 57.6833L37.5361 58.5404C37.362 58.7159 37.2643 58.9532 37.2643 59.2004C37.2643 59.4477 37.362 59.6849 37.5361 59.8605L56.4556 78.941C56.5428 79.0289 56.6465 79.0986 56.7607 79.1462C56.875 79.1939 56.9976 79.2184 57.1213 79.2184C57.2451 79.2184 57.3677 79.1939 57.4819 79.1462C57.5962 79.0986 57.6999 79.0289 57.787 78.941L66.0434 70.6138C66.2175 70.4382 66.3152 70.201 66.3152 69.9537C66.3152 69.7065 66.2175 69.4692 66.0434 69.2936ZM43.6644 55.0244L48.4988 59.8994L47.1533 61.2563L42.3191 56.3813L43.6644 55.0244ZM39.5238 59.2007L40.9989 57.7128L46.4877 63.2488C46.5748 63.3367 46.6785 63.4065 46.7928 63.4541C46.9071 63.5017 47.0296 63.5263 47.1534 63.5263C47.2772 63.5263 47.3998 63.5017 47.5141 63.4541C47.6284 63.4065 47.7321 63.3367 47.8192 63.2488L50.4848 60.5602C50.6589 60.3846 50.7566 60.1474 50.7566 59.9001C50.7566 59.6529 50.6589 59.4156 50.4848 59.24L44.9848 53.6932L46.46 52.2054L61.0391 66.9096L54.1031 73.905L39.5238 59.2007ZM57.1214 76.9493L55.423 75.2363L62.3592 68.2408L64.0577 69.9538L57.1214 76.9493Z" fill="#968B82"/>
<path d="M28.8763 34.5047L29.5587 33.8172C29.7328 33.6416 29.8304 33.4043 29.8304 33.1571C29.8304 32.9098 29.7328 32.6726 29.5587 32.497L10.6405 13.4161C10.5534 13.3282 10.4497 13.2584 10.3354 13.2108C10.2212 13.1632 10.0986 13.1387 9.97485 13.1387C9.85107 13.1387 9.72851 13.1632 9.61425 13.2108C9.5 13.2584 9.3963 13.3282 9.30914 13.4161L1.05289 21.7431C0.878805 21.9187 0.781128 22.1559 0.781128 22.4032C0.781128 22.6504 0.878805 22.8877 1.05289 23.0632L19.9709 42.1436C20.058 42.2315 20.1617 42.3012 20.276 42.3488C20.3902 42.3964 20.5128 42.421 20.6366 42.421C20.7603 42.421 20.8829 42.3964 20.9972 42.3488C21.1114 42.3012 21.2151 42.2315 21.3023 42.1436L22.0918 41.3467L24.248 43.5079L25.5762 42.1837L23.412 40.0158L27.556 35.8362L29.7104 37.9959L31.0385 36.6718L28.8763 34.5047ZM3.03883 22.4032L9.97492 15.4076L11.6734 17.1206L4.73727 24.1162L3.03883 22.4032ZM23.432 37.3326L18.5695 32.4286L19.9149 31.0715L24.7774 35.9757L23.432 37.3326ZM26.0976 34.6442L20.5805 29.0798C20.4934 28.9919 20.3897 28.9222 20.2754 28.8745C20.1612 28.8269 20.0386 28.8024 19.9148 28.8024C19.7911 28.8024 19.6685 28.8269 19.5543 28.8745C19.44 28.9222 19.3363 28.9919 19.2491 29.0798L16.5835 31.7684C16.4094 31.944 16.3118 32.1812 16.3118 32.4285C16.3118 32.6757 16.4094 32.913 16.5835 33.0886L22.1118 38.6642L20.6366 40.152L6.05758 25.4478L12.9935 18.4522L27.5727 33.1564L26.0976 34.6442Z" fill="#968B82"/>
<path d="M20.4939 69.0811C20.6678 69.2632 20.9067 69.369 21.1584 69.3755H21.1597C21.4109 69.3693 21.6495 69.2641 21.8236 69.0829L24.8595 66.0291C24.8773 66.0135 24.8969 65.9978 24.9137 65.9808C24.9306 65.9638 24.9466 65.9382 24.9636 65.9183L27.788 63.0833L28.6148 63.9296C28.7895 64.1104 29.0287 64.2145 29.28 64.2193H29.2809C29.4057 64.2168 29.5287 64.1899 29.643 64.1399C29.7573 64.0899 29.8606 64.0178 29.947 63.9278L50.2781 43.3374C50.4517 43.161 50.5488 42.9235 50.5486 42.676C50.5484 42.4286 50.4508 42.1912 50.2769 42.0152L47.0616 38.7707L48.8831 36.9485C51.32 38.2692 54.1073 38.7994 56.8589 38.4657C59.6105 38.1319 62.1903 36.9508 64.2408 35.0858C64.3346 35.0007 64.4102 34.8976 64.4631 34.7825C64.5159 34.6674 64.5449 34.5428 64.5482 34.4161C64.5516 34.2895 64.5293 34.1636 64.4826 34.0458C64.4359 33.9281 64.3659 33.8211 64.2767 33.7311L56.0509 25.4343L59.6514 21.8338C60.186 22.0601 60.7826 22.0934 61.3391 21.928C61.8955 21.7626 62.3771 21.4088 62.7013 20.9272C63.0255 20.4457 63.1721 19.8664 63.116 19.2886C63.0598 18.7108 62.8045 18.1706 62.3937 17.7604C61.9829 17.3502 61.4423 17.0957 60.8644 17.0405C60.2865 16.9853 59.7074 17.1328 59.2264 17.4577C58.7453 17.7826 58.3923 18.2647 58.2277 18.8214C58.0632 19.3781 58.0974 19.9747 58.3245 20.5089L54.7308 24.1027L46.5964 15.8985C46.5063 15.8076 46.3985 15.7361 46.2798 15.6885C46.161 15.6409 46.0337 15.618 45.9058 15.6214C45.7779 15.6248 45.652 15.6544 45.536 15.7082C45.4199 15.7621 45.3161 15.8392 45.2309 15.9347C43.4725 17.9141 42.328 20.3624 41.9373 22.9811C41.5465 25.5998 41.9263 28.2756 43.0303 30.6821L41.0286 32.6839L37.9986 29.6411C37.9108 29.5549 37.8067 29.4869 37.6924 29.4413C37.5781 29.3957 37.4559 29.3733 37.3328 29.3755H37.3319C37.2087 29.3733 37.0864 29.3957 36.972 29.4415C36.8576 29.4872 36.7536 29.5554 36.6659 29.6419L16.3348 50.2192C16.1613 50.3943 16.064 50.6309 16.0642 50.8774C16.0644 51.124 16.1621 51.3604 16.3359 51.5352L17.1708 52.3755L11.1992 58.3669C11.0243 58.544 10.9261 58.7827 10.9258 59.0316C10.9255 59.2804 11.0231 59.5194 11.1975 59.6969L20.4939 69.0811ZM60.6251 18.9068C60.7488 18.9068 60.8696 18.9434 60.9724 19.0121C61.0752 19.0808 61.1553 19.1784 61.2026 19.2926C61.2499 19.4068 61.2623 19.5324 61.2381 19.6537C61.214 19.7749 61.1545 19.8863 61.0671 19.9737C60.9797 20.0611 60.8683 20.1206 60.7471 20.1447C60.6258 20.1689 60.5002 20.1565 60.386 20.1092C60.2718 20.0619 60.1742 19.9818 60.1055 19.879C60.0368 19.7762 60.0001 19.6554 60.0001 19.5318C60.0001 19.366 60.066 19.207 60.1832 19.0898C60.3004 18.9726 60.4594 18.9068 60.6251 18.9068ZM45.9967 17.9574L53.9322 25.9608C53.999 26.0627 54.0857 26.1502 54.187 26.2178L62.2262 34.326C60.002 36.0246 57.2346 36.8538 54.4428 36.6582C51.651 36.4626 49.0263 35.2556 47.0606 33.2635C45.0811 31.2616 43.8852 28.6162 43.69 25.8077C43.4948 22.9992 44.3132 20.2138 45.9967 17.9574ZM43.97 32.3949C44.8487 33.7558 45.9643 34.9482 47.2637 35.9155L45.7414 37.438L42.3487 34.0161L43.97 32.3949ZM37.3342 31.6216L48.2922 42.6736L44.8425 46.1663L33.8844 35.1143L37.3342 31.6216ZM32.5667 36.4483L43.5248 47.5005L29.2787 61.9239L28.4506 61.0894L18.3206 50.8725L32.5667 36.4483ZM26.4672 61.7505L24.2501 63.9758L16.2737 55.931L18.4914 53.7061L26.4672 61.7505ZM14.9497 57.2591L22.9261 65.3039L21.1614 67.0743L13.1851 59.0297L14.9497 57.2591Z" fill="#968B82"/>
</g>
<defs>
<clipPath id="clip0_6873_11179">
<rect width="80" height="80" fill="white"/>
</clipPath>
</defs>
</svg>
