<svg viewBox="0 0 144 144" fill="none" xmlns="http://www.w3.org/2000/svg">
<path d="M35.8845 110.526C31.852 106.498 28.4474 101.888 25.7848 96.8484C24.3332 94.1041 23.1112 91.2444 22.1314 88.2984C19.3846 80.0742 18.551 71.3316 19.6941 62.7365C20.8373 54.1413 23.927 45.9205 28.7279 38.7001C33.5289 31.4797 39.9144 25.4503 47.398 21.0711C54.8817 16.6918 63.2661 14.0784 71.9126 13.4297C58.8697 12.4836 45.8983 16.0518 35.1743 23.5357C24.4504 31.0195 16.6265 41.9638 13.0151 54.5324C9.40374 67.101 10.2246 80.5292 15.3401 92.5643C20.4556 104.599 29.5544 114.509 41.1101 120.631C42.5394 119.904 44.0006 119.115 45.4937 118.263C42.0207 116.039 38.7989 113.444 35.8845 110.526Z" fill="#3E61EE" fill-opacity="0.2"/>
<path d="M121.32 50.9828C121.11 51.0513 120.914 51.1606 120.746 51.3044C120.577 51.4483 120.439 51.624 120.338 51.8215C120.237 52.0189 120.177 52.2342 120.159 52.4552C120.142 52.6761 120.168 52.8983 120.237 53.1091C123.403 62.8079 123.823 73.1938 121.45 83.1165C119.077 93.0392 114.003 102.111 106.792 109.328C99.5801 116.545 90.5117 121.625 80.5907 124.006C70.6698 126.386 60.2836 125.974 50.5824 122.815C50.1568 122.676 49.6936 122.713 49.2948 122.916C48.896 123.119 48.5942 123.472 48.4558 123.898C48.3174 124.323 48.3537 124.786 48.5568 125.185C48.7599 125.584 49.1131 125.886 49.5387 126.024C59.8312 129.368 70.8482 129.8 81.3708 127.272C91.8935 124.744 101.512 119.354 109.162 111.699C116.811 104.044 122.195 94.4221 124.716 83.8978C127.237 73.3734 126.797 62.3567 123.446 52.0665C123.308 51.6409 123.007 51.2877 122.608 51.0844C122.209 50.8812 121.746 50.8447 121.32 50.9828Z" fill="#3E61EE"/>
<path d="M41.8989 119.139C37.0136 116.552 32.5442 113.246 28.6402 109.332C7.10067 87.7772 7.10067 52.7048 28.6402 31.1504C34.7596 25.0381 42.228 20.4472 50.4447 17.7469C58.6615 15.0466 67.3973 14.3123 75.9495 15.6029C84.5017 16.8935 92.6318 20.1732 99.6857 25.178C106.74 30.1829 112.521 36.7733 116.564 44.4192C116.777 44.8066 117.134 45.0947 117.558 45.2215C117.982 45.3483 118.438 45.3037 118.829 45.0972C119.22 44.8908 119.515 44.539 119.649 44.1177C119.784 43.6963 119.747 43.239 119.548 42.8442C115.264 34.7247 109.132 27.7252 101.648 22.4095C94.1629 17.0938 85.534 13.6107 76.4565 12.2407C67.3789 10.8708 58.1065 11.6524 49.3863 14.5225C40.6661 17.3926 32.7421 22.271 26.2527 28.7645C3.39885 51.6349 3.39885 88.8471 26.2527 111.718C30.3953 115.87 35.1375 119.378 40.3211 122.124C40.7167 122.333 41.1793 122.376 41.607 122.245C42.0347 122.113 42.3925 121.817 42.6017 121.421C42.811 121.025 42.8545 120.563 42.7226 120.135C42.5908 119.707 42.2945 119.35 41.8989 119.14V119.139Z" fill="#3E61EE"/>
<path d="M26.9008 93.2065C26.519 93.44 26.2456 93.8157 26.1407 94.2507C26.0359 94.6858 26.1081 95.1447 26.3416 95.5265C28.3443 98.7964 30.7261 101.818 33.4376 104.53C33.5942 104.686 33.7802 104.811 33.985 104.896C34.1897 104.98 34.4091 105.024 34.6307 105.024C34.8523 105.024 35.0718 104.981 35.2765 104.896C35.4813 104.811 35.6674 104.687 35.8241 104.53C35.9809 104.374 36.1052 104.188 36.1901 103.983C36.275 103.778 36.3187 103.559 36.3188 103.337C36.3188 103.116 36.2752 102.896 36.1905 102.691C36.1057 102.487 35.9815 102.301 35.8248 102.144C33.3015 99.6207 31.0849 96.8085 29.2211 93.7656C29.1055 93.5766 28.9537 93.4121 28.7745 93.2817C28.5953 93.1512 28.3922 93.0574 28.1767 93.0055C27.9613 92.9535 27.7377 92.9446 27.5188 92.9791C27.2998 93.0136 27.0898 93.0909 26.9008 93.2065Z" fill="#3E61EE"/>
<path d="M23.967 53.539C23.7572 53.4677 23.5354 53.4384 23.3142 53.4528C23.0931 53.4672 22.8769 53.525 22.6781 53.6229C22.4793 53.7209 22.3018 53.857 22.1556 54.0236C22.0094 54.1901 21.8974 54.3839 21.8261 54.5937C18.7433 63.6451 18.4038 73.4057 20.8502 82.6495C20.9732 83.072 21.2564 83.4298 21.6394 83.6465C22.0224 83.8632 22.4749 83.9217 22.9004 83.8095C23.326 83.6974 23.6909 83.4235 23.9173 83.0462C24.1438 82.6688 24.2139 82.218 24.1127 81.7897C21.8358 73.1871 22.1516 64.1035 25.0206 55.6799C25.1647 55.2563 25.1346 54.7928 24.9371 54.3913C24.7395 53.9898 24.3906 53.6833 23.967 53.539Z" fill="#3E61EE"/>
<path d="M9.9727 18.7635C11.2112 19.1801 12.3364 19.878 13.26 20.8023C14.1836 21.7266 14.8805 22.8524 15.2962 24.0912C15.4081 24.4273 15.623 24.7196 15.9104 24.9268C16.1977 25.1339 16.543 25.2454 16.8972 25.2454C17.2514 25.2454 17.5967 25.1339 17.8841 24.9268C18.1714 24.7196 18.3863 24.4273 18.4982 24.0912C18.9139 22.8523 19.6108 21.7266 20.5344 20.8023C21.458 19.8779 22.5832 19.1801 23.8217 18.7635C24.1576 18.6514 24.4497 18.4365 24.6567 18.1492C24.8637 17.8619 24.9751 17.5168 24.9751 17.1627C24.9751 16.8086 24.8637 16.4635 24.6567 16.1763C24.4497 15.889 24.1576 15.6741 23.8217 15.562C22.5832 15.1454 21.4581 14.4475 20.5344 13.5232C19.6108 12.5988 18.9139 11.4731 18.4982 10.2343C18.3863 9.8982 18.1714 9.60587 17.8841 9.39871C17.5967 9.19156 17.2514 9.08008 16.8972 9.08008C16.543 9.08008 16.1977 9.19156 15.9104 9.39871C15.623 9.60587 15.4081 9.8982 15.2962 10.2343C14.8805 11.4731 14.1835 12.5988 13.2599 13.5231C12.3363 14.4474 11.2112 15.1453 9.9727 15.562C9.63682 15.6741 9.3447 15.889 9.13771 16.1763C8.93072 16.4635 8.81934 16.8086 8.81934 17.1627C8.81934 17.5168 8.93072 17.8619 9.13771 18.1492C9.3447 18.4365 9.63682 18.6514 9.9727 18.7635ZM16.8974 14.4322C17.6523 15.4843 18.5738 16.4063 19.6255 17.1618C18.5737 17.9173 17.6523 18.8394 16.8974 19.8916C16.1423 18.8395 15.2208 17.9175 14.1692 17.1618C15.2208 16.4064 16.1423 15.4848 16.8974 14.4331V14.4322Z" fill="#3E61EE"/>
<path d="M122.554 123.318C121.316 122.901 120.191 122.204 119.267 121.279C118.344 120.355 117.647 119.229 117.231 117.991C117.119 117.655 116.904 117.362 116.617 117.155C116.33 116.948 115.984 116.836 115.63 116.836C115.276 116.836 114.931 116.948 114.643 117.155C114.356 117.362 114.141 117.655 114.029 117.991C113.613 119.229 112.916 120.355 111.993 121.279C111.069 122.204 109.944 122.902 108.706 123.318C108.37 123.43 108.077 123.645 107.87 123.932C107.663 124.22 107.552 124.565 107.552 124.919C107.552 125.273 107.663 125.618 107.87 125.906C108.077 126.193 108.37 126.408 108.706 126.52C109.944 126.936 111.069 127.634 111.993 128.558C112.916 129.483 113.613 130.608 114.029 131.847C114.141 132.183 114.356 132.476 114.643 132.683C114.931 132.89 115.276 133.001 115.63 133.001C115.984 133.001 116.33 132.89 116.617 132.683C116.904 132.476 117.119 132.183 117.231 131.847C117.647 130.608 118.344 129.483 119.267 128.558C120.191 127.634 121.316 126.936 122.554 126.52C122.89 126.408 123.182 126.193 123.39 125.905C123.597 125.618 123.708 125.273 123.708 124.919C123.708 124.564 123.597 124.219 123.39 123.932C123.182 123.645 122.89 123.43 122.554 123.318V123.318ZM115.63 127.649C114.875 126.597 113.953 125.675 112.902 124.92C113.953 124.165 114.875 123.243 115.63 122.192C116.385 123.243 117.307 124.165 118.358 124.92C117.307 125.675 116.385 126.597 115.63 127.648V127.649Z" fill="#3E61EE"/>
<path d="M100.932 136.021C100.282 136.021 99.6467 136.214 99.1061 136.575C98.5655 136.936 98.144 137.449 97.8951 138.049C97.6461 138.65 97.5809 139.311 97.7075 139.948C97.8342 140.586 98.1471 141.172 98.6067 141.631C99.0663 142.091 99.6519 142.404 100.289 142.531C100.927 142.658 101.588 142.593 102.188 142.344C102.789 142.095 103.302 141.674 103.664 141.134C104.025 140.593 104.217 139.958 104.217 139.308C104.216 138.437 103.87 137.602 103.254 136.986C102.638 136.37 101.803 136.023 100.932 136.021Z" fill="#3E61EE"/>
<path d="M30.5469 4.69266C30.5471 5.34239 30.74 5.97746 31.1011 6.51758C31.4623 7.0577 31.9754 7.47861 32.5758 7.72708C33.1761 7.97556 33.8367 8.04044 34.4739 7.91353C35.1111 7.78662 35.6964 7.47361 36.1557 7.01408C36.615 6.55455 36.9278 5.96914 37.0544 5.33187C37.1811 4.6946 37.1159 4.03409 36.8672 3.43385C36.6184 2.83362 36.1973 2.32061 35.657 1.9597C35.1168 1.5988 34.4816 1.40619 33.8319 1.40625C32.9609 1.40774 32.126 1.75451 31.5102 2.37054C30.8944 2.98658 30.548 3.82163 30.5469 4.69266Z" fill="#3E61EE"/>
<path d="M132.352 2.02009C132.035 2.33655 131.857 2.76576 131.857 3.21329C131.857 3.66083 132.035 4.09003 132.352 4.4065C136.356 8.41374 138.43 13.8565 138.516 20.5247C138.521 20.9714 138.7 21.3986 139.015 21.7151C139.331 22.0316 139.757 22.2124 140.204 22.2189H140.226C140.677 22.2086 141.106 22.0199 141.418 21.6941C141.73 21.3684 141.9 20.9322 141.892 20.4811C141.793 12.9017 139.387 6.68603 134.739 2.035C134.583 1.87716 134.398 1.75156 134.194 1.66538C133.99 1.5792 133.77 1.53413 133.548 1.53275C133.327 1.53136 133.107 1.57369 132.902 1.65731C132.696 1.74093 132.509 1.86421 132.352 2.02009Z" fill="#3E61EE"/>
<path d="M139.064 30.8573C138.849 30.8039 138.625 30.7934 138.406 30.8264C138.187 30.8594 137.977 30.9352 137.787 31.0496C137.597 31.1639 137.431 31.3145 137.3 31.4928C137.168 31.6711 137.073 31.8736 137.02 32.0886C136.624 33.685 136.143 35.3481 135.592 37.0316C135.516 37.2438 135.484 37.469 135.497 37.694C135.51 37.9189 135.567 38.139 135.666 38.3413C135.766 38.5436 135.904 38.724 136.074 38.8718C136.244 39.0196 136.442 39.1319 136.656 39.2021C136.87 39.2722 137.096 39.2987 137.321 39.2801C137.546 39.2615 137.764 39.1981 137.964 39.0937C138.163 38.9893 138.34 38.846 138.483 38.6722C138.627 38.4984 138.734 38.2977 138.798 38.0818C139.375 36.3201 139.878 34.5771 140.294 32.9015C140.402 32.4673 140.333 32.008 140.102 31.6247C139.871 31.2414 139.498 30.9654 139.064 30.8573Z" fill="#3E61EE"/>
<path d="M84.4958 14.6036C84.1111 14.8292 83.8314 15.198 83.7178 15.6292C83.6041 16.0604 83.6658 16.5191 83.8893 16.905C84.1128 17.2909 84.4799 17.5726 84.9105 17.6886C85.3411 17.8046 85.8001 17.7455 86.1872 17.5241C95.0171 12.4093 102.848 9.31304 109.462 8.32079C116.421 7.27735 121.833 8.63326 125.548 12.3514C130.365 17.1712 131.211 24.7545 128.065 34.8947C125.325 43.7237 119.543 54.2863 111.302 65.5369C110.294 64.5426 109.131 63.7181 107.859 63.0954C115.277 52.9594 120.666 43.396 123.491 35.336C126.731 26.0978 126.411 19.181 122.568 15.3369C119.918 12.6841 115.877 11.6997 110.556 12.4048C105.758 13.0421 100.028 15.041 93.5262 18.3459C93.3286 18.4464 93.1527 18.5847 93.0086 18.7531C92.8644 18.9215 92.7549 19.1167 92.6862 19.3274C92.5474 19.753 92.5834 20.2163 92.7862 20.6154C92.989 21.0144 93.3421 21.3166 93.7677 21.4553C94.1933 21.5941 94.6565 21.5581 95.0556 21.3553C107.174 15.1959 116.332 13.8718 120.181 17.7233C126.084 23.6295 119.777 41.3525 104.485 61.9878C103.734 61.8508 102.973 61.7815 102.21 61.7808C100.119 61.7816 98.0601 62.2891 96.2086 63.2599C94.357 64.2307 92.7684 65.6359 91.5787 67.355C90.3891 69.0741 89.6339 71.056 89.3778 73.1309C89.1217 75.2058 89.3724 77.3118 90.1084 79.2686C87.9861 81.5681 85.7862 83.8634 83.5488 86.103C69.3316 100.331 54.2285 111.936 41.0219 118.783C28.5563 125.245 19.1524 126.695 15.2217 122.761C11.3722 118.908 12.6949 109.743 18.8498 97.6146C18.9514 97.4168 19.0129 97.201 19.0308 96.9794C19.0487 96.7579 19.0227 96.5349 18.9542 96.3235C18.8857 96.112 18.7761 95.9161 18.6317 95.7471C18.4873 95.5781 18.3109 95.4393 18.1127 95.3387C17.9145 95.2381 17.6983 95.1776 17.4767 95.1608C17.255 95.1439 17.0322 95.171 16.8211 95.2405C16.61 95.3101 16.4146 95.4206 16.2463 95.5658C16.078 95.7111 15.9401 95.8881 15.8404 96.0868C12.538 102.593 10.5406 108.327 9.90352 113.128C9.19759 118.451 10.1831 122.494 12.8333 125.147C14.9216 127.236 17.9161 128.274 21.6879 128.273C27.1546 128.273 34.2522 126.093 42.5741 121.779C56.08 114.778 71.4793 102.955 85.9352 88.4888C87.9321 86.492 89.9009 84.4487 91.8108 82.3978C92.6525 83.5349 93.6735 84.5275 94.834 85.3366C92.9012 87.4111 90.9184 89.4696 88.9151 91.474C74.015 106.385 57.5467 118.947 43.7323 125.939C36.9972 129.348 28.8117 132.506 21.601 132.506C17.1122 132.506 13.0004 131.282 9.85318 128.132C6.21662 124.491 4.84046 119.222 5.76521 112.465C6.64468 106.034 9.55224 98.4142 14.4075 89.8178C14.6234 89.4283 14.6767 88.9693 14.5557 88.5407C14.4347 88.1122 14.1492 87.7488 13.7614 87.5299C13.3737 87.3109 12.9151 87.2541 12.4856 87.3718C12.0561 87.4896 11.6906 87.7723 11.4687 88.1584C0.523275 107.536 -0.860193 122.183 7.46706 130.517C11.0325 134.084 15.7867 135.865 21.5889 135.865C28.1935 135.865 36.1551 133.556 45.2575 128.949C59.5855 121.696 75.9385 109.233 91.3037 93.8585C93.5605 91.5998 95.7916 89.2741 97.9559 86.9321C100.285 87.7408 102.796 87.8673 105.195 87.2967C107.593 86.7261 109.779 85.4822 111.494 83.7113C113.209 81.9405 114.383 79.7165 114.877 77.3011C115.371 74.8857 115.165 72.3795 114.282 70.0774C114.049 69.4703 113.77 68.882 113.446 68.3176C122.213 56.4753 128.375 45.2832 131.288 35.8948C134.835 24.4654 133.707 15.7416 127.936 9.96582C119.437 1.46223 104.416 3.06535 84.4958 14.6036ZM102.21 84.2802C100.316 84.2833 98.464 83.7245 96.8879 82.6744C95.3119 81.6244 94.0827 80.1303 93.3562 78.3814C92.6297 76.6324 92.4383 74.7073 92.8065 72.8495C93.1746 70.9918 94.0856 69.2851 95.4242 67.9454C96.7628 66.6057 98.4688 65.6932 100.326 65.3236C102.184 64.9539 104.109 65.1436 105.859 65.8687C107.608 66.5938 109.103 67.8217 110.155 69.3969C111.206 70.9722 111.766 72.8239 111.765 74.7177C111.763 77.2519 110.756 79.6819 108.965 81.4746C107.173 83.2673 104.744 84.2763 102.21 84.2802Z" fill="#968B82"/>
</svg>
