<svg viewBox="0 0 144 144" fill="none" xmlns="http://www.w3.org/2000/svg">
<path d="M32.7324 13.6941C32.7332 10.8824 33.8506 8.1862 35.839 6.19834C37.8274 4.21048 40.5239 3.09375 43.3355 3.09375H34.898C32.0864 3.09375 29.3899 4.21048 27.4015 6.19834C25.4131 8.1862 24.2957 10.8824 24.2949 13.6941V103.804C24.2953 101.368 25.1343 99.0059 26.6708 97.1154C28.2073 95.225 30.3478 93.9211 32.7324 93.4228V13.6941Z" fill="#3E61EE" fill-opacity="0.2"/>
<path d="M34.8967 94.7812H114.404C118.257 94.7812 121.5 91.7547 121.5 87.9016V8.39419C121.5 4.54106 118.257 1.40625 114.404 1.40625H34.8967C28.1208 1.40625 22.5 6.91875 22.5 13.6946V114.404C22.5 121.18 28.1208 126.562 34.8967 126.562H46.4062V140.906C46.4124 141.242 46.5169 141.568 46.7066 141.845C46.8964 142.122 47.1632 142.338 47.474 142.465C47.7849 142.592 48.1261 142.625 48.4555 142.56C48.785 142.495 49.0881 142.335 49.3276 142.1L58.7419 132.692L68.1533 142.1C68.4704 142.416 68.9003 142.594 69.3484 142.594C69.5894 142.594 69.8285 142.55 70.054 142.465C70.3694 142.341 70.6417 142.127 70.8375 141.85C71.0332 141.573 71.144 141.245 71.1562 140.906V126.562H119.704C120.152 126.562 120.581 126.385 120.897 126.068C121.214 125.752 121.392 125.323 121.392 124.875C121.392 124.427 121.214 123.998 120.897 123.682C120.581 123.365 120.152 123.188 119.704 123.188H71.1562V110.812H119.704C120.152 110.812 120.581 110.635 120.897 110.318C121.214 110.002 121.392 109.573 121.392 109.125C121.392 108.677 121.214 108.248 120.897 107.932C120.581 107.615 120.152 107.438 119.704 107.438H40.1971C39.7495 107.438 39.3203 107.615 39.0039 107.932C38.6874 108.248 38.5096 108.677 38.5096 109.125C38.5096 109.573 38.6874 110.002 39.0039 110.318C39.3203 110.635 39.7495 110.812 40.1971 110.812H46.4062V123.188H34.8967C29.9813 123.188 25.875 119.319 25.875 114.404V103.803C25.8979 101.417 26.8558 99.1359 28.5427 97.449C30.2297 95.7621 32.5111 94.8042 34.8967 94.7812V94.7812ZM46.9688 4.78125H114.404C116.396 4.78125 118.125 6.40209 118.125 8.39419V87.9016C118.125 89.8937 116.396 91.4062 114.404 91.4062H46.9688V4.78125ZM25.875 13.6946C25.875 8.77978 29.9813 4.78125 34.8967 4.78125H43.5938V91.4062H34.8967C33.2051 91.4254 31.5347 91.7846 29.9849 92.4625C28.435 93.1404 27.0373 94.1231 25.875 95.3522V13.6946ZM49.7812 110.812H67.7812V136.832L60.0013 129.112C59.6737 128.795 59.2357 128.618 58.7798 128.618C58.324 128.618 57.886 128.795 57.5584 129.112L49.7812 136.832V110.812Z" fill="#3E61EE"/>
<path d="M103.565 48.0938C103.121 48.0963 102.695 48.2729 102.38 48.5856C102.064 48.8984 101.884 49.3224 101.877 49.7666C101.808 54.7122 99.8274 59.439 96.3499 62.9561C92.8723 66.4732 88.1682 68.5074 83.2237 68.6323C82.7813 68.6437 82.3611 68.8288 82.0541 69.1476C81.7471 69.4664 81.5779 69.8933 81.5831 70.3359C81.5884 70.7784 81.7676 71.2011 82.0821 71.5126C82.3966 71.824 82.8211 71.9991 83.2637 72H83.3042C89.1081 72 94.5657 69.525 98.6717 65.4095C102.815 61.2686 105.176 55.6732 105.253 49.8161C105.258 49.5938 105.218 49.3727 105.137 49.1656C105.056 48.9585 104.935 48.7695 104.78 48.6094C104.626 48.4494 104.441 48.3214 104.237 48.2329C104.033 48.1444 103.814 48.0971 103.591 48.0938H103.565Z" fill="#17E5C3"/>
<path d="M65.7328 64.5752C66.0664 64.5752 66.3925 64.4764 66.67 64.2911C66.9474 64.1059 67.1638 63.8425 67.2916 63.5344C67.4195 63.2263 67.4531 62.8871 67.3883 62.5599C67.3235 62.2326 67.1632 61.9319 66.9275 61.6957C63.3474 58.0954 61.3378 53.2243 61.3378 48.147C61.3378 43.0696 63.3474 38.1985 66.9275 34.5982C68.6994 32.8199 70.8049 31.409 73.1232 30.4462C75.4416 29.4835 77.9272 28.9879 80.4375 28.9879C82.9478 28.9879 85.4334 29.4835 87.7518 30.4462C90.0701 31.409 92.1756 32.8199 93.9475 34.5982C94.2507 34.9019 94.5471 35.2194 94.8281 35.5412C95.1224 35.8784 95.5386 36.0848 95.9851 36.1152C96.4317 36.1455 96.8719 35.9972 97.2091 35.7029C97.5463 35.4086 97.7528 34.9924 97.7831 34.5459C97.8135 34.0993 97.6652 33.659 97.3709 33.3218C97.0407 32.9436 96.6928 32.5709 96.3367 32.2143C94.2513 30.1218 91.7734 28.4616 89.045 27.3288C86.3167 26.1959 83.3916 25.6128 80.4374 25.6128C77.4832 25.6128 74.558 26.1959 71.8297 27.3288C69.1013 28.4616 66.6234 30.1218 64.538 32.2143C60.328 36.4482 57.9648 42.1763 57.9648 48.1471C57.9648 54.1179 60.328 59.846 64.538 64.0799C64.6946 64.2372 64.8809 64.3619 65.0859 64.4469C65.291 64.5319 65.5108 64.5755 65.7328 64.5752V64.5752Z" fill="#17E5C3"/>
<path d="M63.5954 73.2377C71.3886 73.2377 82.2507 65.1323 89.818 57.5468C90.499 56.8639 91.168 56.1639 91.8267 55.4604C92.8482 55.6773 93.9092 55.6146 94.8979 55.279C95.8867 54.9434 96.7667 54.3473 97.4451 53.5535C98.1235 52.7597 98.5752 51.7976 98.7527 50.7687C98.9302 49.7397 98.8269 48.6818 98.4535 47.7067C98.4341 47.6566 98.4108 47.6091 98.3905 47.5599C105.725 37.4579 107.438 29.588 103.2 25.338C100.646 22.7786 97.1111 22.8414 94.5954 23.3448C94.3762 23.3863 94.1674 23.4709 93.9812 23.5936C93.7949 23.7163 93.6348 23.8748 93.5101 24.0597C93.3855 24.2447 93.2987 24.4526 93.2549 24.6713C93.2111 24.89 93.2111 25.1153 93.2548 25.334C93.2986 25.5527 93.3853 25.7606 93.5099 25.9456C93.6346 26.1306 93.7946 26.2891 93.9809 26.4118C94.1672 26.5346 94.3759 26.6192 94.5951 26.6607C94.8142 26.7023 95.0394 26.7 95.2577 26.654C97.7406 26.157 99.6078 26.5165 100.81 27.7227C103.581 30.5004 101.831 36.8586 96.1462 44.8995C94.9567 44.1432 93.5321 43.8468 92.1396 44.066C90.7472 44.2851 89.4825 45.0047 88.5828 46.0899C87.6831 47.175 87.2103 48.5511 87.2529 49.9601C87.2955 51.369 87.8506 52.7141 88.8143 53.7429C88.3577 54.2215 87.8959 54.6954 87.4288 55.1643C78.5214 64.094 69.1661 69.8638 63.596 69.8638C62.0834 69.8638 60.9286 69.4419 60.0657 68.5782C58.7242 67.2336 58.4322 65.0691 59.1981 62.1452C59.3115 61.7122 59.2482 61.2519 59.0222 60.8656C58.7962 60.4793 58.426 60.1986 57.9931 60.0852C57.5601 59.9718 57.0998 60.0351 56.7135 60.261C56.3272 60.487 56.0464 60.8572 55.933 61.2902C55.1832 64.1536 54.8767 68.1558 57.6768 70.9618C59.1832 72.4702 61.1747 73.2377 63.5954 73.2377V73.2377ZM93.0423 47.3585C93.5232 47.3564 93.9938 47.4971 94.3947 47.7628C94.7955 48.0285 95.1085 48.4071 95.2939 48.8508C95.4794 49.2945 95.529 49.7832 95.4364 50.2551C95.3439 50.727 95.1134 51.1608 94.7741 51.5016C94.4348 51.8424 94.0019 52.0747 93.5304 52.1693C93.059 52.2639 92.57 52.2164 92.1255 52.0329C91.681 51.8493 91.301 51.538 91.0337 51.1383C90.7663 50.7386 90.6236 50.2685 90.6235 49.7876C90.6248 49.1453 90.8798 48.5294 91.3329 48.0742C91.7861 47.619 92.4008 47.3612 93.0431 47.3571L93.0423 47.3585Z" fill="#17E5C3"/>
<path d="M65.3346 40.7504C65.0399 41.504 64.7838 42.272 64.5673 43.0516C64.4476 43.4829 64.5042 43.944 64.7245 44.3336C64.9448 44.7232 65.3108 45.0093 65.7421 45.1289C66.1734 45.2486 66.6345 45.1921 67.0241 44.9718C67.4136 44.7515 67.6997 44.3854 67.8194 43.9542C68.005 43.2854 68.2248 42.6266 68.4778 41.9803C68.6409 41.5635 68.6318 41.099 68.4523 40.6889C68.2729 40.2789 67.938 39.9569 67.5211 39.7938C67.1043 39.6307 66.6398 39.6398 66.2297 39.8192C65.8197 39.9987 65.4977 40.3336 65.3346 40.7504V40.7504Z" fill="#17E5C3"/>
<path d="M72.7468 18.1514C73.4205 18.1515 74.0792 17.9518 74.6395 17.5775C75.1998 17.2033 75.6365 16.6713 75.8944 16.0488C76.1523 15.4264 76.2198 14.7414 76.0884 14.0805C75.957 13.4197 75.6326 12.8127 75.1562 12.3362C74.6798 11.8598 74.0728 11.5353 73.4119 11.4038C72.7511 11.2724 72.0661 11.3399 71.4436 11.5977C70.8212 11.8556 70.2891 12.2922 69.9148 12.8525C69.5405 13.4127 69.3408 14.0714 69.3408 14.7452C69.3419 15.6482 69.7011 16.5138 70.3396 17.1524C70.9781 17.7909 71.8438 18.1502 72.7468 18.1514Z" fill="#17E5C3"/>
<path d="M68.1637 22.7347C69.4121 22.7347 70.4241 21.7227 70.4241 20.4743C70.4241 19.2259 69.4121 18.2139 68.1637 18.2139C66.9153 18.2139 65.9033 19.2259 65.9033 20.4743C65.9033 21.7227 66.9153 22.7347 68.1637 22.7347Z" fill="#17E5C3"/>
</svg>
