<svg viewBox="0 0 144 144" fill="none" xmlns="http://www.w3.org/2000/svg">
<path d="M42.1655 74.433C42.1656 66.0551 45.2269 57.9659 50.7735 51.687C56.3201 45.408 63.9698 41.3721 72.2837 40.3382C67.4539 39.7433 62.5529 40.1813 57.9051 41.6232C53.2574 43.0651 48.969 45.4779 45.324 48.7019C41.679 51.9259 38.7605 55.8875 36.7618 60.3244C34.7631 64.7613 33.7299 69.5721 33.7305 74.4384C33.7311 79.3046 34.7655 84.1152 36.7653 88.5516C38.7651 92.988 41.6845 96.9489 45.3304 100.172C48.9762 103.395 53.2652 105.807 57.9133 107.248C62.5614 108.688 67.4625 109.125 72.2921 108.529C63.9765 107.497 56.3247 103.462 50.7764 97.1823C45.228 90.9029 42.1657 82.8124 42.1655 74.433Z" fill="#3E61EE" fill-opacity="0.2"/>
<path d="M96.5194 124.613L95.1694 119.398C94.4129 116.557 94.8137 113.532 96.2837 110.986L93.3652 109.291C91.712 112.139 91.0856 115.468 91.5905 118.723C89.8348 117.073 87.6937 115.889 85.3627 115.28C83.0317 114.671 80.5852 114.655 78.2467 115.235C75.9083 115.816 73.7526 116.972 71.9766 118.6C70.2005 120.228 68.8608 122.276 68.0799 124.555C67.2991 122.275 65.9593 120.228 64.183 118.6C62.4068 116.971 60.2507 115.815 57.912 115.235C55.5732 114.655 53.1264 114.67 50.7952 115.28C48.4641 115.889 46.3229 117.074 44.5674 118.724C44.9337 116.318 44.6887 113.858 43.8552 111.571C43.0216 109.284 41.6262 107.243 39.7974 105.637C38.0052 104.045 35.8421 102.929 33.5063 102.39C31.1706 101.852 28.737 101.908 26.4288 102.555C27.8549 100.6 28.7721 98.3213 29.0975 95.9238C29.423 93.5263 29.1465 91.0855 28.293 88.8215C27.4395 86.5575 26.0359 84.5416 24.2087 82.9556C22.3815 81.3696 20.1882 80.2634 17.8267 79.7368C19.9956 78.6607 21.8627 77.0621 23.2599 75.0848C24.6571 73.1076 25.5406 70.8138 25.8307 68.4102C26.1209 66.0065 25.8086 63.5684 24.922 61.3155C24.0353 59.0626 22.6022 57.0656 20.7517 55.5043C23.152 55.5768 25.5321 55.0458 27.6738 53.9599C29.8156 52.8739 31.6506 51.2678 33.0106 49.2887C34.4041 47.2905 35.2732 44.9741 35.538 42.5523C35.8028 40.1306 35.4548 37.6811 34.526 35.429C36.6111 36.6118 38.9602 37.2515 41.3571 37.2893C43.7541 37.3272 46.1222 36.7619 48.2437 35.6455C50.3975 34.525 52.2347 32.8803 53.5858 30.8631C54.9369 28.8459 55.7585 26.521 55.9749 24.1028C57.2801 26.127 59.0719 27.7917 61.1866 28.9445C63.3013 30.0974 65.6713 30.7015 68.0798 30.7018C70.4883 30.7021 72.8585 30.0984 74.9734 28.946C77.0883 27.7936 78.8805 26.1293 80.1861 24.1053C80.4212 26.8377 81.4322 29.4459 83.1001 31.623C84.7679 33.8 87.0231 35.4551 89.6001 36.3934L90.7779 33.2304C88.6059 32.4379 86.7364 30.9854 85.4315 29.0768C84.1266 27.1681 83.4517 24.8989 83.5014 22.5874L83.5717 17.1986C83.5768 16.8171 83.4523 16.4452 83.2187 16.1435C82.9852 15.8418 82.6562 15.6281 82.2856 15.5374C81.915 15.4467 81.5246 15.4842 81.1781 15.6439C80.8316 15.8036 80.5494 16.0761 80.3776 16.4168L77.9541 21.2211C77.0381 23.0555 75.6292 24.5985 73.8853 25.6769C72.1414 26.7554 70.1316 27.3266 68.0812 27.3266C66.0308 27.3266 64.021 26.7554 62.2771 25.6769C60.5332 24.5985 59.1243 23.0555 58.2083 21.2211L55.9865 16.8198C55.9865 16.8142 55.9865 16.8085 55.9837 16.8026L53.1222 4.20517C53.0762 3.98598 52.987 3.77814 52.8599 3.59376C52.7328 3.40939 52.5702 3.25216 52.3816 3.13126C52.1931 3.01036 51.9824 2.9282 51.7618 2.88956C51.5412 2.85092 51.3151 2.85658 51.0967 2.90622C50.8783 2.95585 50.672 3.04846 50.4898 3.17865C50.3075 3.30884 50.153 3.47401 50.0353 3.66451C49.9175 3.85502 49.8389 4.06707 49.8039 4.28829C49.7689 4.5095 49.7783 4.73547 49.8316 4.95301L52.5968 17.1202C52.5968 17.1463 52.5907 17.1716 52.5909 17.1978L52.6615 22.5865C52.7152 24.6577 52.1821 26.7018 51.1238 28.483C50.0654 30.2641 48.5249 31.7097 46.6802 32.6528C44.8819 33.6168 42.8476 34.0527 40.8122 33.91C38.7768 33.7672 36.8232 33.0518 35.1771 31.8461L30.8146 28.7268C30.7943 28.7124 30.7721 28.7026 30.7513 28.6894L26.813 24.4026C26.6644 24.2342 26.4838 24.0972 26.2817 23.9995C26.0795 23.9019 25.8599 23.8455 25.6357 23.8338C25.4115 23.822 25.1873 23.8551 24.976 23.9312C24.7648 24.0072 24.5708 24.1246 24.4056 24.2766C24.2403 24.4285 24.107 24.6119 24.0134 24.816C23.9199 25.0201 23.868 25.2408 23.8609 25.4651C23.8537 25.6895 23.8914 25.9131 23.9717 26.1227C24.0521 26.3324 24.1734 26.5239 24.3287 26.686L28.4771 31.2004C28.4999 31.2251 28.5244 31.2468 28.5483 31.2699L30.897 35.6371C31.9009 37.4563 32.3714 39.5216 32.2547 41.5961C32.138 43.6706 31.4388 45.6701 30.2372 47.3652C29.0947 49.0572 27.4983 50.3928 25.6312 51.2186C23.7641 52.0444 21.702 52.327 19.6816 52.034L14.8441 51.377L11.4663 49.9913C11.054 49.8303 10.5951 49.8377 10.1882 50.0118C9.78137 50.186 9.45923 50.5131 9.29122 50.9225C9.12321 51.3319 9.12276 51.791 9.28997 52.2007C9.45719 52.6105 9.77868 52.9382 10.1852 53.1131L13.1316 54.3225C13.1574 54.3428 13.1802 54.3658 13.2081 54.3847L17.6518 57.3873C19.353 58.543 20.7035 60.1444 21.5556 62.0162C22.4076 63.888 22.7283 65.9582 22.4826 68.0001C22.2369 70.042 21.4343 71.9769 20.1626 73.5932C18.8908 75.2095 17.199 76.4448 15.2722 77.1639L10.2454 79.0087C10.151 79.0435 10.06 79.0868 9.9734 79.138L6.0359 79.6299C5.6094 79.6825 5.219 79.8957 4.94435 80.2262C4.66969 80.5567 4.53147 80.9796 4.55788 81.4085C4.58428 81.8374 4.77333 82.2401 5.08645 82.5344C5.39957 82.8287 5.81318 82.9925 6.2429 82.9923C6.31361 82.9922 6.38424 82.9878 6.4544 82.9791L11.0334 82.4059C11.1297 82.3933 11.2248 82.3724 11.3175 82.3435L15.9604 82.8497C17.9984 83.0543 19.9377 83.8287 21.5561 85.0842C23.1744 86.3398 24.4065 88.0257 25.1111 89.949C25.8715 91.8786 26.0732 93.9833 25.6929 96.0222C25.3127 98.061 24.366 99.9516 22.9612 101.477L19.3612 105.464C19.1055 105.746 18.9531 106.107 18.9286 106.488C18.9042 106.868 19.0092 107.245 19.2267 107.558C19.4441 107.871 19.7611 108.102 20.1261 108.212C20.4911 108.321 20.8825 108.305 21.2366 108.164L26.2147 106.186C28.1017 105.415 30.1683 105.191 32.1766 105.542C34.1849 105.893 36.0533 106.804 37.5666 108.171C39.1372 109.53 40.2921 111.304 40.8984 113.291C41.5047 115.277 41.5377 117.394 40.9936 119.399L39.6436 124.614C39.5486 124.983 39.5814 125.373 39.7366 125.721C39.8918 126.07 40.1602 126.355 40.4982 126.531C40.8362 126.707 41.2239 126.763 41.5981 126.691C41.9723 126.619 42.311 126.422 42.559 126.133L46.0538 122.052C47.3869 120.494 49.1276 119.337 51.0807 118.712C53.0339 118.087 55.1225 118.018 57.1126 118.513C59.1027 119.008 60.9157 120.048 62.3486 121.515C63.7814 122.982 64.7775 124.819 65.2252 126.82L66.4371 132.07C66.5229 132.441 66.7322 132.773 67.0308 133.011C67.3295 133.248 67.6999 133.378 68.0815 133.378C68.4631 133.378 68.8335 133.248 69.1321 133.011C69.4307 132.773 69.64 132.441 69.7258 132.07L70.938 126.82C71.3858 124.819 72.3819 122.982 73.8148 121.515C75.2477 120.048 77.0607 119.008 79.0508 118.514C81.0409 118.019 83.1295 118.087 85.0827 118.712C87.0359 119.337 88.7766 120.494 90.1097 122.052L93.6042 126.133C93.8523 126.422 94.1912 126.619 94.5657 126.692C94.9402 126.764 95.3281 126.708 95.6663 126.531C96.0045 126.355 96.273 126.069 96.4279 125.721C96.5829 125.372 96.6152 124.981 96.5197 124.612L96.5194 124.613Z" fill="#3E61EE"/>
<path d="M68.0806 41.7652C71.2821 41.7626 74.4667 42.2302 77.5323 43.1532L78.5074 39.9219C72.9154 38.2354 66.9974 37.9332 61.2627 39.0412C55.528 40.1492 50.1485 42.6343 45.5872 46.2824C41.0259 49.9306 37.4195 54.6326 35.0785 59.9836C32.7375 65.3347 31.7319 71.1745 32.1484 77.0004C32.5649 82.8263 34.3909 88.4637 37.4693 93.4273C40.5477 98.391 44.7863 102.532 49.8201 105.494C54.8539 108.457 60.5322 110.151 66.3662 110.432C72.2002 110.713 78.0151 109.572 83.3103 107.107L81.8827 104.049C77.4499 106.115 72.6099 107.159 67.7199 107.104C62.8298 107.05 58.0144 105.898 53.6287 103.734C49.2431 101.57 45.3992 98.4497 42.3805 94.6022C39.3619 90.7547 37.2455 86.2786 36.1874 81.504C35.1294 76.7295 35.1567 71.7783 36.2674 67.0157C37.3781 62.2532 39.5438 57.8007 42.6048 53.9867C45.6657 50.1728 49.5439 47.0946 53.9531 44.9794C58.3624 42.8641 63.1902 41.7657 68.0806 41.7652Z" fill="#3E61EE"/>
<path d="M6.33803 113.482L5.59721 113.95C5.40636 114.067 5.24062 114.22 5.10962 114.401C4.97863 114.583 4.88499 114.788 4.83417 115.006C4.78334 115.224 4.77634 115.45 4.81357 115.67C4.8508 115.891 4.93152 116.102 5.05102 116.291C5.17053 116.48 5.32645 116.644 5.5097 116.772C5.69296 116.9 5.89989 116.991 6.11848 117.038C6.33706 117.086 6.56292 117.09 6.78293 117.049C7.00294 117.009 7.21271 116.925 7.40003 116.803L8.14084 116.334C8.32819 116.216 8.49039 116.062 8.61818 115.881C8.74596 115.7 8.83684 115.495 8.88561 115.279C8.93438 115.063 8.9401 114.839 8.90243 114.621C8.86476 114.403 8.78445 114.194 8.66607 114.006C8.5477 113.819 8.39358 113.657 8.21252 113.529C8.03147 113.401 7.82701 113.31 7.61083 113.262C7.39465 113.213 7.17098 113.207 6.95259 113.245C6.73421 113.282 6.52538 113.363 6.33803 113.481V113.482Z" fill="#3E61EE"/>
<path d="M15.3464 107.792L10.9966 110.539C10.808 110.656 10.6446 110.81 10.5157 110.991C10.3868 111.173 10.295 111.377 10.2455 111.594C10.196 111.811 10.1898 112.035 10.2273 112.254C10.2648 112.474 10.3452 112.683 10.464 112.871C10.5827 113.059 10.7374 113.222 10.9192 113.35C11.101 113.478 11.3063 113.569 11.5233 113.617C11.7403 113.665 11.9647 113.67 12.1837 113.632C12.4026 113.593 12.6118 113.512 12.7991 113.392L17.1475 110.646C17.3361 110.528 17.4995 110.374 17.6284 110.193C17.7573 110.012 17.8491 109.807 17.8986 109.59C17.9481 109.373 17.9543 109.149 17.9168 108.93C17.8793 108.711 17.7989 108.501 17.6801 108.313C17.5614 108.125 17.4067 107.962 17.2249 107.834C17.0431 107.707 16.8378 107.616 16.6208 107.567C16.4038 107.519 16.1794 107.514 15.9605 107.552C15.7415 107.591 15.5323 107.673 15.345 107.792H15.3464Z" fill="#3E61EE"/>
<path d="M68.0625 136.663C67.6149 136.663 67.1857 136.84 66.8693 137.157C66.5528 137.473 66.375 137.903 66.375 138.35V139.091C66.375 139.538 66.5528 139.967 66.8693 140.284C67.1857 140.6 67.6149 140.778 68.0625 140.778C68.5101 140.778 68.9393 140.6 69.2557 140.284C69.5722 139.967 69.75 139.538 69.75 139.091V138.35C69.75 137.903 69.5722 137.473 69.2557 137.157C68.9393 136.84 68.5101 136.663 68.0625 136.663Z" fill="#3E61EE"/>
<path d="M99.3009 129.359C99.1952 129.161 99.0511 128.986 98.877 128.844C98.7029 128.703 98.5023 128.597 98.2871 128.534C98.0718 128.471 97.846 128.452 97.6231 128.477C97.4002 128.502 97.1845 128.572 96.9887 128.681C96.7929 128.791 96.6209 128.938 96.4828 129.115C96.3446 129.292 96.2432 129.494 96.1842 129.711C96.1253 129.927 96.1102 130.153 96.1396 130.376C96.1691 130.598 96.2426 130.812 96.3559 131.006L97.0706 132.284C97.177 132.481 97.3214 132.654 97.4954 132.795C97.6694 132.935 97.8696 133.039 98.0842 133.102C98.2989 133.164 98.5238 133.183 98.7458 133.158C98.9679 133.132 99.1827 133.063 99.3778 132.954C99.573 132.845 99.7445 132.698 99.8824 132.522C100.02 132.347 100.122 132.145 100.181 131.93C100.241 131.714 100.257 131.489 100.228 131.267C100.2 131.046 100.128 130.832 100.016 130.638L99.3009 129.359Z" fill="#3E61EE"/>
<path d="M83.1 11.9388C83.3153 11.9917 83.5389 12.0015 83.7581 11.9678C83.9772 11.9341 84.1875 11.8575 84.377 11.7424C84.5664 11.6272 84.7313 11.4758 84.8621 11.2968C84.9929 11.1178 85.0871 10.9148 85.1393 10.6993L86.3251 5.83788C86.4311 5.40304 86.3601 4.9439 86.1276 4.56145C85.8951 4.17899 85.5202 3.90457 85.0853 3.79853C84.6505 3.6925 84.1913 3.76355 83.8089 3.99605C83.4264 4.22855 83.152 4.60345 83.046 5.03828L81.8605 9.89969C81.7545 10.3344 81.8256 10.7935 82.058 11.1759C82.2904 11.5583 82.6653 11.8327 83.1 11.9388Z" fill="#3E61EE"/>
<path d="M33.7821 136.626C33.595 136.507 33.3863 136.427 33.168 136.388C32.9497 136.35 32.726 136.356 32.5097 136.404C32.2935 136.452 32.0888 136.543 31.9075 136.67C31.7262 136.798 31.5718 136.959 31.453 137.147L30.584 138.516C30.4652 138.703 30.3845 138.912 30.3464 139.13C30.3083 139.348 30.3136 139.572 30.3619 139.788C30.4103 140.005 30.5008 140.209 30.6282 140.391C30.7557 140.572 30.9176 140.726 31.1047 140.845C31.2918 140.964 31.5005 141.045 31.7188 141.083C31.9372 141.121 32.1609 141.116 32.3771 141.067C32.5934 141.019 32.7981 140.928 32.9794 140.801C33.1607 140.673 33.3151 140.512 33.4339 140.324L34.3029 138.955C34.4217 138.768 34.5024 138.559 34.5405 138.341C34.5785 138.123 34.5732 137.899 34.5249 137.683C34.4765 137.466 34.386 137.262 34.2586 137.08C34.1311 136.899 33.9692 136.745 33.7821 136.626Z" fill="#3E61EE"/>
<path d="M38.1622 129.724C37.7843 129.484 37.3267 129.404 36.89 129.502C36.4533 129.599 36.0732 129.866 35.8334 130.244L34.2584 132.727C34.1381 132.914 34.056 133.123 34.0167 133.342C33.9775 133.561 33.9819 133.786 34.0297 134.003C34.0776 134.22 34.1679 134.426 34.2956 134.608C34.4232 134.79 34.5856 134.946 34.7734 135.065C34.9612 135.184 35.1707 135.265 35.3899 135.303C35.6091 135.341 35.8336 135.335 36.0505 135.286C36.2675 135.237 36.4726 135.145 36.654 135.016C36.8355 134.888 36.9897 134.724 37.1078 134.536L38.6828 132.053C38.8015 131.865 38.8822 131.657 38.9204 131.438C38.9585 131.22 38.9532 130.996 38.9048 130.78C38.8565 130.564 38.766 130.359 38.6386 130.178C38.5112 129.997 38.3493 129.842 38.1622 129.724Z" fill="#3E61EE"/>
<path d="M20.4898 22.5092C20.6393 22.6742 20.8199 22.8079 21.0213 22.9028C21.2226 22.9976 21.4408 23.0517 21.6631 23.0619C21.8855 23.0721 22.1077 23.0381 22.3169 22.9621C22.5261 22.886 22.7181 22.7693 22.8821 22.6187C23.046 22.4681 23.1784 22.2866 23.2719 22.0846C23.3653 21.8825 23.4179 21.664 23.4265 21.4416C23.4352 21.2192 23.3997 20.9972 23.3222 20.7886C23.2447 20.5799 23.1267 20.3886 22.9749 20.2258L21.2278 18.3242C20.9241 17.9983 20.5038 17.8057 20.0586 17.7884C19.6134 17.7711 19.1795 17.9306 18.8514 18.232C18.5233 18.5335 18.3278 18.9524 18.3074 19.3975C18.2871 19.8425 18.4435 20.2776 18.7427 20.6077L20.4898 22.5092Z" fill="#3E61EE"/>
<path d="M5.73198 51.1513C6.12305 51.1516 6.50206 51.016 6.80425 50.7678C7.10643 50.5196 7.31303 50.1741 7.38872 49.7904C7.46441 49.4068 7.4045 49.0087 7.21922 48.6643C7.03395 48.3199 6.73482 48.0506 6.37295 47.9023L3.73426 46.8198C3.52841 46.7308 3.30687 46.6837 3.0826 46.6812C2.85834 46.6788 2.63584 46.7212 2.42811 46.8057C2.22039 46.8903 2.03161 47.0154 1.87281 47.1738C1.71401 47.3322 1.58837 47.5206 1.50324 47.7281C1.41811 47.9356 1.3752 48.158 1.37701 48.3823C1.37882 48.6066 1.42532 48.8282 1.51379 49.0343C1.60226 49.2404 1.73093 49.4268 1.89227 49.5826C2.05361 49.7384 2.24439 49.8604 2.45345 49.9417L5.09186 51.0242C5.29485 51.1081 5.51234 51.1512 5.73198 51.1513Z" fill="#3E61EE"/>
<path d="M102.086 31.4927C79.7507 31.4927 61.5791 49.664 61.5791 71.9997C61.5791 94.3355 79.7507 112.507 102.086 112.507C124.422 112.507 142.593 94.3355 142.593 71.9997C142.593 49.664 124.422 31.4927 102.086 31.4927ZM113.059 36.5228C112.713 38.13 111.785 39.5525 110.453 40.5162C109.121 41.4799 107.48 41.9168 105.845 41.7427C104.21 41.5687 102.698 40.7959 101.599 39.5734C100.5 38.3508 99.8916 36.7648 99.8918 35.1208C99.8918 35.0586 99.8949 34.9962 99.8963 34.9338C100.621 34.8916 101.351 34.8677 102.086 34.8677C105.806 34.8648 109.506 35.4228 113.059 36.5228ZM65.0399 74.4958C65.98 74.0027 67.0193 73.7285 68.0803 73.6935C69.1413 73.6586 70.1965 73.8639 71.167 74.2941C72.1375 74.7242 72.9982 75.3681 73.6849 76.1777C74.3715 76.9873 74.8664 77.9415 75.1324 78.9692C75.3984 79.9969 75.4288 81.0714 75.2212 82.1125C75.0136 83.1535 74.5734 84.1342 73.9335 84.9813C73.2937 85.8283 72.4706 86.5198 71.526 87.004C70.5813 87.4883 69.5394 87.7528 68.4782 87.7778C66.5107 83.6048 65.3444 79.0993 65.0399 74.4958ZM102.086 109.132C95.653 109.128 89.3307 107.454 83.7388 104.272C78.1469 101.091 73.477 96.5124 70.1865 90.9841C71.5959 90.7272 72.9372 90.1824 74.1266 89.3838C75.3161 88.5852 76.328 87.5499 77.0993 86.3425C77.8706 85.1352 78.3846 83.7818 78.6093 82.3669C78.834 80.952 78.7645 79.5059 78.4052 78.119C78.0458 76.7322 77.4044 75.4343 76.5208 74.3065C75.6373 73.1787 74.5308 72.2452 73.2702 71.5644C72.0097 70.8835 70.6223 70.4699 69.1948 70.3493C67.7672 70.2288 66.3301 70.4039 64.9732 70.8637C65.5191 52.7903 79.0419 37.9232 96.521 35.2856C96.56 37.7089 97.475 40.0362 99.0968 41.8372C100.719 43.6382 102.938 44.7912 105.343 45.0831C107.749 45.375 110.18 44.786 112.185 43.425C114.191 42.064 115.635 40.023 116.253 37.6793C124.647 41.1678 131.482 47.5975 135.476 55.7637C135.345 55.7589 135.214 55.7544 135.082 55.7544C133.543 55.7543 132.023 56.095 130.631 56.752C129.24 57.409 128.011 58.366 127.033 59.5543C126.055 60.7426 125.353 62.1327 124.976 63.6248C124.599 65.1169 124.558 66.6738 124.854 68.1839C125.151 69.694 125.778 71.1197 126.691 72.3586C127.603 73.5975 128.779 74.6189 130.134 75.3494C131.488 76.0799 132.988 76.5014 134.524 76.5836C136.061 76.6657 137.597 76.4066 139.022 75.8247C137.102 94.5087 121.27 109.132 102.086 109.132ZM139.217 71.8807C138.25 72.5815 137.12 73.0249 135.935 73.1693C134.749 73.3137 133.546 73.1543 132.439 72.7062C131.332 72.258 130.357 71.5358 129.606 70.6073C128.854 69.6789 128.351 68.5747 128.144 67.3985C127.937 66.2222 128.032 65.0126 128.42 63.8832C128.809 62.7538 129.478 61.7417 130.365 60.9419C131.252 60.1422 132.328 59.5811 133.491 59.3113C134.655 59.0415 135.868 59.072 137.016 59.3997C138.463 63.4023 139.207 67.6247 139.217 71.8807Z" fill="#968B82"/>
<path d="M104.998 63.9072C103.551 63.9072 102.136 64.3363 100.933 65.1403C99.7301 65.9442 98.7923 67.0869 98.2386 68.4239C97.6848 69.7608 97.5399 71.2319 97.8222 72.6511C98.1046 74.0704 98.8014 75.3741 99.8247 76.3973C100.848 77.4205 102.152 78.1173 103.571 78.3996C104.99 78.6818 106.461 78.5369 107.798 77.9831C109.135 77.4293 110.278 76.4915 111.082 75.2883C111.886 74.085 112.315 72.6705 112.315 71.2234C112.312 69.2837 111.541 67.424 110.169 66.0524C108.797 64.6809 106.938 63.9094 104.998 63.9072ZM104.998 75.1648C104.219 75.1648 103.457 74.9337 102.808 74.5006C102.16 74.0675 101.655 73.4519 101.357 72.7317C101.058 72.0115 100.98 71.219 101.132 70.4545C101.284 69.6899 101.66 68.9876 102.211 68.4364C102.762 67.8851 103.465 67.5098 104.229 67.3577C104.994 67.2056 105.786 67.2837 106.506 67.582C107.227 67.8803 107.842 68.3855 108.275 69.0336C108.708 69.6818 108.94 70.4438 108.94 71.2234C108.938 72.2684 108.523 73.2702 107.784 74.0091C107.045 74.748 106.043 75.1636 104.998 75.1648Z" fill="#968B82"/>
<path d="M119.167 91.0811C118.066 91.0811 116.989 91.4077 116.074 92.0196C115.158 92.6315 114.444 93.5012 114.023 94.5187C113.601 95.5363 113.491 96.656 113.706 97.7362C113.921 98.8165 114.451 99.8087 115.23 100.588C116.008 101.366 117.001 101.897 118.081 102.112C119.161 102.326 120.281 102.216 121.298 101.795C122.316 101.373 123.186 100.659 123.798 99.7436C124.41 98.8279 124.736 97.7512 124.736 96.6498C124.734 95.1735 124.147 93.7581 123.103 92.7142C122.059 91.6702 120.644 91.0829 119.167 91.0811ZM119.167 98.845C118.734 98.845 118.309 98.7163 117.949 98.4753C117.588 98.2342 117.307 97.8916 117.141 97.4907C116.975 97.0899 116.931 96.6488 117.016 96.2232C117.1 95.7977 117.309 95.4068 117.616 95.1C117.923 94.7932 118.314 94.5843 118.739 94.4996C119.165 94.415 119.606 94.4584 120.007 94.6245C120.408 94.7905 120.75 95.0717 120.991 95.4324C121.232 95.7932 121.361 96.2173 121.361 96.6512C121.36 97.2328 121.129 97.7903 120.718 98.2015C120.306 98.6128 119.749 98.8442 119.167 98.845Z" fill="#968B82"/>
<path d="M90.2471 98.3857C91.9557 98.3857 93.3408 97.0006 93.3408 95.292C93.3408 93.5834 91.9557 92.1982 90.2471 92.1982C88.5384 92.1982 87.1533 93.5834 87.1533 95.292C87.1533 97.0006 88.5384 98.3857 90.2471 98.3857Z" fill="#968B82"/>
<path d="M91.5467 53.5605C91.5467 52.4591 91.2201 51.3824 90.6082 50.4666C89.9963 49.5508 89.1266 48.8371 88.109 48.4156C87.0914 47.9941 85.9718 47.8838 84.8915 48.0987C83.8113 48.3136 82.819 48.8439 82.0402 49.6228C81.2614 50.4016 80.7311 51.3938 80.5162 52.474C80.3013 53.5543 80.4116 54.674 80.8331 55.6915C81.2546 56.7091 81.9683 57.5788 82.8841 58.1907C83.7999 58.8026 84.8765 59.1292 85.9779 59.1292C87.4543 59.1273 88.8696 58.5399 89.9135 57.496C90.9574 56.4521 91.5447 55.0368 91.5467 53.5605ZM85.9779 55.7542C85.544 55.7542 85.1199 55.6255 84.7591 55.3845C84.3984 55.1434 84.1172 54.8008 83.9512 54.4C83.7851 53.9991 83.7417 53.558 83.8263 53.1325C83.911 52.7069 84.1199 52.316 84.4267 52.0092C84.7335 51.7024 85.1244 51.4935 85.5499 51.4089C85.9755 51.3242 86.4166 51.3676 86.8174 51.5337C87.2183 51.6997 87.5609 51.9809 87.802 52.3417C88.043 52.7024 88.1717 53.1266 88.1717 53.5605C88.171 54.1425 87.9394 54.7004 87.5277 55.1118C87.1161 55.5232 86.558 55.7545 85.976 55.7548L85.9779 55.7542Z" fill="#968B82"/>
</svg>
