<svg viewBox="0 0 144 144" fill="none" xmlns="http://www.w3.org/2000/svg">
<path d="M20.5785 94.7335C7.68885 63.1435 22.9045 26.9579 54.4917 14.0682C60.5764 11.5805 67.0198 10.0823 73.5779 9.63032C64.1845 8.98314 54.768 10.5014 46.0542 14.0682C14.467 26.9579 -0.74865 63.1435 12.141 94.7335C16.5853 105.66 24.076 115.079 33.7214 121.868C34.616 120.307 35.9903 119.076 37.6403 118.358C30.143 111.963 24.2915 103.861 20.5785 94.7335Z" fill="#3E61EE" fill-opacity="0.2"/>
<path d="M127.998 95.9812C131.259 88.2958 132.964 80.0399 133.013 71.6913C133.061 63.3428 131.454 55.0675 128.283 47.3444C115.042 14.8938 77.8696 -0.735292 45.4181 12.5051C12.9666 25.7455 -2.66214 62.9189 10.5785 95.3701C15.1469 106.594 22.8422 116.27 32.7495 123.247C32.9305 123.377 33.1354 123.469 33.3524 123.519C33.5694 123.569 33.7941 123.576 34.0136 123.539C34.2331 123.501 34.4431 123.421 34.6314 123.302C34.8198 123.184 34.9828 123.029 35.111 122.847C35.2393 122.665 35.3303 122.459 35.3787 122.242C35.4271 122.025 35.4321 121.8 35.3933 121.581C35.3545 121.361 35.2726 121.152 35.1525 120.964C35.0324 120.777 34.8764 120.615 34.6935 120.488C25.3139 113.882 18.0286 104.721 13.7038 94.0952C1.16567 63.3672 15.965 28.1676 46.693 15.6301C77.421 3.09252 112.621 17.8913 125.158 48.6207C129.552 59.3751 130.738 71.1718 128.573 82.5857C126.408 93.9996 120.984 104.542 112.957 112.941C104.93 121.339 94.6426 127.233 83.338 129.911C72.0334 132.589 60.1953 131.936 49.2535 128.032C49.0436 127.952 48.8199 127.915 48.5956 127.923C48.3712 127.931 48.1506 127.983 47.9467 128.077C47.7428 128.172 47.5598 128.305 47.4083 128.471C47.2569 128.637 47.14 128.831 47.0645 129.043C46.9891 129.254 46.9566 129.479 46.969 129.703C46.9814 129.927 47.0384 130.146 47.1367 130.348C47.2349 130.55 47.3725 130.73 47.5413 130.878C47.7102 131.026 47.9068 131.139 48.1198 131.21C63.4134 136.675 80.2202 136.068 95.0798 129.515C109.939 122.961 121.721 110.96 127.998 95.9812Z" fill="#3E61EE"/>
<path d="M27.5733 88.4357C34.7171 105.943 51.6517 116.566 69.488 116.565C75.3254 116.563 81.1067 115.425 86.5093 113.214C109.589 103.797 120.705 77.3586 111.287 54.2787C107.382 44.7425 100.342 36.8232 91.3288 31.8285C91.1346 31.7163 90.9199 31.6439 90.6974 31.6155C90.4749 31.5872 90.249 31.6036 90.0329 31.6636C89.8167 31.7236 89.6148 31.8261 89.4387 31.9651C89.2626 32.1041 89.1161 32.2768 89.0075 32.4731C88.899 32.6694 88.8307 32.8853 88.8066 33.1083C88.7825 33.3314 88.8032 33.5569 88.8673 33.7719C88.9314 33.9868 89.0377 34.1868 89.18 34.3602C89.3223 34.5336 89.4978 34.6768 89.6961 34.7816C94.4885 37.4368 98.7131 41.007 102.13 45.2897L92.2887 52.4348C88.7921 48.1982 84.1889 45.0143 78.9911 43.2372C73.7932 41.4602 68.2044 41.1596 62.8459 42.3688C57.4874 43.5781 52.5693 46.2498 48.6384 50.0869C44.7076 53.9241 41.9179 58.7763 40.5797 64.104C39.2415 69.4317 39.4072 75.0262 41.0583 80.2654C42.7094 85.5047 45.7812 90.1833 49.9323 93.7811C54.0833 97.3789 59.1509 99.755 64.5715 100.645C69.9922 101.535 75.5535 100.904 80.637 98.8228C80.801 98.7559 80.963 98.6858 81.1253 98.6164L85.9721 109.777C85.7271 109.882 85.4819 109.988 85.2341 110.089C80.1477 112.164 74.7022 113.218 69.2087 113.189C63.7152 113.16 58.2811 112.049 53.2169 109.92C48.1527 107.791 43.5576 104.685 39.6938 100.779C35.83 96.8741 32.7733 92.246 30.6983 87.1594C21.9846 65.8038 32.2702 41.339 53.6272 32.625C58.4881 30.633 63.6829 29.5816 68.9359 29.5265C69.3835 29.5217 69.8108 29.3394 70.1239 29.0196C70.4371 28.6998 70.6103 28.2687 70.6056 27.8211C70.6008 27.3735 70.4185 26.9462 70.0987 26.6331C69.7789 26.32 69.3478 26.1467 68.9002 26.1515C63.2221 26.2107 57.6068 27.3469 52.3523 29.4997C29.2721 38.9171 18.1565 65.3555 27.5733 88.4357ZM84.1532 97.1156C89.952 93.8241 94.4595 88.659 96.9358 82.4681C97.1036 82.0531 97.0997 81.5885 96.9249 81.1763C96.7502 80.7642 96.4188 80.4384 96.0038 80.2706C95.5888 80.1027 95.1242 80.1066 94.7121 80.2814C94.2999 80.4562 93.9741 80.7875 93.8063 81.2025C91.6589 86.5708 87.7865 91.0721 82.7993 93.9974L77.4325 81.6393L74.3368 82.9837L79.7792 95.5164C79.6386 95.5761 79.5036 95.641 79.3627 95.6984C74.8726 97.5275 69.9641 98.079 65.1801 97.2919C60.3961 96.5049 55.923 94.4099 52.2556 91.2387C48.5881 88.0675 45.8693 83.9437 44.3999 79.3234C42.9304 74.7031 42.7675 69.7664 43.9293 65.0593C45.091 60.3522 47.5321 56.0582 50.9825 52.6521C54.4329 49.2461 58.7582 46.8608 63.4799 45.7601C68.2017 44.6594 73.1359 44.8862 77.7367 46.4154C82.3376 47.9445 86.4258 50.7165 89.5493 54.4247L78.4171 62.5072L80.4002 65.2382L91.5484 57.1444C92.418 58.5009 93.1624 59.9338 93.7723 61.4253C95.35 65.2578 95.989 69.412 95.6358 73.5415C95.5983 73.9875 95.7394 74.4302 96.0283 74.7722C96.3171 75.1141 96.7299 75.3273 97.1759 75.3649C97.622 75.4024 98.0647 75.2613 98.4066 74.9724C98.7485 74.6836 98.9617 74.2708 98.9993 73.8247C99.3984 69.1643 98.6779 64.4759 96.8978 60.1504C96.1863 58.4075 95.312 56.7356 94.2867 55.1568L104.13 48.0099C105.731 50.3791 107.082 52.9071 108.164 55.5536C116.346 75.6067 107.777 98.3987 89.0205 108.321L84.1532 97.1156Z" fill="#3E61EE"/>
<path d="M96.5066 30.5629C96.8514 30.7086 97.2219 30.7839 97.5962 30.7843C97.9485 30.7838 98.297 30.7124 98.6211 30.5742C99.3039 30.2841 99.8447 29.7365 100.126 29.0501C100.408 28.3638 100.407 27.5941 100.125 26.9081C99.9213 26.3943 99.5687 25.9531 99.1124 25.6413C98.6561 25.3295 98.117 25.1613 97.5644 25.1582C97.0117 25.1552 96.4708 25.3175 96.0111 25.6244C95.5514 25.9312 95.194 26.3684 94.9848 26.88C94.6992 27.5702 94.6991 28.3456 94.9844 29.0359C95.2697 29.7263 95.8171 30.2754 96.5066 30.5627V30.5629ZM98.1151 28.1883C98.072 28.2909 97.9994 28.3783 97.9066 28.4396C97.8138 28.5009 97.7049 28.5333 97.5937 28.5328C97.4825 28.5322 97.3739 28.4986 97.2818 28.4364C97.1896 28.3741 97.1179 28.286 97.0759 28.183L98.1165 27.7578C98.1727 27.8959 98.1722 28.0506 98.1151 28.1883ZM97.3839 27.4492C97.5219 27.3933 97.6764 27.3941 97.8139 27.4515C97.9511 27.5097 98.0598 27.6196 98.1165 27.7575L97.0759 28.1822C97.0198 28.0441 97.0208 27.8895 97.0787 27.7522C97.1365 27.6149 97.2465 27.5061 97.3844 27.4498L97.3839 27.4492Z" fill="#3E61EE"/>
<path d="M67.6167 19.2279C68.0365 19.4044 68.5045 19.43 68.941 19.3002C69.3775 19.1704 69.7556 18.8933 70.0107 18.516C70.2658 18.1388 70.3823 17.6848 70.3402 17.2313C70.2982 16.7778 70.1002 16.353 69.7801 16.0291C69.4599 15.7052 69.0374 15.5023 68.5844 15.455C68.1315 15.4077 67.6761 15.5189 67.296 15.7696C66.9158 16.0203 66.6343 16.3951 66.4994 16.8301C66.3646 17.2651 66.3847 17.7334 66.5564 18.1552C66.6537 18.3951 66.7974 18.6133 66.9794 18.7974C67.1614 18.9815 67.378 19.1278 67.6167 19.2279Z" fill="#3E61EE"/>
<path d="M103.805 74.0454C104.04 74.0455 104.273 73.9995 104.491 73.9101C104.939 73.7272 105.297 73.3741 105.485 72.9282C105.674 72.4822 105.678 71.9798 105.497 71.5308L105.495 71.5248C105.369 71.2181 105.162 70.9512 104.897 70.7528C104.631 70.5544 104.317 70.4319 103.987 70.3985C103.657 70.365 103.325 70.4219 103.025 70.563C102.725 70.704 102.469 70.924 102.284 71.1993C102.1 71.4746 101.993 71.795 101.977 72.126C101.96 72.4571 102.034 72.7864 102.19 73.0788C102.347 73.3711 102.579 73.6155 102.864 73.7858C103.148 73.9561 103.473 74.0458 103.805 74.0454Z" fill="#3E61EE"/>
<path d="M123.902 115.744C123.143 116.65 122.343 117.546 121.53 118.407C121.222 118.732 121.057 119.166 121.069 119.613C121.082 120.061 121.271 120.485 121.596 120.792C121.922 121.1 122.356 121.265 122.803 121.253C123.25 121.24 123.674 121.051 123.982 120.726C124.841 119.817 125.684 118.869 126.488 117.913C126.775 117.57 126.915 117.127 126.876 116.681C126.837 116.235 126.623 115.823 126.28 115.535C125.937 115.248 125.494 115.108 125.048 115.147C124.602 115.186 124.19 115.401 123.902 115.743V115.744Z" fill="#3E61EE"/>
<path d="M129.825 110.589C130.207 110.822 130.667 110.892 131.101 110.786C131.536 110.68 131.911 110.405 132.143 110.023C136.106 103.504 138.869 96.3266 140.299 88.8324C140.344 88.6135 140.345 88.3879 140.302 88.1686C140.259 87.9493 140.173 87.7408 140.048 87.5551C139.924 87.3694 139.764 87.2102 139.578 87.0868C139.392 86.9634 139.183 86.8783 138.963 86.8362C138.744 86.7942 138.518 86.7962 138.3 86.8421C138.081 86.888 137.873 86.9768 137.689 87.1035C137.505 87.2302 137.348 87.3922 137.227 87.58C137.106 87.7679 137.024 87.9779 136.985 88.1979C135.63 95.297 133.013 102.096 129.258 108.271C129.143 108.46 129.066 108.671 129.032 108.89C128.999 109.109 129.008 109.332 129.061 109.548C129.114 109.763 129.208 109.966 129.339 110.144C129.47 110.323 129.635 110.474 129.825 110.589Z" fill="#3E61EE"/>
<path d="M27.9172 15.1214C28.2359 15.1213 28.548 15.0307 28.8172 14.8601C29.9113 14.1688 31.0427 13.5045 32.181 12.8852C32.3772 12.7801 32.5507 12.6373 32.6915 12.4649C32.8323 12.2925 32.9376 12.0939 33.0013 11.8807C33.065 11.6674 33.0859 11.4437 33.0628 11.2223C33.0397 11.0009 32.9731 10.7863 32.8667 10.5908C32.7603 10.3953 32.6163 10.2228 32.4429 10.0832C32.2696 9.94358 32.0703 9.83965 31.8566 9.77737C31.643 9.71509 31.4191 9.6957 31.1978 9.72031C30.9766 9.74492 30.7625 9.81305 30.5677 9.92078C29.3657 10.575 28.1701 11.2767 27.0144 12.0068C26.7049 12.2021 26.4673 12.4928 26.3374 12.835C26.2075 13.1772 26.1924 13.5523 26.2943 13.9038C26.3962 14.2553 26.6097 14.5642 26.9025 14.7838C27.1952 15.0034 27.5515 15.1219 27.9175 15.1214H27.9172Z" fill="#3E61EE"/>
<path d="M4.62121 40.2383C5.0239 40.4335 5.48764 40.4608 5.91043 40.3141C6.33322 40.1674 6.68044 39.8588 6.87571 39.4562C10.4923 31.9608 15.6323 25.3021 21.9673 19.9051C22.1375 19.7618 22.2777 19.5862 22.3798 19.3885C22.4818 19.1908 22.5438 18.9749 22.5621 18.7531C22.5804 18.5314 22.5547 18.3082 22.4864 18.0964C22.4182 17.8847 22.3087 17.6885 22.1643 17.5192C22.0199 17.3499 21.8435 17.2108 21.6451 17.11C21.4468 17.0092 21.2305 16.9485 21.0086 16.9316C20.7867 16.9147 20.5637 16.9419 20.3524 17.0115C20.1411 17.0811 19.9456 17.1918 19.7772 17.3373C13.0868 23.0364 7.65857 30.0682 3.83905 37.9835C3.74235 38.183 3.68587 38.3995 3.67284 38.6207C3.65981 38.8419 3.69049 39.0636 3.76312 39.2729C3.83575 39.4823 3.94891 39.6753 4.09614 39.841C4.24338 40.0066 4.42179 40.1416 4.62121 40.2383Z" fill="#3E61EE"/>
<path d="M69.4499 85.7012C72.5231 85.6972 75.5138 84.7064 77.9814 82.8746C80.449 81.0428 82.263 78.4669 83.1562 75.5263C84.0494 72.5858 83.9746 69.4361 82.9427 66.5413C81.9108 63.6466 79.9765 61.1597 77.4247 59.4472C74.8729 57.7346 71.8385 56.887 68.7686 57.029C65.6987 57.1711 62.7556 58.2954 60.3728 60.2362C57.9901 62.1771 56.2937 64.832 55.5336 67.8097C54.7734 70.7874 54.9898 73.9305 56.1507 76.776C57.2202 79.4234 59.0592 81.6892 61.4301 83.2803C63.801 84.8714 66.5947 85.7147 69.4499 85.7012ZM59.3201 67.1063C60.3036 64.767 62.0678 62.841 64.3121 61.6565C66.5563 60.472 69.1419 60.1024 71.6282 60.6106C74.1145 61.1187 76.3476 62.4732 77.9472 64.4433C79.5467 66.4134 80.4137 68.8772 80.4003 71.4148C80.387 73.9525 79.4941 76.407 77.874 78.3601C76.2538 80.3133 74.0065 81.6442 71.515 82.1262C69.0235 82.6082 66.442 82.2114 64.2103 81.0034C61.9786 79.7954 60.2348 77.8509 59.276 75.5013C58.7279 74.1686 58.4497 72.7404 58.4572 71.2994C58.4648 69.8584 58.7581 68.4332 59.3201 67.1063Z" fill="#968B82"/>
<path d="M98.9765 72.4098C97.7168 71.8803 96.3125 71.8038 95.0029 72.1936C93.6932 72.5833 92.5592 73.4151 91.794 74.5473C91.0289 75.6794 90.68 77.0418 90.8067 78.4024C90.9335 79.7629 91.5281 81.0374 92.4892 82.0087C93.4503 82.98 94.7184 83.588 96.0776 83.7292C97.4367 83.8703 98.8027 83.5358 99.9429 82.7826C101.083 82.0295 101.927 80.9043 102.33 79.5988C102.734 78.2933 102.672 76.8883 102.156 75.6231C101.865 74.9038 101.434 74.2495 100.888 73.6979C100.342 73.1463 99.6927 72.7085 98.9765 72.4098ZM99.0206 78.8353C98.7937 79.3751 98.3866 79.8196 97.8687 80.0929C97.3508 80.3662 96.7541 80.4515 96.1804 80.3343C95.6066 80.217 95.0913 79.9044 94.7222 79.4498C94.353 78.9952 94.1529 78.4267 94.156 77.8411C94.1591 77.2555 94.3651 76.689 94.7389 76.2383C95.1128 75.7876 95.6314 75.4804 96.2063 75.3691C96.7813 75.2579 97.377 75.3494 97.892 75.6281C98.407 75.9069 98.8095 76.3556 99.0308 76.8977C99.1572 77.2051 99.2214 77.5346 99.2197 77.867C99.218 78.1993 99.1503 78.5281 99.0206 78.8341V78.8353Z" fill="#968B82"/>
<path d="M77.2736 35.7718C78.8333 36.4272 80.5719 36.5215 82.1933 36.0387C83.8147 35.5559 85.2186 34.5258 86.1657 33.124C87.1127 31.7222 87.5445 30.0354 87.3873 28.3509C87.2302 26.6665 86.4938 25.0887 85.3037 23.8863C84.1137 22.6839 82.5435 21.9313 80.8608 21.7568C79.178 21.5823 77.4868 21.9966 76.0754 22.9292C74.6639 23.8618 73.6194 25.255 73.1199 26.8713C72.6204 28.4876 72.6968 30.2272 73.3361 31.7935C73.6981 32.6832 74.2323 33.4927 74.9081 34.1754C75.5838 34.8581 76.3877 35.4006 77.2736 35.7718ZM78.62 25.3852C79.341 25.091 80.1331 25.0172 80.8961 25.1732C81.6591 25.3291 82.3587 25.7078 82.9064 26.2614C83.4542 26.8149 83.8255 27.5185 83.9734 28.2831C84.1213 29.0477 84.0392 29.8389 83.7374 30.5568C83.4356 31.2747 82.9277 31.887 82.2779 32.3163C81.6281 32.7455 80.8656 32.9724 80.0869 32.9683C79.3081 32.9642 78.5481 32.7293 77.9028 32.2933C77.2576 31.8572 76.7562 31.2396 76.4619 30.5186C76.2641 30.0401 76.1631 29.5272 76.1647 29.0094C76.1662 28.4917 76.2703 27.9794 76.471 27.5021C76.6716 27.0248 76.9648 26.592 77.3337 26.2286C77.7025 25.8653 78.1397 25.5787 78.62 25.3852Z" fill="#968B82"/>
<path d="M80.124 41.9688C82.8959 41.9652 85.5934 41.0715 87.819 39.4192C90.0447 37.767 91.6809 35.4436 92.4865 32.7913C93.2921 30.1391 93.2246 27.2982 92.2938 24.6872C91.3631 22.0762 89.6184 19.8332 87.3167 18.2886C85.0151 16.744 82.2782 15.9794 79.5092 16.1076C76.7403 16.2358 74.0857 17.2499 71.9366 19.0005C69.7874 20.7511 68.2574 23.1457 67.5718 25.8315C66.8863 28.5173 67.0815 31.3523 68.1287 33.9188C69.093 36.3068 70.7517 38.3506 72.8902 39.7857C75.0287 41.2208 77.5486 41.9813 80.124 41.9688ZM76.4958 20.1772C78.247 19.4626 80.1706 19.2834 82.0236 19.6621C83.8766 20.0408 85.5757 20.9605 86.906 22.3048C88.2363 23.6492 89.1381 25.3578 89.4973 27.2147C89.8565 29.0716 89.657 30.9933 88.9241 32.7368C88.1911 34.4803 86.9576 35.9673 85.3795 37.0097C83.8014 38.0522 81.9497 38.6032 80.0584 38.5933C78.1672 38.5833 76.3213 38.0127 74.7543 36.9537C73.1873 35.8947 71.9696 34.3948 71.255 32.6436C70.7741 31.4818 70.5283 30.2361 70.5317 28.9787C70.5351 27.7212 70.7878 26.4769 71.275 25.3177C71.7622 24.1584 72.4744 23.1073 73.3703 22.225C74.2663 21.3426 75.3282 20.6466 76.4947 20.1772H76.4958Z" fill="#968B82"/>
<path d="M37.1072 135.413C39.2666 136.321 41.674 136.452 43.9192 135.784C46.1643 135.115 48.1084 133.689 49.42 131.749C50.7317 129.808 51.3299 127.472 51.1126 125.14C50.8953 122.808 49.876 120.623 48.2285 118.958C46.5809 117.293 44.4069 116.25 42.0769 116.008C39.747 115.766 37.4053 116.34 35.4507 117.631C33.4962 118.922 32.0497 120.851 31.3579 123.089C30.6661 125.327 30.7716 127.735 31.6566 129.904C32.1579 131.136 32.8974 132.257 33.8328 133.202C34.7681 134.147 35.8809 134.899 37.1072 135.413ZM34.8089 123.463C35.4143 122.024 36.5002 120.839 37.8814 120.11C39.2627 119.381 40.8538 119.154 42.3838 119.467C43.9137 119.78 45.2878 120.614 46.2719 121.826C47.256 123.039 47.7893 124.555 47.7808 126.117C47.7723 127.679 47.2225 129.189 46.2253 130.391C45.2281 131.592 43.845 132.411 42.3117 132.708C40.7784 133.004 39.1898 132.759 37.8166 132.016C36.4434 131.272 35.3705 130.075 34.7807 128.629C34.4435 127.809 34.2724 126.93 34.2772 126.043C34.282 125.157 34.4627 124.28 34.8089 123.463Z" fill="#968B82"/>
</svg>
