<svg viewBox="0 0 144 144" fill="none" xmlns="http://www.w3.org/2000/svg">
<path d="M109.147 9.12988C92.5743 14.1177 76.9871 21.9304 63.073 32.2233L31.2974 55.733L38.3286 62.483L70.1042 38.9733C82.5931 29.736 96.4383 22.4903 111.147 17.4943C110.037 14.8311 109.362 12.007 109.147 9.12988Z" fill="#3E61EE" fill-opacity="0.2"/>
<path d="M121.12 11.9703L121.112 11.9281C121.539 11.8297 121.97 11.7369 122.397 11.6469L135.028 8.96658C136.004 8.75613 137.018 8.81068 137.966 9.12457C138.914 9.43847 139.76 10.0003 140.418 10.7517L140.574 10.0128C140.769 9.09587 140.732 8.14477 140.465 7.24596C140.199 6.34715 139.712 5.52913 139.05 4.86627C138.387 4.20342 137.569 3.71673 136.67 3.45045C135.771 3.18417 134.82 3.14675 133.903 3.34158L121.272 6.02189C120.845 6.11189 120.414 6.2047 119.987 6.30314L119.995 6.34533C120.055 8.28464 120.436 10.2006 121.123 12.0153C121.122 12.0004 121.121 11.9855 121.12 11.9703Z" fill="#3E61EE" fill-opacity="0.2"/>
<path d="M63.709 69.8032L57.2807 76.2314V76.2331L44.422 89.0919C44.1055 89.4083 43.9277 89.8375 43.9277 90.2851C43.9277 90.7326 44.1055 91.1618 44.422 91.4783L52.4376 99.4939C52.754 99.8104 53.1832 99.9881 53.6308 99.9881C54.0783 99.9881 54.5075 99.8104 54.824 99.4939L84.5406 69.7779C85.2304 69.0963 85.7787 68.285 86.1539 67.3908C86.5291 66.4965 86.7237 65.5369 86.7266 64.5671C86.7296 63.5973 86.5407 62.6365 86.171 61.74C85.8012 60.8435 85.2578 60.0289 84.5721 59.3432C83.8864 58.6574 83.0718 58.114 82.1753 57.7443C81.2788 57.3745 80.318 57.1856 79.3483 57.1885C78.3785 57.1914 77.4189 57.386 76.5246 57.7612C75.6303 58.1363 74.819 58.6846 74.1374 59.3744L63.7104 69.8012L63.709 69.8032ZM71.3328 66.9522L76.9631 72.5828L72.9196 76.6263L67.2893 70.9957L71.3328 66.9522ZM70.5332 79.0127L66.4897 83.0563L60.8593 77.4259L64.9029 73.3821L70.5332 79.0127ZM60.0597 89.4865L54.4291 83.8558L58.4715 79.8123L64.1021 85.4427L60.0597 89.4865ZM53.6295 95.9167L47.9989 90.2864L52.0424 86.2425L57.673 91.8732L53.6295 95.9167ZM76.5233 61.7614C77.2707 61.0188 78.2821 60.6027 79.3358 60.6044C80.3894 60.6061 81.3995 61.0254 82.1445 61.7705C82.8896 62.5155 83.309 63.5255 83.3107 64.5792C83.3125 65.6328 82.8965 66.6442 82.1539 67.3918L79.3498 70.1961L73.7192 64.5655L76.5233 61.7614Z" fill="#3E61EE"/>
<path d="M29.258 131.383C29.205 131.17 29.1102 130.969 28.979 130.792C28.8477 130.615 28.6828 130.466 28.4936 130.354C28.3044 130.241 28.0948 130.167 27.8768 130.137C27.6589 130.106 27.437 130.118 27.224 130.174C26.4235 130.378 25.6018 130.487 24.7757 130.499H22.2189V130.461C21.7816 130.483 21.3696 130.673 21.0684 130.991C20.7671 131.308 20.5996 131.73 20.6006 132.168C20.6155 132.624 20.8069 133.057 21.1345 133.375C21.462 133.694 21.9003 133.872 22.357 133.874H24.7757C25.8666 133.862 26.9521 133.721 28.0101 133.455C28.448 133.342 28.8241 133.062 29.0574 132.674C29.2908 132.287 29.3628 131.823 29.258 131.383Z" fill="#3E61EE"/>
<path d="M43.7625 125.716C43.8538 125.151 43.9101 124.581 43.9312 124.009C43.9495 123.572 43.9456 123.126 43.9197 122.682C43.9068 122.461 43.8504 122.244 43.7538 122.045C43.6572 121.845 43.5222 121.667 43.3566 121.519C43.1911 121.372 42.9981 121.259 42.7888 121.186C42.5794 121.113 42.3578 121.083 42.1366 121.096C41.9153 121.109 41.6988 121.165 41.4994 121.262C41.2999 121.358 41.1214 121.493 40.9741 121.659C40.8268 121.824 40.7136 122.017 40.6409 122.227C40.5682 122.436 40.5374 122.658 40.5503 122.879C40.5699 123.212 40.5727 123.547 40.5587 123.881C40.5428 124.315 40.5001 124.749 40.4311 125.179C40.2137 126.536 39.7294 127.837 39.006 129.007C38.2827 130.176 37.3347 131.19 36.2168 131.991C36.037 132.12 35.8845 132.284 35.7679 132.472C35.6513 132.661 35.573 132.87 35.5375 133.089C35.5019 133.308 35.5098 133.532 35.5607 133.747C35.6115 133.963 35.7044 134.166 35.8339 134.346C35.9634 134.526 36.1271 134.679 36.3156 134.795C36.5041 134.912 36.7137 134.99 36.9324 135.026C37.1511 135.061 37.3747 135.053 37.5904 135.002C37.8061 134.952 38.0097 134.859 38.1895 134.729C39.6682 133.67 40.9221 132.328 41.8787 130.781C42.8353 129.234 43.4756 127.512 43.7625 125.716Z" fill="#3E61EE"/>
<path d="M11.6217 110.704C13.2493 106.417 17.5128 103.597 22.0049 103.856C22.4517 103.881 22.8904 103.728 23.2243 103.43C23.5583 103.132 23.7602 102.714 23.7856 102.267C23.8111 101.82 23.6579 101.381 23.36 101.047C23.062 100.713 22.6435 100.512 22.1967 100.486C16.2528 100.149 10.6112 103.857 8.46635 109.506C8.38768 109.714 8.35059 109.934 8.35719 110.156C8.3638 110.377 8.41397 110.595 8.50484 110.797C8.59571 111 8.72551 111.182 8.88681 111.334C9.04812 111.486 9.23778 111.604 9.44496 111.683C9.65215 111.762 9.87279 111.799 10.0943 111.792C10.3158 111.786 10.5339 111.735 10.736 111.645C10.9381 111.554 11.1204 111.424 11.2724 111.263C11.4243 111.101 11.543 110.912 11.6217 110.704Z" fill="#3E61EE"/>
<path d="M26.7817 142.273C27.2421 142.273 27.6883 142.113 28.0442 141.821C28.4001 141.529 28.6437 141.122 28.7335 140.671C28.8233 140.219 28.7537 139.751 28.5366 139.345C28.3195 138.939 27.9684 138.62 27.543 138.444C27.1176 138.268 26.6443 138.245 26.2037 138.379C25.7632 138.513 25.3827 138.795 25.127 139.178C24.8713 139.561 24.7563 140.02 24.8017 140.479C24.847 140.937 25.0497 141.365 25.3754 141.69C25.56 141.875 25.7792 142.022 26.0205 142.122C26.2618 142.222 26.5205 142.273 26.7817 142.273Z" fill="#3E61EE"/>
<path d="M7.39836 116.369C7.07756 116.048 6.66883 115.83 6.22386 115.741C5.77889 115.653 5.31766 115.698 4.8985 115.872C4.47934 116.045 4.12108 116.339 3.86902 116.717C3.61696 117.094 3.48242 117.537 3.48242 117.991C3.48242 118.445 3.61696 118.888 3.86902 119.266C4.12108 119.643 4.47934 119.937 4.8985 120.11C5.31766 120.284 5.77889 120.329 6.22386 120.241C6.66883 120.152 7.07756 119.934 7.39836 119.613C7.82776 119.183 8.06889 118.599 8.06889 117.991C8.06889 117.383 7.82776 116.8 7.39836 116.369Z" fill="#3E61EE"/>
<path d="M2.33117 124.621C1.98625 124.966 1.79248 125.434 1.79248 125.922C1.79248 126.409 1.98625 126.877 2.33117 127.222C2.67608 127.567 3.14388 127.761 3.63166 127.761C4.11945 127.761 4.58725 127.567 4.93216 127.222L4.93526 127.219C5.27419 126.873 5.46267 126.407 5.45973 125.922C5.45678 125.437 5.26266 124.973 4.91954 124.631C4.57643 124.289 4.11206 124.096 3.62738 124.094C3.14269 124.092 2.67687 124.281 2.33117 124.621Z" fill="#3E61EE"/>
<path d="M48.0011 125.831C48.4266 125.831 48.8391 125.683 49.168 125.413C49.497 125.143 49.7221 124.767 49.805 124.35C49.888 123.932 49.8236 123.499 49.6228 123.124C49.4221 122.749 49.0974 122.455 48.7041 122.292C48.3108 122.129 47.8733 122.108 47.4662 122.232C47.059 122.356 46.7074 122.617 46.4712 122.971C46.2351 123.325 46.129 123.75 46.1711 124.173C46.2133 124.597 46.401 124.993 46.7022 125.293C46.8725 125.464 47.075 125.6 47.2979 125.692C47.5208 125.784 47.7598 125.831 48.0011 125.831Z" fill="#3E61EE"/>
<path d="M140.243 3.6734C139.383 2.80999 138.32 2.1761 137.151 1.82975C135.983 1.4834 134.746 1.43565 133.554 1.69087L120.922 4.37146C99.6242 8.8585 79.5479 17.8968 62.069 30.8672L30.231 54.4219L32.2382 57.1351L64.0757 33.5818C77.2771 23.786 92.0225 16.2651 107.703 11.3299C108.656 17.5864 111.595 23.3709 116.086 27.8302C120.545 32.3209 126.33 35.2597 132.586 36.2132C127.651 51.8933 120.131 66.6386 110.336 79.8398L86.7825 111.677L89.4954 113.684L113.049 81.8468C126.019 64.3681 135.058 44.2919 139.544 22.9939L142.225 10.3621C142.48 9.17039 142.433 7.93366 142.087 6.76512C141.74 5.59658 141.106 4.53356 140.243 3.6734ZM133.572 32.9462C127.848 32.1836 122.538 29.5453 118.472 25.4438C114.371 21.3784 111.733 16.0683 110.97 10.3441C113.447 9.62652 115.949 8.97149 118.475 8.37899C119.658 17.1138 126.802 24.2575 135.537 25.4407C134.945 27.9669 134.29 30.4687 133.572 32.9462ZM138.924 9.66149L136.278 22.1307C128.794 21.2625 122.653 15.1222 121.785 7.63846L134.255 4.99218C134.897 4.85609 135.562 4.88246 136.191 5.0689C136.82 5.25534 137.392 5.59594 137.856 6.05977C138.32 6.52359 138.661 7.09595 138.847 7.72484C139.033 8.35374 139.06 9.01925 138.924 9.66093V9.66149Z" fill="#968B82"/>
<path d="M90.3189 86.7912C90.0025 87.1077 89.8247 87.5369 89.8247 87.9844C89.8247 88.432 90.0025 88.8612 90.3189 89.1776L94.1768 93.0355C94.4933 93.352 94.9225 93.5299 95.3701 93.5299C95.8176 93.5299 96.2469 93.3521 96.5634 93.0357C96.8799 92.7192 97.0577 92.29 97.0577 91.8424C97.0577 91.3949 96.88 90.9656 96.5635 90.6491L92.7056 86.7912C92.5489 86.6345 92.3629 86.5102 92.1581 86.4254C91.9534 86.3405 91.7339 86.2969 91.5123 86.2969C91.2906 86.2969 91.0712 86.3405 90.8664 86.4254C90.6617 86.5102 90.4756 86.6345 90.3189 86.7912Z" fill="#968B82"/>
<path d="M93.5334 79.2891C93.3767 79.4458 93.2524 79.6319 93.1675 79.8366C93.0827 80.0414 93.0391 80.2609 93.0391 80.4825C93.0391 80.7041 93.0827 80.9236 93.1675 81.1283C93.2524 81.3331 93.3767 81.5191 93.5334 81.6758L98.4634 86.6056C98.6194 86.7658 98.8055 86.8934 99.0112 86.981C99.2168 87.0686 99.4378 87.1145 99.6614 87.116C99.8849 87.1175 100.106 87.0746 100.313 86.9898C100.52 86.9049 100.708 86.7798 100.866 86.6217C101.024 86.4637 101.149 86.2758 101.234 86.069C101.319 85.8621 101.362 85.6406 101.36 85.417C101.359 85.1935 101.313 84.9725 101.225 84.7669C101.137 84.5612 101.01 84.3751 100.85 84.2192L95.9198 79.2891C95.6034 78.9727 95.1742 78.7949 94.7266 78.7949C94.2791 78.7949 93.8499 78.9727 93.5334 79.2891Z" fill="#968B82"/>
<path d="M104.158 80.8839C104.492 80.8838 104.818 80.7848 105.095 80.5993C105.373 80.4139 105.589 80.1504 105.717 79.8421C105.844 79.5338 105.878 79.1945 105.813 78.8672C105.748 78.5399 105.587 78.2393 105.351 78.0033L99.1353 71.7877C98.9801 71.6244 98.7939 71.4939 98.5874 71.4037C98.381 71.3136 98.1586 71.2657 97.9334 71.2628C97.7082 71.26 97.4847 71.3023 97.276 71.3872C97.0674 71.4721 96.8779 71.5979 96.7187 71.7572C96.5594 71.9165 96.4337 72.106 96.3489 72.3147C96.264 72.5233 96.2218 72.7469 96.2248 72.9721C96.2277 73.1973 96.2757 73.4197 96.3659 73.6261C96.4561 73.8325 96.5867 74.0187 96.75 74.1738L102.966 80.3894C103.122 80.5463 103.308 80.6707 103.512 80.7555C103.717 80.8404 103.936 80.884 104.158 80.8839Z" fill="#968B82"/>
<path d="M50.8804 47.3526C50.564 47.6691 50.3862 48.0983 50.3862 48.5458C50.3862 48.9934 50.564 49.4226 50.8804 49.739L54.7386 53.5972C55.056 53.9094 55.4839 54.0835 55.929 54.0816C56.3742 54.0798 56.8006 53.9021 57.1154 53.5872C57.4301 53.2724 57.6077 52.846 57.6095 52.4008C57.6112 51.9557 57.437 51.5278 57.1248 51.2105L53.2669 47.3526C52.9504 47.0362 52.5212 46.8584 52.0736 46.8584C51.6261 46.8584 51.1969 47.0362 50.8804 47.3526Z" fill="#968B82"/>
<path d="M57.3106 43.0665C56.9942 43.3829 56.8164 43.8122 56.8164 44.2597C56.8164 44.7072 56.9942 45.1364 57.3106 45.4529L62.2407 50.3829C62.558 50.6951 62.9859 50.8692 63.4311 50.8673C63.8762 50.8655 64.3026 50.6878 64.6174 50.373C64.9321 50.0581 65.1097 49.6317 65.1115 49.1865C65.1132 48.7414 64.939 48.3135 64.6268 47.9962L59.697 43.0665C59.3806 42.75 58.9514 42.5723 58.5038 42.5723C58.0563 42.5723 57.6271 42.75 57.3106 43.0665Z" fill="#968B82"/>
<path d="M70.9353 47.6612C71.269 47.6611 71.5952 47.5621 71.8726 47.3767C72.1501 47.1913 72.3663 46.9277 72.494 46.6194C72.6217 46.3111 72.6551 45.9719 72.59 45.6446C72.5249 45.3173 72.3643 45.0166 72.1283 44.7806L65.9127 38.565C65.5948 38.2557 65.1679 38.0839 64.7243 38.087C64.2807 38.09 63.8562 38.2676 63.5425 38.5812C63.2289 38.8949 63.0514 39.3195 63.0484 39.7631C63.0454 40.2066 63.2172 40.6336 63.5266 40.9514L69.7422 47.167C69.8987 47.3239 70.0847 47.4483 70.2894 47.5331C70.4942 47.6179 70.7137 47.6615 70.9353 47.6612Z" fill="#968B82"/>
<path d="M3.29965 95.1036C3.36903 95.1036 3.43834 95.0994 3.50721 95.091L10.6183 94.2104C12.0381 94.0362 13.3747 93.4466 14.4605 92.5154C15.5464 91.5843 16.3329 90.3532 16.7215 88.9766C16.7608 88.8388 16.7937 88.6993 16.8244 88.5592L18.2025 89.9373C18.519 90.2537 18.9481 90.4314 19.3956 90.4314C19.843 90.4314 20.2722 90.2537 20.5886 89.9373L23.6121 86.9139L28.577 91.8788L23.3415 97.1159C23.0251 97.4324 22.8473 97.8616 22.8473 98.3092C22.8473 98.7567 23.0251 99.1859 23.3415 99.5024L31.9722 108.133C30.7013 107.358 29.313 106.793 27.8615 106.462C27.4115 106.36 26.9615 106.281 26.5267 106.227C24.4498 105.961 22.3397 106.176 20.3588 106.855C18.378 107.533 16.5792 108.657 15.1009 110.14C13.7792 111.44 12.7299 112.99 12.0145 114.701C11.2991 116.411 10.9318 118.247 10.9342 120.101C10.934 120.541 11.1059 120.964 11.4132 121.279C11.7205 121.595 12.1388 121.777 12.5789 121.789L13.4508 121.811C11.3024 124.924 10.415 128.737 10.9676 132.479C11.0421 132.866 11.247 133.215 11.5481 133.47C11.8493 133.724 12.2285 133.867 12.6225 133.875H16.816C17.2635 133.875 17.6927 133.698 18.0092 133.381C18.3257 133.065 18.5035 132.635 18.5035 132.188C18.5035 131.74 18.3257 131.311 18.0092 130.995C17.6927 130.678 17.2635 130.5 16.816 130.5H14.1702C14.1587 128.798 14.5169 127.113 15.2202 125.562C15.9234 124.012 16.9549 122.632 18.2433 121.519C18.4982 121.291 18.679 120.992 18.7627 120.66C18.8463 120.329 18.8289 119.98 18.7127 119.658C18.5973 119.338 18.3885 119.06 18.1134 118.861C17.8383 118.661 17.5095 118.549 17.1698 118.538L14.4355 118.464C14.7882 116.213 15.855 114.136 17.4786 112.538C18.4446 111.565 19.595 110.794 20.8625 110.271C22.1299 109.749 23.489 109.484 24.86 109.493C24.9444 109.493 25.0265 109.499 25.11 109.502C24.2598 110.083 23.5435 110.838 23.0089 111.719C22.4743 112.599 22.1338 113.583 22.0101 114.605L21.1298 121.716C21.1004 121.953 21.1218 122.194 21.1925 122.422C21.2632 122.651 21.3817 122.861 21.54 123.041C21.6984 123.22 21.893 123.363 22.1109 123.461C22.3289 123.56 22.5652 123.611 22.8043 123.611C22.8736 123.611 22.9428 123.606 23.0116 123.598L30.1233 122.717C31.1469 122.591 32.1319 122.248 33.0125 121.711C33.8932 121.175 34.6494 120.456 35.2308 119.604C35.2347 119.722 35.2421 119.839 35.2423 119.957C35.2459 121.332 34.9769 122.694 34.4507 123.965C33.9244 125.235 33.1516 126.388 32.1767 127.358C31.8645 127.676 31.6903 128.103 31.6921 128.549C31.694 128.994 31.8716 129.42 32.1864 129.735C32.5012 130.05 32.9276 130.227 33.3728 130.229C33.8179 130.231 34.2458 130.057 34.5631 129.745C36.0544 128.255 37.1853 126.445 37.8694 124.451C38.5534 122.458 38.7725 120.334 38.5099 118.243C38.4581 117.81 38.3828 117.37 38.2849 116.934C37.9556 115.46 37.386 114.05 36.5991 112.76L44.4139 120.575C44.7303 120.892 45.1595 121.069 45.607 121.069C46.0544 121.069 46.4836 120.892 46.8 120.575L52.0369 115.338L56.7875 120.089L53.7643 123.112C53.4479 123.429 53.2701 123.858 53.2701 124.305C53.2701 124.753 53.4479 125.182 53.7643 125.499L55.5264 127.261C55.4451 127.279 55.363 127.295 55.2825 127.315C53.8647 127.674 52.5889 128.453 51.6232 129.551C50.6576 130.65 50.0475 132.015 49.8735 133.467L48.994 140.577C48.9647 140.815 48.9861 141.056 49.0568 141.284C49.1275 141.512 49.246 141.723 49.4043 141.902C49.5626 142.081 49.7572 142.225 49.9752 142.323C50.1932 142.421 50.4295 142.472 50.6686 142.472C50.738 142.472 50.8073 142.468 50.8762 142.46L57.9873 141.579C59.407 141.405 60.7437 140.815 61.8295 139.884C62.9153 138.953 63.7018 137.722 64.0904 136.345C64.1298 136.207 64.1627 136.068 64.1934 135.928L65.2019 136.937C65.5184 137.253 65.9476 137.431 66.3951 137.431C66.8427 137.431 67.2719 137.253 67.5883 136.937L70.6118 133.913L73.9586 137.26C74.2751 137.577 74.7042 137.754 75.1517 137.754C75.5992 137.754 76.0283 137.577 76.3448 137.26L84.9184 128.687C88.3045 125.3 90.2067 120.708 90.2067 115.919C90.2067 111.13 88.3045 106.538 84.9184 103.152C82.3139 100.534 80.7883 97.033 80.6445 93.3432C80.5006 89.6534 81.7488 86.0443 84.1416 83.2318C95.7029 71.6079 104.044 57.1786 108.348 41.359C108.566 40.557 108.568 39.7117 108.354 38.9086C108.141 38.1055 107.719 37.3731 107.131 36.7854C106.543 36.1978 105.811 35.7757 105.008 35.562C104.205 35.3483 103.36 35.3505 102.558 35.5683C86.7377 39.8721 72.3082 48.2139 60.6842 59.7755C57.8716 62.168 54.2625 63.4159 50.5728 63.2719C46.883 63.1278 43.3822 61.6023 40.7647 58.9979C37.3785 55.6119 32.786 53.7097 27.9973 53.7097C23.2087 53.7097 18.6162 55.6119 15.23 58.9979L6.65693 67.5712C6.34048 67.8877 6.16271 68.3169 6.16271 68.7644C6.16271 69.2119 6.34048 69.6411 6.65693 69.9576L10.0038 73.3045L6.98065 76.3279C6.6642 76.6444 6.48643 77.0736 6.48643 77.5211C6.48643 77.9687 6.6642 78.3979 6.98065 78.7143L8.1588 79.8922C8.07724 79.9102 7.99511 79.9262 7.91468 79.947C6.49691 80.3053 5.22102 81.0848 4.25533 82.1829C3.28963 83.281 2.6795 84.6461 2.5054 86.098L1.62508 93.2088C1.59572 93.4461 1.6171 93.6869 1.68783 93.9153C1.75856 94.1437 1.87702 94.3544 2.03535 94.5336C2.19368 94.7128 2.38827 94.8562 2.60623 94.9545C2.8242 95.0528 3.06056 95.1036 3.29965 95.1036ZM60.8434 135.424C60.635 136.162 60.2132 136.822 59.631 137.321C59.0488 137.82 58.3322 138.136 57.5711 138.23L52.6087 138.844L53.2226 133.882C53.3228 133.106 53.6525 132.378 54.1695 131.79C54.6865 131.203 55.3672 130.783 56.1243 130.585C56.7884 130.415 57.4854 130.424 58.1452 130.609C58.805 130.795 59.4043 131.151 59.8828 131.641C60.3612 132.132 60.702 132.74 60.8707 133.404C61.0395 134.069 61.0302 134.766 60.844 135.425L60.8434 135.424ZM19.397 86.3579L10.5598 77.5207L13.7852 74.2953L22.6224 83.1325L19.397 86.3579ZM20.3628 67.7191C22.6703 67.8309 24.8535 68.7979 26.4868 70.4318C28.1201 72.0656 29.0864 74.2491 29.1974 76.5566L25.0085 80.7472L16.1722 71.9089L20.3628 67.7191ZM26.0013 84.528L30.0451 80.4839L35.01 85.4488L30.9659 89.4941L26.0013 84.528ZM32.9816 116.562C32.7732 117.3 32.3515 117.96 31.7693 118.459C31.1871 118.958 30.4704 119.274 29.7093 119.368L24.745 119.982L25.3592 115.02C25.4591 114.244 25.7887 113.515 26.3056 112.927C26.8225 112.339 27.5031 111.92 28.2603 111.721C28.9163 111.554 29.6047 111.56 30.2577 111.738C30.9108 111.917 31.506 112.263 31.9849 112.742C32.4751 113.233 32.8256 113.846 33.0005 114.517C33.1755 115.188 33.1685 115.894 32.9802 116.562L32.9816 116.562ZM54.4255 112.952L58.4694 108.908L63.2197 113.659L59.1753 117.703L54.4255 112.952ZM72.009 127.745L62.9578 118.694L67.1504 114.501C69.5319 114.56 71.7996 115.532 73.4854 117.215C75.1712 118.898 76.1462 121.164 76.2092 123.546L72.009 127.745ZM66.3972 133.357L57.3461 124.306L60.5711 121.08L69.6226 130.132L66.3972 133.357ZM75.1537 133.68L73.0004 131.527L77.0442 127.483L79.1975 129.637L75.1537 133.68ZM82.534 105.538C85.2871 108.292 86.8337 112.026 86.8337 115.919C86.8337 119.813 85.2871 123.547 82.534 126.3L81.5839 127.25L79.38 125.046C79.5083 124.809 79.5772 124.543 79.5811 124.273L79.5856 123.986C79.6116 122.309 79.3045 120.644 78.6822 119.088C78.0598 117.531 77.1346 116.113 75.9602 114.916C74.7858 113.72 73.3856 112.768 71.8407 112.117C70.2957 111.466 68.6369 111.128 66.9603 111.122H66.4597C66.1786 111.12 65.9014 111.189 65.6545 111.323L60.8538 106.522L77.4923 89.8839C77.0358 92.7058 77.2546 95.5958 78.1307 98.3168C79.0068 101.038 80.5153 103.513 82.5325 105.538L82.534 105.538ZM103.445 38.8258C103.673 38.7639 103.914 38.7633 104.142 38.8243C104.371 38.8852 104.579 39.0054 104.747 39.1728C104.914 39.3401 105.034 39.5487 105.095 39.7774C105.156 40.006 105.155 40.2467 105.093 40.475C100.933 55.7703 92.8578 69.7172 81.6649 80.941L81.6629 80.9393C81.6562 80.9469 81.6503 80.9548 81.6435 80.9626C81.6303 80.9756 81.6179 80.9891 81.6047 81.002L45.6075 116.996L26.9213 98.309L62.9159 62.3146C62.9289 62.302 62.9418 62.2896 62.9547 62.2767L62.9789 62.2567L62.9772 62.2547C74.201 51.0611 88.1483 42.9857 103.444 38.8249L103.445 38.8258ZM27.9979 57.0842C29.9266 57.079 31.8373 57.4563 33.6192 58.1944C35.4012 58.9325 37.019 60.0167 38.3791 61.3843C40.4045 63.4016 42.8793 64.9102 45.6004 65.7862C48.3215 66.6622 51.2116 66.8808 54.0335 66.424L37.395 83.0625L32.3795 78.0472C32.5092 77.806 32.5784 77.5369 32.5809 77.2631V77.1098C32.5953 75.4135 32.269 73.7315 31.6211 72.1637C30.9732 70.5959 30.017 69.1742 28.8093 67.983C27.6016 66.7917 26.1669 65.8552 24.5903 65.2289C23.0138 64.6026 21.3275 64.2993 19.6316 64.3371C19.3668 64.3456 19.1078 64.4163 18.8756 64.5435L16.6663 62.3343L17.6167 61.384C18.9768 60.0164 20.5946 58.9323 22.3766 58.1942C24.1585 57.4562 26.0692 57.0789 27.9979 57.0842ZM10.2378 68.7659L14.2813 64.7221L16.4349 66.8754L12.3902 70.9178L10.2378 68.7659ZM5.85452 86.5128C5.95443 85.7366 6.28389 85.008 6.80068 84.4203C7.31747 83.8326 7.99801 83.4127 8.75505 83.2143C9.27137 83.0818 9.80937 83.0566 10.3358 83.1402C10.8623 83.2238 11.366 83.4145 11.8158 83.7004C12.2657 83.9864 12.6521 84.3615 12.9513 84.8027C13.2504 85.2439 13.456 85.7417 13.5551 86.2655C13.6543 86.7892 13.645 87.3277 13.5279 87.8477C13.4108 88.3678 13.1882 88.8582 12.8741 89.2889C12.5599 89.7195 12.1608 90.0811 11.7013 90.3514C11.2419 90.6217 10.7319 90.7949 10.2029 90.8604L5.24055 91.4746L5.85452 86.5128Z" fill="#3E61EE"/>
</svg>
