<svg viewBox="0 0 144 144" fill="none" xmlns="http://www.w3.org/2000/svg">
<path d="M22.3706 76.8179C20.0347 76.8154 17.7176 77.2346 15.5306 78.0554C12.2382 79.2839 9.34774 81.3954 7.17621 84.1583C5.00469 86.9212 3.63602 90.2287 3.22031 93.7182L3.33844 93.7323L3.09375 136.688H11.5312L11.7759 93.7323L11.6578 93.7182C12.0735 90.2287 13.4422 86.9212 15.6137 84.1583C17.7852 81.3954 20.6757 79.2839 23.9681 78.0554C26.1551 77.2346 28.4722 76.8154 30.8081 76.8179H22.3706Z" fill="#3E61EE" fill-opacity="0.2"/>
<path d="M86.6689 136.688L86.6706 101.328C86.6731 100.318 86.4741 99.3181 86.0854 98.386C85.6966 97.454 85.1259 96.6089 84.4065 95.9001C82.96 94.4596 81.0007 93.6525 78.9593 93.6563H45.5558C43.5142 93.6529 41.5548 94.4605 40.1085 95.9015C39.3895 96.6094 38.8189 97.4536 38.4302 98.3848C38.0415 99.3159 37.8424 100.315 37.8447 101.324L37.8478 136.688H41.2228L41.2197 101.328C41.2187 100.765 41.3299 100.207 41.5469 99.6868C41.7639 99.1667 42.0824 98.6951 42.4837 98.2994C43.2992 97.4863 44.4042 97.0302 45.5558 97.0313H78.9593C80.1108 97.0301 81.2158 97.4861 82.0314 98.2991C82.4329 98.6938 82.7516 99.1646 82.9689 99.6839C83.1862 100.203 83.2978 100.761 83.297 101.324L83.2939 136.688H86.6689Z" fill="#968B82"/>
<path d="M75.0427 136.678L78.4177 136.681L78.4042 118.975C78.4042 118.527 78.2266 118.097 77.9103 117.78C77.5941 117.462 77.1649 117.283 76.7167 117.281H47.7969C47.3481 117.286 46.9193 117.468 46.6034 117.787C46.2875 118.105 46.11 118.536 46.1094 118.985V136.688H49.4996V120.656H75.0306L75.0427 136.678Z" fill="#968B82"/>
<path d="M83.9221 43.4174C85.6235 38.4423 86.0964 33.1294 85.3002 27.932C85.0228 26.4847 84.5497 25.0819 83.894 23.7622L80.8317 25.1851C81.3493 26.214 81.7164 27.3119 81.9216 28.4453C82.4965 31.9624 82.3747 35.5581 81.563 39.0282V38.05C81.5827 35.7383 81.0898 33.451 80.1199 31.3526C77.7391 26.2656 71.7161 23.8713 66.3819 25.9022C65.1088 26.3896 63.7277 26.524 62.3845 26.2913C61.0412 26.0587 59.7858 25.4675 58.7508 24.5804C58.499 24.3642 58.2042 24.204 57.8859 24.1103C57.5675 24.0167 57.2329 23.9918 56.9042 24.0373C56.5755 24.0828 56.2603 24.1976 55.9793 24.3741C55.6983 24.5507 55.4581 24.7849 55.2745 25.0613C53.2523 28.1005 51.3933 30.0881 49.899 31.2536L50.1215 28.0597C50.1438 27.7392 50.0741 27.4189 49.9206 27.1366C49.7672 26.8544 49.5363 26.6217 49.2552 26.4661C48.962 26.3104 48.6315 26.2385 48.3 26.2584C47.9686 26.2782 47.649 26.389 47.3765 26.5786C45.6991 27.7922 44.3303 29.3827 43.3803 31.2221C42.4302 33.0615 41.9255 35.0984 41.9067 37.1686V40.5886C41.024 37.9636 40.5641 35.2151 40.544 32.4458C40.5528 30.2378 40.8686 28.0418 41.4823 25.9208L38.2538 24.9949C37.5681 27.4189 37.223 29.9265 37.2287 32.4455C37.2156 36.2701 38.0255 40.0527 39.6035 43.5366C38.8229 44.1718 38.2499 45.0257 37.958 45.9888C37.6661 46.9519 37.6687 47.9803 37.9654 48.9419C38.2621 49.9036 38.8394 50.7546 39.6232 51.3859C40.407 52.0171 41.3615 52.3997 42.3643 52.4846L43.5149 57.8084C43.9669 59.9066 44.781 61.91 45.9207 63.7287L48.781 61.9371C47.8484 60.4499 47.1822 58.8114 46.8123 57.0954L45.3779 50.5054C45.2943 50.1336 45.0844 49.8022 44.7841 49.5676C44.4837 49.333 44.1113 49.2097 43.7303 49.2187H42.8247C42.3772 49.2187 41.9479 49.0409 41.6315 48.7245C41.315 48.408 41.1372 47.9788 41.1372 47.5312C41.1372 47.0837 41.315 46.6544 41.6315 46.338C41.9479 46.0215 42.3772 45.8437 42.8247 45.8437H43.7303C44.6624 45.8437 45.2817 45.0123 45.2817 44.0803V37.1686C45.3069 35.6943 45.6661 34.245 46.3322 32.9296L46.2889 34.0444C46.2742 34.3112 46.3223 34.5777 46.4292 34.8225C46.5362 35.0674 46.6989 35.2838 46.9045 35.4544C47.1101 35.625 47.3529 35.7451 47.6132 35.805C47.8736 35.8649 48.1444 35.863 48.4039 35.7994C50.0129 35.4006 53.2745 33.8287 57.4638 27.8378C58.928 28.8478 60.616 29.4865 62.3821 29.6988C64.1482 29.9112 65.9395 29.6907 67.6014 29.0565C69.3579 28.371 71.3084 28.3741 73.0627 29.0651C74.817 29.756 76.2457 31.0839 77.063 32.783C77.8227 34.4339 78.2069 36.2328 78.188 38.05V44.0803C78.2042 44.5442 78.3963 44.9847 78.7254 45.3122C79.0544 45.6397 79.4958 45.8297 79.9598 45.8437H80.8655C81.313 45.8437 81.7422 46.0215 82.0587 46.338C82.3752 46.6544 82.553 47.0837 82.553 47.5312C82.553 47.9788 82.3752 48.408 82.0587 48.7245C81.7422 49.0409 81.313 49.2187 80.8655 49.2187H79.9598C79.5784 49.2093 79.2056 49.3324 78.9048 49.5671C78.604 49.8018 78.3939 50.1335 78.3103 50.5057L76.8759 57.1179C76.4588 59.0547 75.6628 60.8899 74.5337 62.5179L77.3105 64.4265C78.6914 62.4307 79.6647 60.182 80.1747 57.8092L81.3253 52.4851C82.3454 52.3998 83.3154 52.0061 84.1064 51.3564C84.8974 50.7066 85.472 49.8315 85.7538 48.8474C86.0356 47.8633 86.0112 46.8167 85.684 45.8468C85.3568 44.8768 84.7422 44.0294 83.9218 43.4171L83.9221 43.4174Z" fill="#3E61EE"/>
<path d="M53.5103 45.3452C53.5058 45.6237 53.3919 45.8892 53.1934 46.0846C52.9949 46.2799 52.7275 46.3894 52.449 46.3894C52.1705 46.3894 51.9031 46.2799 51.7046 46.0846C51.506 45.8892 51.3922 45.6237 51.3877 45.3452C51.3877 44.8977 51.2099 44.4684 50.8934 44.152C50.577 43.8355 50.1477 43.6577 49.7002 43.6577C49.2526 43.6577 48.8234 43.8355 48.507 44.152C48.1905 44.4684 48.0127 44.8977 48.0127 45.3452C48.022 46.5157 48.4935 47.635 49.3245 48.4594C50.1554 49.2838 51.2785 49.7463 52.449 49.7463C53.6195 49.7463 54.7426 49.2838 55.5735 48.4594C56.4045 47.635 56.876 46.5157 56.8853 45.3452C56.8853 44.8977 56.7075 44.4684 56.391 44.152C56.0746 43.8355 55.6453 43.6577 55.1978 43.6577C54.7502 43.6577 54.321 43.8355 54.0045 44.152C53.6881 44.4684 53.5103 44.8977 53.5103 45.3452Z" fill="#3E61EE"/>
<path d="M73.4846 43.6577C73.0371 43.6577 72.6078 43.8355 72.2914 44.152C71.9749 44.4684 71.7971 44.8977 71.7971 45.3452C71.7907 45.6224 71.6761 45.8861 71.4778 46.0799C71.2795 46.2737 71.0132 46.3822 70.736 46.3822C70.4587 46.3822 70.1924 46.2737 69.9941 46.0799C69.7958 45.8861 69.6812 45.6224 69.6748 45.3452C69.6748 44.8977 69.497 44.4684 69.1805 44.152C68.8641 43.8355 68.4349 43.6577 67.9873 43.6577C67.5397 43.6577 67.1105 43.8355 66.7941 44.152C66.4776 44.4684 66.2998 44.8977 66.2998 45.3452C66.2998 46.5218 66.7672 47.6501 67.5991 48.482C68.4311 49.314 69.5594 49.7814 70.736 49.7814C71.9125 49.7814 73.0408 49.314 73.8728 48.482C74.7047 47.6501 75.1721 46.5218 75.1721 45.3452C75.1721 44.8977 74.9943 44.4684 74.6778 44.152C74.3614 43.8355 73.9322 43.6577 73.4846 43.6577Z" fill="#3E61EE"/>
<path d="M128.509 49.8021C127.628 49.807 126.781 49.4631 126.153 48.8455C125.525 48.2279 125.166 47.3868 125.156 46.5058V29.9759C125.156 20.1119 117.104 12.0938 107.167 12.0938H84.0938V15.4688H91.9688V20.5312H88.875V23.9062H107.167C110.518 23.9062 113.344 26.6594 113.344 29.9759V46.5058C113.348 48.502 113.745 50.4779 114.512 52.3206C115.28 54.1633 116.403 55.8368 117.817 57.2455C119.232 58.6542 120.91 59.7705 122.755 60.5307C124.601 61.2909 126.579 61.6801 128.575 61.6762C128.849 61.6721 129.121 61.7225 129.376 61.8246C129.63 61.9267 129.862 62.0783 130.057 62.2708C130.253 62.4632 130.408 62.6926 130.514 62.9455C130.62 63.1985 130.675 63.4699 130.675 63.7442C130.663 64.3032 130.431 64.8349 130.028 65.2227C129.625 65.6104 129.084 65.8225 128.525 65.8125H107.255L107.221 46.3868C107.213 45.3466 107.001 44.3181 106.595 43.3601C106.189 42.4022 105.599 41.5336 104.857 40.804C104.116 40.0744 103.238 39.4982 102.273 39.1082C101.309 38.7182 100.277 38.5222 99.2368 38.5312H89.4375V41.9062H99.2368C100.448 41.8964 101.614 42.3677 102.478 43.2167C103.343 44.0657 103.835 45.2229 103.846 46.4344L103.857 52.3125H96.1523C95.9345 52.3092 95.7181 52.3497 95.5162 52.4315C95.3143 52.5134 95.1308 52.6349 94.9767 52.789C94.8226 52.9431 94.701 53.1265 94.6191 53.3284C94.5372 53.5304 94.4967 53.7467 94.5 53.9646V67.9118C94.5 68.8435 95.2206 69.4688 96.1523 69.4688H103.887L103.897 75.1444C103.233 75.0814 102.562 75.0938 101.883 75.0938H92.1375C92.158 74.8125 92.25 74.6128 92.25 74.3501V71.2735C92.2285 69.1381 91.5199 67.0664 90.2291 65.3651C88.9383 63.6639 87.1339 62.4235 85.0832 61.8278L84.15 65.0686C85.4995 65.4583 86.6877 66.2721 87.5387 67.3896C88.3897 68.5071 88.8582 69.869 88.875 71.2735V74.3501C88.875 77.9062 85.8597 80.7188 82.2502 80.7188H42.0221C38.4016 80.7188 35.4375 77.9062 35.4375 74.3501V71.2735C35.4499 69.871 35.9142 68.5099 36.7614 67.3922C37.6086 66.2744 38.7936 65.4596 40.1406 65.0686L39.1961 61.828C37.1491 62.4254 35.3494 63.6672 34.0643 65.3688C32.7792 67.0704 32.0771 69.1412 32.0625 71.2735V74.3501C32.0625 74.6128 32.0948 74.8125 32.1154 75.0938H22.3695C20.6327 75.0776 18.9006 75.276 17.2125 75.6844V69.4688H25.4402C25.648 69.4809 25.856 69.4491 26.0506 69.3752C26.2451 69.3013 26.4219 69.187 26.5692 69.04C26.7165 68.893 26.8311 68.7164 26.9053 68.522C26.9796 68.3275 27.0118 68.1196 27 67.9118V53.9646C27 53.0325 26.3723 52.3125 25.4402 52.3125H17.2066L17.2049 46.4062C17.2039 45.812 17.3225 45.2236 17.5534 44.676C17.7843 44.1285 18.123 43.6329 18.5493 43.2188C18.9801 42.7956 19.4904 42.4618 20.0507 42.2365C20.6111 42.0113 21.2104 41.899 21.8143 41.9062H34.5938V38.5312H21.8143C20.7702 38.5211 19.7343 38.7173 18.7662 39.1087C17.7982 39.5001 16.917 40.0789 16.1733 40.8119C15.4292 41.5409 14.8386 42.4114 14.4361 43.3722C14.0336 44.333 13.8275 45.3646 13.8299 46.4062L13.8375 76.9447C10.1516 78.5624 7.01477 81.2156 4.80799 84.582C2.60121 87.9484 1.41945 91.8833 1.40625 95.9085V136.688C1.40625 137.135 1.58404 137.564 1.90051 137.881C2.21697 138.197 2.6462 138.375 3.09375 138.375H121.158C121.612 138.377 122.049 138.202 122.376 137.887C122.702 137.572 122.893 137.141 122.906 136.688V95.9085C122.906 88.1002 118.476 81.2812 112.035 77.625H128.525C136.283 77.625 142.586 71.4153 142.586 63.7135C142.586 56.0118 136.266 49.8021 128.509 49.8021ZM97.875 20.5312H95.3438V15.4688H97.875V20.5312ZM104.062 20.5312H101.25V15.4688H104.062V20.5312ZM109.031 20.7813C108.506 20.6738 107.973 20.6114 107.438 20.5948V15.4704C108.796 15.4973 110.143 15.7109 111.443 16.1052L109.031 20.7813ZM97.875 66.0938V55.6875H103.863L103.881 66.0938H97.875ZM109.125 69.1875V74.25H107.269L107.26 69.1875H109.125ZM23.625 55.6875V66.0938H17.2103L17.2074 55.6875H23.625ZM4.79391 95.4188H10.1759C10.4644 95.4173 10.7504 95.4728 11.0174 95.5823C11.2844 95.6917 11.5271 95.8529 11.7315 96.0566C11.9359 96.2602 12.098 96.5023 12.2084 96.7689C12.3189 97.0355 12.3755 97.3212 12.375 97.6098V107.132C12.3754 107.42 12.3188 107.706 12.2084 107.972C12.0981 108.238 11.9362 108.48 11.7321 108.684C11.528 108.887 11.2856 109.049 11.019 109.158C10.7524 109.268 10.4667 109.324 10.1784 109.322L4.78125 109.329L4.79391 95.4188ZM28.4062 135H4.78125V121.005L28.4062 120.992V135ZM119.531 135H95.625V121.005L119.531 120.992V135ZM119.531 109.329L113.397 109.322C112.804 109.328 112.232 109.103 111.801 108.694C111.371 108.285 111.117 107.725 111.094 107.132V97.6098C111.111 97.0193 111.358 96.459 111.784 96.0494C112.21 95.6398 112.779 95.4136 113.37 95.4194H119.464L119.531 109.329ZM119.028 92.025L113.369 92.0346C111.883 92.0317 110.455 92.6158 109.397 93.6599C108.339 94.7039 107.736 96.1234 107.719 97.6098V107.132C107.719 110.197 110.306 112.693 113.393 112.697L119.531 112.704V117.619L95.625 117.631V106.051C95.625 105.603 95.4472 105.174 95.1307 104.857C94.8143 104.541 94.3851 104.363 93.9375 104.363C93.4899 104.363 93.0607 104.541 92.7443 104.857C92.4278 105.174 92.25 105.603 92.25 106.051V135H31.7812V106.051C31.7812 105.603 31.6035 105.174 31.287 104.857C30.9705 104.541 30.5413 104.363 30.0938 104.363C29.6462 104.363 29.217 104.541 28.9005 104.857C28.584 105.174 28.4062 105.603 28.4062 106.051V117.619L4.78125 117.631V112.704L10.1829 112.697C11.659 112.697 13.0745 112.111 14.1184 111.067C15.1622 110.023 15.7491 108.608 15.75 107.132V97.6098C15.7499 96.8783 15.6056 96.154 15.3254 95.4782C15.0451 94.8025 14.6344 94.1887 14.1168 93.6718C13.5992 93.155 12.9847 92.7452 12.3086 92.4659C11.6325 92.1867 10.908 92.0434 10.1765 92.0444L5.20959 92.0258C6.12259 88.1624 8.31445 84.721 11.4294 82.26C14.5444 79.799 18.3997 78.463 22.3695 78.4688H33.0171C33.8262 80.1668 35.1036 81.5984 36.699 82.595C38.2943 83.5915 40.1412 84.1115 42.0221 84.0938H82.2502C84.1287 84.1109 85.9729 83.5904 87.5653 82.5937C89.1577 81.5971 90.4319 80.1658 91.2375 78.4688H101.883C105.851 78.4636 109.704 79.8 112.817 82.261C115.929 84.7219 118.118 88.1629 119.028 92.025ZM114.469 74.25H112.5V69.1875H114.469V74.25ZM119.812 74.25H117.844V69.1875H119.812V74.25ZM125.156 74.25H123.188V69.1875H125.156V74.25ZM116.719 33.4688V31.7812H121.781V33.4688H116.719ZM121.781 36.8438V38.8125H116.719V36.8438H121.781ZM112.888 20.7624L114.576 17.4639C115.115 17.7792 115.634 18.1285 116.13 18.5096L112.888 20.7624ZM114.336 23.8663L118.592 20.9093C119.216 21.6801 119.76 22.513 120.214 23.3947L114.336 23.8666L114.336 23.8663ZM116.166 27.1648L121.429 26.7711C121.554 27.31 121.648 27.8558 121.71 28.4057H116.464C116.409 27.9826 116.31 27.5666 116.166 27.1648ZM116.719 42.1875H121.781V44.2477L116.719 44.7691V42.1875ZM116.738 48.15L121.911 47.6308C122.017 48.2542 122.213 48.859 122.492 49.4266L118.23 52.4185C117.458 51.107 116.951 49.6567 116.738 48.15ZM123.302 57.1033C122.217 56.5757 121.219 55.8869 120.34 55.0603L124.711 51.9919C125.221 52.343 125.777 52.6219 126.363 52.8207L123.302 57.1033ZM128.975 58.3248C128.827 58.3127 128.677 58.302 128.525 58.302C127.912 58.3017 127.3 58.2547 126.694 58.1614L130.168 53.3019C131.31 53.4779 132.417 53.8383 133.444 54.369L128.975 58.3248ZM128.531 74.3608V69.2347C128.911 69.2413 129.291 69.1999 129.66 69.1116L131.985 73.7738C130.877 74.1728 129.708 74.3716 128.531 74.3608ZM136.217 56.4221C136.961 57.1851 137.586 58.0554 138.071 59.004L132.769 60.2949C132.637 60.1377 132.496 59.9879 132.347 59.8463L136.217 56.4221ZM135.012 72.1834L132.616 67.4117C132.778 67.2343 132.929 67.0464 133.066 66.8492L137.502 69.5149C136.831 70.5403 135.988 71.4429 135.012 72.1834ZM134.01 63.4781V63.4677L139.105 62.2274C139.312 63.6212 139.237 65.0426 138.884 66.4068L134.01 63.4781Z" fill="#3E61EE"/>
<path d="M69.0306 5.625H55.2212C43.0523 5.625 33.1875 15.5627 33.1875 27.7312V47.9472C33.1882 55.5897 36.2227 62.9193 41.6243 68.3258C47.0258 73.7323 54.3526 76.7735 61.9951 76.7812H62.2569C78.1613 76.7812 91.125 63.8525 91.125 47.9481V27.7312C91.114 21.8737 88.7831 16.2591 84.6423 12.1161C80.5015 7.97308 74.8881 5.63912 69.0306 5.625ZM55.2212 9H69.0306C78.7618 9 86.7746 16.5271 87.6434 26.0345C86.4682 24.8174 85.058 23.8516 83.4984 23.1957C81.9387 22.5398 80.2622 22.2074 78.5703 22.2188H45.682C43.9901 22.2074 42.3135 22.5398 40.7538 23.1957C39.1942 23.8516 37.7839 24.8173 36.6086 26.0345C37.4774 16.5271 45.4913 9 55.2217 9H55.2212ZM62.2564 73.4062H61.9945C56.5699 73.4006 51.2883 71.6658 46.9168 68.4538C42.5454 65.2419 39.3116 60.72 37.6853 55.5449C40.3222 59.6295 43.9408 62.988 48.2103 65.3136C52.4798 67.6392 57.2641 68.8577 62.1259 68.8577C66.9877 68.8577 71.772 67.6392 76.0415 65.3136C80.311 62.988 83.9296 59.6295 86.5665 55.5449C84.9401 60.72 81.7063 65.242 77.3348 68.4539C72.9633 71.6659 67.6816 73.4007 62.2569 73.4062H62.2564ZM87.75 40.1442C87.75 54.1156 76.2716 65.4823 62.1562 65.4823C48.0409 65.4823 36.5625 54.1156 36.5625 40.1442V34.5375C36.5625 29.5464 40.6339 25.5938 45.682 25.5938H78.5703C83.6184 25.5938 87.75 29.5464 87.75 34.5375V40.1442Z" fill="#968B82"/>
<path d="M78.4688 104.062C78.4688 103.615 78.291 103.186 77.9745 102.869C77.658 102.553 77.2288 102.375 76.7812 102.375H47.8125C47.3649 102.375 46.9357 102.553 46.6193 102.869C46.3028 103.186 46.125 103.615 46.125 104.062V112.5C46.125 112.948 46.3028 113.377 46.6193 113.693C46.9357 114.01 47.3649 114.188 47.8125 114.188H76.7812C77.2288 114.188 77.658 114.01 77.9745 113.693C78.291 113.377 78.4688 112.948 78.4688 112.5V104.062ZM49.5 105.75H75.0938V110.812H49.5V105.75Z" fill="#968B82"/>
</svg>
