<svg viewBox="0 0 144 144" fill="none" xmlns="http://www.w3.org/2000/svg">
<path d="M127.792 16.2083C122.577 10.9942 115.724 7.73762 108.388 6.98757C101.052 6.23752 93.6815 8.03989 87.5195 12.0908C88.5735 12.4558 89.5305 13.056 90.318 13.8458L95.1915 18.7193C100.613 15.3378 106.921 13.653 113.306 13.881C119.691 14.1091 125.863 16.2396 131.029 19.9993C130.049 18.654 128.967 17.3866 127.792 16.2083Z" fill="#3E61EE" fill-opacity="0.2"/>
<path d="M78.0945 21.6562C76.3906 24.3287 75.0957 27.2408 74.2527 30.2962C72.7721 35.654 72.7042 41.304 74.0558 46.6958C74.709 49.3029 75.6899 51.8167 76.9751 54.1771L82.1307 50.6775C80.7195 43.5244 81.7917 36.1039 85.1699 29.6428L78.1339 21.6421L78.0945 21.6562Z" fill="#3E61EE" fill-opacity="0.2"/>
<path d="M123.59 67.1086L121.74 64.2851C117.469 67.0914 112.556 68.7688 107.46 69.1606C102.365 69.5523 97.253 68.6457 92.603 66.5253L94.4761 64.9666C94.681 64.796 94.8426 64.5794 94.9476 64.3344C95.0526 64.0893 95.098 63.8229 95.0802 63.557C94.8257 59.7473 93.2121 56.1555 90.533 53.4351C87.8539 50.7147 84.2873 49.0463 80.4819 48.7334L80.2629 48.7154C79.9931 48.6935 79.722 48.7367 79.4723 48.8413C79.2227 48.946 79.0019 49.1092 78.8285 49.317L77.3435 51.0998C75.3289 46.5319 74.4733 41.5373 74.8526 36.5593C75.2318 31.5813 76.8342 26.7739 79.5175 22.5639L76.6721 20.749C74.982 23.4 73.6718 26.2747 72.7799 29.2895L6.43361 78.7957C5.77457 79.2842 5.32627 80.0054 5.1798 80.8126C5.03334 81.6198 5.1997 82.4525 5.64508 83.1415C6.09046 83.8305 6.78145 84.324 7.57763 84.5219C8.37381 84.7197 9.21545 84.607 9.93152 84.2066L73.0159 49.2008C73.5411 50.8354 74.1904 52.4274 74.9582 53.963L23.8315 115.328C23.3123 115.945 23.0443 116.735 23.0808 117.541C23.1173 118.347 23.4555 119.11 24.0283 119.678L24.0776 119.727C24.6452 120.299 25.4075 120.638 26.213 120.675C27.0185 120.711 27.8084 120.444 28.426 119.926L89.7531 68.8973C91.3758 69.728 93.0634 70.425 94.7993 70.9817L59.7935 134.069C59.3948 134.785 59.2833 135.625 59.4817 136.421C59.68 137.216 60.1733 137.906 60.8616 138.351C61.5498 138.795 62.3815 138.962 63.1879 138.816C63.9944 138.671 64.7153 138.224 65.2045 137.566L114.718 71.2089C117.86 70.2828 120.849 68.9014 123.59 67.1086ZM10.1925 80.2022L71.6988 34.3072C71.1761 38.1467 71.3188 42.0475 72.1207 45.8385L10.1925 80.2022ZM27.2042 116.552L80.8484 52.1661C83.5845 52.5175 86.1269 53.7659 88.0779 55.7161C90.0289 57.6663 91.2784 60.2082 91.631 62.9441L27.2042 116.552ZM63.7979 133.808L98.1667 71.871C100.457 72.3537 102.791 72.5976 105.132 72.5986C105.522 72.5986 105.914 72.5919 106.305 72.5786C107.442 72.5392 108.576 72.4424 109.703 72.2887L63.7979 133.808Z" fill="#3E61EE"/>
<path d="M133.087 57.7533C137.467 51.2597 139.453 43.4452 138.704 35.6484C137.956 27.8515 134.519 20.5577 128.983 15.0162C117.703 3.73443 99.8648 1.91728 86.5713 10.6951L88.4306 13.5115C94.2935 9.65176 101.313 7.94251 108.294 8.67458C115.275 9.40665 121.787 12.5348 126.721 17.5269C131.656 22.5189 134.708 29.0665 135.36 36.0556C136.011 43.0446 134.221 50.0435 130.293 55.8613L133.087 57.7533Z" fill="#3E61EE"/>
<path d="M106.924 14.2524C106.968 14.2561 107.011 14.2575 107.054 14.2575C107.491 14.2573 107.91 14.088 108.224 13.7851C108.539 13.4823 108.724 13.0694 108.74 12.6332C108.756 12.197 108.603 11.7714 108.312 11.4459C108.021 11.1203 107.616 10.9201 107.18 10.8873C106.123 10.8069 105.062 10.7848 104.002 10.8212C103.781 10.8288 103.563 10.88 103.361 10.9718C103.16 11.0637 102.978 11.1943 102.827 11.3563C102.521 11.6835 102.359 12.1186 102.374 12.5659C102.389 13.0132 102.582 13.436 102.909 13.7414C103.236 14.0468 103.671 14.2097 104.119 14.1942C105.054 14.1621 105.991 14.1815 106.924 14.2524Z" fill="#3E61EE"/>
<path d="M124.877 21.3043C125.193 20.9879 125.371 20.5587 125.371 20.1111C125.371 19.6636 125.193 19.2344 124.877 18.9179C121.615 15.6795 117.6 13.3021 113.192 11.9992C112.978 11.9325 112.754 11.9089 112.531 11.9297C112.309 11.9505 112.093 12.0153 111.895 12.1203C111.698 12.2254 111.524 12.3686 111.382 12.5416C111.241 12.7147 111.135 12.9141 111.071 13.1283C111.007 13.3425 110.987 13.5673 111.011 13.7896C111.034 14.0118 111.102 14.2271 111.21 14.423C111.318 14.6188 111.463 14.7914 111.638 14.9305C111.813 15.0697 112.014 15.1727 112.229 15.2335C116.099 16.3763 119.626 18.4626 122.49 21.3052C122.807 21.6216 123.236 21.7994 123.684 21.7994C124.131 21.7994 124.56 21.6216 124.877 21.3052V21.3043Z" fill="#3E61EE"/>
<path d="M94.3927 111.652L88.1717 119.99C88.0362 120.168 87.9372 120.37 87.8805 120.586C87.8238 120.802 87.8105 121.027 87.8414 121.248C87.8723 121.469 87.9467 121.682 88.0603 121.874C88.174 122.066 88.3246 122.234 88.5035 122.367C88.6824 122.501 88.886 122.597 89.1025 122.652C89.319 122.706 89.5442 122.717 89.7649 122.683C89.9856 122.65 90.1975 122.573 90.3883 122.457C90.5791 122.342 90.745 122.189 90.8765 122.009L97.0983 113.67C97.2322 113.493 97.3297 113.29 97.3853 113.075C97.4408 112.86 97.4532 112.636 97.4218 112.416C97.3904 112.195 97.3158 111.984 97.2023 111.792C97.0889 111.601 96.9387 111.434 96.7605 111.301C96.5823 111.168 96.3796 111.072 96.164 111.018C95.9484 110.963 95.7241 110.952 95.5042 110.984C95.2842 111.017 95.0729 111.093 94.8823 111.207C94.6917 111.322 94.5256 111.473 94.3935 111.652H94.3927Z" fill="#3E61EE"/>
<path d="M104.206 98.5013L99.233 105.165C99.0991 105.343 99.0015 105.545 98.946 105.761C98.8905 105.976 98.8781 106.2 98.9095 106.42C98.9409 106.64 99.0155 106.852 99.1289 107.043C99.2424 107.234 99.3926 107.401 99.5708 107.534C99.749 107.667 99.9517 107.764 100.167 107.818C100.383 107.872 100.607 107.884 100.827 107.851C101.047 107.819 101.258 107.743 101.449 107.628C101.64 107.514 101.806 107.363 101.938 107.184L106.911 100.519C107.175 100.16 107.287 99.7113 107.222 99.2701C107.157 98.8289 106.92 98.4314 106.562 98.1647C106.205 97.8979 105.756 97.7835 105.315 97.8465C104.873 97.9095 104.474 98.1447 104.206 98.5007V98.5013Z" fill="#3E61EE"/>
<path d="M91.5122 12.6529C90.6705 11.8058 89.669 11.1342 88.5658 10.677C87.4626 10.2199 86.2796 9.98628 85.0854 9.98978H84.994C83.7844 9.99781 82.5888 10.2489 81.4782 10.7282C80.3676 11.2075 79.3647 11.9052 78.5292 12.7798C76.8904 14.5016 75.9869 16.7941 76.0102 19.1711C76.0335 21.548 76.9818 23.8223 78.654 25.5117L118.078 64.9365C118.922 65.7823 119.924 66.4534 121.028 66.9115C122.131 67.3697 123.314 67.6058 124.509 67.6064C125.704 67.6071 126.887 67.3722 127.991 66.9152C129.095 66.4583 130.099 65.7882 130.944 64.9433C131.788 64.0984 132.459 63.0952 132.916 61.9912C133.373 60.8872 133.607 59.7039 133.607 58.509C133.606 57.3141 133.37 56.1311 132.912 55.0275C132.454 53.924 131.783 52.9215 130.937 52.0774L91.5122 12.6529ZM128.47 62.6285C127.387 63.6591 125.946 64.2273 124.451 64.2126C122.957 64.198 121.526 63.6016 120.464 62.5501L81.0396 23.1256C79.9889 22.0767 79.392 20.6572 79.3773 19.1726C79.3626 17.688 79.9314 16.257 80.9611 15.1876C81.4879 14.644 82.1202 14.2139 82.8193 13.9237C83.5184 13.6335 84.2695 13.4893 85.0263 13.5001H85.0843C85.831 13.4855 86.5732 13.6201 87.2672 13.8961C87.9613 14.172 88.5932 14.5838 89.1261 15.1071L128.55 54.4976C129.088 55.0318 129.513 55.6683 129.8 56.3694C130.088 57.0705 130.232 57.8221 130.225 58.5799C130.217 59.3377 130.058 60.0863 129.757 60.7817C129.456 61.477 129.018 62.105 128.47 62.6285Z" fill="#968B82"/>
<path d="M108.454 35.546C107.818 34.911 107.009 34.4787 106.128 34.3038C105.246 34.1288 104.333 34.2191 103.503 34.5631C102.673 34.9071 101.964 35.4895 101.465 36.2366C100.966 36.9837 100.699 37.8619 100.699 38.7604C100.699 39.6588 100.966 40.5371 101.465 41.2842C101.964 42.0313 102.673 42.6137 103.503 42.9577C104.333 43.3017 105.246 43.392 106.128 43.217C107.009 43.0421 107.818 42.6098 108.454 41.9748C109.305 41.1217 109.783 39.9656 109.783 38.7604C109.783 37.5551 109.305 36.3991 108.454 35.546ZM106.068 39.5881C105.904 39.7517 105.696 39.863 105.469 39.9081C105.242 39.9532 105.006 39.93 104.793 39.8414C104.579 39.7528 104.396 39.6028 104.268 39.4103C104.139 39.2179 104.07 38.9917 104.07 38.7603C104.07 38.5288 104.139 38.3026 104.268 38.1102C104.396 37.9177 104.579 37.7678 104.793 37.6791C105.006 37.5905 105.242 37.5673 105.469 37.6124C105.696 37.6575 105.904 37.7688 106.068 37.9324C106.287 38.1522 106.41 38.4499 106.41 38.7603C106.41 39.0706 106.287 39.3683 106.068 39.5881Z" fill="#968B82"/>
<path d="M100.24 27.3319C99.6042 26.6968 98.7946 26.2645 97.9133 26.0895C97.0319 25.9145 96.1185 26.0047 95.2885 26.3487C94.4584 26.6927 93.749 27.2751 93.2499 28.0223C92.7508 28.7694 92.4844 29.6478 92.4844 30.5463C92.4844 31.4448 92.7508 32.3232 93.2499 33.0703C93.749 33.8175 94.4584 34.3999 95.2885 34.7439C96.1185 35.088 97.0319 35.1782 97.9133 35.0032C98.7946 34.8282 99.6042 34.3958 100.24 33.7607C101.091 32.9076 101.569 31.7516 101.569 30.5463C101.569 29.3411 101.091 28.185 100.24 27.3319ZM97.8537 31.3743C97.69 31.538 97.4814 31.6494 97.2544 31.6946C97.0273 31.7397 96.792 31.7165 96.5781 31.6279C96.3642 31.5393 96.1814 31.3892 96.0528 31.1967C95.9242 31.0043 95.8556 30.778 95.8556 30.5465C95.8556 30.315 95.9242 30.0887 96.0528 29.8962C96.1814 29.7037 96.3642 29.5536 96.5781 29.465C96.792 29.3764 97.0273 29.3532 97.2544 29.3984C97.4814 29.4435 97.69 29.5549 97.8537 29.7186C98.0728 29.9384 98.1958 30.2361 98.1958 30.5465C98.1958 30.8568 98.0728 31.1545 97.8537 31.3743Z" fill="#968B82"/>
<path d="M116.668 43.7599C116.032 43.1249 115.223 42.6926 114.341 42.5176C113.46 42.3427 112.547 42.4329 111.717 42.777C110.887 43.121 110.178 43.7034 109.679 44.4504C109.179 45.1975 108.913 46.0758 108.913 46.9743C108.913 47.8727 109.179 48.751 109.679 49.4981C110.178 50.2452 110.887 50.8275 111.717 51.1716C112.547 51.5156 113.46 51.6058 114.341 51.4309C115.223 51.2559 116.032 50.8237 116.668 50.1887C117.519 49.3355 117.997 48.1795 117.997 46.9743C117.997 45.769 117.519 44.613 116.668 43.7599ZM114.281 47.8023C114.118 47.9658 113.909 48.0771 113.682 48.1222C113.455 48.1672 113.22 48.1439 113.006 48.0553C112.793 47.9667 112.61 47.8167 112.481 47.6243C112.353 47.4319 112.284 47.2057 112.284 46.9743C112.284 46.7429 112.353 46.5167 112.481 46.3242C112.61 46.1318 112.793 45.9818 113.006 45.8932C113.22 45.8046 113.455 45.7813 113.682 45.8264C113.909 45.8714 114.118 45.9827 114.281 46.1463C114.501 46.3661 114.624 46.6638 114.624 46.9743C114.624 47.2847 114.501 47.5825 114.281 47.8023Z" fill="#968B82"/>
<path d="M118.453 51.975C117.817 52.6107 117.384 53.4207 117.208 54.3025C117.033 55.1843 117.123 56.0984 117.467 56.929C117.811 57.7597 118.394 58.4697 119.141 58.9692C119.889 59.4687 120.768 59.7353 121.667 59.7353C122.566 59.7353 123.445 59.4687 124.193 58.9692C124.94 58.4697 125.523 57.7597 125.867 56.929C126.211 56.0984 126.301 55.1843 126.125 54.3025C125.95 53.4207 125.517 52.6107 124.881 51.975C124.028 51.1236 122.872 50.6455 121.667 50.6455C120.462 50.6455 119.306 51.1236 118.453 51.975ZM122.495 56.0174C122.331 56.181 122.123 56.2925 121.896 56.3376C121.669 56.3827 121.433 56.3595 121.219 56.2709C121.006 56.1823 120.823 56.0323 120.694 55.8398C120.566 55.6473 120.497 55.421 120.497 55.1895C120.497 54.958 120.566 54.7317 120.694 54.5392C120.823 54.3467 121.006 54.1967 121.219 54.1081C121.433 54.0195 121.669 53.9963 121.896 54.0414C122.123 54.0865 122.331 54.198 122.495 54.3616C122.714 54.5814 122.836 54.8788 122.836 55.1888C122.836 55.4988 122.714 55.7962 122.495 56.016V56.0174Z" fill="#968B82"/>
<path d="M92.0249 19.1181C91.3891 18.4823 90.5791 18.0494 89.6973 17.874C88.8155 17.6986 87.9015 17.7886 87.0709 18.1327C86.2402 18.4767 85.5303 19.0594 85.0308 19.8069C84.5313 20.5545 84.2646 21.4334 84.2646 22.3325C84.2646 23.2315 84.5313 24.1104 85.0308 24.858C85.5303 25.6056 86.2402 26.1882 87.0709 26.5323C87.9015 26.8763 88.8155 26.9664 89.6973 26.791C90.5791 26.6156 91.3891 26.1826 92.0249 25.5469C92.876 24.6936 93.354 23.5376 93.354 22.3325C93.354 21.1273 92.876 19.9713 92.0249 19.1181ZM89.6399 23.1605C89.4762 23.324 89.2676 23.4353 89.0407 23.4804C88.8137 23.5254 88.5784 23.5021 88.3647 23.4135C88.1509 23.3249 87.9682 23.1749 87.8397 22.9825C87.7112 22.7901 87.6426 22.5639 87.6426 22.3325C87.6426 22.1011 87.7112 21.8749 87.8397 21.6824C87.9682 21.49 88.1509 21.34 88.3647 21.2514C88.5784 21.1628 88.8137 21.1395 89.0407 21.1846C89.2676 21.2296 89.4762 21.3409 89.6399 21.5045C89.7496 21.6127 89.8366 21.7416 89.8961 21.8838C89.9555 22.0259 89.9861 22.1785 89.9861 22.3325C89.986 22.4866 89.9554 22.6391 89.8959 22.7813C89.8364 22.9234 89.7493 23.0523 89.6396 23.1605H89.6399Z" fill="#968B82"/>
</svg>
