<svg viewBox="0 0 144 144" fill="none" xmlns="http://www.w3.org/2000/svg">
<path d="M45.6182 74.4862C45.619 65.9049 48.762 57.6208 54.4537 51.1985C60.1453 44.7763 67.9916 40.6604 76.5107 39.6281C75.1107 39.46 73.7019 39.3754 72.2919 39.375C62.9798 39.375 54.0491 43.0742 47.4645 49.6588C40.8799 56.2435 37.1807 65.1742 37.1807 74.4862C37.1807 83.7983 40.8799 92.729 47.4645 99.3137C54.0491 105.898 62.9798 109.597 72.2919 109.597C73.7019 109.597 75.1107 109.513 76.5107 109.344C67.9914 108.313 60.1448 104.197 54.4531 97.7745C48.7614 91.3521 45.6185 83.0678 45.6182 74.4862Z" fill="#3E61EE" fill-opacity="0.2"/>
<path d="M125.376 12.8728L124.275 13.973C124.117 14.1292 123.99 14.3154 123.904 14.5206C123.817 14.7259 123.772 14.9463 123.771 15.1691C123.771 15.3918 123.814 15.6126 123.899 15.8185C123.983 16.0245 124.108 16.2117 124.266 16.3692C124.423 16.5267 124.61 16.6515 124.816 16.7363C125.022 16.8211 125.243 16.8643 125.466 16.8634C125.689 16.8625 125.909 16.8175 126.114 16.731C126.32 16.6445 126.506 16.5182 126.662 16.3594L127.762 15.2592C128.074 14.9418 128.249 14.514 128.247 14.0688C128.245 13.6236 128.067 13.1972 127.752 12.8824C127.438 12.5677 127.011 12.39 126.566 12.3882C126.121 12.3864 125.693 12.5606 125.376 12.8728Z" fill="#3E61EE"/>
<path d="M9.20878 114.428L8.45138 114.906C8.07297 115.145 7.80502 115.525 7.70646 115.961C7.60791 116.398 7.68683 116.856 7.92586 117.234C8.16489 117.612 8.54445 117.88 8.98105 117.979C9.41764 118.077 9.8755 117.999 10.2539 117.76L11.0113 117.281C11.3897 117.042 11.6577 116.663 11.7562 116.226C11.8548 115.79 11.7759 115.332 11.5368 114.953C11.2978 114.575 10.9182 114.307 10.4816 114.208C10.0451 114.11 9.58719 114.189 9.20878 114.428Z" fill="#3E61EE"/>
<path d="M18.417 108.612L13.9732 111.42C13.7786 111.534 13.6089 111.687 13.4744 111.869C13.3398 112.05 13.2431 112.257 13.1899 112.476C13.1368 112.696 13.1283 112.924 13.1649 113.147C13.2016 113.37 13.2827 113.583 13.4033 113.775C13.524 113.966 13.6818 114.13 13.8674 114.259C14.053 114.388 14.2626 114.479 14.4838 114.525C14.7049 114.571 14.9331 114.573 15.1549 114.529C15.3766 114.486 15.5874 114.398 15.7746 114.272L20.2184 111.465C20.5968 111.226 20.8648 110.846 20.9633 110.41C21.0619 109.973 20.983 109.515 20.744 109.137C20.5051 108.759 20.1255 108.491 19.689 108.392C19.2524 108.293 18.7945 108.372 18.4161 108.611L18.417 108.612Z" fill="#3E61EE"/>
<path d="M72.2812 138.125C71.8337 138.125 71.4045 138.303 71.088 138.619C70.7715 138.936 70.5938 139.365 70.5938 139.812V140.568C70.5938 141.016 70.7715 141.445 71.088 141.762C71.4045 142.078 71.8337 142.256 72.2812 142.256C72.7288 142.256 73.158 142.078 73.4745 141.762C73.791 141.445 73.9688 141.016 73.9688 140.568V139.812C73.9685 139.364 73.7906 138.935 73.4742 138.619C73.1578 138.303 72.7287 138.125 72.2812 138.125Z" fill="#3E61EE"/>
<path d="M104.168 130.641C104.062 130.445 103.917 130.272 103.743 130.132C103.569 129.992 103.369 129.888 103.155 129.827C102.941 129.765 102.716 129.746 102.494 129.771C102.273 129.797 102.058 129.866 101.863 129.975C101.669 130.083 101.497 130.23 101.359 130.405C101.222 130.581 101.12 130.782 101.06 130.997C101.001 131.212 100.984 131.437 101.012 131.658C101.04 131.879 101.111 132.093 101.222 132.287L101.953 133.594C102.06 133.789 102.205 133.96 102.379 134.099C102.553 134.237 102.753 134.34 102.966 134.402C103.18 134.463 103.404 134.481 103.625 134.455C103.846 134.43 104.06 134.361 104.254 134.252C104.448 134.144 104.619 133.998 104.757 133.823C104.894 133.648 104.996 133.448 105.056 133.234C105.116 133.02 105.133 132.796 105.106 132.575C105.079 132.354 105.009 132.141 104.899 131.947L104.168 130.641Z" fill="#3E61EE"/>
<path d="M87.6233 3.57198L86.4114 8.54054C86.3565 8.75667 86.3449 8.98155 86.3774 9.20218C86.4099 9.42281 86.4857 9.63482 86.6006 9.82594C86.7156 10.0171 86.8672 10.1835 87.0469 10.3157C87.2265 10.4478 87.4305 10.5431 87.6472 10.5959C87.8639 10.6487 88.0888 10.6581 88.3091 10.6234C88.5294 10.5887 88.7407 10.5108 88.9307 10.394C89.1206 10.2772 89.2856 10.1239 89.416 9.94294C89.5463 9.76201 89.6396 9.55703 89.6902 9.33985L90.9019 4.37157C91.0005 3.93946 90.9251 3.48591 90.6921 3.10889C90.4591 2.73188 90.0871 2.46167 89.6565 2.35665C89.2259 2.25164 88.7713 2.32024 88.3908 2.54764C88.0104 2.77504 87.7347 3.14299 87.6233 3.57198Z" fill="#3E61EE"/>
<path d="M37.2182 138.082C36.8403 137.842 36.3827 137.762 35.946 137.86C35.5093 137.958 35.1292 138.225 34.8894 138.603L34.001 140.002C33.8822 140.189 33.8015 140.398 33.7634 140.616C33.7253 140.834 33.7306 141.058 33.7789 141.274C33.8273 141.491 33.9178 141.695 34.0452 141.877C34.1727 142.058 34.3346 142.212 34.5217 142.331C34.7088 142.45 34.9175 142.531 35.1358 142.569C35.3542 142.607 35.5778 142.602 35.7941 142.553C36.0104 142.505 36.215 142.414 36.3964 142.287C36.5777 142.159 36.7321 141.998 36.8509 141.81L37.7391 140.411C37.9788 140.033 38.0585 139.575 37.9609 139.138C37.8632 138.702 37.596 138.322 37.2182 138.082Z" fill="#3E61EE"/>
<path d="M41.6945 131.027C41.5074 130.909 41.2988 130.828 41.0805 130.79C40.8622 130.752 40.6385 130.757 40.4222 130.805C40.2059 130.854 40.0013 130.944 39.82 131.072C39.6387 131.199 39.4843 131.361 39.3655 131.548L37.7548 134.086C37.6338 134.273 37.5511 134.482 37.5114 134.702C37.4717 134.921 37.4758 135.146 37.5235 135.363C37.5712 135.581 37.6615 135.787 37.7892 135.97C37.917 136.152 38.0796 136.308 38.2678 136.427C38.4559 136.546 38.6658 136.627 38.8854 136.665C39.105 136.703 39.3299 136.697 39.5471 136.647C39.7644 136.598 39.9697 136.506 40.1511 136.377C40.3326 136.247 40.4867 136.083 40.6044 135.894L42.2149 133.356C42.4547 132.979 42.5346 132.521 42.437 132.084C42.3395 131.647 42.0724 131.267 41.6945 131.027Z" fill="#3E61EE"/>
<path d="M128.736 109.896L126.366 108.514C126.174 108.4 125.962 108.325 125.741 108.293C125.521 108.261 125.296 108.274 125.08 108.329C124.864 108.385 124.662 108.483 124.484 108.618C124.306 108.752 124.157 108.921 124.044 109.113C123.932 109.306 123.859 109.519 123.829 109.74C123.8 109.961 123.814 110.185 123.872 110.401C123.93 110.616 124.03 110.818 124.166 110.994C124.302 111.171 124.472 111.318 124.665 111.429L127.035 112.812C127.422 113.036 127.882 113.098 128.314 112.984C128.746 112.87 129.115 112.589 129.34 112.203C129.565 111.817 129.628 111.357 129.515 110.925C129.402 110.492 129.122 110.122 128.736 109.896Z" fill="#3E61EE"/>
<path d="M136.371 79.3125H135.292C134.844 79.3125 134.415 79.4903 134.099 79.8068C133.782 80.1232 133.604 80.5524 133.604 81C133.604 81.4476 133.782 81.8768 134.099 82.1932C134.415 82.5097 134.844 82.6875 135.292 82.6875H136.371C136.819 82.6875 137.248 82.5097 137.564 82.1932C137.881 81.8768 138.059 81.4476 138.059 81C138.059 80.5524 137.881 80.1232 137.564 79.8068C137.248 79.4903 136.819 79.3125 136.371 79.3125Z" fill="#3E61EE"/>
<path d="M21.994 17.0665C21.6644 17.3692 21.4687 17.7905 21.4498 18.2376C21.4308 18.6847 21.5903 19.121 21.893 19.4506L23.6786 21.3941C23.9815 21.7236 24.4028 21.9194 24.85 21.9384C25.2971 21.9573 25.7335 21.7978 26.0631 21.495C26.3927 21.1922 26.5885 20.7709 26.6074 20.3237C26.6263 19.8765 26.4669 19.4402 26.1641 19.1106L24.3781 17.1671C24.0753 16.8377 23.654 16.642 23.2069 16.6231C22.7598 16.6042 22.3235 16.7637 21.994 17.0665Z" fill="#3E61EE"/>
<path d="M8.56926 50.655C8.96047 50.6555 9.33969 50.5201 9.64207 50.2719C9.94445 50.0237 10.1512 49.6781 10.2269 49.2943C10.3027 48.9105 10.2427 48.5123 10.0573 48.1678C9.87191 47.8233 9.57257 47.5539 9.21051 47.4058L6.51388 46.2996C6.3081 46.211 6.08675 46.1643 5.86273 46.1622C5.63871 46.1601 5.41651 46.2026 5.20909 46.2872C5.00166 46.3718 4.81317 46.4969 4.6546 46.6552C4.49603 46.8135 4.37057 47.0017 4.28551 47.209C4.20046 47.4162 4.15753 47.6383 4.15923 47.8624C4.16092 48.0864 4.20721 48.3078 4.29538 48.5138C4.38356 48.7197 4.51186 48.9061 4.6728 49.0619C4.83374 49.2177 5.02411 49.34 5.23279 49.4215L7.92941 50.5279C8.13239 50.6115 8.34974 50.6547 8.56926 50.655Z" fill="#3E61EE"/>
<path d="M137.493 46.5897L126.715 50.9589L121.765 51.6311C119.693 51.9313 117.579 51.6414 115.664 50.7945C113.75 49.9477 112.113 48.5782 110.941 46.8434C109.709 45.1052 108.993 43.055 108.873 40.9281C108.754 38.8011 109.237 36.6836 110.266 34.8185L112.67 30.3483C112.678 30.3407 112.687 30.3359 112.695 30.3281L119.149 23.874C119.461 23.5566 119.636 23.1288 119.634 22.6836C119.632 22.2384 119.454 21.812 119.139 21.4972C118.825 21.1824 118.398 21.0048 117.953 21.003C117.508 21.0012 117.08 21.1753 116.763 21.4875L110.508 27.7406C110.473 27.7619 110.435 27.7794 110.401 27.8039L105.943 30.9921C104.255 32.2282 102.252 32.9618 100.165 33.1081C98.0777 33.2544 95.9919 32.8075 94.148 31.819C92.2564 30.8519 90.6769 29.3696 89.5918 27.5433C88.5067 25.7169 87.9601 23.6208 88.0154 21.4971L88.0871 15.9897C88.0921 15.6082 87.9677 15.2363 87.7342 14.9346C87.5006 14.6329 87.1718 14.4193 86.8013 14.3285C86.4307 14.2377 86.0404 14.2752 85.6938 14.4348C85.3473 14.5944 85.0651 14.8666 84.8932 15.2072L82.4162 20.1179C81.477 21.9989 80.0323 23.5811 78.2441 24.6869C76.4559 25.7928 74.395 26.3786 72.2925 26.3786C70.19 26.3786 68.1291 25.7928 66.3409 24.6869C64.5527 23.5811 63.108 21.9989 62.1688 20.1179L59.8971 15.615C59.8971 15.608 59.8951 15.601 59.8935 15.5939L56.9676 2.71973C56.9214 2.50076 56.8321 2.29317 56.7048 2.10905C56.5776 1.92493 56.415 1.76796 56.2265 1.64727C56.0381 1.52658 55.8275 1.44458 55.607 1.40605C55.3866 1.36753 55.1606 1.37324 54.9424 1.42285C54.7242 1.47247 54.518 1.56499 54.3359 1.69505C54.1537 1.82511 53.9993 1.99009 53.8815 2.18041C53.7638 2.37072 53.685 2.58255 53.6499 2.80358C53.6148 3.02461 53.624 3.25042 53.677 3.46785L56.503 15.9078C56.503 15.9359 56.4968 15.9621 56.4971 15.9902L56.5691 21.4977C56.6243 23.6214 56.0778 25.7175 54.9926 27.5439C53.9074 29.3703 52.3278 30.8526 50.4361 31.8195C48.5923 32.808 46.5065 33.2548 44.4195 33.1085C42.3326 32.9622 40.3295 32.2287 38.6416 30.9927L34.1836 27.8039C34.1622 27.7887 34.1388 27.7785 34.1169 27.7642L30.0874 23.379C29.9375 23.2158 29.7568 23.0837 29.5559 22.9904C29.3549 22.897 29.1375 22.8441 28.9161 22.8348C28.6946 22.8254 28.4736 22.8598 28.2654 22.9359C28.0573 23.012 27.8662 23.1283 27.703 23.2783C27.5398 23.4282 27.4078 23.6088 27.3144 23.8098C27.221 24.0108 27.1682 24.2282 27.1588 24.4496C27.1495 24.671 27.1838 24.8921 27.2599 25.1003C27.336 25.3084 27.4523 25.4995 27.6023 25.6627L31.8421 30.2766C31.8661 30.3028 31.8919 30.3258 31.9172 30.35L34.3205 34.8185C35.3498 36.6837 35.8324 38.8013 35.7127 40.9283C35.5931 43.0552 34.8761 45.1054 33.6441 46.8434C32.4726 48.5784 30.8357 49.9479 28.9211 50.7948C27.0066 51.6417 24.892 51.9315 22.8202 51.6311L17.8702 50.9589L14.4139 49.5408C14.2082 49.4522 13.9868 49.4055 13.7628 49.4034C13.5388 49.4013 13.3166 49.4438 13.1091 49.5284C12.9017 49.6131 12.7132 49.7382 12.5546 49.8964C12.3961 50.0547 12.2706 50.2429 12.1856 50.4502C12.1005 50.6574 12.0576 50.8796 12.0593 51.1036C12.061 51.3276 12.1073 51.549 12.1954 51.755C12.2836 51.9609 12.4119 52.1473 12.5728 52.3031C12.7338 52.459 12.9242 52.5812 13.1328 52.6627L16.149 53.9002C16.1771 53.9213 16.2004 53.9455 16.2294 53.9652L20.7696 57.0342C22.5139 58.2192 23.8987 59.8612 24.7723 61.7805C25.6459 63.6998 25.9747 65.8224 25.7228 67.9161C25.4709 70.0097 24.6479 71.9938 23.3439 73.651C22.0399 75.3083 20.3051 76.5749 18.3295 77.3123L13.1922 79.1967C13.0958 79.2326 13.0029 79.2771 12.9146 79.3297L8.88258 79.8337C8.45608 79.8862 8.06568 80.0995 7.79103 80.43C7.51637 80.7605 7.37815 81.1833 7.40456 81.6122C7.43096 82.0412 7.62001 82.4438 7.93313 82.7381C8.24625 83.0325 8.65986 83.1962 9.08958 83.196C9.16029 83.196 9.23092 83.1915 9.30108 83.1828L13.9828 82.5975C14.0818 82.5846 14.1795 82.5631 14.2747 82.5331L19.0278 83.0504C21.1177 83.2601 23.1063 84.0543 24.7659 85.3417C26.4254 86.6292 27.6888 88.358 28.4115 90.3302C29.191 92.3087 29.3977 94.4668 29.0078 96.5573C28.6179 98.6478 27.6471 100.586 26.2067 102.151L22.526 106.226C22.2703 106.509 22.1178 106.869 22.0934 107.25C22.069 107.63 22.174 108.008 22.3915 108.321C22.6089 108.634 22.9259 108.864 23.2909 108.974C23.6558 109.084 24.0473 109.067 24.4014 108.926L29.4881 106.905C31.4229 106.114 33.5419 105.885 35.6012 106.245C37.6604 106.605 39.5761 107.539 41.1279 108.939C42.7387 110.333 43.9233 112.152 44.5453 114.189C45.1673 116.226 45.2013 118.397 44.6435 120.452L43.2654 125.783C43.1704 126.152 43.2032 126.542 43.3584 126.89C43.5136 127.238 43.7821 127.524 44.1201 127.7C44.4581 127.876 44.8457 127.932 45.2199 127.86C45.5941 127.788 45.9328 127.591 46.1808 127.301L49.7527 123.131C51.1196 121.533 52.9045 120.347 54.9075 119.706C56.9104 119.065 59.0522 118.994 61.0931 119.502C63.1339 120.009 64.9931 121.075 66.4624 122.58C67.9317 124.084 68.9531 125.968 69.4121 128.021L70.6496 133.385C70.7355 133.757 70.9448 134.088 71.2434 134.326C71.542 134.563 71.9123 134.693 72.2938 134.693C72.6753 134.693 73.0456 134.563 73.3442 134.326C73.6428 134.088 73.8521 133.757 73.938 133.385L75.1755 128.021C75.6345 125.968 76.6559 124.084 78.1252 122.58C79.5945 121.075 81.4536 120.009 83.4945 119.502C85.5353 118.994 87.6771 119.065 89.6801 119.706C91.683 120.347 93.4679 121.533 94.8348 123.131L98.4067 127.301C98.6547 127.591 98.9934 127.788 99.3677 127.86C99.742 127.933 100.13 127.876 100.468 127.7C100.806 127.524 101.074 127.239 101.23 126.89C101.385 126.542 101.418 126.152 101.322 125.783L99.9443 120.452C99.3865 118.397 99.4203 116.226 100.042 114.189C100.664 112.153 101.848 110.333 103.458 108.939C105.01 107.539 106.926 106.605 108.985 106.245C111.044 105.885 113.163 106.114 115.098 106.905L120.185 108.926C120.539 109.067 120.93 109.084 121.295 108.974C121.66 108.864 121.977 108.634 122.195 108.321C122.412 108.008 122.517 107.63 122.493 107.25C122.468 106.869 122.316 106.509 122.06 106.226L118.381 102.152C116.94 100.587 115.97 98.6489 115.58 96.5584C115.19 94.4679 115.396 92.3099 116.176 90.3314C116.899 88.3592 118.162 86.6304 119.822 85.3429C121.481 84.0554 123.47 83.2613 125.559 83.0515L130.996 82.4609C131.374 82.4199 131.728 82.2521 131.999 81.9846C132.271 81.7172 132.443 81.3658 132.489 80.9877C132.536 80.6096 132.453 80.227 132.254 79.9022C132.055 79.5773 131.752 79.3292 131.394 79.1983L126.257 77.314C124.281 76.5766 122.546 75.31 121.242 73.6527C119.938 71.9955 119.115 70.0114 118.863 67.9178C118.611 65.8241 118.94 63.7015 119.814 61.7822C120.687 59.8629 122.072 58.2209 123.817 57.0359L128.357 53.9669C128.385 53.9489 128.406 53.9264 128.431 53.9069L138.762 49.7189C139.175 49.5498 139.505 49.2237 139.678 48.8121C139.852 48.4005 139.855 47.9369 139.687 47.5229C139.519 47.109 139.194 46.7784 138.783 46.6037C138.372 46.4291 137.908 46.4245 137.494 46.5911L137.493 46.5897ZM115.516 68.3559C115.806 70.8226 116.715 73.176 118.158 75.1979C119.601 77.2197 121.53 78.8446 123.768 79.9217C121.339 80.4448 119.08 81.5687 117.197 83.1907C115.315 84.8127 113.869 86.8809 112.992 89.2061C112.116 91.5312 111.836 94.0391 112.18 96.5002C112.523 98.9613 113.478 101.297 114.957 103.294C112.592 102.612 110.092 102.54 107.691 103.085C105.289 103.629 103.065 104.772 101.224 106.407C99.3459 108.056 97.9161 110.155 97.0683 112.507C96.2205 114.858 95.9824 117.387 96.3761 119.855C94.5855 118.147 92.3926 116.918 90.0005 116.283C87.6085 115.648 85.0949 115.628 82.6928 116.224C80.2907 116.819 78.078 118.012 76.2599 119.691C74.4417 121.37 73.077 123.481 72.2924 125.828C71.5101 123.479 70.1465 121.366 68.3285 119.685C66.5105 118.005 64.2971 116.811 61.8939 116.215C59.4908 115.619 56.976 115.64 54.5833 116.277C52.1907 116.914 49.9978 118.145 48.2086 119.856C48.6025 117.388 48.3644 114.86 47.5167 112.508C46.6689 110.156 45.2391 108.057 43.3607 106.408C41.5199 104.773 39.2955 103.63 36.8944 103.086C34.4932 102.542 31.9934 102.614 29.6276 103.295C31.1072 101.298 32.0624 98.9625 32.4059 96.5013C32.7493 94.04 32.4699 91.5319 31.5933 89.2065C30.7167 86.8811 29.2709 84.8127 27.3882 83.1906C25.5055 81.5685 23.246 80.4445 20.8166 79.9214C23.0519 78.8324 24.9787 77.2006 26.4209 75.1751C27.8632 73.1497 28.7749 70.7951 29.0728 68.3265C29.3708 65.858 29.0454 63.3541 28.1264 61.0436C27.2075 58.7332 25.7242 56.6899 23.8122 55.1003C26.2768 55.1917 28.7245 54.659 30.9282 53.5517C33.1319 52.4444 35.0202 50.7983 36.4178 48.7663C37.849 46.7138 38.7375 44.3324 39.0003 41.844C39.2632 39.3557 38.8919 36.8412 37.9211 34.535C40.0537 35.7657 42.4633 36.4363 44.9252 36.4843C47.387 36.5323 49.8209 35.9561 51.9999 34.8095C54.2121 33.6587 56.0963 31.9658 57.4764 29.8889C58.8566 27.8121 59.6876 25.4192 59.8918 22.934C61.217 25.0233 63.0485 26.7439 65.2165 27.936C67.3844 29.1282 69.8184 29.7533 72.2925 29.7533C74.7666 29.7533 77.2006 29.1282 79.3685 27.936C81.5365 26.7439 83.368 25.0233 84.6932 22.934C84.8973 25.4193 85.7283 27.8121 87.1085 29.889C88.4887 31.9658 90.3729 33.6587 92.5851 34.8095C94.7642 35.9561 97.198 36.5322 99.6599 36.4842C102.122 36.4362 104.531 35.7656 106.664 34.535C105.693 36.8412 105.322 39.3557 105.585 41.844C105.847 44.3324 106.736 46.7138 108.167 48.7663C109.564 50.7987 111.453 52.445 113.656 53.5524C115.86 54.6597 118.308 55.1922 120.773 55.1003C118.851 56.6881 117.361 58.7358 116.442 61.0531C115.523 63.3705 115.205 65.8824 115.516 68.3559Z" fill="#3E61EE"/>
<path d="M72.2919 37.6875C52.0009 37.6875 35.4932 54.1969 35.4932 74.4871C35.4932 94.7773 52.0009 111.286 72.2919 111.286C92.583 111.286 109.091 94.7767 109.091 74.4871C109.091 54.1974 92.583 37.6875 72.2919 37.6875ZM72.2919 107.911C65.6812 107.911 59.219 105.95 53.7225 102.278C48.2259 98.6049 43.9419 93.3847 41.4121 87.2772C38.8823 81.1698 38.2204 74.4493 39.5102 67.9656C40.7999 61.482 43.9833 55.5264 48.6578 50.852C53.3322 46.1776 59.2879 42.9943 65.7716 41.7047C72.2552 40.4151 78.9757 41.077 85.0831 43.6069C91.1906 46.1368 96.4106 50.4209 100.083 55.9175C103.756 61.4142 105.716 67.8764 105.716 74.4871C105.706 83.3486 102.181 91.8444 95.9153 98.1104C89.6492 104.376 81.1535 107.901 72.2919 107.911V107.911Z" fill="#968B82"/>
<path d="M93.0329 58.5305C92.849 58.6542 92.6913 58.8129 92.5687 58.9975C92.4461 59.1822 92.3611 59.3892 92.3185 59.6067C92.276 59.8242 92.2767 60.0479 92.3206 60.2652C92.3645 60.4824 92.4508 60.6888 92.5745 60.8727C94.4221 63.6104 95.6887 66.6978 96.2963 69.9442C96.3789 70.384 96.6329 70.7731 97.0024 71.0257C97.3719 71.2783 97.8265 71.3737 98.2664 71.2911C98.7063 71.2084 99.0953 70.9544 99.3479 70.585C99.6005 70.2155 99.696 69.7608 99.6133 69.3209C98.9216 65.6233 97.4791 62.1068 95.3749 58.9886C95.1251 58.6173 94.738 58.3605 94.2988 58.2746C93.8596 58.1886 93.4042 58.2807 93.0329 58.5305Z" fill="#968B82"/>
<path d="M89.9764 53.0361C89.2952 52.4736 88.5786 51.9375 87.8462 51.4425C87.6627 51.3161 87.456 51.2272 87.238 51.1811C87.02 51.1349 86.7949 51.1325 86.576 51.1738C86.357 51.2151 86.1483 51.2993 85.9621 51.4217C85.7758 51.5441 85.6156 51.7021 85.4908 51.8867C85.366 52.0713 85.2789 52.2788 85.2347 52.4972C85.1905 52.7157 85.19 52.9407 85.2332 53.1593C85.2764 53.3779 85.3625 53.5858 85.4865 53.771C85.6105 53.9562 85.77 54.1149 85.9557 54.2381C86.5995 54.6735 87.2295 55.1449 87.8282 55.6391C87.999 55.7818 88.1962 55.8894 88.4086 55.9556C88.6211 56.0218 88.8445 56.0453 89.0661 56.0248C89.2877 56.0043 89.503 55.9402 89.6997 55.8362C89.8964 55.7321 90.0706 55.5902 90.2122 55.4186C90.3538 55.247 90.4601 55.049 90.525 54.8362C90.5898 54.6233 90.6119 54.3997 90.59 54.1783C90.5681 53.9568 90.5026 53.7419 90.3973 53.5459C90.292 53.3499 90.149 53.1766 89.9764 53.0361Z" fill="#968B82"/>
</svg>
