<svg viewBox="0 0 144 144" fill="none" xmlns="http://www.w3.org/2000/svg">
<path d="M60.1456 65.3362C59.0688 59.2235 59.2694 52.9541 60.7347 46.9227C62.2 40.8914 64.8983 35.2288 68.6596 30.2915C72.421 25.3542 77.1639 21.2493 82.5897 18.2352C88.0155 15.221 94.0066 13.363 100.186 12.7782C98.7967 12.6488 97.3902 12.5796 95.9671 12.5796C89.1887 12.5821 82.4987 14.1173 76.3974 17.0704C70.2962 20.0234 64.9416 24.3179 60.7344 29.6326C56.5272 34.9472 53.5762 41.1444 52.1022 47.7605C50.6282 54.3767 50.6693 61.2405 52.2226 67.8385L60.1456 65.3362Z" fill="#3E61EE" fill-opacity="0.2"/>
<path d="M73.1957 89.8593C73.2013 89.7299 73.2041 89.6005 73.2041 89.4684L70.1832 84.3145L62.9219 86.3209L64.7666 89.4684C64.7666 89.6005 64.7638 89.7299 64.7582 89.8593H64.7666C73.1336 97.956 84.3253 102.475 95.9685 102.459C97.3899 102.459 98.7953 102.39 100.183 102.262C90.041 101.317 80.5245 96.9421 73.2041 89.8593H73.1957Z" fill="#3E61EE" fill-opacity="0.2"/>
<path d="M95.9683 10.8926C70.2584 10.8926 49.3418 31.8091 49.3418 57.519C49.3402 61.2582 49.7865 64.9841 50.671 68.6172L53.9498 67.8162C53.1291 64.4453 52.7152 60.9883 52.7168 57.519C52.7168 33.669 72.1194 14.2676 95.9683 14.2676C119.817 14.2676 139.219 33.6702 139.219 57.519C139.219 81.3679 119.817 100.771 95.9683 100.771C84.7611 100.794 73.9871 96.4437 65.9372 88.6461L63.5939 91.0747C72.2716 99.4811 83.8865 104.171 95.9683 104.146C121.678 104.146 142.594 83.2287 142.594 57.519C142.594 31.8094 121.678 10.8926 95.9683 10.8926V10.8926Z" fill="#3E61EE"/>
<path d="M94.4495 27.9406C94.638 28.2403 94.9159 28.4731 95.244 28.6061C95.5721 28.7391 95.9337 28.7655 96.2776 28.6817C97.2474 28.4487 98.2578 28.4431 99.2301 28.6654C100.202 28.8877 101.11 29.3318 101.882 29.9631C102.156 30.1879 102.494 30.3208 102.848 30.3428C103.201 30.3649 103.553 30.2751 103.853 30.086C104.153 29.897 104.385 29.6183 104.518 29.2896C104.65 28.961 104.676 28.5989 104.591 28.2548C104.354 27.2878 104.345 26.2791 104.564 25.3079C104.783 24.3368 105.224 23.4297 105.853 22.6579C106.078 22.3842 106.21 22.0469 106.233 21.6936C106.255 21.3404 106.165 20.9891 105.977 20.6895C105.788 20.3899 105.511 20.1572 105.183 20.0242C104.855 19.8911 104.493 19.8646 104.149 19.9483C103.18 20.1814 102.169 20.187 101.197 19.9647C100.225 19.7424 99.3169 19.2982 98.5448 18.667C98.2709 18.4421 97.9331 18.3091 97.5793 18.287C97.2256 18.2649 96.8739 18.3547 96.574 18.5437C96.2742 18.7327 96.0415 19.0113 95.909 19.34C95.7764 19.6687 95.7507 20.0309 95.8355 20.375C96.0722 21.342 96.0815 22.3507 95.8624 23.3218C95.6434 24.293 95.2021 25.2001 94.5733 25.9719C94.3487 26.2456 94.216 26.5829 94.1938 26.9363C94.1715 27.2896 94.261 27.6409 94.4495 27.9406V27.9406ZM99.3388 22.9327C100.068 23.1917 100.826 23.3643 101.596 23.4471C101.339 24.175 101.168 24.9307 101.086 25.6985C100.357 25.4394 99.5993 25.2667 98.8294 25.1841C99.0865 24.4561 99.2575 23.7005 99.3388 22.9327V22.9327Z" fill="#3E61EE"/>
<path d="M129.533 68.1117C128.64 68.5562 127.657 68.7881 126.659 68.7893C125.662 68.7905 124.678 68.5609 123.784 68.1184C123.466 67.9608 123.108 67.9071 122.758 67.9649C122.408 68.0227 122.086 68.1891 121.836 68.4405C121.586 68.6918 121.422 69.0155 121.367 69.3655C121.311 69.7155 121.367 70.074 121.527 70.3904C121.974 71.2798 122.209 72.2608 122.213 73.2563C122.217 74.2519 121.99 75.2348 121.55 76.1279C121.393 76.4449 121.339 76.8034 121.397 77.1526C121.455 77.5018 121.62 77.8241 121.871 78.0738C122.122 78.3236 122.445 78.4882 122.794 78.5443C123.144 78.6004 123.502 78.5453 123.818 78.3866C124.711 77.9422 125.695 77.7103 126.692 77.7092C127.69 77.708 128.674 77.9375 129.567 78.3799C129.885 78.5376 130.244 78.5914 130.594 78.5336C130.943 78.4759 131.266 78.3095 131.516 78.0581C131.765 77.8067 131.93 77.483 131.985 77.1329C132.041 76.7829 131.985 76.4243 131.825 76.1079C131.377 75.2185 131.143 74.2375 131.138 73.2419C131.134 72.2464 131.361 71.2634 131.801 70.3704C131.959 70.0534 132.012 69.6949 131.955 69.3457C131.897 68.9965 131.731 68.6742 131.48 68.4244C131.23 68.1747 130.907 68.0101 130.557 67.954C130.208 67.8978 129.85 67.953 129.533 68.1117V68.1117ZM125.522 74.4047C125.609 73.6377 125.606 72.863 125.514 72.0967C126.283 72.1853 127.06 72.1839 127.829 72.0925C127.741 72.8595 127.744 73.6341 127.837 74.4004C127.068 74.3113 126.291 74.3127 125.522 74.4047V74.4047Z" fill="#3E61EE"/>
<path d="M63.5126 51.7176C64.0933 51.7178 64.661 51.5457 65.1439 51.2231C65.6268 50.9005 66.0032 50.442 66.2255 49.9056C66.4478 49.3691 66.506 48.7787 66.3927 48.2091C66.2795 47.6396 65.9999 47.1164 65.5893 46.7057C65.1787 46.2951 64.6555 46.0154 64.0859 45.9021C63.5164 45.7888 62.926 45.847 62.3895 46.0692C61.853 46.2915 61.3945 46.6678 61.0719 47.1507C60.7493 47.6336 60.5771 48.2012 60.5771 48.782C60.578 49.5602 60.8876 50.3064 61.4379 50.8567C61.9882 51.4071 62.7343 51.7167 63.5126 51.7176V51.7176ZM63.5126 48.3426C63.5995 48.3426 63.6844 48.3683 63.7567 48.4165C63.829 48.4648 63.8853 48.5334 63.9186 48.6136C63.9519 48.6939 63.9607 48.7823 63.9437 48.8675C63.9268 48.9527 63.885 49.031 63.8236 49.0925C63.7622 49.154 63.6839 49.1958 63.5987 49.2128C63.5134 49.2298 63.4251 49.2211 63.3448 49.1879C63.2645 49.1546 63.1959 49.0983 63.1476 49.0261C63.0993 48.9538 63.0735 48.8689 63.0735 48.782C63.0737 48.6655 63.12 48.5539 63.2023 48.4716C63.2846 48.3892 63.3961 48.3429 63.5126 48.3426V48.3426Z" fill="#3E61EE"/>
<path d="M133.917 62.2019C134.547 62.2019 135.163 62.015 135.687 61.6649C136.211 61.3149 136.619 60.8174 136.86 60.2353C137.101 59.6532 137.164 59.0128 137.041 58.3949C136.918 57.777 136.615 57.2094 136.169 56.7639C135.724 56.3185 135.156 56.0151 134.538 55.8922C133.92 55.7694 133.28 55.8325 132.698 56.0736C132.116 56.3147 131.618 56.723 131.268 57.2468C130.918 57.7706 130.731 58.3865 130.731 59.0165C130.732 59.8611 131.068 60.6708 131.666 61.268C132.263 61.8651 133.073 62.201 133.917 62.2019ZM133.917 58.8269C133.955 58.8269 133.991 58.838 134.022 58.8589C134.054 58.8797 134.078 58.9093 134.092 58.9439C134.107 58.9786 134.11 59.0167 134.103 59.0535C134.096 59.0902 134.078 59.124 134.051 59.1505C134.025 59.177 133.991 59.1951 133.954 59.2024C133.917 59.2097 133.879 59.206 133.845 59.1916C133.81 59.1773 133.78 59.153 133.76 59.1218C133.739 59.0906 133.728 59.054 133.728 59.0165C133.728 58.9662 133.748 58.918 133.783 58.8824C133.819 58.8469 133.867 58.8269 133.917 58.8269Z" fill="#3E61EE"/>
<path d="M108.95 38.5996C108.319 38.5986 107.702 38.7847 107.176 39.1346C106.651 39.4845 106.241 39.9823 105.999 40.5651C105.757 41.1479 105.693 41.7895 105.816 42.4086C105.938 43.0277 106.241 43.5966 106.687 44.0433C107.133 44.4899 107.702 44.7943 108.321 44.9178C108.939 45.0413 109.581 44.9785 110.164 44.7372C110.748 44.4959 111.246 44.087 111.597 43.5623C111.948 43.0376 112.135 42.4207 112.135 41.7896C112.134 40.9446 111.799 40.1342 111.202 39.5362C110.605 38.9382 109.795 38.6014 108.95 38.5996V38.5996ZM108.95 41.9746C108.914 41.9737 108.878 41.9621 108.849 41.9413C108.819 41.9204 108.796 41.8912 108.782 41.8573C108.769 41.8234 108.766 41.7864 108.774 41.7508C108.781 41.7152 108.799 41.6826 108.825 41.6572C108.851 41.6318 108.884 41.6146 108.92 41.6078C108.956 41.601 108.993 41.6049 109.026 41.6191C109.06 41.6332 109.089 41.6569 109.109 41.6872C109.129 41.7176 109.14 41.7531 109.14 41.7896C109.139 41.8392 109.119 41.8866 109.083 41.9213C109.048 41.956 109 41.9751 108.95 41.9746Z" fill="#3E61EE"/>
<path d="M90.9748 91.6625C92.1825 91.6625 93.1615 90.6835 93.1615 89.4758C93.1615 88.2681 92.1825 87.2891 90.9748 87.2891C89.7671 87.2891 88.7881 88.2681 88.7881 89.4758C88.7881 90.6835 89.7671 91.6625 90.9748 91.6625Z" fill="#3E61EE"/>
<path d="M62.2638 53.4604C61.9053 53.4604 61.5549 53.5666 61.2568 53.7658C60.9587 53.9649 60.7264 54.2479 60.5892 54.5791C60.452 54.9103 60.4161 55.2747 60.486 55.6263C60.5559 55.9779 60.7285 56.3009 60.982 56.5544C61.2355 56.8078 61.5584 56.9805 61.91 57.0504C62.2616 57.1203 62.6261 57.0844 62.9572 56.9472C63.2884 56.81 63.5715 56.5776 63.7706 56.2795C63.9697 55.9815 64.076 55.631 64.0759 55.2725C64.0754 54.7921 63.8843 54.3315 63.5446 53.9918C63.2049 53.6521 62.7443 53.461 62.2638 53.4604Z" fill="#3E61EE"/>
<path d="M116.191 39.8511C115.808 39.8511 115.433 39.9647 115.115 40.1776C114.796 40.3904 114.548 40.693 114.401 41.047C114.255 41.401 114.216 41.7905 114.291 42.1663C114.366 42.5421 114.55 42.8872 114.821 43.1582C115.092 43.4291 115.437 43.6136 115.813 43.6884C116.189 43.7631 116.579 43.7247 116.933 43.5781C117.286 43.4315 117.589 43.1832 117.802 42.8646C118.015 42.546 118.128 42.1715 118.128 41.7883C118.128 41.2748 117.923 40.7826 117.56 40.4195C117.197 40.0564 116.705 39.852 116.191 39.8511V39.8511Z" fill="#3E61EE"/>
<path d="M86.9347 28.3954L78.6046 34.2955C78.4219 34.4228 78.2662 34.5851 78.1465 34.7728C78.0267 34.9606 77.9453 35.1703 77.907 35.3896C77.8687 35.609 77.8742 35.8338 77.9231 36.0511C77.9721 36.2683 78.0636 36.4737 78.1923 36.6555C78.321 36.8372 78.4844 36.9917 78.6732 37.1099C78.8619 37.2282 79.0721 37.308 79.2918 37.3446C79.5115 37.3812 79.7362 37.374 79.9531 37.3234C80.1699 37.2727 80.3746 37.1797 80.5554 37.0495L88.8852 31.1495C89.0691 31.0226 89.2259 30.8606 89.3467 30.6727C89.4675 30.4847 89.5498 30.2747 89.5888 30.0548C89.6277 29.8348 89.6227 29.6093 89.5738 29.3913C89.525 29.1733 89.4334 28.9672 89.3043 28.7849C89.1752 28.6026 89.0111 28.4478 88.8217 28.3294C88.6323 28.211 88.4213 28.1313 88.2009 28.0951C87.9804 28.0589 87.755 28.0668 87.5377 28.1183C87.3203 28.1699 87.1154 28.2641 86.9347 28.3954Z" fill="#3E61EE"/>
<path d="M90.0463 26.1921L89.9797 26.2396C89.7961 26.3669 89.6397 26.5294 89.5194 26.7176C89.3992 26.9058 89.3175 27.116 89.2791 27.336C89.2406 27.556 89.2463 27.7815 89.2957 27.9993C89.345 28.2171 89.4372 28.423 89.5667 28.6049C89.6962 28.7869 89.8606 28.9413 90.0502 29.0592C90.2399 29.1772 90.4511 29.2563 90.6716 29.292C90.8921 29.3277 91.1174 29.3193 91.3346 29.2673C91.5518 29.2152 91.7565 29.1206 91.9369 28.9888L92.0035 28.9413C92.1871 28.814 92.3435 28.6516 92.4638 28.4634C92.584 28.2752 92.6657 28.0649 92.7041 27.8449C92.7426 27.6249 92.7369 27.3995 92.6875 27.1816C92.6382 26.9638 92.546 26.758 92.4165 26.576C92.287 26.3941 92.1226 26.2396 91.9329 26.1217C91.7433 26.0037 91.5321 25.9246 91.3116 25.8889C91.0911 25.8532 90.8658 25.8616 90.6486 25.9136C90.4314 25.9657 90.2267 26.0603 90.0463 26.1921V26.1921Z" fill="#3E61EE"/>
<path d="M81.1509 37.8929L81.1425 37.8989C80.7734 38.1589 80.5226 38.5547 80.4452 38.9994C80.3677 39.4442 80.47 39.9015 80.7294 40.2709C80.9888 40.6403 81.3843 40.8917 81.8289 40.9698C82.2735 41.0479 82.731 40.9464 83.1008 40.6875C83.4707 40.4287 83.7226 40.0336 83.8014 39.5891C83.8802 39.1446 83.7794 38.687 83.521 38.3168C83.2627 37.9465 82.868 37.694 82.4237 37.6145C81.9793 37.535 81.5215 37.6352 81.1509 37.8929V37.8929Z" fill="#3E61EE"/>
<path d="M92.5985 29.7866L84.1933 35.7404C84.0095 35.8672 83.8526 36.0293 83.7318 36.2172C83.611 36.4051 83.5288 36.6151 83.4898 36.8351C83.4508 37.055 83.4558 37.2805 83.5047 37.4985C83.5535 37.7165 83.6452 37.9226 83.7743 38.1049C83.9034 38.2872 84.0674 38.442 84.2568 38.5604C84.4462 38.6789 84.6572 38.7585 84.8777 38.7947C85.0981 38.831 85.3235 38.8231 85.5409 38.7715C85.7582 38.7199 85.9631 38.6257 86.1438 38.4944L94.5493 32.5403C94.732 32.413 94.8877 32.2508 95.0074 32.063C95.1272 31.8752 95.2085 31.6656 95.2469 31.4462C95.2852 31.2268 95.2797 31.002 95.2308 30.7848C95.1818 30.5675 95.0903 30.3621 94.9616 30.1804C94.8329 29.9986 94.6694 29.8442 94.4807 29.7259C94.292 29.6076 94.0818 29.5279 93.8621 29.4912C93.6424 29.4546 93.4177 29.4618 93.2008 29.5125C92.9839 29.5631 92.7792 29.6562 92.5985 29.7863V29.7866Z" fill="#3E61EE"/>
<path d="M109.714 81.3657L105.318 84.4791C105.134 84.6059 104.978 84.768 104.857 84.9559C104.736 85.1438 104.654 85.3538 104.615 85.5738C104.576 85.7937 104.581 86.0192 104.63 86.2372C104.679 86.4552 104.77 86.6613 104.899 86.8436C105.028 87.0259 105.192 87.1807 105.382 87.2992C105.571 87.4176 105.782 87.4972 106.003 87.5335C106.223 87.5697 106.449 87.5618 106.666 87.5102C106.883 87.4587 107.088 87.3645 107.269 87.2331L111.664 84.1197C111.848 83.9929 112.005 83.8308 112.126 83.6429C112.247 83.455 112.329 83.2449 112.368 83.025C112.407 82.805 112.402 82.5795 112.353 82.3615C112.304 82.1436 112.212 81.9375 112.083 81.7552C111.954 81.5729 111.79 81.418 111.601 81.2996C111.411 81.1812 111.2 81.1015 110.98 81.0653C110.759 81.0291 110.534 81.037 110.317 81.0885C110.099 81.1401 109.894 81.2343 109.714 81.3657V81.3657Z" fill="#3E61EE"/>
<path d="M112.855 79.1385C112.673 79.2662 112.518 79.4285 112.399 79.6161C112.28 79.8038 112.199 80.0132 112.161 80.2321C112.124 80.4511 112.129 80.6755 112.178 80.8922C112.227 81.109 112.319 81.314 112.447 81.4953C112.576 81.6767 112.739 81.8309 112.927 81.9491C113.115 82.0673 113.325 82.1472 113.544 82.1841C113.763 82.2211 113.987 82.2143 114.204 82.1643C114.42 82.1144 114.625 82.0221 114.806 81.8928L115.599 81.3303C115.78 81.2022 115.934 81.0398 116.052 80.8522C116.17 80.6647 116.25 80.4557 116.287 80.2373C116.325 80.0188 116.319 79.7952 116.27 79.5791C116.22 79.363 116.129 79.1587 116.001 78.9778C115.873 78.797 115.711 78.6431 115.523 78.5251C115.335 78.407 115.127 78.327 114.908 78.2897C114.69 78.2524 114.466 78.2585 114.25 78.3076C114.034 78.3567 113.829 78.448 113.649 78.576L112.855 79.1385Z" fill="#3E61EE"/>
<path d="M112.155 85.0361L110.906 85.9206C110.724 86.0479 110.568 86.2101 110.448 86.3979C110.328 86.5857 110.247 86.7953 110.209 87.0147C110.17 87.2341 110.176 87.4589 110.225 87.6762C110.274 87.8934 110.365 88.0988 110.494 88.2806C110.623 88.4623 110.786 88.6168 110.975 88.735C111.164 88.8533 111.374 88.933 111.594 88.9697C111.813 89.0063 112.038 88.9991 112.255 88.9485C112.472 88.8978 112.676 88.8047 112.857 88.6746L114.106 87.7901C114.29 87.6633 114.446 87.5012 114.567 87.3133C114.688 87.1254 114.77 86.9153 114.809 86.6954C114.848 86.4754 114.843 86.2499 114.794 86.0319C114.745 85.814 114.654 85.6079 114.525 85.4256C114.396 85.2433 114.232 85.0884 114.042 84.97C113.853 84.8516 113.642 84.772 113.421 84.7357C113.201 84.6995 112.975 84.7074 112.758 84.7589C112.541 84.8105 112.336 84.9047 112.155 85.0361V85.0361Z" fill="#3E61EE"/>
<path d="M119.312 79.9687L116.199 82.1731C116.018 82.3012 115.865 82.4637 115.747 82.6513C115.629 82.8389 115.549 83.0479 115.511 83.2663C115.474 83.4848 115.48 83.7085 115.529 83.9245C115.579 84.1406 115.67 84.3449 115.798 84.5258C115.926 84.7066 116.089 84.8604 116.276 84.9785C116.464 85.0965 116.673 85.1764 116.891 85.2137C117.11 85.251 117.333 85.2448 117.549 85.1957C117.765 85.1465 117.97 85.0552 118.151 84.9271L121.262 82.7227C121.446 82.5959 121.603 82.4338 121.724 82.2459C121.845 82.058 121.927 81.848 121.966 81.628C122.005 81.408 122 81.1825 121.951 80.9646C121.902 80.7466 121.81 80.5405 121.681 80.3582C121.552 80.1759 121.388 80.021 121.199 79.9026C121.009 79.7842 120.798 79.7046 120.578 79.6683C120.358 79.6321 120.132 79.64 119.915 79.6916C119.697 79.7431 119.492 79.8373 119.312 79.9687V79.9687Z" fill="#3E61EE"/>
<path d="M27.9518 96.6573C28.0254 96.8664 28.1394 97.059 28.2875 97.224C28.4356 97.389 28.6147 97.5231 28.8147 97.6187C29.0147 97.7144 29.2316 97.7696 29.453 97.7813C29.6743 97.793 29.8959 97.761 30.1048 97.6869L43.5463 92.9434C44.3734 95.5839 46.1048 97.8485 48.4361 99.339L31.3814 130.612C31.2733 130.807 31.2047 131.021 31.1797 131.242C31.1548 131.464 31.1738 131.688 31.2359 131.901C31.2979 132.115 31.4017 132.315 31.5412 132.488C31.6807 132.662 31.8531 132.806 32.0487 132.913C32.2442 133.02 32.4589 133.086 32.6804 133.11C32.9019 133.133 33.1258 133.112 33.3392 133.048C33.5526 132.985 33.7513 132.879 33.9238 132.739C34.0963 132.598 34.2393 132.424 34.3444 132.228L51.5203 100.734C53.622 101.337 55.8511 101.337 57.9528 100.734L75.1282 132.228C75.2333 132.424 75.3762 132.598 75.5487 132.739C75.7212 132.879 75.9199 132.985 76.1333 133.048C76.3467 133.112 76.5706 133.133 76.7921 133.11C77.0136 133.086 77.2283 133.02 77.4239 132.913C77.6194 132.806 77.7919 132.662 77.9314 132.488C78.0709 132.315 78.1746 132.115 78.2367 131.901C78.2987 131.688 78.3178 131.464 78.2928 131.242C78.2678 131.021 78.1993 130.807 78.0911 130.612L61.037 99.3398C62.9773 98.1059 64.5104 96.3269 65.4445 94.2257C66.3786 92.1246 66.6721 89.7945 66.2882 87.5273L94.9945 77.3964L95.6105 79.1424C95.6842 79.3514 95.7984 79.5438 95.9465 79.7087C96.0946 79.8735 96.2738 80.0076 96.4737 80.1032C96.6736 80.1988 96.8904 80.2541 97.1117 80.2659C97.333 80.2777 97.5545 80.2459 97.7634 80.1721L106.941 76.9332C107.15 76.8595 107.342 76.7453 107.507 76.5972C107.672 76.4491 107.806 76.27 107.902 76.0701C107.997 75.8701 108.052 75.6533 108.064 75.432C108.076 75.2107 108.044 74.9892 107.971 74.7803L107.462 73.3386C108.639 71.2797 109.358 68.9913 109.572 66.6293C109.785 64.2672 109.487 61.8869 108.698 59.6505C107.908 57.414 106.647 55.3738 104.998 53.6688C103.35 51.9638 101.353 50.6339 99.1444 49.7698L98.5684 48.1386C98.4946 47.9296 98.3804 47.7372 98.2323 47.5723C98.0842 47.4075 97.9051 47.2735 97.7051 47.1778C97.5052 47.0822 97.2884 47.0269 97.0671 47.0151C96.8458 47.0033 96.6244 47.0352 96.4154 47.1089L87.2382 50.3478C86.8162 50.4967 86.4707 50.8072 86.2776 51.2109C86.0845 51.6146 86.0597 52.0785 86.2086 52.5005L86.8245 54.2465L47.0937 68.2682C46.8847 68.3419 46.6923 68.4561 46.5275 68.6043C46.3627 68.7524 46.2286 68.9315 46.133 69.1314C46.0374 69.3313 45.9821 69.5481 45.9702 69.7694C45.9584 69.9907 45.9903 70.2122 46.0641 70.4212L46.3214 71.1502L23.5725 79.1787C23.3635 79.2525 23.1711 79.3667 23.0063 79.5148C22.8414 79.6629 22.7074 79.842 22.6118 80.042C22.5162 80.2419 22.4609 80.4587 22.449 80.68C22.4372 80.9013 22.4691 81.1227 22.5428 81.3317L23.001 82.6299L9.7049 87.3223L9.61153 87.0574C9.53777 86.8484 9.42358 86.656 9.27546 86.4912C9.12735 86.3263 8.94822 86.1923 8.7483 86.0966C8.54837 86.001 8.33158 85.9457 8.11028 85.9339C7.88899 85.9221 7.66753 85.954 7.45856 86.0277L2.53106 87.7664C2.10908 87.9154 1.76355 88.2258 1.57045 88.6295C1.37736 89.0332 1.35252 89.4971 1.5014 89.9191L6.18056 103.178C6.25428 103.387 6.36847 103.58 6.51659 103.745C6.66471 103.91 6.84387 104.044 7.04383 104.139C7.24378 104.235 7.46062 104.29 7.68196 104.302C7.9033 104.314 8.1248 104.282 8.33381 104.208L13.2602 102.47C13.6822 102.321 14.0277 102.01 14.2208 101.606C14.4139 101.203 14.4387 100.739 14.2898 100.317L14.1965 100.052L27.4928 95.3593L27.9518 96.6573ZM54.7364 97.8104C53.592 97.8111 52.4599 97.575 51.4112 97.1168C51.3982 97.1112 51.3856 97.1048 51.3724 97.0991C49.4872 96.266 47.9775 94.764 47.1348 92.8832C46.2921 91.0023 46.1761 88.8758 46.8092 86.9144C47.4424 84.953 48.7797 83.2958 50.5631 82.2626C52.3465 81.2294 54.4494 80.8935 56.4659 81.3199C58.4824 81.7463 60.2694 82.9046 61.4819 84.5712C62.6945 86.2379 63.2465 88.2946 63.0315 90.3444C62.8166 92.3942 61.8498 94.2917 60.3178 95.6705C58.7859 97.0493 56.7975 97.8117 54.7364 97.8104V97.8104ZM106.263 65.1449C106.263 66.3187 106.106 67.4871 105.796 68.6192L100.808 54.485C102.498 55.7013 103.875 57.3025 104.823 59.1561C105.772 61.0098 106.265 63.0626 106.263 65.1449V65.1449ZM95.9471 50.8529L104.226 74.3114L98.2317 76.427L89.9526 52.9688L95.9471 50.8529ZM87.9467 57.4291L93.8701 74.213L65.2535 84.3127C64.107 81.972 62.2124 80.0806 59.8697 78.9381C57.5271 77.7956 54.8702 77.4673 52.3199 78.0051L49.8086 70.8894L87.9467 57.4291ZM47.4447 74.3339L49.1525 79.1714C47.2988 80.1777 45.7509 81.6653 44.6718 83.4776C43.5928 85.2899 43.0225 87.3596 43.0212 89.4688C43.0212 89.4969 43.0232 89.522 43.0232 89.549L30.5717 93.9429L26.2874 81.7997L47.4447 74.3339ZM8.80293 100.464L5.24625 90.3874L6.99 89.7717L10.5467 99.8486L8.80293 100.464ZM13.0743 96.8691L10.8279 90.5058L24.124 85.8134L26.3701 92.1773L13.0743 96.8691Z" fill="#17E5C3"/>
<path d="M78.2806 66.8379C78.4722 66.8379 78.6624 66.8053 78.8431 66.7414L84.7808 64.6458C84.9898 64.5719 85.1821 64.4576 85.3469 64.3094C85.5117 64.1612 85.6457 63.982 85.7413 63.782C85.8368 63.582 85.892 63.3651 85.9037 63.1438C85.9155 62.9225 85.8835 62.701 85.8096 62.492C85.7357 62.283 85.6214 62.0906 85.4732 61.9259C85.325 61.7611 85.1458 61.6271 84.9458 61.5315C84.7458 61.436 84.5289 61.3808 84.3076 61.3691C84.0863 61.3573 83.8648 61.3893 83.6558 61.4632L77.7183 63.5585C77.3424 63.6908 77.0254 63.9518 76.8235 64.2954C76.6216 64.6389 76.5477 65.0429 76.6151 65.4357C76.6825 65.8284 76.8867 66.1847 77.1916 66.4414C77.4964 66.698 77.8823 66.8385 78.2808 66.8379H78.2806Z" fill="#17E5C3"/>
<path d="M60.2061 73.2175C60.3977 73.2176 60.5879 73.185 60.7686 73.1211L74.2528 68.3623C74.4618 68.2886 74.6542 68.1744 74.8191 68.0263C74.9839 67.8781 75.118 67.699 75.2136 67.4991C75.3092 67.2992 75.3645 67.0824 75.3763 66.8611C75.3881 66.6398 75.3563 66.4183 75.2825 66.2094C75.2087 66.0004 75.0945 65.808 74.9464 65.6431C74.7983 65.4783 74.6192 65.3443 74.4193 65.2486C74.2193 65.153 74.0025 65.0977 73.7812 65.0859C73.56 65.0741 73.3385 65.1059 73.1295 65.1797L59.6453 69.9385C59.2695 70.0708 58.9527 70.3319 58.751 70.6754C58.5492 71.0189 58.4755 71.4227 58.5429 71.8154C58.6102 72.208 58.8143 72.5641 59.119 72.8208C59.4237 73.0774 59.8094 73.2179 60.2078 73.2175H60.2061Z" fill="#17E5C3"/>
<path d="M54.737 83.5532C53.5668 83.5532 52.4229 83.9001 51.4499 84.5502C50.477 85.2002 49.7186 86.1242 49.2708 87.2053C48.8229 88.2864 48.7057 89.476 48.934 90.6237C49.1622 91.7713 49.7257 92.8256 50.5531 93.653C51.3805 94.4804 52.4347 95.044 53.5824 95.2723C54.73 95.5006 55.9196 95.3834 57.0007 94.9356C58.0818 94.4878 59.0058 93.7295 59.656 92.7566C60.3061 91.7836 60.6531 90.6398 60.6531 89.4696C60.6513 87.9011 60.0274 86.3973 58.9183 85.2882C57.8092 84.179 56.3055 83.5551 54.737 83.5532ZM54.737 92.0107C54.2343 92.0107 53.7429 91.8617 53.325 91.5825C52.907 91.3033 52.5812 90.9064 52.3888 90.442C52.1964 89.9776 52.1461 89.4666 52.2441 88.9736C52.3422 88.4806 52.5842 88.0277 52.9397 87.6723C53.2951 87.3169 53.748 87.0748 54.241 86.9768C54.734 86.8787 55.245 86.9291 55.7094 87.1214C56.1738 87.3138 56.5707 87.6396 56.8499 88.0576C57.1291 88.4756 57.2781 88.9669 57.2781 89.4696C57.2773 90.1433 57.0093 90.7891 56.5329 91.2655C56.0565 91.7419 55.4107 92.0099 54.737 92.0107V92.0107Z" fill="#17E5C3"/>
<path d="M70.5762 55.274C70.5765 55.3068 70.5896 55.3381 70.6127 55.3612C70.6359 55.3843 70.6672 55.3975 70.6999 55.3978C70.7331 55.3978 70.765 55.3846 70.7884 55.3611C70.8119 55.3376 70.8251 55.3058 70.8251 55.2726C70.8251 55.2394 70.8119 55.2076 70.7884 55.1841C70.765 55.1606 70.7331 55.1475 70.6999 55.1475C70.6668 55.1479 70.6351 55.1615 70.6119 55.1852C70.5887 55.2089 70.5759 55.2409 70.5762 55.274V55.274Z" fill="#3E61EE"/>
</svg>
