<svg viewBox="0 0 144 144" fill="none" xmlns="http://www.w3.org/2000/svg">
<path d="M33.6598 121.73H33.657C26.8788 115.456 21.4442 107.871 17.682 99.4356C16.0435 95.7599 14.7371 91.945 13.7782 88.0366C11.0076 76.712 11.1678 64.8683 14.2437 53.6228H14.4335L14.2564 53.575C17.8744 40.475 25.3295 28.7571 35.6623 19.9291H35.6685L35.6657 19.9263C46.8665 10.3208 60.8995 4.63897 75.6279 3.74596C74.229 3.65989 72.8192 3.61583 71.3985 3.61377C57.7078 3.63003 44.3396 7.77139 33.0374 15.4978C21.7353 23.2242 13.0236 34.177 8.03848 46.9278C3.05338 59.6787 2.02623 73.6359 5.09098 86.9792C8.15574 100.322 15.1702 112.433 25.2195 121.73H25.2223C37.7721 133.385 54.2713 139.852 71.3979 139.829C72.8229 139.829 74.2363 139.785 75.638 139.696C59.9872 138.749 45.1504 132.399 33.6598 121.73V121.73Z" fill="#3E61EE" fill-opacity="0.2"/>
<path d="M90.2535 70.7344C90.2534 72.6289 91.003 74.4465 92.3385 75.7902C93.674 77.1339 95.487 77.8947 97.3815 77.9062H116.612C117.693 77.9062 118.731 78.3359 119.495 79.1007C120.26 79.8655 120.69 80.9028 120.69 81.9844C120.69 83.066 120.26 84.1032 119.495 84.868C118.731 85.6328 117.693 86.0625 116.612 86.0625H78.8477C76.9829 86.0625 75.1944 86.8033 73.8758 88.1219C72.5572 89.4405 71.8164 91.2289 71.8164 93.0938C71.8164 94.9586 72.5572 96.747 73.8758 98.0656C75.1944 99.3842 76.9829 100.125 78.8477 100.125H133.875V96.75H78.8477C77.878 96.75 76.948 96.3648 76.2623 95.6791C75.5766 94.9934 75.1914 94.0634 75.1914 93.0938C75.1914 92.1241 75.5766 91.1941 76.2623 90.5084C76.948 89.8227 77.878 89.4375 78.8477 89.4375H116.612C118.588 89.4375 120.484 88.6523 121.882 87.2545C123.28 85.8568 124.065 83.9611 124.065 81.9844C124.065 80.0077 123.28 78.1119 121.882 76.7142C120.484 75.3165 118.588 74.5312 116.612 74.5312H97.3815C96.3745 74.5312 95.4087 74.1312 94.6967 73.4192C93.9846 72.7071 93.5846 71.7414 93.5846 70.7344C93.5846 69.7274 93.9846 68.7616 94.6967 68.0496C95.4087 67.3375 96.3745 66.9375 97.3815 66.9375H139.219V63.5625H97.3815C95.487 63.5741 93.674 64.3348 92.3385 65.6785C91.003 67.0223 90.2534 68.8399 90.2535 70.7344V70.7344Z" fill="#3E61EE"/>
<path d="M123.949 55.6875H136.969V52.3125H123.949C122.942 52.3125 121.976 51.9125 121.264 51.2004C120.552 50.4884 120.152 49.5226 120.152 48.5156C120.152 47.5086 120.552 46.5429 121.264 45.8308C121.976 45.1188 122.942 44.7188 123.949 44.7188H133.313V41.3438H123.949C122.047 41.3438 120.223 42.0994 118.878 43.4443C117.533 44.7893 116.777 46.6135 116.777 48.5156C116.777 50.4177 117.533 52.2419 118.878 53.5869C120.223 54.9319 122.047 55.6875 123.949 55.6875V55.6875Z" fill="#3E61EE"/>
<path d="M74.6761 47.9531C74.6774 45.9886 73.9025 44.1031 72.5201 42.7072C71.1378 41.3112 69.26 40.518 67.2955 40.5H31.0601C30.0531 40.5 29.0874 40.1 28.3753 39.3879C27.6633 38.6759 27.2633 37.7101 27.2633 36.7031C27.2633 35.6961 27.6633 34.7304 28.3753 34.0183C29.0874 33.3063 30.0531 32.9062 31.0601 32.9062H49.0081C50.9475 32.9062 52.8075 32.1358 54.1788 30.7645C55.5502 29.3931 56.3206 27.5331 56.3206 25.5938C56.3206 23.6544 55.5502 21.7944 54.1788 20.423C52.8075 19.0517 50.9475 18.2813 49.0081 18.2812H27.2813V21.6562H49.0081C50.0524 21.6562 51.0539 22.0711 51.7923 22.8095C52.5308 23.5479 52.9456 24.5495 52.9456 25.5938C52.9456 26.638 52.5308 27.6396 51.7923 28.378C51.0539 29.1164 50.0524 29.5313 49.0081 29.5312H31.0601C29.158 29.5312 27.3338 30.2869 25.9888 31.6318C24.6439 32.9768 23.8883 34.801 23.8883 36.7031C23.8883 38.6052 24.6439 40.4294 25.9888 41.7744C27.3338 43.1194 29.158 43.875 31.0601 43.875H67.2955C68.3771 43.875 69.4144 44.3047 70.1792 45.0695C70.944 45.8343 71.3737 46.8715 71.3737 47.9531C71.3737 49.0347 70.944 50.072 70.1792 50.8368C69.4144 51.6016 68.3771 52.0312 67.2955 52.0312H5.90625V55.4062H67.2955C69.26 55.3883 71.1378 54.595 72.5201 53.1991C73.9025 51.8032 74.6774 49.9177 74.6761 47.9531Z" fill="#3E61EE"/>
<path d="M41.1072 108.562H15.4688V111.938H41.1072C42.1888 111.938 43.2261 112.367 43.9909 113.132C44.7557 113.897 45.1853 114.934 45.1853 116.016C45.1853 117.097 44.7557 118.134 43.9909 118.899C43.2261 119.664 42.1888 120.094 41.1072 120.094H25.3125V123.469H41.1072C43.0839 123.469 44.9796 122.684 46.3774 121.286C47.7751 119.888 48.5603 117.992 48.5603 116.016C48.5603 114.039 47.7751 112.143 46.3774 110.745C44.9796 109.348 43.0839 108.563 41.1072 108.562V108.562Z" fill="#3E61EE"/>
<path d="M26.8253 93.7969C26.8275 94.8666 26.4085 95.8942 25.6589 96.6574C24.9093 97.4206 23.8894 97.858 22.8198 97.875H9.28125V101.25H22.8198C24.7965 101.25 26.6922 100.465 28.0899 99.067C29.4877 97.6693 30.2729 95.7736 30.2729 93.7969C30.2729 91.8202 29.4877 89.9244 28.0899 88.5267C26.6922 87.129 24.7965 86.3438 22.8198 86.3438H5.34375V89.7188H22.8198C23.8894 89.7357 24.9093 90.1732 25.6589 90.9363C26.4085 91.6995 26.8275 92.7271 26.8253 93.7969V93.7969Z" fill="#3E61EE"/>
<path d="M140.315 24.3163C140.062 23.9475 139.672 23.6946 139.232 23.6131C138.792 23.5317 138.337 23.6284 137.969 23.882C137.6 24.1357 137.347 24.5254 137.265 24.9655C137.184 25.4056 137.281 25.86 137.534 26.2288C138.102 27.0545 138.662 27.9028 139.198 28.7494C139.316 28.9393 139.469 29.1041 139.651 29.2342C139.832 29.3643 140.038 29.4571 140.255 29.5072C140.473 29.5574 140.698 29.5638 140.918 29.5262C141.138 29.4886 141.349 29.4078 141.537 29.2883C141.726 29.1688 141.889 29.0131 142.017 28.8301C142.145 28.6472 142.235 28.4407 142.283 28.2226C142.33 28.0045 142.334 27.7791 142.294 27.5594C142.254 27.3398 142.171 27.1304 142.049 26.9432C141.492 26.0603 140.908 25.1766 140.315 24.3163V24.3163Z" fill="#3E61EE"/>
<path d="M120.427 5.98291C120.557 5.80284 120.649 5.59909 120.7 5.38329C120.75 5.16749 120.757 4.94387 120.721 4.72519C120.685 4.50651 120.607 4.29707 120.49 4.10881C120.373 3.92056 120.22 3.75718 120.04 3.62801C119.115 2.96454 118.162 2.31007 117.208 1.68373C116.834 1.44262 116.38 1.359 115.945 1.45107C115.509 1.54313 115.128 1.80343 114.884 2.1753C114.639 2.54718 114.552 3.00052 114.64 3.43667C114.728 3.87282 114.985 4.25646 115.355 4.5041C116.27 5.1057 117.185 5.73345 118.072 6.37048C118.252 6.49971 118.456 6.5922 118.672 6.64266C118.888 6.69312 119.111 6.70057 119.33 6.66458C119.549 6.62859 119.758 6.54987 119.947 6.4329C120.135 6.31594 120.298 6.16303 120.427 5.98291V5.98291Z" fill="#3E61EE"/>
<path d="M8.44984 124.248C8.62296 124.11 8.76712 123.939 8.87411 123.745C8.9811 123.551 9.04881 123.338 9.07339 123.117C9.09796 122.897 9.07892 122.674 9.01734 122.461C8.95576 122.248 8.85286 122.05 8.7145 121.877C8.152 121.173 7.59287 120.448 7.05316 119.724C6.92071 119.546 6.75456 119.396 6.56421 119.283C6.37385 119.169 6.16301 119.095 5.94372 119.063C5.72444 119.031 5.501 119.042 5.28617 119.097C5.07133 119.151 4.86931 119.247 4.69164 119.379C4.51397 119.512 4.36412 119.678 4.25066 119.868C4.1372 120.059 4.06234 120.27 4.03036 120.489C3.99838 120.708 4.0099 120.932 4.06428 121.146C4.11865 121.361 4.2148 121.563 4.34725 121.741C4.90975 122.495 5.49166 123.25 6.07806 123.983C6.2164 124.157 6.38748 124.301 6.58154 124.408C6.7756 124.515 6.98884 124.582 7.20908 124.607C7.42932 124.632 7.65225 124.613 7.86514 124.551C8.07803 124.49 8.27672 124.387 8.44984 124.248V124.248Z" fill="#3E61EE"/>
<path d="M28.2779 139.485C26.4867 138.339 24.7173 137.106 23.0186 135.82C22.8422 135.683 22.6405 135.583 22.4251 135.525C22.2097 135.466 21.985 135.452 21.7638 135.481C21.5427 135.51 21.3295 135.583 21.1367 135.695C20.9439 135.807 20.7752 135.957 20.6405 136.135C20.5057 136.312 20.4076 136.515 20.3517 136.731C20.2958 136.947 20.2833 137.172 20.3148 137.393C20.3464 137.614 20.4215 137.826 20.5357 138.018C20.6498 138.209 20.8009 138.376 20.9801 138.509C22.7488 139.85 24.5922 141.135 26.4591 142.328C26.6458 142.45 26.8549 142.534 27.0743 142.575C27.2937 142.616 27.519 142.613 27.7372 142.566C27.9554 142.52 28.1622 142.43 28.3456 142.303C28.5289 142.176 28.6852 142.013 28.8054 141.825C28.9257 141.637 29.0074 141.427 29.0459 141.207C29.0843 140.988 29.0789 140.762 29.0297 140.545C28.9805 140.327 28.8887 140.121 28.7594 139.939C28.6302 139.757 28.4662 139.603 28.2768 139.485H28.2779Z" fill="#3E61EE"/>
<path d="M28.5127 60.75C28.0651 60.75 27.6359 60.9278 27.3195 61.2443C27.003 61.5607 26.8252 61.9899 26.8252 62.4375C26.8252 62.8851 27.003 63.3143 27.3195 63.6307C27.6359 63.9472 28.0651 64.125 28.5127 64.125H37.7813C38.2288 64.125 38.6581 63.9472 38.9745 63.6307C39.291 63.3143 39.4688 62.8851 39.4688 62.4375C39.4688 61.9899 39.291 61.5607 38.9745 61.2443C38.6581 60.9278 38.2288 60.75 37.7813 60.75H28.5127Z" fill="#3E61EE"/>
<path d="M67.2953 60.75H44.3223C43.8747 60.75 43.4455 60.9278 43.129 61.2443C42.8126 61.5607 42.6348 61.9899 42.6348 62.4375C42.6348 62.8851 42.8126 63.3143 43.129 63.6307C43.4455 63.9472 43.8747 64.125 44.3223 64.125H67.2953C67.7429 64.125 68.1721 63.9472 68.4886 63.6307C68.805 63.3143 68.9828 62.8851 68.9828 62.4375C68.9828 61.9899 68.805 61.5607 68.4886 61.2443C68.1721 60.9278 67.7429 60.75 67.2953 60.75Z" fill="#3E61EE"/>
<path d="M116.281 105.75H96.8604C96.4128 105.75 95.9836 105.928 95.6671 106.244C95.3506 106.561 95.1729 106.99 95.1729 107.438C95.1729 107.885 95.3506 108.314 95.6671 108.631C95.9836 108.947 96.4128 109.125 96.8604 109.125H116.281C116.729 109.125 117.158 108.947 117.474 108.631C117.791 108.314 117.969 107.885 117.969 107.438C117.969 106.99 117.791 106.561 117.474 106.244C117.158 105.928 116.729 105.75 116.281 105.75Z" fill="#3E61EE"/>
<path d="M90.5474 105.75H83.0625C82.6149 105.75 82.1857 105.928 81.8693 106.244C81.5528 106.561 81.375 106.99 81.375 107.438C81.375 107.885 81.5528 108.314 81.8693 108.631C82.1857 108.947 82.6149 109.125 83.0625 109.125H90.5474C90.995 109.125 91.4242 108.947 91.7406 108.631C92.0571 108.314 92.2349 107.885 92.2349 107.438C92.2349 106.99 92.0571 106.561 91.7406 106.244C91.4242 105.928 90.995 105.75 90.5474 105.75V105.75Z" fill="#3E61EE"/>
<path d="M128.771 3.7041C127.656 3.7034 126.555 3.94761 125.545 4.41948C124.535 4.89135 123.641 5.57936 122.926 6.43484C122.212 7.29032 121.694 8.29238 121.409 9.37017C121.124 10.448 121.079 11.5752 121.278 12.672C121.477 13.7689 121.915 14.8087 122.56 15.7179C123.205 16.6271 124.042 17.3834 125.012 17.9334C125.981 18.4835 127.06 18.8137 128.171 18.9009C129.283 18.9881 130.399 18.8301 131.443 18.4379C132.456 19.5807 133.44 20.7571 134.382 21.9499C134.52 22.1239 134.69 22.2691 134.883 22.3773C135.077 22.4855 135.289 22.5545 135.51 22.5804C135.73 22.6064 135.953 22.5887 136.166 22.5284C136.379 22.4682 136.578 22.3665 136.752 22.2292C136.926 22.0919 137.072 21.9217 137.18 21.7283C137.288 21.5349 137.357 21.3221 137.383 21.102C137.409 20.8819 137.391 20.6589 137.331 20.4456C137.271 20.2324 137.169 20.0331 137.032 19.8591C136.147 18.7383 135.224 17.6322 134.279 16.5524C135.304 15.4745 135.991 14.1195 136.254 12.655C136.518 11.1906 136.345 9.68107 135.759 8.31348C135.173 6.94589 134.199 5.78027 132.957 4.96097C131.715 4.14167 130.26 3.70467 128.772 3.7041H128.771ZM124.544 11.3142C124.544 10.5898 124.729 9.87745 125.083 9.2455C125.437 8.61356 125.948 8.0832 126.566 7.7053C127.184 7.3274 127.889 7.11464 128.613 7.08743C129.336 7.06022 130.055 7.21947 130.7 7.54991C131.344 7.88035 131.893 8.37088 132.294 8.97447C132.694 9.57805 132.933 10.2744 132.987 10.9968C133.041 11.7192 132.909 12.4433 132.602 13.0997C132.296 13.7561 131.826 14.3228 131.238 14.7454C131.031 14.8201 130.841 14.9348 130.678 15.0829C130.676 15.0846 130.675 15.0871 130.673 15.0888C130.084 15.3894 129.432 15.5463 128.771 15.5467C127.65 15.5444 126.575 15.0976 125.783 14.3041C124.99 13.5107 124.545 12.4355 124.544 11.3142V11.3142Z" fill="#3E61EE"/>
<path d="M23.6876 130.697C23.6877 130.343 23.5763 129.997 23.3694 129.71C23.1624 129.423 22.8703 129.208 22.5345 129.096C21.218 128.653 20.022 127.91 19.0404 126.927C18.0588 125.945 17.3181 124.748 16.8766 123.431C16.7646 123.094 16.5498 122.802 16.2624 122.595C15.9751 122.388 15.6298 122.276 15.2756 122.276C14.9213 122.276 14.5761 122.388 14.2887 122.595C14.0014 122.802 13.7865 123.094 13.6745 123.431C13.2327 124.747 12.492 125.944 11.5104 126.926C10.5287 127.909 9.33293 128.651 8.01664 129.094C7.68076 129.206 7.38865 129.421 7.18165 129.708C6.97466 129.995 6.86328 130.34 6.86328 130.694C6.86328 131.048 6.97466 131.393 7.18165 131.681C7.38865 131.968 7.68076 132.183 8.01664 132.295C9.33316 132.738 10.5291 133.481 11.5107 134.464C12.4924 135.446 13.233 136.643 13.6745 137.961C13.7865 138.297 14.0014 138.589 14.2887 138.796C14.5761 139.003 14.9213 139.115 15.2756 139.115C15.6298 139.115 15.9751 139.003 16.2624 138.796C16.5498 138.589 16.7646 138.297 16.8766 137.961C17.3181 136.643 18.0588 135.446 19.0404 134.464C20.022 133.481 21.218 132.738 22.5345 132.295C22.8699 132.183 23.1617 131.968 23.3686 131.682C23.5755 131.395 23.6871 131.05 23.6876 130.697ZM15.2754 133.723C14.4496 132.548 13.4265 131.524 12.2514 130.697C13.4265 129.87 14.4496 128.846 15.2754 127.67C16.1015 128.846 17.1246 129.87 18.2997 130.697C17.1246 131.523 16.1014 132.547 15.2754 133.722V133.723Z" fill="#3E61EE"/>
<path d="M71.3967 1.92749C62.2368 1.9331 53.1676 3.74284 44.7071 7.25339C36.2465 10.7639 28.5603 15.9065 22.0872 22.3876C15.6141 28.8686 10.4809 36.5612 6.9807 45.026C3.48052 53.4909 1.6819 62.5622 1.68751 71.7222C1.69746 83.1833 4.53317 94.4652 9.94357 104.569C15.354 114.673 23.1721 123.287 32.7058 129.648C42.2395 136.009 53.1946 139.922 64.6012 141.039C76.0077 142.156 87.5138 140.444 98.1006 136.053C108.687 131.663 118.028 124.73 125.297 115.868C132.565 107.006 137.536 96.4887 139.769 85.2474C142.003 74.006 141.43 62.3873 138.102 51.42C134.774 40.4527 128.794 30.4751 120.689 22.3707C114.235 15.8706 106.554 10.7165 98.0926 7.20725C89.6311 3.69798 80.5571 1.90338 71.3967 1.92749V1.92749ZM118.301 118.688C109.021 127.968 97.1956 134.287 84.3226 136.844C71.4495 139.402 58.1071 138.083 45.9838 133.055C33.8606 128.027 23.5013 119.515 16.217 108.598C8.93269 97.68 5.05079 84.8468 5.06251 71.7222C5.07226 60.8159 7.77096 50.0803 12.9197 40.4659C18.0684 30.8515 25.5083 22.6548 34.5806 16.6018C43.6529 10.5487 54.0777 6.8259 64.9321 5.76302C75.7864 4.70014 86.7354 6.32997 96.8096 10.5082C106.884 14.6864 115.772 21.2841 122.688 29.7172C129.604 38.1502 134.334 48.1584 136.459 58.8556C138.585 69.5528 138.039 80.609 134.872 91.0452C131.705 101.481 126.013 110.976 118.301 118.688V118.688Z" fill="#17E5C3"/>
</svg>
