<svg viewBox="0 0 80 80" fill="none" xmlns="http://www.w3.org/2000/svg">
<g clip-path="url(#clip0_6873_13530)">
<path d="M18.6999 67.6281H18.6983C14.9327 64.1423 11.9134 59.9286 9.82329 55.2422C8.91303 53.2001 8.18722 51.0807 7.65454 48.9094C6.11532 42.618 6.20432 36.0381 7.91314 29.7906H8.01861L7.92017 29.7641C9.93021 22.4863 14.0719 15.9763 19.8124 11.0719H19.8158L19.8142 11.0703C26.0369 5.73395 33.833 2.57737 42.0155 2.08125C41.2383 2.03344 40.4551 2.00896 39.6658 2.00781C32.0598 2.01685 24.6331 4.3176 18.3541 8.61004C12.0751 12.9025 7.2353 18.9874 4.4658 26.0712C1.6963 33.155 1.12566 40.909 2.8283 48.3219C4.53094 55.7349 8.42783 62.4627 14.0108 67.6281H14.0124C20.9845 74.1028 30.1507 77.6955 39.6655 77.6828C40.4571 77.6828 41.2424 77.6583 42.0211 77.6092C33.3262 77.0827 25.0835 73.555 18.6999 67.6281Z" fill="#3E61EE" fill-opacity="0.2"/>
<path d="M50.1408 39.2969C50.1407 40.3494 50.5572 41.3592 51.2991 42.1057C52.0411 42.8522 53.0483 43.2748 54.1008 43.2812H64.7842C65.3851 43.2812 65.9614 43.5199 66.3862 43.9448C66.8111 44.3697 67.0498 44.946 67.0498 45.5469C67.0498 46.1478 66.8111 46.724 66.3862 47.1489C65.9614 47.5738 65.3851 47.8125 64.7842 47.8125H43.8042C42.7682 47.8125 41.7746 48.224 41.0421 48.9566C40.3095 49.6892 39.8979 50.6827 39.8979 51.7188C39.8979 52.7548 40.3095 53.7483 41.0421 54.4809C41.7746 55.2134 42.7682 55.625 43.8042 55.625H74.3751V53.75H43.8042C43.2655 53.75 42.7488 53.536 42.3679 53.1551C41.987 52.7741 41.773 52.2575 41.773 51.7188C41.773 51.18 41.987 50.6634 42.3679 50.2824C42.7488 49.9015 43.2655 49.6875 43.8042 49.6875H64.7842C65.8824 49.6875 66.9355 49.2513 67.7121 48.4747C68.4886 47.6982 68.9248 46.645 68.9248 45.5469C68.9248 44.4487 68.4886 43.3955 67.7121 42.619C66.9355 41.8425 65.8824 41.4062 64.7842 41.4062H54.1008C53.5413 41.4062 53.0048 41.184 52.6092 40.7884C52.2136 40.3928 51.9914 39.8563 51.9914 39.2969C51.9914 38.7374 52.2136 38.2009 52.6092 37.8053C53.0048 37.4097 53.5413 37.1875 54.1008 37.1875H77.3439V35.3125H54.1008C53.0483 35.3189 52.0411 35.7416 51.2991 36.4881C50.5572 37.2346 50.1407 38.2444 50.1408 39.2969Z" fill="#3E61EE"/>
<path d="M68.8606 30.9375H76.0937V29.0625H68.8606C68.3012 29.0625 67.7646 28.8403 67.369 28.4447C66.9735 28.0491 66.7512 27.5126 66.7512 26.9531C66.7512 26.3937 66.9735 25.8572 67.369 25.4616C67.7646 25.066 68.3012 24.8438 68.8606 24.8438H74.0625V22.9688H68.8606C67.8039 22.9688 66.7904 23.3885 66.0432 24.1357C65.296 24.883 64.8762 25.8964 64.8762 26.9531C64.8762 28.0098 65.296 29.0233 66.0432 29.7705C66.7904 30.5177 67.8039 30.9375 68.8606 30.9375Z" fill="#3E61EE"/>
<path d="M41.4867 26.6406C41.4874 25.5492 41.0569 24.5017 40.289 23.7262C39.521 22.9507 38.4778 22.51 37.3864 22.5H17.2556C16.6962 22.5 16.1597 22.2778 15.7641 21.8822C15.3685 21.4866 15.1463 20.9501 15.1463 20.3906C15.1463 19.8312 15.3685 19.2947 15.7641 18.8991C16.1597 18.5035 16.6962 18.2812 17.2556 18.2812H27.2267C28.3042 18.2812 29.3375 17.8532 30.0993 17.0914C30.8612 16.3295 31.2892 15.2962 31.2892 14.2188C31.2892 13.1413 30.8612 12.108 30.0993 11.3461C29.3375 10.5843 28.3042 10.1563 27.2267 10.1562H15.1563V12.0312H27.2267C27.8069 12.0312 28.3633 12.2617 28.7735 12.672C29.1838 13.0822 29.4142 13.6386 29.4142 14.2188C29.4142 14.7989 29.1838 15.3553 28.7735 15.7655C28.3633 16.1758 27.8069 16.4062 27.2267 16.4062H17.2556C16.1989 16.4062 15.1855 16.826 14.4382 17.5732C13.691 18.3205 13.2713 19.3339 13.2713 20.3906C13.2713 21.4473 13.691 22.4608 14.4382 23.208C15.1855 23.9552 16.1989 24.375 17.2556 24.375H37.3864C37.9873 24.375 38.5636 24.6137 38.9884 25.0386C39.4133 25.4635 39.652 26.0397 39.652 26.6406C39.652 27.2415 39.4133 27.8178 38.9884 28.2427C38.5636 28.6676 37.9873 28.9062 37.3864 28.9062H3.28125V30.7812H37.3864C38.4778 30.7713 39.521 30.3306 40.289 29.555C41.0569 28.7795 41.4874 27.732 41.4867 26.6406Z" fill="#3E61EE"/>
<path d="M22.8373 60.3125H8.59375V62.1875H22.8373C23.4382 62.1875 24.0145 62.4262 24.4394 62.8511C24.8643 63.276 25.103 63.8522 25.103 64.4531C25.103 65.054 24.8643 65.6303 24.4394 66.0552C24.0145 66.4801 23.4382 66.7188 22.8373 66.7188H14.0625V68.5938H22.8373C23.9355 68.5938 24.9887 68.1575 25.7652 67.381C26.5417 66.6045 26.978 65.5513 26.978 64.4531C26.978 63.355 26.5417 62.3018 25.7652 61.5253C24.9887 60.7487 23.9355 60.3125 22.8373 60.3125Z" fill="#3E61EE"/>
<path d="M14.903 52.1094C14.9042 52.7037 14.6714 53.2746 14.255 53.6986C13.8385 54.1226 13.2719 54.3656 12.6777 54.375H5.15625V56.25H12.6777C13.7758 56.25 14.829 55.8138 15.6055 55.0372C16.382 54.2607 16.8183 53.2075 16.8183 52.1094C16.8183 51.0112 16.382 49.958 15.6055 49.1815C14.829 48.405 13.7758 47.9688 12.6777 47.9688H2.96875V49.8438H12.6777C13.2719 49.8532 13.8385 50.0962 14.255 50.5202C14.6714 50.9442 14.9042 51.5151 14.903 52.1094Z" fill="#3E61EE"/>
<path d="M77.953 13.5098C77.8121 13.3049 77.5956 13.1644 77.3511 13.1192C77.1066 13.0739 76.8541 13.1277 76.6492 13.2686C76.4443 13.4095 76.3038 13.626 76.2586 13.8705C76.2133 14.115 76.2671 14.3674 76.408 14.5723C76.7233 15.0311 77.0342 15.5023 77.3323 15.9726C77.3975 16.0782 77.483 16.1697 77.5838 16.242C77.6845 16.3143 77.7987 16.3658 77.9196 16.3937C78.0404 16.4215 78.1656 16.4251 78.2879 16.4042C78.4101 16.3833 78.527 16.3384 78.6318 16.272C78.7366 16.2056 78.8271 16.1191 78.8982 16.0175C78.9693 15.9159 79.0196 15.8011 79.046 15.68C79.0724 15.5588 79.0746 15.4336 79.0523 15.3116C79.03 15.1896 78.9837 15.0732 78.9161 14.9692C78.6064 14.4787 78.2822 13.9878 77.953 13.5098Z" fill="#3E61EE"/>
<path d="M66.9041 3.32411C66.9758 3.22407 67.0272 3.11088 67.0552 2.99099C67.0832 2.8711 67.0874 2.74686 67.0674 2.62538C67.0474 2.50389 67.0037 2.38753 66.9387 2.28295C66.8737 2.17836 66.7888 2.08759 66.6888 2.01583C66.1747 1.64724 65.6455 1.28364 65.1156 0.935675C64.9079 0.801729 64.6556 0.755274 64.4137 0.806421C64.1718 0.857568 63.96 1.00218 63.8242 1.20877C63.6884 1.41537 63.6398 1.66723 63.6888 1.90953C63.7378 2.15184 63.8805 2.36497 64.0859 2.50255C64.5945 2.83677 65.1025 3.18552 65.5956 3.53943C65.6957 3.61122 65.8089 3.6626 65.9288 3.69064C66.0487 3.71867 66.173 3.72281 66.2945 3.70282C66.416 3.68282 66.5323 3.63909 66.6369 3.57411C66.7415 3.50913 66.8323 3.42418 66.9041 3.32411Z" fill="#3E61EE"/>
<path d="M4.69433 69.0265C4.7905 68.9497 4.8706 68.8546 4.93003 68.7468C4.98947 68.639 5.02709 68.5205 5.04074 68.3982C5.0544 68.2758 5.04382 68.152 5.00961 68.0337C4.9754 67.9154 4.91823 67.805 4.84136 67.7089C4.52886 67.3183 4.21824 66.9151 3.91839 66.5129C3.84481 66.4142 3.75251 66.331 3.64676 66.2679C3.541 66.2049 3.42387 66.1633 3.30204 66.1456C3.18022 66.1278 3.05608 66.1342 2.93673 66.1644C2.81738 66.1946 2.70515 66.248 2.60644 66.3216C2.50773 66.3952 2.42449 66.4875 2.36145 66.5932C2.29842 66.699 2.25683 66.8161 2.23906 66.938C2.22129 67.0598 2.2277 67.1839 2.2579 67.3033C2.28811 67.4226 2.34153 67.5349 2.41511 67.6336C2.72761 68.0526 3.05089 68.4717 3.37667 68.8793C3.45353 68.9755 3.54857 69.0556 3.65638 69.1151C3.7642 69.1745 3.88266 69.2122 4.00502 69.2258C4.12737 69.2395 4.25122 69.2289 4.3695 69.1947C4.48777 69.1605 4.59815 69.1034 4.69433 69.0265Z" fill="#3E61EE"/>
<path d="M15.7097 77.4921C14.7146 76.8559 13.7316 76.1707 12.7879 75.456C12.6899 75.3802 12.5778 75.3245 12.4582 75.2922C12.3385 75.2599 12.2137 75.2516 12.0908 75.2679C11.9679 75.2841 11.8495 75.3246 11.7424 75.3869C11.6353 75.4493 11.5416 75.5322 11.4667 75.631C11.3919 75.7298 11.3373 75.8424 11.3063 75.9624C11.2752 76.0823 11.2683 76.2073 11.2858 76.33C11.3034 76.4527 11.345 76.5707 11.4085 76.6771C11.4719 76.7836 11.5558 76.8764 11.6554 76.9503C12.638 77.6951 13.6621 78.4089 14.6993 79.0718C14.803 79.1398 14.9192 79.1864 15.041 79.2092C15.1629 79.2319 15.2881 79.2302 15.4093 79.2042C15.5306 79.1783 15.6455 79.1285 15.7473 79.0578C15.8492 78.9871 15.936 78.897 16.0028 78.7925C16.0696 78.688 16.115 78.5714 16.1364 78.4492C16.1578 78.3271 16.1547 78.202 16.1274 78.081C16.1001 77.9601 16.049 77.8458 15.9772 77.7447C15.9055 77.6436 15.8143 77.5578 15.7091 77.4921H15.7097Z" fill="#3E61EE"/>
<path d="M15.8405 33.75C15.5918 33.75 15.3534 33.8488 15.1775 34.0246C15.0017 34.2004 14.903 34.4389 14.903 34.6875C14.903 34.9361 15.0017 35.1746 15.1775 35.3504C15.3534 35.5262 15.5918 35.625 15.8405 35.625H20.9897C21.2383 35.625 21.4768 35.5262 21.6526 35.3504C21.8284 35.1746 21.9272 34.9361 21.9272 34.6875C21.9272 34.4389 21.8284 34.2004 21.6526 34.0246C21.4768 33.8488 21.2383 33.75 20.9897 33.75H15.8405Z" fill="#3E61EE"/>
<path d="M37.3865 33.75H24.6237C24.375 33.75 24.1366 33.8488 23.9607 34.0246C23.7849 34.2004 23.6862 34.4389 23.6862 34.6875C23.6862 34.9361 23.7849 35.1746 23.9607 35.3504C24.1366 35.5262 24.375 35.625 24.6237 35.625H37.3865C37.6351 35.625 37.8736 35.5262 38.0494 35.3504C38.2252 35.1746 38.324 34.9361 38.324 34.6875C38.324 34.4389 38.2252 34.2004 38.0494 34.0246C37.8736 33.8488 37.6351 33.75 37.3865 33.75Z" fill="#3E61EE"/>
<path d="M64.6008 58.75H53.8114C53.5628 58.75 53.3243 58.8488 53.1485 59.0246C52.9727 59.2004 52.8739 59.4389 52.8739 59.6875C52.8739 59.9361 52.9727 60.1746 53.1485 60.3504C53.3243 60.5262 53.5628 60.625 53.8114 60.625H64.6008C64.8494 60.625 65.0879 60.5262 65.2637 60.3504C65.4395 60.1746 65.5383 59.9361 65.5383 59.6875C65.5383 59.4389 65.4395 59.2004 65.2637 59.0246C65.0879 58.8488 64.8494 58.75 64.6008 58.75Z" fill="#3E61EE"/>
<path d="M50.3043 58.75H46.146C45.8974 58.75 45.6589 58.8488 45.4831 59.0246C45.3073 59.2004 45.2085 59.4389 45.2085 59.6875C45.2085 59.9361 45.3073 60.1746 45.4831 60.3504C45.6589 60.5262 45.8974 60.625 46.146 60.625H50.3043C50.5529 60.625 50.7914 60.5262 50.9672 60.3504C51.143 60.1746 51.2418 59.9361 51.2418 59.6875C51.2418 59.4389 51.143 59.2004 50.9672 59.0246C50.7914 58.8488 50.5529 58.75 50.3043 58.75Z" fill="#3E61EE"/>
<path d="M71.5395 2.05859C70.9201 2.0582 70.3083 2.19388 69.7472 2.45603C69.1861 2.71818 68.6894 3.1004 68.2923 3.57567C67.8953 4.05094 67.6074 4.60764 67.4492 5.20641C67.291 5.80519 67.2663 6.4314 67.3768 7.04079C67.4873 7.65017 67.7304 8.22783 68.0887 8.73292C68.4471 9.23802 68.9121 9.65821 69.4508 9.96378C69.9895 10.2693 70.5887 10.4528 71.2061 10.5013C71.8236 10.5497 72.4441 10.4619 73.0238 10.2441C73.5863 10.8789 74.1332 11.5325 74.6568 12.1952C74.7331 12.2918 74.8276 12.3725 74.9351 12.4326C75.0425 12.4927 75.1607 12.531 75.283 12.5454C75.4053 12.5598 75.5292 12.55 75.6477 12.5165C75.7661 12.4831 75.8769 12.4266 75.9735 12.3503C76.0702 12.274 76.1508 12.1795 76.2109 12.072C76.271 11.9646 76.3094 11.8464 76.3238 11.7241C76.3382 11.6018 76.3284 11.4779 76.2949 11.3594C76.2614 11.241 76.2049 11.1302 76.1287 11.0336C75.6373 10.4109 75.1244 9.79641 74.5991 9.19656C75.169 8.59773 75.5506 7.8449 75.6968 7.03132C75.843 6.21774 75.7474 5.37913 75.4218 4.61936C75.0961 3.85959 74.5548 3.21202 73.8648 2.75685C73.1747 2.30169 72.3664 2.05891 71.5398 2.05859H71.5395ZM69.191 6.28641C69.1908 5.88397 69.294 5.48823 69.4907 5.13715C69.6874 4.78607 69.9711 4.49142 70.3144 4.28148C70.6577 4.07154 71.0492 3.95334 71.4514 3.93822C71.8535 3.9231 72.2528 4.01158 72.611 4.19515C72.9691 4.37873 73.274 4.65125 73.4965 4.98657C73.7191 5.3219 73.8517 5.70877 73.8817 6.11009C73.9117 6.5114 73.838 6.9137 73.6678 7.27837C73.4977 7.64305 73.2366 7.95788 72.9098 8.19266C72.7949 8.23415 72.6893 8.29786 72.599 8.38016C72.5977 8.38109 72.5971 8.3825 72.5959 8.38344C72.2687 8.55044 71.9067 8.63761 71.5395 8.63781C70.9165 8.63653 70.3195 8.38829 69.8792 7.94751C69.439 7.50673 69.1915 6.90937 69.191 6.28641Z" fill="#3E61EE"/>
<path d="M13.16 72.6096C13.16 72.4129 13.0981 72.2211 12.9832 72.0615C12.8682 71.9019 12.7059 71.7825 12.5193 71.7202C11.7879 71.474 11.1235 71.0616 10.5782 70.5156C10.0328 69.9695 9.62136 69.3046 9.37605 68.5729C9.31386 68.3862 9.19449 68.2237 9.03485 68.1087C8.87521 67.9936 8.6834 67.9316 8.4866 67.9316C8.2898 67.9316 8.09799 67.9936 7.93835 68.1087C7.77871 68.2237 7.65934 68.3862 7.59715 68.5729C7.35169 69.3044 6.94016 69.9691 6.39482 70.5149C5.84947 71.0607 5.18514 71.4728 4.45387 71.719C4.26727 71.7812 4.10498 71.9006 3.98998 72.0602C3.87499 72.2198 3.81311 72.4115 3.81311 72.6083C3.81311 72.805 3.87499 72.9967 3.98998 73.1563C4.10498 73.3159 4.26727 73.4353 4.45387 73.4976C5.18527 73.7438 5.84969 74.1562 6.39503 74.7023C6.94038 75.2484 7.35184 75.9133 7.59715 76.6451C7.65934 76.8318 7.77871 76.9942 7.93835 77.1093C8.09799 77.2244 8.2898 77.2863 8.4866 77.2863C8.6834 77.2863 8.87521 77.2244 9.03485 77.1093C9.19449 76.9942 9.31386 76.8318 9.37605 76.6451C9.62136 75.9133 10.0328 75.2484 10.5782 74.7023C11.1235 74.1562 11.7879 73.7438 12.5193 73.4976C12.7057 73.4353 12.8678 73.3161 12.9827 73.1568C13.0977 72.9975 13.1597 72.8061 13.16 72.6096ZM8.48652 74.2912C8.02775 73.6379 7.45936 73.069 6.80652 72.6096C7.45933 72.1502 8.02771 71.5813 8.48652 70.928C8.94543 71.5812 9.51386 72.1501 10.1667 72.6096C9.51384 73.0688 8.9454 73.6375 8.48652 74.2905V74.2912Z" fill="#3E61EE"/>
<path d="M39.6648 1.07045C34.576 1.07356 29.5376 2.07898 24.8373 4.02928C20.1369 5.97959 15.8668 8.83659 12.2706 12.4372C8.67448 16.0377 5.82271 20.3114 3.87817 25.0141C1.93362 29.7168 0.934387 34.7564 0.937507 39.8453C0.943035 46.2126 2.51843 52.4803 5.52421 58.0935C8.52998 63.7067 12.8734 68.4921 18.1699 72.0262C23.4664 75.5602 29.5526 77.7338 35.8895 78.3546C42.2265 78.9753 48.6188 78.0239 54.5004 75.5848C60.3819 73.1456 65.5714 69.2939 69.6092 64.3706C73.647 59.4474 76.4087 53.6045 77.6496 47.3593C78.8905 41.1141 78.5724 34.6592 76.7235 28.5663C74.8747 22.4733 71.552 16.9302 67.0497 12.4278C63.4638 8.81662 59.1968 5.95324 54.4959 4.00365C49.7951 2.05405 44.7539 1.05705 39.6648 1.07045ZM65.723 65.9372C60.5671 71.0929 53.9976 74.6033 46.8459 76.0241C39.6942 77.445 32.2817 76.7123 25.5466 73.9189C18.8114 71.1255 13.0563 66.397 9.00944 60.3316C4.96261 54.2663 2.80599 47.1367 2.81251 39.8453C2.81792 33.7863 4.3172 27.822 7.1776 22.4807C10.038 17.1393 14.1713 12.5856 19.2114 9.22282C24.2516 5.86 30.0432 3.79178 36.0734 3.2013C42.1036 2.61081 48.1863 3.51627 53.7831 5.83751C59.3799 8.15874 64.3179 11.8241 68.1601 16.5092C72.0023 21.1942 74.6301 26.7543 75.8108 32.6972C76.9914 38.6401 76.6886 44.7824 74.929 50.5803C73.1694 56.3782 70.0074 61.6528 65.723 65.9372Z" fill="#968B82"/>
</g>
<defs>
<clipPath id="clip0_6873_13530">
<rect width="80" height="80" fill="white"/>
</clipPath>
</defs>
</svg>
