<svg viewBox="0 0 144 144" fill="none" xmlns="http://www.w3.org/2000/svg">
<path d="M18.8579 102.949L18.2561 101.714C14.2254 93.2923 11.9572 84.1363 11.5904 74.8072L11.5342 72.0104V72.0003C11.5342 39.1756 34.4887 11.7161 65.2183 4.7855C65.2673 4.37066 65.3308 3.95947 65.4132 3.55531L65.3992 3.40625C30.4426 6.73062 3.09668 36.1719 3.09668 72.0003C3.09668 72.9397 3.11543 73.8753 3.15293 74.8072C3.86577 92.5852 11.4325 109.397 24.2671 121.72C37.1017 134.042 54.2078 140.918 72.0001 140.907C73.41 140.907 74.8087 140.859 76.1975 140.775C64.1668 140.035 52.5407 136.152 42.4793 129.515C32.418 122.878 24.2733 113.718 18.8579 102.949Z" fill="#3E61EE" fill-opacity="0.2"/>
<path d="M14.2283 72.8101C16.0154 73.2488 17.936 73.7205 20.287 73.7205C22.4867 73.6983 24.6686 73.323 26.7493 72.609C32.4702 70.7387 34.8628 67.8888 36.9736 65.3741C38.9704 62.9947 40.8573 60.7476 45.6619 59.1771C50.4665 57.6066 53.3145 58.3052 56.3298 59.0454C59.5172 59.8282 63.1298 60.7149 68.851 58.8443L110.956 45.0786C116.677 43.208 119.07 40.3578 121.181 37.8431C122.892 35.8055 124.508 33.8806 127.907 32.3903L126.551 29.2993C122.431 31.1066 120.481 33.4281 118.597 35.673C116.6 38.0524 114.712 40.2998 109.906 41.8706L67.8022 55.6364C62.9976 57.2075 60.1497 56.5083 57.1344 55.7678C53.947 54.9856 50.3343 54.0985 44.6132 55.9688C38.892 57.8392 36.4997 60.6896 34.3889 63.204C32.392 65.5834 30.5051 67.8306 25.7005 69.4011C20.8959 70.9716 18.0483 70.2729 15.033 69.5327C11.8456 68.7503 8.23291 67.8632 2.51172 69.7335L3.5605 72.9417C8.36481 71.3707 11.213 72.0701 14.2283 72.8101Z" fill="#3E61EE"/>
<path d="M27.2205 81.7028C32.2914 80.1399 35.2488 80.9117 38.3797 81.7287C41.6689 82.5865 45.3968 83.5597 51.3855 81.7138C57.3742 79.868 59.9318 76.9607 62.192 74.3932C64.3477 71.9443 66.3843 69.6316 71.4594 68.0673L115.702 54.4306C120.774 52.8671 123.731 53.6386 126.863 54.4556C130.061 55.2901 133.369 56.1527 138.635 54.7909L137.791 51.5233C133.374 52.666 130.625 51.9491 127.716 51.19C124.426 50.3316 120.698 49.3588 114.709 51.2052L70.4652 64.8425C64.4805 66.6872 61.9189 69.5956 59.6587 72.1634C57.503 74.612 55.4664 76.9247 50.3913 78.489C45.3161 80.0533 42.3627 79.2807 39.2318 78.4634C35.9412 77.6053 32.2147 76.6325 26.2263 78.4783C20.2379 80.3242 17.6799 83.2314 15.4198 85.799C13.2638 88.2478 11.2275 90.5605 6.15234 92.1248L7.14656 95.3499C13.1313 93.5052 15.6929 90.5968 17.953 88.0293C20.1094 85.5807 22.1453 83.2677 27.2205 81.7028Z" fill="#3E61EE"/>
<path d="M46.3841 66.8244C46.7825 66.6204 47.0835 66.2666 47.221 65.8406C47.3585 65.4147 47.3211 64.9516 47.1172 64.5532C46.9132 64.1548 46.5593 63.8537 46.1334 63.7162C45.7074 63.5788 45.2443 63.6161 44.8459 63.8201C41.8733 65.343 39.5526 67.8906 38.3128 70.992C38.0996 71.5269 38.1072 72.1245 38.3339 72.6539C38.5606 73.1832 38.9879 73.6011 39.5221 73.816C41.2079 74.4909 43.0101 74.827 44.8258 74.8052C46.6415 74.7833 48.4351 74.4039 50.1041 73.6885C51.7731 72.9732 53.2848 71.936 54.5528 70.6363C55.8208 69.3365 56.8202 67.7996 57.494 66.1134C57.7073 65.5785 57.6998 64.9808 57.4731 64.4514C57.2464 63.922 56.819 63.5041 56.2846 63.2894C54.8199 62.7003 53.2649 62.3673 51.6873 62.305C51.2401 62.2875 50.8042 62.4483 50.4756 62.7522C50.147 63.056 49.9525 63.4779 49.935 63.9251C49.9175 64.3724 50.0783 64.8082 50.3822 65.1369C50.686 65.4655 51.1079 65.6599 51.5551 65.6775C52.3184 65.7073 53.076 65.8214 53.8141 66.0178C52.6906 68.0595 50.9171 69.6672 48.7753 70.5856C46.6335 71.5041 44.2462 71.6805 41.9926 71.087C42.9978 69.2594 44.5273 67.7747 46.3841 66.8244Z" fill="#3E61EE"/>
<path d="M53.2394 23.9748C53.4593 23.94 53.6702 23.8619 53.8598 23.7452C54.0495 23.6284 54.2141 23.4753 54.3443 23.2946C54.4745 23.114 54.5676 22.9093 54.6184 22.6925C54.6691 22.4756 54.6764 22.2509 54.6398 22.0312C54.6033 21.8115 54.5236 21.6013 54.4055 21.4125C54.2873 21.2238 54.1329 21.0603 53.9512 20.9315C53.7696 20.8027 53.5642 20.7111 53.347 20.6621C53.1297 20.613 52.905 20.6074 52.6856 20.6457C48.33 21.3709 44.3848 23.6498 41.5804 27.0604C41.1851 27.5419 40.9969 28.1605 41.0568 28.7806C41.1168 29.4007 41.4202 29.9717 41.9005 30.3685C43.519 31.7058 45.3564 32.7535 47.3317 33.4653C47.5402 33.5404 47.7615 33.5736 47.9828 33.5631C48.2042 33.5527 48.4213 33.4987 48.6218 33.4044C48.8223 33.31 49.0023 33.1771 49.1514 33.0131C49.3006 32.8492 49.4159 32.6575 49.491 32.449C49.566 32.2405 49.5993 32.0192 49.5888 31.7979C49.5784 31.5765 49.5244 31.3594 49.43 31.1589C49.3357 30.9584 49.2027 30.7784 49.0388 30.6293C48.8749 30.4802 48.6832 30.3648 48.4747 30.2897C47.1992 29.8303 45.9928 29.198 44.8893 28.4104C47.1165 26.0635 50.0478 24.5064 53.2394 23.9748Z" fill="#3E61EE"/>
<path d="M54.6034 34.5059C54.6406 34.5059 54.678 34.5059 54.7159 34.5022C57.2058 34.3344 59.6353 33.6604 61.8557 32.5214C64.0761 31.3824 66.0408 29.8024 67.6295 27.8779C68.0248 27.3965 68.213 26.778 68.1531 26.158C68.0932 25.5379 67.7899 24.967 67.3098 24.5701C65.7006 23.2405 63.875 22.1972 61.9126 21.4857C61.493 21.3381 61.0321 21.3622 60.6301 21.5527C60.2282 21.7432 59.9177 22.0847 59.7662 22.5029C59.6148 22.9211 59.6345 23.3822 59.8212 23.7859C60.0078 24.1896 60.3464 24.5033 60.7631 24.6587C62.0288 25.1176 63.226 25.7468 64.3217 26.529C61.7508 29.258 58.2366 30.9048 54.4943 31.1342C54.0583 31.164 53.6508 31.3619 53.3577 31.6861C53.0645 32.0103 52.9086 32.4356 52.9228 32.8724C52.9369 33.3092 53.12 33.7236 53.4335 34.0281C53.7469 34.3327 54.1664 34.5038 54.6034 34.5053V34.5059Z" fill="#3E61EE"/>
<path d="M48.9661 113.911C49.1649 113.811 49.3418 113.672 49.4869 113.503C49.6319 113.335 49.7421 113.139 49.8112 112.927C49.8802 112.716 49.9067 112.492 49.8892 112.271C49.8717 112.049 49.8104 111.833 49.709 111.634C49.6076 111.436 49.468 111.26 49.2982 111.116C49.1285 110.973 48.9319 110.864 48.7199 110.796C48.5079 110.728 48.2846 110.703 48.0629 110.722C47.8411 110.741 47.6254 110.804 47.4279 110.907C44.4553 112.429 42.1345 114.977 40.8948 118.079C40.6816 118.613 40.6892 119.211 40.9159 119.74C41.1426 120.27 41.5699 120.687 42.1042 120.902C43.7898 121.577 45.5919 121.913 47.4075 121.891C49.2231 121.87 51.0166 121.49 52.6855 120.775C54.3544 120.06 55.8661 119.023 57.1341 117.723C58.4021 116.424 59.4016 114.887 60.0755 113.201C60.2886 112.666 60.2809 112.068 60.0542 111.539C59.8276 111.01 59.4003 110.592 58.8661 110.377C57.4013 109.788 55.8461 109.455 54.2685 109.392C53.8213 109.375 53.3855 109.536 53.0569 109.84C52.7283 110.144 52.5339 110.566 52.5165 111.013C52.499 111.46 52.6599 111.896 52.9638 112.224C53.2677 112.553 53.6897 112.747 54.1369 112.765C54.9 112.795 55.6575 112.909 56.3956 113.105C55.2721 115.147 53.4985 116.755 51.3566 117.673C49.2147 118.591 46.8274 118.768 44.5738 118.174C45.5792 116.346 47.109 114.861 48.9661 113.911Z" fill="#3E61EE"/>
<path d="M102.323 91.2293C102.521 91.1291 102.698 90.9907 102.843 90.8219C102.988 90.6531 103.099 90.4573 103.168 90.2457C103.237 90.0342 103.263 89.811 103.246 89.5892C103.228 89.3673 103.167 89.1512 103.065 88.9531C102.964 88.755 102.824 88.5789 102.655 88.435C102.485 88.2911 102.288 88.1822 102.076 88.1145C101.864 88.0469 101.641 88.0218 101.419 88.0408C101.198 88.0598 100.982 88.1225 100.784 88.2252C97.8118 89.7481 95.491 92.2957 94.2512 95.3971C94.0381 95.932 94.0457 96.5297 94.2724 97.059C94.4991 97.5884 94.9264 98.0063 95.4606 98.2211C96.6846 98.7126 97.9727 99.0264 99.2856 99.1529C99.3419 99.158 99.3947 99.1608 99.4485 99.1608C99.8821 99.1605 100.299 98.9934 100.613 98.694C100.926 98.3946 101.113 97.986 101.133 97.5528C101.154 97.1197 101.006 96.6953 100.722 96.3677C100.438 96.0401 100.039 95.8345 99.6074 95.7934C99.0415 95.739 98.4811 95.6382 97.9317 95.4922C98.9368 93.6646 100.466 92.1799 102.323 91.2293Z" fill="#3E61EE"/>
<path d="M104.55 95.0621C104.344 95.1451 104.156 95.2681 103.997 95.424C103.838 95.5799 103.712 95.7656 103.625 95.9704C103.539 96.1753 103.494 96.3953 103.492 96.6177C103.491 96.8401 103.534 97.0606 103.618 97.2665C103.702 97.4724 103.826 97.6596 103.983 97.8173C104.14 97.9751 104.326 98.1003 104.531 98.1857C104.737 98.2712 104.957 98.3152 105.179 98.3152C105.402 98.3153 105.622 98.2714 105.827 98.186C107.548 97.4893 109.11 96.4506 110.417 95.1328C111.725 93.815 112.751 92.2455 113.434 90.5194C113.648 89.9845 113.64 89.3869 113.413 88.8576C113.187 88.3283 112.759 87.9104 112.225 87.6956C110.76 87.1065 109.205 86.7735 107.627 86.7113C107.18 86.6937 106.744 86.8544 106.416 87.1583C106.087 87.4621 105.892 87.884 105.875 88.3313C105.857 88.7785 106.018 89.2144 106.322 89.5431C106.625 89.8719 107.047 90.0664 107.495 90.084C108.258 90.1138 109.016 90.228 109.754 90.4246C108.607 92.5252 106.768 94.1639 104.55 95.0621Z" fill="#3E61EE"/>
<path d="M140.988 71.2867C129.197 70.2641 124.66 74.271 121.014 77.4908C119.126 79.1583 117.495 80.5983 115.087 81.1597C112.243 81.822 110.32 81.176 108.284 80.4917C105.796 79.6558 102.976 78.7086 98.8783 80.4116C94.9276 82.0541 93.7177 84.8083 92.6501 87.2381C91.682 89.4419 90.9173 91.1829 88.2164 92.3056L61.6121 103.366C58.9121 104.489 57.1403 103.803 54.8973 102.934C52.4223 101.976 49.6194 100.89 45.6681 102.533C41.7168 104.176 40.5077 106.929 39.4404 109.359C38.4723 111.563 37.7076 113.304 35.007 114.427C32.3065 115.55 30.5351 114.863 28.2922 113.995C25.8172 113.037 23.0142 111.951 19.0632 113.593C18.65 113.765 18.3219 114.094 18.1511 114.508C17.9803 114.922 17.9809 115.386 18.1527 115.799C18.3245 116.213 18.6534 116.541 19.0671 116.712C19.4808 116.882 19.9454 116.882 20.3587 116.71C23.0587 115.587 24.8306 116.273 27.0735 117.142C28.6204 117.741 30.2981 118.391 32.3048 118.391C33.6807 118.378 35.0401 118.09 36.3027 117.543C40.2535 115.901 41.4634 113.147 42.5307 110.717C43.4988 108.513 44.2635 106.772 46.9641 105.65C49.6646 104.527 51.436 105.213 53.6789 106.081C56.1539 107.039 58.9566 108.125 62.9079 106.482L89.5121 95.4219C93.4629 93.7797 94.6728 91.0254 95.7404 88.5956C96.7088 86.3915 97.4735 84.6508 100.174 83.5281C103.102 82.3106 104.915 82.9197 107.209 83.6909C109.49 84.4576 112.076 85.3264 115.853 84.4464C119.091 83.6921 121.204 81.8257 123.248 80.0203C126.738 76.9381 130.347 73.7513 140.696 74.6485C141.142 74.6863 141.584 74.5458 141.926 74.258C142.268 73.9701 142.482 73.5583 142.52 73.113C142.559 72.6677 142.419 72.2252 142.132 71.8827C141.845 71.5402 141.433 71.3256 140.988 71.2861L140.988 71.2867Z" fill="#3E61EE"/>
<path d="M137.477 89.5215C133.363 91.367 130.024 91.4359 125.399 91.5318C123.506 91.5709 121.36 91.6162 118.886 91.7867C114.639 92.0814 113.274 95.4069 112.176 98.0788C111.198 100.459 110.274 102.708 107.673 103.783C104.971 104.9 103.201 104.211 100.959 103.338C98.4873 102.375 95.6855 101.285 91.7309 102.918L65.1046 113.926C61.1505 115.56 59.9353 118.313 58.8629 120.739C57.8903 122.941 57.1219 124.681 54.4191 125.798C51.7163 126.915 49.9472 126.225 47.7054 125.353C45.2335 124.389 42.4317 123.298 38.4776 124.933C36.3825 125.749 34.6262 127.252 33.4955 129.195C33.3769 129.385 33.2974 129.598 33.2617 129.819C33.2261 130.04 33.2348 130.267 33.2876 130.485C33.3404 130.703 33.4361 130.908 33.5691 131.088C33.7021 131.269 33.8698 131.421 34.0623 131.536C34.2548 131.651 34.4684 131.727 34.6904 131.758C34.9124 131.79 35.1385 131.777 35.3555 131.72C35.5724 131.663 35.7759 131.564 35.9539 131.427C36.1319 131.291 36.281 131.12 36.3924 130.926C37.1492 129.605 38.3426 128.588 39.7674 128.052C42.4696 126.935 44.2393 127.624 46.4811 128.497C48.953 129.46 51.7545 130.552 55.7089 128.917C59.6633 127.282 60.8783 124.531 61.9507 122.103C62.9233 119.901 63.6916 118.162 66.3945 117.045L93.0209 106.037C95.7232 104.92 97.4928 105.61 99.7347 106.483C102.207 107.446 105.009 108.537 108.963 106.902C112.862 105.291 114.213 102.003 115.298 99.3616C116.423 96.6208 117.057 95.2967 119.12 95.1538C121.513 94.9878 123.615 94.9445 125.47 94.906C130.302 94.8059 134.119 94.7271 138.859 92.5998C139.263 92.4138 139.578 92.0759 139.734 91.6595C139.89 91.2431 139.875 90.7819 139.693 90.3761C139.511 89.9704 139.176 89.6529 138.762 89.4927C138.347 89.3325 137.885 89.3425 137.478 89.5206L137.477 89.5215Z" fill="#3E61EE"/>
<path d="M13.7275 37.3115C15.3109 37.1281 16.9784 36.8347 18.5908 36.5521C22.1346 35.9291 25.7979 35.2865 28.9971 35.6946C31.6631 36.0363 34.4533 37.4805 37.4084 38.9728C41.3229 40.9497 45.3715 43.031 49.885 43.031H49.8965C58.2105 43.031 65.9668 39.7837 76.6996 35.3385C86.5895 31.2421 98.8981 26.127 116.99 21.0966C117.204 21.0372 117.405 20.9362 117.58 20.7993C117.756 20.6623 117.902 20.4922 118.012 20.2986C118.122 20.105 118.192 19.8917 118.219 19.6709C118.246 19.4501 118.23 19.2261 118.171 19.0117C118.111 18.7972 118.01 18.5966 117.873 18.4212C117.736 18.2458 117.566 18.0992 117.373 17.9895C117.179 17.8799 116.966 17.8094 116.745 17.7822C116.524 17.755 116.3 17.7716 116.086 17.831C97.7962 22.9171 85.3827 28.0912 75.4081 32.2225C64.6486 36.6787 57.5397 39.656 49.8968 39.656H49.8861C46.1758 39.656 42.4917 37.7589 38.9289 35.9595C35.8497 34.4045 32.666 32.7788 29.4249 32.3637C25.7183 31.8884 21.7977 32.5696 18.0061 33.2356C16.3698 33.5233 14.8241 33.7905 13.3391 33.9623C13.118 33.9864 12.9039 34.054 12.7091 34.1611C12.5143 34.2683 12.3426 34.4129 12.204 34.5867C12.0653 34.7605 11.9624 34.96 11.9011 35.1737C11.8399 35.3874 11.8215 35.6112 11.8471 35.832C11.8727 36.0529 11.9418 36.2665 12.0503 36.4606C12.1588 36.6546 12.3046 36.8253 12.4794 36.9628C12.6541 37.1002 12.8543 37.2017 13.0685 37.2615C13.2827 37.3212 13.5065 37.338 13.7272 37.3109L13.7275 37.3115Z" fill="#3E61EE"/>
<path d="M15.3029 30.9372C15.3779 31.321 15.5838 31.6669 15.8856 31.9157C16.1873 32.1645 16.5661 32.3008 16.9572 32.3013C17.0665 32.3011 17.1754 32.2906 17.2826 32.2698C18.6838 31.9958 20.1593 31.7874 21.721 31.5666C25.5325 31.028 29.4737 30.4712 32.8521 28.8731C35.7748 27.4908 38.2647 24.9795 40.6728 22.5509C43.5151 19.6841 46.4545 16.7194 50.0277 15.6743C51.7434 15.1731 56.422 15.7081 61.377 16.2748C71.7551 17.4608 85.9659 19.0873 97.3064 15.2288C97.6172 15.1231 98.0258 14.9872 98.4314 14.8728L105.131 12.9825C105.345 12.9223 105.544 12.8207 105.718 12.6835C105.892 12.5463 106.037 12.3761 106.146 12.1827C106.254 11.9894 106.323 11.7766 106.349 11.5565C106.375 11.3364 106.357 11.1134 106.297 10.9001C106.237 10.6868 106.135 10.4875 105.998 10.3135C105.861 10.1395 105.691 9.99419 105.497 9.88594C105.304 9.77769 105.091 9.70858 104.871 9.68257C104.651 9.65655 104.428 9.67414 104.215 9.73432L97.5145 11.6252C97.0336 11.761 96.5701 11.9151 96.2208 12.0341C85.5977 15.647 71.8209 14.072 61.7615 12.922C55.7748 12.2374 51.4494 11.743 49.0816 12.4357C44.6713 13.7247 41.4201 17.0041 38.276 20.1752C35.972 22.4997 33.7957 24.6935 31.409 25.8227C28.4941 27.2008 24.8109 27.722 21.2488 28.2254C19.7124 28.4425 18.1236 28.667 16.6363 28.9566C16.4187 28.999 16.2115 29.0839 16.0267 29.2064C15.8419 29.3289 15.683 29.4866 15.5592 29.6706C15.4353 29.8545 15.349 30.0611 15.305 30.2784C15.261 30.4957 15.2603 30.7196 15.3029 30.9372Z" fill="#3E61EE"/>
<path d="M108.004 11.308C96.0039 4.19091 82.1627 0.791876 68.2307 1.54066C54.2987 2.28945 40.9016 7.15244 29.7332 15.5147C18.5649 23.8771 10.1268 35.3632 5.48594 48.5208C0.845065 61.6784 0.209797 75.9167 3.66046 89.4353C7.52656 104.607 16.3256 118.064 28.674 127.69C41.0224 137.316 56.2199 142.565 71.8768 142.612C77.7945 142.608 83.6884 141.863 89.4212 140.395C107.552 135.761 123.101 124.116 132.649 108.021C142.197 91.9258 144.963 72.698 140.339 54.5642C138.076 45.5746 134.053 37.1229 128.503 29.6981C122.953 22.2732 115.986 16.0227 108.004 11.308ZM129.74 106.312C120.64 121.626 105.829 132.698 88.5656 137.091C71.3023 141.485 53.0007 138.841 37.6869 129.74C22.3732 120.64 11.3017 105.829 6.90803 88.566C2.51441 71.3027 5.15856 53.001 14.2588 37.6873C18.7396 30.0848 24.6842 23.4469 31.7482 18.1577C38.8122 12.8686 46.8554 9.03348 55.4119 6.87437C60.8701 5.47702 66.4818 4.76839 72.1161 4.76499C83.9695 4.80077 95.6027 7.96939 105.837 13.9497C116.071 19.9301 124.542 28.5096 130.392 38.8188C136.243 49.128 139.263 60.8005 139.149 72.6533C139.034 84.5062 135.788 96.1181 129.74 106.312Z" fill="#968B82"/>
</svg>
