<svg viewBox="0 0 144 144" fill="none" xmlns="http://www.w3.org/2000/svg">
<path fill-rule="evenodd" clip-rule="evenodd" d="M33.75 60.5C22.0139 60.5 12.5 70.0139 12.5 81.75C12.5 93.486 22.0139 103 33.75 103C45.486 103 55 93.486 55 81.75C55 70.0139 45.486 60.5 33.75 60.5ZM9 81.75C9 68.081 20.081 57 33.75 57C47.419 57 58.5 68.081 58.5 81.75C58.5 95.419 47.419 106.5 33.75 106.5C20.081 106.5 9 95.419 9 81.75Z" fill="#3E61EE"/>
<path fill-rule="evenodd" clip-rule="evenodd" d="M8.76044 104.848C9.44268 104.163 10.5507 104.161 11.2353 104.843C12.6077 106.211 14.1025 107.456 15.7016 108.56C16.497 109.109 16.6967 110.199 16.1476 110.994C15.5985 111.79 14.5086 111.989 13.7133 111.44C11.9411 110.217 10.285 108.838 8.76469 107.323C8.0801 106.64 8.0782 105.532 8.76044 104.848ZM39.7381 115.563C39.8506 116.523 39.1636 117.393 38.2037 117.505C36.8243 117.667 35.4215 117.75 34 117.75C32.9381 117.75 31.8867 117.703 30.8476 117.613C29.8848 117.528 29.1725 116.68 29.2566 115.717C29.3408 114.754 30.1896 114.042 31.1524 114.126C32.0903 114.208 33.04 114.25 34 114.25C35.285 114.25 36.5518 114.175 37.7963 114.029C38.7562 113.916 39.6256 114.603 39.7381 115.563Z" fill="#3E61EE"/>
<path d="M11 82C11 94.7025 20.3613 105 31.9091 105H41C29.4522 105 20.0909 94.7025 20.0909 82C20.0909 69.2975 29.4522 59 41 59H31.9091C20.3613 59 11 69.2975 11 82Z" fill="#3E61EE" fill-opacity="0.2"/>
<path fill-rule="evenodd" clip-rule="evenodd" d="M111.75 60.5C100.014 60.5 90.5 70.0139 90.5 81.75C90.5 93.486 100.014 103 111.75 103C123.486 103 133 93.486 133 81.75C133 70.0139 123.486 60.5 111.75 60.5ZM87 81.75C87 68.081 98.081 57 111.75 57C125.419 57 136.5 68.081 136.5 81.75C136.5 95.419 125.419 106.5 111.75 106.5C98.081 106.5 87 95.419 87 81.75Z" fill="#3E61EE"/>
<path fill-rule="evenodd" clip-rule="evenodd" d="M110.25 50C110.25 49.0335 111.034 48.25 112 48.25C113.792 48.25 115.553 48.3898 117.271 48.6595C118.226 48.8093 118.879 49.7048 118.729 50.6596C118.579 51.6144 117.684 52.267 116.729 52.1172C115.189 51.8756 113.61 51.75 112 51.75C111.034 51.75 110.25 50.9665 110.25 50ZM121.357 51.3392C121.689 50.4316 122.694 49.9652 123.602 50.2974C127.582 51.7544 131.21 53.9386 134.325 56.688C135.049 57.3275 135.118 58.4334 134.479 59.158C133.839 59.8827 132.733 59.9516 132.009 59.312C129.214 56.8459 125.963 54.8888 122.398 53.5841C121.491 53.2519 121.024 52.2468 121.357 51.3392Z" fill="#3E61EE"/>
<path fill-rule="evenodd" clip-rule="evenodd" d="M81.2505 35C81.2505 34.0335 82.034 33.25 83.0005 33.25H96.0005C96.563 33.25 97.0912 33.5204 97.4201 33.9768C97.7491 34.4331 97.8386 35.0197 97.6607 35.5534L81.6607 83.5534C81.355 84.4703 80.364 84.9658 79.4471 84.6602C78.5302 84.3546 78.0346 83.3635 78.3403 82.4466L93.5725 36.75H83.0005C82.034 36.75 81.2505 35.9665 81.2505 35Z" fill="#3E61EE"/>
<path d="M29.8853 109.865C29.741 109.561 29.5047 109.31 29.2098 109.148C28.915 108.986 28.5764 108.921 28.2422 108.961C26.9306 109.118 25.6007 108.969 24.3568 108.525C23.1129 108.082 21.9888 107.357 21.0727 106.406C20.8395 106.163 20.5358 106 20.2045 105.94C19.8732 105.879 19.5312 105.924 19.2269 106.069C18.9225 106.213 18.6714 106.45 18.5089 106.745C18.3465 107.04 18.2811 107.378 18.3219 107.712C18.4789 109.023 18.3302 110.352 17.8873 111.596C17.4445 112.839 16.7195 113.964 15.7692 114.881C15.5264 115.114 15.363 115.418 15.3023 115.749C15.2415 116.08 15.2865 116.422 15.4308 116.726C15.5751 117.03 15.8115 117.28 16.1064 117.443C16.4013 117.605 16.7398 117.67 17.074 117.629C18.3857 117.473 19.7156 117.622 20.9596 118.065C22.2035 118.509 23.3275 119.234 24.2437 120.184C24.4768 120.427 24.7806 120.591 25.1119 120.651C25.4431 120.712 25.7852 120.667 26.0895 120.522C26.3938 120.378 26.645 120.141 26.8074 119.846C26.9698 119.551 27.0353 119.213 26.9945 118.878C26.837 117.568 26.9855 116.238 27.4281 114.994C27.8708 113.75 28.5958 112.625 29.5461 111.707C29.7886 111.474 29.9519 111.171 30.0127 110.841C30.0736 110.51 30.029 110.169 29.8853 109.865ZM23.8921 115.895C22.7035 115.222 21.4072 114.76 20.0606 114.53C20.7331 113.341 21.1946 112.044 21.4249 110.698C22.6137 111.371 23.9101 111.832 25.2566 112.063C24.584 113.252 24.1222 114.548 23.8917 115.894L23.8921 115.895Z" fill="#3E61EE"/>
<path d="M37.7977 94.5973C38.4124 95.6619 39.7737 96.0266 40.8382 95.412C41.9028 94.7973 42.2676 93.4361 41.6529 92.3715C41.0383 91.3069 39.677 90.9421 38.6124 91.5568C37.5478 92.1714 37.1831 93.5327 37.7977 94.5973Z" fill="#3E61EE"/>
<path d="M119.968 72.0804C120.583 71.0158 120.218 69.6545 119.153 69.0399C118.089 68.4253 116.728 68.79 116.113 69.8546C115.498 70.9192 115.863 72.2805 116.928 72.8951C117.992 73.5098 119.353 73.145 119.968 72.0804Z" fill="#3E61EE"/>
<path d="M24.7977 72.0807C25.4124 73.1453 26.7737 73.51 27.8382 72.8954C28.9028 72.2807 29.2676 70.9194 28.6529 69.8549C28.0383 68.7903 26.677 68.4255 25.6124 69.0402C24.5478 69.6548 24.1831 71.0161 24.7977 72.0807Z" fill="#3E61EE"/>
<path d="M106.968 94.597C107.583 93.5324 107.218 92.1712 106.153 91.5565C105.089 90.9419 103.728 91.3066 103.113 92.3712C102.498 93.4358 102.863 94.7971 103.928 95.4117C104.992 96.0264 106.353 95.6616 106.968 94.597Z" fill="#3E61EE"/>
<path fill-rule="evenodd" clip-rule="evenodd" d="M45.9998 45.25L44.7275 48.2016L78.7275 84.2016C79.0581 84.5516 79.5183 84.75 79.9998 84.75H106.949C106.503 83.9331 106.25 82.9961 106.25 82C106.25 81.7458 106.266 81.4955 106.298 81.25H80.7541L50.0597 48.75H89.9947L107.387 78.5662C108.096 77.6155 109.092 76.8913 110.247 76.5221L92.5114 46.1182C92.1978 45.5806 91.6222 45.25 90.9998 45.25H45.9998Z" fill="#3E61EE"/>
<path fill-rule="evenodd" clip-rule="evenodd" d="M37.0006 33.25C36.0341 33.25 35.2506 34.0335 35.2506 35C35.2506 35.9665 36.0341 36.75 37.0006 36.75H47.5726L34.4014 76.2638C35.6342 76.3488 36.7602 76.8224 37.6576 77.563L51.6608 35.5534C51.8387 35.0197 51.7492 34.4331 51.4203 33.9768C51.0914 33.5204 50.5632 33.25 50.0006 33.25H37.0006Z" fill="#968B82"/>
<path fill-rule="evenodd" clip-rule="evenodd" d="M111.75 83.5C110.507 83.5 109.5 82.4926 109.5 81.25C109.5 80.0074 110.507 79 111.75 79C112.993 79 114 80.0074 114 81.25C114 82.4926 112.993 83.5 111.75 83.5ZM106 81.25C106 84.4256 108.574 87 111.75 87C114.926 87 117.5 84.4256 117.5 81.25C117.5 78.0744 114.926 75.5 111.75 75.5C108.574 75.5 106 78.0744 106 81.25Z" fill="#968B82"/>
<path fill-rule="evenodd" clip-rule="evenodd" d="M33.75 83.5C32.5074 83.5 31.5 82.4926 31.5 81.25C31.5 80.0074 32.5074 79 33.75 79C34.9926 79 36 80.0074 36 81.25C36 82.4926 34.9926 83.5 33.75 83.5ZM28 81.25C28 84.4256 30.5744 87 33.75 87C36.9256 87 39.5 84.4256 39.5 81.25C39.5 78.0744 36.9256 75.5 33.75 75.5C30.5744 75.5 28 78.0744 28 81.25Z" fill="#968B82"/>
<path fill-rule="evenodd" clip-rule="evenodd" d="M69.75 114C69.75 113.034 70.5335 112.25 71.5 112.25H120C120.966 112.25 121.75 113.034 121.75 114C121.75 114.966 120.966 115.75 120 115.75H71.5C70.5335 115.75 69.75 114.966 69.75 114Z" fill="#3E61EE"/>
<path fill-rule="evenodd" clip-rule="evenodd" d="M110.25 119C110.25 118.034 111.034 117.25 112 117.25L136 117.25C136.966 117.25 137.75 118.034 137.75 119C137.75 119.967 136.966 120.75 136 120.75L112 120.75C111.034 120.75 110.25 119.966 110.25 119Z" fill="#3E61EE"/>
</svg>
