<svg width="80" height="80" viewBox="0 0 80 80" fill="none" xmlns="http://www.w3.org/2000/svg">
<path fill-rule="evenodd" clip-rule="evenodd" d="M18.75 33.6124C12.23 33.6124 6.94444 38.8979 6.94444 45.418C6.94444 51.938 12.23 57.2235 18.75 57.2235C25.27 57.2235 30.5556 51.938 30.5556 45.418C30.5556 38.8979 25.27 33.6124 18.75 33.6124ZM5 45.418C5 37.8241 11.1561 31.668 18.75 31.668C26.3439 31.668 32.5 37.8241 32.5 45.418C32.5 53.0119 26.3439 59.168 18.75 59.168C11.1561 59.168 5 53.0119 5 45.418Z" fill="#3E61EE"/>
<path fill-rule="evenodd" clip-rule="evenodd" d="M4.86658 58.2488C5.24561 57.8685 5.86118 57.8674 6.24151 58.2465C7.00396 59.0063 7.83439 59.6978 8.72281 60.3111C9.16469 60.6162 9.27562 61.2217 8.97057 61.6635C8.66553 62.1054 8.06003 62.2164 7.61815 61.9113C6.63361 61.2317 5.71356 60.4655 4.86895 59.6238C4.48862 59.2447 4.48756 58.6292 4.86658 58.2488ZM22.0764 64.2019C22.1389 64.7352 21.7572 65.2182 21.224 65.2807C20.4576 65.3705 19.6783 65.4167 18.8886 65.4167C18.2986 65.4167 17.7145 65.3909 17.1372 65.3405C16.6023 65.2937 16.2066 64.8222 16.2534 64.2873C16.3001 63.7524 16.7717 63.3566 17.3066 63.4034C17.8276 63.449 18.3552 63.4722 18.8886 63.4722C19.6025 63.4722 20.3062 63.4305 20.9976 63.3495C21.5309 63.287 22.0139 63.6687 22.0764 64.2019Z" fill="#3E61EE"/>
<path d="M6.11035 45.5551C6.11035 52.6121 11.3111 58.3329 17.7265 58.3329H22.777C16.3616 58.3329 11.1609 52.6121 11.1609 45.5551C11.1609 38.4981 16.3616 32.7773 22.777 32.7773H17.7265C11.3111 32.7773 6.11035 38.4981 6.11035 45.5551Z" fill="#3E61EE" fill-opacity="0.2"/>
<path fill-rule="evenodd" clip-rule="evenodd" d="M62.083 33.6124C55.563 33.6124 50.2775 38.8979 50.2775 45.418C50.2775 51.938 55.563 57.2235 62.083 57.2235C68.603 57.2235 73.8886 51.938 73.8886 45.418C73.8886 38.8979 68.603 33.6124 62.083 33.6124ZM48.333 45.418C48.333 37.8241 54.4891 31.668 62.083 31.668C69.6769 31.668 75.833 37.8241 75.833 45.418C75.833 53.0119 69.6769 59.168 62.083 59.168C54.4891 59.168 48.333 53.0119 48.333 45.418Z" fill="#3E61EE"/>
<path fill-rule="evenodd" clip-rule="evenodd" d="M61.25 27.7789C61.25 27.2419 61.6853 26.8066 62.2222 26.8066C63.2178 26.8066 64.196 26.8843 65.1507 27.0341C65.6812 27.1174 66.0437 27.6149 65.9605 28.1453C65.8772 28.6758 65.3797 29.0383 64.8493 28.9551C63.9939 28.8209 63.1165 28.7511 62.2222 28.7511C61.6853 28.7511 61.25 28.3158 61.25 27.7789ZM67.4204 28.5229C67.6049 28.0187 68.1633 27.7595 68.6675 27.9441C70.8788 28.7535 72.8942 29.967 74.6248 31.4944C75.0274 31.8497 75.0657 32.4641 74.7104 32.8667C74.355 33.2692 73.7407 33.3075 73.3381 32.9522C71.7858 31.5822 69.9793 30.4949 67.9991 29.7701C67.4949 29.5855 67.2358 29.0271 67.4204 28.5229Z" fill="#3E61EE"/>
<path fill-rule="evenodd" clip-rule="evenodd" d="M45.1386 19.4449C45.1386 18.9079 45.5739 18.4727 46.1108 18.4727H53.3331C53.6456 18.4727 53.939 18.6229 54.1218 18.8764C54.3045 19.1299 54.3542 19.4558 54.2554 19.7523L45.3665 46.419C45.1967 46.9284 44.6461 47.2037 44.1367 47.0339C43.6273 46.8641 43.352 46.3135 43.5218 45.8041L51.9842 20.4171H46.1108C45.5739 20.4171 45.1386 19.9818 45.1386 19.4449Z" fill="#3E61EE"/>
<path d="M16.6023 61.0368C16.5221 60.868 16.3909 60.7286 16.227 60.6385C16.0632 60.5484 15.8751 60.5121 15.6895 60.5347C14.9608 60.6217 14.2219 60.5388 13.5309 60.2925C12.8398 60.0462 12.2153 59.6433 11.7064 59.1153C11.5769 58.9804 11.4081 58.8897 11.2241 58.856C11.04 58.8223 10.85 58.8474 10.6809 58.9277C10.5119 59.0079 10.3723 59.1393 10.2821 59.3032C10.1919 59.4671 10.1555 59.6552 10.1782 59.8409C10.2654 60.5689 10.1828 61.3073 9.93675 61.9983C9.69071 62.6893 9.28795 63.314 8.76004 63.8235C8.62511 63.9531 8.53435 64.1218 8.50061 64.3057C8.46686 64.4896 8.49184 64.6794 8.57202 64.8482C8.65219 65.0171 8.78349 65.1564 8.94733 65.2465C9.11117 65.3366 9.29924 65.3729 9.48492 65.3502C10.2136 65.2633 10.9525 65.3462 11.6435 65.5925C12.3346 65.8388 12.9591 66.2418 13.4681 66.7698C13.5976 66.9047 13.7663 66.9954 13.9504 67.0291C14.1344 67.0628 14.3244 67.0377 14.4935 66.9574C14.6626 66.8771 14.8021 66.7457 14.8924 66.5818C14.9826 66.4179 15.019 66.2298 14.9963 66.0442C14.9088 65.316 14.9913 64.5774 15.2372 63.8862C15.4831 63.195 15.8859 62.5701 16.4138 62.0603C16.5486 61.9309 16.6393 61.7625 16.6731 61.5788C16.7069 61.3952 16.6821 61.2056 16.6023 61.0368ZM13.2728 64.3865C12.6124 64.0129 11.8922 63.7564 11.1442 63.6284C11.5177 62.9677 11.7741 62.2476 11.9021 61.4997C12.5625 61.8732 13.2827 62.1297 14.0308 62.2578C13.6571 62.9182 13.4006 63.6382 13.2725 64.386L13.2728 64.3865Z" fill="#3E61EE"/>
<path d="M20.998 52.5536C21.3394 53.145 22.0957 53.3476 22.6872 53.0062C23.2786 52.6647 23.4812 51.9084 23.1398 51.317C22.7983 50.7256 22.042 50.5229 21.4506 50.8644C20.8592 51.2058 20.6565 51.9621 20.998 52.5536Z" fill="#3E61EE"/>
<path d="M66.6487 40.0446C66.9902 39.4531 66.7876 38.6969 66.1961 38.3554C65.6047 38.0139 64.8484 38.2166 64.507 38.808C64.1655 39.3994 64.3681 40.1557 64.9596 40.4972C65.551 40.8387 66.3073 40.636 66.6487 40.0446Z" fill="#3E61EE"/>
<path d="M13.7763 40.0457C14.1178 40.6372 14.874 40.8398 15.4655 40.4984C16.0569 40.1569 16.2596 39.4006 15.9181 38.8092C15.5766 38.2177 14.8203 38.0151 14.2289 38.3566C13.6375 38.698 13.4348 39.4543 13.7763 40.0457Z" fill="#3E61EE"/>
<path d="M59.4261 52.5543C59.7676 51.9629 59.5649 51.2066 58.9735 50.8652C58.382 50.5237 57.6258 50.7263 57.2843 51.3178C56.9428 51.9092 57.1455 52.6655 57.7369 53.007C58.3283 53.3484 59.0846 53.1458 59.4261 52.5543Z" fill="#3E61EE"/>
<path fill-rule="evenodd" clip-rule="evenodd" d="M25.5555 25.1387L24.8486 26.7784L43.7375 46.7784C43.9212 46.9729 44.1769 47.0831 44.4443 47.0831H59.4161C59.1685 46.6293 59.0278 46.1087 59.0278 45.5553C59.0278 45.4141 59.0369 45.275 59.0547 45.1387H44.8634L27.8109 27.0831H49.997L59.6597 43.6477C60.0536 43.1195 60.6069 42.7172 61.2483 42.5121L51.3952 25.621C51.221 25.3223 50.9012 25.1387 50.5555 25.1387H25.5555Z" fill="#3E61EE"/>
<path fill-rule="evenodd" clip-rule="evenodd" d="M20.5554 18.4727C20.0184 18.4727 19.5831 18.9079 19.5831 19.4449C19.5831 19.9818 20.0184 20.4171 20.5554 20.4171H26.4287L19.1113 42.3692C19.7963 42.4164 20.4218 42.6795 20.9204 43.091L28.6999 19.7523C28.7987 19.4558 28.749 19.1299 28.5663 18.8764C28.3836 18.6229 28.0901 18.4727 27.7776 18.4727H20.5554Z" fill="#17E5C3"/>
<path fill-rule="evenodd" clip-rule="evenodd" d="M62.0831 46.3895C61.3928 46.3895 60.8331 45.8299 60.8331 45.1395C60.8331 44.4492 61.3928 43.8895 62.0831 43.8895C62.7735 43.8895 63.3331 44.4492 63.3331 45.1395C63.3331 45.8299 62.7735 46.3895 62.0831 46.3895ZM58.8887 45.1395C58.8887 46.9038 60.3189 48.334 62.0831 48.334C63.8474 48.334 65.2776 46.9038 65.2776 45.1395C65.2776 43.3753 63.8474 41.9451 62.0831 41.9451C60.3189 41.9451 58.8887 43.3753 58.8887 45.1395Z" fill="#17E5C3"/>
<path fill-rule="evenodd" clip-rule="evenodd" d="M18.7501 46.3895C18.0598 46.3895 17.5001 45.8299 17.5001 45.1395C17.5001 44.4492 18.0598 43.8895 18.7501 43.8895C19.4405 43.8895 20.0001 44.4492 20.0001 45.1395C20.0001 45.8299 19.4405 46.3895 18.7501 46.3895ZM15.5557 45.1395C15.5557 46.9038 16.9859 48.334 18.7501 48.334C20.5144 48.334 21.9446 46.9038 21.9446 45.1395C21.9446 43.3753 20.5144 41.9451 18.7501 41.9451C16.9859 41.9451 15.5557 43.3753 15.5557 45.1395Z" fill="#17E5C3"/>
<path fill-rule="evenodd" clip-rule="evenodd" d="M38.75 63.3336C38.75 62.7966 39.1853 62.3613 39.7222 62.3613H66.6667C67.2036 62.3613 67.6389 62.7966 67.6389 63.3336C67.6389 63.8705 67.2036 64.3058 66.6667 64.3058H39.7222C39.1853 64.3058 38.75 63.8705 38.75 63.3336Z" fill="#3E61EE"/>
<path fill-rule="evenodd" clip-rule="evenodd" d="M61.25 66.1109C61.25 65.574 61.6853 65.1387 62.2222 65.1387L75.5556 65.1387C76.0925 65.1387 76.5278 65.574 76.5278 66.1109C76.5278 66.6478 76.0925 67.0831 75.5556 67.0831L62.2222 67.0831C61.6853 67.0831 61.25 66.6478 61.25 66.1109Z" fill="#3E61EE"/>
</svg>
