<svg viewBox="0 0 80 80" fill="none" xmlns="http://www.w3.org/2000/svg">
<path fill-rule="evenodd" clip-rule="evenodd" d="M18.75 33.6114C12.23 33.6114 6.94444 38.897 6.94444 45.417C6.94444 51.937 12.23 57.2225 18.75 57.2225C25.27 57.2225 30.5556 51.937 30.5556 45.417C30.5556 38.897 25.27 33.6114 18.75 33.6114ZM5 45.417C5 37.8231 11.1561 31.667 18.75 31.667C26.3439 31.667 32.5 37.8231 32.5 45.417C32.5 53.0109 26.3439 59.167 18.75 59.167C11.1561 59.167 5 53.0109 5 45.417Z" fill="#3E61EE"/>
<path fill-rule="evenodd" clip-rule="evenodd" d="M4.86695 58.2488C5.24597 57.8685 5.86155 57.8674 6.24188 58.2465C7.00433 59.0063 7.83476 59.6978 8.72317 60.3111C9.16505 60.6162 9.27598 61.2217 8.97094 61.6635C8.6659 62.1054 8.0604 62.2164 7.61852 61.9113C6.63397 61.2317 5.71392 60.4655 4.86931 59.6238C4.48899 59.2447 4.48793 58.6292 4.86695 58.2488ZM22.0768 64.2019C22.1393 64.7352 21.7576 65.2182 21.2243 65.2807C20.458 65.3705 19.6786 65.4167 18.8889 65.4167C18.299 65.4167 17.7149 65.3909 17.1376 65.3405C16.6027 65.2937 16.207 64.8222 16.2537 64.2873C16.3005 63.7524 16.772 63.3566 17.3069 63.4034C17.828 63.449 18.3556 63.4722 18.8889 63.4722C19.6028 63.4722 20.3066 63.4305 20.998 63.3495C21.5313 63.287 22.0143 63.6687 22.0768 64.2019Z" fill="#3E61EE"/>
<path d="M6.11121 45.5561C6.11121 52.6131 11.3119 58.3339 17.7274 58.3339H22.7779C16.3624 58.3339 11.1617 52.6131 11.1617 45.5561C11.1617 38.4991 16.3624 32.7783 22.7779 32.7783H17.7274C11.3119 32.7783 6.11121 38.4991 6.11121 45.5561Z" fill="#3E61EE" fill-opacity="0.2"/>
<path fill-rule="evenodd" clip-rule="evenodd" d="M62.0834 33.6114C55.5633 33.6114 50.2778 38.897 50.2778 45.417C50.2778 51.937 55.5633 57.2225 62.0834 57.2225C68.6034 57.2225 73.8889 51.937 73.8889 45.417C73.8889 38.897 68.6034 33.6114 62.0834 33.6114ZM48.3334 45.417C48.3334 37.8231 54.4895 31.667 62.0834 31.667C69.6773 31.667 75.8334 37.8231 75.8334 45.417C75.8334 53.0109 69.6773 59.167 62.0834 59.167C54.4895 59.167 48.3334 53.0109 48.3334 45.417Z" fill="#3E61EE"/>
<path fill-rule="evenodd" clip-rule="evenodd" d="M61.25 27.7779C61.25 27.2409 61.6853 26.8057 62.2222 26.8057C63.2178 26.8057 64.196 26.8833 65.1507 27.0332C65.6812 27.1164 66.0437 27.6139 65.9605 28.1443C65.8772 28.6748 65.3797 29.0373 64.8493 28.9541C63.9939 28.8199 63.1165 28.7501 62.2222 28.7501C61.6853 28.7501 61.25 28.3148 61.25 27.7779ZM67.4204 28.5219C67.6049 28.0177 68.1633 27.7585 68.6675 27.9431C70.8788 28.7525 72.8942 29.966 74.6248 31.4934C75.0274 31.8487 75.0657 32.4631 74.7104 32.8657C74.355 33.2683 73.7407 33.3066 73.3381 32.9512C71.7858 31.5812 69.9793 30.4939 67.9991 29.7691C67.4949 29.5845 67.2358 29.0261 67.4204 28.5219Z" fill="#3E61EE"/>
<path fill-rule="evenodd" clip-rule="evenodd" d="M45.1392 19.4449C45.1392 18.9079 45.5745 18.4727 46.1114 18.4727H53.3337C53.6462 18.4727 53.9396 18.6229 54.1224 18.8764C54.3051 19.1299 54.3548 19.4558 54.256 19.7523L45.3671 46.419C45.1973 46.9284 44.6467 47.2037 44.1373 47.0339C43.6279 46.8641 43.3526 46.3135 43.5224 45.8041L51.9848 20.4171H46.1114C45.5745 20.4171 45.1392 19.9818 45.1392 19.4449Z" fill="#3E61EE"/>
<path d="M16.603 61.0368C16.5229 60.868 16.3916 60.7286 16.2278 60.6385C16.0639 60.5484 15.8759 60.5121 15.6902 60.5347C14.9615 60.6217 14.2227 60.5388 13.5316 60.2925C12.8406 60.0462 12.2161 59.6433 11.7071 59.1153C11.5776 58.9804 11.4089 58.8897 11.2248 58.856C11.0408 58.8223 10.8507 58.8474 10.6817 58.9277C10.5126 59.0079 10.3731 59.1393 10.2828 59.3032C10.1926 59.4671 10.1562 59.6552 10.1789 59.8409C10.2661 60.5689 10.1835 61.3073 9.93748 61.9983C9.69144 62.6893 9.28869 63.314 8.76077 63.8235C8.62584 63.9531 8.53508 64.1218 8.50134 64.3057C8.46759 64.4896 8.49258 64.6794 8.57275 64.8482C8.65292 65.0171 8.78422 65.1564 8.94806 65.2465C9.1119 65.3366 9.29997 65.3729 9.48565 65.3502C10.2144 65.2633 10.9532 65.3462 11.6443 65.5925C12.3353 65.8388 12.9598 66.2418 13.4688 66.7698C13.5983 66.9047 13.7671 66.9954 13.9511 67.0291C14.1352 67.0628 14.3252 67.0377 14.4942 66.9574C14.6633 66.8771 14.8029 66.7457 14.8931 66.5818C14.9833 66.4179 15.0197 66.2298 14.997 66.0442C14.9095 65.316 14.992 64.5774 15.2379 63.8862C15.4839 63.195 15.8866 62.5701 16.4146 62.0603C16.5493 61.9309 16.64 61.7625 16.6738 61.5788C16.7076 61.3952 16.6829 61.2056 16.603 61.0368ZM13.2735 64.3865C12.6131 64.0129 11.893 63.7564 11.1449 63.6284C11.5185 62.9677 11.7749 62.2476 11.9028 61.4997C12.5633 61.8732 13.2835 62.1297 14.0315 62.2578C13.6578 62.9182 13.4013 63.6382 13.2732 64.386L13.2735 64.3865Z" fill="#3E61EE"/>
<path d="M20.9988 52.5545C21.3403 53.146 22.0966 53.3486 22.688 53.0071C23.2794 52.6657 23.4821 51.9094 23.1406 51.318C22.7992 50.7265 22.0429 50.5239 21.4514 50.8654C20.86 51.2068 20.6574 51.9631 20.9988 52.5545Z" fill="#3E61EE"/>
<path d="M66.649 40.0455C66.9905 39.4541 66.7878 38.6978 66.1964 38.3564C65.6049 38.0149 64.8487 38.2175 64.5072 38.809C64.1657 39.4004 64.3684 40.1567 64.9598 40.4982C65.5513 40.8396 66.3075 40.637 66.649 40.0455Z" fill="#3E61EE"/>
<path d="M13.7765 40.0457C14.118 40.6372 14.8743 40.8398 15.4657 40.4984C16.0572 40.1569 16.2598 39.4006 15.9183 38.8092C15.5769 38.2177 14.8206 38.0151 14.2292 38.3566C13.6377 38.698 13.4351 39.4543 13.7765 40.0457Z" fill="#3E61EE"/>
<path d="M59.4268 52.5543C59.7683 51.9629 59.5656 51.2066 58.9742 50.8652C58.3828 50.5237 57.6265 50.7263 57.285 51.3178C56.9436 51.9092 57.1462 52.6655 57.7376 53.007C58.3291 53.3484 59.0853 53.1458 59.4268 52.5543Z" fill="#3E61EE"/>
<path fill-rule="evenodd" clip-rule="evenodd" d="M25.5555 25.1396L24.8486 26.7794L43.7375 46.7794C43.9212 46.9739 44.1769 47.0841 44.4443 47.0841H59.4161C59.1685 46.6303 59.0278 46.1097 59.0278 45.5563C59.0278 45.4151 59.0369 45.276 59.0547 45.1396H44.8634L27.8109 27.0841H49.997L59.6597 43.6487C60.0536 43.1205 60.6069 42.7181 61.2483 42.513L51.3952 25.622C51.221 25.3233 50.9012 25.1396 50.5555 25.1396H25.5555Z" fill="#3E61EE"/>
<path fill-rule="evenodd" clip-rule="evenodd" d="M20.556 18.4727C20.019 18.4727 19.5837 18.9079 19.5837 19.4449C19.5837 19.9818 20.019 20.4171 20.556 20.4171H26.4293L19.1119 42.3692C19.7969 42.4164 20.4224 42.6795 20.921 43.091L28.7005 19.7523C28.7993 19.4558 28.7496 19.1299 28.5669 18.8764C28.3842 18.6229 28.0907 18.4727 27.7782 18.4727H20.556Z" fill="#968B82"/>
<path fill-rule="evenodd" clip-rule="evenodd" d="M62.0834 46.3895C61.393 46.3895 60.8334 45.8299 60.8334 45.1395C60.8334 44.4492 61.393 43.8895 62.0834 43.8895C62.7737 43.8895 63.3334 44.4492 63.3334 45.1395C63.3334 45.8299 62.7737 46.3895 62.0834 46.3895ZM58.8889 45.1395C58.8889 46.9038 60.3191 48.334 62.0834 48.334C63.8476 48.334 65.2778 46.9038 65.2778 45.1395C65.2778 43.3753 63.8476 41.9451 62.0834 41.9451C60.3191 41.9451 58.8889 43.3753 58.8889 45.1395Z" fill="#968B82"/>
<path fill-rule="evenodd" clip-rule="evenodd" d="M18.75 46.3895C18.0596 46.3895 17.5 45.8299 17.5 45.1395C17.5 44.4492 18.0596 43.8895 18.75 43.8895C19.4403 43.8895 20 44.4492 20 45.1395C20 45.8299 19.4403 46.3895 18.75 46.3895ZM15.5555 45.1395C15.5555 46.9038 16.9857 48.334 18.75 48.334C20.5142 48.334 21.9444 46.9038 21.9444 45.1395C21.9444 43.3753 20.5142 41.9451 18.75 41.9451C16.9857 41.9451 15.5555 43.3753 15.5555 45.1395Z" fill="#968B82"/>
<path fill-rule="evenodd" clip-rule="evenodd" d="M38.75 63.3336C38.75 62.7966 39.1853 62.3613 39.7222 62.3613H66.6667C67.2036 62.3613 67.6389 62.7966 67.6389 63.3336C67.6389 63.8705 67.2036 64.3058 66.6667 64.3058H39.7222C39.1853 64.3058 38.75 63.8705 38.75 63.3336Z" fill="#3E61EE"/>
<path fill-rule="evenodd" clip-rule="evenodd" d="M61.25 66.1119C61.25 65.5749 61.6853 65.1396 62.2222 65.1396L75.5556 65.1396C76.0925 65.1396 76.5278 65.5749 76.5278 66.1119C76.5278 66.6488 76.0925 67.0841 75.5556 67.0841L62.2222 67.0841C61.6853 67.0841 61.25 66.6488 61.25 66.1119Z" fill="#3E61EE"/>
</svg>
