<svg viewBox="0 0 144 144" fill="none" xmlns="http://www.w3.org/2000/svg">
<path d="M16.9899 57.631C16.9902 55.3417 17.5184 53.1464 18.4583 51.5278C19.3981 49.9093 20.6727 49 22.0017 49H18.0135C16.6845 49 15.41 49.9093 14.4701 51.5278C13.5302 53.1464 13.002 55.3417 13.0017 57.631V131C13.0019 129.016 12.2738 132.539 13.0001 131C13.7263 129.461 15.8627 130.406 16.9899 130V57.631Z" fill="#3E61EE" fill-opacity="0.2"/>
<path fill-rule="evenodd" clip-rule="evenodd" d="M22.5 49.75C18.2198 49.75 14.75 53.2198 14.75 57.5V128.25H55.25V57.5C55.25 53.2198 51.7802 49.75 47.5 49.75V46.25C53.7132 46.25 58.75 51.2868 58.75 57.5V130C58.75 130.966 57.9665 131.75 57 131.75H13C12.0335 131.75 11.25 130.966 11.25 130V57.5C11.25 51.2868 16.2868 46.25 22.5 46.25V49.75Z" fill="#3E61EE"/>
<path fill-rule="evenodd" clip-rule="evenodd" d="M66.25 37C66.25 36.0335 67.0335 35.25 68 35.25H76C76.9665 35.25 77.75 36.0335 77.75 37V79.5H74.25V38.75H69.75V68H66.25V37ZM69.75 120.25V81H66.25V122C66.25 122.966 67.0335 123.75 68 123.75H76C76.9665 123.75 77.75 122.966 77.75 122V93H74.25V120.25H69.75Z" fill="#968B82"/>
<path fill-rule="evenodd" clip-rule="evenodd" d="M85.25 37C85.25 36.0335 86.0335 35.25 87 35.25H104C104.966 35.25 105.75 36.0335 105.75 37V95C105.75 95.9665 104.966 96.75 104 96.75H87C86.0335 96.75 85.25 95.9665 85.25 95V37ZM88.75 38.75V93.25H102.25V38.75H88.75Z" fill="#968B82"/>
<path fill-rule="evenodd" clip-rule="evenodd" d="M106.25 96.75H87V93.25H108C108.966 93.25 109.75 94.0335 109.75 95V103C109.75 103.966 108.966 104.75 108 104.75H91V101.25H106.25V96.75Z" fill="#968B82"/>
<path fill-rule="evenodd" clip-rule="evenodd" d="M26.25 59C26.25 58.0335 27.0335 57.25 28 57.25H42C42.9665 57.25 43.75 58.0335 43.75 59V69C43.75 69.9665 42.9665 70.75 42 70.75H28C27.0335 70.75 26.25 69.9665 26.25 69V59ZM29.75 60.75V67.25H40.25V60.75H29.75Z" fill="#3E61EE"/>
<path fill-rule="evenodd" clip-rule="evenodd" d="M113.25 37C113.25 36.0335 114.034 35.25 115 35.25H123C123.966 35.25 124.75 36.0335 124.75 37V122C124.75 122.966 123.966 123.75 123 123.75H115C114.034 123.75 113.25 122.966 113.25 122V37ZM116.75 38.75V120.25H121.25V38.75H116.75Z" fill="#968B82"/>
<path fill-rule="evenodd" clip-rule="evenodd" d="M64.8032 35.25H127.197C126.833 32.7058 124.645 30.75 122 30.75H70C67.3551 30.75 65.1671 32.7058 64.8032 35.25ZM61.25 36C61.25 31.1675 65.1675 27.25 70 27.25H122C126.832 27.25 130.75 31.1675 130.75 36V37C130.75 37.9665 129.966 38.75 129 38.75H63C62.0335 38.75 61.25 37.9665 61.25 37V36Z" fill="#968B82"/>
<path fill-rule="evenodd" clip-rule="evenodd" d="M19.25 48C19.25 39.3015 26.3015 32.25 35 32.25C43.6985 32.25 50.75 39.3015 50.75 48V130C50.75 130.966 49.9665 131.75 49 131.75H21C20.0335 131.75 19.25 130.966 19.25 130V48ZM35 35.75C28.2345 35.75 22.75 41.2345 22.75 48V128.25H47.25V48C47.25 41.2345 41.7655 35.75 35 35.75Z" fill="#3E61EE"/>
<path fill-rule="evenodd" clip-rule="evenodd" d="M33.25 16C33.25 15.0335 34.0335 14.25 35 14.25H48C48.6727 14.25 49.2859 14.6356 49.5773 15.2419C49.8687 15.8482 49.7868 16.5679 49.3665 17.0932L46.2411 21L49.3665 24.9068C49.7868 25.4321 49.8687 26.1518 49.5773 26.7581C49.2859 27.3644 48.6727 27.75 48 27.75H36.75V34H33.25V16ZM36.75 24.25H44.3589L42.6335 22.0932C42.1222 21.4541 42.1222 20.5459 42.6335 19.9068L44.3589 17.75H36.75V24.25Z" fill="#3E61EE"/>
<path fill-rule="evenodd" clip-rule="evenodd" d="M35 44.75C33.2051 44.75 31.75 46.2051 31.75 48C31.75 49.7949 33.2051 51.25 35 51.25C36.7949 51.25 38.25 49.7949 38.25 48C38.25 46.2051 36.7949 44.75 35 44.75ZM28.25 48C28.25 44.2721 31.2721 41.25 35 41.25C38.7279 41.25 41.75 44.2721 41.75 48C41.75 51.7279 38.7279 54.75 35 54.75C31.2721 54.75 28.25 51.7279 28.25 48Z" fill="#3E61EE"/>
<path fill-rule="evenodd" clip-rule="evenodd" d="M14 66.25H21V69.75H14V66.25ZM49 66.25H68C68.5851 66.25 69.1315 66.5424 69.4561 67.0293L104.937 120.25H123C126.176 120.25 128.75 122.824 128.75 126C128.75 129.176 126.176 131.75 123 131.75H100C99.4096 131.75 98.8591 131.452 98.5358 130.958L63.0539 76.75H14V73.25H64C64.5904 73.25 65.1409 73.5476 65.4642 74.0416L100.946 128.25H123C124.243 128.25 125.25 127.243 125.25 126C125.25 124.757 124.243 123.75 123 123.75H104C103.415 123.75 102.868 123.458 102.544 122.971L67.0634 69.75H49V66.25Z" fill="#3E61EE"/>
<path fill-rule="evenodd" clip-rule="evenodd" d="M42 87.75H27V84.25H42V87.75Z" fill="#3E61EE"/>
<path fill-rule="evenodd" clip-rule="evenodd" d="M42 98.75H27V95.25H42V98.75Z" fill="#3E61EE"/>
<path fill-rule="evenodd" clip-rule="evenodd" d="M42 109.75H27V106.25H42V109.75Z" fill="#3E61EE"/>
<path fill-rule="evenodd" clip-rule="evenodd" d="M42 120.75H27V117.25H42V120.75Z" fill="#3E61EE"/>
<path fill-rule="evenodd" clip-rule="evenodd" d="M26.25 130V75H29.75V130H26.25Z" fill="#3E61EE"/>
<path fill-rule="evenodd" clip-rule="evenodd" d="M40.25 130V75H43.75V130H40.25Z" fill="#3E61EE"/>
</svg>
