<svg fill="none" xmlns="http://www.w3.org/2000/svg">
<g clip-path="url(#clip0_6771_13979)">
<path d="M17.8095 53.5959L17.8375 53.5676V53.5566H14.0609C10.7849 53.5594 7.64413 54.8634 5.32953 57.1818C3.01493 59.5002 1.7161 62.6431 1.71875 65.9191V78.2816H6.40625V65.9191C6.40449 62.8061 7.57814 59.8072 9.69243 57.5224C11.8067 55.2375 14.7057 53.8351 17.8095 53.5959Z" fill="#3E61EE" fill-opacity="0.2"/>
<path d="M23.8469 50.3576C22.7172 49.8782 21.6966 49.1744 20.8469 48.2889C20.6891 48.1248 20.5375 47.955 20.3922 47.7795C19.4642 46.654 18.8205 45.3217 18.5156 43.8951L17.6948 40.8317C17.2399 39.1335 17.0094 37.3829 17.0094 35.6248V34.3482C18.6473 34.0118 20.2191 33.4096 21.6625 32.5654C23.3197 31.6269 24.7578 30.346 25.8812 28.8081C24.718 27.7336 23.8428 26.3845 23.3359 24.8842L23.1875 24.4404C22.1453 28.6701 19.4312 31.1467 16.975 32.5654C15.5316 33.4096 13.9598 34.0118 12.3219 34.3482H11.7984C11.278 34.3482 10.7788 34.555 10.4107 34.923C10.0427 35.2911 9.83594 35.7903 9.83594 36.3107C9.83594 36.8312 10.0427 37.3304 10.4107 37.6984C10.7788 38.0665 11.278 38.2732 11.7984 38.2732H12.3219L13.8281 43.8951C14.133 45.3217 14.7767 46.654 15.7047 47.7795C15.85 47.9545 16.0016 48.1243 16.1594 48.2889C17.0091 49.1744 18.0297 49.8782 19.1594 50.3576C19.4234 50.4686 19.6937 50.567 19.9656 50.6561C20.6024 50.8726 21.225 51.1289 21.8297 51.4232C22.1235 51.5739 22.4501 51.6495 22.7803 51.6432C23.1105 51.637 23.434 51.549 23.7219 51.3873C24.1574 51.168 24.6042 50.9716 25.0603 50.7992C24.9255 50.7493 24.7902 50.7004 24.6531 50.6561C24.3812 50.567 24.1109 50.4686 23.8469 50.3576Z" fill="#3E61EE" fill-opacity="0.2"/>
<path d="M76.4839 17.3995C75.9683 17.4463 75.5933 17.8995 75.6402 18.4151V18.4463C76.4371 26.0401 70.9371 32.8526 63.3433 33.6495C62.4839 33.7432 61.6246 33.7432 60.7652 33.6807C60.2496 33.6338 59.7964 34.0088 59.7496 34.5245C59.7027 35.0401 60.0777 35.4932 60.5933 35.5401H60.6089C61.0464 35.5713 61.4683 35.587 61.9058 35.587C70.5777 35.5713 77.5933 28.5401 77.5933 19.8682C77.5777 19.3213 77.5621 18.7745 77.4996 18.2432C77.4527 17.7276 76.9996 17.3526 76.4839 17.3995Z" fill="#968B82"/>
<path d="M53.3584 33.0401C53.7959 33.3213 54.3741 33.1963 54.6553 32.7745C54.9366 32.337 54.8116 31.7588 54.3897 31.4776C47.9834 27.2901 46.1866 18.6963 50.3741 12.2745C50.8897 11.4776 51.4834 10.7432 52.1553 10.0713C57.5303 4.68071 66.249 4.66509 71.6397 10.0401C71.6397 10.0557 71.6553 10.0713 71.6553 10.087C72.3115 10.7432 72.9053 11.4776 73.4209 12.2588C73.7022 12.6963 74.2803 12.8213 74.7178 12.5401C75.1553 12.2588 75.2803 11.6807 74.999 11.2432L74.9834 11.2276C74.4053 10.337 73.7334 9.52446 72.9834 8.77446C66.8897 2.63384 56.9678 2.61821 50.8428 8.71196C50.8272 8.72759 50.8116 8.74321 50.8116 8.74321C44.6709 14.8995 44.6866 24.8682 50.8584 31.0088C51.6241 31.7745 52.4522 32.4463 53.3584 33.0401Z" fill="#968B82"/>
<path d="M52.7804 26.8053C53.0772 27.2271 53.671 27.3209 54.0929 27.024C54.5147 26.7271 54.6085 26.1334 54.3116 25.7115L54.296 25.6959C54.1085 25.4459 53.9366 25.1959 53.7804 24.9303C53.5147 24.4928 52.9366 24.3521 52.4991 24.6178C52.0616 24.8834 51.921 25.4615 52.1866 25.899C52.3741 26.2115 52.5772 26.5084 52.7804 26.8053Z" fill="#968B82"/>
<path d="M52.1556 14.274C51.6712 14.1021 51.14 14.3677 50.9681 14.8677C50.14 17.3052 50.0462 19.9459 50.7025 22.4302C50.8275 22.9302 51.3431 23.2271 51.8431 23.1021C52.3431 22.9771 52.64 22.4615 52.515 21.9615C51.9525 19.8209 52.0306 17.5709 52.7337 15.4771C52.9056 14.9771 52.64 14.4459 52.1556 14.274Z" fill="#968B82"/>
<path d="M54.1401 3.55566C54.9686 3.55566 55.6401 2.88409 55.6401 2.05566C55.6401 1.22724 54.9686 0.555664 54.1401 0.555664C53.3117 0.555664 52.6401 1.22724 52.6401 2.05566C52.6401 2.88409 53.3117 3.55566 54.1401 3.55566Z" fill="#968B82"/>
<path d="M69.6555 25.0241C69.9836 25.1179 70.343 25.1647 70.7024 25.1647C72.9368 25.1647 74.7336 23.3522 74.7336 21.1335C74.7336 20.7585 74.6868 20.3835 74.5774 20.0397C74.5461 19.9147 74.4993 19.7897 74.4524 19.6647C74.4211 19.5866 74.3899 19.5085 74.3586 19.4304C79.5461 12.3054 80.7961 6.80537 77.8743 3.86787C75.5618 1.571 72.0149 2.28975 69.4368 3.30537C68.9524 3.49287 68.718 4.03975 68.9055 4.52412C69.093 5.0085 69.6399 5.24287 70.1243 5.05537H70.1399C73.1243 3.8835 75.2649 3.93037 76.5461 5.21162C78.6243 7.30537 77.343 12.0241 73.1399 17.9147C72.468 17.3991 71.6086 17.0866 70.7024 17.0866C68.468 17.0866 66.6711 18.8991 66.6711 21.1179C66.6711 22.2897 67.1711 23.3523 67.9836 24.0866C67.6868 24.3991 67.3899 24.696 67.0774 25.0085C60.718 31.3835 54.0149 35.5085 49.9993 35.5085C48.8586 35.5085 47.968 35.1804 47.3118 34.5241C45.6555 32.8522 46.4055 29.8835 47.3274 27.6804C47.5305 27.2116 47.3118 26.6491 46.8274 26.446C46.343 26.2429 45.7961 26.4616 45.593 26.946C44.4368 29.6804 43.5774 33.446 45.968 35.8366C46.9836 36.8522 48.343 37.3679 49.9836 37.3679C55.4368 37.3679 63.0618 31.6647 68.3899 26.321C68.7961 25.9147 69.2336 25.4616 69.6555 25.0241ZM70.6868 19.0397C71.8586 19.0397 72.8274 19.9772 72.843 21.1647V21.1804C72.843 22.3522 71.9055 23.321 70.718 23.321C69.5305 23.321 68.5774 22.3835 68.5618 21.196C68.5461 20.0241 69.4993 19.0554 70.6868 19.0397Z" fill="#968B82"/>
<path d="M30.7715 70.3125C30.7715 70.5611 30.8703 70.7996 31.0461 70.9754C31.2219 71.1512 31.4603 71.25 31.709 71.25H39.9776C40.2262 71.25 40.4647 71.1512 40.6405 70.9754C40.8163 70.7996 40.9151 70.5611 40.9151 70.3125C40.9151 70.0639 40.8163 69.8254 40.6405 69.6496C40.4647 69.4738 40.2262 69.375 39.9776 69.375H31.709C31.4603 69.375 31.2219 69.4738 31.0461 69.6496C30.8703 69.8254 30.7715 70.0639 30.7715 70.3125Z" fill="#3E61EE"/>
<path d="M31.3384 52.656H31.2069C32.8043 51.9408 34.1603 50.778 35.1108 49.3083C36.0613 47.8386 36.5655 46.125 36.5625 44.3748V40.9254C37.7957 39.5618 38.4798 37.7897 38.483 35.9512C38.4861 34.1127 37.8079 32.3383 36.5794 30.9705C36.4776 27.3711 34.976 23.9534 32.3936 21.4438C29.8113 18.9343 26.352 17.531 22.7511 17.5322C19.1503 17.5334 15.6919 18.9391 13.1113 21.4504C10.5307 23.9616 9.03133 27.3804 8.93203 30.9799C6.17359 34.0237 6.25 38.6193 8.90625 41.6341V44.6573C8.90625 48.1993 11.0752 51.2498 14.1148 52.656H14.0606C10.5411 52.6542 7.16502 54.0503 4.67475 56.5374C2.18448 59.0244 0.783984 62.3987 0.78125 65.9182V78.281C0.78125 78.5296 0.880022 78.7681 1.05584 78.9439C1.23165 79.1197 1.47011 79.2185 1.71875 79.2185H43.68C44.1977 79.2185 44.6875 78.7988 44.6875 78.281V65.9182C44.6875 58.5844 38.6606 52.656 31.3384 52.656ZM34.9766 39.8888C34.7966 40.0631 34.6927 40.3013 34.6875 40.5518V44.3748C34.6886 45.9022 34.1993 47.3897 33.2916 48.6182C32.3838 49.8467 31.1056 50.7512 29.6452 51.1987C30.1541 50.3359 30.6139 49.2787 30.6214 48.2434C31.6138 47.0221 32.305 45.5844 32.6389 44.0466L33.9412 39.2038C34.4874 39.1654 35.0115 38.9734 35.4532 38.6499C35.8949 38.3265 36.2362 37.8847 36.4377 37.3757C36.1818 38.328 35.6776 39.1953 34.9766 39.8888ZM25.9411 49.4635L25.772 49.5326C25.648 49.5835 25.5208 49.6318 25.3939 49.6766C24.6754 49.9202 23.9743 50.2126 23.2956 50.5516C23.135 50.6486 22.9517 50.7016 22.7642 50.7055C22.5766 50.7093 22.3913 50.6638 22.2269 50.5735C21.5873 50.2629 20.929 49.9926 20.2558 49.7641C19.9916 49.6784 19.7528 49.5898 19.5258 49.4935C18.3225 48.982 17.2599 48.1885 16.4277 47.18C15.5955 46.1715 15.0182 44.9775 14.7445 43.699C14.7413 43.6833 14.7375 43.6677 14.7334 43.6521L13.2272 38.0337C13.1735 37.8346 13.0556 37.6589 12.8917 37.5339C12.7277 37.4089 12.5271 37.3416 12.3209 37.3426H11.7991C11.5297 37.3426 11.2714 37.2356 11.0809 37.0451C10.8904 36.8546 10.7834 36.5963 10.7834 36.3269C10.7834 36.0576 10.8904 35.7993 11.0809 35.6088C11.2714 35.4183 11.5297 35.3113 11.7991 35.3113H12.3214C12.3729 35.3067 12.4239 35.298 12.4739 35.2852C14.2234 34.9274 15.9023 34.2849 17.4438 33.3834C20.1173 31.838 22.1027 29.6701 23.2831 27.0396C24.6054 29.3412 26.7554 31.0522 29.2952 31.824C29.4413 31.868 29.5959 31.8757 29.7457 31.8465C29.8954 31.8173 30.0358 31.752 30.1547 31.6563C30.2735 31.5606 30.3673 31.4374 30.4278 31.2973C30.4883 31.1573 30.5137 31.0045 30.5019 30.8524L30.2072 26.9216C31.2244 27.9149 32.3438 29.7776 32.3438 33.056V34.3485C32.338 34.5975 32.431 34.8386 32.6025 35.0192C32.774 35.1998 33.01 35.3051 33.2589 35.3123H33.745C34.0144 35.3123 34.2727 35.4193 34.4632 35.6097C34.6536 35.8002 34.7606 36.0585 34.7606 36.3279C34.7606 36.5972 34.6536 36.8556 34.4632 37.046C34.2727 37.2365 34.0144 37.3435 33.745 37.3435H33.2225C33.0166 37.3427 32.8162 37.41 32.6524 37.5348C32.4887 37.6597 32.3708 37.8352 32.317 38.034L30.8256 43.5852C30.8216 43.6009 30.8177 43.6155 30.8144 43.6321C30.5379 44.9273 29.9495 46.1354 29.1003 47.1516C28.251 48.1678 27.1666 48.9614 25.9411 49.4635ZM26.5625 51.2093V53.8755C26.5726 54.3815 26.5307 54.8871 26.4375 55.3844C26.0324 56.0147 25.4756 56.5332 24.818 56.8922C24.1604 57.2513 23.4232 57.4394 22.674 57.4394C21.9248 57.4394 21.1876 57.2513 20.53 56.8922C19.8724 56.5332 19.3155 56.0147 18.9105 55.3844C18.8055 54.8883 18.7517 54.3827 18.75 53.8755V51.2113C18.75 51.2141 18.7748 51.2174 18.7812 51.2202C19.0591 51.338 19.3541 51.4452 19.6708 51.5484C20.2707 51.7534 20.8575 51.995 21.4278 52.2719C21.8518 52.4837 22.3207 52.5896 22.7945 52.5809C23.2683 52.5721 23.7329 52.4489 24.1488 52.2216C24.7531 51.9208 25.3772 51.6614 26.0167 51.4451C26.173 51.3901 26.298 51.3304 26.4516 51.2677L26.5625 51.2093ZM10.7812 44.6573V41.2594C10.7854 41.1378 10.7653 41.0165 10.7221 40.9027C10.6788 40.7889 10.6134 40.6849 10.5295 40.5966C9.42277 39.4916 8.78702 38.0008 8.75567 36.4371C8.72432 34.8734 9.29982 33.3583 10.3614 32.2098L10.5747 31.9835C10.734 31.8109 10.8229 31.5848 10.8239 31.3499C10.8353 28.1891 12.099 25.1616 14.3381 22.9306C16.5772 20.6996 19.6092 19.4469 22.7701 19.4469C25.9309 19.4469 28.963 20.6996 31.2021 22.9306C33.4412 25.1616 34.7048 28.1891 34.7163 31.3499C34.7163 31.4731 34.7406 31.595 34.7878 31.7088C34.835 31.8225 34.9041 31.9259 34.9912 32.0129C36.0301 33.0462 36.6165 34.4494 36.6217 35.9146C36.5345 35.3015 36.2548 34.7319 35.8229 34.2881C35.391 33.8443 34.8293 33.5492 34.2188 33.4454V33.0838C34.375 26.1151 29.6545 24.2502 29.4547 24.1741C29.3065 24.1176 29.1465 24.0994 28.9895 24.1211C28.8324 24.1428 28.6833 24.2038 28.5561 24.2984C28.4289 24.393 28.3276 24.5182 28.2615 24.6624C28.1955 24.8066 28.1669 24.965 28.1784 25.1232L28.5175 29.5026C26.4932 28.4947 24.9501 26.7264 24.2256 24.5843L24.085 24.1693C24.0255 23.968 23.9002 23.7925 23.7291 23.6709C23.5581 23.5493 23.3511 23.4887 23.1415 23.4986C22.9318 23.5086 22.7316 23.5886 22.5728 23.7259C22.4141 23.8631 22.3059 24.0497 22.2658 24.2557C21.4656 27.4666 19.547 29.9919 16.5608 31.7354C14.5048 32.9362 12.6094 33.281 12.2356 33.4373H11.7991C11.0512 33.4396 10.3334 33.7317 9.79634 34.2521C9.25931 34.7726 8.94489 35.4809 8.91914 36.2283C8.8934 36.9758 9.15832 37.7041 9.65826 38.2602C10.1582 38.8164 10.8542 39.1572 11.6002 39.211L12.9161 44.1191C13.2874 45.8264 14.0987 47.4069 15.2695 48.7037C15.3849 49.5897 15.6093 50.4581 15.9375 51.2891C14.4665 50.908 13.1629 50.0508 12.2302 48.8511C11.2975 47.6514 10.788 46.1768 10.7812 44.6573ZM19.0625 77.3435H2.65625V65.9182C2.65734 64.4217 2.95319 62.94 3.52691 61.5578C4.10063 60.1756 4.94098 58.92 5.99998 57.8626C7.05898 56.8052 8.3159 55.9667 9.69895 55.3951C11.082 54.8235 12.5641 54.5298 14.0606 54.531H15.6031L12.1597 57.9955C12.0721 58.0824 12.003 58.186 11.9566 58.3003C11.9101 58.4145 11.8872 58.5369 11.8892 58.6602C11.8912 58.7842 11.9181 58.9066 11.9683 59.02C12.0185 59.1335 12.091 59.2356 12.1814 59.3205L16.5905 63.5002L14.9789 65.2929C14.8185 65.4716 14.7328 65.705 14.7394 65.945C14.7461 66.185 14.8445 66.4133 15.0145 66.5829L17.4897 69.0541C18.4948 70.0633 19.0602 71.4289 19.0625 72.8532V77.3435ZM21.7188 77.3435H20.9375V72.8532C20.9336 70.9306 20.1698 69.0875 18.8125 67.7259L16.9656 65.8821L18.5938 64.0721C18.7571 63.8906 18.8431 63.6525 18.8336 63.4084C18.824 63.1644 18.7197 62.9338 18.5427 62.7655L14.1659 58.614L17.0736 55.6724C17.4128 57.4337 18.264 59.0559 19.5206 60.3359L21.7188 62.5935V77.3435ZM20.9191 59.0623C22.0822 59.3996 23.3172 59.3996 24.4803 59.0623L22.6991 60.873L20.9191 59.0623ZM24.2188 77.3435H23.5938V62.5935L25.8352 60.3362C27.1033 59.0561 27.9663 57.4309 28.3164 55.6634L31.2391 58.6143L26.8641 62.7659C26.6873 62.9343 26.5832 63.1651 26.5739 63.4091C26.5647 63.6531 26.651 63.8911 26.8145 64.0724L28.4414 65.8834L26.3408 67.9841C25.6654 68.6551 25.13 69.4536 24.7657 70.3332C24.4015 71.2128 24.2155 72.156 24.2188 73.108V77.3435ZM42.8125 77.3435H26.0938V73.108C26.0912 72.4026 26.2288 71.7037 26.4986 71.0519C26.7684 70.4001 27.165 69.8084 27.6653 69.3112L30.3983 66.5819C30.5681 66.4122 30.6663 66.1838 30.6727 65.9438C30.679 65.7038 30.5931 65.4705 30.4325 65.2919L28.8203 63.4979L33.2292 59.3157C33.3197 59.2299 33.3922 59.1268 33.4423 59.0126C33.4925 58.8985 33.5194 58.7754 33.5214 58.6507C33.5233 58.5288 33.5003 58.4078 33.4537 58.2952C33.4072 58.1825 33.3381 58.0806 33.2508 57.9955L29.8073 54.531H31.3386C37.6267 54.531 42.8125 59.6184 42.8125 65.9182V77.3435Z" fill="#3E61EE"/>
<path d="M19.2897 36.8633C19.0411 36.8633 18.8026 36.9621 18.6268 37.1379C18.451 37.3137 18.3522 37.5521 18.3522 37.8008C18.3535 37.875 18.3399 37.9487 18.3124 38.0176C18.2849 38.0866 18.2439 38.1493 18.1918 38.2022C18.1398 38.2552 18.0777 38.2972 18.0093 38.3259C17.9408 38.3546 17.8673 38.3693 17.7931 38.3693C17.7189 38.3693 17.6454 38.3546 17.5769 38.3259C17.5085 38.2972 17.4464 38.2552 17.3944 38.2022C17.3423 38.1493 17.3014 38.0866 17.2738 38.0176C17.2463 37.9487 17.2327 37.875 17.234 37.8008C17.234 37.5521 17.1352 37.3137 16.9594 37.1379C16.7836 36.9621 16.5451 36.8633 16.2965 36.8633C16.0478 36.8633 15.8094 36.9621 15.6336 37.1379C15.4577 37.3137 15.359 37.5521 15.359 37.8008C15.3564 38.1221 15.4175 38.4407 15.5386 38.7383C15.6598 39.0359 15.8387 39.3065 16.065 39.5346C16.2913 39.7627 16.5605 39.9438 16.8571 40.0673C17.1537 40.1909 17.4718 40.2545 17.7931 40.2545C18.1144 40.2545 18.4325 40.1909 18.7291 40.0673C19.0257 39.9438 19.295 39.7627 19.5212 39.5346C19.7475 39.3065 19.9264 39.0359 20.0476 38.7383C20.1688 38.4407 20.2298 38.1221 20.2272 37.8008C20.2272 37.5521 20.1285 37.3137 19.9527 37.1379C19.7768 36.9621 19.5384 36.8633 19.2897 36.8633Z" fill="#3E61EE"/>
<path d="M30.1848 37.8008C30.1848 37.5521 30.086 37.3137 29.9102 37.1379C29.7344 36.9621 29.4959 36.8633 29.2473 36.8633C28.9986 36.8633 28.7602 36.9621 28.5844 37.1379C28.4085 37.3137 28.3098 37.5521 28.3098 37.8008C28.311 37.875 28.2975 37.9487 28.2699 38.0176C28.2424 38.0866 28.2014 38.1493 28.1493 38.2022C28.0973 38.2552 28.0352 38.2972 27.9668 38.3259C27.8983 38.3546 27.8249 38.3693 27.7506 38.3693C27.6764 38.3693 27.6029 38.3546 27.5345 38.3259C27.466 38.2972 27.404 38.2552 27.3519 38.2022C27.2999 38.1493 27.2589 38.0866 27.2313 38.0176C27.2038 37.9487 27.1902 37.875 27.1915 37.8008C27.1915 37.5521 27.0927 37.3137 26.9169 37.1379C26.7411 36.9621 26.5026 36.8633 26.254 36.8633C26.0053 36.8633 25.7669 36.9621 25.5911 37.1379C25.4153 37.3137 25.3165 37.5521 25.3165 37.8008C25.3139 38.1221 25.375 38.4407 25.4961 38.7383C25.6173 39.0359 25.7962 39.3065 26.0225 39.5346C26.2488 39.7627 26.518 39.9438 26.8146 40.0673C27.1112 40.1909 27.4293 40.2545 27.7506 40.2545C28.0719 40.2545 28.3901 40.1909 28.6867 40.0673C28.9833 39.9438 29.2525 39.7627 29.4788 39.5346C29.705 39.3065 29.8839 39.0359 30.0051 38.7383C30.1263 38.4407 30.1873 38.1221 30.1848 37.8008Z" fill="#3E61EE"/>
<path d="M19.0728 26.1164C19.1748 26.1854 19.2893 26.2336 19.4099 26.2584C19.5305 26.2831 19.6548 26.2838 19.7757 26.2605C19.8966 26.2372 20.0117 26.1903 20.1145 26.1225C20.2173 26.0547 20.3057 25.9673 20.3747 25.8653C20.8178 25.2116 21.1979 24.5174 21.5098 23.7919C21.5606 23.6783 21.5883 23.5559 21.5912 23.4315C21.5942 23.3072 21.5724 23.1835 21.5271 23.0677C21.4818 22.9519 21.4139 22.8463 21.3274 22.757C21.2409 22.6676 21.1375 22.5964 21.0232 22.5474C20.9089 22.4985 20.786 22.4727 20.6616 22.4717C20.5373 22.4707 20.414 22.4944 20.2989 22.5415C20.1838 22.5886 20.0792 22.6582 19.9913 22.7461C19.9033 22.834 19.8337 22.9385 19.7865 23.0536C19.5213 23.6697 19.1983 24.2594 18.8217 24.8145C18.7527 24.9165 18.7045 25.031 18.6797 25.1517C18.655 25.2723 18.6543 25.3966 18.6776 25.5175C18.7009 25.6383 18.7478 25.7535 18.8156 25.8562C18.8834 25.959 18.9708 26.0474 19.0728 26.1164Z" fill="#3E61EE"/>
<path d="M13.4282 31.2968C13.541 31.2968 16.2126 31.2628 18.2284 28.3021C18.2976 28.2004 18.3462 28.0859 18.3713 27.9654C18.3964 27.8449 18.3974 27.7206 18.3745 27.5996C18.3515 27.4786 18.3049 27.3634 18.2374 27.2604C18.1699 27.1574 18.0828 27.0688 17.981 26.9995C17.8792 26.9302 17.7648 26.8816 17.6443 26.8566C17.5237 26.8315 17.3994 26.8304 17.2785 26.8534C17.1575 26.8763 17.0422 26.9229 16.9393 26.9904C16.8363 27.0579 16.7476 27.1451 16.6784 27.2468C15.2534 29.3406 13.5121 29.4187 13.4185 29.4218C13.1699 29.4231 12.9319 29.5231 12.757 29.6998C12.5821 29.8766 12.4846 30.1155 12.4859 30.3642C12.4871 30.6128 12.5871 30.8508 12.7639 31.0257C12.9406 31.2006 13.1796 31.2981 13.4282 31.2968Z" fill="#3E61EE"/>
</g>
<defs>
<clipPath id="clip0_6771_13979">
<rect width="80" height="80" fill="white"/>
</clipPath>
</defs>
</svg>
