<svg fill="none" xmlns="http://www.w3.org/2000/svg">
<path d="M30.2778 64.9998H27.7778V59.9998L30.2778 58.8887V64.9998Z" fill="#3E61EE" fill-opacity="0.2"/>
<path d="M10.1753 62.3244C10.2048 62.375 10.2364 62.4246 10.269 62.473C10.2362 62.4246 10.205 62.375 10.1753 62.3244ZM10.3495 62.583C10.3564 62.5921 10.3628 62.6016 10.3698 62.6105C10.3628 62.6016 10.3564 62.5921 10.3495 62.583ZM17.6706 50.0088C17.7373 50.0591 17.8056 50.1069 17.8747 50.1536C17.8053 50.1073 17.7373 50.059 17.6706 50.0088Z" fill="#3E61EE" fill-opacity="0.2"/>
<path d="M27.0666 13.8887C26.6659 13.8887 26.2816 14.0479 25.9983 14.3313C25.7149 14.6146 25.5557 14.9989 25.5557 15.3996V35.4976L30.2432 37.442V15.3996C30.2432 14.9989 30.4024 14.6146 30.6858 14.3313C30.9691 14.0479 31.3534 13.8887 31.7541 13.8887H27.0666Z" fill="#3E61EE" fill-opacity="0.2"/>
<path d="M73.2711 4.37469H53.0333C52.5144 3.28891 51.6988 2.37215 50.6808 1.73038C49.6628 1.08861 48.4839 0.748047 47.2805 0.748047C46.0771 0.748047 44.8983 1.08861 43.8803 1.73038C42.8623 2.37215 42.0467 3.28891 41.5278 4.37469H21.29C19.1065 4.37469 17.3784 6.18391 17.3784 8.36719V35.5552H19.2534V8.36719C19.2478 8.09434 19.296 7.82306 19.3953 7.56887C19.4947 7.31469 19.6432 7.08261 19.8324 6.88591C20.0216 6.68921 20.2477 6.53177 20.4978 6.4226C20.7479 6.31342 21.0171 6.25467 21.29 6.24969H40.9648C40.9474 6.55239 40.9498 6.85591 40.9722 7.15828V8.90594H31.8675C31.7448 8.9108 31.6243 8.93983 31.5128 8.99137C31.4013 9.04291 31.3012 9.11593 31.218 9.20626C31.1348 9.2966 31.0703 9.40246 31.0281 9.51777C30.9859 9.63309 30.9669 9.7556 30.9722 9.87828V12.6559H26.7878C25.4376 12.6559 24.4097 13.8291 24.4097 15.1792V35.5552H26.2847V15.1792C26.2847 14.863 26.4722 14.5309 26.7878 14.5309H30.9722V17.1316C30.9722 17.6494 31.3498 18.1247 31.8675 18.1247H62.6936C62.9475 18.1119 63.1866 18.0014 63.3609 17.8163C63.5351 17.6311 63.631 17.3858 63.6284 17.1316V14.5309H67.7731C68.0894 14.5309 68.3159 14.863 68.3159 15.1792V56.2497H63.4944C61.3109 56.2497 59.5659 58.0824 59.5659 60.2653V64.9997H28.0555V66.8747L60.4722 66.8672C60.6054 66.8669 60.7371 66.8382 60.8584 66.7829C60.9796 66.7276 61.0877 66.647 61.1753 66.5466L69.4001 58.4755C69.6544 58.2198 69.8552 57.9162 69.9909 57.5822C70.1267 57.2482 70.1947 56.8905 70.1909 56.53V15.1792C70.1909 13.8291 69.1233 12.6559 67.7731 12.6559H63.6284V9.87828C63.6303 9.62628 63.5335 9.38354 63.3589 9.20187C63.1842 9.02021 62.9455 8.91401 62.6936 8.90594H53.6284V7.15828C53.6372 6.85504 53.6264 6.55155 53.5962 6.24969H73.2711C73.8263 6.25808 74.3557 6.48517 74.7444 6.88165C75.1331 7.27812 75.3497 7.81195 75.3472 8.36719V71.2281C75.3472 71.4997 75.2934 71.7685 75.1887 72.0191C75.0841 72.2697 74.9308 72.4971 74.7377 72.688C74.5446 72.879 74.3156 73.0297 74.0638 73.1315C73.8121 73.2332 73.5426 73.284 73.2711 73.2809H25.2777V75.1559H73.2711C73.7888 75.1588 74.3019 75.0593 74.781 74.8632C75.2602 74.6671 75.6958 74.3782 76.063 74.0132C76.4301 73.6482 76.7215 73.2143 76.9205 72.7363C77.1194 72.2584 77.2219 71.7458 77.2222 71.2281V8.36719C77.2243 7.3148 76.8101 6.30429 76.0698 5.55627C75.3296 4.80825 74.3234 4.38348 73.2711 4.37469ZM61.4409 63.8298V60.2653C61.4409 59.1159 62.3448 58.1247 63.4944 58.1247H67.0584L61.4409 63.8298ZM61.7534 10.7809V16.2497H32.8472V10.7809H41.8406C42.3584 10.7809 42.8472 10.3961 42.8472 9.87828V7.15828C42.8472 5.97724 43.3163 4.84457 44.1515 4.00945C44.9866 3.17432 46.1192 2.70516 47.3003 2.70516C48.4813 2.70516 49.614 3.17432 50.4491 4.00945C51.2843 4.84457 51.7534 5.97724 51.7534 7.15828V9.87828C51.7575 10.0011 51.7857 10.1219 51.8365 10.2338C51.8873 10.3456 51.9597 10.4464 52.0495 10.5302C52.1394 10.6141 52.2448 10.6794 52.3599 10.7224C52.475 10.7654 52.5975 10.7853 52.7203 10.7809H61.7534Z" fill="#3E61EE"/>
<path d="M62.8301 35.3125C62.8301 35.0639 62.7313 34.8254 62.5555 34.6496C62.3797 34.4738 62.1412 34.375 61.8926 34.375H57.5176C57.2689 34.375 57.0305 34.4738 56.8547 34.6496C56.6788 34.8254 56.5801 35.0639 56.5801 35.3125V53.9062C56.5801 54.1549 56.6788 54.3933 56.8547 54.5692C57.0305 54.745 57.2689 54.8438 57.5176 54.8438H61.8926C62.1412 54.8438 62.3797 54.745 62.5555 54.5692C62.7313 54.3933 62.8301 54.1549 62.8301 53.9062V35.3125ZM58.4551 36.25H60.9551V52.9688H58.4551V36.25Z" fill="#3E61EE"/>
<path d="M53.7676 40.9375C53.7676 40.6889 53.6688 40.4504 53.493 40.2746C53.3172 40.0988 53.0787 40 52.8301 40H48.4551C48.2064 40 47.968 40.0988 47.7922 40.2746C47.6163 40.4504 47.5176 40.6889 47.5176 40.9375V53.9062C47.5176 54.1549 47.6163 54.3933 47.7922 54.5692C47.968 54.745 48.2064 54.8438 48.4551 54.8438H52.8301C53.0787 54.8438 53.3172 54.745 53.493 54.5692C53.6688 54.3933 53.7676 54.1549 53.7676 53.9062V40.9375ZM49.3926 41.875H51.8926V52.9688H49.3926V41.875Z" fill="#3E61EE"/>
<path d="M35.3818 22.9688H45.8773C46.1259 22.9688 46.3644 22.87 46.5402 22.6942C46.716 22.5183 46.8148 22.2799 46.8148 22.0312C46.8148 21.7826 46.716 21.5442 46.5402 21.3683C46.3644 21.1925 46.1259 21.0938 45.8773 21.0938H35.3818C35.1332 21.0938 34.8947 21.1925 34.7189 21.3683C34.5431 21.5442 34.4443 21.7826 34.4443 22.0312C34.4443 22.2799 34.5431 22.5183 34.7189 22.6942C34.8947 22.87 35.1332 22.9688 35.3818 22.9688Z" fill="#3E61EE"/>
<path d="M39.54 26.875C39.54 27.1236 39.6388 27.3621 39.8146 27.5379C39.9904 27.7137 40.2289 27.8125 40.4775 27.8125H52.2777C52.5263 27.8125 52.7648 27.7137 52.9406 27.5379C53.1164 27.3621 53.2152 27.1236 53.2152 26.875C53.2152 26.6264 53.1164 26.3879 52.9406 26.2121C52.7648 26.0363 52.5263 25.9375 52.2777 25.9375H40.4775C40.2289 25.9375 39.9904 26.0363 39.8146 26.2121C39.6388 26.3879 39.54 26.6264 39.54 26.875Z" fill="#3E61EE"/>
<path d="M35.3818 27.8125H37.0718C37.3205 27.8125 37.5589 27.7137 37.7348 27.5379C37.9106 27.3621 38.0093 27.1236 38.0093 26.875C38.0093 26.6264 37.9106 26.3879 37.7348 26.2121C37.5589 26.0363 37.3205 25.9375 37.0718 25.9375H35.3818C35.1332 25.9375 34.8947 26.0363 34.7189 26.2121C34.5431 26.3879 34.4443 26.6264 34.4443 26.875C34.4443 27.1236 34.5431 27.3621 34.7189 27.5379C34.8947 27.7137 35.1332 27.8125 35.3818 27.8125Z" fill="#3E61EE"/>
<path fill-rule="evenodd" clip-rule="evenodd" d="M21.6667 35.8337C14.7631 35.8337 9.16667 41.4301 9.16667 48.3337C9.16667 52.4909 11.1952 56.1742 14.3201 58.4481C15.4853 59.296 16.3889 60.6389 16.3889 62.2171V70.0003C16.3889 70.7674 17.0107 71.3892 17.7778 71.3892H25.5556C26.3226 71.3892 26.9444 70.7674 26.9444 70.0003V62.2171C26.9444 60.6389 27.848 59.296 29.0132 58.4481C32.1381 56.1742 34.1667 52.4909 34.1667 48.3337C34.1667 41.4301 28.5702 35.8337 21.6667 35.8337ZM7.5 48.3337C7.5 40.5096 13.8426 34.167 21.6667 34.167C29.4907 34.167 35.8333 40.5096 35.8333 48.3337C35.8333 53.0465 33.5312 57.2217 29.9938 59.7957C29.1428 60.415 28.6111 61.3017 28.6111 62.2171V70.0003C28.6111 71.6879 27.2431 73.0559 25.5556 73.0559H17.7778C16.0902 73.0559 14.7222 71.6879 14.7222 70.0003V62.2171C14.7222 61.3017 14.1905 60.415 13.3395 59.7957C9.8021 57.2217 7.5 53.0465 7.5 48.3337Z" fill="#968B82"/>
<path fill-rule="evenodd" clip-rule="evenodd" d="M27.7774 63.611H15.5552V61.9443H27.7774V63.611Z" fill="#968B82"/>
<path fill-rule="evenodd" clip-rule="evenodd" d="M18.0552 66.1117C18.0552 65.6514 18.4283 65.2783 18.8885 65.2783L24.4441 65.2783C24.9043 65.2783 25.2774 65.6514 25.2774 66.1117C25.2774 66.5719 24.9043 66.945 24.4441 66.945L18.8885 66.945C18.4283 66.945 18.0552 66.5719 18.0552 66.1117Z" fill="#968B82"/>
<path fill-rule="evenodd" clip-rule="evenodd" d="M18.0552 69.4447C18.0552 68.9844 18.4283 68.6113 18.8885 68.6113L24.4441 68.6113C24.9043 68.6113 25.2774 68.9844 25.2774 69.4447C25.2774 69.9049 24.9043 70.278 24.4441 70.278L18.8885 70.278C18.4283 70.278 18.0552 69.9049 18.0552 69.4447Z" fill="#968B82"/>
<path fill-rule="evenodd" clip-rule="evenodd" d="M18.611 72.2227C18.611 73.9102 19.979 75.2782 21.6666 75.2782C23.3541 75.2782 24.7221 73.9102 24.7221 72.2227H26.3888C26.3888 74.8307 24.2746 76.9449 21.6666 76.9449C19.0585 76.9449 16.9443 74.8307 16.9443 72.2227H18.611Z" fill="#968B82"/>
<path fill-rule="evenodd" clip-rule="evenodd" d="M21.6663 28.0557C22.1266 28.0557 22.4997 28.4288 22.4997 28.889L22.4997 32.2223C22.4997 32.6826 22.1266 33.0557 21.6663 33.0557C21.2061 33.0557 20.833 32.6826 20.833 32.2223L20.833 28.889C20.833 28.4288 21.2061 28.0557 21.6663 28.0557Z" fill="#968B82"/>
<path fill-rule="evenodd" clip-rule="evenodd" d="M7.18838 33.8551C7.51381 33.5296 8.04145 33.5296 8.36689 33.8551L10.7239 36.2121C11.0493 36.5375 11.0493 37.0652 10.7239 37.3906C10.3985 37.716 9.87084 37.716 9.5454 37.3906L7.18838 35.0336C6.86294 34.7082 6.86294 34.1805 7.18838 33.8551Z" fill="#968B82"/>
<path fill-rule="evenodd" clip-rule="evenodd" d="M36.2789 33.8551C35.9535 33.5296 35.4258 33.5296 35.1004 33.8551L32.7434 36.2121C32.4179 36.5375 32.4179 37.0652 32.7434 37.3906C33.0688 37.716 33.5964 37.716 33.9219 37.3906L36.2789 35.0336C36.6043 34.7082 36.6043 34.1805 36.2789 33.8551Z" fill="#968B82"/>
<path fill-rule="evenodd" clip-rule="evenodd" d="M7.18838 62.391C7.51381 62.7165 8.04145 62.7165 8.36689 62.391L10.7239 60.034C11.0493 59.7086 11.0493 59.1809 10.7239 58.8555C10.3985 58.53 9.87084 58.53 9.5454 58.8555L7.18838 61.2125C6.86294 61.5379 6.86294 62.0656 7.18838 62.391Z" fill="#968B82"/>
<path fill-rule="evenodd" clip-rule="evenodd" d="M36.2789 62.391C35.9535 62.7165 35.4258 62.7165 35.1004 62.391L32.7434 60.034C32.4179 59.7086 32.4179 59.1809 32.7434 58.8555C33.0688 58.53 33.5964 58.53 33.9219 58.8555L36.2789 61.2125C36.6043 61.5379 36.6043 62.0656 36.2789 62.391Z" fill="#968B82"/>
<path fill-rule="evenodd" clip-rule="evenodd" d="M6.38867 47.7777C6.38867 48.2379 6.01558 48.611 5.55534 48.611L2.222 48.611C1.76177 48.611 1.38867 48.2379 1.38867 47.7777C1.38867 47.3174 1.76177 46.9443 2.222 46.9443L5.55534 46.9443C6.01558 46.9443 6.38867 47.3174 6.38867 47.7777Z" fill="#968B82"/>
<path fill-rule="evenodd" clip-rule="evenodd" d="M41.9443 47.7777C41.9443 48.2379 41.5712 48.611 41.111 48.611L37.7777 48.611C37.3174 48.611 36.9443 48.2379 36.9443 47.7777C36.9443 47.3174 37.3174 46.9443 37.7777 46.9443L41.111 46.9443C41.5712 46.9443 41.9443 47.3174 41.9443 47.7777Z" fill="#968B82"/>
</svg>
