<svg viewBox="0 0 144 144" fill="none" xmlns="http://www.w3.org/2000/svg">
<path d="M54.5 117H50V108L54.5 106V117Z" fill="#3E61EE" fill-opacity="0.2"/>
<path d="M18.3154 112.185C18.3686 112.276 18.4254 112.365 18.4842 112.452C18.4251 112.365 18.3689 112.276 18.3154 112.185ZM18.629 112.65C18.6414 112.667 18.6529 112.684 18.6656 112.7C18.6529 112.684 18.6414 112.667 18.629 112.65ZM31.807 90.0166C31.9271 90.1072 32.05 90.1932 32.1743 90.2773C32.0494 90.1939 31.927 90.107 31.807 90.0166Z" fill="#3E61EE" fill-opacity="0.2"/>
<path d="M48.7197 25C47.9984 25.0001 47.3067 25.2866 46.7967 25.7967C46.2866 26.3067 46.0001 26.9984 46 27.7197V63.896L54.4375 67.396V27.7197C54.4376 26.9984 54.7241 26.3067 55.2342 25.7967C55.7442 25.2866 56.4359 25.0001 57.1572 25H48.7197Z" fill="#3E61EE" fill-opacity="0.2"/>
<path d="M131.888 7.87512H95.46C94.5259 5.92072 93.0579 4.27055 91.2255 3.11537C89.3931 1.96019 87.2712 1.34717 85.105 1.34717C82.9389 1.34717 80.817 1.96019 78.9846 3.11537C77.1522 4.27055 75.6842 5.92072 74.7501 7.87512H38.3221C34.3919 7.87512 31.2812 11.1317 31.2812 15.0616V64H34.6562V15.0616C34.6461 14.5705 34.7329 14.0822 34.9117 13.6247C35.0905 13.1671 35.3579 12.7494 35.6984 12.3953C36.0389 12.0413 36.4459 11.7579 36.8961 11.5614C37.3464 11.3648 37.8309 11.2591 38.3221 11.2501H73.7368C73.7053 11.795 73.7098 12.3413 73.75 12.8856V16.0314H57.3616C57.1407 16.0401 56.9238 16.0924 56.7231 16.1852C56.5225 16.2779 56.3422 16.4094 56.1925 16.572C56.0428 16.7346 55.9266 16.9251 55.8507 17.1327C55.7747 17.3403 55.7405 17.5608 55.75 17.7816V22.7814H48.2181C45.7878 22.7814 43.9375 24.893 43.9375 27.3233V64H47.3125V27.3233C47.3125 26.754 47.65 26.1564 48.2181 26.1564H55.75V30.8375C55.75 31.7696 56.4298 32.6251 57.3616 32.6251H112.849C113.306 32.6021 113.736 32.4032 114.05 32.07C114.363 31.7367 114.536 31.2951 114.531 30.8375V26.1564H121.992C122.561 26.1564 122.969 26.754 122.969 27.3233V101.25H114.29C110.36 101.25 107.219 104.549 107.219 108.478V117H50.5V120.375L108.85 120.362C109.09 120.361 109.327 120.309 109.545 120.21C109.763 120.11 109.958 119.965 110.116 119.785L124.92 105.257C125.378 104.796 125.739 104.25 125.984 103.649C126.228 103.047 126.351 102.404 126.344 101.755V27.3233C126.344 24.893 124.422 22.7814 121.992 22.7814H114.531V17.7816C114.535 17.328 114.36 16.8911 114.046 16.5641C113.732 16.2371 113.302 16.0459 112.849 16.0314H96.5312V12.8856C96.547 12.3398 96.5277 11.7935 96.4733 11.2501H131.888C132.887 11.2652 133.84 11.674 134.54 12.3876C135.24 13.1013 135.63 14.0622 135.625 15.0616V128.211C135.625 128.7 135.528 129.184 135.34 129.635C135.152 130.086 134.876 130.495 134.528 130.839C134.18 131.183 133.768 131.454 133.315 131.637C132.862 131.82 132.377 131.912 131.888 131.906H45.5V135.281H131.888C132.82 135.286 133.744 135.107 134.606 134.754C135.468 134.401 136.253 133.881 136.913 133.224C137.574 132.567 138.099 131.786 138.457 130.926C138.815 130.066 139 129.143 139 128.211V15.0616C139.004 13.1673 138.258 11.3484 136.926 10.002C135.593 8.65553 133.782 7.89094 131.888 7.87512ZM110.594 114.894V108.478C110.594 106.409 112.221 104.625 114.29 104.625H120.705L110.594 114.894ZM111.156 19.4064V29.2501H59.125V19.4064H75.3132C76.2453 19.4064 77.125 18.7137 77.125 17.7816V12.8856C77.125 10.7597 77.9695 8.72091 79.4727 7.21769C80.9759 5.71447 83.0147 4.86997 85.1406 4.86997C87.2665 4.86997 89.3053 5.71447 90.8085 7.21769C92.3118 8.72091 93.1562 10.7597 93.1562 12.8856V17.7816C93.1635 18.0026 93.2144 18.2201 93.3059 18.4215C93.3973 18.6228 93.5276 18.8042 93.6893 18.9551C93.851 19.106 94.0408 19.2236 94.248 19.301C94.4552 19.3785 94.6756 19.4143 94.8966 19.4064H111.156Z" fill="#3E61EE"/>
<path d="M113.094 63.5625C113.094 63.1149 112.916 62.6857 112.599 62.3693C112.283 62.0528 111.854 61.875 111.406 61.875H103.531C103.084 61.875 102.654 62.0528 102.338 62.3693C102.022 62.6857 101.844 63.1149 101.844 63.5625V97.0312C101.844 97.4788 102.022 97.908 102.338 98.2245C102.654 98.541 103.084 98.7188 103.531 98.7188H111.406C111.854 98.7188 112.283 98.541 112.599 98.2245C112.916 97.908 113.094 97.4788 113.094 97.0312V63.5625ZM105.219 65.25H109.719V95.3438H105.219V65.25Z" fill="#3E61EE"/>
<path d="M96.7812 73.6875C96.7812 73.2399 96.6035 72.8107 96.287 72.4943C95.9705 72.1778 95.5413 72 95.0938 72H87.2188C86.7712 72 86.342 72.1778 86.0255 72.4943C85.709 72.8107 85.5312 73.2399 85.5312 73.6875V97.0312C85.5312 97.4788 85.709 97.908 86.0255 98.2245C86.342 98.541 86.7712 98.7188 87.2188 98.7188H95.0938C95.5413 98.7188 95.9705 98.541 96.287 98.2245C96.6035 97.908 96.7812 97.4788 96.7812 97.0312V73.6875ZM88.9062 75.375H93.4062V95.3438H88.9062V75.375Z" fill="#3E61EE"/>
<path d="M63.6875 41.3438H82.5793C83.0269 41.3438 83.4561 41.166 83.7726 40.8495C84.0891 40.533 84.2668 40.1038 84.2668 39.6562C84.2668 39.2087 84.0891 38.7795 83.7726 38.463C83.4561 38.1465 83.0269 37.9688 82.5793 37.9688H63.6875C63.2399 37.9688 62.8107 38.1465 62.4943 38.463C62.1778 38.7795 62 39.2087 62 39.6562C62 40.1038 62.1778 40.533 62.4943 40.8495C62.8107 41.166 63.2399 41.3438 63.6875 41.3438Z" fill="#3E61EE"/>
<path d="M71.1719 48.375C71.1719 48.8226 71.3497 49.2518 71.6661 49.5682C71.9826 49.8847 72.4118 50.0625 72.8594 50.0625H94.0997C94.5472 50.0625 94.9764 49.8847 95.2929 49.5682C95.6094 49.2518 95.7872 48.8226 95.7872 48.375C95.7872 47.9274 95.6094 47.4982 95.2929 47.1818C94.9764 46.8653 94.5472 46.6875 94.0997 46.6875H72.8594C72.4118 46.6875 71.9826 46.8653 71.6661 47.1818C71.3497 47.4982 71.1719 47.9274 71.1719 48.375Z" fill="#3E61EE"/>
<path d="M63.6875 50.0625H66.7295C67.1771 50.0625 67.6063 49.8847 67.9227 49.5682C68.2392 49.2518 68.417 48.8226 68.417 48.375C68.417 47.9274 68.2392 47.4982 67.9227 47.1818C67.6063 46.8653 67.1771 46.6875 66.7295 46.6875H63.6875C63.2399 46.6875 62.8107 46.8653 62.4943 47.1818C62.1778 47.4982 62 47.9274 62 48.375C62 48.8226 62.1778 49.2518 62.4943 49.5682C62.8107 49.8847 63.2399 50.0625 63.6875 50.0625Z" fill="#3E61EE"/>
<path fill-rule="evenodd" clip-rule="evenodd" d="M39 64.5C26.5736 64.5 16.5 74.5736 16.5 87C16.5 94.483 20.1514 101.113 25.7762 105.206C27.8736 106.732 29.5 109.149 29.5 111.99V126C29.5 127.381 30.6193 128.5 32 128.5H46C47.3807 128.5 48.5 127.381 48.5 126V111.99C48.5 109.149 50.1264 106.732 52.2238 105.206C57.8486 101.113 61.5 94.483 61.5 87C61.5 74.5736 51.4264 64.5 39 64.5ZM13.5 87C13.5 72.9167 24.9167 61.5 39 61.5C53.0833 61.5 64.5 72.9167 64.5 87C64.5 95.483 60.3562 102.998 53.9889 107.632C52.4571 108.746 51.5 110.342 51.5 111.99V126C51.5 129.038 49.0376 131.5 46 131.5H32C28.9624 131.5 26.5 129.038 26.5 126V111.99C26.5 110.342 25.5429 108.746 24.0111 107.632C17.6438 102.998 13.5 95.483 13.5 87Z" fill="#968B82"/>
<path fill-rule="evenodd" clip-rule="evenodd" d="M50 114.5H28V111.5H50V114.5Z" fill="#968B82"/>
<path fill-rule="evenodd" clip-rule="evenodd" d="M32.5 119C32.5 118.172 33.1716 117.5 34 117.5L44 117.5C44.8284 117.5 45.5 118.172 45.5 119C45.5 119.828 44.8284 120.5 44 120.5L34 120.5C33.1716 120.5 32.5 119.828 32.5 119Z" fill="#968B82"/>
<path fill-rule="evenodd" clip-rule="evenodd" d="M32.5 125C32.5 124.172 33.1716 123.5 34 123.5L44 123.5C44.8284 123.5 45.5 124.172 45.5 125C45.5 125.828 44.8284 126.5 44 126.5L34 126.5C33.1716 126.5 32.5 125.828 32.5 125Z" fill="#968B82"/>
<path fill-rule="evenodd" clip-rule="evenodd" d="M33.5 130C33.5 133.038 35.9624 135.5 39 135.5C42.0376 135.5 44.5 133.038 44.5 130H47.5C47.5 134.694 43.6944 138.5 39 138.5C34.3056 138.5 30.5 134.694 30.5 130H33.5Z" fill="#968B82"/>
<path fill-rule="evenodd" clip-rule="evenodd" d="M39 50.5C39.8284 50.5 40.5 51.1716 40.5 52L40.5 58C40.5 58.8284 39.8284 59.5 39 59.5C38.1716 59.5 37.5 58.8284 37.5 58L37.5 52C37.5 51.1716 38.1716 50.5 39 50.5Z" fill="#968B82"/>
<path fill-rule="evenodd" clip-rule="evenodd" d="M12.9396 60.9393C13.5254 60.3536 14.4751 60.3536 15.0609 60.9393L19.3035 65.182C19.8893 65.7678 19.8893 66.7175 19.3035 67.3033C18.7177 67.8891 17.768 67.8891 17.1822 67.3033L12.9396 63.0607C12.3538 62.4749 12.3538 61.5251 12.9396 60.9393Z" fill="#968B82"/>
<path fill-rule="evenodd" clip-rule="evenodd" d="M65.3026 60.9393C64.7168 60.3536 63.7671 60.3536 63.1813 60.9393L58.9387 65.182C58.3529 65.7678 58.3529 66.7175 58.9387 67.3033C59.5244 67.8891 60.4742 67.8891 61.06 67.3033L65.3026 63.0607C65.8884 62.4749 65.8884 61.5251 65.3026 60.9393Z" fill="#968B82"/>
<path fill-rule="evenodd" clip-rule="evenodd" d="M12.9396 112.303C13.5254 112.889 14.4751 112.889 15.0609 112.303L19.3035 108.061C19.8893 107.475 19.8893 106.525 19.3035 105.939C18.7177 105.354 17.768 105.354 17.1822 105.939L12.9396 110.182C12.3538 110.768 12.3538 111.718 12.9396 112.303Z" fill="#968B82"/>
<path fill-rule="evenodd" clip-rule="evenodd" d="M65.3026 112.303C64.7168 112.889 63.7671 112.889 63.1813 112.303L58.9387 108.061C58.3529 107.475 58.3529 106.525 58.9387 105.939C59.5244 105.354 60.4742 105.354 61.06 105.939L65.3026 110.182C65.8884 110.768 65.8884 111.718 65.3026 112.303Z" fill="#968B82"/>
<path fill-rule="evenodd" clip-rule="evenodd" d="M11.5 86C11.5 86.8284 10.8284 87.5 10 87.5L4 87.5C3.17157 87.5 2.5 86.8284 2.5 86C2.5 85.1716 3.17157 84.5 4 84.5L10 84.5C10.8284 84.5 11.5 85.1716 11.5 86Z" fill="#968B82"/>
<path fill-rule="evenodd" clip-rule="evenodd" d="M75.5 86C75.5 86.8284 74.8284 87.5 74 87.5L68 87.5C67.1716 87.5 66.5 86.8284 66.5 86C66.5 85.1716 67.1716 84.5 68 84.5L74 84.5C74.8284 84.5 75.5 85.1716 75.5 86Z" fill="#968B82"/>
</svg>
