<svg fill="none" xmlns="http://www.w3.org/2000/svg">
<g clip-path="url(#clip0_6771_13901)">
<path d="M10.4414 62.618V24.9836C10.4414 23.8266 10.901 22.717 11.7192 21.8988C12.5373 21.0807 13.6469 20.6211 14.8039 20.6211H10.1164C8.9594 20.6211 7.84978 21.0807 7.03165 21.8988C6.21353 22.717 5.75391 23.8266 5.75391 24.9836V62.618C5.75391 63.775 6.21353 64.8846 7.03165 65.7027C7.84978 66.5208 8.9594 66.9805 10.1164 66.9805H14.8039C13.6469 66.9805 12.5373 66.5208 11.7192 65.7027C10.901 64.8846 10.4414 63.775 10.4414 62.618Z" fill="#3E61EE" fill-opacity="0.2"/>
<path fill-rule="evenodd" clip-rule="evenodd" d="M9.44428 21.3893C7.44992 21.3893 5.83317 23.0061 5.83317 25.0004V57.5004H71.9443V25.0004C71.9443 23.0061 70.3275 21.3893 68.3332 21.3893H67.7776V19.7227H68.3332C71.248 19.7227 73.611 22.0856 73.611 25.0004V62.7782C73.611 65.6931 71.248 68.056 68.3332 68.056H48.6109V76.3893H51.6665C52.1267 76.3893 52.4998 76.7624 52.4998 77.2227C52.4998 77.6829 52.1267 78.056 51.6665 78.056H25.5554C25.0952 78.056 24.7221 77.6829 24.7221 77.2227C24.7221 76.7624 25.0952 76.3893 25.5554 76.3893H29.1665V68.056H9.44428C6.52944 68.056 4.1665 65.6931 4.1665 62.7782V25.0004C4.1665 22.0856 6.52945 19.7227 9.44428 19.7227H38.8887H39.1665V19.931L39.9998 20.556V21.3893L39.1665 21.3893L38.8887 21.3893L9.44428 21.3893ZM5.83317 62.7782V59.1671H71.9443V62.7782C71.9443 64.7726 70.3275 66.3893 68.3332 66.3893H9.44428C7.44992 66.3893 5.83317 64.7726 5.83317 62.7782ZM46.9443 76.3893V68.056H30.8332V76.3893H46.9443ZM51.3887 19.7227H47.7776V21.3893H50.8332L51.3887 19.7227ZM12.7776 26.3893C12.3174 26.3893 11.9443 26.7624 11.9443 27.2227C11.9443 27.6829 12.3174 28.056 12.7776 28.056H29.4443C29.9045 28.056 30.2776 27.6829 30.2776 27.2227C30.2776 26.7624 29.9045 26.3893 29.4443 26.3893H12.7776ZM12.7776 41.3893C12.3174 41.3893 11.9443 41.7624 11.9443 42.2227C11.9443 42.6829 12.3174 43.056 12.7776 43.056H29.4443C29.9045 43.056 30.2776 42.6829 30.2776 42.2227C30.2776 41.7624 29.9045 41.3893 29.4443 41.3893H12.7776ZM12.7776 48.6115C12.3174 48.6115 11.9443 48.9846 11.9443 49.4449C11.9443 49.9051 12.3174 50.2782 12.7776 50.2782H29.4443C29.9045 50.2782 30.2776 49.9051 30.2776 49.4449C30.2776 48.9846 29.9045 48.6115 29.4443 48.6115H12.7776ZM11.9443 52.7782C11.9443 52.318 12.3174 51.9449 12.7776 51.9449H29.4443C29.9045 51.9449 30.2776 52.318 30.2776 52.7782C30.2776 53.2384 29.9045 53.6115 29.4443 53.6115H12.7776C12.3174 53.6115 11.9443 53.2384 11.9443 52.7782ZM11.6665 45.8338C11.6665 46.294 12.0396 46.6671 12.4998 46.6671C12.9601 46.6671 13.3332 46.294 13.3332 45.8338C13.3332 45.3735 12.9601 45.0004 12.4998 45.0004C12.0396 45.0004 11.6665 45.3735 11.6665 45.8338ZM16.1109 45.0004C15.6507 45.0004 15.2776 45.3735 15.2776 45.8338C15.2776 46.294 15.6507 46.6671 16.1109 46.6671H22.7776C23.2379 46.6671 23.6109 46.294 23.6109 45.8338C23.6109 45.3735 23.2379 45.0004 22.7776 45.0004H16.1109ZM25.5554 45.8338C25.5554 45.3735 25.9285 45.0004 26.3887 45.0004H29.1665C29.6267 45.0004 29.9998 45.3735 29.9998 45.8338C29.9998 46.294 29.6267 46.6671 29.1665 46.6671H26.3887C25.9285 46.6671 25.5554 46.294 25.5554 45.8338ZM14.9998 29.7227C13.3123 29.7227 11.9443 31.0907 11.9443 32.7782V36.1115C11.9443 37.7991 13.3123 39.1671 14.9998 39.1671H27.2221C28.9096 39.1671 30.2776 37.7991 30.2776 36.1115V32.7782C30.2776 31.0907 28.9096 29.7227 27.2221 29.7227H14.9998ZM13.6109 32.7782C13.6109 32.0112 14.2328 31.3893 14.9998 31.3893H27.2221C27.9891 31.3893 28.611 32.0112 28.611 32.7782V36.1115C28.611 36.8786 27.9891 37.5004 27.2221 37.5004H14.9998C14.2328 37.5004 13.6109 36.8786 13.6109 36.1115V32.7782ZM33.6109 51.1115C33.6109 50.0377 34.4815 49.1671 35.5554 49.1671H42.2221C43.2959 49.1671 44.1665 50.0377 44.1665 51.1115V51.6671C44.1665 52.741 43.2959 53.6115 42.2221 53.6115H35.5554C34.4815 53.6115 33.6109 52.741 33.6109 51.6671V51.1115ZM35.5554 50.8338C35.402 50.8338 35.2776 50.9581 35.2776 51.1115V51.6671C35.2776 51.8205 35.402 51.9449 35.5554 51.9449H42.2221C42.3755 51.9449 42.4998 51.8205 42.4998 51.6671V51.1115C42.4998 50.9581 42.3755 50.8338 42.2221 50.8338H35.5554Z" fill="#3E61EE"/>
<path fill-rule="evenodd" clip-rule="evenodd" d="M42.184 31.2148C41.4247 30.4554 41.4247 29.2243 42.184 28.4649L52.0049 18.644C52.7643 17.8846 53.9954 17.8846 54.7548 18.644L60.2545 24.1437C61.0139 24.9031 61.0139 26.1342 60.2545 26.8936L50.4336 36.7145C49.6742 37.4738 48.4431 37.4738 47.6837 36.7145L42.184 31.2148ZM43.3625 29.6434C43.254 29.7519 43.254 29.9278 43.3625 30.0363L48.8622 35.536C48.9707 35.6445 49.1466 35.6445 49.2551 35.536L59.076 25.7151C59.1845 25.6066 59.1845 25.4307 59.076 25.3222L53.5763 19.8225C53.4678 19.714 53.2919 19.714 53.1835 19.8225L43.3625 29.6434Z" fill="#968B82"/>
<path fill-rule="evenodd" clip-rule="evenodd" d="M39.8271 35.9286C39.0677 35.1693 39.0677 33.9381 39.8271 33.1788L43.1662 29.8397L49.0587 35.7322L45.7196 39.0713C44.9603 39.8307 43.7291 39.8307 42.9698 39.0713L39.8271 35.9286ZM41.0056 34.3573C40.8971 34.4658 40.8971 34.6417 41.0056 34.7501L44.1483 37.8928C44.2568 38.0013 44.4326 38.0013 44.5411 37.8928L46.7017 35.7322L43.1662 32.1967L41.0056 34.3573Z" fill="#968B82"/>
<path fill-rule="evenodd" clip-rule="evenodd" d="M54.1655 20.4111L56.9154 17.6613L61.2366 21.9825L58.4867 24.7323L54.1655 20.4111ZM56.5225 20.4111L58.4867 22.3753L58.8796 21.9825L56.9154 20.0183L56.5225 20.4111Z" fill="#968B82"/>
<path fill-rule="evenodd" clip-rule="evenodd" d="M58.4645 11.5065C58.4571 11.5102 58.4473 11.5166 58.4353 11.5329C56.6027 14.0318 56.8167 17.5632 59.0757 19.8222C61.3348 22.0812 64.8661 22.2953 67.3651 20.4626C67.3813 20.4507 67.3878 20.4409 67.3915 20.4335C67.3959 20.4247 67.4009 20.4097 67.4014 20.3872C67.4025 20.3393 67.3825 20.2723 67.3253 20.2151L58.6829 11.5726C58.6257 11.5154 58.5587 11.4954 58.5108 11.4965C58.4882 11.4971 58.4733 11.5021 58.4645 11.5065ZM57.0913 10.5473C57.8082 9.56973 59.1313 9.66407 59.8614 10.3941L68.5038 19.0365C69.2339 19.7666 69.3282 21.0897 68.3507 21.8066C65.1985 24.1183 60.7468 23.8503 57.8972 21.0007C55.0477 18.1512 54.7796 13.6994 57.0913 10.5473Z" fill="#968B82"/>
<path fill-rule="evenodd" clip-rule="evenodd" d="M66.1471 13.9292L64.1829 15.8934L63.0044 14.7148L64.9686 12.7507L66.1471 13.9292Z" fill="#968B82"/>
<path fill-rule="evenodd" clip-rule="evenodd" d="M66.1467 12.3583C66.0382 12.4667 66.0382 12.6426 66.1467 12.7511C66.2552 12.8596 66.4311 12.8596 66.5395 12.7511C66.648 12.6426 66.648 12.4667 66.5395 12.3583C66.4311 12.2498 66.2552 12.2498 66.1467 12.3583ZM64.9682 13.9296C64.2088 13.1703 64.2088 11.9391 64.9682 11.1798C65.7275 10.4204 66.9587 10.4204 67.7181 11.1798C68.4774 11.9391 68.4774 13.1703 67.7181 13.9296C66.9587 14.689 65.7275 14.689 64.9682 13.9296Z" fill="#968B82"/>
<path fill-rule="evenodd" clip-rule="evenodd" d="M33.9345 15.8935C33.1751 15.1341 33.1751 13.903 33.9345 13.1436L37.0772 10.0009C37.8365 9.24158 39.0677 9.24158 39.8271 10.0009L48.0766 18.2505C48.836 19.0099 48.836 20.241 48.0766 21.0004L44.9339 24.1431C44.1746 24.9024 42.9434 24.9024 42.1841 24.1431L33.9345 15.8935ZM35.113 14.3221C35.0045 14.4306 35.0045 14.6065 35.113 14.715L43.3626 22.9646C43.4711 23.073 43.6469 23.073 43.7554 22.9646L46.8981 19.8219C47.0066 19.7134 47.0066 19.5375 46.8981 19.429L38.6485 11.1794C38.5401 11.071 38.3642 11.071 38.2557 11.1794L35.113 14.3221Z" fill="#968B82"/>
<path fill-rule="evenodd" clip-rule="evenodd" d="M68.897 39.0704C69.6564 39.8297 69.6564 41.0609 68.897 41.8202L65.7543 44.9629C64.995 45.7223 63.7638 45.7223 63.0045 44.9629L54.7549 36.7134C53.9956 35.954 53.9956 34.7229 54.7549 33.9635L57.8976 30.8208C58.657 30.0615 59.8881 30.0615 60.6475 30.8208L68.897 39.0704ZM67.7185 40.6417C67.827 40.5333 67.827 40.3574 67.7185 40.2489L59.469 31.9993C59.3605 31.8908 59.1846 31.8908 59.0761 31.9993L55.9334 35.142C55.8249 35.2505 55.8249 35.4264 55.9334 35.5348L64.183 43.7844C64.2915 43.8929 64.4674 43.8929 64.5758 43.7844L67.7185 40.6417Z" fill="#968B82"/>
<path fill-rule="evenodd" clip-rule="evenodd" d="M45.7196 26.1068L43.7554 24.1426L44.9339 22.9641L46.8981 24.9283L45.7196 26.1068Z" fill="#968B82"/>
<path fill-rule="evenodd" clip-rule="evenodd" d="M57.1115 28.8571L59.0757 30.8213L57.8972 31.9998L55.933 30.0356L57.1115 28.8571Z" fill="#968B82"/>
<path fill-rule="evenodd" clip-rule="evenodd" d="M48.8621 22.9652L46.8979 21.001L48.0765 19.8225L50.0406 21.7867L48.8621 22.9652Z" fill="#968B82"/>
<path fill-rule="evenodd" clip-rule="evenodd" d="M53.9694 31.9997L55.9336 33.9639L54.7551 35.1424L52.7909 33.1782L53.9694 31.9997Z" fill="#968B82"/>
<path fill-rule="evenodd" clip-rule="evenodd" d="M40.6128 11.9645L35.8987 16.6785L34.7202 15.5L39.4343 10.786L40.6128 11.9645Z" fill="#968B82"/>
<path fill-rule="evenodd" clip-rule="evenodd" d="M62.2188 42.9994L66.9328 38.2854L68.1113 39.4639L63.3973 44.1779L62.2188 42.9994Z" fill="#968B82"/>
<path fill-rule="evenodd" clip-rule="evenodd" d="M57.5047 28.4636L50.4336 21.3926L51.6121 20.2141L58.6832 27.2851L57.5047 28.4636Z" fill="#968B82"/>
<path fill-rule="evenodd" clip-rule="evenodd" d="M45.3263 38.2853L40.6123 33.5713L41.7908 32.3928L46.5049 37.1068L45.3263 38.2853Z" fill="#968B82"/>
<path fill-rule="evenodd" clip-rule="evenodd" d="M65.1917 8.57838C65.0012 8.15944 65.1864 7.66536 65.6053 7.47483C67.1923 6.75308 69.1437 7.10558 70.4679 8.42982C71.7922 9.75405 72.1447 11.7054 71.4229 13.2924C71.2324 13.7114 70.7383 13.8965 70.3194 13.706C69.9004 13.5155 69.7153 13.0214 69.9058 12.6025C70.3288 11.6724 70.1416 10.4605 69.2894 9.60833C68.4373 8.7562 67.2254 8.56898 66.2953 8.99197C65.8764 9.1825 65.3823 8.99733 65.1917 8.57838Z" fill="#968B82"/>
<path fill-rule="evenodd" clip-rule="evenodd" d="M65.1712 6.1717C65.0079 5.74141 65.2243 5.2602 65.6546 5.09688C67.6904 4.32416 70.2333 5.05208 72.0393 6.85807C73.8453 8.66406 74.5732 11.207 73.8004 13.2428C73.6371 13.673 73.1559 13.8895 72.7256 13.7261C72.2953 13.5628 72.0789 13.0816 72.2423 12.6513C72.7289 11.3692 72.3193 9.49513 70.8607 8.03658C69.4022 6.57803 67.5281 6.16842 66.246 6.65507C65.8157 6.8184 65.3345 6.60198 65.1712 6.1717Z" fill="#968B82"/>
<path fill-rule="evenodd" clip-rule="evenodd" d="M65.9318 3.73684C65.8118 3.29253 66.0747 2.83505 66.519 2.71503C67.6417 2.41177 68.9282 2.57387 70.1713 3.0543C71.4238 3.5384 72.6901 4.36642 73.8074 5.48372C74.9247 6.60101 75.7527 7.86735 76.2368 9.11986C76.7172 10.3629 76.8793 11.6494 76.5761 12.7721C76.4561 13.2164 75.9986 13.4793 75.5543 13.3593C75.11 13.2393 74.8471 12.7818 74.9671 12.3375C75.1506 11.6583 75.0788 10.7467 74.6822 9.72072C74.2893 8.70422 73.5973 7.63062 72.6289 6.66223C71.6605 5.69384 70.5869 5.00177 69.5704 4.60889C68.5444 4.21234 67.6329 4.14056 66.9536 4.32403C66.5093 4.44405 66.0518 4.18116 65.9318 3.73684Z" fill="#968B82"/>
</g>
<defs>
<clipPath id="clip0_6771_13901">
<rect width="80" height="80" fill="white"/>
</clipPath>
</defs>
</svg>
