<svg viewBox="0 0 144 144" fill="none" xmlns="http://www.w3.org/2000/svg">
<g clip-path="url(#clip0_6762_37328)">
<path d="M18.7949 112.712V44.9697C18.7949 42.8871 19.6222 40.8898 21.0949 39.4171C22.5675 37.9445 24.5648 37.1172 26.6474 37.1172H18.2099C16.1273 37.1172 14.13 37.9445 12.6574 39.4171C11.1847 40.8898 10.3574 42.8871 10.3574 44.9697V112.712C10.3574 114.794 11.1847 116.791 12.6574 118.264C14.13 119.737 16.1273 120.564 18.2099 120.564H26.6474C24.5648 120.564 22.5675 119.737 21.0949 118.264C19.6222 116.791 18.7949 114.794 18.7949 112.712Z" fill="#3E61EE" fill-opacity="0.2"/>
<path fill-rule="evenodd" clip-rule="evenodd" d="M17 38.5C13.4101 38.5 10.5 41.4101 10.5 45V103.5H129.5V45C129.5 41.4101 126.59 38.5 123 38.5H122V35.5H123C128.247 35.5 132.5 39.7533 132.5 45V113C132.5 118.247 128.247 122.5 123 122.5H87.5V137.5H93C93.8284 137.5 94.5 138.172 94.5 139C94.5 139.828 93.8284 140.5 93 140.5H46C45.1716 140.5 44.5 139.828 44.5 139C44.5 138.172 45.1716 137.5 46 137.5H52.5V122.5H17C11.7533 122.5 7.5 118.247 7.5 113V45C7.5 39.7533 11.7533 35.5 17 35.5H70H70.5V35.875L72 37V38.5H70.5H70H17ZM10.5 113V106.5H129.5V113C129.5 116.59 126.59 119.5 123 119.5H17C13.4101 119.5 10.5 116.59 10.5 113ZM84.5 137.5V122.5H55.5V137.5H84.5ZM92.5 35.5H86V38.5H91.5L92.5 35.5ZM23 47.5C22.1716 47.5 21.5 48.1716 21.5 49C21.5 49.8284 22.1716 50.5 23 50.5H53C53.8284 50.5 54.5 49.8284 54.5 49C54.5 48.1716 53.8284 47.5 53 47.5H23ZM23 74.5C22.1716 74.5 21.5 75.1716 21.5 76C21.5 76.8284 22.1716 77.5 23 77.5H53C53.8284 77.5 54.5 76.8284 54.5 76C54.5 75.1716 53.8284 74.5 53 74.5H23ZM23 87.5C22.1716 87.5 21.5 88.1716 21.5 89C21.5 89.8284 22.1716 90.5 23 90.5H53C53.8284 90.5 54.5 89.8284 54.5 89C54.5 88.1716 53.8284 87.5 53 87.5H23ZM21.5 95C21.5 94.1716 22.1716 93.5 23 93.5H53C53.8284 93.5 54.5 94.1716 54.5 95C54.5 95.8284 53.8284 96.5 53 96.5H23C22.1716 96.5 21.5 95.8284 21.5 95ZM21 82.5C21 83.3284 21.6716 84 22.5 84C23.3284 84 24 83.3284 24 82.5C24 81.6716 23.3284 81 22.5 81C21.6716 81 21 81.6716 21 82.5ZM29 81C28.1716 81 27.5 81.6716 27.5 82.5C27.5 83.3284 28.1716 84 29 84H41C41.8284 84 42.5 83.3284 42.5 82.5C42.5 81.6716 41.8284 81 41 81H29ZM46 82.5C46 81.6716 46.6716 81 47.5 81H52.5C53.3284 81 54 81.6716 54 82.5C54 83.3284 53.3284 84 52.5 84H47.5C46.6716 84 46 83.3284 46 82.5ZM27 53.5C23.9624 53.5 21.5 55.9624 21.5 59V65C21.5 68.0376 23.9624 70.5 27 70.5H49C52.0376 70.5 54.5 68.0376 54.5 65V59C54.5 55.9624 52.0376 53.5 49 53.5H27ZM24.5 59C24.5 57.6193 25.6193 56.5 27 56.5H49C50.3807 56.5 51.5 57.6193 51.5 59V65C51.5 66.3807 50.3807 67.5 49 67.5H27C25.6193 67.5 24.5 66.3807 24.5 65V59ZM60.5 92C60.5 90.067 62.067 88.5 64 88.5H76C77.933 88.5 79.5 90.067 79.5 92V93C79.5 94.933 77.933 96.5 76 96.5H64C62.067 96.5 60.5 94.933 60.5 93V92ZM64 91.5C63.7239 91.5 63.5 91.7239 63.5 92V93C63.5 93.2761 63.7239 93.5 64 93.5H76C76.2761 93.5 76.5 93.2761 76.5 93V92C76.5 91.7239 76.2761 91.5 76 91.5H64Z" fill="#3E61EE"/>
<path fill-rule="evenodd" clip-rule="evenodd" d="M75.9309 56.1853C74.5641 54.8185 74.5641 52.6024 75.9309 51.2356L93.6086 33.5579C94.9754 32.1911 97.1915 32.1911 98.5583 33.5579L108.458 43.4574C109.825 44.8242 109.825 47.0403 108.458 48.4071L90.7802 66.0848C89.4133 67.4517 87.1973 67.4517 85.8304 66.0848L75.9309 56.1853ZM78.0522 53.3569C77.857 53.5522 77.857 53.8687 78.0522 54.064L87.9517 63.9635C88.147 64.1588 88.4636 64.1588 88.6588 63.9635L106.337 46.2858C106.532 46.0906 106.532 45.774 106.337 45.5787L96.437 35.6792C96.2418 35.484 95.9252 35.484 95.7299 35.6792L78.0522 53.3569Z" fill="#968B82"/>
<path fill-rule="evenodd" clip-rule="evenodd" d="M71.6887 64.6707C70.3219 63.3038 70.3219 61.0878 71.6887 59.7209L77.6991 53.7105L88.3057 64.3171L82.2953 70.3275C80.9285 71.6944 78.7124 71.6944 77.3456 70.3275L71.6887 64.6707ZM73.8101 61.8422C73.6148 62.0375 73.6148 62.3541 73.8101 62.5494L79.4669 68.2062C79.6622 68.4015 79.9788 68.4015 80.174 68.2062L84.0631 64.3171L77.6991 57.9532L73.8101 61.8422Z" fill="#968B82"/>
<path fill-rule="evenodd" clip-rule="evenodd" d="M97.498 36.7402L102.448 31.7905L110.226 39.5687L105.276 44.5184L97.498 36.7402ZM101.741 36.7402L105.276 40.2758L105.983 39.5687L102.448 36.0331L101.741 36.7402Z" fill="#968B82"/>
<path fill-rule="evenodd" clip-rule="evenodd" d="M105.236 20.711C105.223 20.7176 105.205 20.7292 105.184 20.7585C101.885 25.2566 102.27 31.6131 106.337 35.6793C110.403 39.7456 116.759 40.1308 121.257 36.832C121.287 36.8105 121.298 36.7928 121.305 36.7796C121.313 36.7638 121.322 36.7368 121.323 36.6962C121.325 36.61 121.289 36.4894 121.186 36.3864L105.629 20.8301C105.526 20.7271 105.406 20.6911 105.32 20.6931C105.279 20.6941 105.252 20.7031 105.236 20.711ZM102.765 18.9844C104.055 17.2248 106.437 17.3946 107.751 18.7088L123.307 34.2651C124.621 35.5792 124.791 37.9608 123.031 39.2512C117.358 43.4123 109.344 42.9298 104.215 37.8006C99.086 32.6714 98.6035 24.6583 102.765 18.9844Z" fill="#968B82"/>
<path fill-rule="evenodd" clip-rule="evenodd" d="M119.064 25.0726L115.529 28.6081L113.407 26.4868L116.943 22.9513L119.064 25.0726Z" fill="#968B82"/>
<path fill-rule="evenodd" clip-rule="evenodd" d="M119.065 22.2441C118.87 22.4394 118.87 22.7559 119.065 22.9512C119.26 23.1465 119.577 23.1465 119.772 22.9512C119.967 22.7559 119.967 22.4394 119.772 22.2441C119.577 22.0488 119.26 22.0488 119.065 22.2441ZM116.944 25.0725C115.577 23.7057 115.577 21.4896 116.944 20.1228C118.31 18.7559 120.527 18.7559 121.893 20.1228C123.26 21.4896 123.26 23.7057 121.893 25.0725C120.527 26.4394 118.31 26.4394 116.944 25.0725Z" fill="#968B82"/>
<path fill-rule="evenodd" clip-rule="evenodd" d="M61.0813 28.6082C59.7145 27.2413 59.7145 25.0253 61.0813 23.6584L66.7382 18.0016C68.105 16.6347 70.3211 16.6347 71.6879 18.0016L86.5372 32.8508C87.904 34.2176 87.904 36.4337 86.5372 37.8006L80.8803 43.4574C79.5135 44.8242 77.2974 44.8243 75.9306 43.4574L61.0813 28.6082ZM63.2026 25.7797C63.0074 25.975 63.0074 26.2916 63.2026 26.4869L78.0519 41.3361C78.2471 41.5314 78.5637 41.5314 78.759 41.3361L84.4158 35.6792C84.6111 35.484 84.6111 35.1674 84.4158 34.9721L69.5666 20.1229C69.3713 19.9276 69.0548 19.9276 68.8595 20.1229L63.2026 25.7797Z" fill="#968B82"/>
<path fill-rule="evenodd" clip-rule="evenodd" d="M124.015 70.3269C125.382 71.6937 125.382 73.9098 124.015 75.2766L118.359 80.9335C116.992 82.3003 114.776 82.3003 113.409 80.9335L98.5595 66.0842C97.1927 64.7174 97.1927 62.5013 98.5595 61.1345L104.216 55.4776C105.583 54.1108 107.799 54.1108 109.166 55.4776L124.015 70.3269ZM121.894 73.1553C122.089 72.96 122.089 72.6435 121.894 72.4482L107.045 57.599C106.85 57.4037 106.533 57.4037 106.338 57.599L100.681 63.2558C100.486 63.4511 100.486 63.7677 100.681 63.9629L115.53 78.8122C115.725 79.0074 116.042 79.0074 116.237 78.8122L121.894 73.1553Z" fill="#968B82"/>
<path fill-rule="evenodd" clip-rule="evenodd" d="M82.2953 46.9926L78.7598 43.457L80.8811 41.3357L84.4166 44.8712L82.2953 46.9926Z" fill="#968B82"/>
<path fill-rule="evenodd" clip-rule="evenodd" d="M102.801 51.943L106.337 55.4785L104.216 57.5998L100.68 54.0643L102.801 51.943Z" fill="#968B82"/>
<path fill-rule="evenodd" clip-rule="evenodd" d="M87.9515 41.3363L84.416 37.8008L86.5373 35.6795L90.0729 39.215L87.9515 41.3363Z" fill="#968B82"/>
<path fill-rule="evenodd" clip-rule="evenodd" d="M97.1451 57.5987L100.681 61.1343L98.5593 63.2556L95.0238 59.7201L97.1451 57.5987Z" fill="#968B82"/>
<path fill-rule="evenodd" clip-rule="evenodd" d="M73.1037 21.5364L64.6184 30.0217L62.4971 27.9004L70.9824 19.4151L73.1037 21.5364Z" fill="#968B82"/>
<path fill-rule="evenodd" clip-rule="evenodd" d="M111.993 77.3986L120.478 68.9133L122.6 71.0347L114.114 79.5199L111.993 77.3986Z" fill="#968B82"/>
<path fill-rule="evenodd" clip-rule="evenodd" d="M103.509 51.2352L90.7812 38.5073L92.9026 36.386L105.63 49.1139L103.509 51.2352Z" fill="#968B82"/>
<path fill-rule="evenodd" clip-rule="evenodd" d="M81.5878 68.9135L73.1025 60.4282L75.2239 58.3069L83.7091 66.7922L81.5878 68.9135Z" fill="#968B82"/>
<path fill-rule="evenodd" clip-rule="evenodd" d="M117.345 15.4408C117.002 14.6867 117.336 13.7974 118.09 13.4544C120.946 12.1552 124.459 12.7898 126.842 15.1734C129.226 17.557 129.861 21.0694 128.561 23.9261C128.219 24.6802 127.329 25.0135 126.575 24.6705C125.821 24.3276 125.488 23.4382 125.831 22.6841C126.592 21.01 126.255 18.8285 124.721 17.2947C123.187 15.7609 121.006 15.4239 119.332 16.1853C118.578 16.5282 117.688 16.1949 117.345 15.4408Z" fill="#968B82"/>
<path fill-rule="evenodd" clip-rule="evenodd" d="M117.308 11.1094C117.014 10.3349 117.404 9.46875 118.178 9.17477C121.843 7.78387 126.42 9.09413 129.671 12.3449C132.922 15.5957 134.232 20.1729 132.841 23.8374C132.547 24.6119 131.681 25.0014 130.906 24.7074C130.132 24.4135 129.742 23.5473 130.036 22.7728C130.912 20.4649 130.175 17.0916 127.55 14.4662C124.924 11.8408 121.551 11.1035 119.243 11.9795C118.468 12.2735 117.602 11.884 117.308 11.1094Z" fill="#968B82"/>
<path fill-rule="evenodd" clip-rule="evenodd" d="M118.677 6.72563C118.461 5.92587 118.935 5.1024 119.734 4.88637C121.755 4.3405 124.071 4.63227 126.308 5.49706C128.563 6.36844 130.842 7.85888 132.854 9.87001C134.865 11.8811 136.355 14.1606 137.226 16.4151C138.091 18.6525 138.383 20.9682 137.837 22.9891C137.621 23.7889 136.798 24.2621 135.998 24.046C135.198 23.83 134.725 23.0065 134.941 22.2068C135.271 20.9842 135.142 19.3434 134.428 17.4966C133.721 15.6669 132.475 13.7344 130.732 11.9913C128.989 10.2482 127.057 9.00251 125.227 8.29532C123.38 7.58153 121.739 7.45232 120.517 7.78257C119.717 7.9986 118.894 7.5254 118.677 6.72563Z" fill="#968B82"/>
</g>
<defs>
<clipPath id="clip0_6762_37328">
<rect width="144" height="144" fill="white"/>
</clipPath>
</defs>
</svg>
