<svg fill="none" xmlns="http://www.w3.org/2000/svg">
<path d="M11.5527 63.1727V25.5383C11.5527 24.3813 12.0124 23.2717 12.8305 22.4535C13.6486 21.6354 14.7582 21.1758 15.9152 21.1758H11.2277C10.0707 21.1758 8.96111 21.6354 8.14298 22.4535C7.32485 23.2717 6.86523 24.3813 6.86523 25.5383V63.1727C6.86523 64.3297 7.32485 65.4393 8.14298 66.2574C8.96111 67.0755 10.0707 67.5352 11.2277 67.5352H15.9152C14.7582 67.5352 13.6486 67.0755 12.8305 66.2574C12.0124 65.4393 11.5527 64.3297 11.5527 63.1727Z" fill="#3E61EE" fill-opacity="0.2"/>
<path fill-rule="evenodd" clip-rule="evenodd" d="M10.5556 21.944C8.56125 21.944 6.9445 23.5608 6.9445 25.5551V58.0551H45.5556V59.7218H6.9445V63.3329C6.9445 65.3273 8.56125 66.944 10.5556 66.944H45.5556V68.6107H31.9445V76.944H48.0556V68.3329H49.7223V76.944H52.7778C53.2381 76.944 53.6112 77.3171 53.6112 77.7773C53.6112 78.2376 53.2381 78.6107 52.7778 78.6107H26.6667C26.2065 78.6107 25.8334 78.2376 25.8334 77.7773C25.8334 77.3171 26.2065 76.944 26.6667 76.944H30.2778V68.6107H10.5556C7.64077 68.6107 5.27783 66.2477 5.27783 63.3329V25.5551C5.27783 22.6403 7.64077 20.2773 10.5556 20.2773H40.0001H69.4445C72.3593 20.2773 74.7223 22.6403 74.7223 25.5551V47.7773H73.0556V25.5551C73.0556 23.5608 71.4389 21.944 69.4445 21.944H10.5556ZM13.8889 48.0551C13.4287 48.0551 13.0556 48.4282 13.0556 48.8885C13.0556 49.3487 13.4287 49.7218 13.8889 49.7218H37.2223C37.6825 49.7218 38.0556 49.3487 38.0556 48.8885C38.0556 48.4282 37.6825 48.0551 37.2223 48.0551H13.8889ZM13.0556 52.2218C13.0556 51.7616 13.4287 51.3885 13.8889 51.3885H30.5556C31.0158 51.3885 31.3889 51.7616 31.3889 52.2218C31.3889 52.682 31.0158 53.0551 30.5556 53.0551H13.8889C13.4287 53.0551 13.0556 52.682 13.0556 52.2218ZM13.8889 26.3885C13.4287 26.3885 13.0556 26.7616 13.0556 27.2218C13.0556 27.682 13.4287 28.0551 13.8889 28.0551H30.5556C31.0158 28.0551 31.3889 27.682 31.3889 27.2218C31.3889 26.7616 31.0158 26.3885 30.5556 26.3885H13.8889ZM13.0556 33.8885C13.0556 32.2009 14.4236 30.8329 16.1112 30.8329H40.0001C41.6876 30.8329 43.0556 32.2009 43.0556 33.8885V42.7773C43.0556 44.4649 41.6876 45.8329 40.0001 45.8329H16.1112C14.4236 45.8329 13.0556 44.4649 13.0556 42.7773V33.8885ZM16.1112 32.4996C15.3441 32.4996 14.7223 33.1214 14.7223 33.8885V42.7773C14.7223 43.5444 15.3441 44.1662 16.1112 44.1662H40.0001C40.7671 44.1662 41.3889 43.5444 41.3889 42.7773V33.8885C41.3889 33.1214 40.7671 32.4996 40.0001 32.4996H16.1112ZM48.0556 36.1107C47.5954 36.1107 47.2223 35.7376 47.2223 35.2773C47.2223 34.8171 47.5954 34.444 48.0556 34.444C48.5158 34.444 48.8889 34.8171 48.8889 35.2773C48.8889 35.7376 48.5158 36.1107 48.0556 36.1107ZM50.0001 35.2773C50.0001 34.8171 50.3731 34.444 50.8334 34.444H57.5001C57.9603 34.444 58.3334 34.8171 58.3334 35.2773C58.3334 35.7376 57.9603 36.1107 57.5001 36.1107H50.8334C50.3731 36.1107 50.0001 35.7376 50.0001 35.2773ZM60.2778 34.444C59.8176 34.444 59.4445 34.8171 59.4445 35.2773C59.4445 35.7376 59.8176 36.1107 60.2778 36.1107H63.0556C63.5158 36.1107 63.8889 35.7376 63.8889 35.2773C63.8889 34.8171 63.5158 34.444 63.0556 34.444H60.2778ZM46.9445 32.4996C46.9445 32.0393 47.3176 31.6662 47.7778 31.6662H53.8889C54.3492 31.6662 54.7223 32.0393 54.7223 32.4996C54.7223 32.9598 54.3492 33.3329 53.8889 33.3329H47.7778C47.3176 33.3329 46.9445 32.9598 46.9445 32.4996ZM56.6667 31.6662C56.2065 31.6662 55.8334 32.0393 55.8334 32.4996C55.8334 32.9598 56.2065 33.3329 56.6667 33.3329H63.0556C63.5158 33.3329 63.8889 32.9598 63.8889 32.4996C63.8889 32.0393 63.5158 31.6662 63.0556 31.6662H56.6667Z" fill="#3E61EE"/>
<path fill-rule="evenodd" clip-rule="evenodd" d="M59.7218 52.5007C56.807 52.5007 54.444 54.8636 54.444 57.7784C54.444 60.6933 56.807 63.0562 59.7218 63.0562C62.6366 63.0562 64.9996 60.6933 64.9996 57.7784C64.9996 54.8636 62.6366 52.5007 59.7218 52.5007ZM52.7773 57.7784C52.7773 53.9431 55.8865 50.834 59.7218 50.834C63.5571 50.834 66.6662 53.9431 66.6662 57.7784C66.6662 61.6137 63.5571 64.7229 59.7218 64.7229C55.8865 64.7229 52.7773 61.6137 52.7773 57.7784Z" fill="#968B82"/>
<path fill-rule="evenodd" clip-rule="evenodd" d="M56.5761 41.6912C56.0338 44.9868 53.1732 47.5004 49.7241 47.5004C48.8788 47.5004 48.0671 47.349 47.3158 47.0712C45.959 48.6422 44.8959 50.4728 44.2111 52.4778C45.713 53.7504 46.6686 55.653 46.6686 57.7782C46.6686 59.9034 45.713 61.806 44.2111 63.0786C44.8959 65.0836 45.959 66.9142 47.3158 68.4852C48.0671 68.2074 48.8788 68.056 49.7241 68.056C53.1732 68.056 56.0338 70.5696 56.5761 73.8652C57.5943 74.0632 58.6467 74.1671 59.7241 74.1671C60.8016 74.1671 61.854 74.0632 62.8722 73.8652C63.4145 70.5696 66.2751 68.056 69.7241 68.056C70.5694 68.056 71.3811 68.2074 72.1324 68.4852C73.4893 66.9142 74.5523 65.0836 75.2372 63.0786C73.7352 61.806 72.7797 59.9034 72.7797 57.7782C72.7797 55.653 73.7353 53.7504 75.2372 52.4778C74.5523 50.4728 73.4893 48.6422 72.1324 47.0712C71.3811 47.349 70.5694 47.5004 69.7241 47.5004C66.2751 47.5004 63.4145 44.9868 62.8722 41.6912C61.854 41.4932 60.8016 41.3893 59.7241 41.3893C58.6467 41.3893 57.5943 41.4932 56.5761 41.6912ZM56.051 40.0967C57.2377 39.8514 58.4663 39.7227 59.7241 39.7227C60.982 39.7227 62.2106 39.8514 63.3973 40.0967C64.0236 40.2262 64.4213 40.7481 64.4973 41.2932C64.8554 43.8588 67.0598 45.8338 69.7241 45.8338C70.4145 45.8338 71.072 45.7016 71.6741 45.4621C72.1849 45.2589 72.8332 45.346 73.2556 45.8237C74.8602 47.6386 76.1058 49.7796 76.8802 52.1353C77.0763 52.7319 76.8345 53.3279 76.4123 53.6686C75.2119 54.6374 74.4464 56.1181 74.4464 57.7782C74.4464 59.4383 75.2119 60.919 76.4123 61.8879C76.8344 62.2285 77.0763 62.8246 76.8802 63.4211C76.1058 65.7768 74.8602 67.9178 73.2556 69.7327C72.8332 70.2104 72.1849 70.2976 71.6741 70.0943C71.072 69.8548 70.4145 69.7227 69.7241 69.7227C67.0598 69.7227 64.8554 71.6977 64.4973 74.2632C64.4213 74.8083 64.0236 75.3302 63.3973 75.4597C62.2106 75.705 60.982 75.8338 59.7241 75.8338C58.4663 75.8338 57.2377 75.705 56.051 75.4597C55.4247 75.3302 55.027 74.8083 54.9509 74.2632C54.5929 71.6977 52.3884 69.7227 49.7241 69.7227C49.0338 69.7227 48.3763 69.8548 47.7742 70.0943C47.2634 70.2976 46.615 70.2104 46.1927 69.7327C44.5881 67.9178 43.3425 65.7768 42.5681 63.4211C42.372 62.8246 42.6138 62.2285 43.0359 61.8879C44.2364 60.919 45.0019 59.4383 45.0019 57.7782C45.0019 56.1181 44.2364 54.6374 43.0359 53.6686C42.6138 53.3279 42.372 52.7319 42.5681 52.1353C43.3425 49.7796 44.5881 47.6386 46.1927 45.8237C46.615 45.346 47.2634 45.2589 47.7742 45.4621C48.3763 45.7016 49.0338 45.8338 49.7241 45.8338C52.3884 45.8338 54.5929 43.8588 54.9509 41.2932C55.027 40.7481 55.4247 40.2262 56.051 40.0967Z" fill="#968B82"/>
</svg>
