<svg viewBox="0 0 144 144" fill="none" xmlns="http://www.w3.org/2000/svg">
<path d="M20.7949 113.712V45.9697C20.7949 43.8871 21.6222 41.8898 23.0949 40.4171C24.5675 38.9445 26.5648 38.1172 28.6474 38.1172H20.2099C18.1273 38.1172 16.13 38.9445 14.6574 40.4171C13.1847 41.8898 12.3574 43.8871 12.3574 45.9697V113.712C12.3574 115.794 13.1847 117.791 14.6574 119.264C16.13 120.737 18.1273 121.564 20.2099 121.564H28.6474C26.5648 121.564 24.5675 120.737 23.0949 119.264C21.6222 117.791 20.7949 115.794 20.7949 113.712Z" fill="#3E61EE" fill-opacity="0.2"/>
<path fill-rule="evenodd" clip-rule="evenodd" d="M19 39.5C15.4101 39.5 12.5 42.4101 12.5 46V104.5H82V107.5H12.5V114C12.5 117.59 15.4102 120.5 19 120.5H82V123.5H57.5V138.5H86.5V123H89.5V138.5H95C95.8284 138.5 96.5 139.172 96.5 140C96.5 140.828 95.8284 141.5 95 141.5H48C47.1716 141.5 46.5 140.828 46.5 140C46.5 139.172 47.1716 138.5 48 138.5H54.5V123.5H19C13.7533 123.5 9.5 119.247 9.5 114V46C9.5 40.7533 13.7533 36.5 19 36.5H72H125C130.247 36.5 134.5 40.7533 134.5 46V86H131.5V46C131.5 42.4101 128.59 39.5 125 39.5H74H72H19ZM25 86.5C24.1716 86.5 23.5 87.1716 23.5 88C23.5 88.8284 24.1716 89.5 25 89.5H67C67.8284 89.5 68.5 88.8284 68.5 88C68.5 87.1716 67.8284 86.5 67 86.5H25ZM23.5 94C23.5 93.1716 24.1716 92.5 25 92.5H55C55.8284 92.5 56.5 93.1716 56.5 94C56.5 94.8284 55.8284 95.5 55 95.5H25C24.1716 95.5 23.5 94.8284 23.5 94ZM25 47.5C24.1716 47.5 23.5 48.1716 23.5 49C23.5 49.8284 24.1716 50.5 25 50.5H55C55.8284 50.5 56.5 49.8284 56.5 49C56.5 48.1716 55.8284 47.5 55 47.5H25ZM23.5 61C23.5 57.9624 25.9624 55.5 29 55.5H72C75.0376 55.5 77.5 57.9624 77.5 61V77C77.5 80.0376 75.0376 82.5 72 82.5H29C25.9624 82.5 23.5 80.0376 23.5 77V61ZM29 58.5C27.6193 58.5 26.5 59.6193 26.5 61V77C26.5 78.3807 27.6193 79.5 29 79.5H72C73.3807 79.5 74.5 78.3807 74.5 77V61C74.5 59.6193 73.3807 58.5 72 58.5H29ZM86.5 65C85.6716 65 85 64.3284 85 63.5C85 62.6716 85.6716 62 86.5 62C87.3284 62 88 62.6716 88 63.5C88 64.3284 87.3284 65 86.5 65ZM90 63.5C90 62.6716 90.6716 62 91.5 62H103.5C104.328 62 105 62.6716 105 63.5C105 64.3284 104.328 65 103.5 65H91.5C90.6716 65 90 64.3284 90 63.5ZM108.5 62C107.672 62 107 62.6716 107 63.5C107 64.3284 107.672 65 108.5 65H113.5C114.328 65 115 64.3284 115 63.5C115 62.6716 114.328 62 113.5 62H108.5ZM84.5 58.5C84.5 57.6716 85.1716 57 86 57H97C97.8284 57 98.5 57.6716 98.5 58.5C98.5 59.3284 97.8284 60 97 60H86C85.1716 60 84.5 59.3284 84.5 58.5ZM102 57C101.172 57 100.5 57.6716 100.5 58.5C100.5 59.3284 101.172 60 102 60H113.5C114.328 60 115 59.3284 115 58.5C115 57.6716 114.328 57 113.5 57H102Z" fill="#3E61EE"/>
<path fill-rule="evenodd" clip-rule="evenodd" d="M107.5 94.5C102.253 94.5 98 98.7533 98 104C98 109.247 102.253 113.5 107.5 113.5C112.747 113.5 117 109.247 117 104C117 98.7533 112.747 94.5 107.5 94.5ZM95 104C95 97.0964 100.596 91.5 107.5 91.5C114.404 91.5 120 97.0964 120 104C120 110.904 114.404 116.5 107.5 116.5C100.596 116.5 95 110.904 95 104Z" fill="#968B82"/>
<path fill-rule="evenodd" clip-rule="evenodd" d="M101.838 75.0434C100.862 80.9754 95.7125 85.5 89.5042 85.5C87.9827 85.5 86.5216 85.2275 85.1693 84.7275C82.727 87.5552 80.8135 90.8503 79.5807 94.4593C82.2842 96.75 84.0042 100.175 84.0042 104C84.0042 107.825 82.2842 111.25 79.5807 113.541C80.8135 117.15 82.727 120.445 85.1693 123.273C86.5216 122.773 87.9827 122.5 89.5042 122.5C95.7125 122.5 100.862 127.025 101.838 132.957C103.67 133.313 105.565 133.5 107.504 133.5C109.444 133.5 111.338 133.313 113.171 132.957C114.147 127.025 119.296 122.5 125.504 122.5C127.026 122.5 128.487 122.773 129.839 123.273C132.281 120.445 134.195 117.15 135.428 113.541C132.724 111.25 131.004 107.825 131.004 104C131.004 100.175 132.724 96.75 135.428 94.4593C134.195 90.8503 132.281 87.5552 129.839 84.7275C128.487 85.2275 127.026 85.5 125.504 85.5C119.296 85.5 114.147 80.9754 113.171 75.0434C111.338 74.687 109.444 74.5 107.504 74.5C105.565 74.5 103.67 74.687 101.838 75.0434ZM100.893 72.1733C103.029 71.7317 105.24 71.5 107.504 71.5C109.768 71.5 111.98 71.7317 114.116 72.1733C115.243 72.4064 115.959 73.3458 116.096 74.327C116.74 78.945 120.708 82.5 125.504 82.5C126.747 82.5 127.93 82.2622 129.014 81.831C129.934 81.4652 131.101 81.622 131.861 82.482C134.749 85.7488 136.991 89.6025 138.385 93.8428C138.738 94.9166 138.303 95.9895 137.543 96.6026C135.382 98.3465 134.004 101.012 134.004 104C134.004 106.988 135.382 109.653 137.543 111.397C138.303 112.011 138.738 113.083 138.385 114.157C136.991 118.398 134.749 122.251 131.861 125.518C131.101 126.378 129.934 126.535 129.014 126.169C127.93 125.738 126.747 125.5 125.504 125.5C120.708 125.5 116.74 129.055 116.096 133.673C115.959 134.654 115.243 135.594 114.116 135.827C111.98 136.268 109.768 136.5 107.504 136.5C105.24 136.5 103.029 136.268 100.893 135.827C99.7652 135.594 99.0494 134.654 98.9125 133.673C98.268 129.055 94.3 125.5 89.5042 125.5C88.2616 125.5 87.0781 125.738 85.9943 126.169C85.0748 126.535 83.9078 126.378 83.1476 125.518C80.2594 122.251 78.0173 118.398 76.6234 114.157C76.2704 113.083 76.7057 112.011 77.4654 111.397C79.6263 109.653 81.0042 106.988 81.0042 104C81.0042 101.012 79.6263 98.3465 77.4654 96.6026C76.7057 95.9895 76.2704 94.9166 76.6234 93.8428C78.0173 89.6025 80.2594 85.7488 83.1476 82.482C83.9078 81.622 85.0748 81.4652 85.9943 81.831C87.0781 82.2622 88.2616 82.5 89.5042 82.5C94.3 82.5 98.268 78.945 98.9125 74.327C99.0494 73.3458 99.7652 72.4064 100.893 72.1733Z" fill="#968B82"/>
</svg>
