<svg viewBox="0 0 80 80" fill="none" xmlns="http://www.w3.org/2000/svg">
<path d="M11.5527 65.118V27.4836C11.5527 26.3266 12.0124 25.217 12.8305 24.3988C13.6486 23.5807 14.7582 23.1211 15.9152 23.1211H11.2277C10.0707 23.1211 8.96111 23.5807 8.14298 24.3988C7.32485 25.217 6.86523 26.3266 6.86523 27.4836V65.118C6.86523 66.275 7.32485 67.3846 8.14298 68.2027C8.96111 69.0208 10.0707 69.4805 11.2277 69.4805H15.9152C14.7582 69.4805 13.6486 69.0208 12.8305 68.2027C12.0124 67.3846 11.5527 66.275 11.5527 65.118Z" fill="#3E61EE" fill-opacity="0.2"/>
<path fill-rule="evenodd" clip-rule="evenodd" d="M6.9445 27.5004C6.9445 25.5061 8.56125 23.8893 10.5556 23.8893H40.0001H41.1112H43.8889V22.2227H40.0001H10.5556C7.64077 22.2227 5.27783 24.5856 5.27783 27.5004V65.2782C5.27783 68.1931 7.64077 70.556 10.5556 70.556H30.2778V76.1115H26.6667C26.2065 76.1115 25.8334 76.4846 25.8334 76.9449C25.8334 77.4051 26.2065 77.7782 26.6667 77.7782H52.7778C53.2381 77.7782 53.6112 77.4051 53.6112 76.9449C53.6112 76.4846 53.2381 76.1115 52.7778 76.1115H49.7223V70.556H69.4445C72.3593 70.556 74.7223 68.1931 74.7223 65.2782V24.1671C74.7223 23.0932 73.8517 22.2227 72.7778 22.2227V23.8893C72.9312 23.8893 73.0556 24.0137 73.0556 24.1671V60.0004H6.9445V27.5004ZM6.9445 61.6671V65.2782C6.9445 67.2726 8.56125 68.8893 10.5556 68.8893H69.4445C71.4389 68.8893 73.0556 67.2726 73.0556 65.2782V61.6671H6.9445ZM48.0556 70.556V76.1115H31.9445V70.556H48.0556ZM13.0556 38.6115C13.0556 38.1513 13.4287 37.7782 13.8889 37.7782H42.7778C43.2381 37.7782 43.6112 38.1513 43.6112 38.6115C43.6112 39.0718 43.2381 39.4449 42.7778 39.4449H13.8889C13.4287 39.4449 13.0556 39.0718 13.0556 38.6115ZM13.8889 28.3338C13.4287 28.3338 13.0556 28.7069 13.0556 29.1671C13.0556 29.6273 13.4287 30.0004 13.8889 30.0004H39.4445C39.9047 30.0004 40.2778 29.6273 40.2778 29.1671C40.2778 28.7069 39.9047 28.3338 39.4445 28.3338H13.8889ZM13.0556 48.6115C13.0556 48.1513 13.4287 47.7782 13.8889 47.7782H37.7778C38.2381 47.7782 38.6112 48.1513 38.6112 48.6115C38.6112 49.0718 38.2381 49.4449 37.7778 49.4449H13.8889C13.4287 49.4449 13.0556 49.0718 13.0556 48.6115ZM13.8889 41.1115C13.4287 41.1115 13.0556 41.4846 13.0556 41.9449C13.0556 42.4051 13.4287 42.7782 13.8889 42.7782H30.5556C31.0158 42.7782 31.3889 42.4051 31.3889 41.9449C31.3889 41.4846 31.0158 41.1115 30.5556 41.1115H13.8889ZM13.0556 51.9449C13.0556 51.4846 13.4287 51.1115 13.8889 51.1115H34.1667C34.627 51.1115 35.0001 51.4846 35.0001 51.9449C35.0001 52.4051 34.627 52.7782 34.1667 52.7782H13.8889C13.4287 52.7782 13.0556 52.4051 13.0556 51.9449ZM14.4445 36.1115C13.9843 36.1115 13.6112 35.7384 13.6112 35.2782C13.6112 34.818 13.9843 34.4449 14.4445 34.4449C14.9047 34.4449 15.2778 34.818 15.2778 35.2782C15.2778 35.7384 14.9047 36.1115 14.4445 36.1115ZM13.6112 45.2782C13.6112 45.7384 13.9843 46.1115 14.4445 46.1115C14.9047 46.1115 15.2778 45.7384 15.2778 45.2782C15.2778 44.818 14.9047 44.4449 14.4445 44.4449C13.9843 44.4449 13.6112 44.818 13.6112 45.2782ZM33.8889 56.1115C33.4287 56.1115 33.0556 55.7384 33.0556 55.2782C33.0556 54.818 33.4287 54.4449 33.8889 54.4449C34.3492 54.4449 34.7223 54.818 34.7223 55.2782C34.7223 55.7384 34.3492 56.1115 33.8889 56.1115ZM16.3889 35.2782C16.3889 34.818 16.762 34.4449 17.2223 34.4449H23.8889C24.3492 34.4449 24.7223 34.818 24.7223 35.2782C24.7223 35.7384 24.3492 36.1115 23.8889 36.1115H17.2223C16.762 36.1115 16.3889 35.7384 16.3889 35.2782ZM17.2223 44.4449C16.762 44.4449 16.3889 44.818 16.3889 45.2782C16.3889 45.7384 16.762 46.1115 17.2223 46.1115H23.8889C24.3492 46.1115 24.7223 45.7384 24.7223 45.2782C24.7223 44.818 24.3492 44.4449 23.8889 44.4449H17.2223ZM13.3334 55.2782C13.3334 54.818 13.7065 54.4449 14.1667 54.4449H20.8334C21.2936 54.4449 21.6667 54.818 21.6667 55.2782C21.6667 55.7384 21.2936 56.1115 20.8334 56.1115H14.1667C13.7065 56.1115 13.3334 55.7384 13.3334 55.2782ZM26.6667 34.4449C26.2065 34.4449 25.8334 34.818 25.8334 35.2782C25.8334 35.7384 26.2065 36.1115 26.6667 36.1115H29.4445C29.9047 36.1115 30.2778 35.7384 30.2778 35.2782C30.2778 34.818 29.9047 34.4449 29.4445 34.4449H26.6667ZM25.8334 45.2782C25.8334 44.818 26.2065 44.4449 26.6667 44.4449H34.1667C34.627 44.4449 35.0001 44.818 35.0001 45.2782C35.0001 45.7384 34.627 46.1115 34.1667 46.1115H26.6667C26.2065 46.1115 25.8334 45.7384 25.8334 45.2782ZM23.6112 54.4449C23.1509 54.4449 22.7778 54.818 22.7778 55.2782C22.7778 55.7384 23.1509 56.1115 23.6112 56.1115H31.1112C31.5714 56.1115 31.9445 55.7384 31.9445 55.2782C31.9445 54.818 31.5714 54.4449 31.1112 54.4449H23.6112ZM13.3334 32.5004C13.3334 32.0402 13.7065 31.6671 14.1667 31.6671H20.2778C20.7381 31.6671 21.1112 32.0402 21.1112 32.5004C21.1112 32.9607 20.7381 33.3338 20.2778 33.3338H14.1667C13.7065 33.3338 13.3334 32.9607 13.3334 32.5004ZM23.0556 31.6671C22.5954 31.6671 22.2223 32.0402 22.2223 32.5004C22.2223 32.9607 22.5954 33.3338 23.0556 33.3338H29.4445C29.9047 33.3338 30.2778 32.9607 30.2778 32.5004C30.2778 32.0402 29.9047 31.6671 29.4445 31.6671H23.0556Z" fill="#3E61EE"/>
<path fill-rule="evenodd" clip-rule="evenodd" d="M40.8334 16.9443C40.8334 11.4215 45.3105 6.94434 50.8334 6.94434C53.8207 6.94434 56.5019 8.25489 58.3334 10.3298C60.1648 8.25489 62.846 6.94434 65.8334 6.94434C71.3562 6.94434 75.8334 11.4215 75.8334 16.9443C75.8334 18.3446 75.5451 19.6797 75.0238 20.8918C74.4535 22.2181 73.4674 23.2624 72.5711 24.1587L58.9226 37.8072C58.7664 37.9634 58.5544 38.0512 58.3334 38.0512C58.1124 38.0512 57.9004 37.9634 57.7441 37.8072L44.0956 24.1587C43.1993 23.2624 42.2133 22.2181 41.6429 20.8918C41.1217 19.6797 40.8334 18.3446 40.8334 16.9443ZM50.8334 8.611C46.231 8.611 42.5 12.342 42.5 16.9443C42.5 18.114 42.7405 19.2254 43.174 20.2334C43.6054 21.2366 44.3773 22.0833 45.2741 22.9801L58.3334 36.0394L71.3926 22.9801C72.2894 22.0833 73.0613 21.2365 73.4927 20.2334C73.9262 19.2254 74.1667 18.114 74.1667 16.9443C74.1667 12.342 70.4358 8.611 65.8334 8.611C63.0156 8.611 60.5243 10.0087 59.0147 12.1523C58.8586 12.374 58.6045 12.5059 58.3334 12.5059C58.0623 12.5059 57.8081 12.374 57.652 12.1523C56.1425 10.0087 53.6511 8.611 50.8334 8.611Z" fill="#968B82"/>
<path d="M70.0896 13.3727C69.5847 13.2021 69.1262 12.917 68.75 12.5395C68.3738 12.1621 68.0901 11.7027 67.9212 11.1974C67.859 11.0105 67.7397 10.848 67.58 10.7328C67.4203 10.6176 67.2284 10.5557 67.0316 10.5557C66.8347 10.5557 66.6428 10.6176 66.4831 10.7328C66.3234 10.848 66.2041 11.0105 66.1419 11.1974C65.9731 11.7028 65.6894 12.1622 65.3132 12.5396C64.937 12.917 64.4785 13.2022 63.9737 13.3727C63.7872 13.435 63.625 13.5544 63.5101 13.714C63.3952 13.8735 63.3334 14.0652 63.3334 14.2618C63.3334 14.4584 63.3952 14.6501 63.5101 14.8097C63.625 14.9692 63.7872 15.0886 63.9737 15.1509C64.4785 15.3214 64.9369 15.6065 65.3131 15.9838C65.6893 16.3612 65.973 16.8205 66.1419 17.3258C66.2041 17.5126 66.3234 17.6751 66.4831 17.7903C66.6428 17.9055 66.8347 17.9675 67.0316 17.9675C67.2284 17.9675 67.4203 17.9055 67.58 17.7903C67.7397 17.6751 67.859 17.5126 67.9212 17.3258C68.0901 16.8204 68.3738 16.3609 68.75 15.9835C69.1262 15.6061 69.5847 15.3209 70.0896 15.1503C70.2761 15.088 70.4383 14.9686 70.5532 14.809C70.6681 14.6495 70.7299 14.4578 70.7299 14.2612C70.7299 14.0646 70.6681 13.8729 70.5532 13.7133C70.4383 13.5538 70.2761 13.4344 70.0896 13.372V13.3727ZM67.0316 15.0994C66.7847 14.7902 66.5044 14.5094 66.1957 14.2619C66.5044 14.0144 66.7847 13.7335 67.0316 13.4244C67.2786 13.7335 67.559 14.0144 67.8677 14.2619C67.559 14.5094 67.2786 14.7903 67.0316 15.0995V15.0994Z" fill="#968B82"/>
<path d="M63.5278 19.4443C63.2696 19.4443 63.0171 19.5209 62.8024 19.6644C62.5877 19.8078 62.4204 20.0117 62.3216 20.2503C62.2227 20.4889 62.1969 20.7514 62.2473 21.0047C62.2976 21.2579 62.422 21.4906 62.6046 21.6732C62.7872 21.8558 63.0198 21.9801 63.2731 22.0305C63.5263 22.0809 63.7889 22.055 64.0274 21.9562C64.266 21.8574 64.4699 21.69 64.6134 21.4753C64.7568 21.2606 64.8334 21.0082 64.8334 20.75C64.833 20.4038 64.6954 20.0719 64.4506 19.8272C64.2058 19.5824 63.874 19.4447 63.5278 19.4443Z" fill="#968B82"/>
</svg>
