<svg viewBox="0 0 144 144" fill="none" xmlns="http://www.w3.org/2000/svg">
<path d="M20.7949 117.212V49.4697C20.7949 47.3871 21.6222 45.3898 23.0949 43.9171C24.5675 42.4445 26.5648 41.6172 28.6474 41.6172H20.2099C18.1273 41.6172 16.13 42.4445 14.6574 43.9171C13.1847 45.3898 12.3574 47.3871 12.3574 49.4697V117.212C12.3574 119.294 13.1847 121.291 14.6574 122.764C16.13 124.237 18.1273 125.064 20.2099 125.064H28.6474C26.5648 125.064 24.5675 124.237 23.0949 122.764C21.6222 121.291 20.7949 119.294 20.7949 117.212Z" fill="#3E61EE" fill-opacity="0.2"/>
<path fill-rule="evenodd" clip-rule="evenodd" d="M12.5 49.5C12.5 45.9101 15.4101 43 19 43H72H74H79V40H72H19C13.7533 40 9.5 44.2533 9.5 49.5V117.5C9.5 122.747 13.7533 127 19 127H54.5V137H48C47.1716 137 46.5 137.672 46.5 138.5C46.5 139.328 47.1716 140 48 140H95C95.8284 140 96.5 139.328 96.5 138.5C96.5 137.672 95.8284 137 95 137H89.5V127H125C130.247 127 134.5 122.747 134.5 117.5V43.5C134.5 41.567 132.933 40 131 40V43C131.276 43 131.5 43.2239 131.5 43.5V108H12.5V49.5ZM12.5 111V117.5C12.5 121.09 15.4101 124 19 124H125C128.59 124 131.5 121.09 131.5 117.5V111H12.5ZM86.5 127V137H57.5V127H86.5ZM23.5 69.5C23.5 68.6716 24.1716 68 25 68H77C77.8284 68 78.5 68.6716 78.5 69.5C78.5 70.3284 77.8284 71 77 71H25C24.1716 71 23.5 70.3284 23.5 69.5ZM25 51C24.1716 51 23.5 51.6716 23.5 52.5C23.5 53.3284 24.1716 54 25 54H71C71.8284 54 72.5 53.3284 72.5 52.5C72.5 51.6716 71.8284 51 71 51H25ZM23.5 87.5C23.5 86.6716 24.1716 86 25 86H68C68.8284 86 69.5 86.6716 69.5 87.5C69.5 88.3284 68.8284 89 68 89H25C24.1716 89 23.5 88.3284 23.5 87.5ZM25 74C24.1716 74 23.5 74.6716 23.5 75.5C23.5 76.3284 24.1716 77 25 77H55C55.8284 77 56.5 76.3284 56.5 75.5C56.5 74.6716 55.8284 74 55 74H25ZM23.5 93.5C23.5 92.6716 24.1716 92 25 92H61.5C62.3284 92 63 92.6716 63 93.5C63 94.3284 62.3284 95 61.5 95H25C24.1716 95 23.5 94.3284 23.5 93.5ZM26 65C25.1716 65 24.5 64.3284 24.5 63.5C24.5 62.6716 25.1716 62 26 62C26.8284 62 27.5 62.6716 27.5 63.5C27.5 64.3284 26.8284 65 26 65ZM24.5 81.5C24.5 82.3284 25.1716 83 26 83C26.8284 83 27.5 82.3284 27.5 81.5C27.5 80.6716 26.8284 80 26 80C25.1716 80 24.5 80.6716 24.5 81.5ZM61 101C60.1716 101 59.5 100.328 59.5 99.5C59.5 98.6716 60.1716 98 61 98C61.8284 98 62.5 98.6716 62.5 99.5C62.5 100.328 61.8284 101 61 101ZM29.5 63.5C29.5 62.6716 30.1716 62 31 62H43C43.8284 62 44.5 62.6716 44.5 63.5C44.5 64.3284 43.8284 65 43 65H31C30.1716 65 29.5 64.3284 29.5 63.5ZM31 80C30.1716 80 29.5 80.6716 29.5 81.5C29.5 82.3284 30.1716 83 31 83H43C43.8284 83 44.5 82.3284 44.5 81.5C44.5 80.6716 43.8284 80 43 80H31ZM24 99.5C24 98.6716 24.6716 98 25.5 98H37.5C38.3284 98 39 98.6716 39 99.5C39 100.328 38.3284 101 37.5 101H25.5C24.6716 101 24 100.328 24 99.5ZM48 62C47.1716 62 46.5 62.6716 46.5 63.5C46.5 64.3284 47.1716 65 48 65H53C53.8284 65 54.5 64.3284 54.5 63.5C54.5 62.6716 53.8284 62 53 62H48ZM46.5 81.5C46.5 80.6716 47.1716 80 48 80H61.5C62.3284 80 63 80.6716 63 81.5C63 82.3284 62.3284 83 61.5 83H48C47.1716 83 46.5 82.3284 46.5 81.5ZM42.5 98C41.6716 98 41 98.6716 41 99.5C41 100.328 41.6716 101 42.5 101H56C56.8284 101 57.5 100.328 57.5 99.5C57.5 98.6716 56.8284 98 56 98H42.5ZM24 58.5C24 57.6716 24.6716 57 25.5 57H36.5C37.3284 57 38 57.6716 38 58.5C38 59.3284 37.3284 60 36.5 60H25.5C24.6716 60 24 59.3284 24 58.5ZM41.5 57C40.6716 57 40 57.6716 40 58.5C40 59.3284 40.6716 60 41.5 60H53C53.8284 60 54.5 59.3284 54.5 58.5C54.5 57.6716 53.8284 57 53 57H41.5Z" fill="#3E61EE"/>
<path fill-rule="evenodd" clip-rule="evenodd" d="M73.5 30.5C73.5 20.5589 81.5589 12.5 91.5 12.5C96.8772 12.5 101.703 14.859 105 18.5939C108.297 14.859 113.123 12.5 118.5 12.5C128.441 12.5 136.5 20.5589 136.5 30.5C136.5 33.0205 135.981 35.4236 135.043 37.6054C134.016 39.9929 132.241 41.8725 130.628 43.4858L106.061 68.0531C105.779 68.3344 105.398 68.4924 105 68.4924C104.602 68.4924 104.221 68.3344 103.939 68.0531L79.372 43.4858C77.7587 41.8725 75.9839 39.9929 74.9572 37.6054C74.0189 35.4236 73.5 33.0205 73.5 30.5ZM91.5 15.5C83.2157 15.5 76.5 22.2157 76.5 30.5C76.5 32.6055 76.9329 34.6059 77.7131 36.4202C78.4897 38.226 79.8791 39.7502 81.4934 41.3645L105 64.8711L128.507 41.3645C130.121 39.7502 131.51 38.226 132.287 36.4202C133.067 34.6059 133.5 32.6055 133.5 30.5C133.5 22.2157 126.784 15.5 118.5 15.5C113.428 15.5 108.944 18.0159 106.226 21.8744C105.945 22.2734 105.488 22.5108 105 22.5108C104.512 22.5108 104.055 22.2734 103.774 21.8744C101.056 18.0159 96.5719 15.5 91.5 15.5Z" fill="#968B82"/>
<path d="M126.161 24.0706C125.252 23.7636 124.427 23.2503 123.75 22.571C123.073 21.8917 122.562 21.0648 122.258 20.155C122.146 19.8188 121.931 19.5262 121.644 19.3189C121.357 19.1116 121.011 19 120.657 19C120.302 19 119.957 19.1116 119.67 19.3189C119.382 19.5262 119.167 19.8188 119.055 20.155C118.751 21.0648 118.241 21.8917 117.564 22.5711C116.887 23.2504 116.061 23.7637 115.153 24.0706C114.817 24.1828 114.525 24.3977 114.318 24.6849C114.111 24.9721 114 25.3171 114 25.6711C114 26.025 114.111 26.37 114.318 26.6572C114.525 26.9444 114.817 27.1593 115.153 27.2715C116.061 27.5784 116.886 28.0915 117.564 28.7707C118.241 29.4499 118.751 30.2767 119.055 31.1862C119.167 31.5225 119.382 31.8151 119.67 32.0224C119.957 32.2297 120.302 32.3413 120.657 32.3413C121.011 32.3413 121.357 32.2297 121.644 32.0224C121.931 31.8151 122.146 31.5225 122.258 31.1862C122.562 30.2765 123.073 29.4495 123.75 28.7701C124.427 28.0907 125.252 27.5774 126.161 27.2704C126.497 27.1582 126.789 26.9433 126.996 26.6561C127.202 26.3688 127.314 26.0239 127.314 25.6699C127.314 25.316 127.202 24.971 126.996 24.6838C126.789 24.3966 126.497 24.1817 126.161 24.0695V24.0706ZM120.657 27.1787C120.212 26.6222 119.708 26.1167 119.152 25.6712C119.708 25.2257 120.212 24.7202 120.657 24.1637C121.101 24.7201 121.606 25.2257 122.162 25.6712C121.606 26.1167 121.101 26.6224 120.657 27.179V27.1787Z" fill="#968B82"/>
<path d="M114.35 35C113.885 35 113.431 35.1378 113.044 35.3961C112.658 35.6543 112.357 36.0213 112.179 36.4508C112.001 36.8802 111.954 37.3527 112.045 37.8086C112.136 38.2645 112.36 38.6832 112.688 39.0119C113.017 39.3406 113.436 39.5644 113.892 39.6551C114.348 39.7458 114.82 39.6992 115.249 39.5214C115.679 39.3435 116.046 39.0423 116.304 38.6558C116.562 38.2693 116.7 37.8149 116.7 37.3501C116.7 36.727 116.452 36.1297 116.011 35.6891C115.571 35.2485 114.973 35.0007 114.35 35Z" fill="#968B82"/>
</svg>
