<svg viewBox="0 0 144 144" fill="none" xmlns="http://www.w3.org/2000/svg">
<path d="M23.2857 113.385L13 113.385L13 118L29 118L29 103L23.2857 103L23.2857 113.385Z" fill="#3E61EE" fill-opacity="0.2"/>
<path fill-rule="evenodd" clip-rule="evenodd" d="M105.123 74.4507C100.878 93.3549 84.7919 107.823 65 109.775C66.5064 109.924 68.0344 110 69.5802 110C91.0083 110 109 95.3817 114 75.6362C113.149 75.793 112.271 75.875 111.374 75.875C109.133 75.875 107.012 75.3632 105.123 74.4507ZM103.722 49.6378C98 33.1811 83.0395 21.0039 65 19.2247C66.5064 19.0761 68.0344 19 69.5802 19C88.808 19 105.268 30.7702 112.059 47.4535C111.832 47.4429 111.604 47.4375 111.374 47.4375C108.56 47.4375 105.936 48.2443 103.722 49.6378Z" fill="#3E61EE" fill-opacity="0.2"/>
<path fill-rule="evenodd" clip-rule="evenodd" d="M66.6616 19.6988C66.6616 18.7606 67.4282 18 68.3739 18C88.2581 18 105.277 30.1533 112.304 47.3746C112.658 48.2443 112.235 49.2347 111.359 49.5867C110.482 49.9388 109.484 49.5191 109.129 48.6495C102.608 32.667 86.8155 21.3976 68.3739 21.3976C67.4282 21.3976 66.6616 20.637 66.6616 19.6988ZM53.9963 21.9563C54.3274 22.8352 53.8776 23.8139 52.9917 24.1423C36.303 30.3293 24.4246 46.2906 24.4246 65C24.4246 76.3446 28.7894 86.6738 35.9467 94.4313C36.5852 95.1234 36.5373 96.1979 35.8397 96.8314C35.1422 97.4649 34.0591 97.4174 33.4205 96.7253C25.708 88.3661 21 77.2265 21 65C21 44.8272 33.8093 27.6267 51.793 20.9597C52.6788 20.6313 53.6653 21.0775 53.9963 21.9563ZM112.757 75.8243C113.667 76.0818 114.193 77.0219 113.934 77.9241C108.275 97.5957 90.022 112 68.3739 112C67.4282 112 66.6616 111.239 66.6616 110.301C66.6616 109.363 67.4282 108.602 68.3739 108.602C88.4523 108.602 105.39 95.243 110.641 76.9916C110.9 76.0894 111.848 75.5668 112.757 75.8243Z" fill="#3E61EE"/>
<path fill-rule="evenodd" clip-rule="evenodd" d="M77.5281 7.5021C78.1573 8.17157 78.1573 9.257 77.5281 9.92647L69.3798 18.5959C69.17 18.8191 69.17 19.1809 69.3798 19.4041L77.5281 28.0735C78.1573 28.743 78.1573 29.8284 77.5281 30.4979C76.8989 31.1674 75.8787 31.1674 75.2495 30.4979L67.1011 21.8284C65.633 20.2663 65.6329 17.7337 67.1011 16.1716L75.2495 7.5021C75.8787 6.83263 76.8989 6.83263 77.5281 7.5021Z" fill="#3E61EE"/>
<path fill-rule="evenodd" clip-rule="evenodd" d="M120.511 98.5021C119.83 99.1716 119.83 100.257 120.511 100.926L129.339 109.596C129.566 109.819 129.566 110.181 129.339 110.404L120.511 119.074C119.83 119.743 119.83 120.828 120.511 121.498C121.193 122.167 122.298 122.167 122.98 121.498L131.807 112.828C133.398 111.266 133.398 108.734 131.807 107.172L122.98 98.5021C122.298 97.8326 121.193 97.8326 120.511 98.5021Z" fill="#3E61EE"/>
<path fill-rule="evenodd" clip-rule="evenodd" d="M27 110.5C27 109.672 27.7577 109 28.6923 109H69.3077C70.2423 109 71 109.672 71 110.5C71 111.328 70.2423 112 69.3077 112H28.6923C27.7577 112 27 111.328 27 110.5Z" fill="#3E61EE"/>
<path fill-rule="evenodd" clip-rule="evenodd" d="M104 110.5C104 109.672 104.779 109 105.74 109L131.26 109C132.221 109 133 109.672 133 110.5C133 111.328 132.221 112 131.26 112L105.74 112C104.779 112 104 111.328 104 110.5Z" fill="#3E61EE"/>
<path fill-rule="evenodd" clip-rule="evenodd" d="M111.5 49.4138C104.273 49.4138 98.4138 55.2727 98.4138 62.5C98.4138 69.7273 104.273 75.5862 111.5 75.5862C118.727 75.5862 124.586 69.7273 124.586 62.5C124.586 61.5573 125.35 60.7931 126.293 60.7931C127.236 60.7931 128 61.5573 128 62.5C128 71.6127 120.613 79 111.5 79C102.387 79 95 71.6127 95 62.5C95 53.3873 102.387 46 111.5 46C117.069 46 121.993 48.7603 124.978 52.9797C125.522 53.7492 125.34 54.8144 124.57 55.3589C123.801 55.9034 122.736 55.7209 122.191 54.9514C119.818 51.5976 115.914 49.4138 111.5 49.4138Z" fill="#968B82"/>
<path fill-rule="evenodd" clip-rule="evenodd" d="M130.412 47.426C131.123 48.0566 131.2 49.1576 130.584 49.8852L117.271 65.5962C115.852 67.2708 113.383 67.4757 111.719 66.0571L106.613 61.7054C105.89 61.089 105.792 59.9896 106.395 59.2499C106.998 58.5103 108.073 58.4103 108.796 59.0267L113.901 63.3784C114.139 63.5811 114.492 63.5518 114.695 63.3126L128.007 47.6016C128.624 46.874 129.7 46.7954 130.412 47.426Z" fill="#968B82"/>
<path fill-rule="evenodd" clip-rule="evenodd" d="M11 104.912C11 102.751 12.7514 101 14.9118 101H26.0882C28.2486 101 30 102.751 30 104.912V116.088C30 118.249 28.2486 120 26.0882 120H14.9118C12.7514 120 11 118.249 11 116.088V104.912ZM14.9118 104.353C14.6031 104.353 14.3529 104.603 14.3529 104.912V116.088C14.3529 116.397 14.6031 116.647 14.9118 116.647H26.0882C26.3969 116.647 26.6471 116.397 26.6471 116.088V104.912C26.6471 104.603 26.3969 104.353 26.0882 104.353H14.9118Z" fill="#3E61EE"/>
<path d="M69 125.5C69 125.102 68.7923 124.721 68.4227 124.439C68.0531 124.158 67.5518 124 67.0291 124L56.9709 124C56.4482 124 55.9469 124.158 55.5773 124.439C55.2077 124.721 55 125.102 55 125.5C55 125.898 55.2077 126.279 55.5773 126.561C55.9469 126.842 56.4482 127 56.9709 127L67.0291 127C67.5518 127 68.0531 126.842 68.4227 126.561C68.7923 126.279 69 125.898 69 125.5Z" fill="#3E61EE"/>
<path d="M54 125.5C54 125.102 53.775 124.721 53.3744 124.439C52.9738 124.158 52.4305 124 51.864 124L49.136 124C48.5695 124 48.0262 124.158 47.6256 124.439C47.225 124.721 47 125.102 47 125.5C47 125.898 47.225 126.279 47.6256 126.561C48.0262 126.842 48.5695 127 49.136 127L51.864 127C52.4305 127 52.9738 126.842 53.3744 126.561C53.775 126.279 54 125.898 54 125.5Z" fill="#3E61EE"/>
<path d="M61 119C61 118.47 60.8015 117.961 60.4482 117.586C60.0949 117.211 59.6158 117 59.1161 117L51.8839 117C51.3842 117 50.9051 117.211 50.5518 117.586C50.1985 117.961 50 118.47 50 119C50 119.53 50.1985 120.039 50.5518 120.414C50.9051 120.789 51.3842 121 51.8839 121L59.1161 121C59.6158 121 60.0949 120.789 60.4482 120.414C60.8015 120.039 61 119.53 61 119Z" fill="#3E61EE"/>
<path d="M49 119C49 118.47 48.7749 117.961 48.3744 117.586C47.9738 117.211 47.4304 117 46.8639 117L44.1361 117C43.5696 117 43.0262 117.211 42.6256 117.586C42.2251 117.961 42 118.47 42 119C42 119.53 42.2251 120.039 42.6256 120.414C43.0262 120.789 43.5696 121 44.1361 121L46.8639 121C47.4304 121 47.9738 120.789 48.3744 120.414C48.7749 120.039 49 119.53 49 119Z" fill="#3E61EE"/>
<path d="M131.675 20.7559C130.084 20.2466 128.639 19.3949 127.453 18.2677C126.268 17.1404 125.373 15.7682 124.841 14.2586C124.712 13.8922 124.465 13.5734 124.135 13.3475C123.805 13.1216 123.407 13 123 13C122.593 13 122.195 13.1216 121.865 13.3475C121.535 13.5734 121.288 13.8922 121.159 14.2586C120.627 15.7682 119.732 17.1404 118.547 18.2676C117.361 19.3949 115.916 20.2465 114.325 20.7559C113.939 20.8781 113.604 21.1123 113.366 21.4253C113.128 21.7383 113 22.1142 113 22.4998C113 22.8855 113.128 23.2614 113.366 23.5744C113.604 23.8874 113.939 24.1216 114.325 24.2438C115.916 24.7531 117.361 25.6048 118.547 26.7321C119.733 27.8594 120.627 29.2317 121.159 30.7414C121.288 31.1078 121.535 31.4266 121.865 31.6525C122.195 31.8784 122.593 32 123 32C123.407 32 123.805 31.8784 124.135 31.6525C124.465 31.4266 124.712 31.1078 124.841 30.7414C125.373 29.2317 126.267 27.8595 127.453 26.7323C128.639 25.605 130.084 24.7534 131.675 24.2441C132.061 24.1219 132.396 23.8877 132.634 23.5747C132.872 23.2617 133 22.8858 133 22.5002C133 22.1145 132.872 21.7386 132.634 21.4256C132.396 21.1126 132.061 20.8784 131.675 20.7562V20.7559ZM123 26.083C121.981 24.6821 120.703 23.4681 119.227 22.4997C120.703 21.5314 121.981 20.3175 123 18.9167C124.019 20.3172 125.297 21.5311 126.773 22.4997C125.297 23.4683 124.019 24.6824 123 26.083Z" fill="#968B82"/>
<path d="M59.7015 40.7012C58.6777 40.356 57.7479 39.7789 56.9851 39.0152C56.2222 38.2514 55.647 37.3217 55.3046 36.299C55.1787 35.9208 54.9366 35.5918 54.6128 35.3586C54.2889 35.1255 53.8997 35 53.5003 35C53.101 35 52.7117 35.1255 52.3879 35.3586C52.064 35.5918 51.822 35.9208 51.696 36.299C51.3534 37.3217 50.7781 38.2514 50.0151 39.0151C49.2522 39.7789 48.3223 40.356 47.2985 40.7012C46.9203 40.8273 46.5914 41.0689 46.3584 41.3918C46.1254 41.7147 46 42.1025 46 42.5004C46 42.8983 46.1254 43.2861 46.3584 43.609C46.5914 43.9319 46.9203 44.1735 47.2985 44.2996C48.3224 44.6447 49.2522 45.2217 50.0152 45.9854C50.7781 46.7491 51.3534 47.6788 51.696 48.7015C51.822 49.0795 52.0641 49.4084 52.3879 49.6415C52.7117 49.8746 53.1009 50 53.5002 50C53.8994 50 54.2886 49.8746 54.6124 49.6415C54.9362 49.4084 55.1783 49.0795 55.3043 48.7015C55.6468 47.6788 56.222 46.7491 56.9849 45.9854C57.7478 45.2217 58.6777 44.6447 59.7015 44.2996C60.0797 44.1735 60.4086 43.9319 60.6416 43.609C60.8746 43.2861 61 42.8983 61 42.5004C61 42.1025 60.8746 41.7147 60.6416 41.3918C60.4086 41.0689 60.0797 40.8273 59.7015 40.7012ZM53.5 44.1959C52.9991 43.5705 52.4306 43.0021 51.8047 42.5012C52.4307 42.0003 52.9992 41.4319 53.5 40.8065C54.0008 41.4319 54.5693 42.0003 55.1953 42.5012C54.5693 43.0021 54.0008 43.5704 53.5 44.1959Z" fill="#3E61EE"/>
<path fill-rule="evenodd" clip-rule="evenodd" d="M37.6812 19.7137C38.2275 20.4825 38.0544 21.5537 37.2944 22.1063C24.0254 31.7554 15.3896 47.5004 15.3896 65.2857C15.3896 66.2325 14.6308 67 13.6948 67C12.7588 67 12 66.2325 12 65.2857C12 46.3503 21.199 29.5881 35.3158 19.3225C36.0758 18.7698 37.1348 18.945 37.6812 19.7137Z" fill="#3E61EE"/>
<path d="M107 130.5C107 132.433 105.433 134 103.5 134C101.567 134 100 132.433 100 130.5C100 128.567 101.567 127 103.5 127C105.433 127 107 128.567 107 130.5Z" fill="#3E61EE"/>
<path d="M89 137.5C89 139.433 87.433 141 85.5 141C83.567 141 82 139.433 82 137.5C82 135.567 83.567 134 85.5 134C87.433 134 89 135.567 89 137.5Z" fill="#3E61EE"/>
<path d="M28 16C28 17.6569 26.433 19 24.5 19C22.567 19 21 17.6569 21 16C21 14.3431 22.567 13 24.5 13C26.433 13 28 14.3431 28 16Z" fill="#3E61EE"/>
</svg>
