<svg viewBox="0 0 80 80" fill="none" xmlns="http://www.w3.org/2000/svg">
<path d="M12.9365 62.9916L7.22217 62.9916L7.22217 65.5557L16.1111 65.5557L16.1111 57.2223L12.9365 57.2223L12.9365 62.9916Z" fill="#3E61EE" fill-opacity="0.2"/>
<path fill-rule="evenodd" clip-rule="evenodd" d="M58.4016 41.3616C56.043 51.864 47.1066 59.9019 36.1111 60.9864C36.948 61.069 37.7968 61.1112 38.6556 61.1112C50.5602 61.1112 60.5553 52.99 63.3333 42.0202C62.8604 42.1074 62.3728 42.1529 61.8745 42.1529C60.6293 42.1529 59.4509 41.8685 58.4016 41.3616ZM57.6235 27.5767C54.4444 18.4341 46.1331 11.669 36.1111 10.6805C36.948 10.5979 37.7968 10.5557 38.6556 10.5557C49.3377 10.5557 58.4825 17.0947 62.255 26.3632C62.1289 26.3573 62.002 26.3543 61.8745 26.3543C60.3111 26.3543 58.853 26.8025 57.6235 27.5767Z" fill="#3E61EE" fill-opacity="0.2"/>
<path fill-rule="evenodd" clip-rule="evenodd" d="M37.0342 10.9438C37.0342 10.4225 37.4601 10 37.9855 10C49.0323 10 58.4872 16.7518 62.3909 26.3192C62.588 26.8024 62.353 27.3526 61.866 27.5482C61.379 27.7438 60.8244 27.5106 60.6273 27.0275C57.0045 18.1483 48.2308 11.8876 37.9855 11.8876C37.4601 11.8876 37.0342 11.465 37.0342 10.9438ZM29.9979 12.198C30.1818 12.6862 29.932 13.2299 29.4398 13.4124C20.1683 16.8496 13.5692 25.717 13.5692 36.1111C13.5692 42.4136 15.994 48.1521 19.9703 52.4618C20.3251 52.8463 20.2985 53.4433 19.9109 53.7952C19.5234 54.1472 18.9217 54.1208 18.5669 53.7363C14.2822 49.0923 11.6666 42.9036 11.6666 36.1111C11.6666 24.904 18.7829 15.3482 28.7738 11.6443C29.266 11.4618 29.814 11.7097 29.9979 12.198ZM62.6428 42.1246C63.148 42.2676 63.4407 42.7899 63.2965 43.2911C60.1525 54.2198 50.0122 62.2222 37.9855 62.2222C37.4601 62.2222 37.0342 61.7997 37.0342 61.2784C37.0342 60.7572 37.4601 60.3347 37.9855 60.3347C49.1401 60.3347 58.55 52.9128 61.467 42.7731C61.6112 42.2719 62.1376 41.9815 62.6428 42.1246Z" fill="#3E61EE"/>
<path fill-rule="evenodd" clip-rule="evenodd" d="M43.0711 4.16762C43.4207 4.53955 43.4207 5.14256 43.0711 5.51449L38.5443 10.3309C38.4278 10.4548 38.4278 10.6558 38.5443 10.7798L43.0711 15.5962C43.4207 15.9681 43.4207 16.5711 43.0711 16.9431C42.7215 17.315 42.1548 17.315 41.8052 16.9431L37.2784 12.1267C36.4627 11.2589 36.4627 9.85182 37.2784 8.98399L41.8052 4.16762C42.1548 3.79569 42.7215 3.79569 43.0711 4.16762Z" fill="#3E61EE"/>
<path fill-rule="evenodd" clip-rule="evenodd" d="M66.9507 54.7233C66.572 55.0952 66.572 55.6982 66.9507 56.0702L71.8548 60.8865C71.981 61.0105 71.981 61.2115 71.8548 61.3355L66.9507 66.1519C66.572 66.5238 66.572 67.1268 66.9507 67.4987C67.3294 67.8707 67.9434 67.8707 68.3221 67.4987L73.2262 62.6824C74.1098 61.8145 74.1098 60.4075 73.2262 59.5397L68.3221 54.7233C67.9434 54.3514 67.3294 54.3514 66.9507 54.7233Z" fill="#3E61EE"/>
<path fill-rule="evenodd" clip-rule="evenodd" d="M15 61.389C15 60.9288 15.4209 60.5557 15.9402 60.5557H38.5043C39.0235 60.5557 39.4444 60.9288 39.4444 61.389C39.4444 61.8492 39.0235 62.2223 38.5043 62.2223H15.9402C15.4209 62.2223 15 61.8492 15 61.389Z" fill="#3E61EE"/>
<path fill-rule="evenodd" clip-rule="evenodd" d="M57.7778 61.389C57.7778 60.9288 58.2106 60.5557 58.7445 60.5557L72.9223 60.5557C73.4561 60.5557 73.8889 60.9288 73.8889 61.389C73.8889 61.8492 73.4561 62.2223 72.9223 62.2223L58.7445 62.2223C58.2106 62.2223 57.7778 61.8492 57.7778 61.389Z" fill="#3E61EE"/>
<path fill-rule="evenodd" clip-rule="evenodd" d="M61.9445 27.4522C57.9293 27.4522 54.6744 30.7072 54.6744 34.7223C54.6744 38.7375 57.9293 41.9924 61.9445 41.9924C65.9597 41.9924 69.2146 38.7375 69.2146 34.7223C69.2146 34.1986 69.6392 33.7741 70.1629 33.7741C70.6866 33.7741 71.1112 34.1986 71.1112 34.7223C71.1112 39.7849 67.0071 43.889 61.9445 43.889C56.8819 43.889 52.7778 39.7849 52.7778 34.7223C52.7778 29.6597 56.8819 25.5557 61.9445 25.5557C65.0382 25.5557 67.7737 27.0892 69.4322 29.4332C69.7347 29.8608 69.6333 30.4526 69.2058 30.7551C68.7783 31.0576 68.1865 30.9562 67.884 30.5287C66.5657 28.6654 64.3968 27.4522 61.9445 27.4522Z" fill="#968B82"/>
<path fill-rule="evenodd" clip-rule="evenodd" d="M72.451 26.348C72.8462 26.6983 72.889 27.31 72.5464 27.7142L65.1505 36.4426C64.3622 37.3729 62.9908 37.4867 62.0662 36.6986L59.2297 34.281C58.8279 33.9385 58.7736 33.3278 59.1084 32.9169C59.4432 32.5059 60.0404 32.4504 60.4421 32.7928L63.2786 35.2105C63.4107 35.3231 63.6066 35.3068 63.7192 35.1739L71.1152 26.4456C71.4577 26.0413 72.0558 25.9976 72.451 26.348Z" fill="#968B82"/>
<path fill-rule="evenodd" clip-rule="evenodd" d="M6.11108 58.2845C6.11108 57.0843 7.08406 56.1113 8.28429 56.1113H14.4934C15.6937 56.1113 16.6666 57.0843 16.6666 58.2845V64.4937C16.6666 65.6939 15.6937 66.6669 14.4934 66.6669H8.28429C7.08406 66.6669 6.11108 65.6939 6.11108 64.4937V58.2845ZM8.28429 57.9741C8.11283 57.9741 7.97383 58.1131 7.97383 58.2845V64.4937C7.97383 64.6651 8.11283 64.8041 8.28429 64.8041H14.4934C14.6649 64.8041 14.8039 64.6651 14.8039 64.4937V58.2845C14.8039 58.1131 14.6649 57.9741 14.4934 57.9741H8.28429Z" fill="#3E61EE"/>
<path d="M38.3334 69.722C38.3334 69.501 38.218 69.289 38.0127 69.1327C37.8073 68.9765 37.5288 68.8887 37.2384 68.8887L31.6505 68.8887C31.3601 68.8887 31.0816 68.9765 30.8763 69.1327C30.671 69.289 30.5556 69.501 30.5556 69.722C30.5556 69.943 30.671 70.155 30.8763 70.3113C31.0816 70.4675 31.3601 70.5553 31.6505 70.5553L37.2384 70.5553C37.5288 70.5553 37.8073 70.4675 38.0127 70.3113C38.218 70.155 38.3334 69.943 38.3334 69.722Z" fill="#3E61EE"/>
<path d="M30 69.722C30 69.501 29.875 69.289 29.6524 69.1327C29.4299 68.9765 29.1281 68.8887 28.8133 68.8887L27.2978 68.8887C26.9831 68.8887 26.6812 68.9765 26.4587 69.1327C26.2361 69.289 26.1111 69.501 26.1111 69.722C26.1111 69.943 26.2361 70.155 26.4587 70.3113C26.6812 70.4675 26.9831 70.5553 27.2978 70.5553L28.8133 70.5553C29.1281 70.5553 29.4299 70.4675 29.6524 70.3113C29.875 70.155 30 69.943 30 69.722Z" fill="#3E61EE"/>
<path d="M33.8889 66.1111C33.8889 65.8164 33.7787 65.5338 33.5824 65.3254C33.3861 65.1171 33.1199 65 32.8423 65L28.8244 65C28.5468 65 28.2806 65.1171 28.0844 65.3254C27.8881 65.5338 27.7778 65.8164 27.7778 66.1111C27.7778 66.4058 27.8881 66.6884 28.0844 66.8968C28.2806 67.1052 28.5468 67.2222 28.8244 67.2222L32.8423 67.2222C33.1199 67.2222 33.3861 67.1052 33.5824 66.8968C33.7787 66.6884 33.8889 66.4058 33.8889 66.1111Z" fill="#3E61EE"/>
<path d="M27.2222 66.1111C27.2222 65.8164 27.0971 65.5338 26.8746 65.3254C26.652 65.1171 26.3502 65 26.0354 65L24.52 65C24.2053 65 23.9034 65.1171 23.6809 65.3254C23.4583 65.5338 23.3333 65.8164 23.3333 66.1111C23.3333 66.4058 23.4583 66.6884 23.6809 66.8968C23.9034 67.1052 24.2053 67.2222 24.52 67.2222L26.0354 67.2222C26.3502 67.2222 26.652 67.1052 26.8746 66.8968C27.0971 66.6884 27.2222 66.4058 27.2222 66.1111Z" fill="#3E61EE"/>
<path d="M73.1528 11.5315C72.2689 11.2485 71.4661 10.7754 70.8074 10.1491C70.1487 9.5229 69.652 8.76056 69.3562 7.9219C69.2847 7.71832 69.1475 7.54122 68.9639 7.41571C68.7803 7.2902 68.5597 7.22266 68.3334 7.22266C68.107 7.22266 67.8864 7.2902 67.7028 7.41571C67.5193 7.54122 67.382 7.71832 67.3106 7.9219C67.0148 8.76055 66.518 9.52287 65.8593 10.1491C65.2006 10.7754 64.3979 11.2485 63.514 11.5315C63.2996 11.5994 63.1131 11.7295 62.981 11.9034C62.8489 12.0772 62.7778 12.2861 62.7778 12.5003C62.7778 12.7146 62.8489 12.9235 62.981 13.0973C63.1131 13.2712 63.2996 13.4013 63.514 13.4692C64.3979 13.7522 65.2007 14.2253 65.8594 14.8516C66.5181 15.4779 67.0149 16.2403 67.3106 17.079C67.382 17.2826 67.5193 17.4597 67.7028 17.5852C67.8864 17.7107 68.107 17.7782 68.3334 17.7782C68.5597 17.7782 68.7803 17.7107 68.9639 17.5852C69.1475 17.4597 69.2847 17.2826 69.3562 17.079C69.6519 16.2403 70.1487 15.4779 70.8074 14.8517C71.4661 14.2255 72.2689 13.7523 73.1528 13.4694C73.3672 13.4015 73.5537 13.2714 73.6858 13.0975C73.8179 12.9236 73.8889 12.7148 73.8889 12.5005C73.8889 12.2863 73.8179 12.0774 73.6858 11.9035C73.5537 11.7297 73.3672 11.5996 73.1528 11.5316V11.5315ZM68.3333 14.491C67.7674 13.7127 67.0572 13.0382 66.2373 12.5003C67.0572 11.9623 67.7674 11.2879 68.3333 10.5097C68.8994 11.2878 69.6096 11.9622 70.4293 12.5003C69.6095 13.0384 68.8994 13.7129 68.3333 14.491Z" fill="#968B82"/>
<path d="M33.1675 22.6117C32.5987 22.4199 32.0822 22.0993 31.6584 21.675C31.2346 21.2507 30.915 20.7342 30.7248 20.166C30.6548 19.9559 30.5203 19.7731 30.3404 19.6436C30.1605 19.514 29.9443 19.4443 29.7224 19.4443C29.5005 19.4443 29.2843 19.514 29.1044 19.6436C28.9244 19.7731 28.79 19.9559 28.72 20.166C28.5296 20.7342 28.21 21.2506 27.7862 21.675C27.3623 22.0993 26.8457 22.4199 26.2769 22.6117C26.0668 22.6817 25.8841 22.816 25.7547 22.9953C25.6252 23.1747 25.5555 23.3902 25.5555 23.6112C25.5555 23.8323 25.6252 24.0477 25.7547 24.2271C25.8841 24.4065 26.0668 24.5407 26.2769 24.6108C26.8457 24.8025 27.3623 25.1231 27.7862 25.5474C28.21 25.9716 28.5297 26.4881 28.72 27.0563C28.79 27.2663 28.9245 27.449 29.1044 27.5785C29.2843 27.708 29.5005 27.7777 29.7223 27.7777C29.9441 27.7777 30.1603 27.708 30.3402 27.5785C30.5201 27.449 30.6546 27.2663 30.7246 27.0563C30.9149 26.4881 31.2344 25.9716 31.6583 25.5473C32.0821 25.123 32.5987 24.8025 33.1675 24.6108C33.3776 24.5407 33.5603 24.4065 33.6898 24.2271C33.8192 24.0477 33.8889 23.8323 33.8889 23.6112C33.8889 23.3902 33.8192 23.1747 33.6898 22.9953C33.5603 22.816 33.3776 22.6817 33.1675 22.6117ZM29.7222 24.5532C29.4439 24.2057 29.1281 23.89 28.7804 23.6117C29.1281 23.3334 29.444 23.0176 29.7222 22.6701C30.0004 23.0176 30.3163 23.3334 30.664 23.6117C30.3163 23.8899 30.0004 24.2057 29.7222 24.5532Z" fill="#3E61EE"/>
<path fill-rule="evenodd" clip-rule="evenodd" d="M20.9339 10.9522C21.2375 11.3793 21.1413 11.9744 20.7191 12.2814C13.3474 17.642 8.54972 26.3892 8.54972 36.27C8.54972 36.7959 8.12818 37.2223 7.60817 37.2223C7.08817 37.2223 6.66663 36.7959 6.66663 36.27C6.66663 25.7503 11.7772 16.4379 19.6198 10.7348C20.0421 10.4278 20.6304 10.5251 20.9339 10.9522Z" fill="#3E61EE"/>
<path d="M59.4444 72.5001C59.4444 73.574 58.5739 74.4445 57.5 74.4445C56.4261 74.4445 55.5555 73.574 55.5555 72.5001C55.5555 71.4262 56.4261 70.5557 57.5 70.5557C58.5739 70.5557 59.4444 71.4262 59.4444 72.5001Z" fill="#3E61EE"/>
<path d="M49.4444 76.3888C49.4444 77.4627 48.5739 78.3332 47.5 78.3332C46.4261 78.3332 45.5555 77.4627 45.5555 76.3888C45.5555 75.3149 46.4261 74.4443 47.5 74.4443C48.5739 74.4443 49.4444 75.3149 49.4444 76.3888Z" fill="#3E61EE"/>
<path d="M15.5555 8.88932C15.5555 9.8098 14.685 10.556 13.6111 10.556C12.5372 10.556 11.6666 9.8098 11.6666 8.88932C11.6666 7.96885 12.5372 7.22266 13.6111 7.22266C14.685 7.22266 15.5555 7.96885 15.5555 8.88932Z" fill="#3E61EE"/>
</svg>
