<svg width="144" height="144" viewBox="0 0 144 144" fill="none" xmlns="http://www.w3.org/2000/svg">
<path d="M32.0572 96.472L32.1075 96.421V96.4014H25.3097C19.4128 96.4063 13.7594 98.7535 9.59316 102.927C5.42688 107.1 3.08898 112.757 3.09376 118.654V140.906H11.5313V118.654C11.5281 113.05 13.6407 107.652 17.4464 103.54C21.2521 99.4269 26.4703 96.9027 32.0572 96.472V96.472Z" fill="#3E61EE" fill-opacity="0.2"/>
<path d="M42.9238 90.6441C40.8903 89.7811 39.0532 88.5143 37.5238 86.9203C37.2397 86.625 36.9669 86.3194 36.7054 86.0035C35.0349 83.9775 33.8764 81.5794 33.3275 79.0116L31.8501 73.4974C31.0311 70.4406 30.6163 67.2897 30.6163 64.125V61.8272C33.5645 61.2216 36.3938 60.1376 38.9919 58.6182C41.9748 56.9287 44.5635 54.6231 46.5857 51.8549C44.4918 49.9209 42.9165 47.4924 42.0041 44.7919L41.7369 43.9932C39.861 51.6066 34.9757 56.0644 30.5544 58.6182C27.9563 60.1376 25.127 61.2216 22.1788 61.8272H21.2366C20.2997 61.8272 19.4012 62.1994 18.7387 62.8619C18.0763 63.5243 17.7041 64.4228 17.7041 65.3597C17.7041 66.2966 18.0763 67.1951 18.7387 67.8576C19.4012 68.5201 20.2997 68.8922 21.2366 68.8922H22.1788L24.89 79.0116C25.4389 81.5794 26.5974 83.9775 28.2679 86.0035C28.5294 86.3185 28.8022 86.6241 29.0863 86.9203C30.6157 88.5143 32.4528 89.7811 34.4863 90.6441C34.9616 90.8438 35.4482 91.021 35.9375 91.1813C37.0837 91.5711 38.2043 92.0323 39.2929 92.5622C39.8218 92.8335 40.4096 92.9695 41.004 92.9582C41.5983 92.9469 42.1805 92.7887 42.6988 92.4975C43.4828 92.1027 44.2869 91.7494 45.108 91.4389C44.8653 91.3492 44.6217 91.2612 44.375 91.1813C43.8857 91.021 43.3991 90.8438 42.9238 90.6441V90.6441Z" fill="#3E61EE" fill-opacity="0.2"/>
<path d="M55.3887 126.562C55.3887 127.01 55.5665 127.439 55.8829 127.756C56.1994 128.072 56.6286 128.25 57.0762 128.25H71.9596C72.4072 128.25 72.8364 128.072 73.1529 127.756C73.4693 127.439 73.6471 127.01 73.6471 126.562C73.6471 126.115 73.4693 125.686 73.1529 125.369C72.8364 125.053 72.4072 124.875 71.9596 124.875H57.0762C56.6286 124.875 56.1994 125.053 55.8829 125.369C55.5665 125.686 55.3887 126.115 55.3887 126.562Z" fill="#3E61EE"/>
<path d="M56.4092 94.7809H56.1724C59.0478 93.4936 61.4886 91.4005 63.1994 88.7551C64.9103 86.1097 65.8179 83.0251 65.8125 79.8747V73.6658C68.0322 71.2113 69.2637 68.0215 69.2693 64.7123C69.2749 61.403 68.0542 58.209 65.8429 55.7471C65.6597 49.2681 62.9567 43.1161 58.3085 38.599C53.6604 34.0819 47.4336 31.5559 40.9521 31.5581C34.4705 31.5603 28.2455 34.0905 23.6004 38.6108C18.9552 43.1311 16.2564 49.2849 16.0777 55.7639C11.1125 61.2427 11.25 69.5148 16.0312 74.9415V80.3832C16.0312 86.7588 19.9353 92.2497 25.4067 94.7809H25.3091C18.974 94.7776 12.897 97.2907 8.41455 101.767C3.93207 106.244 1.41117 112.318 1.40625 118.653V140.906C1.40625 141.353 1.58404 141.783 1.90051 142.099C2.21698 142.416 2.6462 142.593 3.09375 142.593H78.624C79.5558 142.593 80.4375 141.838 80.4375 140.906V118.653C80.4375 105.452 69.5891 94.7809 56.4092 94.7809ZM62.9578 71.8C62.6339 72.1137 62.4469 72.5425 62.4375 72.9933V79.8747C62.4396 82.6241 61.5588 85.3016 59.9248 87.5128C58.2909 89.7241 55.9901 91.3523 53.3613 92.1577C54.2773 90.6046 55.105 88.7017 55.1185 86.8381C56.9049 84.6399 58.1489 82.0521 58.75 79.284L61.0942 70.567C62.0773 70.4978 63.0207 70.1522 63.8158 69.57C64.6108 68.9877 65.2251 68.1926 65.5878 67.2763C65.1273 68.9906 64.2197 70.5517 62.9578 71.8V71.8ZM46.694 89.0344L46.3897 89.1587C46.1663 89.2504 45.9374 89.3373 45.709 89.418C44.4157 89.8565 43.1538 90.3827 41.9321 90.993C41.643 91.1676 41.3131 91.263 40.9755 91.27C40.6379 91.2769 40.3044 91.195 40.0084 91.0324C38.8572 90.4734 37.6722 89.9868 36.4604 89.5755C35.9848 89.4211 35.5551 89.2617 35.1464 89.0884C32.9804 88.1677 31.0678 86.7394 29.5699 84.9241C28.072 83.1087 27.0328 80.9596 26.5402 78.6583C26.5342 78.6301 26.5275 78.602 26.5202 78.5739L23.8089 68.4607C23.7124 68.1024 23.5 67.7862 23.205 67.5611C22.9099 67.3361 22.5487 67.2151 22.1777 67.2167H21.2383C20.7535 67.2167 20.2885 67.0241 19.9456 66.6813C19.6028 66.3384 19.4102 65.8735 19.4102 65.3886C19.4102 64.9038 19.6028 64.4388 19.9456 64.0959C20.2885 63.7531 20.7535 63.5605 21.2383 63.5605H22.1785C22.2711 63.5522 22.3629 63.5365 22.453 63.5135C25.6021 62.8695 28.6242 61.713 31.3988 60.0901C36.2112 57.3086 39.7848 53.4062 41.9096 48.6714C44.2898 52.8143 48.1598 55.894 52.7313 57.2833C52.9943 57.3625 53.2726 57.3764 53.5422 57.3238C53.8118 57.2713 54.0645 57.1538 54.2784 56.9815C54.4923 56.8093 54.661 56.5875 54.77 56.3353C54.8789 56.0832 54.9247 55.8083 54.9034 55.5344L54.3729 48.459C56.2039 50.2469 58.2188 53.5997 58.2188 59.5009V61.8274C58.2084 62.2756 58.3758 62.7096 58.6845 63.0346C58.9932 63.3597 59.418 63.5494 59.866 63.5622H60.741C61.2259 63.5622 61.6908 63.7548 62.0337 64.0976C62.3765 64.4405 62.5691 64.9054 62.5691 65.3903C62.5691 65.8751 62.3765 66.3401 62.0337 66.683C61.6908 67.0258 61.2259 67.2184 60.741 67.2184H59.8005C59.4298 67.217 59.0691 67.3381 58.7743 67.5628C58.4796 67.7876 58.2674 68.1034 58.1707 68.4613L55.4861 78.4535C55.4788 78.4816 55.4718 78.5081 55.4659 78.5379C54.9682 80.8692 53.9091 83.0438 52.3805 84.873C50.8518 86.7022 48.8999 88.1307 46.694 89.0344V89.0344ZM47.8125 92.1768V96.9761C47.8306 97.8867 47.7552 98.7968 47.5875 99.6921C46.8584 100.827 45.856 101.76 44.6724 102.406C43.4888 103.052 42.1618 103.391 40.8132 103.391C39.4646 103.391 38.1376 103.052 36.954 102.406C35.7703 101.76 34.768 100.827 34.0388 99.6921C33.8498 98.799 33.753 97.8889 33.75 96.9761V92.1805C33.75 92.1855 33.7947 92.1914 33.8062 92.1965C34.3063 92.4086 34.8373 92.6015 35.4074 92.7871C36.4873 93.1562 37.5435 93.5911 38.5701 94.0896C39.3332 94.4707 40.1772 94.6615 41.03 94.6457C41.8829 94.6299 42.7192 94.4081 43.4678 93.999C44.5556 93.4576 45.679 92.9905 46.8301 92.6012C47.1113 92.5022 47.3363 92.3948 47.6128 92.282L47.8125 92.1768ZM19.4062 80.3832V74.2671C19.4137 74.0481 19.3775 73.8298 19.2997 73.625C19.2219 73.4202 19.1041 73.2329 18.9532 73.074C16.961 71.0849 15.8166 68.4015 15.7602 65.5868C15.7038 62.7722 16.7397 60.045 18.6505 57.9777L19.0344 57.5704C19.3212 57.2596 19.4812 56.8528 19.483 56.4299C19.5036 50.7404 21.7782 45.291 25.8086 41.2751C29.839 37.2593 35.2966 35.0045 40.9861 35.0045C46.6757 35.0045 52.1333 37.2593 56.1637 41.2751C60.1941 45.291 62.4687 50.7404 62.4893 56.4299C62.4893 56.6516 62.5331 56.8711 62.618 57.0759C62.703 57.2806 62.8274 57.4666 62.9842 57.6233C64.8541 59.4832 65.9096 62.009 65.9191 64.6464C65.7622 63.5428 65.2587 62.5176 64.4812 61.7187C63.7038 60.9198 62.6927 60.3887 61.5938 60.2018V59.551C61.875 47.0072 53.3782 43.6505 53.0184 43.5135C52.7518 43.4118 52.4638 43.3789 52.181 43.418C51.8983 43.4571 51.63 43.5669 51.401 43.7372C51.172 43.9076 50.9896 44.1329 50.8708 44.3924C50.7519 44.6519 50.7005 44.9372 50.7212 45.2218L51.3315 53.1047C47.6877 51.2905 44.9102 48.1077 43.6061 44.2518L43.353 43.5048C43.2459 43.1425 43.0203 42.8267 42.7124 42.6078C42.4045 42.3889 42.032 42.2797 41.6547 42.2976C41.2773 42.3155 40.9169 42.4596 40.6311 42.7066C40.3453 42.9537 40.1507 43.2895 40.0784 43.6604C38.6381 49.44 35.1847 53.9856 29.8094 57.1238C26.1087 59.2852 22.6969 59.9059 22.0241 60.1872H21.2383C19.8922 60.1914 18.6001 60.7171 17.6334 61.6539C16.6668 62.5908 16.1008 63.8658 16.0545 65.2111C16.0081 66.5565 16.485 67.8674 17.3849 68.8685C18.2848 69.8697 19.5376 70.4831 20.8803 70.5799L23.249 79.4145C23.9173 82.4876 25.3776 85.3324 27.4852 87.6667C27.6929 89.2615 28.0967 90.8247 28.6875 92.3205C26.0397 91.6345 23.6933 90.0915 22.0144 87.9321C20.3355 85.7727 19.4184 83.1184 19.4062 80.3832V80.3832ZM34.3125 139.218H4.78125V118.653C4.78321 115.959 5.31574 113.292 6.34843 110.804C7.38113 108.316 8.89376 106.056 10.8 104.153C12.7062 102.249 14.9686 100.74 17.4581 99.7113C19.9476 98.6823 22.6154 98.1538 25.3091 98.1559H28.0856L21.8874 104.392C21.7298 104.548 21.6055 104.735 21.5218 104.941C21.4381 105.146 21.3969 105.367 21.4006 105.589C21.4042 105.812 21.4526 106.032 21.543 106.236C21.6333 106.44 21.7637 106.624 21.9265 106.777L29.8628 114.301L26.962 117.527C26.6733 117.849 26.5191 118.269 26.531 118.701C26.5429 119.133 26.7202 119.544 27.0262 119.849L31.4814 124.298C33.2907 126.114 34.3084 128.572 34.3125 131.136V139.218ZM39.0938 139.218H37.6875V131.136C37.6805 127.675 36.3056 124.358 33.8625 121.907L30.5381 118.588L33.4688 115.33C33.7627 115.003 33.9176 114.575 33.9004 114.135C33.8833 113.696 33.6954 113.281 33.3768 112.978L25.4987 105.505L30.7325 100.21C31.3431 103.381 32.8752 106.301 35.1371 108.605L39.0938 112.668V139.218ZM37.6543 106.312C39.7479 106.919 41.9709 106.919 44.0646 106.312L40.8583 109.572L37.6543 106.312ZM43.5938 139.218H42.4688V112.668L46.5033 108.605C48.7859 106.301 50.3393 103.376 50.9695 100.194L56.2303 105.506L48.3553 112.979C48.0371 113.282 47.8497 113.697 47.8331 114.136C47.8164 114.576 47.9718 115.004 48.2662 115.33L51.1945 118.59L47.4134 122.372C46.1977 123.579 45.234 125.017 44.5783 126.6C43.9226 128.183 43.5879 129.881 43.5938 131.595V139.218ZM77.0625 139.218H46.9688V131.595C46.9641 130.325 47.2118 129.067 47.6975 127.894C48.1831 126.72 48.8969 125.655 49.7976 124.76L54.7169 119.848C55.0226 119.542 55.1993 119.131 55.2108 118.699C55.2223 118.267 55.0675 117.847 54.7785 117.526L51.8766 114.296L59.8126 106.768C59.9755 106.614 60.1059 106.428 60.1962 106.223C60.2865 106.017 60.3349 105.796 60.3385 105.571C60.342 105.352 60.3005 105.134 60.2167 104.931C60.133 104.729 60.0086 104.545 59.8514 104.392L53.6532 98.1559H56.4095C67.7281 98.1559 77.0625 107.313 77.0625 118.653V139.218Z" fill="#3E61EE"/>
<path d="M34.7211 66.353C34.2735 66.353 33.8443 66.5308 33.5278 66.8473C33.2113 67.1638 33.0336 67.593 33.0336 68.0405C33.0358 68.1741 33.0114 68.3068 32.9618 68.4309C32.9123 68.5549 32.8385 68.6679 32.7448 68.7631C32.6511 68.8584 32.5394 68.9341 32.4162 68.9857C32.293 69.0374 32.1607 69.0639 32.0271 69.0639C31.8935 69.0639 31.7612 69.0374 31.638 68.9857C31.5148 68.9341 31.4031 68.8584 31.3094 68.7631C31.2157 68.6679 31.142 68.5549 31.0924 68.4309C31.0428 68.3068 31.0184 68.1741 31.0206 68.0405C31.0206 67.593 30.8429 67.1638 30.5264 66.8473C30.2099 66.5308 29.7807 66.353 29.3331 66.353C28.8856 66.353 28.4564 66.5308 28.1399 66.8473C27.8234 67.1638 27.6456 67.593 27.6456 68.0405C27.641 68.6189 27.7509 69.1924 27.969 69.728C28.1871 70.2637 28.5091 70.7509 28.9165 71.1615C29.3238 71.572 29.8083 71.8979 30.3422 72.1203C30.8761 72.3427 31.4488 72.4572 32.0271 72.4572C32.6055 72.4572 33.1781 72.3427 33.712 72.1203C34.2459 71.8979 34.7304 71.572 35.1377 71.1615C35.5451 70.7509 35.8671 70.2637 36.0852 69.728C36.3033 69.1924 36.4132 68.6189 36.4086 68.0405C36.4086 67.593 36.2308 67.1638 35.9143 66.8473C35.5978 66.5308 35.1686 66.353 34.7211 66.353V66.353Z" fill="#3E61EE"/>
<path d="M54.3324 68.0405C54.3324 67.593 54.1546 67.1638 53.8381 66.8473C53.5217 66.5308 53.0924 66.353 52.6449 66.353C52.1973 66.353 51.7681 66.5308 51.4516 66.8473C51.1352 67.1638 50.9574 67.593 50.9574 68.0405C50.9596 68.1741 50.9352 68.3068 50.8857 68.4309C50.8361 68.5549 50.7623 68.6679 50.6686 68.7631C50.5749 68.8584 50.4632 68.9341 50.34 68.9857C50.2168 69.0374 50.0845 69.0639 49.9509 69.0639C49.8173 69.0639 49.6851 69.0374 49.5618 68.9857C49.4386 68.9341 49.3269 68.8584 49.2332 68.7631C49.1396 68.6679 49.0658 68.5549 49.0162 68.4309C48.9666 68.3068 48.9422 68.1741 48.9445 68.0405C48.9445 67.593 48.7667 67.1638 48.4502 66.8473C48.1338 66.5308 47.7045 66.353 47.257 66.353C46.8094 66.353 46.3802 66.5308 46.0637 66.8473C45.7473 67.1638 45.5695 67.593 45.5695 68.0405C45.5648 68.6189 45.6747 69.1924 45.8929 69.728C46.111 70.2637 46.433 70.7509 46.8403 71.1615C47.2476 71.572 47.7322 71.8979 48.2661 72.1203C48.7999 72.3427 49.3726 72.4572 49.9509 72.4572C50.5293 72.4572 51.1019 72.3427 51.6358 72.1203C52.1697 71.8979 52.6543 71.572 53.0616 71.1615C53.4689 70.7509 53.7909 70.2637 54.009 69.728C54.2271 69.1924 54.337 68.6189 54.3324 68.0405V68.0405Z" fill="#3E61EE"/>
<path d="M34.3307 47.0087C34.5143 47.1329 34.7205 47.2198 34.9376 47.2643C35.1547 47.3088 35.3784 47.3101 35.596 47.2681C35.8136 47.2261 36.0209 47.1417 36.2058 47.0196C36.3908 46.8976 36.5499 46.7403 36.6741 46.5568C37.4718 45.3802 38.156 44.1305 38.7174 42.8246C38.8088 42.6202 38.8586 42.3997 38.8639 42.176C38.8692 41.9522 38.83 41.7296 38.7485 41.5211C38.667 41.3127 38.5448 41.1225 38.3891 40.9617C38.2333 40.8009 38.0472 40.6727 37.8414 40.5846C37.6357 40.4965 37.4144 40.4501 37.1906 40.4483C36.9668 40.4465 36.7448 40.4892 36.5377 40.574C36.3305 40.6588 36.1423 40.7839 35.984 40.9422C35.8257 41.1004 35.7004 41.2885 35.6155 41.4957C35.1381 42.6048 34.5566 43.6661 33.8788 44.6653C33.7546 44.8489 33.6677 45.0551 33.6232 45.2722C33.5787 45.4893 33.5774 45.713 33.6194 45.9306C33.6614 46.1482 33.7458 46.3555 33.8678 46.5404C33.9899 46.7254 34.1472 46.8845 34.3307 47.0087V47.0087Z" fill="#3E61EE"/>
<path d="M24.1709 56.3345C24.3739 56.3345 29.1827 56.2732 32.8111 50.9441C32.9359 50.7609 33.0233 50.5549 33.0684 50.3379C33.1135 50.1209 33.1155 49.8972 33.0741 49.6795C33.0328 49.4617 32.949 49.2543 32.8275 49.0689C32.7059 48.8836 32.5491 48.724 32.3659 48.5993C32.1827 48.4745 31.9768 48.3871 31.7598 48.342C31.5428 48.2969 31.319 48.2949 31.1013 48.3363C30.8836 48.3776 30.6761 48.4614 30.4908 48.583C30.3054 48.7045 30.1459 48.8613 30.0211 49.0445C27.4561 52.8132 24.3219 52.9539 24.1534 52.9595C23.7059 52.9618 23.2776 53.1418 22.9627 53.4599C22.6479 53.778 22.4723 54.2082 22.4746 54.6557C22.4769 55.1033 22.657 55.5316 22.9751 55.8464C23.2932 56.1612 23.7233 56.3368 24.1709 56.3345V56.3345Z" fill="#3E61EE"/>
<path fill-rule="evenodd" clip-rule="evenodd" d="M82.5714 31.0714C84.5044 31.0714 86.0714 32.6384 86.0714 34.5714V37.5503L91.5251 32.0966C91.6724 31.9493 91.8314 31.8165 92 31.6991V36.5714L85.9856 42.5858C84.7257 43.8457 82.5714 42.9534 82.5714 41.1716V34.5714H75C74.4477 34.5714 74 34.1237 74 33.5714V7C74 6.44772 74.4477 6 75 6H113C113.552 6 114 6.44772 114 7V18L110.5 18V9.5H77.5V31.0714H82.5714ZM100 24H99C98.4477 24 98 24.4477 98 25V28V31.0714V34.5714V46V51.5714C98 52.1237 98.4477 52.5714 99 52.5714H118L126.014 60.5858C127.274 61.8457 129.429 60.9534 129.429 59.1716V52.5714H137C137.552 52.5714 138 52.1237 138 51.5714V25C138 24.4477 137.552 24 137 24H124H114H110.5H100ZM134.5 27.5H125.5H114H110.5H101.5V31.0714V34.5714V45.5V49.0714H118C118.928 49.0714 119.818 49.4402 120.475 50.0966L125.929 55.5503V52.5714C125.929 50.6384 127.496 49.0714 129.429 49.0714H134.5V27.5Z" fill="#968B82"/>
<path d="M95.2763 21.8878V23.0578C95.2763 23.1898 95.2343 23.2978 95.1503 23.3818C95.0663 23.4598 94.9703 23.4988 94.8623 23.4988H93.1523C93.0203 23.4988 92.9183 23.4538 92.8463 23.3638C92.7743 23.2678 92.7383 23.1658 92.7383 23.0578V21.5368C92.7383 21.2428 92.7833 20.9818 92.8733 20.7538C92.9693 20.5258 93.0923 20.3218 93.2423 20.1418C93.3923 19.9558 93.5633 19.7878 93.7553 19.6378C93.9473 19.4878 94.1423 19.3438 94.3403 19.2058C94.5383 19.0618 94.7333 18.9178 94.9253 18.7738C95.1173 18.6298 95.2883 18.4708 95.4383 18.2968C95.5883 18.1228 95.7083 17.9308 95.7983 17.7208C95.8943 17.5108 95.9423 17.2708 95.9423 17.0008C95.9423 16.7488 95.8883 16.5058 95.7803 16.2718C95.6723 16.0378 95.5253 15.8308 95.3393 15.6508C95.1593 15.4708 94.9463 15.3268 94.7003 15.2188C94.4543 15.1108 94.1963 15.0568 93.9263 15.0568C93.6563 15.0568 93.4043 15.1138 93.1703 15.2278C92.9363 15.3358 92.7323 15.4828 92.5583 15.6688C92.3843 15.8548 92.2463 16.0708 92.1443 16.3168C92.0423 16.5568 91.9913 16.8058 91.9913 17.0638V17.3338C91.9913 17.4538 91.9523 17.5498 91.8743 17.6218C91.7963 17.6938 91.6973 17.7298 91.5773 17.7298H89.8403C89.6903 17.7298 89.5853 17.6908 89.5253 17.6128C89.4713 17.5288 89.4443 17.4448 89.4443 17.3608V17.0638C89.4443 16.4338 89.5643 15.8578 89.8043 15.3358C90.0503 14.8078 90.3773 14.3548 90.7853 13.9768C91.1933 13.5988 91.6673 13.3048 92.2073 13.0948C92.7533 12.8848 93.3263 12.7798 93.9263 12.7798C94.5443 12.7798 95.1293 12.8878 95.6813 13.1038C96.2393 13.3138 96.7253 13.6078 97.1393 13.9858C97.5593 14.3638 97.8893 14.8168 98.1293 15.3448C98.3753 15.8728 98.4983 16.4518 98.4983 17.0818C98.4983 17.6578 98.4173 18.1408 98.2553 18.5308C98.0993 18.9148 97.9013 19.2418 97.6613 19.5118C97.4213 19.7758 97.1633 20.0008 96.8873 20.1868C96.6113 20.3668 96.3533 20.5408 96.1133 20.7088C95.8733 20.8708 95.6723 21.0418 95.5103 21.2218C95.3543 21.4018 95.2763 21.6238 95.2763 21.8878ZM92.5583 25.8028C92.5583 26.0008 92.5973 26.1868 92.6753 26.3608C92.7533 26.5348 92.8553 26.6878 92.9813 26.8198C93.1133 26.9518 93.2663 27.0538 93.4403 27.1258C93.6203 27.2038 93.8093 27.2428 94.0073 27.2428C94.2173 27.2428 94.4123 27.2038 94.5923 27.1258C94.7723 27.0538 94.9253 26.9518 95.0513 26.8198C95.1833 26.6878 95.2853 26.5348 95.3573 26.3608C95.4293 26.1868 95.4653 26.0008 95.4653 25.8028C95.4653 25.5988 95.4293 25.4098 95.3573 25.2358C95.2853 25.0558 95.1833 24.8998 95.0513 24.7678C94.9253 24.6358 94.7723 24.5338 94.5923 24.4618C94.4123 24.3838 94.2173 24.3448 94.0073 24.3448C93.8093 24.3448 93.6203 24.3838 93.4403 24.4618C93.2663 24.5338 93.1133 24.6358 92.9813 24.7678C92.8553 24.8998 92.7533 25.0558 92.6753 25.2358C92.5973 25.4098 92.5583 25.5988 92.5583 25.8028Z" fill="#968B82"/>
<path fill-rule="evenodd" clip-rule="evenodd" d="M104.25 33C104.25 32.0335 105.034 31.25 106 31.25H125C125.966 31.25 126.75 32.0335 126.75 33C126.75 33.9665 125.966 34.75 125 34.75H106C105.034 34.75 104.25 33.9665 104.25 33Z" fill="#968B82"/>
<path fill-rule="evenodd" clip-rule="evenodd" d="M104.25 39C104.25 38.0335 105.034 37.25 106 37.25H121C121.966 37.25 122.75 38.0335 122.75 39C122.75 39.9665 121.966 40.75 121 40.75H106C105.034 40.75 104.25 39.9665 104.25 39Z" fill="#968B82"/>
</svg>
