<svg width="144" height="144" viewBox="0 0 144 144" fill="none" xmlns="http://www.w3.org/2000/svg">
<g clip-path="url(#clip0_6863_37465)">
<path fill-rule="evenodd" clip-rule="evenodd" d="M38.3682 67.5928L77.4852 106.71L16.3236 131.027C15.6743 131.285 14.9337 131.132 14.4396 130.638C13.9456 130.144 13.7927 129.404 14.0509 128.754L38.3682 67.5928ZM39.655 73.8294L18.8033 126.275L71.2486 105.423L39.655 73.8294Z" fill="#3E61EE"/>
<path fill-rule="evenodd" clip-rule="evenodd" d="M36.3597 58.1594C39.7768 54.7423 45.317 54.7423 48.7341 58.1594L86.2107 95.636C89.6278 99.0531 89.6278 104.593 86.2107 108.01C82.7936 111.427 77.2534 111.427 73.8363 108.01L36.3597 70.5337C32.9426 67.1166 32.9426 61.5764 36.3597 58.1594ZM83.7358 105.536C85.7861 103.485 85.7861 100.161 83.7358 98.1109L46.2592 60.6342C44.2089 58.584 40.8848 58.584 38.8346 60.6342C36.7843 62.6845 36.7843 66.0086 38.8346 68.0588L76.3112 105.536C78.3615 107.586 81.6856 107.586 83.7358 105.536Z" fill="#3E61EE"/>
<path fill-rule="evenodd" clip-rule="evenodd" d="M67.2953 109.805L30.1966 92.5061L31.6758 89.334L68.7744 106.633L67.2953 109.805Z" fill="#3E61EE"/>
<path fill-rule="evenodd" clip-rule="evenodd" d="M43.9607 118.997L23.6634 109.532L25.1426 106.36L45.4398 115.825L43.9607 118.997Z" fill="#3E61EE"/>
<path d="M15.6772 129.401L39.0117 70.7109L46.7899 78.4891L27.698 124.451L15.6772 129.401Z" fill="#3E61EE" fill-opacity="0.2"/>
<path d="M96.534 66.3004L100.187 64.3532L103.863 66.2586C104.142 66.4035 104.457 66.4674 104.771 66.4429C105.085 66.4184 105.385 66.3066 105.639 66.1201C105.893 65.9336 106.089 65.6798 106.206 65.3874C106.323 65.0951 106.356 64.7758 106.301 64.4658L105.58 60.3893L108.528 57.4822C108.752 57.2611 108.91 56.9817 108.984 56.6756C109.057 56.3695 109.044 56.049 108.945 55.7501C108.846 55.4512 108.665 55.1861 108.423 54.9845C108.182 54.7829 107.888 54.6531 107.576 54.6096L103.476 54.0373L101.622 50.3354C101.481 50.0538 101.264 49.8173 100.996 49.6526C100.728 49.4879 100.419 49.4015 100.104 49.4033C99.7889 49.4051 99.4808 49.495 99.2143 49.6627C98.9479 49.8305 98.7336 50.0695 98.5959 50.3526L96.7847 54.076L92.6922 54.6942C92.3808 54.7413 92.0888 54.8745 91.8493 55.0789C91.6097 55.2832 91.4321 55.5505 91.3365 55.8505C91.2409 56.1505 91.2312 56.4713 91.3084 56.7766C91.3856 57.0818 91.5467 57.3594 91.7734 57.5779L94.7547 60.4508L94.0772 64.5357C94.0259 64.8462 94.0626 65.1649 94.1829 65.4557C94.3033 65.7465 94.5026 65.9978 94.7583 66.1813C95.0139 66.3648 95.3159 66.4732 95.6299 66.4941C95.9439 66.515 96.2575 66.4477 96.5353 66.2998L96.534 66.3004ZM97.7326 58.6363L96.5746 57.5205L98.1648 57.28C98.4355 57.2393 98.6921 57.1333 98.9127 56.9712C99.1333 56.8092 99.3111 56.5959 99.4308 56.3498L100.134 54.9035L100.854 56.3414C100.977 56.5861 101.157 56.7974 101.379 56.9569C101.602 57.1165 101.859 57.2196 102.13 57.2573L103.723 57.4795L102.577 58.6104C102.383 58.8025 102.237 59.039 102.154 59.2997C102.071 59.5603 102.053 59.8372 102.101 60.1065L102.381 61.6905L100.953 60.9502C100.723 60.8308 100.468 60.7661 100.208 60.7612C99.949 60.7563 99.6919 60.8113 99.4571 60.9219C99.4317 60.9339 99.4062 60.9459 99.3816 60.9597L97.9625 61.7162L98.2252 60.1295C98.2706 59.8594 98.2497 59.5823 98.1641 59.3222C98.0786 59.062 97.931 58.8266 97.7341 58.6362L97.7326 58.6363Z" fill="#3E61EE"/>
<path d="M30.2428 45.5537L33.7544 43.6818L37.2881 45.5135C37.5568 45.6529 37.8591 45.7143 38.1609 45.6907C38.4627 45.6672 38.7519 45.5597 38.9958 45.3804C39.2397 45.2011 39.4286 44.9571 39.541 44.676C39.6535 44.395 39.6851 44.0881 39.6322 43.79L38.939 39.8711L41.7733 37.0764C41.9888 36.8639 42.1405 36.5953 42.2113 36.301C42.2821 36.0068 42.2692 35.6986 42.174 35.4113C42.0788 35.124 41.9051 34.869 41.6726 34.6753C41.4401 34.4815 41.158 34.3567 40.8583 34.3148L36.9163 33.7647L35.1344 30.2059C34.9989 29.9352 34.7903 29.7078 34.5324 29.5495C34.2744 29.3911 33.9772 29.3081 33.6745 29.3098C33.3718 29.3116 33.0756 29.398 32.8195 29.5592C32.5633 29.7205 32.3574 29.9502 32.2249 30.2224L30.4838 33.8019L26.5494 34.3962C26.2501 34.4415 25.9694 34.5696 25.7391 34.766C25.5088 34.9624 25.3381 35.2194 25.2462 35.5078C25.1543 35.7962 25.1449 36.1046 25.2191 36.3981C25.2934 36.6915 25.4482 36.9584 25.6662 37.1684L28.5323 39.9303L27.8809 43.8572C27.8316 44.1557 27.8669 44.4621 27.9826 44.7416C28.0983 45.0212 28.2898 45.2628 28.5357 45.4392C28.7815 45.6157 29.0717 45.7198 29.3736 45.7399C29.6755 45.7601 29.977 45.6954 30.244 45.5532L30.2428 45.5537ZM31.395 38.1859L30.2818 37.1132L31.8105 36.8821C32.0707 36.8429 32.3175 36.741 32.5295 36.5852C32.7415 36.4294 32.9125 36.2243 33.0276 35.9878L33.704 34.5974L34.3961 35.9798C34.5139 36.215 34.6871 36.418 34.9008 36.5714C35.1145 36.7248 35.3623 36.8239 35.6229 36.8602L37.1541 37.0738L36.0524 38.161C35.8652 38.3457 35.7257 38.5731 35.6459 38.8236C35.5661 39.0742 35.5485 39.3404 35.5944 39.5993L35.8637 41.122L34.4911 40.4104C34.2696 40.2956 34.0246 40.2334 33.7752 40.2286C33.5257 40.2239 33.2785 40.2768 33.0529 40.3831C33.0284 40.3947 33.0039 40.4062 32.9803 40.4194L31.616 41.1467L31.8686 39.6214C31.9123 39.3617 31.8921 39.0954 31.8099 38.8453C31.7276 38.5952 31.5857 38.3688 31.3965 38.1858L31.395 38.1859Z" fill="#3E61EE"/>
<path d="M120.244 93.1175C118.86 92.6502 117.603 91.8686 116.571 90.8341C115.54 89.7997 114.762 88.5404 114.299 87.155C114.188 86.8188 113.973 86.5262 113.685 86.3189C113.398 86.1116 113.052 86 112.698 86C112.344 86 111.998 86.1116 111.711 86.3189C111.423 86.5262 111.209 86.8188 111.097 87.155C110.634 88.5404 109.856 89.7996 108.825 90.8341C107.793 91.8686 106.536 92.6501 105.153 93.1175C104.817 93.2298 104.525 93.4447 104.318 93.7319C104.111 94.0191 104 94.3641 104 94.718C104 95.0719 104.111 95.4169 104.318 95.7041C104.525 95.9913 104.817 96.2063 105.153 96.3185C106.536 96.7858 107.793 97.5674 108.825 98.6019C109.856 99.6365 110.634 100.896 111.097 102.281C111.209 102.618 111.423 102.91 111.711 103.117C111.998 103.325 112.344 103.436 112.698 103.436C113.052 103.436 113.398 103.325 113.685 103.117C113.973 102.91 114.188 102.618 114.299 102.281C114.762 100.896 115.54 99.6366 116.571 98.6021C117.603 97.5676 118.86 96.7861 120.244 96.3187C120.579 96.2065 120.871 95.9916 121.078 95.7044C121.285 95.4172 121.396 95.0722 121.396 94.7183C121.396 94.3643 121.285 94.0194 121.078 93.7322C120.871 93.4449 120.579 93.23 120.244 93.1178V93.1175ZM112.698 98.0062C111.812 96.7207 110.7 95.6065 109.416 94.7179C110.7 93.8293 111.812 92.7152 112.698 91.4298C113.584 92.715 114.696 93.829 115.98 94.7179C114.696 95.6068 113.584 96.7209 112.698 98.0062V98.0062Z" fill="#968B82"/>
<path d="M134.244 25.1175C132.86 24.6502 131.603 23.8686 130.571 22.8341C129.54 21.7997 128.762 20.5404 128.299 19.155C128.188 18.8188 127.973 18.5262 127.685 18.3189C127.398 18.1116 127.052 18 126.698 18C126.344 18 125.998 18.1116 125.711 18.3189C125.423 18.5262 125.209 18.8188 125.097 19.155C124.634 20.5404 123.856 21.7996 122.825 22.8341C121.793 23.8686 120.536 24.6501 119.153 25.1175C118.817 25.2298 118.525 25.4447 118.318 25.7319C118.111 26.0191 118 26.3641 118 26.718C118 27.0719 118.111 27.4169 118.318 27.7041C118.525 27.9913 118.817 28.2063 119.153 28.3185C120.536 28.7858 121.793 29.5674 122.825 30.6019C123.856 31.6365 124.634 32.8958 125.097 34.2812C125.209 34.6175 125.423 34.9101 125.711 35.1174C125.998 35.3247 126.344 35.4363 126.698 35.4363C127.052 35.4363 127.398 35.3247 127.685 35.1174C127.973 34.9101 128.188 34.6175 128.299 34.2812C128.762 32.8959 129.54 31.6366 130.571 30.6021C131.603 29.5676 132.86 28.7861 134.244 28.3187C134.579 28.2065 134.871 27.9916 135.078 27.7044C135.285 27.4172 135.396 27.0722 135.396 26.7183C135.396 26.3643 135.285 26.0194 135.078 25.7322C134.871 25.4449 134.579 25.23 134.244 25.1178V25.1175ZM126.698 30.0062C125.812 28.7207 124.7 27.6065 123.416 26.7179C124.7 25.8293 125.812 24.7152 126.698 23.4298C127.584 24.715 128.696 25.829 129.98 26.7179C128.696 27.6068 127.584 28.7209 126.698 30.0062V30.0062Z" fill="#968B82"/>
<path d="M91.099 17.0549C89.0334 16.3572 87.1574 15.1906 85.6181 13.6465C84.0788 12.1025 82.918 10.2228 82.2267 8.15505C82.1149 7.81876 81.9 7.52622 81.6126 7.3189C81.3252 7.11157 80.9798 7 80.6254 7C80.271 7 79.9256 7.11157 79.6382 7.3189C79.3508 7.52622 79.1359 7.81876 79.0241 8.15505C78.333 10.2228 77.1722 12.1024 75.633 13.6465C74.0937 15.1905 72.2177 16.3571 70.1521 17.0546C69.8165 17.1669 69.5247 17.3818 69.318 17.669C69.1112 17.9562 69 18.3011 69 18.655C69 19.0088 69.1112 19.3537 69.318 19.6409C69.5247 19.9281 69.8165 20.143 70.1521 20.2553C72.2177 20.9528 74.0937 22.1193 75.6329 23.6634C77.1721 25.2075 78.3328 27.0871 79.0238 29.1549C79.1356 29.4912 79.3504 29.7839 79.6379 29.9913C79.9254 30.1987 80.2708 30.3103 80.6253 30.3103C80.9797 30.3103 81.3252 30.1987 81.6127 29.9913C81.9001 29.7839 82.115 29.4912 82.2267 29.1549C82.9181 27.0872 84.0789 25.2078 85.6182 23.6638C87.1575 22.1199 89.0335 20.9534 91.099 20.2558C91.4346 20.1436 91.7264 19.9286 91.9331 19.6415C92.1399 19.3543 92.2511 19.0094 92.2511 18.6555C92.2511 18.3017 92.1399 17.9568 91.9331 17.6696C91.7264 17.3824 91.4346 17.1675 91.099 17.0552V17.0549ZM80.6253 24.6152C79.1549 22.1759 77.114 20.1303 74.678 18.6544C77.1138 17.1785 79.1548 15.133 80.6253 12.6939C82.0959 15.1331 84.1371 17.1786 86.5732 18.6544C84.137 20.1303 82.0958 22.1758 80.6253 24.6152V24.6152Z" fill="#968B82"/>
<path d="M71.0127 54C70.4169 54 69.8344 54.1767 69.339 54.5077C68.8435 54.8388 68.4574 55.3093 68.2293 55.8598C68.0013 56.4103 67.9416 57.0161 68.0579 57.6005C68.1741 58.1849 68.4611 58.7217 68.8824 59.1431C69.3038 59.5644 69.8406 59.8514 70.425 59.9676C71.0094 60.0839 71.6152 60.0242 72.1657 59.7962C72.7162 59.5681 73.1867 59.182 73.5178 58.6865C73.8488 58.1911 74.0255 57.6086 74.0255 57.0128C74.0246 56.214 73.7069 55.4482 73.1421 54.8834C72.5773 54.3186 71.8115 54.0009 71.0127 54V54Z" fill="#3E61EE"/>
<path d="M121.013 54C120.417 54 119.834 54.1767 119.339 54.5077C118.844 54.8388 118.457 55.3093 118.229 55.8598C118.001 56.4103 117.942 57.0161 118.058 57.6005C118.174 58.1849 118.461 58.7217 118.882 59.1431C119.304 59.5644 119.841 59.8514 120.425 59.9676C121.009 60.0839 121.615 60.0242 122.166 59.7962C122.716 59.5681 123.187 59.182 123.518 58.6865C123.849 58.1911 124.025 57.6086 124.025 57.0128C124.025 56.214 123.707 55.4482 123.142 54.8834C122.577 54.3186 121.812 54.0009 121.013 54V54Z" fill="#3E61EE"/>
<path fill-rule="evenodd" clip-rule="evenodd" d="M46.6124 57.4528C47.2959 58.1362 47.2959 59.2442 46.6124 59.9276L38.1272 68.4129C37.4437 69.0963 36.3357 69.0963 35.6523 68.4129C34.9689 67.7295 34.9689 66.6215 35.6523 65.9381L44.1376 57.4528C44.821 56.7694 45.929 56.7694 46.6124 57.4528Z" fill="#3E61EE"/>
<path fill-rule="evenodd" clip-rule="evenodd" d="M52.2697 63.109C52.9531 63.7924 52.9531 64.9005 52.2697 65.5839L43.7844 74.0692C43.101 74.7526 41.9929 74.7526 41.3095 74.0692C40.6261 73.3858 40.6261 72.2777 41.3095 71.5943L49.7948 63.109C50.4782 62.4256 51.5862 62.4256 52.2697 63.109Z" fill="#3E61EE"/>
<path fill-rule="evenodd" clip-rule="evenodd" d="M57.9269 68.7662C58.6103 69.4497 58.6103 70.5577 57.9269 71.2411L49.4416 79.7264C48.7582 80.4098 47.6502 80.4098 46.9667 79.7264C46.2833 79.043 46.2833 77.9349 46.9667 77.2515L55.452 68.7662C56.1354 68.0828 57.2435 68.0828 57.9269 68.7662Z" fill="#3E61EE"/>
<path fill-rule="evenodd" clip-rule="evenodd" d="M63.5831 74.4225C64.2666 75.1059 64.2666 76.214 63.5831 76.8974L55.0979 85.3827C54.4144 86.0661 53.3064 86.0661 52.623 85.3827C51.9396 84.6992 51.9396 83.5912 52.623 82.9078L61.1083 74.4225C61.7917 73.7391 62.8997 73.7391 63.5831 74.4225Z" fill="#3E61EE"/>
<path fill-rule="evenodd" clip-rule="evenodd" d="M69.2404 80.0797C69.9238 80.7631 69.9238 81.8712 69.2404 82.5546L60.7551 91.0399C60.0717 91.7233 58.9636 91.7233 58.2802 91.0399C57.5968 90.3565 57.5968 89.2484 58.2802 88.565L66.7655 80.0797C67.4489 79.3963 68.5569 79.3963 69.2404 80.0797Z" fill="#3E61EE"/>
<path fill-rule="evenodd" clip-rule="evenodd" d="M74.8966 85.7369C75.58 86.4204 75.58 87.5284 74.8966 88.2118L66.4113 96.6971C65.7279 97.3805 64.6199 97.3805 63.9365 96.6971C63.253 96.0137 63.253 94.9056 63.9365 94.2222L72.4217 85.7369C73.1052 85.0535 74.2132 85.0535 74.8966 85.7369Z" fill="#3E61EE"/>
<path fill-rule="evenodd" clip-rule="evenodd" d="M80.5538 91.3932C81.2373 92.0766 81.2373 93.1847 80.5538 93.8681L72.0686 102.353C71.3851 103.037 70.2771 103.037 69.5937 102.353C68.9103 101.67 68.9103 100.562 69.5937 99.8785L78.079 91.3932C78.7624 90.7098 79.8704 90.7098 80.5538 91.3932Z" fill="#3E61EE"/>
<path fill-rule="evenodd" clip-rule="evenodd" d="M86.2111 97.0504C86.8945 97.7338 86.8945 98.8419 86.2111 99.5253L77.7258 108.011C77.0424 108.694 75.9343 108.694 75.2509 108.011C74.5675 107.327 74.5675 106.219 75.2509 105.536L83.7362 97.0504C84.4196 96.367 85.5277 96.367 86.2111 97.0504Z" fill="#3E61EE"/>
<path d="M49.0133 21C48.4174 20.9999 47.8349 21.1765 47.3393 21.5075C46.8438 21.8385 46.4576 22.309 46.2295 22.8595C46.0014 23.41 45.9416 24.0158 46.0578 24.6003C46.174 25.1847 46.461 25.7216 46.8823 26.143C47.3037 26.5644 47.8405 26.8513 48.425 26.9676C49.0094 27.0839 49.6152 27.0242 50.1657 26.7961C50.7163 26.5681 51.1868 26.1819 51.5179 25.6864C51.8489 25.1909 52.0256 24.6084 52.0255 24.0125C52.0246 23.2138 51.707 22.4482 51.1423 21.8834C50.5776 21.3187 49.8119 21.001 49.0133 21V21Z" fill="#3E61EE"/>
<path d="M107.013 15C106.417 14.9999 105.835 15.1765 105.339 15.5075C104.844 15.8385 104.458 16.309 104.229 16.8595C104.001 17.41 103.942 18.0158 104.058 18.6003C104.174 19.1847 104.461 19.7216 104.882 20.143C105.304 20.5644 105.841 20.8513 106.425 20.9676C107.009 21.0839 107.615 21.0242 108.166 20.7961C108.716 20.5681 109.187 20.1819 109.518 19.6864C109.849 19.1909 110.026 18.6084 110.025 18.0125C110.025 17.2138 109.707 16.4482 109.142 15.8834C108.578 15.3187 107.812 15.001 107.013 15V15Z" fill="#3E61EE"/>
<path d="M107.5 29C107.006 28.9999 106.523 29.1465 106.111 29.4211C105.7 29.6958 105.38 30.0862 105.19 30.543C105.001 30.9998 104.952 31.5025 105.048 31.9875C105.144 32.4725 105.383 32.918 105.732 33.2677C106.082 33.6174 106.527 33.8555 107.012 33.952C107.497 34.0484 108 33.9989 108.457 33.8097C108.914 33.6204 109.304 33.3 109.579 32.8888C109.853 32.4776 110 31.9942 110 31.4998C109.999 30.8371 109.736 30.2017 109.267 29.7331C108.799 29.2644 108.163 29.0008 107.5 29V29Z" fill="#3E61EE"/>
<path d="M118.5 70C118.006 69.9999 117.523 70.1465 117.111 70.4211C116.7 70.6958 116.38 71.0862 116.19 71.543C116.001 71.9998 115.952 72.5025 116.048 72.9875C116.144 73.4725 116.383 73.918 116.732 74.2677C117.082 74.6174 117.527 74.8555 118.012 74.952C118.497 75.0484 119 74.9989 119.457 74.8097C119.914 74.6204 120.304 74.3 120.579 73.8888C120.853 73.4776 121 72.9942 121 72.4998C120.999 71.8371 120.736 71.2017 120.267 70.7331C119.799 70.2644 119.163 70.0008 118.5 70V70Z" fill="#3E61EE"/>
<path d="M60.379 8.31175C60.0974 7.96386 59.6892 7.74205 59.2441 7.69514C58.799 7.64822 58.3535 7.78003 58.0056 8.06158L51.3113 13.4792C50.9634 13.7607 50.7416 14.169 50.6947 14.614C50.6478 15.0591 50.7796 15.5046 51.0611 15.8525C51.3427 16.2004 51.7509 16.4222 52.196 16.4691C52.6411 16.5161 53.0866 16.3842 53.4345 16.1027L60.1288 10.6851C60.4767 10.4035 60.6985 9.99532 60.7454 9.55024C60.7923 9.10515 60.6605 8.65965 60.379 8.31175Z" fill="#968B82"/>
<path fill-rule="evenodd" clip-rule="evenodd" d="M107.942 78.1784C108.3 79.076 107.863 80.0942 106.966 80.4527L102.876 82.0858C99.7395 83.3384 96.1551 82.5225 93.8695 80.0357C92.5673 78.6188 90.525 78.1539 88.7378 78.8676L84.6484 80.5007C83.7508 80.8592 82.7326 80.4221 82.3742 79.5245C82.0157 78.627 82.4528 77.6088 83.3504 77.2503L87.4398 75.6172C90.5765 74.3646 94.161 75.1805 96.4465 77.6673C97.7487 79.0842 99.791 79.5491 101.578 78.8354L105.668 77.2023C106.565 76.8438 107.583 77.2809 107.942 78.1784Z" fill="#3E61EE"/>
<path fill-rule="evenodd" clip-rule="evenodd" d="M99.4411 39.3961C99.9829 40.1965 99.7733 41.2845 98.9729 41.8263L95.3264 44.2948C92.5294 46.1882 88.8534 46.1563 86.0897 44.2147C84.515 43.1085 82.4206 43.0903 80.8269 44.1691L77.1804 46.6376C76.38 47.1794 75.292 46.9698 74.7502 46.1694C74.2084 45.3691 74.418 44.281 75.2184 43.7392L78.8649 41.2708C81.6619 39.3774 85.3379 39.4092 88.1016 41.3508C89.6763 42.4571 91.7708 42.4752 93.3644 41.3964L97.0109 38.9279C97.8113 38.3862 98.8993 38.5958 99.4411 39.3961Z" fill="#968B82"/>
<path fill-rule="evenodd" clip-rule="evenodd" d="M69.0163 33.2544C69.9291 33.572 70.4116 34.5694 70.0941 35.4823L68.6471 39.6412C67.5373 42.8313 64.5717 45.0037 61.1955 45.0999C59.2719 45.1547 57.5822 46.3925 56.9499 48.21L55.5029 52.369C55.1853 53.2818 54.1879 53.7644 53.2751 53.4468C52.3622 53.1292 51.8797 52.1318 52.1973 51.2189L53.6442 47.06C54.754 43.8699 57.7196 41.6975 61.0958 41.6013C63.0195 41.5465 64.7091 40.3087 65.3415 38.4912L66.7884 34.3322C67.106 33.4194 68.1034 32.9368 69.0163 33.2544Z" fill="#968B82"/>
</g>
<defs>
<clipPath id="clip0_6863_37465">
<rect width="144" height="144" fill="white"/>
</clipPath>
</defs>
</svg>
