<svg viewBox="0 0 144 144" fill="none" xmlns="http://www.w3.org/2000/svg">
<path d="M19 115.5V86H14V120H30V115.5H19Z" fill="#3E61EE" fill-opacity="0.2"/>
<path d="M46 107H31V114.5H46L85.5 124.5L126 103L130.5 99L130 94L85 116L46 107Z" fill="#3E61EE" fill-opacity="0.2"/>
<path fill-rule="evenodd" clip-rule="evenodd" d="M51.3256 89.0311C50.8453 88.8738 50.3349 88.8306 49.8351 88.9051L29.2579 91.9702L28.7422 88.5084L49.3194 85.4433C50.3576 85.2886 51.4176 85.3783 52.4151 85.705L67.381 90.6074C67.7076 90.7143 68.049 90.7688 68.3927 90.7688H80C84.0131 90.7688 87.2635 94.0248 87.2635 98.0377C87.2635 99.4173 86.8794 100.707 86.2121 101.807H90.3201C90.5898 101.807 90.8575 101.761 91.112 101.671L123.167 90.369L123.176 90.3659C126.762 89.1459 130.757 90.8532 132.217 94.3515C133.608 97.6854 132.192 101.464 129.009 103.167L129.003 103.17L87.7173 125.064C86.4481 125.737 84.9766 125.923 83.5802 125.585L45.7084 116.435C45.4584 116.375 45.2022 116.344 44.9451 116.344L30 116.344L30 112.844L44.9451 112.844C45.4791 112.844 46.0113 112.908 46.5304 113.033L84.4022 122.183C84.9676 122.32 85.5634 122.245 86.0775 121.972L127.358 100.08C127.359 100.08 127.36 100.079 127.361 100.079C129.003 99.199 129.661 97.3148 128.987 95.6993C128.265 93.9693 126.221 93.0318 124.312 93.6766C124.309 93.6775 124.306 93.6784 124.304 93.6794L92.2758 104.972C91.6475 105.193 90.9862 105.307 90.3201 105.307H67.5946V101.807H80C82.077 101.807 83.7635 100.121 83.7635 98.0377C83.7635 95.9546 82.077 94.2688 80 94.2688H68.3927C67.6789 94.2688 66.9697 94.1556 66.2915 93.9335L51.3256 89.0311Z" fill="#3E61EE"/>
<path fill-rule="evenodd" clip-rule="evenodd" d="M12.25 86C12.25 85.0335 13.0335 84.25 14 84.25H30C30.9665 84.25 31.75 85.0335 31.75 86V120C31.75 120.966 30.9665 121.75 30 121.75H14C13.0335 121.75 12.25 120.966 12.25 120V86ZM15.75 87.75V118.25H28.25V87.75H15.75Z" fill="#3E61EE"/>
<path fill-rule="evenodd" clip-rule="evenodd" d="M60.7626 43.7626C61.446 43.0791 62.554 43.0791 63.2374 43.7626L67.2374 47.7626C67.6371 48.1622 67.8191 48.7302 67.7262 49.2877L66.7262 55.2877C66.5673 56.241 65.6656 56.8851 64.7123 56.7262C63.759 56.5673 63.1149 55.6656 63.2738 54.7123L64.1258 49.6006L60.7626 46.2374C60.0791 45.554 60.0791 44.446 60.7626 43.7626Z" fill="#968B82"/>
<path fill-rule="evenodd" clip-rule="evenodd" d="M75.2178 17.4346C76.0822 17.0024 77.1334 17.3528 77.5656 18.2173L83.5656 30.2173C83.9979 31.0817 83.6475 32.1329 82.783 32.5651C81.9185 32.9974 80.8674 32.647 80.4351 31.7825L74.4351 19.7825C74.0029 18.9181 74.3533 17.8669 75.2178 17.4346Z" fill="#968B82"/>
<path d="M113.161 24.071C112.252 23.7642 111.427 23.2509 110.75 22.5716C110.073 21.8922 109.562 21.0652 109.258 20.1555C109.147 19.8191 108.932 19.5264 108.644 19.319C108.357 19.1116 108.011 19 107.657 19C107.302 19 106.957 19.1116 106.669 19.319C106.382 19.5264 106.167 19.8191 106.055 20.1555C105.751 21.0652 105.241 21.8921 104.564 22.5715C103.887 23.2508 103.061 23.7641 102.153 24.071C101.817 24.1832 101.525 24.3982 101.318 24.6854C101.111 24.9726 101 25.3176 101 25.6715C101 26.0254 101.111 26.3704 101.318 26.6576C101.525 26.9448 101.817 27.1597 102.153 27.2719C103.061 27.579 103.886 28.0924 104.564 28.7717C105.241 29.4511 105.751 30.2781 106.055 31.1878C106.167 31.5242 106.382 31.8168 106.669 32.0242C106.957 32.2316 107.302 32.3433 107.657 32.3433C108.011 32.3433 108.357 32.2316 108.644 32.0242C108.932 31.8168 109.147 31.5242 109.258 31.1878C109.562 30.2781 110.073 29.4511 110.75 28.7717C111.427 28.0923 112.252 27.579 113.161 27.2719C113.497 27.1597 113.789 26.9448 113.995 26.6576C114.202 26.3704 114.313 26.0254 114.313 25.6715C114.313 25.3176 114.202 24.9726 113.995 24.6854C113.789 24.3982 113.497 24.1832 113.161 24.071ZM107.657 27.1791C107.212 26.6226 106.707 26.117 106.152 25.6716C106.707 25.2262 107.212 24.7207 107.657 24.1641C108.101 24.7205 108.606 25.2261 109.161 25.6716C108.606 26.1171 108.101 26.6227 107.657 27.1791Z" fill="#3E61EE"/>
<path d="M24.1609 37.071C23.2522 36.7642 22.4269 36.2509 21.7498 35.5716C21.0727 34.8922 20.5622 34.0652 20.2583 33.1555C20.1465 32.8191 19.9317 32.5264 19.6442 32.319C19.3568 32.1116 19.0113 32 18.6569 32C18.3024 32 17.9569 32.1116 17.6695 32.319C17.382 32.5264 17.1672 32.8191 17.0554 33.1555C16.7514 34.0652 16.2408 34.8921 15.5637 35.5715C14.8865 36.2508 14.0612 36.7641 13.1525 37.071C12.8168 37.1832 12.5249 37.3982 12.3181 37.6854C12.1113 37.9726 12 38.3176 12 38.6715C12 39.0254 12.1113 39.3704 12.3181 39.6576C12.5249 39.9448 12.8168 40.1597 13.1525 40.2719C14.0612 40.579 14.8865 41.0924 15.5636 41.7717C16.2408 42.4511 16.7514 43.2781 17.0554 44.1878C17.1672 44.5242 17.382 44.8168 17.6695 45.0242C17.9569 45.2316 18.3024 45.3433 18.6569 45.3433C19.0113 45.3433 19.3568 45.2316 19.6442 45.0242C19.9317 44.8168 20.1465 44.5242 20.2583 44.1878C20.5623 43.2781 21.0728 42.4511 21.7499 41.7717C22.427 41.0923 23.2522 40.579 24.1609 40.2719C24.4966 40.1597 24.7885 39.9448 24.9953 39.6576C25.2022 39.3704 25.3134 39.0254 25.3134 38.6715C25.3134 38.3176 25.2022 37.9726 24.9953 37.6854C24.7885 37.3982 24.4966 37.1832 24.1609 37.071ZM18.6569 40.1791C18.2123 39.6226 17.7075 39.117 17.1516 38.6716C17.7075 38.2262 18.2123 37.7207 18.6569 37.1641C19.1013 37.7205 19.6058 38.2261 20.1613 38.6716C19.6057 39.1171 19.1012 39.6227 18.6569 40.1791Z" fill="#3E61EE"/>
<path d="M35.1609 99.071C34.2522 98.7642 33.4269 98.2509 32.7498 97.5716C32.0727 96.8922 31.5622 96.0652 31.2583 95.1555C31.1465 94.8191 30.9317 94.5264 30.6442 94.319C30.3568 94.1116 30.0113 94 29.6569 94C29.3024 94 28.9569 94.1116 28.6695 94.319C28.382 94.5264 28.1672 94.8191 28.0554 95.1555C27.7514 96.0652 27.2408 96.8921 26.5637 97.5715C25.8865 98.2508 25.0612 98.7641 24.1525 99.071C23.8168 99.1832 23.5249 99.3982 23.3181 99.6854C23.1113 99.9726 23 100.318 23 100.671C23 101.025 23.1113 101.37 23.3181 101.658C23.5249 101.945 23.8168 102.16 24.1525 102.272C25.0612 102.579 25.8865 103.092 26.5636 103.772C27.2408 104.451 27.7514 105.278 28.0554 106.188C28.1672 106.524 28.382 106.817 28.6695 107.024C28.9569 107.232 29.3024 107.343 29.6569 107.343C30.0113 107.343 30.3568 107.232 30.6442 107.024C30.9317 106.817 31.1465 106.524 31.2583 106.188C31.5623 105.278 32.0728 104.451 32.7499 103.772C33.427 103.092 34.2522 102.579 35.1609 102.272C35.4966 102.16 35.7885 101.945 35.9953 101.658C36.2022 101.37 36.3134 101.025 36.3134 100.671C36.3134 100.318 36.2022 99.9726 35.9953 99.6854C35.7885 99.3982 35.4966 99.1832 35.1609 99.071ZM29.6569 102.179C29.2123 101.623 28.7075 101.117 28.1516 100.672C28.7075 100.226 29.2123 99.7207 29.6569 99.1641C30.1013 99.7205 30.6058 100.226 31.1613 100.672C30.6057 101.117 30.1012 101.623 29.6569 102.179Z" fill="#3E61EE"/>
<path fill-rule="evenodd" clip-rule="evenodd" d="M72.0078 23.25C72.669 23.2502 73.2737 23.6231 73.5707 24.2139L79.9401 36.8831L94.2467 38.9202C94.9102 39.0147 95.4615 39.4797 95.6663 40.1178C95.8711 40.7559 95.6936 41.4549 95.2091 41.9179L84.8806 51.7877L87.3089 65.6991C87.4232 66.3537 87.1568 67.0166 86.6213 67.4101C86.0859 67.8037 85.3737 67.86 84.783 67.5554L72.0054 60.9671L59.2162 67.5557C58.6254 67.8601 57.9131 67.8035 57.3777 67.4096C56.8423 67.0157 56.5763 66.3525 56.6911 65.6978L59.13 51.7877L48.7917 41.9189C48.3068 41.456 48.1289 40.7569 48.3337 40.1186C48.5384 39.4803 49.0897 39.015 49.7534 38.9205L64.0635 36.8829L70.4442 24.2129C70.7416 23.6223 71.3465 23.2498 72.0078 23.25ZM72.0058 28.8933L66.7782 39.2737C66.5206 39.7852 66.029 40.1383 65.4619 40.2191L53.8169 41.8772L62.2237 49.9022C62.6467 50.306 62.84 50.8944 62.7391 51.4703L60.7473 62.8298L71.2042 57.4426C71.7073 57.1835 72.3047 57.1836 72.8077 57.4429L83.2552 62.8298L81.2721 51.469C81.1717 50.8938 81.3648 50.3063 81.787 49.9029L90.1856 41.8772L78.5409 40.2192C77.9735 40.1384 77.4815 39.7848 77.2241 39.2727L72.0058 28.8933Z" fill="#968B82"/>
<path fill-rule="evenodd" clip-rule="evenodd" d="M35.0045 47.25C35.6728 47.2502 36.2826 47.631 36.5761 48.2314L39.8692 54.9679L47.2536 56.0493C47.9111 56.1455 48.4573 56.6059 48.6636 57.2375C48.8699 57.8692 48.7006 58.5632 48.2267 59.0289L42.876 64.2875L44.1354 71.7072C44.2469 72.3645 43.9753 73.028 43.4349 73.4185C42.8945 73.8089 42.1792 73.8584 41.5902 73.5461L35.0028 70.0529L28.4092 73.5464C27.82 73.8586 27.1046 73.8088 26.5643 73.4179C26.024 73.0271 25.7527 72.3632 25.8648 71.7059L27.1295 64.2875L21.7741 59.0297C21.2998 58.5641 21.1302 57.87 21.3364 57.2381C21.5425 56.6063 22.0888 56.1457 22.7465 56.0494L30.1332 54.9677L33.4323 48.2304C33.7262 47.6302 34.3362 47.2498 35.0045 47.25ZM35.0026 52.982L32.8709 57.3352C32.6171 57.8536 32.1239 58.2135 31.5528 58.2971L26.7415 59.0017L30.2344 62.4309C30.6434 62.8324 30.8298 63.4088 30.7335 63.9738L29.9126 68.7889L34.1838 66.5259C34.6965 66.2542 35.3104 66.2544 35.823 66.5262L40.09 68.7889L39.2725 63.9725C39.1767 63.4082 39.363 62.8327 39.7712 62.4315L43.2609 59.0019L38.4488 58.2972C37.8772 58.2135 37.3838 57.8532 37.1301 57.3342L35.0026 52.982Z" fill="#968B82"/>
<path fill-rule="evenodd" clip-rule="evenodd" d="M109.005 47.25C109.673 47.2502 110.283 47.631 110.576 48.2314L113.869 54.9679L121.254 56.0493C121.911 56.1455 122.457 56.6059 122.664 57.2375C122.87 57.8692 122.701 58.5632 122.227 59.0289L116.876 64.2875L118.135 71.7072C118.247 72.3645 117.975 73.028 117.435 73.4185C116.894 73.8089 116.179 73.8584 115.59 73.5461L109.003 70.0529L102.409 73.5464C101.82 73.8586 101.105 73.8088 100.564 73.4179C100.024 73.0271 99.7527 72.3632 99.8648 71.7059L101.13 64.2875L95.7741 59.0297C95.2998 58.5641 95.1302 57.87 95.3364 57.2381C95.5425 56.6063 96.0888 56.1457 96.7465 56.0494L104.133 54.9677L107.432 48.2304C107.726 47.6302 108.336 47.2498 109.005 47.25ZM109.003 52.982L106.871 57.3352C106.617 57.8536 106.124 58.2135 105.553 58.2971L100.741 59.0017L104.234 62.4309C104.643 62.8324 104.83 63.4088 104.734 63.9738L103.913 68.7889L108.184 66.5259C108.696 66.2542 109.31 66.2544 109.823 66.5262L114.09 68.7889L113.273 63.9725C113.177 63.4082 113.363 62.8327 113.771 62.4315L117.261 59.0019L112.449 58.2972C111.877 58.2135 111.384 57.8532 111.13 57.3342L109.003 52.982Z" fill="#968B82"/>
<path fill-rule="evenodd" clip-rule="evenodd" d="M106.566 121.217C106.998 122.082 106.647 123.133 105.783 123.565L86.783 133.065C86.4178 133.248 86.0003 133.297 85.6027 133.204L70.6027 129.704C69.6615 129.484 69.0766 128.543 69.2962 127.602C69.5158 126.661 70.4568 126.076 71.398 126.296L85.7828 129.652L104.218 120.435C105.082 120.002 106.133 120.353 106.566 121.217Z" fill="#3E61EE"/>
<path d="M111.5 119.75C111.5 120.716 110.716 121.5 109.75 121.5C108.784 121.5 108 120.716 108 119.75C108 118.784 108.784 118 109.75 118C110.716 118 111.5 118.784 111.5 119.75Z" fill="#3E61EE"/>
</svg>
