<svg width="144" height="144" viewBox="0 0 144 144" fill="none" xmlns="http://www.w3.org/2000/svg">
<path d="M22 79V74H17L14 78L16 83.5L127 84L130 79H22Z" fill="#3E61EE" fill-opacity="0.2"/>
<path d="M85 102H60L56 108H89L85 102Z" fill="#3E61EE" fill-opacity="0.2"/>
<path fill-rule="evenodd" clip-rule="evenodd" d="M72 82.25C72.5676 82.25 73.1 82.5253 73.428 82.9885L90.4281 106.988C90.8062 107.522 90.855 108.223 90.5545 108.804C90.2539 109.385 89.6543 109.75 89 109.75H55C54.3457 109.75 53.7461 109.385 53.4455 108.804C53.145 108.223 53.1938 107.522 53.572 106.988L70.572 82.9885C70.9 82.5253 71.4324 82.25 72 82.25ZM58.3841 106.25H85.6159L72 87.0276L58.3841 106.25Z" fill="#3E61EE"/>
<path fill-rule="evenodd" clip-rule="evenodd" d="M12.25 79C12.25 75.2721 15.2721 72.25 19 72.25H125C128.728 72.25 131.75 75.2721 131.75 79C131.75 82.7279 128.728 85.75 125 85.75H19C15.2721 85.75 12.25 82.7279 12.25 79ZM19 75.75C17.2051 75.75 15.75 77.2051 15.75 79C15.75 80.7949 17.2051 82.25 19 82.25H125C126.795 82.25 128.25 80.7949 128.25 79C128.25 77.2051 126.795 75.75 125 75.75H19Z" fill="#3E61EE"/>
<path d="M39.1609 109.071C38.2522 108.764 37.4269 108.251 36.7498 107.572C36.0727 106.892 35.5622 106.065 35.2583 105.155C35.1465 104.819 34.9317 104.526 34.6442 104.319C34.3568 104.112 34.0113 104 33.6569 104C33.3024 104 32.9569 104.112 32.6695 104.319C32.382 104.526 32.1672 104.819 32.0554 105.155C31.7514 106.065 31.2408 106.892 30.5637 107.571C29.8865 108.251 29.0612 108.764 28.1525 109.071C27.8168 109.183 27.5249 109.398 27.3181 109.685C27.1113 109.973 27 110.318 27 110.671C27 111.025 27.1113 111.37 27.3181 111.658C27.5249 111.945 27.8168 112.16 28.1525 112.272C29.0612 112.579 29.8865 113.092 30.5636 113.772C31.2408 114.451 31.7514 115.278 32.0554 116.188C32.1672 116.524 32.382 116.817 32.6695 117.024C32.9569 117.232 33.3024 117.343 33.6569 117.343C34.0113 117.343 34.3568 117.232 34.6442 117.024C34.9317 116.817 35.1465 116.524 35.2583 116.188C35.5623 115.278 36.0728 114.451 36.7499 113.772C37.427 113.092 38.2522 112.579 39.1609 112.272C39.4966 112.16 39.7885 111.945 39.9953 111.658C40.2022 111.37 40.3134 111.025 40.3134 110.671C40.3134 110.318 40.2022 109.973 39.9953 109.685C39.7885 109.398 39.4966 109.183 39.1609 109.071V109.071ZM33.6569 112.179C33.2123 111.623 32.7075 111.117 32.1516 110.672C32.7075 110.226 33.2123 109.721 33.6569 109.164C34.1013 109.721 34.6058 110.226 35.1613 110.672C34.6057 111.117 34.1012 111.623 33.6569 112.179V112.179Z" fill="#3E61EE"/>
<path fill-rule="evenodd" clip-rule="evenodd" d="M40.75 115.5C40.75 114.534 41.5335 113.75 42.5 113.75H82.5C83.4665 113.75 84.25 114.534 84.25 115.5C84.25 116.466 83.4665 117.25 82.5 117.25H42.5C41.5335 117.25 40.75 116.466 40.75 115.5Z" fill="#3E61EE"/>
<path fill-rule="evenodd" clip-rule="evenodd" d="M19.25 121C19.25 120.034 20.0335 119.25 21 119.25H105C105.966 119.25 106.75 120.034 106.75 121C106.75 121.966 105.966 122.75 105 122.75H21C20.0335 122.75 19.25 121.966 19.25 121Z" fill="#3E61EE"/>
<path fill-rule="evenodd" clip-rule="evenodd" d="M73.5459 35.7443C73.5459 27.7356 80.0516 21.25 88.0686 21.25C91.7391 21.25 95.0929 22.6112 97.6481 24.8505C100.203 22.6112 103.557 21.25 107.228 21.25C115.245 21.25 121.75 27.7356 121.75 35.7443C121.75 37.7715 121.332 39.7083 120.573 41.4677C119.699 43.497 118.215 45.0346 117.07 46.1772L99.6368 63.5712C99.1087 64.0982 98.3932 64.3935 97.6481 64.3935C96.9029 64.3935 96.1875 64.0982 95.6594 63.5712L78.2266 46.1772C77.0815 45.0346 75.5975 43.497 74.7228 41.4677C73.9645 39.7083 73.5459 37.7715 73.5459 35.7443ZM88.0686 24.75C81.9772 24.75 77.0459 29.676 77.0459 35.7443C77.0459 37.2861 77.3637 38.7522 77.937 40.0824C78.5194 41.4337 79.5542 42.5577 80.6987 43.6996L97.6481 60.6113L114.597 43.6996C115.742 42.5577 116.777 41.4337 117.359 40.0824C117.932 38.7522 118.25 37.2861 118.25 35.7443C118.25 29.676 113.319 24.75 107.228 24.75C103.934 24.75 100.98 26.1896 98.9588 28.4741C98.6267 28.8496 98.1494 29.0646 97.6481 29.0646C97.1467 29.0646 96.6695 28.8496 96.3373 28.4741C94.3165 26.1896 91.3625 24.75 88.0686 24.75Z" fill="#968B82"/>
<path d="M113.22 31.908C112.529 31.6751 111.902 31.2857 111.387 30.7703C110.872 30.2549 110.484 29.6275 110.253 28.9373C110.168 28.6822 110.004 28.4603 109.786 28.303C109.567 28.1457 109.305 28.061 109.035 28.061C108.766 28.061 108.503 28.1457 108.285 28.303C108.066 28.4603 107.903 28.6822 107.818 28.9373C107.587 29.6275 107.199 30.2549 106.684 30.7703C106.169 31.2857 105.542 31.6751 104.851 31.908C104.596 31.9931 104.374 32.1562 104.216 32.3741C104.059 32.592 103.975 32.8537 103.975 33.1222C103.975 33.3907 104.059 33.6525 104.216 33.8704C104.374 34.0883 104.596 34.2513 104.851 34.3365C105.542 34.5693 106.169 34.9586 106.684 35.4739C107.199 35.9892 107.587 36.6164 107.818 37.3065C107.903 37.5616 108.066 37.7835 108.285 37.9408C108.503 38.0981 108.766 38.1828 109.035 38.1828C109.305 38.1828 109.567 38.0981 109.786 37.9408C110.004 37.7835 110.168 37.5616 110.253 37.3065C110.484 36.6162 110.872 35.9888 111.387 35.4734C111.902 34.958 112.529 34.5685 113.22 34.3356C113.475 34.2505 113.697 34.0874 113.855 33.8695C114.012 33.6516 114.096 33.3899 114.096 33.1214C114.096 32.8528 114.012 32.5911 113.855 32.3732C113.697 32.1553 113.475 31.9923 113.22 31.9071V31.908ZM109.035 34.266C108.698 33.8439 108.314 33.4603 107.892 33.1223C108.314 32.7844 108.698 32.4008 109.035 31.9786C109.373 32.4007 109.757 32.7843 110.18 33.1223C109.757 33.4604 109.373 33.844 109.035 34.2663V34.266Z" fill="#968B82"/>
<path d="M104.818 39.0259C104.484 39.0259 104.158 39.1248 103.881 39.3102C103.603 39.4956 103.387 39.759 103.259 40.0673C103.132 40.3755 103.098 40.7147 103.163 41.0419C103.228 41.3692 103.389 41.6698 103.625 41.9057C103.861 42.1416 104.161 42.3023 104.489 42.3674C104.816 42.4325 105.155 42.3991 105.463 42.2714C105.772 42.1437 106.035 41.9275 106.22 41.6501C106.406 41.3726 106.505 41.0465 106.505 40.7128C106.504 40.2656 106.326 39.8368 106.01 39.5205C105.694 39.2043 105.265 39.0264 104.818 39.0259V39.0259Z" fill="#968B82"/>
<path fill-rule="evenodd" clip-rule="evenodd" d="M42.7907 35.5543C39.3567 35.5543 36.5729 38.3381 36.5729 41.7721C36.5729 45.2061 39.3567 47.9899 42.7907 47.9899C46.2246 47.9899 49.0084 45.2061 49.0084 41.7721C49.0084 38.3381 46.2246 35.5543 42.7907 35.5543ZM34.6094 41.7721C34.6094 37.2537 38.2723 33.5908 42.7907 33.5908C47.309 33.5908 50.9719 37.2537 50.9719 41.7721C50.9719 46.2905 47.309 49.9534 42.7907 49.9534C38.2723 49.9534 34.6094 46.2905 34.6094 41.7721Z" fill="#968B82"/>
<path fill-rule="evenodd" clip-rule="evenodd" d="M34.1094 41.7721C34.1094 36.9776 37.9961 33.0908 42.7907 33.0908C47.5852 33.0908 51.4719 36.9776 51.4719 41.7721C51.4719 46.5666 47.5852 50.4534 42.7907 50.4534C37.9961 50.4534 34.1094 46.5666 34.1094 41.7721ZM42.7907 36.0543C39.6328 36.0543 37.0729 38.6143 37.0729 41.7721C37.0729 44.9299 39.6328 47.4899 42.7907 47.4899C45.9485 47.4899 48.5084 44.9299 48.5084 41.7721C48.5084 38.6143 45.9485 36.0543 42.7907 36.0543Z" fill="#968B82"/>
<path fill-rule="evenodd" clip-rule="evenodd" d="M39.0853 22.8192C38.4463 26.7017 35.0762 29.663 31.0129 29.663C30.0171 29.663 29.0608 29.4847 28.1757 29.1574C26.5772 31.0081 25.3248 33.1648 24.518 35.5269C26.2874 37.0262 27.4131 39.2676 27.4131 41.7713C27.4131 44.275 26.2874 46.5165 24.518 48.0158C25.3248 50.3778 26.5772 52.5345 28.1757 54.3852C29.0608 54.058 30.0171 53.8796 31.0129 53.8796C35.0762 53.8796 38.4463 56.841 39.0853 60.7235C40.2847 60.9568 41.5246 61.0791 42.7939 61.0791C44.0633 61.0791 45.3032 60.9568 46.5026 60.7235C47.1416 56.841 50.5116 53.8796 54.575 53.8796C55.5708 53.8796 56.5271 54.058 57.4122 54.3852C59.0107 52.5345 60.2631 50.3778 61.0699 48.0158C59.3005 46.5165 58.1747 44.275 58.1747 41.7713C58.1747 39.2676 59.3005 37.0262 61.0699 35.5269C60.2631 33.1648 59.0107 31.0081 57.4122 29.1574C56.5271 29.4847 55.5708 29.663 54.575 29.663C50.5116 29.663 47.1416 26.7017 46.5026 22.8192C45.3032 22.5859 44.0633 22.4635 42.7939 22.4635C41.5246 22.4635 40.2847 22.5859 39.0853 22.8192ZM38.4666 20.9407C39.8646 20.6517 41.3121 20.5 42.7939 20.5C44.2758 20.5 45.7233 20.6517 47.1213 20.9407C47.8592 21.0932 48.3276 21.7081 48.4173 22.3503C48.8391 25.3728 51.4362 27.6995 54.575 27.6995C55.3883 27.6995 56.1629 27.5439 56.8722 27.2616C57.474 27.0222 58.2378 27.1249 58.7354 27.6877C60.6258 29.8258 62.0932 32.3481 63.0055 35.1234C63.2366 35.8262 62.9517 36.5284 62.4544 36.9297C61.0401 38.0711 60.1383 39.8155 60.1383 41.7713C60.1383 43.7271 61.0401 45.4715 62.4544 46.6129C62.9517 47.0142 63.2366 47.7164 63.0055 48.4192C62.0932 51.1945 60.6258 53.7168 58.7354 55.8549C58.2378 56.4178 57.474 56.5204 56.8722 56.281C56.1629 55.9988 55.3883 55.8431 54.575 55.8431C51.4362 55.8431 48.8391 58.1699 48.4173 61.1923C48.3276 61.8345 47.8592 62.4494 47.1213 62.602C45.7233 62.891 44.2758 63.0426 42.7939 63.0426C41.3121 63.0426 39.8646 62.891 38.4666 62.602C37.7287 62.4494 37.2602 61.8345 37.1706 61.1923C36.7488 58.1699 34.1517 55.8431 31.0129 55.8431C30.1996 55.8431 29.425 55.9988 28.7156 56.281C28.1139 56.5204 27.3501 56.4178 26.8525 55.8549C24.9621 53.7168 23.4947 51.1945 22.5824 48.4192C22.3513 47.7164 22.6362 47.0142 23.1335 46.6129C24.5478 45.4715 25.4496 43.7271 25.4496 41.7713C25.4496 39.8155 24.5478 38.0711 23.1335 36.9297C22.6362 36.5284 22.3513 35.8262 22.5824 35.1234C23.4947 32.3481 24.9621 29.8258 26.8525 27.6877C27.3501 27.1249 28.1139 27.0222 28.7156 27.2616C29.425 27.5439 30.1996 27.6995 31.0129 27.6995C34.1517 27.6995 36.7488 25.3728 37.1706 22.3503C37.2602 21.7081 37.7287 21.0932 38.4666 20.9407Z" fill="#968B82"/>
<path fill-rule="evenodd" clip-rule="evenodd" d="M38.3649 20.451C39.796 20.1552 41.2774 20 42.7935 20C44.3095 20 45.7909 20.1552 47.2221 20.451C48.1949 20.6521 48.7973 21.4594 48.912 22.2812C49.2998 25.0599 51.6884 27.1995 54.5745 27.1995C55.3235 27.1995 56.0354 27.0563 56.6869 26.7971C57.4571 26.4906 58.4536 26.6146 59.1096 27.3565C61.044 29.5446 62.5461 32.1261 63.48 34.9673C63.7845 35.8936 63.4047 36.805 62.7679 37.3188C61.4663 38.3693 60.6378 39.973 60.6378 41.7713C60.6378 43.5696 61.4663 45.1733 62.7679 46.2238C63.4047 46.7377 63.7845 47.6491 63.48 48.5754C62.5461 51.4165 61.044 53.998 59.1096 56.1861C58.4536 56.9281 57.4571 57.052 56.6869 56.7456C56.0354 56.4864 55.3235 56.3431 54.5745 56.3431C51.6884 56.3431 49.2998 58.4827 48.912 61.2615C48.7973 62.0832 48.1949 62.8905 47.2221 63.0916C45.7909 63.3874 44.3095 63.5426 42.7935 63.5426C41.2774 63.5426 39.796 63.3874 38.3649 63.0916C37.392 62.8905 36.7896 62.0832 36.6749 61.2615C36.2871 58.4827 33.8985 56.3431 31.0124 56.3431C30.2635 56.3431 29.5515 56.4864 28.9 56.7456C28.1298 57.052 27.1333 56.9281 26.4774 56.1861C24.5429 53.998 23.0409 51.4165 22.1069 48.5754C21.8024 47.6491 22.1823 46.7377 22.819 46.2238C24.1207 45.1733 24.9492 43.5696 24.9492 41.7713C24.9492 39.973 24.1207 38.3693 22.819 37.3188C22.1823 36.805 21.8024 35.8936 22.1069 34.9673C23.0409 32.1261 24.5429 29.5446 26.4774 27.3565C27.1333 26.6146 28.1298 26.4906 28.9 26.7971C29.5515 27.0563 30.2635 27.1995 31.0124 27.1995C33.8985 27.1995 36.2871 25.0599 36.6749 22.2812C36.7896 21.4594 37.392 20.6521 38.3649 20.451ZM39.5136 23.2483C38.6968 27.196 35.2024 30.163 31.0124 30.163C30.0802 30.163 29.1799 30.0156 28.335 29.7419C26.9515 31.4029 25.8494 33.3049 25.1009 35.3749C26.8272 36.9599 27.9127 39.2393 27.9127 41.7713C27.9127 44.3033 26.8272 46.5827 25.1009 48.1677C25.8494 50.2377 26.9515 52.1398 28.335 53.8007C29.1799 53.5271 30.0802 53.3796 31.0124 53.3796C35.2024 53.3796 38.6968 56.3466 39.5136 60.2944C40.5777 60.4814 41.6736 60.5791 42.7935 60.5791C43.9133 60.5791 45.0092 60.4814 46.0734 60.2944C46.8901 56.3466 50.3845 53.3796 54.5745 53.3796C55.5067 53.3796 56.4071 53.5271 57.2519 53.8007C58.6355 52.1398 59.7375 50.2377 60.486 48.1677C58.7597 46.5827 57.6743 44.3033 57.6743 41.7713C57.6743 39.2393 58.7597 36.9599 60.4861 35.3749C59.7375 33.3049 58.6355 31.4029 57.2519 29.7419C56.4071 30.0156 55.5068 30.163 54.5745 30.163C50.3845 30.163 46.8901 27.196 46.0734 23.2483C45.0092 23.0612 43.9133 22.9635 42.7935 22.9635C41.6736 22.9635 40.5777 23.0612 39.5136 23.2483Z" fill="#968B82"/>
<path fill-rule="evenodd" clip-rule="evenodd" d="M113.392 16.3106C113.773 15.4222 114.801 15.0107 115.69 15.3915C119.277 16.9288 127.034 21.2439 128.716 29.6568C128.906 30.6045 128.291 31.5264 127.344 31.716C126.396 31.9055 125.474 31.2909 125.284 30.3432C123.967 23.756 117.724 20.0711 114.311 18.6085C113.423 18.2277 113.011 17.199 113.392 16.3106Z" fill="#968B82"/>
</svg>
