<svg width="144" height="144" viewBox="0 0 144 144" fill="none" xmlns="http://www.w3.org/2000/svg">
<path d="M89 100C79 99.6 71.8333 107.5 69.5 111.5L71.5 113.5L72.5 119C75.3 109 84.6667 102.167 89 100Z" fill="#3E61EE" fill-opacity="0.2"/>
<path d="M33.9584 101.209L34 101.166V101.15H28.3769C23.499 101.154 18.8226 103.105 15.3763 106.575C11.93 110.044 9.99606 114.747 10 119.65V138.15H16.9795V119.65C16.9768 114.991 18.7243 110.504 21.8724 107.084C25.0205 103.665 29.337 101.567 33.9584 101.209V101.209Z" fill="#3E61EE" fill-opacity="0.2"/>
<path d="M42.9571 97.2117C41.2673 96.4891 39.7407 95.4283 38.4698 94.0937C38.2337 93.8464 38.007 93.5905 37.7897 93.326C36.4016 91.6296 35.4388 89.6216 34.9828 87.4716L33.7551 82.8544C33.0745 80.2949 32.7298 77.6565 32.7298 75.0067V73.0827C35.1797 72.5756 37.5308 71.668 39.6897 70.3957C42.1685 68.9811 44.3197 67.0506 46 64.7327C44.26 63.1133 42.951 61.0799 42.1928 58.8187L41.9708 58.1499C40.4119 64.5248 36.3523 68.2574 32.6784 70.3957C30.5194 71.668 28.1683 72.5756 25.7184 73.0827H24.9354C24.1569 73.0827 23.4103 73.3944 22.8598 73.9491C22.3093 74.5038 22 75.2561 22 76.0406C22 76.825 22.3093 77.5774 22.8598 78.1321C23.4103 78.6868 24.1569 78.9984 24.9354 78.9984H25.7184L27.9714 87.4716C28.4274 89.6216 29.3902 91.6296 30.7783 93.326C30.9956 93.5898 31.2223 93.8457 31.4584 94.0937C32.7293 95.4283 34.2559 96.4891 35.9457 97.2117C36.3406 97.3789 36.745 97.5273 37.1516 97.6615C38.1041 97.9879 39.0353 98.3741 39.9398 98.8178C40.3793 99.0449 40.8678 99.1588 41.3617 99.1494C41.8556 99.1399 42.3394 99.0074 42.7701 98.7636C43.4215 98.433 44.0898 98.1371 44.7721 97.8772C44.5704 97.8021 44.368 97.7284 44.163 97.6615C43.7564 97.5273 43.352 97.3789 42.9571 97.2117V97.2117Z" fill="#3E61EE" fill-opacity="0.2"/>
<path d="M53 126.65C53 127.048 53.1461 127.429 53.4061 127.711C53.666 127.992 54.0187 128.15 54.3863 128.15H66.6137C66.9813 128.15 67.334 127.992 67.594 127.711C67.8539 127.429 68 127.048 68 126.65C68 126.252 67.8539 125.871 67.594 125.589C67.334 125.308 66.9813 125.15 66.6137 125.15H54.3863C54.0187 125.15 53.666 125.308 53.4061 125.589C53.1461 125.871 53 126.252 53 126.65Z" fill="#3E61EE"/>
<path d="M35.6519 77.1499C35.2944 77.1499 34.9516 77.2955 34.6988 77.5548C34.446 77.814 34.304 78.1656 34.304 78.5321C34.3057 78.6416 34.2863 78.7503 34.2467 78.8519C34.2071 78.9535 34.1481 79.046 34.0733 79.1241C33.9985 79.2021 33.9092 79.2641 33.8108 79.3064C33.7124 79.3487 33.6067 79.3704 33.5 79.3704C33.3933 79.3704 33.2876 79.3487 33.1892 79.3064C33.0908 79.2641 33.0015 79.2021 32.9267 79.1241C32.8519 79.046 32.7929 78.9535 32.7533 78.8519C32.7137 78.7503 32.6943 78.6416 32.696 78.5321C32.696 78.1656 32.554 77.814 32.3012 77.5548C32.0484 77.2955 31.7056 77.1499 31.3481 77.1499C30.9906 77.1499 30.6477 77.2955 30.3949 77.5548C30.1421 77.814 30.0001 78.1656 30.0001 78.5321C29.9964 79.0059 30.0842 79.4756 30.2584 79.9144C30.4327 80.3532 30.6899 80.7522 31.0152 81.0885C31.3406 81.4248 31.7277 81.6918 32.1541 81.8739C32.5806 82.0561 33.038 82.1499 33.5 82.1499C33.962 82.1499 34.4194 82.0561 34.8459 81.8739C35.2723 81.6918 35.6594 81.4248 35.9848 81.0885C36.3101 80.7522 36.5673 80.3532 36.7416 79.9144C36.9158 79.4756 37.0036 79.0059 36.9999 78.5321C36.9999 78.1656 36.8579 77.814 36.6051 77.5548C36.3523 77.2955 36.0094 77.1499 35.6519 77.1499V77.1499Z" fill="#3E61EE"/>
<path d="M51.9999 78.5321C51.9999 78.1656 51.8579 77.814 51.6051 77.5548C51.3523 77.2955 51.0094 77.1499 50.6519 77.1499C50.2944 77.1499 49.9516 77.2955 49.6988 77.5548C49.446 77.814 49.304 78.1656 49.304 78.5321C49.3057 78.6416 49.2863 78.7503 49.2467 78.8519C49.2071 78.9535 49.1481 79.046 49.0733 79.1241C48.9985 79.2021 48.9092 79.2641 48.8108 79.3064C48.7124 79.3487 48.6067 79.3704 48.5 79.3704C48.3933 79.3704 48.2876 79.3487 48.1892 79.3064C48.0908 79.2641 48.0015 79.2021 47.9267 79.1241C47.8519 79.046 47.7929 78.9535 47.7533 78.8519C47.7137 78.7503 47.6943 78.6416 47.696 78.5321C47.696 78.1656 47.554 77.814 47.3012 77.5548C47.0484 77.2955 46.7056 77.1499 46.3481 77.1499C45.9906 77.1499 45.6477 77.2955 45.3949 77.5548C45.1421 77.814 45.0001 78.1656 45.0001 78.5321C44.9964 79.0059 45.0842 79.4756 45.2584 79.9144C45.4327 80.3532 45.6899 80.7522 46.0152 81.0885C46.3406 81.4248 46.7277 81.6918 47.1541 81.8739C47.5806 82.0561 48.038 82.1499 48.5 82.1499C48.962 82.1499 49.4194 82.0561 49.8459 81.8739C50.2723 81.6918 50.6594 81.4248 50.9848 81.0885C51.3101 80.7522 51.5673 80.3532 51.7416 79.9144C51.9158 79.4756 52.0036 79.0059 51.9999 78.5321V78.5321Z" fill="#3E61EE"/>
<path d="M35.7031 60.896C35.8771 61.0048 36.0725 61.0808 36.2783 61.1198C36.4841 61.1588 36.6961 61.1599 36.9023 61.1232C37.1086 61.0864 37.305 61.0125 37.4803 60.9056C37.6556 60.7987 37.8064 60.6609 37.9241 60.5001C38.6802 59.4696 39.3286 58.3751 39.8607 57.2312C39.9473 57.0523 39.9945 56.8592 39.9995 56.6632C40.0046 56.4672 39.9674 56.2722 39.8902 56.0896C39.8129 55.907 39.6971 55.7405 39.5495 55.5996C39.4019 55.4588 39.2255 55.3465 39.0305 55.2693C38.8355 55.1921 38.6258 55.1515 38.4136 55.15C38.2015 55.1484 37.9911 55.1858 37.7948 55.26C37.5985 55.3343 37.4201 55.4439 37.27 55.5825C37.12 55.7211 37.0013 55.8859 36.9208 56.0673C36.4683 57.0387 35.9172 57.9683 35.2748 58.8435C35.1571 59.0043 35.0748 59.1849 35.0326 59.375C34.9904 59.5652 34.9892 59.7611 35.0289 59.9517C35.0687 60.1423 35.1487 60.3238 35.2644 60.4858C35.3801 60.6478 35.5292 60.7872 35.7031 60.896V60.896Z" fill="#3E61EE"/>
<path d="M27.4363 68.1499C27.6082 68.1499 31.6799 68.1041 34.7522 64.1211C34.8578 63.9842 34.9319 63.8302 34.9701 63.6681C35.0083 63.5059 35.0099 63.3387 34.9749 63.1759C34.9399 63.0132 34.8689 62.8582 34.766 62.7196C34.6631 62.5811 34.5304 62.4618 34.3752 62.3686C34.2201 62.2754 34.0457 62.2101 33.862 62.1763C33.6783 62.1426 33.4888 62.1411 33.3045 62.172C33.1201 62.2029 32.9444 62.2656 32.7875 62.3564C32.6306 62.4472 32.4955 62.5645 32.3898 62.7014C30.218 65.5181 27.5641 65.6232 27.4215 65.6274C27.0425 65.6292 26.6799 65.7637 26.4133 66.0014C26.1467 66.2392 25.9981 66.5607 26 66.8952C26.002 67.2297 26.1544 67.5498 26.4237 67.7851C26.6931 68.0204 27.0573 68.1516 27.4363 68.1499V68.1499Z" fill="#3E61EE"/>
<path d="M98.2319 82.1806L97.9614 80.8665C97.4654 78.473 95.2561 76.8773 92.934 77.2293L92.6409 77.2997L92.3028 75.6806V63.8069C92.3028 63.6661 92.3028 63.5488 92.3028 63.408C92.438 60.4748 93.9485 57.7997 96.3608 56.2275L99.0435 54.4441C99.3366 54.2329 99.6522 54.0452 99.9678 53.8575C100.667 52.7546 101.275 51.3936 100.87 50.1499L95.7971 52.473C94.5797 53.0362 93.4074 53.6932 92.2802 54.4207L89.5974 56.2041C87.2077 57.7528 85.6747 60.4513 85.5395 63.3846V63.7835V69.8376H84.7955C83.6457 69.8376 82.6312 70.5651 82.2029 71.6445C82.0676 71.9965 82 72.3719 82 72.7474C82 74.3665 83.2625 75.6806 84.818 75.6806H85.562L85.9002 77.2997L86.1932 77.2293C88.5379 76.8773 90.7247 78.473 91.2206 80.8665L91.4912 82.1806C92.0322 84.8322 93.3398 87.2726 95.2335 89.1499C96.7215 87.9532 98.5475 87.2961 100.441 87.2726C100.238 86.9911 100.058 86.7095 99.8777 86.4044C99.0886 85.1138 98.5476 83.6824 98.2319 82.1806Z" fill="#3E61EE" fill-opacity="0.2"/>
<path d="M108.5 76.1499C110.442 76.1499 112 74.522 112 72.5453C112 71.7778 111.39 71.1499 110.645 71.1499C109.9 71.1499 109.29 71.7778 109.29 72.5453C109.29 72.9871 108.929 73.3592 108.5 73.3592C108.071 73.3592 107.71 72.9871 107.71 72.5453C107.71 71.7778 107.1 71.1499 106.355 71.1499C105.61 71.1499 105 71.7778 105 72.5453C105 74.522 106.558 76.1499 108.5 76.1499Z" fill="#3E61EE"/>
<path d="M124.457 125.15H119.543C118.695 125.15 118 125.825 118 126.65C118 127.475 118.695 128.15 119.543 128.15H124.457C125.305 128.15 126 127.475 126 126.65C126 125.825 125.305 125.15 124.457 125.15V125.15Z" fill="#3E61EE"/>
<path d="M97 72.5453C97 71.7778 96.3903 71.1499 95.6452 71.1499C94.9 71.1499 94.2903 71.7778 94.2903 72.5453C94.2903 72.9871 93.929 73.3592 93.5 73.3592C93.071 73.3592 92.7097 72.9871 92.7097 72.5453C92.7097 71.7778 92.1 71.1499 91.3548 71.1499C90.6097 71.1499 90 71.7778 90 72.5453C90 74.5453 91.5806 76.1499 93.5 76.1499C95.4194 76.1499 97 74.522 97 72.5453Z" fill="#3E61EE"/>
<path d="M101.494 85.1499H102.481C103.316 85.1499 104 84.5268 104 83.7653C104 83.0037 103.316 82.3807 102.481 82.3807H101.494C101.241 82.3807 101.038 82.1961 101.038 81.9653V77.5345C101.038 76.773 100.354 76.1499 99.519 76.1499C98.6835 76.1499 98 76.773 98 77.5345V81.9653C98 83.7191 99.5696 85.1499 101.494 85.1499Z" fill="#3E61EE"/>
<path d="M99.519 92.1499H102.481C103.316 92.1499 104 91.4749 104 90.6499C104 89.8249 103.316 89.1499 102.481 89.1499H99.519C98.6835 89.1499 98 89.8249 98 90.6499C98 91.4749 98.6835 92.1499 99.519 92.1499Z" fill="#3E61EE"/>
<path fill-rule="evenodd" clip-rule="evenodd" d="M109.922 98.9368H114.405C125.753 98.9368 135 108.139 135 119.457V138.606C135 139.373 134.369 140 133.599 140H68.3121C67.5416 140 66.9111 139.373 66.9111 138.606V138.345H71.8547V137.211H91.1719V132.796C91.1719 128.566 90.4013 124.407 88.9069 120.456L88.7201 119.968C88.5333 119.48 88.6267 118.922 89.0003 118.504L91.5455 115.692L84.6338 109.185C84.3536 108.906 84.1902 108.558 84.1902 108.186C84.1668 107.814 84.3303 107.442 84.5871 107.187L90.051 101.702H87.5059C79.5862 101.702 72.8542 106.9 70.5565 114.054C70.3183 112.91 69.7208 111.747 68.9197 110.623C72.2407 103.718 79.3275 98.9433 87.5059 98.9601H92.0125V95.3116C89.1404 93.1968 87.1089 90.0828 86.3384 86.5272L84.3303 77.2084C82.1354 77.0225 80.3841 75.1866 80.3841 72.9325C80.3841 72.4444 80.4542 72.0029 80.5943 71.5846V62.5447C80.5943 57.0603 83.7232 51.971 88.58 49.4844C91.7556 45.9985 96.2622 44 100.979 44C105.696 44 110.179 45.9753 113.354 49.4611C118.235 51.9477 121.387 57.0603 121.387 62.5447V71.7473C121.504 72.1191 121.55 72.5142 121.55 72.9092C121.55 75.1634 119.822 76.9993 117.604 77.1852L115.619 86.3878C114.849 89.9666 112.817 93.0806 109.922 95.1954V98.9368ZM111.44 51.4829C111.16 51.1344 110.833 50.809 110.506 50.5069C110.459 51.6688 110.155 52.7611 109.618 53.7139L112.677 55.2244C113.378 55.573 114.008 55.9913 114.592 56.5258C116.623 58.3849 117.838 60.9412 117.931 63.6369V68.6565C117.963 68.6636 117.995 68.6706 118.028 68.6778C118.212 68.7176 118.407 68.7601 118.585 68.8192V62.4982C118.585 57.9898 115.97 53.7836 111.883 51.8083C111.72 51.7386 111.556 51.6224 111.44 51.4829ZM90.0744 51.8083C86.0115 53.7836 83.3729 57.9666 83.3496 62.4982V68.8192C83.5597 68.7495 83.7699 68.6797 84.0034 68.6565V63.6137C84.1435 60.2905 85.9648 57.2229 88.8602 55.3871L91.6389 53.6209C92.8531 52.8308 94.1373 52.1569 95.4683 51.5759L100.722 49.2752C101.096 49.1126 101.493 49.1126 101.866 49.2752C102.24 49.4379 102.52 49.74 102.637 50.1118C103.197 51.7618 102.543 53.4815 101.679 54.8061H103.15C105.649 54.8061 107.704 52.7611 107.704 50.2513V48.4851C105.672 47.3464 103.361 46.7422 100.979 46.7422C97.0327 46.7422 93.2734 48.4154 90.6348 51.3203C90.4947 51.5294 90.3079 51.6921 90.0744 51.8083ZM85.4277 74.3965C86.1049 74.3965 86.6653 74.8381 86.8054 75.4887L86.8521 75.8606C89.6074 75.9071 92.0358 77.8591 92.6196 80.6013L92.8998 81.9027C93.2033 83.2273 93.6937 84.5055 94.4175 85.6674C94.7678 86.2484 95.1647 86.7829 95.6084 87.2941C98.8774 85.3885 102.964 85.3885 106.233 87.2941C106.676 86.7829 107.073 86.2484 107.423 85.6674C108.147 84.5055 108.661 83.2506 108.941 81.9027L109.221 80.6013C109.805 77.8591 112.234 75.9303 114.989 75.8606L115.082 75.4887C115.222 74.8613 115.806 74.3965 116.46 74.3965H117.231C118.094 74.3965 118.772 73.6994 118.748 72.8395C118.725 72.0261 118.001 71.3755 117.16 71.3755H116.507C115.736 71.3755 115.106 70.748 115.106 69.9811V63.7066C115.082 62.6841 114.825 61.6616 114.358 60.7553C113.635 59.2912 112.374 58.1293 110.879 57.4089L107.774 55.9216C106.489 56.9441 104.878 57.5715 103.127 57.5715H98.6672C98.0835 57.5715 97.5698 57.223 97.3596 56.6885C97.1495 56.154 97.3129 55.5497 97.7332 55.1547C98.3637 54.597 99.1109 53.6906 99.5779 52.8308L96.6124 54.1322C95.4216 54.6434 94.2541 55.2709 93.1566 55.968L90.3779 57.7342C88.2531 59.0588 86.9221 61.313 86.8287 63.7066V69.9811C86.8287 70.748 86.1983 71.3755 85.4277 71.3755H84.6572C83.7932 71.3755 83.1161 72.0726 83.1394 72.9325C83.1628 73.7458 83.8866 74.3965 84.7272 74.3965H85.4277ZM87.5059 78.7654L89.047 85.8998C89.8642 89.7342 92.5262 92.9179 96.1454 94.4285L100.138 96.0087C100.418 96.1482 100.699 96.2179 100.932 96.2179C101.166 96.2179 101.423 96.1482 101.679 96.032L105.696 94.382C109.385 92.8715 112.07 89.6645 112.911 85.7836L114.429 78.7422C113.261 79.0211 112.28 79.9739 112.023 81.2055L111.743 82.5069C111.393 84.1569 110.763 85.7139 109.875 87.1547C109.198 88.2469 108.381 89.2462 107.447 90.1293C107.19 90.3849 106.84 90.5243 106.489 90.5243C106.279 90.5243 106.069 90.4779 105.859 90.3849C105.766 90.3384 105.696 90.292 105.626 90.2455C102.894 88.154 99.0642 88.154 96.3089 90.2455C95.7485 90.6638 94.9779 90.6173 94.4876 90.1525C93.5536 89.2694 92.7363 88.2702 92.0592 87.1779C91.1719 85.7371 90.5414 84.1801 90.1911 82.5301L89.9109 81.2288C89.6541 79.9739 88.6734 79.0443 87.5059 78.7654ZM107.12 100.819V96.8221L102.847 98.565C102.193 98.8671 101.539 99.0298 100.909 99.0298C100.255 99.0298 99.5779 98.8671 98.9007 98.5418L94.7911 96.8918V100.819C94.7911 103.84 95.9586 106.699 98.0835 108.837L100.956 111.741L103.828 108.837C105.952 106.675 107.12 103.84 107.12 100.819ZM107.564 137.211V134.214C107.564 129.24 108.474 124.383 110.342 119.759L107.47 116.575C106.956 115.994 106.98 115.134 107.54 114.623L114.382 108.163L109.712 103.468C109.175 106.211 107.867 108.744 105.859 110.789L101.983 114.716C101.726 114.995 101.352 115.134 100.979 115.134C100.605 115.134 100.232 114.972 99.9748 114.716L96.0987 110.789C94.0906 108.767 92.7597 106.234 92.246 103.492L87.5993 108.163L94.4409 114.623C94.9779 115.158 95.0246 116.017 94.5109 116.575L91.6155 119.782C93.1566 123.965 93.9505 128.334 93.9505 132.796V137.211H107.564ZM110.366 137.211H132.198V119.48C132.198 109.696 124.212 101.726 114.405 101.726H111.883L117.347 107.21C117.604 107.466 117.744 107.837 117.744 108.209C117.721 108.604 117.581 108.953 117.301 109.208L110.389 115.715L112.934 118.527C113.308 118.922 113.401 119.503 113.191 119.991C111.323 124.523 110.366 129.31 110.366 134.214V137.211Z" fill="#3E61EE"/>
<path d="M54.2377 100.534H54.0429C56.4078 99.4675 58.4153 97.7333 59.8224 95.5413C61.2295 93.3494 61.976 90.7937 61.9715 88.1833V83.0389C63.7971 81.0052 64.81 78.3622 64.8146 75.6203C64.8192 72.8783 63.8153 70.2319 61.9965 68.192C61.8459 62.8238 59.6228 57.7265 55.7998 53.9838C51.9769 50.241 46.8556 48.1481 41.5248 48.1499C36.194 48.1517 31.0742 50.2482 27.2538 53.9935C23.4333 57.7388 21.2136 62.8377 21.0666 68.206C16.983 72.7455 17.0961 79.5995 21.0285 84.0959V88.6047C21.0285 93.8873 24.2394 98.4368 28.7394 100.534H28.6591C23.4488 100.531 18.4507 102.614 14.764 106.323C11.0774 110.032 9.00405 115.065 9 120.314V138.752C9 139.123 9.14622 139.478 9.40651 139.74C9.66679 140.003 10.0198 140.15 10.3879 140.15H72.5085C73.2748 140.15 74 139.524 74 138.752V120.314C74 109.376 65.0777 100.534 54.2377 100.534ZM59.6237 81.4929C59.3573 81.7528 59.2035 82.1082 59.1957 82.4817V88.1833C59.1974 90.4614 58.473 92.6799 57.1292 94.512C55.7853 96.3442 53.893 97.6933 51.7309 98.3606C52.4843 97.0738 53.1651 95.4971 53.1762 93.953C54.6454 92.1316 55.6685 89.9875 56.1629 87.694L58.091 80.4713C58.8995 80.414 59.6754 80.1276 60.3293 79.6452C60.9832 79.1628 61.4884 78.504 61.7867 77.7448C61.408 79.1651 60.6615 80.4586 59.6237 81.4929V81.4929ZM46.2473 95.7728L45.997 95.8758C45.8134 95.9517 45.6251 96.0238 45.4372 96.0906C44.3735 96.4539 43.3357 96.8899 42.3309 97.3956C42.0931 97.5402 41.8218 97.6193 41.5441 97.6251C41.2664 97.6308 40.9921 97.5629 40.7487 97.4282C39.8019 96.965 38.8273 96.5619 37.8306 96.2211C37.4395 96.0932 37.086 95.9611 36.7499 95.8175C34.9685 95.0547 33.3954 93.8712 32.1634 92.3671C30.9315 90.863 30.0768 89.0823 29.6716 87.1754C29.6668 87.1521 29.6612 87.1288 29.6552 87.1055L27.4253 78.7261C27.3459 78.4293 27.1712 78.1672 26.9286 77.9808C26.6859 77.7943 26.3888 77.694 26.0837 77.6954H25.3111C24.9123 77.6954 24.5299 77.5358 24.2479 77.2517C23.9659 76.9677 23.8075 76.5824 23.8075 76.1807C23.8075 75.7789 23.9659 75.3937 24.2479 75.1096C24.5299 74.8255 24.9123 74.666 25.3111 74.666H26.0844C26.1605 74.6591 26.236 74.6461 26.3101 74.627C28.9001 74.0934 31.3857 73.1352 33.6676 71.7905C37.6257 69.4858 40.5648 66.2525 42.3124 62.3294C44.27 65.762 47.4529 68.3138 51.2128 69.4649C51.4291 69.5305 51.658 69.5421 51.8797 69.4985C52.1014 69.4549 52.3092 69.3576 52.4852 69.2148C52.6611 69.0721 52.7999 68.8884 52.8895 68.6794C52.9791 68.4705 53.0167 68.2428 52.9992 68.0159L52.563 62.1534C54.0688 63.6348 55.726 66.4128 55.726 71.3023V73.23C55.7175 73.6013 55.8552 73.9609 56.109 74.2303C56.3629 74.4996 56.7123 74.6567 57.0808 74.6674H57.8004C58.1992 74.6674 58.5816 74.8269 58.8636 75.111C59.1456 75.3951 59.304 75.7803 59.304 76.1821C59.304 76.5838 59.1456 76.9691 58.8636 77.2531C58.5816 77.5372 58.1992 77.6968 57.8004 77.6968H57.0269C56.722 77.6956 56.4253 77.7959 56.1829 77.9822C55.9405 78.1684 55.766 78.4301 55.6864 78.7266L53.4785 87.0058C53.4725 87.0291 53.4667 87.051 53.4619 87.0757C53.0526 89.0074 52.1815 90.8092 50.9242 92.3248C49.667 93.8404 48.0616 95.024 46.2473 95.7728V95.7728ZM47.1673 98.3765V102.353C47.1822 103.107 47.1202 103.862 46.9822 104.603C46.3825 105.543 45.5581 106.317 44.5846 106.852C43.6112 107.388 42.5198 107.668 41.4106 107.668C40.3014 107.668 39.21 107.388 38.2366 106.852C37.2631 106.317 36.4387 105.543 35.839 104.603C35.6835 103.863 35.6039 103.109 35.6014 102.353V98.3795C35.6014 98.3837 35.6382 98.3886 35.6477 98.3928C36.059 98.5685 36.4957 98.7283 36.9646 98.8821C37.8527 99.1879 38.7214 99.5483 39.5657 99.9613C40.1934 100.277 40.8875 100.435 41.589 100.422C42.2904 100.409 42.9783 100.225 43.5939 99.8863C44.4886 99.4376 45.4125 99.0507 46.3593 98.7281C46.5906 98.6461 46.7756 98.5571 47.003 98.4636L47.1673 98.3765ZM23.8043 88.6047V83.5371C23.8104 83.3556 23.7806 83.1748 23.7166 83.0051C23.6527 82.8353 23.5558 82.6802 23.4316 82.5486C21.7931 80.9004 20.852 78.677 20.8055 76.3449C20.7591 74.0128 21.6111 71.7532 23.1827 70.0402L23.4985 69.7028C23.7343 69.4453 23.8659 69.1082 23.8674 68.7578C23.8843 64.0437 25.7551 59.5285 29.0699 56.2011C32.3847 52.8737 36.8734 51.0054 41.5529 51.0054C46.2323 51.0054 50.721 52.8737 54.0358 56.2011C57.3506 59.5285 59.2214 64.0437 59.2383 68.7578C59.2384 68.9415 59.2744 69.1234 59.3442 69.293C59.4141 69.4627 59.5164 69.6168 59.6454 69.7466C61.1833 71.2877 62.0514 73.3805 62.0592 75.5657C61.9301 74.6513 61.516 73.8018 60.8766 73.1399C60.2372 72.478 59.4056 72.0379 58.5018 71.8831V71.3438C58.7331 60.9505 51.7448 58.1692 51.4489 58.0558C51.2296 57.9714 50.9927 57.9442 50.7602 57.9766C50.5277 58.009 50.307 58.1 50.1186 58.2411C49.9303 58.3822 49.7803 58.5689 49.6826 58.784C49.5848 58.999 49.5425 59.2353 49.5595 59.4712L50.0615 66.0027C47.0646 64.4995 44.7803 61.8623 43.7077 58.6675L43.4995 58.0485C43.4114 57.7484 43.2259 57.4866 42.9726 57.3053C42.7194 57.1239 42.4131 57.0334 42.1027 57.0483C41.7923 57.0631 41.4959 57.1825 41.2608 57.3872C41.0258 57.5919 40.8657 57.8702 40.8063 58.1774C39.6217 62.9663 36.7814 66.7325 32.3604 69.3327C29.3168 71.1236 26.5107 71.6379 25.9574 71.8709H25.3111C24.2039 71.8744 23.1412 72.31 22.3462 73.0863C21.5511 73.8625 21.0857 74.9189 21.0476 76.0336C21.0094 77.1483 21.4016 78.2345 22.1418 79.064C22.8819 79.8935 23.9123 80.4018 25.0166 80.482L26.9648 87.8021C27.5144 90.3483 28.7155 92.7054 30.4488 94.6395C30.6197 95.961 30.9518 97.2561 31.4377 98.4955C29.26 97.9271 27.3302 96.6486 25.9494 94.8594C24.5685 93.0702 23.8143 90.871 23.8043 88.6047V88.6047ZM36.0641 137.353H11.7758V120.314C11.7774 118.082 12.2154 115.872 13.0647 113.81C13.9141 111.749 15.1582 109.876 16.726 108.299C18.2937 106.722 20.1545 105.472 22.202 104.619C24.2495 103.767 26.4436 103.329 28.6591 103.331H30.9427L25.8449 108.498C25.7153 108.627 25.613 108.782 25.5442 108.952C25.4754 109.122 25.4415 109.305 25.4445 109.489C25.4475 109.674 25.4873 109.856 25.5616 110.026C25.6359 110.195 25.7432 110.347 25.8771 110.474L32.4044 116.707L30.0186 119.381C29.7812 119.647 29.6543 119.996 29.6641 120.354C29.6739 120.712 29.8197 121.052 30.0713 121.305L33.7356 124.991C35.2237 126.496 36.0607 128.532 36.0641 130.657V137.353ZM39.9964 137.353H38.8399V130.657C38.8341 127.789 37.7033 125.04 35.694 123.01L32.9598 120.26L35.3701 117.56C35.6119 117.29 35.7393 116.934 35.7252 116.57C35.711 116.207 35.5565 115.863 35.2945 115.612L28.8151 109.42L33.1196 105.033C33.6218 107.66 34.882 110.079 36.7423 111.988L39.9964 115.355V137.353ZM38.8126 110.089C40.5345 110.592 42.3628 110.592 44.0847 110.089L41.4477 112.789L38.8126 110.089ZM43.6975 137.353H42.7722V115.355L46.0905 111.988C47.9678 110.079 49.2455 107.655 49.7638 105.019L54.0906 109.42L47.6137 115.612C47.352 115.863 47.1979 116.208 47.1842 116.571C47.1705 116.935 47.2983 117.29 47.5404 117.561L49.9488 120.262L46.839 123.395C45.8391 124.395 45.0466 125.586 44.5073 126.898C43.968 128.21 43.6927 129.617 43.6975 131.037V137.353ZM71.2242 137.353H46.4733V131.037C46.4695 129.985 46.6732 128.942 47.0726 127.97C47.472 126.998 48.0592 126.116 48.7999 125.374L52.8459 121.304C53.0972 121.05 53.2426 120.71 53.2521 120.352C53.2615 119.994 53.1342 119.646 52.8965 119.38L50.5098 116.704L57.0369 110.467C57.1708 110.338 57.2781 110.185 57.3524 110.015C57.4266 109.844 57.4664 109.661 57.4694 109.475C57.4722 109.293 57.4381 109.113 57.3692 108.944C57.3004 108.776 57.1981 108.624 57.0688 108.498L51.971 103.331H54.2379C63.547 103.331 71.2242 110.918 71.2242 120.314V137.353Z" fill="#3E61EE"/>
<path fill-rule="evenodd" clip-rule="evenodd" d="M71.7907 21.5543C68.3567 21.5543 65.5729 24.3381 65.5729 27.7721C65.5729 31.2061 68.3567 33.9899 71.7907 33.9899C75.2246 33.9899 78.0084 31.2061 78.0084 27.7721C78.0084 24.3381 75.2246 21.5543 71.7907 21.5543ZM63.6094 27.7721C63.6094 23.2537 67.2723 19.5908 71.7907 19.5908C76.309 19.5908 79.9719 23.2537 79.9719 27.7721C79.9719 32.2905 76.309 35.9534 71.7907 35.9534C67.2723 35.9534 63.6094 32.2905 63.6094 27.7721Z" fill="#968B82"/>
<path fill-rule="evenodd" clip-rule="evenodd" d="M63.1094 27.7721C63.1094 22.9776 66.9961 19.0908 71.7907 19.0908C76.5852 19.0908 80.4719 22.9776 80.4719 27.7721C80.4719 32.5666 76.5852 36.4534 71.7907 36.4534C66.9961 36.4534 63.1094 32.5666 63.1094 27.7721ZM71.7907 22.0543C68.6328 22.0543 66.0729 24.6143 66.0729 27.7721C66.0729 30.9299 68.6328 33.4899 71.7907 33.4899C74.9485 33.4899 77.5084 30.9299 77.5084 27.7721C77.5084 24.6143 74.9485 22.0543 71.7907 22.0543Z" fill="#968B82"/>
<path fill-rule="evenodd" clip-rule="evenodd" d="M68.0853 8.81916C67.4463 12.7017 64.0762 15.663 60.0129 15.663C59.0171 15.663 58.0608 15.4847 57.1757 15.1574C55.5772 17.0081 54.3248 19.1648 53.518 21.5269C55.2874 23.0262 56.4131 25.2676 56.4131 27.7713C56.4131 30.275 55.2874 32.5165 53.518 34.0158C54.3248 36.3778 55.5772 38.5345 57.1757 40.3852C58.0608 40.058 59.0171 39.8796 60.0129 39.8796C64.0762 39.8796 67.4463 42.841 68.0853 46.7235C69.2847 46.9568 70.5246 47.0791 71.7939 47.0791C73.0633 47.0791 74.3032 46.9568 75.5026 46.7235C76.1416 42.841 79.5116 39.8796 83.575 39.8796C84.5708 39.8796 85.5271 40.058 86.4122 40.3852C88.0107 38.5345 89.2631 36.3778 90.0699 34.0158C88.3005 32.5165 87.1747 30.275 87.1747 27.7713C87.1747 25.2676 88.3005 23.0262 90.0699 21.5269C89.2631 19.1648 88.0107 17.0081 86.4122 15.1574C85.5271 15.4847 84.5708 15.663 83.575 15.663C79.5116 15.663 76.1416 12.7017 75.5026 8.81916C74.3032 8.58587 73.0633 8.46351 71.7939 8.46351C70.5246 8.46351 69.2847 8.58587 68.0853 8.81916ZM67.4666 6.94068C68.8646 6.65168 70.3121 6.5 71.7939 6.5C73.2758 6.5 74.7233 6.65168 76.1213 6.94068C76.8592 7.09321 77.3276 7.70809 77.4173 8.35029C77.8391 11.3728 80.4362 13.6995 83.575 13.6995C84.3883 13.6995 85.1629 13.5439 85.8722 13.2616C86.474 13.0222 87.2378 13.1249 87.7354 13.6877C89.6258 15.8258 91.0932 18.3481 92.0055 21.1234C92.2366 21.8262 91.9517 22.5284 91.4544 22.9297C90.0401 24.0711 89.1383 25.8155 89.1383 27.7713C89.1383 29.7271 90.0401 31.4715 91.4544 32.6129C91.9517 33.0142 92.2366 33.7164 92.0055 34.4192C91.0932 37.1945 89.6258 39.7168 87.7354 41.8549C87.2378 42.4178 86.474 42.5204 85.8722 42.281C85.1629 41.9988 84.3883 41.8431 83.575 41.8431C80.4362 41.8431 77.8391 44.1699 77.4173 47.1923C77.3276 47.8345 76.8592 48.4494 76.1213 48.602C74.7233 48.891 73.2758 49.0426 71.7939 49.0426C70.3121 49.0426 68.8646 48.891 67.4666 48.602C66.7287 48.4494 66.2602 47.8345 66.1706 47.1923C65.7488 44.1699 63.1517 41.8431 60.0129 41.8431C59.1996 41.8431 58.425 41.9988 57.7156 42.281C57.1139 42.5204 56.3501 42.4178 55.8525 41.8549C53.9621 39.7168 52.4947 37.1945 51.5824 34.4192C51.3513 33.7164 51.6362 33.0142 52.1335 32.6129C53.5478 31.4715 54.4496 29.7271 54.4496 27.7713C54.4496 25.8155 53.5478 24.0711 52.1335 22.9297C51.6362 22.5284 51.3513 21.8262 51.5824 21.1234C52.4947 18.3481 53.9621 15.8258 55.8525 13.6877C56.3501 13.1249 57.1139 13.0222 57.7156 13.2616C58.425 13.5439 59.1996 13.6995 60.0129 13.6995C63.1517 13.6995 65.7488 11.3728 66.1706 8.35029C66.2602 7.70809 66.7287 7.09321 67.4666 6.94068Z" fill="#968B82"/>
<path fill-rule="evenodd" clip-rule="evenodd" d="M67.3649 6.45103C68.796 6.15519 70.2774 6 71.7935 6C73.3095 6 74.7909 6.15519 76.2221 6.45103C77.1949 6.65214 77.7973 7.45939 77.912 8.28118C78.2998 11.0599 80.6884 13.1995 83.5745 13.1995C84.3235 13.1995 85.0354 13.0563 85.6869 12.7971C86.4571 12.4906 87.4536 12.6146 88.1096 13.3565C90.044 15.5446 91.5461 18.1261 92.48 20.9673C92.7845 21.8936 92.4047 22.805 91.7679 23.3188C90.4663 24.3693 89.6378 25.973 89.6378 27.7713C89.6378 29.5696 90.4663 31.1733 91.7679 32.2238C92.4047 32.7377 92.7845 33.6491 92.48 34.5754C91.5461 37.4165 90.044 39.998 88.1096 42.1861C87.4536 42.9281 86.4571 43.052 85.6869 42.7456C85.0354 42.4864 84.3235 42.3431 83.5745 42.3431C80.6884 42.3431 78.2998 44.4827 77.912 47.2615C77.7973 48.0832 77.1949 48.8905 76.2221 49.0916C74.7909 49.3874 73.3095 49.5426 71.7935 49.5426C70.2774 49.5426 68.796 49.3874 67.3649 49.0916C66.392 48.8905 65.7896 48.0832 65.6749 47.2615C65.2871 44.4827 62.8985 42.3431 60.0124 42.3431C59.2635 42.3431 58.5515 42.4864 57.9 42.7456C57.1298 43.052 56.1333 42.9281 55.4774 42.1861C53.5429 39.998 52.0409 37.4165 51.1069 34.5754C50.8024 33.6491 51.1823 32.7377 51.819 32.2238C53.1207 31.1733 53.9492 29.5696 53.9492 27.7713C53.9492 25.973 53.1207 24.3693 51.819 23.3188C51.1823 22.805 50.8024 21.8936 51.1069 20.9673C52.0409 18.1261 53.5429 15.5446 55.4774 13.3565C56.1333 12.6146 57.1298 12.4906 57.9 12.7971C58.5515 13.0563 59.2635 13.1995 60.0124 13.1995C62.8985 13.1995 65.2871 11.0599 65.6749 8.28118C65.7896 7.45939 66.392 6.65214 67.3649 6.45103ZM68.5136 9.24826C67.6968 13.196 64.2024 16.163 60.0124 16.163C59.0802 16.163 58.1799 16.0156 57.335 15.7419C55.9515 17.4029 54.8494 19.3049 54.1009 21.3749C55.8272 22.9599 56.9127 25.2393 56.9127 27.7713C56.9127 30.3033 55.8272 32.5827 54.1009 34.1677C54.8494 36.2377 55.9515 38.1398 57.335 39.8007C58.1799 39.5271 59.0802 39.3796 60.0124 39.3796C64.2024 39.3796 67.6968 42.3466 68.5136 46.2944C69.5777 46.4814 70.6736 46.5791 71.7935 46.5791C72.9133 46.5791 74.0092 46.4814 75.0734 46.2944C75.8901 42.3466 79.3845 39.3796 83.5745 39.3796C84.5067 39.3796 85.4071 39.5271 86.2519 39.8007C87.6355 38.1398 88.7375 36.2377 89.486 34.1677C87.7597 32.5827 86.6743 30.3033 86.6743 27.7713C86.6743 25.2393 87.7597 22.9599 89.4861 21.3749C88.7375 19.3049 87.6355 17.4029 86.2519 15.7419C85.4071 16.0156 84.5068 16.163 83.5745 16.163C79.3845 16.163 75.8901 13.196 75.0734 9.24826C74.0092 9.06121 72.9133 8.96351 71.7935 8.96351C70.6736 8.96351 69.5777 9.06121 68.5136 9.24826Z" fill="#968B82"/>
<path d="M105.16 9.07061C104.252 8.76357 103.426 8.25027 102.749 7.57093C102.072 6.8916 101.562 6.06471 101.258 5.15505C101.146 4.81876 100.931 4.52622 100.644 4.3189C100.356 4.11157 100.011 4 99.6566 4C99.3022 4 98.9568 4.11157 98.6694 4.3189C98.382 4.52622 98.1671 4.81876 98.0553 5.15505C97.7512 6.06478 97.2405 6.89174 96.5633 7.57111C95.8861 8.25048 95.0608 8.76382 94.1521 9.07089C93.8165 9.18317 93.5247 9.39808 93.318 9.68526C93.1112 9.97244 93 10.3173 93 10.6712C93 11.0251 93.1112 11.37 93.318 11.6571C93.5247 11.9443 93.8165 12.1592 94.1521 12.2715C95.0608 12.5787 95.886 13.0922 96.5631 13.7716C97.2402 14.4511 97.7507 15.2781 98.0547 16.1879C98.1665 16.5243 98.3813 16.817 98.6688 17.0244C98.9562 17.2318 99.3017 17.3434 99.6562 17.3434C100.011 17.3434 100.356 17.2318 100.644 17.0244C100.931 16.817 101.146 16.5243 101.258 16.1879C101.562 15.2782 102.072 14.4512 102.749 13.7718C103.426 13.0924 104.251 12.5791 105.16 12.2721C105.496 12.1598 105.788 11.9449 105.994 11.6577C106.201 11.3705 106.312 11.0256 106.312 10.6718C106.312 10.3179 106.201 9.973 105.994 9.68582C105.788 9.39865 105.496 9.18373 105.16 9.07146V9.07061ZM99.6548 12.1784C99.2102 11.6221 98.7056 11.1165 98.1501 10.6709C98.7056 10.2254 99.2103 9.71981 99.6548 9.16342C100.099 9.71988 100.604 10.2255 101.159 10.6709C100.604 11.1164 100.099 11.622 99.6548 12.1784V12.1784Z" fill="#968B82"/>
<path d="M27.1602 29.0706C26.2516 28.7636 25.4264 28.2503 24.7494 27.5709C24.0724 26.8916 23.5618 26.0647 23.2579 25.155C23.1461 24.8188 22.9312 24.5262 22.6438 24.3189C22.3564 24.1116 22.011 24 21.6566 24C21.3022 24 20.9568 24.1116 20.6694 24.3189C20.382 24.5262 20.1671 24.8188 20.0553 25.155C19.7512 26.0648 19.2405 26.8917 18.5633 27.5711C17.8861 28.2505 17.0608 28.7638 16.1521 29.0709C15.8165 29.1832 15.5247 29.3981 15.318 29.6853C15.1112 29.9724 15 30.3173 15 30.6712C15 31.0251 15.1112 31.37 15.318 31.6571C15.5247 31.9443 15.8165 32.1592 16.1521 32.2715C17.0608 32.5787 17.886 33.0922 18.5631 33.7716C19.2402 34.4511 19.7507 35.2781 20.0547 36.1879C20.1665 36.5243 20.3813 36.817 20.6688 37.0244C20.9562 37.2318 21.3017 37.3434 21.6562 37.3434C22.0106 37.3434 22.3561 37.2318 22.6435 37.0244C22.931 36.817 23.1458 36.5243 23.2576 36.1879C23.5615 35.2782 24.072 34.4512 24.7491 33.7718C25.4262 33.0924 26.2515 32.5791 27.1602 32.2721C27.4958 32.1598 27.7876 31.9449 27.9943 31.6577C28.2011 31.3705 28.3123 31.0256 28.3123 30.6718C28.3123 30.3179 28.2011 29.973 27.9943 29.6858C27.7876 29.3986 27.4958 29.1837 27.1602 29.0715V29.0706ZM21.6548 32.1784C21.2102 31.6221 20.7056 31.1165 20.1501 30.6709C20.7056 30.2254 21.2103 29.7198 21.6548 29.1634C22.0992 29.7199 22.6038 30.2255 23.1594 30.6709C22.6038 31.1164 22.0992 31.622 21.6548 32.1784V32.1784Z" fill="#968B82"/>
<path d="M113.013 19C112.417 19 111.834 19.1767 111.339 19.5078C110.843 19.8388 110.457 20.3094 110.229 20.8599C110.001 21.4104 109.942 22.0162 110.058 22.6006C110.174 23.185 110.461 23.7218 110.883 24.1432C111.304 24.5645 111.841 24.8514 112.425 24.9676C113.01 25.0839 113.615 25.0242 114.166 24.7961C114.716 24.568 115.187 24.1818 115.518 23.6863C115.849 23.1909 116.026 22.6083 116.026 22.0125C116.025 21.2137 115.707 20.448 115.142 19.8832C114.577 19.3185 113.811 19.0008 113.013 19V19Z" fill="#968B82"/>
<path d="M102 29C101.604 29 101.218 29.1173 100.889 29.3371C100.56 29.5568 100.304 29.8692 100.152 30.2347C100.001 30.6001 99.9613 31.0023 100.038 31.3903C100.116 31.7782 100.306 32.1346 100.586 32.4143C100.866 32.694 101.222 32.8844 101.61 32.9616C101.998 33.0387 102.4 32.9991 102.765 32.8477C103.131 32.6963 103.443 32.4399 103.663 32.111C103.883 31.7821 104 31.3954 104 30.9998C103.999 30.4696 103.788 29.9612 103.414 29.5863C103.039 29.2114 102.53 29.0005 102 29V29Z" fill="#968B82"/>
<path d="M30.0128 12C29.4169 12 28.8344 12.1767 28.3389 12.5078C27.8435 12.8388 27.4573 13.3094 27.2293 13.8599C27.0013 14.4104 26.9416 15.0162 27.0579 15.6006C27.1742 16.185 27.4611 16.7218 27.8825 17.1432C28.3039 17.5645 28.8407 17.8514 29.4252 17.9676C30.0096 18.0839 30.6154 18.0242 31.1659 17.7961C31.7164 17.568 32.1869 17.1818 32.5179 16.6863C32.8489 16.1909 33.0256 15.6083 33.0255 15.0125C33.0246 14.2137 32.7069 13.448 32.1421 12.8832C31.5773 12.3185 30.8115 12.0008 30.0128 12V12Z" fill="#968B82"/>
<path fill-rule="evenodd" clip-rule="evenodd" d="M52.1629 10.6921C52.8853 11.3342 52.9504 12.4403 52.3083 13.1627C51.0897 14.5335 48.4429 18.3483 47.7221 22.3131C47.5492 23.264 46.6382 23.8947 45.6873 23.7218C44.7363 23.5489 44.1056 22.6379 44.2785 21.687C45.1577 16.8517 48.2442 12.4665 49.6923 10.8374C50.3344 10.115 51.4406 10.0499 52.1629 10.6921Z" fill="#968B82"/>
</svg>
