<svg viewBox="0 0 144 144" fill="none" xmlns="http://www.w3.org/2000/svg">
<path d="M75.3776 20.2558C69.8216 16.5021 72.1029 7.96432 73.9381 4.16462L67.9517 4.97979L64.6001 9.19482L65.1281 16.139L69.1996 19.9696L75.3776 20.2558Z" fill="#3E61EE" fill-opacity="0.2"/>
<path fill-rule="evenodd" clip-rule="evenodd" d="M55.1441 20.6529C55.4752 21.5609 55.0075 22.5654 54.0995 22.8965C34.0563 30.2051 19.75 49.4342 19.75 72.0002C19.75 79.8581 21.4834 87.3062 24.5871 93.9873C24.9943 94.8639 24.6138 95.9045 23.7373 96.3117C22.8608 96.7189 21.8201 96.3384 21.4129 95.4619C18.099 88.3283 16.25 80.3778 16.25 72.0002C16.25 47.9169 31.52 27.4045 52.9005 19.6083C53.8085 19.2772 54.813 19.7449 55.1441 20.6529ZM88.8559 20.6529C89.187 19.7449 90.1915 19.2772 91.0995 19.6083C112.48 27.4045 127.75 47.9169 127.75 72.0002C127.75 80.3778 125.901 88.3283 122.587 95.4619C122.18 96.3384 121.139 96.7189 120.263 96.3117C119.386 95.9045 119.006 94.8639 119.413 93.9873C122.517 87.3062 124.25 79.8581 124.25 72.0002C124.25 49.4342 109.944 30.2051 89.9005 22.8965C88.9925 22.5654 88.5248 21.5609 88.8559 20.6529ZM96.312 120.263C96.7192 121.139 96.3387 122.18 95.4622 122.587C88.3285 125.901 80.3778 127.75 72 127.75C63.7131 127.75 55.8439 125.941 48.77 122.694C47.8916 122.291 47.5064 121.252 47.9095 120.374C48.3127 119.495 49.3516 119.11 50.23 119.513C56.8551 122.554 64.2271 124.25 72 124.25C79.858 124.25 87.3064 122.517 93.9876 119.413C94.8641 119.006 95.9048 119.386 96.312 120.263Z" fill="#3E61EE"/>
<path fill-rule="evenodd" clip-rule="evenodd" d="M72 7.75C68.5482 7.75 65.75 10.5482 65.75 14C65.75 17.4518 68.5482 20.25 72 20.25C75.4518 20.25 78.25 17.4518 78.25 14C78.25 10.5482 75.4518 7.75 72 7.75ZM62.25 14C62.25 8.61522 66.6152 4.25 72 4.25C77.3848 4.25 81.75 8.61522 81.75 14C81.75 19.3848 77.3848 23.75 72 23.75C66.6152 23.75 62.25 19.3848 62.25 14Z" fill="#3E61EE"/>
<path fill-rule="evenodd" clip-rule="evenodd" d="M117.105 117.419C119.546 114.979 119.546 111.021 117.105 108.581C114.665 106.14 110.707 106.14 108.267 108.581C105.826 111.021 105.826 114.979 108.267 117.419C110.707 119.86 114.665 119.86 117.105 117.419ZM119.58 106.106C123.388 109.913 123.388 116.087 119.58 119.894C115.773 123.702 109.599 123.702 105.792 119.894C101.984 116.087 101.984 109.913 105.792 106.106C109.599 102.298 115.773 102.298 119.58 106.106Z" fill="#3E61EE"/>
<path fill-rule="evenodd" clip-rule="evenodd" d="M35.7324 117.419C38.1732 114.979 38.1732 111.021 35.7324 108.581C33.2916 106.14 29.3343 106.14 26.8936 108.581C24.4528 111.021 24.4528 114.979 26.8936 117.419C29.3343 119.86 33.2916 119.86 35.7324 117.419ZM38.2073 106.106C42.0149 109.913 42.0149 116.087 38.2073 119.894C34.3997 123.702 28.2263 123.702 24.4187 119.894C20.6111 116.087 20.6111 109.913 24.4187 106.106C28.2263 102.298 34.3997 102.298 38.2073 106.106Z" fill="#3E61EE"/>
<path fill-rule="evenodd" clip-rule="evenodd" d="M64.6407 35.0368C67.149 34.5206 69.7447 34.25 72.4002 34.25C75.0557 34.25 77.6513 34.5206 80.1596 35.0368C82.2414 35.4652 83.5159 37.1824 83.7581 38.9097C84.3597 43.2011 88.0704 46.517 92.5645 46.517C93.7325 46.517 94.8398 46.2948 95.8521 45.8939C97.4683 45.2538 99.5874 45.5011 100.994 47.0848C104.384 50.9024 107.018 55.4077 108.656 60.3676C109.311 62.3516 108.487 64.2821 107.147 65.3583C105.121 66.9861 103.837 69.4653 103.837 72.2435C103.837 75.0217 105.121 77.5008 107.147 79.1286C108.487 80.2049 109.311 82.1353 108.656 84.1193C107.018 89.0792 104.384 93.5845 100.994 97.4021C99.5874 98.9859 97.4683 99.2332 95.8521 98.5931C94.8398 98.1921 93.7325 97.9699 92.5645 97.9699C88.0704 97.9699 84.3597 101.286 83.7581 105.577C83.5159 107.305 82.2414 109.022 80.1596 109.45C77.6513 109.966 75.0557 110.237 72.4002 110.237C69.7447 110.237 67.149 109.966 64.6407 109.45C62.5589 109.022 61.2844 107.305 61.0423 105.577C60.4406 101.286 56.7299 97.9699 52.2358 97.9699C51.0679 97.9699 49.9605 98.1921 48.9482 98.5931C47.332 99.2332 45.2129 98.9859 43.8063 97.4021C40.4159 93.5845 37.7823 89.0792 36.1444 84.1193C35.4892 82.1353 36.3138 80.2049 37.6534 79.1286H37.6534C39.6796 77.5008 40.9638 75.0217 40.9638 72.2435C40.9638 69.4652 39.6796 66.9861 37.6534 65.3583C36.3138 64.2821 35.4892 62.3517 36.1444 60.3676C37.7823 55.4077 40.4159 50.9024 43.8063 47.0848C45.2129 45.5011 47.332 45.2538 48.9482 45.8939C49.9605 46.2948 51.0679 46.517 52.2358 46.517C56.7299 46.517 60.4406 43.2011 61.0423 38.9097C61.2844 37.1824 62.5589 35.4652 64.6407 35.0368ZM72.4002 37.75C69.983 37.75 67.6237 37.9963 65.3462 38.4649C64.9022 38.5563 64.573 38.9345 64.5084 39.3956C63.666 45.4041 58.4865 50.017 52.2358 50.017C50.6196 50.017 49.0755 49.7088 47.6594 49.148C47.2156 48.9722 46.7201 49.0747 46.4233 49.409C43.3428 52.8776 40.9531 56.9674 39.4679 61.4651C39.3322 61.876 39.4828 62.3384 39.8455 62.6298C42.6608 64.8915 44.4638 68.357 44.4638 72.2435C44.4638 76.13 42.6608 79.5954 39.8455 81.8572C39.4828 82.1485 39.3322 82.611 39.4679 83.0219C40.9531 87.5195 43.3428 91.6094 46.4233 95.078L45.1148 96.2401L46.4233 95.078C46.7201 95.4122 47.2156 95.5148 47.6594 95.339C49.0755 94.7782 50.6196 94.4699 52.2358 94.4699C58.4865 94.4699 63.666 99.0829 64.5084 105.091C64.573 105.552 64.9022 105.931 65.3462 106.022C67.6237 106.491 69.983 106.737 72.4002 106.737C74.8173 106.737 77.1767 106.491 79.4542 106.022C79.8982 105.931 80.2273 105.552 80.292 105.091C81.1343 99.0829 86.3138 94.4699 92.5645 94.4699C94.1807 94.4699 95.7249 94.7782 97.1409 95.339C97.5847 95.5148 98.0802 95.4123 98.3771 95.078C101.458 91.6094 103.847 87.5195 105.332 83.0219C105.468 82.611 105.318 82.1485 104.955 81.8572C102.14 79.5954 100.337 76.13 100.337 72.2435C100.337 68.357 102.14 64.8915 104.955 62.6298C105.318 62.3384 105.468 61.876 105.332 61.4651C103.847 56.9674 101.458 52.8776 98.3771 49.409C98.0802 49.0747 97.5847 48.9722 97.1409 49.148C95.7249 49.7088 94.1807 50.017 92.5645 50.017C86.3138 50.017 81.1343 45.4041 80.292 39.3956C80.2273 38.9345 79.8982 38.5563 79.4542 38.4649C77.1767 37.9963 74.8173 37.75 72.4002 37.75Z" fill="#968B82"/>
<path fill-rule="evenodd" clip-rule="evenodd" d="M71.6448 60.4023C65.5221 60.4023 60.5586 65.3658 60.5586 71.4886C60.5586 77.6113 65.5221 82.5748 71.6448 82.5748C77.7676 82.5748 82.7311 77.6113 82.7311 71.4886C82.7311 65.3658 77.7676 60.4023 71.6448 60.4023ZM57.0586 71.4886C57.0586 63.4328 63.5891 56.9023 71.6448 56.9023C79.7006 56.9023 86.2311 63.4328 86.2311 71.4886C86.2311 79.5443 79.7006 86.0748 71.6448 86.0748C63.5891 86.0748 57.0586 79.5443 57.0586 71.4886Z" fill="#968B82"/>
<path d="M37.6653 117.756C30.9603 117.695 28.1467 109.318 27.5781 105.136L23.0378 109.122L22.5716 114.487L26.847 119.984L32.3569 120.929L37.6653 117.756Z" fill="#3E61EE" fill-opacity="0.2"/>
<path fill-rule="evenodd" clip-rule="evenodd" d="M24.4129 27.6881C25.1375 28.3277 25.2063 29.4336 24.5666 30.1582C14.7218 41.3098 8.75 55.9554 8.75 72C8.75 72.9665 7.9665 73.75 7 73.75C6.0335 73.75 5.25 72.9665 5.25 72C5.25 55.07 11.5552 39.6084 21.9428 27.8418C22.5825 27.1173 23.6883 27.0485 24.4129 27.6881Z" fill="#3E61EE"/>
<path d="M23.1602 14.0706C22.2516 13.7636 21.4264 13.2503 20.7494 12.5709C20.0724 11.8916 19.5618 11.0647 19.2579 10.155C19.1461 9.81876 18.9312 9.52622 18.6438 9.3189C18.3564 9.11157 18.011 9 17.6566 9C17.3022 9 16.9568 9.11157 16.6694 9.3189C16.382 9.52622 16.1671 9.81876 16.0553 10.155C15.7512 11.0648 15.2405 11.8917 14.5633 12.5711C13.8861 13.2505 13.0608 13.7638 12.1521 14.0709C11.8165 14.1832 11.5247 14.3981 11.318 14.6853C11.1112 14.9724 11 15.3173 11 15.6712C11 16.0251 11.1112 16.37 11.318 16.6571C11.5247 16.9443 11.8165 17.1592 12.1521 17.2715C13.0608 17.5787 13.886 18.0922 14.5631 18.7716C15.2402 19.4511 15.7507 20.2781 16.0547 21.1879C16.1665 21.5243 16.3813 21.817 16.6688 22.0244C16.9562 22.2318 17.3017 22.3434 17.6562 22.3434C18.0106 22.3434 18.3561 22.2318 18.6435 22.0244C18.931 21.817 19.1458 21.5243 19.2576 21.1879C19.5615 20.2782 20.072 19.4512 20.7491 18.7718C21.4262 18.0924 22.2515 17.5791 23.1602 17.2721C23.4958 17.1598 23.7876 16.9449 23.9943 16.6577C24.2011 16.3705 24.3123 16.0256 24.3123 15.6718C24.3123 15.3179 24.2011 14.973 23.9943 14.6858C23.7876 14.3986 23.4958 14.1837 23.1602 14.0715V14.0706ZM17.6548 17.1784C17.2102 16.6221 16.7056 16.1165 16.1501 15.6709C16.7056 15.2254 17.2103 14.7198 17.6548 14.1634C18.0992 14.7199 18.6038 15.2255 19.1594 15.6709C18.6038 16.1164 18.0992 16.622 17.6548 17.1784Z" fill="#3E61EE"/>
<path d="M128.16 25.0706C127.252 24.7636 126.426 24.2503 125.749 23.5709C125.072 22.8916 124.562 22.0647 124.258 21.155C124.146 20.8188 123.931 20.5262 123.644 20.3189C123.356 20.1116 123.011 20 122.657 20C122.302 20 121.957 20.1116 121.669 20.3189C121.382 20.5262 121.167 20.8188 121.055 21.155C120.751 22.0648 120.24 22.8917 119.563 23.5711C118.886 24.2505 118.061 24.7638 117.152 25.0709C116.817 25.1832 116.525 25.3981 116.318 25.6853C116.111 25.9724 116 26.3173 116 26.6712C116 27.0251 116.111 27.37 116.318 27.6571C116.525 27.9443 116.817 28.1592 117.152 28.2715C118.061 28.5787 118.886 29.0922 119.563 29.7716C120.24 30.4511 120.751 31.2781 121.055 32.1879C121.166 32.5243 121.381 32.817 121.669 33.0244C121.956 33.2318 122.302 33.3434 122.656 33.3434C123.011 33.3434 123.356 33.2318 123.644 33.0244C123.931 32.817 124.146 32.5243 124.258 32.1879C124.562 31.2782 125.072 30.4512 125.749 29.7718C126.426 29.0924 127.251 28.5791 128.16 28.2721C128.496 28.1598 128.788 27.9449 128.994 27.6577C129.201 27.3705 129.312 27.0256 129.312 26.6718C129.312 26.3179 129.201 25.973 128.994 25.6858C128.788 25.3986 128.496 25.1837 128.16 25.0715V25.0706ZM122.655 28.1784C122.21 27.6221 121.706 27.1165 121.15 26.6709C121.706 26.2254 122.21 25.7198 122.655 25.1634C123.099 25.7199 123.604 26.2255 124.159 26.6709C123.604 27.1164 123.099 27.622 122.655 28.1784Z" fill="#3E61EE"/>
<path d="M136.013 35C135.417 35 134.834 35.1767 134.339 35.5078C133.843 35.8388 133.457 36.3094 133.229 36.8599C133.001 37.4104 132.942 38.0162 133.058 38.6006C133.174 39.185 133.461 39.7218 133.883 40.1432C134.304 40.5645 134.841 40.8514 135.425 40.9676C136.01 41.0839 136.615 41.0242 137.166 40.7961C137.716 40.568 138.187 40.1818 138.518 39.6863C138.849 39.1909 139.026 38.6083 139.026 38.0125C139.025 37.2137 138.707 36.448 138.142 35.8832C137.577 35.3185 136.811 35.0008 136.013 35Z" fill="#3E61EE"/>
<path d="M131 12C130.604 12 130.218 12.1173 129.889 12.3371C129.56 12.5568 129.304 12.8692 129.152 13.2347C129.001 13.6001 128.961 14.0023 129.038 14.3903C129.116 14.7782 129.306 15.1346 129.586 15.4143C129.866 15.694 130.222 15.8844 130.61 15.9616C130.998 16.0387 131.4 15.9991 131.765 15.8477C132.131 15.6963 132.443 15.4399 132.663 15.111C132.883 14.7821 133 14.3954 133 13.9998C132.999 13.4696 132.788 12.9612 132.414 12.5863C132.039 12.2114 131.53 12.0005 131 12Z" fill="#3E61EE"/>
</svg>
