<svg width="144" height="144" viewBox="0 0 144 144" fill="none" xmlns="http://www.w3.org/2000/svg">
<path d="M61 128V123H56V133H91V128H61Z" fill="#3E61EE" fill-opacity="0.2"/>
<path d="M69.4995 104.5V122.5H59.5V109L52.5 93L54 78L60.4995 84C59.6995 95.6 66.1662 102.5 69.4995 104.5Z" fill="#3E61EE" fill-opacity="0.2"/>
<path d="M40 42.5L28.5 30.5L20.5 38L29.5 47V49.5L31 55.5L45 69.5L57.5 81.5L62.5 83.5L65.5 81.5L64 74.5C58 68.3333 45.3 55.3 42.5 52.5C39.7 49.7 39.6667 44.6667 40 42.5Z" fill="#3E61EE" fill-opacity="0.2"/>
<path fill-rule="evenodd" clip-rule="evenodd" d="M58.9555 64.6855C56.7126 62.4426 56.7027 58.8066 58.9509 56.5584L84.0578 31.4515C87.7987 27.7106 92.8142 26.931 95.5769 27.0035L104.564 18.0164L107.039 20.4913L97.4928 30.0373C97.1169 30.4132 96.5905 30.5978 96.0621 30.5391C94.2626 30.3392 89.7079 30.7511 86.5327 33.9263L61.4257 59.0333C60.5497 59.9093 60.5491 61.3293 61.4304 62.2106C62.3091 63.0893 63.7337 63.0893 64.6124 62.2106L75.219 51.604L77.6938 54.0789L67.0872 64.6855C64.8417 66.931 61.201 66.931 58.9555 64.6855Z" fill="#3E61EE"/>
<path fill-rule="evenodd" clip-rule="evenodd" d="M61.7836 73.1704C59.538 70.9248 59.5384 67.2839 61.7838 65.0385L76.9864 49.8358C77.6698 49.1524 78.7779 49.1524 79.4613 49.8358C80.1447 50.5193 80.1447 51.6273 79.4613 52.3107L64.2587 67.5133C63.3799 68.3921 63.3799 69.8169 64.2585 70.6955C65.1372 71.5742 66.5618 71.5742 67.4405 70.6955L77.6935 60.4424C78.377 59.759 79.485 59.759 80.1684 60.4424C80.8518 61.1259 80.8518 62.2339 80.1684 62.9173L69.9154 73.1704C67.6699 75.4159 64.0292 75.4159 61.7836 73.1704Z" fill="#3E61EE"/>
<path fill-rule="evenodd" clip-rule="evenodd" d="M63.9047 82.3623C61.6579 80.1154 61.6629 76.4723 63.9071 74.2281L80.1682 57.9671C80.8516 57.2837 81.9596 57.2836 82.6431 57.9671C83.3265 58.6505 83.3265 59.7585 82.6431 60.4419L66.382 76.703C65.5019 77.5831 65.5023 79.0101 66.3796 79.8874C67.2583 80.7661 68.6829 80.7661 69.5616 79.8874L85.825 63.6239C86.5085 62.9405 87.6165 62.9405 88.2999 63.6239C88.9833 64.3073 88.9833 65.4154 88.2999 66.0988L72.0365 82.3623C69.7909 84.6078 66.1502 84.6078 63.9047 82.3623Z" fill="#3E61EE"/>
<path fill-rule="evenodd" clip-rule="evenodd" d="M71.6831 85.8979C69.4355 83.6503 69.4432 80.006 71.6867 77.7626L85.8252 63.624C86.5086 62.9406 87.6166 62.9406 88.3001 63.624C88.9835 64.3074 88.9835 65.4155 88.3001 66.0989L74.1615 80.2374C73.2808 81.1182 73.2813 82.5464 74.1579 83.423C75.0366 84.3017 76.4612 84.3017 77.3399 83.423L95.7247 65.0382C96.4081 64.3548 97.5161 64.3548 98.1996 65.0382C98.883 65.7217 98.883 66.8297 98.1996 67.5131L79.8148 85.8979C77.5693 88.1434 73.9286 88.1434 71.6831 85.8979Z" fill="#3E61EE"/>
<path fill-rule="evenodd" clip-rule="evenodd" d="M90.9029 76.8335C88.976 74.9067 88.9798 71.7829 90.9044 69.8583L99.9672 60.7955C100.651 60.1121 101.759 60.1121 102.442 60.7955C103.125 61.479 103.125 62.587 102.442 63.2704L93.3793 72.3331C92.8193 72.8932 92.82 73.8009 93.3777 74.3587C93.8895 74.8705 94.7029 74.9196 95.2726 74.4731L105.334 66.5874C105.763 66.251 106.12 65.8917 106.4 65.5019C107.635 63.7812 109.274 61.106 110.598 58.0548C111.93 54.9875 112.89 51.6603 112.89 48.5979L112.89 47.8731L122.595 38.1681C123.278 37.4847 124.386 37.4847 125.069 38.1681C125.753 38.8515 125.753 39.9596 125.069 40.643L116.375 49.3376C116.236 52.831 115.144 56.3727 113.809 59.4482C112.373 62.7573 110.603 65.648 109.243 67.5428C108.734 68.2523 108.129 68.8437 107.493 69.3421L97.4317 77.2278C95.4688 78.7662 92.6663 78.597 90.9029 76.8335Z" fill="#3E61EE"/>
<path fill-rule="evenodd" clip-rule="evenodd" d="M100.145 16.7783L109.69 7.23238L136.914 34.456L127.368 44.0019L100.145 16.7783ZM105.094 16.7783L127.368 39.0522L131.964 34.456L109.69 12.1821L105.094 16.7783Z" fill="#3E61EE"/>
<path fill-rule="evenodd" clip-rule="evenodd" d="M66.7589 83.2372C63.9213 86.0748 59.3217 86.0814 56.481 83.2408L32.45 59.2098C28.7091 55.4689 27.9295 50.4534 28.002 47.6907L19.7626 39.4513C19.0791 38.7678 19.0791 37.6598 19.7626 36.9764C20.446 36.293 21.554 36.293 22.2374 36.9764L31.6305 46.3695L31.5377 47.2054C31.3377 49.005 31.7497 53.5597 34.9249 56.7349L58.9559 80.7659C60.4267 82.2367 62.8102 82.2361 64.284 80.7623C64.9675 80.0789 66.0755 80.0789 66.7589 80.7623C67.4423 81.4457 67.4423 82.5538 66.7589 83.2372ZM65.1537 78.1249C64.4703 78.8083 63.3622 78.8083 62.6788 78.1249L52.6026 68.0486C51.9191 67.3652 51.9191 66.2572 52.6026 65.5737C53.286 64.8903 54.394 64.8903 55.0774 65.5737L65.1537 75.65C65.8371 76.3334 65.8371 77.4415 65.1537 78.1249Z" fill="#3E61EE"/>
<path fill-rule="evenodd" clip-rule="evenodd" d="M70.7072 49.7372C70.0237 50.4206 68.9157 50.4206 68.2323 49.7372L61.795 43.2999C61.1116 42.6165 61.1116 41.5085 61.795 40.8251C62.4785 40.1416 63.5865 40.1416 64.2699 40.8251L70.7072 47.2623C71.3906 47.9457 71.3906 49.0538 70.7072 49.7372ZM48.8726 30.3775L39.1676 20.6725C38.4842 19.9891 38.4842 18.8811 39.1676 18.1976C39.851 17.5142 40.9591 17.5142 41.6425 18.1976L50.3371 26.8923C55.3668 27.0917 60.5351 29.2719 64.3335 31.378C67.9924 33.4067 70.8526 36.4263 73.2824 39.5264L75.1588 41.9205C75.755 42.6812 75.6217 43.7812 74.861 44.3774C74.1003 44.9736 73.0003 44.8403 72.4041 44.0796L70.5277 41.6855C68.2164 38.7366 65.6991 36.1372 62.6363 34.439C58.8314 32.3293 53.9677 30.3775 49.5975 30.3775L48.8726 30.3775Z" fill="#3E61EE"/>
<path fill-rule="evenodd" clip-rule="evenodd" d="M17.7773 43.123L8.2314 33.5771L35.455 6.35349L45.001 15.8994L17.7773 43.123ZM17.7773 38.1733L40.0512 15.8994L35.455 11.3032L13.1811 33.5771L17.7773 38.1733Z" fill="#3E61EE"/>
<path fill-rule="evenodd" clip-rule="evenodd" d="M93.75 99.5C93.75 104.79 90.7548 108.888 88.75 110.79L88.75 123.5L85.25 123.5L85.25 110C85.25 109.468 85.4917 108.966 85.9068 108.633C87.3207 107.502 90.25 103.99 90.25 99.5L90.25 72L93.75 72L93.75 99.5Z" fill="#3E61EE"/>
<path fill-rule="evenodd" clip-rule="evenodd" d="M60 82.2502C60.9665 82.2502 61.75 83.0337 61.75 84.0002L61.75 90.0002C61.75 90.9667 60.9665 91.7502 60 91.7502C59.0335 91.7502 58.25 90.9667 58.25 90.0002L58.25 84.0002C58.25 83.0337 59.0335 82.2502 60 82.2502ZM61.75 108.275L61.75 122C61.75 122.967 60.9665 123.75 60 123.75C59.0335 123.75 58.25 122.967 58.25 122L58.25 109.704C54.8345 106.007 52.7217 100.81 51.525 96.6352C50.3723 92.6136 50.485 88.4559 50.9589 84.5457L51.7173 78.2896C51.8336 77.3301 52.7056 76.6466 53.6651 76.7629C54.6246 76.8792 55.3081 77.7513 55.1918 78.7108L54.4335 84.9668C53.9827 88.6863 53.9246 92.3044 54.8895 95.6709C56.0882 99.8532 58.1472 104.672 61.2374 107.763L61.75 108.275Z" fill="#3E61EE"/>
<path fill-rule="evenodd" clip-rule="evenodd" d="M92.75 121.25L92.75 134.75L54.25 134.75L54.25 121.25L92.75 121.25ZM89.25 124.75L57.75 124.75L57.75 131.25L89.25 131.25L89.25 124.75Z" fill="#3E61EE"/>
<path fill-rule="evenodd" clip-rule="evenodd" d="M65.25 95C65.25 94.0335 66.0335 93.25 67 93.25C68.9668 93.25 71.8713 93.8545 74.3816 95.6864C76.9671 97.5731 79.0228 100.687 79.248 105.417C79.294 106.382 78.5486 107.202 77.5832 107.248C76.6178 107.294 75.798 106.549 75.752 105.583C75.5772 101.913 74.0496 99.7769 72.3184 98.5136C70.5121 97.1955 68.3665 96.75 67 96.75C66.0335 96.75 65.25 95.9665 65.25 95Z" fill="#3E61EE"/>
<path d="M107.143 81.4726C107.425 81.8198 107.834 82.0405 108.279 82.0864C108.724 82.1322 109.169 81.9993 109.516 81.7169C115.438 76.9067 120.45 71.0735 124.313 64.4944C124.428 64.3032 124.505 64.091 124.538 63.87C124.571 63.649 124.56 63.4237 124.505 63.207C124.451 62.9904 124.353 62.7868 124.219 62.608C124.085 62.4292 123.917 62.2788 123.724 62.1656C123.532 62.0523 123.319 61.9785 123.097 61.9483C122.876 61.9181 122.651 61.9322 122.435 61.9897C122.219 62.0472 122.016 62.1471 121.839 62.2834C121.662 62.4198 121.514 62.5899 121.404 62.784C117.744 69.0163 112.996 74.5419 107.386 79.0984C107.215 79.2382 107.072 79.4106 106.967 79.6056C106.861 79.8006 106.795 80.0145 106.773 80.235C106.75 80.4554 106.771 80.6782 106.835 80.8906C106.898 81.1029 107.003 81.3007 107.143 81.4726Z" fill="#968B82"/>
<path d="M103.83 85.6563C104.066 85.6563 104.299 85.6103 104.517 85.521C104.965 85.338 105.322 84.9849 105.511 84.539C105.699 84.0931 105.704 83.5906 105.523 83.1416L105.52 83.1357C105.394 82.8289 105.188 82.562 104.922 82.3636C104.657 82.1652 104.342 82.0428 104.013 82.0093C103.683 81.9759 103.35 82.0327 103.05 82.1738C102.75 82.3149 102.494 82.5348 102.31 82.8102C102.125 83.0855 102.019 83.4058 102.002 83.7369C101.986 84.0679 102.06 84.3973 102.216 84.6896C102.372 84.982 102.605 85.2264 102.889 85.3966C103.173 85.5669 103.499 85.6566 103.83 85.6563V85.6563Z" fill="#968B82"/>
<path d="M26.8303 79.6563C27.0657 79.6563 27.2988 79.6103 27.5165 79.521C27.9648 79.338 28.3223 78.9849 28.5108 78.539C28.6994 78.0931 28.7036 77.5906 28.5226 77.1416L28.52 77.1357C28.3945 76.8289 28.1879 76.562 27.9223 76.3636C27.6568 76.1652 27.3423 76.0428 27.0125 76.0093C26.6828 75.9759 26.3501 76.0327 26.0501 76.1738C25.7502 76.3149 25.4942 76.5348 25.3096 76.8102C25.1251 77.0855 25.0188 77.4058 25.0023 77.7369C24.9857 78.0679 25.0595 78.3973 25.2157 78.6896C25.3719 78.982 25.6047 79.2264 25.8891 79.3966C26.1735 79.5669 26.4988 79.6566 26.8303 79.6563V79.6563Z" fill="#968B82"/>
<path d="M11.8303 117.656C12.0657 117.656 12.2988 117.61 12.5165 117.521C12.9648 117.338 13.3223 116.985 13.5108 116.539C13.6994 116.093 13.7036 115.591 13.5226 115.142L13.52 115.136C13.3945 114.829 13.1879 114.562 12.9223 114.364C12.6568 114.165 12.3423 114.043 12.0125 114.009C11.6828 113.976 11.3501 114.033 11.0501 114.174C10.7502 114.315 10.4942 114.535 10.3096 114.81C10.1251 115.085 10.0188 115.406 10.0023 115.737C9.98573 116.068 10.0595 116.397 10.2157 116.69C10.3719 116.982 10.6047 117.226 10.8891 117.397C11.1735 117.567 11.4988 117.657 11.8303 117.656V117.656Z" fill="#968B82"/>
<path d="M18.0043 110C18.3906 110 18.7733 109.925 19.1307 109.778C19.8665 109.478 20.4533 108.898 20.7628 108.167C21.0723 107.435 21.0792 106.61 20.7821 105.873L20.7779 105.864C20.5718 105.36 20.2327 104.922 19.7968 104.597C19.361 104.271 18.8448 104.07 18.3035 104.015C17.7622 103.96 17.2161 104.054 16.7237 104.285C16.2314 104.517 15.8112 104.878 15.5083 105.329C15.2053 105.781 15.0309 106.307 15.0037 106.85C14.9766 107.394 15.0977 107.934 15.3541 108.414C15.6105 108.893 15.9925 109.295 16.4594 109.574C16.9262 109.853 17.4602 110.001 18.0043 110V110Z" fill="#968B82"/>
<path d="M21.1521 122.519C22.1182 122.845 22.9956 123.39 23.7155 124.113C24.4354 124.835 24.9782 125.714 25.3014 126.681C25.4131 127.017 25.628 127.31 25.9154 127.518C26.2029 127.725 26.5483 127.837 26.9028 127.837C27.2573 127.837 27.6028 127.725 27.8902 127.518C28.1777 127.31 28.3925 127.017 28.5043 126.681C28.8277 125.714 29.3706 124.835 30.0906 124.113C30.8106 123.391 31.688 122.845 32.6541 122.519C32.9897 122.406 33.2815 122.191 33.4882 121.904C33.695 121.617 33.8062 121.272 33.8062 120.918C33.8062 120.564 33.695 120.22 33.4882 119.932C33.2815 119.645 32.9897 119.43 32.6541 119.318C31.688 118.992 30.8106 118.446 30.0906 117.724C29.3706 117.002 28.8277 116.123 28.5043 115.155C28.3925 114.819 28.1777 114.526 27.8902 114.319C27.6028 114.112 27.2573 114 26.9028 114C26.5483 114 26.2029 114.112 25.9154 114.319C25.628 114.526 25.4131 114.819 25.3014 115.155C24.9781 116.123 24.4353 117.002 23.7154 117.724C22.9955 118.446 22.1182 118.991 21.1521 119.318C20.8165 119.43 20.5247 119.645 20.318 119.932C20.1112 120.219 20 120.564 20 120.918C20 121.272 20.1112 121.617 20.318 121.904C20.5247 122.191 20.8165 122.406 21.1521 122.518V122.519ZM26.9031 119.2C27.4031 119.839 27.9787 120.416 28.6173 120.917C27.9787 121.418 27.4031 121.995 26.9031 122.634C26.4026 121.995 25.8265 121.418 25.1875 120.917C25.8265 120.416 26.4025 119.84 26.9031 119.201V119.2Z" fill="#968B82"/>
<path d="M121.152 85.5186C122.118 85.8448 122.996 86.3904 123.716 87.1126C124.435 87.8348 124.978 88.714 125.301 89.6811C125.413 90.0175 125.628 90.3101 125.915 90.5176C126.203 90.725 126.548 90.8366 126.903 90.8366C127.257 90.8366 127.603 90.725 127.89 90.5176C128.178 90.3101 128.392 90.0175 128.504 89.6811C128.828 88.714 129.371 87.8349 130.091 87.1127C130.811 86.3906 131.688 85.8449 132.654 85.5186C132.99 85.4063 133.281 85.1914 133.488 84.9042C133.695 84.6171 133.806 84.2721 133.806 83.9183C133.806 83.5644 133.695 83.2195 133.488 82.9323C133.281 82.6452 132.99 82.4302 132.654 82.318C131.688 81.9916 130.811 81.446 130.091 80.7238C129.371 80.0017 128.828 79.1226 128.504 78.1555C128.392 77.8191 128.178 77.5264 127.89 77.319C127.603 77.1116 127.257 77 126.903 77C126.548 77 126.203 77.1116 125.915 77.319C125.628 77.5264 125.413 77.8191 125.301 78.1555C124.978 79.1225 124.435 80.0016 123.715 80.7237C122.996 81.4459 122.118 81.9914 121.152 82.3177C120.817 82.43 120.525 82.6449 120.318 82.9321C120.111 83.2192 120 83.5641 120 83.918C120 84.2719 120.111 84.6168 120.318 84.904C120.525 85.1911 120.817 85.406 121.152 85.5183V85.5186ZM126.903 82.1998C127.403 82.8394 127.979 83.416 128.617 83.9172C127.979 84.4183 127.403 84.9949 126.903 85.6345C126.403 84.9949 125.827 84.4183 125.187 83.9172C125.826 83.4164 126.403 82.8401 126.903 82.201V82.1998Z" fill="#968B82"/>
<path d="M12.5021 70.0818C13.7616 70.5062 14.9056 71.216 15.8442 72.1555C16.7827 73.095 17.4904 74.2387 17.9117 75.4968C18.0574 75.9345 18.3376 76.3152 18.7123 76.585C19.0871 76.8548 19.5375 77 19.9996 77C20.4618 77 20.9122 76.8548 21.287 76.585C21.6617 76.3152 21.9418 75.9345 22.0875 75.4968C22.5092 74.2387 23.2171 73.0951 24.1557 72.1557C25.0944 71.2162 26.2384 70.5064 27.4979 70.0818C27.9354 69.9358 28.3159 69.6562 28.5854 69.2826C28.855 68.909 29 68.4603 29 68C29 67.5397 28.855 67.091 28.5854 66.7174C28.3159 66.3438 27.9354 66.0642 27.4979 65.9182C26.2384 65.4936 25.0944 64.7838 24.1557 63.8443C23.2171 62.9049 22.5092 61.7613 22.0875 60.5032C21.9418 60.0655 21.6617 59.6848 21.287 59.415C20.9122 59.1452 20.4618 59 19.9996 59C19.5375 59 19.0871 59.1452 18.7123 59.415C18.3376 59.6848 18.0574 60.0655 17.9117 60.5032C17.4903 61.7612 16.7826 62.9048 15.844 63.8442C14.9054 64.7836 13.7616 65.4934 12.5021 65.9178C12.0645 66.0638 11.6841 66.3434 11.4146 66.717C11.145 67.0906 11 67.5393 11 67.9996C11 68.46 11.145 68.9087 11.4146 69.2822C11.6841 69.6558 12.0645 69.9354 12.5021 70.0815V70.0818ZM20 65.7645C20.6519 66.5965 21.4023 67.3466 22.2349 67.9985C21.4023 68.6505 20.6519 69.4006 20 70.2326C19.3475 69.4006 18.5964 68.6505 17.7632 67.9985C18.5963 67.3471 19.3474 66.5974 20 65.7659V65.7645Z" fill="#968B82"/>
<path fill-rule="evenodd" clip-rule="evenodd" d="M45.2107 85.2629C46.1701 85.3792 46.8537 86.2513 46.7374 87.2108C46.4213 89.818 46.3248 94.0915 47.0731 98.3068C47.8309 102.575 49.3932 106.44 52.1036 108.642C52.8537 109.251 52.9678 110.354 52.3583 111.104C51.7488 111.854 50.6467 111.968 49.8966 111.358C46.2069 108.361 44.4359 103.475 43.627 98.9186C42.8087 94.3089 42.9122 89.6823 43.2628 86.7896C43.3791 85.8301 44.2512 85.1466 45.2107 85.2629Z" fill="#968B82"/>
</svg>
