{
    "asset" : {
        "generator" : "Khronos glTF Blender I/O v1.5.17",
        "version" : "2.0"
    },
    "scene" : 0,
    "scenes" : [
        {
            "name" : "Scene",
            "nodes" : [
                0
            ]
        }
    ],
    "nodes" : [
        {
            "mesh" : 0,
            "name" : "Satellite",
            "rotation" : [
                0.7071068286895752,
                0,
                0,
                0.7071067094802856
            ],
            "scale" : [
                5.413225173950195,
                5.413225173950195,
                5.413225173950195
            ]
        }
    ],
    "meshes" : [
        {
            "name" : "meshId0_name",
            "primitives" : [
                {
                    "attributes" : {
                        "POSITION" : 0,
                        "NORMAL" : 1,
                        "TEXCOORD_0" : 2
                    },
                    "indices" : 3
                }
            ]
        }
    ],
    "accessors" : [
        {
            "bufferView" : 0,
            "componentType" : 5126,
            "count" : 23867,
            "max" : [
                0.3878740072250366,
                1,
                0.6104069948196411
            ],
            "min" : [
                -1.3571900129318237,
                -0.9999989867210388,
                -0.6101930141448975
            ],
            "type" : "VEC3"
        },
        {
            "bufferView" : 1,
            "componentType" : 5126,
            "count" : 23867,
            "type" : "VEC3"
        },
        {
            "bufferView" : 2,
            "componentType" : 5126,
            "count" : 23867,
            "type" : "VEC2"
        },
        {
            "bufferView" : 3,
            "componentType" : 5123,
            "count" : 28890,
            "type" : "SCALAR"
        }
    ],
    "bufferViews" : [
        {
            "buffer" : 0,
            "byteLength" : 286404,
            "byteOffset" : 0
        },
        {
            "buffer" : 0,
            "byteLength" : 286404,
            "byteOffset" : 286404
        },
        {
            "buffer" : 0,
            "byteLength" : 190936,
            "byteOffset" : 572808
        },
        {
            "buffer" : 0,
            "byteLength" : 57780,
            "byteOffset" : 763744
        }
    ],
    "buffers" : [
        {
            "byteLength" : 821524,
            "uri" : "data:application/octet-stream;base64,"
        }
    ]
}
